<svg width="264" height="336" viewBox="0 0 264 336" fill="none" xmlns="http://www.w3.org/2000/svg">
<g clip-path="url(#clip0_1545_6067)">
<rect width="264" height="264" fill="#8A6262"/>
<path d="M43.9827 270.528C42.5277 271.983 41.5478 272.963 39.6452 274.163C39.2192 274.163 37.974 275.6 38.4 275.6C39.7104 275.6 40.9627 275.582 42.2473 275.903C50.513 277.969 58.4764 278.76 66.9756 278.76C78.5032 278.76 90.0289 278.425 101.522 277.611C112.918 276.804 124.124 276.231 135.557 276.174C142.406 276.14 149.274 275.779 156.119 275.536C164.726 275.229 173.197 273.908 181.837 274.035C190.513 274.163 198.743 275.213 207.315 276.462L207.394 276.473C214.154 277.458 220.866 278.436 227.701 278.697C231.491 278.841 235.02 278.791 238.717 277.962C240.983 277.454 243.464 277.443 245.39 275.999C247.126 274.697 248.773 271.345 247.545 269.134C245.613 265.658 240.94 264.489 237.695 262.732C235.621 261.61 233.52 260.943 231.373 260.019C229.876 259.374 228.608 258.304 227.127 257.64C222.054 255.366 218.37 249.116 212.488 248.604C210.056 248.393 208.02 246.99 205.671 246.417C202.167 245.564 198.85 244.374 195.422 243.272C193.717 242.724 191.822 242.472 190.218 241.628C188.418 240.681 188.588 237.719 187.919 236.009C187.462 234.84 187.136 233.326 186.482 232.273C185.937 231.395 185.187 230.657 184.63 229.783C184.118 228.978 183.309 228.549 182.906 227.628C182.629 226.993 182.358 226.413 181.885 225.888C179.946 223.733 179.503 220.864 177.351 218.927C176.613 218.263 175.723 218.647 174.86 218.4C174.117 218.188 173.845 216.717 173.615 216.054C173.04 214.393 172.372 213.027 171.971 211.264C171.297 208.3 171.54 205.219 171.54 202.197C171.54 196.443 172.536 190.921 172.993 185.211C173.094 183.946 173.264 182.774 173.264 181.492C173.264 180.169 173.795 178.979 173.839 177.676C173.893 176.064 173.875 174.238 174.19 172.663C174.714 170.043 176.561 167.273 177.878 164.969C179.131 162.776 180.727 160.899 181.885 158.647C183.164 156.159 184.467 153.786 185.493 151.176C186.659 148.207 187.205 145.35 188.063 142.3C189.127 138.518 189.008 134.448 189.068 130.55C189.094 128.91 189.643 127.39 189.643 125.729V121.547C189.643 115.415 189.503 109.41 189.053 103.332C188.77 99.5235 188.129 95.3608 186.626 91.8536C186.019 90.4362 184.824 89.29 184.056 87.9584C183.207 86.4864 183.247 84.922 182.747 83.3607C182.133 81.4488 181.546 79.386 180.448 77.6775C177.948 73.7889 177.482 68.6138 174.126 65.2575C173.032 64.1637 171.897 62.9808 170.678 62.0328C169.708 61.2785 168.469 60.7489 167.677 59.7978C166.407 58.2744 164.148 56.7184 162.456 55.6152C160.637 54.4289 158.618 53.3902 156.885 52.1032C155.623 51.1654 155.045 51.2732 154.57 49.6128C154.498 49.3613 154.707 49.0784 154.554 48.7347C154.192 47.9193 152.694 47.6759 152.128 46.9308C151.369 45.9324 148.937 45.8255 147.817 45.4302C146.245 44.875 144.582 44.2296 142.821 44.0094C141.403 43.8322 139.635 43.7178 138.335 43.0675C137.6 42.7001 136.118 41.982 135.318 41.982C133.409 41.982 132.037 40.3589 130.385 39.747C129.151 39.2901 128.126 38.6198 127.112 37.8313C125.966 36.9396 123.255 37.3843 121.892 37.3843C117.841 37.3843 113.809 37.6717 109.775 37.6717C107.569 37.6717 105.69 39.2076 103.853 40.2578C101.16 41.7965 98.0798 42.959 95.1681 43.9296C94.1961 44.2536 92.912 45.2356 92.087 45.8772C91.3913 46.4183 90.0278 47.301 89.5807 48.0164C89.0236 48.9076 86.7427 49.5816 85.7812 49.7564C85.0343 49.8923 83.8035 50.5639 83.1791 51.0495C81.0352 52.717 79.3121 54.6132 77.432 56.4933C76.201 57.7243 74.6492 58.259 73.2654 59.287C71.6731 60.4698 70.0779 61.6225 68.5241 62.831C67.2492 63.8226 66.5974 65.2242 65.922 66.6943C65.2138 68.2356 65.675 69.6595 64.5171 71.1482C64.0103 71.7999 63.3215 72.6729 62.9846 73.4311C62.4493 74.6355 62.6775 76.2502 61.7713 77.3263C59.6638 79.829 60.7856 83.0652 59.4087 85.8192C58.3881 87.8603 58.5121 90.6227 57.9719 92.8433C57.7116 93.9134 57.4908 95.1895 57.461 96.2916C57.4321 97.3631 56.9802 98.2565 56.9023 99.3088C56.6464 102.764 56.3116 106.065 56.3116 109.574V117.875C56.3116 119.734 55.8062 122.556 56.6149 124.308C57.0743 125.304 58.1549 126.084 58.7382 127.038C59.2806 127.926 59.592 128.975 60.0472 129.912C60.807 131.476 61.3721 133.247 61.4999 134.972C61.582 136.08 61.7565 137.187 62.0587 138.245C62.2725 138.993 62.9465 139.509 63.1442 140.257C63.4072 141.25 63.8444 142.124 64.0861 142.97C64.207 143.393 64.6449 143.104 64.6449 143.848C64.6449 144.298 64.6937 144.578 64.4214 144.918C64.1495 145.258 64.4867 145.715 64.134 146.067C63.8815 146.32 63.6221 146.649 63.3518 146.866C61.8574 148.061 64.8405 153.78 65.2834 154.975C66.358 157.877 67.6946 160.564 68.7316 163.468C69.7051 166.194 70.8456 168.889 72.2597 171.434C72.7661 172.346 73.0348 172.988 73.904 173.589C74.7665 174.186 75.9049 174.332 76.1549 175.457C76.4653 176.854 77.1469 179.624 79.0125 179.624C80.7339 179.624 81.5963 182.077 82.2372 183.359C83.6649 186.215 85.2618 187.972 87.0583 190.525C90.1496 194.917 89.5363 198.646 90.4427 204.737C91.0972 209.135 91.656 213.678 91.656 217.985C91.656 220.205 91.5374 223.055 90.4427 225.025C89.9414 225.928 89.1423 226.979 88.3514 227.612C87.6294 228.189 87.5245 229.504 87.0583 230.262C85.6494 232.551 84.503 235.044 83.1791 237.398L83.1768 237.402C82.2519 239.046 81.3113 240.718 80.4492 242.394C79.6513 243.946 78.2382 245.751 77.8631 247.439C77.2147 250.356 74.9964 252.574 72.9499 254.619L72.8184 254.75C71.2808 256.288 68.7594 257.036 66.6882 257.496C65.7038 257.715 64.4939 258.071 63.4954 258.071C62.6386 258.071 61.937 258.559 61.1966 258.646C60.0912 258.776 59.4981 260.486 58.4668 260.945C57.5473 261.353 56.8994 262.168 56.2478 262.892C55.1431 264.12 52.2849 264.25 50.7242 264.696C49.3241 265.096 48.0221 267.086 46.7013 267.841C45.8208 268.344 44.7618 269.749 44.0193 270.491L43.9827 270.528Z" fill="#E6ECEF"/>
</g>
<rect width="264" height="64" transform="translate(0 272)" fill="#8A6262"/>
<path d="M43.4086 310.469V312.625H24.0492V310.469H32.393V307.023H26.3461V300.086H38.5336V297.461H26.2992V295.352H41.1117V302.148H28.9477V304.891H41.6039V307.023H34.9711V310.469H43.4086ZM49.2773 294.484V296.5H58.418V294.484H60.9961V302.406H55.1367V304.352H63.5039V306.438H44.1914V304.352H52.5586V302.406H46.6992V294.484H49.2773ZM45.5508 312.977C49.9102 312.461 52.5 310.375 52.5117 308.078V307.609H55.1367V308.078C55.1367 310.375 57.7266 312.461 62.1211 312.977L61.207 314.969C57.7617 314.5 55.1367 313.129 53.8242 311.148C52.5117 313.129 49.8984 314.5 46.4883 314.969L45.5508 312.977ZM49.2773 300.367H58.418V298.492H49.2773V300.367ZM87.6633 293.898V315.086H85.1789V293.898H87.6633ZM69.0539 309.062C72.1125 307.199 73.4602 303.379 73.4602 299.688V298.281H69.7805V296.172H79.3898V298.281H75.968V299.688C75.968 303.262 77.2453 306.848 80.2805 308.594L78.7336 310.516C76.7766 309.355 75.4758 307.34 74.7375 304.926C73.9875 307.539 72.6398 309.766 70.6477 311.008L69.0539 309.062ZM77.843 303.391V301.281H80.8898V294.297H83.3508V314.055H80.8898V303.391H77.843ZM108.93 310.398V312.531H89.5711V310.398H97.9383V305.523H100.54V310.398H108.93ZM90.4148 304.352C94.6336 303.648 97.7742 300.789 97.8445 297.742H91.1883V295.609H107.266V297.742H100.587C100.669 300.789 103.809 303.578 108.157 304.234L107.126 306.297C103.552 305.652 100.61 303.754 99.2391 301.105C97.8797 303.789 94.9734 305.746 91.4461 306.414L90.4148 304.352ZM117.284 298.984C117.26 302.77 119.159 306.59 122.44 308.172L120.846 310.258C118.549 309.098 116.897 306.859 115.995 304.164C115.069 307.047 113.334 309.438 110.909 310.656L109.315 308.57C112.725 306.953 114.67 302.898 114.682 298.984V295.609H117.284V298.984ZM123.705 315.086V293.898H126.307V302.195H129.565V304.422H126.307V315.086H123.705ZM152.693 293.922V309.461H150.091V304.211H145.041C144.033 305.348 142.533 306.027 140.834 306.039C137.634 306.027 135.232 303.754 135.232 300.625C135.232 297.461 137.634 295.199 140.834 295.188C142.521 295.199 144.021 295.867 145.029 296.992H150.091V293.922H152.693ZM137.716 300.625C137.716 302.512 139.017 303.719 140.834 303.719C142.568 303.719 143.892 302.512 143.904 300.625C143.892 298.727 142.568 297.508 140.834 297.508C139.017 297.508 137.716 298.727 137.716 300.625ZM138.795 314.664V307.867H141.396V312.555H153.232V314.664H138.795ZM146.177 299.102C146.306 299.582 146.388 300.086 146.388 300.625C146.388 301.141 146.318 301.633 146.189 302.102H150.091V299.102H146.177ZM171.804 293.898V299.125H174.757V301.281H171.804V306.273H169.202V293.898H171.804ZM155.116 297.953V295.867H160.109V293.734H162.71V295.867H167.679V297.953H155.116ZM156.195 302.406C156.195 300.156 158.304 298.68 161.398 298.68C164.456 298.68 166.566 300.156 166.577 302.406C166.566 304.656 164.456 306.145 161.398 306.133C158.304 306.145 156.195 304.656 156.195 302.406ZM158.116 314.828V307.117H160.695V308.945H169.202V307.117H171.804V314.828H158.116ZM158.726 302.406C158.714 303.555 159.792 304.211 161.398 304.211C163.003 304.211 164.093 303.555 164.093 302.406C164.093 301.293 163.003 300.602 161.398 300.602C159.792 300.602 158.714 301.293 158.726 302.406ZM160.695 312.766H169.202V310.961H160.695V312.766ZM192.884 293.898V315.086H190.282V293.898H192.884ZM175.329 309.203C177.016 309.191 178.927 309.191 180.93 309.133V307.188C178.552 306.812 176.993 305.359 176.993 303.344C176.993 300.953 179.114 299.371 182.196 299.359C185.313 299.371 187.47 300.953 187.47 303.344C187.47 305.348 185.911 306.789 183.532 307.176V309.039C185.395 308.957 187.27 308.805 189.04 308.57L189.227 310.516C184.575 311.301 179.513 311.359 175.704 311.359L175.329 309.203ZM175.774 298.398V296.336H180.93V293.969H183.532V296.336H188.665V298.398H175.774ZM179.477 303.344C179.454 304.562 180.591 305.277 182.196 305.266C183.848 305.277 184.973 304.562 184.962 303.344C184.973 302.113 183.848 301.363 182.196 301.352C180.591 301.363 179.454 302.113 179.477 303.344ZM218.707 293.898V315.086H216.223V304.281H213.832V314.008H211.441V294.297H213.832V302.195H216.223V293.898H218.707ZM201.129 310.141V296.406H209.051V298.516H203.754V307.938C206.051 307.914 207.949 307.797 210.105 307.398L210.293 309.531C207.727 310.047 205.512 310.117 202.559 310.141H201.129ZM239.974 310.539V312.648H220.615V310.539H225.63V306.18H222.279V304.07H225.255V297.789H222.209V295.703H238.287V297.789H235.193V304.07H238.216V306.18H234.865V310.539H239.974ZM227.857 304.07H232.615V297.789H227.857V304.07ZM228.232 310.539H232.263V306.18H228.232V310.539Z" fill="#E6ECEF"/>
<defs>
<clipPath id="clip0_1545_6067">
<rect width="264" height="264" fill="white"/>
</clipPath>
</defs>
</svg>
