<svg width="64" height="64" viewBox="0 0 64 64" fill="none" xmlns="http://www.w3.org/2000/svg">
<g clip-path="url(#clip0_506_3)">
<path d="M0 32C0 14.3269 14.3269 0 32 0C49.6731 0 64 14.3269 64 32C64 49.6731 49.6731 64 32 64C14.3269 64 0 49.6731 0 32Z" fill="#8A6262"/>
<g clip-path="url(#clip1_506_3)">
<rect width="64" height="64" fill="#8A6262"/>
<path d="M10.6627 65.5831C10.3099 65.9358 10.0724 66.1734 9.61116 66.4643C9.5079 66.4643 9.20603 66.8126 9.3093 66.8126C9.62698 66.8126 9.93056 66.8083 10.242 66.8862C12.2458 67.3871 14.1763 67.5789 16.2367 67.5789C19.0313 67.5789 21.8254 67.4975 24.6115 67.3003C27.3742 67.1047 30.0908 66.9658 32.8625 66.952C34.5228 66.9437 36.1879 66.8562 37.8472 66.7971C39.9339 66.7229 41.9873 66.4026 44.0818 66.4334C46.1853 66.4643 48.1804 66.7188 50.2585 67.0216L50.2775 67.0244C51.9162 67.2631 53.5435 67.5002 55.2005 67.5634C56.1192 67.5985 56.9748 67.5863 57.8709 67.3854C58.4204 67.2622 59.0217 67.2595 59.4886 66.9094C59.9094 66.5937 60.3088 65.7812 60.011 65.2453C59.5428 64.4025 58.4099 64.1191 57.6232 63.6934C57.1205 63.4213 56.6111 63.2596 56.0907 63.0354C55.7278 62.8792 55.4202 62.6197 55.0612 62.4588C53.8316 61.9076 52.9385 60.3924 51.5124 60.2683C50.9228 60.2171 50.4294 59.8769 49.8599 59.7382C49.0103 59.5312 48.2063 59.2429 47.3753 58.9757C46.9618 58.8428 46.5025 58.7818 46.1136 58.5771C45.6773 58.3475 45.7186 57.6295 45.5563 57.2149C45.4455 56.9315 45.3664 56.5645 45.208 56.3093C45.0758 56.0963 44.894 55.9174 44.7591 55.7055C44.6349 55.5103 44.4388 55.4064 44.3411 55.1831C44.2738 55.0293 44.2082 54.8887 44.0935 54.7612C43.6234 54.239 43.5161 53.5434 42.9944 53.0739C42.8155 52.9129 42.5997 53.0059 42.3906 52.9462C42.2104 52.8947 42.1445 52.5382 42.0888 52.3773C41.9494 51.9746 41.7873 51.6436 41.6901 51.2163C41.5268 50.4976 41.5857 49.7506 41.5857 49.0181C41.5857 47.6231 41.8271 46.2846 41.9378 44.9003C41.9624 44.5935 42.0036 44.3096 42.0036 43.9986C42.0036 43.6781 42.1324 43.3894 42.1429 43.0736C42.156 42.6829 42.1517 42.2402 42.2281 41.8584C42.3551 41.2233 42.8028 40.5518 43.1221 39.9931C43.4258 39.4615 43.8127 39.0064 44.0935 38.4605C44.4037 37.8573 44.7195 37.282 44.9681 36.6493C45.2509 35.9295 45.3832 35.2369 45.5912 34.4976C45.8491 33.5806 45.8204 32.5942 45.835 31.6492C45.8411 31.2515 45.9743 30.883 45.9743 30.4804V29.4665C45.9743 27.9801 45.9403 26.5243 45.8311 25.0507C45.7627 24.1275 45.6073 23.1184 45.2429 22.2682C45.0956 21.9246 44.806 21.6467 44.6198 21.3239C44.4139 20.967 44.4238 20.5878 44.3024 20.2093C44.1538 19.7458 44.0114 19.2457 43.7452 18.8315C43.1391 17.8889 43.0263 16.6343 42.2126 15.8206C41.9474 15.5555 41.6722 15.2687 41.3767 15.0389C41.1416 14.856 40.8412 14.7276 40.6491 14.4971C40.3413 14.1278 39.7936 13.7505 39.3836 13.4831C38.9426 13.1955 38.453 12.9437 38.0329 12.6317C37.7269 12.4044 37.5868 12.4305 37.4718 12.028C37.4544 11.967 37.5049 11.8984 37.4679 11.8151C37.38 11.6174 37.0169 11.5584 36.8797 11.3778C36.6957 11.1358 36.1062 11.1098 35.8347 11.014C35.4534 10.8794 35.0505 10.723 34.6234 10.6696C34.2797 10.6266 33.8512 10.5989 33.5359 10.4412C33.3578 10.3522 32.9984 10.1781 32.8045 10.1781C32.3418 10.1781 32.0092 9.78462 31.6086 9.63627C31.3096 9.52552 31.061 9.36302 30.8153 9.17186C30.5373 8.9557 29.8803 9.0635 29.5497 9.0635C28.5676 9.0635 27.5901 9.13316 26.6124 9.13316C26.0774 9.13316 25.6221 9.50552 25.1766 9.76011C24.5238 10.1331 23.7771 10.4149 23.0713 10.6502C22.8356 10.7288 22.5243 10.9668 22.3243 11.1224C22.1557 11.2536 21.8251 11.4675 21.7167 11.641C21.5817 11.857 21.0287 12.0204 20.7957 12.0628C20.6146 12.0957 20.3162 12.2585 20.1648 12.3763C19.6451 12.7805 19.2274 13.2402 18.7716 13.696C18.4732 13.9944 18.097 14.124 17.7615 14.3732C17.3755 14.66 16.9888 14.9394 16.6121 15.2324C16.303 15.4728 16.145 15.8126 15.9813 16.1689C15.8096 16.5426 15.9214 16.8878 15.6407 17.2487C15.5178 17.4067 15.3509 17.6183 15.2692 17.8021C15.1394 18.0941 15.1948 18.4855 14.9751 18.7464C14.4642 19.3531 14.7361 20.1377 14.4023 20.8053C14.1549 21.3001 14.1849 21.9698 14.054 22.5081C13.9909 22.7675 13.9374 23.0769 13.9302 23.344C13.9231 23.6038 13.8136 23.8204 13.7947 24.0755C13.7327 24.9131 13.6515 25.7133 13.6515 26.5639V28.5764C13.6515 29.0271 13.529 29.7112 13.725 30.136C13.8364 30.3773 14.0984 30.5664 14.2398 30.7978C14.3713 31.013 14.4467 31.2672 14.5571 31.4944C14.7413 31.8736 14.8783 32.3028 14.9093 32.7212C14.9292 32.9897 14.9715 33.2582 15.0447 33.5146C15.0966 33.696 15.26 33.8211 15.3079 34.0022C15.3717 34.243 15.4776 34.455 15.5362 34.6601C15.5655 34.7627 15.6717 34.6925 15.6717 34.873C15.6717 34.9821 15.6835 35.0497 15.6175 35.1323C15.5516 35.2147 15.6334 35.3254 15.5478 35.4109C15.4866 35.4721 15.4237 35.552 15.3582 35.6044C14.9959 35.8942 15.7191 37.2805 15.8265 37.5704C16.087 38.2738 16.411 38.9254 16.6624 39.6293C16.8984 40.29 17.1749 40.9434 17.5177 41.5604C17.6405 41.7814 17.7056 41.937 17.9163 42.0829C18.1254 42.2277 18.4014 42.2629 18.462 42.5357C18.5372 42.8743 18.7025 43.5458 19.1547 43.5458C19.5721 43.5458 19.7811 44.1406 19.9365 44.4514C20.2826 45.1436 20.6697 45.5695 21.1053 46.1884C21.8547 47.2533 21.706 48.1572 21.9257 49.6338C22.0844 50.6999 22.2198 51.8013 22.2198 52.8456C22.2198 53.3837 22.1911 54.0746 21.9257 54.5523C21.8042 54.771 21.6105 55.0258 21.4187 55.1792C21.2437 55.3192 21.2183 55.638 21.1053 55.8216C20.7637 56.3767 20.4858 56.981 20.1648 57.5516L20.1641 57.5528C19.94 57.9513 19.712 58.3566 19.5031 58.7629C19.3096 59.139 18.967 59.5766 18.8761 59.9858C18.7189 60.6931 18.1812 61.2306 17.685 61.7265L17.6532 61.7583C17.2804 62.1311 16.6691 62.3124 16.1671 62.424C15.9284 62.477 15.6351 62.5633 15.393 62.5633C15.1853 62.5633 15.0152 62.6815 14.8358 62.7026C14.5678 62.7341 14.424 63.1488 14.174 63.2599C13.9511 63.359 13.794 63.5565 13.636 63.7321C13.3682 64.0296 12.6753 64.0613 12.297 64.1694C11.9576 64.2664 11.6419 64.7488 11.3217 64.9318C11.1083 65.0537 10.8515 65.3942 10.6716 65.5742L10.6627 65.5831Z" fill="#D3D8DF"/>
</g>
</g>
<defs>
<clipPath id="clip0_506_3">
<path d="M0 32C0 14.3269 14.3269 0 32 0C49.6731 0 64 14.3269 64 32C64 49.6731 49.6731 64 32 64C14.3269 64 0 49.6731 0 32Z" fill="white"/>
</clipPath>
<clipPath id="clip1_506_3">
<rect width="64" height="64" fill="white"/>
</clipPath>
</defs>
</svg>
