<svg width="264" height="336" viewBox="0 0 264 336" fill="none" xmlns="http://www.w3.org/2000/svg">
<g clip-path="url(#clip0_428_3283)">
<rect width="264" height="264" fill="#8A6262"/>
<path d="M43.9827 270.531C42.5277 271.986 41.5478 272.966 39.6452 274.166C39.2192 274.166 37.974 275.603 38.4 275.603C39.7104 275.603 40.9627 275.585 42.2473 275.906C50.513 277.973 58.4764 278.764 66.9756 278.764C78.5032 278.764 90.0289 278.428 101.522 277.614C112.918 276.808 124.124 276.235 135.557 276.178C142.406 276.143 149.274 275.783 156.119 275.539C164.726 275.233 173.197 273.911 181.837 274.038C190.513 274.166 198.743 275.216 207.315 276.465L207.394 276.476C214.154 277.461 220.866 278.439 227.701 278.7C231.491 278.844 235.02 278.794 238.717 277.966C240.983 277.458 243.464 277.446 245.39 276.002C247.126 274.7 248.773 271.348 247.545 269.137C245.613 265.661 240.94 264.492 237.695 262.736C235.621 261.614 233.52 260.947 231.373 260.022C229.876 259.377 228.608 258.307 227.127 257.643C222.054 255.37 218.37 249.119 212.488 248.608C210.056 248.396 208.02 246.993 205.671 246.421C202.167 245.567 198.85 244.378 195.422 243.276C193.717 242.728 191.822 242.476 190.218 241.631C188.418 240.684 188.588 237.722 187.919 236.012C187.462 234.843 187.136 233.329 186.482 232.277C185.937 231.398 185.187 230.66 184.63 229.786C184.118 228.981 183.309 228.552 182.906 227.631C182.629 226.997 182.358 226.417 181.885 225.891C179.946 223.737 179.503 220.867 177.351 218.931C176.613 218.267 175.723 218.65 174.86 218.404C174.117 218.191 173.845 216.721 173.615 216.057C173.04 214.396 172.372 213.031 171.971 211.268C171.297 208.303 171.54 205.222 171.54 202.2C171.54 196.446 172.536 190.925 172.993 185.215C173.094 183.949 173.264 182.778 173.264 181.495C173.264 180.173 173.795 178.982 173.839 177.68C173.893 176.068 173.875 174.242 174.19 172.667C174.714 170.047 176.561 167.277 177.878 164.972C179.131 162.78 180.727 160.902 181.885 158.65C183.164 156.162 184.467 153.789 185.493 151.179C186.659 148.21 187.205 145.353 188.063 142.303C189.127 138.521 189.008 134.452 189.068 130.554C189.094 128.913 189.643 127.393 189.643 125.733V121.55C189.643 115.419 189.503 109.414 189.053 103.335C188.77 99.5269 188.129 95.3643 186.626 91.857C186.019 90.4397 184.824 89.2934 184.056 87.9618C183.207 86.4899 183.247 84.9254 182.747 83.3641C182.133 81.4522 181.546 79.3894 180.448 77.6809C177.948 73.7923 177.482 68.6172 174.126 65.2609C173.032 64.1671 171.897 62.9843 170.678 62.0362C169.708 61.2819 168.469 60.7523 167.677 59.8012C166.407 58.2778 164.148 56.7218 162.456 55.6187C160.637 54.4323 158.618 53.3937 156.885 52.1066C155.623 51.1689 155.045 51.2766 154.57 49.6162C154.498 49.3647 154.707 49.0819 154.554 48.7382C154.192 47.9228 152.694 47.6793 152.128 46.9342C151.369 45.9358 148.937 45.8289 147.817 45.4336C146.245 44.8785 144.582 44.233 142.821 44.0128C141.403 43.8356 139.635 43.7212 138.335 43.0709C137.6 42.7036 136.118 41.9854 135.318 41.9854C133.409 41.9854 132.037 40.3624 130.385 39.7504C129.151 39.2935 128.126 38.6232 127.112 37.8347C125.966 36.943 123.255 37.3877 121.892 37.3877C117.841 37.3877 113.809 37.6751 109.775 37.6751C107.569 37.6751 105.69 39.2111 103.853 40.2613C101.16 41.7999 98.0798 42.9624 95.1681 43.933C94.1961 44.257 92.912 45.239 92.087 45.8806C91.3913 46.4217 90.0278 47.3044 89.5807 48.0198C89.0236 48.911 86.7427 49.585 85.7812 49.7599C85.0343 49.8957 83.8035 50.5673 83.1791 51.0529C81.0352 52.7204 79.3121 54.6166 77.432 56.4967C76.201 57.7278 74.6492 58.2624 73.2654 59.2904C71.6731 60.4732 70.0779 61.6259 68.5241 62.8344C67.2492 63.826 66.5974 65.2276 65.922 66.6977C65.2138 68.2391 65.675 69.6629 64.5171 71.1517C64.0103 71.8033 63.3215 72.6764 62.9846 73.4345C62.4493 74.6389 62.6775 76.2537 61.7713 77.3297C59.6638 79.8325 60.7856 83.0686 59.4087 85.8226C58.3881 87.8637 58.5121 90.6261 57.9719 92.8468C57.7116 93.9169 57.4908 95.1929 57.461 96.295C57.4321 97.3665 56.9802 98.2599 56.9023 99.3122C56.6464 102.767 56.3116 106.068 56.3116 109.577V117.878C56.3116 119.737 55.8062 122.56 56.6149 124.312C57.0743 125.307 58.1549 126.087 58.7382 127.042C59.2806 127.929 59.592 128.978 60.0472 129.915C60.807 131.48 61.3721 133.25 61.4999 134.976C61.582 136.083 61.7565 137.191 62.0587 138.248C62.2725 138.997 62.9465 139.513 63.1442 140.26C63.4072 141.253 63.8444 142.128 64.0861 142.974C64.207 143.397 64.6449 143.107 64.6449 143.852C64.6449 144.302 64.6937 144.581 64.4214 144.921C64.1495 145.261 64.4867 145.718 64.134 146.071C63.8815 146.323 63.6221 146.653 63.3518 146.869C61.8574 148.064 64.8405 153.783 65.2834 154.979C66.358 157.88 67.6946 160.568 68.7316 163.472C69.7051 166.197 70.8456 168.892 72.2597 171.438C72.7661 172.349 73.0348 172.991 73.904 173.593C74.7665 174.19 75.9049 174.335 76.1549 175.461C76.4653 176.857 77.1469 179.627 79.0125 179.627C80.7339 179.627 81.5963 182.081 82.2372 183.363C83.6649 186.218 85.2618 187.975 87.0583 190.528C90.1496 194.921 89.5363 198.649 90.4427 204.74C91.0972 209.138 91.656 213.681 91.656 217.989C91.656 220.208 91.5374 223.058 90.4427 225.029C89.9414 225.931 89.1423 226.982 88.3514 227.615C87.6294 228.193 87.5245 229.508 87.0583 230.265C85.6494 232.555 84.503 235.047 83.1791 237.401L83.1768 237.405C82.2519 239.049 81.3113 240.721 80.4492 242.398C79.6513 243.949 78.2382 245.754 77.8631 247.442C77.2147 250.36 74.9964 252.577 72.9499 254.623L72.8184 254.754C71.2808 256.292 68.7594 257.039 66.6882 257.5C65.7038 257.718 64.4939 258.074 63.4954 258.074C62.6386 258.074 61.937 258.562 61.1966 258.649C60.0912 258.779 59.4981 260.49 58.4668 260.948C57.5473 261.357 56.8994 262.171 56.2478 262.896C55.1431 264.123 52.2849 264.254 50.7242 264.699C49.3241 265.1 48.0221 267.09 46.7013 267.844C45.8208 268.348 44.7618 269.752 44.0193 270.494L43.9827 270.531Z" fill="#E6ECEF"/>
</g>
<rect width="64" height="64" transform="translate(0 272)" fill="#E6ECEF"/>
<path d="M27.6828 296.031V313H24.6125V299.008H24.5188L20.5578 301.539V298.75L24.7531 296.031H27.6828ZM31.3719 313V296.031H37.7469C41.6375 296.031 43.7117 298.398 43.7234 301.656C43.7117 304.902 41.6141 307.258 37.7 307.258H34.4187V313H31.3719ZM34.4187 304.75H37.2781C39.575 304.738 40.6062 303.449 40.6062 301.656C40.6062 299.84 39.575 298.586 37.2781 298.586H34.4187V304.75Z" fill="#8A6262"/>
<rect width="200" height="64" transform="translate(64 272)" fill="#8A6262"/>
<path d="M123.366 310.375V312.508H104.007V310.375H108.484V305.02C106.796 304.047 105.777 302.523 105.788 300.648C105.777 297.273 109.081 295.047 113.64 295.047C118.222 295.047 121.55 297.273 121.538 300.648C121.55 302.5 120.554 303.988 118.913 304.961V310.375H123.366ZM108.343 300.648C108.331 302.816 110.476 304.199 113.64 304.188C116.792 304.199 118.984 302.816 118.984 300.648C118.984 298.445 116.792 297.098 113.64 297.109C110.476 297.098 108.331 298.445 108.343 300.648ZM111.062 310.375H116.265V305.957C115.456 306.133 114.577 306.227 113.64 306.227C112.726 306.227 111.859 306.133 111.062 305.969V310.375ZM143.743 296.734V298.867H140.86V301.281H143.743V303.438H140.86V306.344H138.259V293.898H140.86V296.734H143.743ZM124.384 300.18C124.372 297.191 126.833 295.094 130.102 295.117C133.36 295.094 135.798 297.191 135.821 300.18C135.798 303.156 133.36 305.254 130.102 305.266C126.833 305.254 124.372 303.156 124.384 300.18ZM126.798 310.961C126.798 308.371 129.587 306.848 133.97 306.836C138.317 306.848 141.059 308.371 141.071 310.961C141.059 313.527 138.317 315.062 133.97 315.062C129.587 315.062 126.798 313.527 126.798 310.961ZM126.938 300.18C126.927 301.938 128.274 303.051 130.102 303.062C131.907 303.051 133.255 301.938 133.266 300.18C133.255 298.434 131.907 297.285 130.102 297.297C128.274 297.285 126.927 298.434 126.938 300.18ZM129.399 310.961C129.399 312.297 131.063 312.977 133.97 312.977C136.864 312.977 138.493 312.297 138.493 310.961C138.493 309.637 136.864 308.922 133.97 308.922C131.063 308.922 129.399 309.637 129.399 310.961ZM163.651 310.398V312.531H144.291V310.398H152.635V306.273H146.424V295.305H149.026V298.773H158.846V295.305H161.448V306.273H155.213V310.398H163.651ZM149.026 304.164H158.846V300.859H149.026V304.164ZM182.809 296.734V298.844H165.301V296.734H172.777V294.18H175.355V296.734H182.809ZM164.434 312.812V310.703H172.777V308.102C169.121 307.82 166.906 306.344 166.918 304C166.906 301.445 169.648 299.922 174.066 299.922C178.426 299.922 181.203 301.445 181.191 304C181.203 306.332 178.965 307.809 175.355 308.102V310.703H183.793V312.812H164.434ZM169.59 304C169.578 305.359 171.184 306.051 174.066 306.062C176.891 306.051 178.52 305.359 178.52 304C178.52 302.664 176.891 301.973 174.066 301.961C171.184 301.973 169.578 302.664 169.59 304ZM192.146 298.984C192.123 302.77 194.021 306.59 197.302 308.172L195.709 310.258C193.412 309.098 191.759 306.859 190.857 304.164C189.931 307.047 188.197 309.438 185.771 310.656L184.177 308.57C187.587 306.953 189.533 302.898 189.545 298.984V295.609H192.146V298.984ZM198.568 315.086V293.898H201.17V302.195H204.427V304.422H201.17V315.086H198.568ZM210.68 313V296.031H213.727V303.836H213.962L220.595 296.031H224.321L217.759 303.648L224.391 313H220.712L215.626 305.711L213.727 307.938V313H210.68Z" fill="#E6ECEF"/>
<defs>
<clipPath id="clip0_428_3283">
<rect width="264" height="264" fill="white"/>
</clipPath>
</defs>
</svg>
