<svg width="72" height="72" viewBox="0 0 72 72" fill="none" xmlns="http://www.w3.org/2000/svg">
<rect x="1" y="1" width="70" height="70" rx="35" stroke="#0D575C" stroke-width="2"/>
<path d="M4 36C4 18.3269 18.3269 4 36 4C53.6731 4 68 18.3269 68 36C68 53.6731 53.6731 68 36 68C18.3269 68 4 53.6731 4 36Z" fill="#8A6262"/>
<g clip-path="url(#clip0_397_1773)">
<path d="M4 36C4 18.3269 18.3269 4 36 4C53.6731 4 68 18.3269 68 36C68 53.6731 53.6731 68 36 68C18.3269 68 4 53.6731 4 36Z" fill="#8A6262"/>
<path d="M14.6627 69.5831C14.3099 69.9358 14.0724 70.1734 13.6112 70.4643C13.5079 70.4643 13.206 70.8126 13.3093 70.8126C13.627 70.8126 13.9306 70.8083 14.242 70.8862C16.2458 71.3871 18.1763 71.5789 20.2367 71.5789C23.0313 71.5789 25.8254 71.4975 28.6115 71.3003C31.3742 71.1047 34.0908 70.9658 36.8625 70.952C38.5228 70.9437 40.1879 70.8562 41.8472 70.7971C43.9339 70.7229 45.9873 70.4026 48.0818 70.4334C50.1853 70.4643 52.1804 70.7188 54.2585 71.0216L54.2775 71.0244C55.9162 71.2631 57.5435 71.5002 59.2005 71.5634C60.1192 71.5985 60.9748 71.5863 61.8709 71.3854C62.4204 71.2622 63.0217 71.2595 63.4886 70.9094C63.9094 70.5937 64.3088 69.7812 64.011 69.2453C63.5428 68.4025 62.4099 68.1191 61.6232 67.6934C61.1205 67.4213 60.6111 67.2596 60.0907 67.0354C59.7278 66.8792 59.4202 66.6197 59.0612 66.4588C57.8316 65.9076 56.9385 64.3924 55.5124 64.2683C54.9228 64.2171 54.4294 63.8769 53.8599 63.7382C53.0103 63.5312 52.2063 63.2429 51.3753 62.9757C50.9618 62.8428 50.5025 62.7818 50.1136 62.5771C49.6773 62.3475 49.7186 61.6295 49.5563 61.2149C49.4455 60.9315 49.3664 60.5645 49.208 60.3093C49.0758 60.0963 48.894 59.9174 48.7591 59.7055C48.6349 59.5103 48.4388 59.4064 48.3411 59.1831C48.2738 59.0293 48.2082 58.8887 48.0935 58.7612C47.6234 58.239 47.5161 57.5434 46.9944 57.0739C46.8155 56.9129 46.5997 57.0059 46.3906 56.9462C46.2104 56.8947 46.1445 56.5382 46.0888 56.3773C45.9494 55.9746 45.7873 55.6436 45.6901 55.2163C45.5268 54.4976 45.5857 53.7506 45.5857 53.0181C45.5857 51.6231 45.8271 50.2846 45.9378 48.9003C45.9624 48.5935 46.0036 48.3096 46.0036 47.9986C46.0036 47.6781 46.1324 47.3894 46.1429 47.0736C46.156 46.6829 46.1517 46.2402 46.2281 45.8584C46.3551 45.2233 46.8028 44.5518 47.1221 43.9931C47.4258 43.4615 47.8127 43.0064 48.0935 42.4605C48.4037 41.8573 48.7195 41.282 48.9681 40.6493C49.2509 39.9295 49.3832 39.2369 49.5912 38.4976C49.8491 37.5806 49.8204 36.5942 49.835 35.6492C49.8411 35.2515 49.9743 34.883 49.9743 34.4804V33.4665C49.9743 31.9801 49.9403 30.5243 49.8311 29.0507C49.7627 28.1275 49.6073 27.1184 49.2429 26.2682C49.0956 25.9246 48.806 25.6467 48.6198 25.3239C48.4139 24.967 48.4238 24.5878 48.3024 24.2093C48.1538 23.7458 48.0114 23.2457 47.7452 22.8315C47.1391 21.8889 47.0263 20.6343 46.2126 19.8206C45.9474 19.5555 45.6722 19.2687 45.3767 19.0389C45.1416 18.856 44.8412 18.7276 44.6491 18.4971C44.3413 18.1278 43.7936 17.7505 43.3836 17.4831C42.9426 17.1955 42.453 16.9437 42.0329 16.6317C41.7269 16.4044 41.5868 16.4305 41.4718 16.028C41.4544 15.967 41.5049 15.8984 41.4679 15.8151C41.38 15.6174 41.0169 15.5584 40.8797 15.3778C40.6957 15.1358 40.1062 15.1098 39.8347 15.014C39.4534 14.8794 39.0505 14.723 38.6234 14.6696C38.2797 14.6266 37.8512 14.5989 37.5359 14.4412C37.3578 14.3522 36.9984 14.1781 36.8045 14.1781C36.3418 14.1781 36.0092 13.7846 35.6086 13.6363C35.3096 13.5255 35.061 13.363 34.8153 13.1719C34.5373 12.9557 33.8803 13.0635 33.5497 13.0635C32.5676 13.0635 31.5901 13.1332 30.6124 13.1332C30.0774 13.1332 29.6221 13.5055 29.1766 13.7601C28.5238 14.1331 27.7771 14.4149 27.0713 14.6502C26.8356 14.7288 26.5243 14.9668 26.3243 15.1224C26.1557 15.2536 25.8251 15.4675 25.7167 15.641C25.5817 15.857 25.0287 16.0204 24.7957 16.0628C24.6146 16.0957 24.3162 16.2585 24.1648 16.3763C23.6451 16.7805 23.2274 17.2402 22.7716 17.696C22.4732 17.9944 22.097 18.124 21.7615 18.3732C21.3755 18.66 20.9888 18.9394 20.6121 19.2324C20.303 19.4728 20.145 19.8126 19.9813 20.1689C19.8096 20.5426 19.9214 20.8878 19.6407 21.2487C19.5178 21.4067 19.3509 21.6183 19.2692 21.8021C19.1394 22.0941 19.1948 22.4855 18.9751 22.7464C18.4642 23.3531 18.7361 24.1377 18.4023 24.8053C18.1549 25.3001 18.1849 25.9698 18.054 26.5081C17.9909 26.7675 17.9374 27.0769 17.9302 27.344C17.9231 27.6038 17.8136 27.8204 17.7947 28.0755C17.7327 28.9131 17.6515 29.7133 17.6515 30.5639V32.5764C17.6515 33.0271 17.529 33.7112 17.725 34.136C17.8364 34.3773 18.0984 34.5664 18.2398 34.7978C18.3713 35.013 18.4467 35.2672 18.5571 35.4944C18.7413 35.8736 18.8783 36.3028 18.9093 36.7212C18.9292 36.9897 18.9715 37.2582 19.0447 37.5146C19.0966 37.696 19.26 37.8211 19.3079 38.0022C19.3717 38.243 19.4776 38.455 19.5362 38.6601C19.5655 38.7627 19.6717 38.6925 19.6717 38.873C19.6717 38.9821 19.6835 39.0497 19.6175 39.1323C19.5516 39.2147 19.6334 39.3254 19.5478 39.4109C19.4866 39.4721 19.4237 39.552 19.3582 39.6044C18.9959 39.8942 19.7191 41.2805 19.8265 41.5704C20.087 42.2738 20.411 42.9254 20.6624 43.6293C20.8984 44.29 21.1749 44.9434 21.5177 45.5604C21.6405 45.7814 21.7056 45.937 21.9163 46.0829C22.1254 46.2277 22.4014 46.2629 22.462 46.5357C22.5372 46.8743 22.7025 47.5458 23.1547 47.5458C23.5721 47.5458 23.7811 48.1406 23.9365 48.4514C24.2826 49.1436 24.6697 49.5695 25.1053 50.1884C25.8547 51.2533 25.706 52.1572 25.9257 53.6338C26.0844 54.6999 26.2198 55.8013 26.2198 56.8456C26.2198 57.3837 26.1911 58.0746 25.9257 58.5523C25.8042 58.771 25.6105 59.0258 25.4187 59.1792C25.2437 59.3192 25.2183 59.638 25.1053 59.8216C24.7637 60.3767 24.4858 60.981 24.1648 61.5516L24.1641 61.5528C23.94 61.9513 23.712 62.3566 23.5031 62.7629C23.3096 63.139 22.967 63.5766 22.8761 63.9858C22.7189 64.6931 22.1812 65.2306 21.685 65.7265L21.6532 65.7583C21.2804 66.1311 20.6691 66.3124 20.1671 66.424C19.9284 66.477 19.6351 66.5633 19.393 66.5633C19.1853 66.5633 19.0152 66.6815 18.8358 66.7026C18.5678 66.7341 18.424 67.1488 18.174 67.2599C17.9511 67.359 17.794 67.5565 17.636 67.7321C17.3682 68.0296 16.6753 68.0613 16.297 68.1694C15.9576 68.2664 15.6419 68.7488 15.3217 68.9318C15.1083 69.0537 14.8515 69.3942 14.6716 69.5742L14.6627 69.5831Z" fill="#E6ECEF"/>
</g>
<defs>
<clipPath id="clip0_397_1773">
<path d="M4 36C4 18.3269 18.3269 4 36 4C53.6731 4 68 18.3269 68 36C68 53.6731 53.6731 68 36 68C18.3269 68 4 53.6731 4 36Z" fill="white"/>
</clipPath>
</defs>
</svg>
