<svg width="264" height="336" viewBox="0 0 264 336" fill="none" xmlns="http://www.w3.org/2000/svg">
<g clip-path="url(#clip0_1383_4018)">
<rect width="264" height="264" fill="#8A6262"/>
<path d="M43.9827 270.531C42.5277 271.986 41.5478 272.966 39.6452 274.166C39.2192 274.166 37.974 275.603 38.4 275.603C39.7104 275.603 40.9627 275.585 42.2473 275.906C50.513 277.973 58.4764 278.764 66.9756 278.764C78.5032 278.764 90.0289 278.428 101.522 277.614C112.918 276.808 124.124 276.235 135.557 276.178C142.406 276.143 149.274 275.783 156.119 275.539C164.726 275.233 173.197 273.911 181.837 274.038C190.513 274.166 198.743 275.216 207.315 276.465L207.394 276.476C214.154 277.461 220.866 278.439 227.701 278.7C231.491 278.844 235.02 278.794 238.717 277.966C240.983 277.458 243.464 277.446 245.39 276.002C247.126 274.7 248.773 271.348 247.545 269.137C245.613 265.661 240.94 264.492 237.695 262.736C235.621 261.614 233.52 260.947 231.373 260.022C229.876 259.377 228.608 258.307 227.127 257.643C222.054 255.37 218.37 249.119 212.488 248.608C210.056 248.396 208.02 246.993 205.671 246.421C202.167 245.567 198.85 244.378 195.422 243.276C193.717 242.728 191.822 242.476 190.218 241.631C188.418 240.684 188.588 237.722 187.919 236.012C187.462 234.843 187.136 233.329 186.482 232.277C185.937 231.398 185.187 230.66 184.63 229.786C184.118 228.981 183.309 228.552 182.906 227.631C182.629 226.997 182.358 226.417 181.885 225.891C179.946 223.737 179.503 220.867 177.351 218.931C176.613 218.267 175.723 218.65 174.86 218.404C174.117 218.191 173.845 216.721 173.615 216.057C173.04 214.396 172.372 213.031 171.971 211.268C171.297 208.303 171.54 205.222 171.54 202.2C171.54 196.446 172.536 190.925 172.993 185.215C173.094 183.949 173.264 182.778 173.264 181.495C173.264 180.173 173.795 178.982 173.839 177.68C173.893 176.068 173.875 174.242 174.19 172.667C174.714 170.047 176.561 167.277 177.878 164.972C179.131 162.78 180.727 160.902 181.885 158.65C183.164 156.162 184.467 153.789 185.493 151.179C186.659 148.21 187.205 145.353 188.063 142.303C189.127 138.521 189.008 134.452 189.068 130.554C189.094 128.913 189.643 127.393 189.643 125.733V121.55C189.643 115.419 189.503 109.414 189.053 103.335C188.77 99.5269 188.129 95.3643 186.626 91.857C186.019 90.4397 184.824 89.2934 184.056 87.9618C183.207 86.4899 183.247 84.9254 182.747 83.3641C182.133 81.4522 181.546 79.3894 180.448 77.6809C177.948 73.7923 177.482 68.6172 174.126 65.2609C173.032 64.1671 171.897 62.9843 170.678 62.0362C169.708 61.2819 168.469 60.7523 167.677 59.8012C166.407 58.2778 164.148 56.7218 162.456 55.6187C160.637 54.4323 158.618 53.3937 156.885 52.1066C155.623 51.1689 155.045 51.2766 154.57 49.6162C154.498 49.3647 154.707 49.0819 154.554 48.7382C154.192 47.9228 152.694 47.6793 152.128 46.9342C151.369 45.9358 148.937 45.8289 147.817 45.4336C146.245 44.8785 144.582 44.233 142.821 44.0128C141.403 43.8356 139.635 43.7212 138.335 43.0709C137.6 42.7036 136.118 41.9854 135.318 41.9854C133.409 41.9854 132.037 40.3624 130.385 39.7504C129.151 39.2935 128.126 38.6232 127.112 37.8347C125.966 36.943 123.255 37.3877 121.892 37.3877C117.841 37.3877 113.809 37.6751 109.775 37.6751C107.569 37.6751 105.69 39.2111 103.853 40.2613C101.16 41.7999 98.0798 42.9624 95.1681 43.933C94.1961 44.257 92.912 45.239 92.087 45.8806C91.3913 46.4217 90.0278 47.3044 89.5807 48.0198C89.0236 48.911 86.7427 49.585 85.7812 49.7599C85.0343 49.8957 83.8035 50.5673 83.1791 51.0529C81.0352 52.7204 79.3121 54.6166 77.432 56.4967C76.201 57.7278 74.6492 58.2624 73.2654 59.2904C71.6731 60.4732 70.0779 61.6259 68.5241 62.8344C67.2492 63.826 66.5974 65.2276 65.922 66.6977C65.2138 68.2391 65.675 69.6629 64.5171 71.1517C64.0103 71.8033 63.3215 72.6764 62.9846 73.4345C62.4493 74.6389 62.6775 76.2537 61.7713 77.3297C59.6638 79.8325 60.7856 83.0686 59.4087 85.8226C58.3881 87.8637 58.5121 90.6261 57.9719 92.8468C57.7116 93.9169 57.4908 95.1929 57.461 96.295C57.4321 97.3665 56.9802 98.2599 56.9023 99.3122C56.6464 102.767 56.3116 106.068 56.3116 109.577V117.878C56.3116 119.737 55.8062 122.56 56.6149 124.312C57.0743 125.307 58.1549 126.087 58.7382 127.042C59.2806 127.929 59.592 128.978 60.0472 129.915C60.807 131.48 61.3721 133.25 61.4999 134.976C61.582 136.083 61.7565 137.191 62.0587 138.248C62.2725 138.997 62.9465 139.513 63.1442 140.26C63.4072 141.253 63.8444 142.128 64.0861 142.974C64.207 143.397 64.6449 143.107 64.6449 143.852C64.6449 144.302 64.6937 144.581 64.4214 144.921C64.1495 145.261 64.4867 145.718 64.134 146.071C63.8815 146.323 63.6221 146.653 63.3518 146.869C61.8574 148.064 64.8405 153.783 65.2834 154.979C66.358 157.88 67.6946 160.568 68.7316 163.472C69.7051 166.197 70.8456 168.892 72.2597 171.438C72.7661 172.349 73.0348 172.991 73.904 173.593C74.7665 174.19 75.9049 174.335 76.1549 175.461C76.4653 176.857 77.1469 179.627 79.0125 179.627C80.7339 179.627 81.5963 182.081 82.2372 183.363C83.6649 186.218 85.2618 187.975 87.0583 190.528C90.1496 194.921 89.5363 198.649 90.4427 204.74C91.0972 209.138 91.656 213.681 91.656 217.989C91.656 220.208 91.5374 223.058 90.4427 225.029C89.9414 225.931 89.1423 226.982 88.3514 227.615C87.6294 228.193 87.5245 229.508 87.0583 230.265C85.6494 232.555 84.503 235.047 83.1791 237.401L83.1768 237.405C82.2519 239.049 81.3113 240.721 80.4492 242.398C79.6513 243.949 78.2382 245.754 77.8631 247.442C77.2147 250.36 74.9964 252.577 72.9499 254.623L72.8184 254.754C71.2808 256.292 68.7594 257.039 66.6882 257.5C65.7038 257.718 64.4939 258.074 63.4954 258.074C62.6386 258.074 61.937 258.562 61.1966 258.649C60.0912 258.779 59.4981 260.49 58.4668 260.948C57.5473 261.357 56.8994 262.171 56.2478 262.896C55.1431 264.123 52.2849 264.254 50.7242 264.699C49.3241 265.1 48.0221 267.09 46.7013 267.844C45.8208 268.348 44.7618 269.752 44.0193 270.494L43.9827 270.531Z" fill="#E6ECEF"/>
<rect width="64" height="64" fill="#E6ECEF"/>
<path d="M27.6828 24.0312V41H24.6125V27.0078H24.5188L20.5578 29.5391V26.75L24.7531 24.0312H27.6828ZM31.3719 41V24.0312H37.7469C41.6375 24.0312 43.7117 26.3984 43.7234 29.6562C43.7117 32.9023 41.6141 35.2578 37.7 35.2578H34.4187V41H31.3719ZM34.4187 32.75H37.2781C39.575 32.7383 40.6062 31.4492 40.6062 29.6562C40.6062 27.8398 39.575 26.5859 37.2781 26.5859H34.4187V32.75Z" fill="#8A6262"/>
</g>
<rect width="264" height="64" transform="translate(0 272)" fill="#8A6262"/>
<path d="M74.5055 293.898V315.086H71.8805V293.898H74.5055ZM56.9508 309.25C62.5055 306.613 65.0602 303.027 65.5289 298.211H58.0289V296.148H68.1773C68.1773 302.453 65.7281 307.809 58.3102 311.336L56.9508 309.25ZM82.8352 294.836C85.5773 294.824 87.7336 296.406 88.2609 298.727H92.093V293.898H94.6945V305.266H92.093V300.836H88.2844C87.7805 303.215 85.6008 304.82 82.8352 304.82C79.5891 304.82 77.2336 302.734 77.2336 299.805C77.2336 296.91 79.5891 294.824 82.8352 294.836ZM79.718 299.805C79.718 301.504 81.007 302.629 82.8352 302.617C84.6164 302.629 85.8938 301.504 85.9055 299.805C85.8938 298.105 84.6164 297.004 82.8352 297.016C81.007 297.004 79.718 298.105 79.718 299.805ZM80.7258 314.828V306.25H83.3039V308.5H92.093V306.25H94.6945V314.828H80.7258ZM83.3039 312.719H92.093V310.516H83.3039V312.719ZM119.932 293.922V309.461H117.33V304.211H112.28C111.272 305.348 109.772 306.027 108.073 306.039C104.873 306.027 102.471 303.754 102.471 300.625C102.471 297.461 104.873 295.199 108.073 295.188C109.76 295.199 111.26 295.867 112.268 296.992H117.33V293.922H119.932ZM104.955 300.625C104.955 302.512 106.256 303.719 108.073 303.719C109.807 303.719 111.131 302.512 111.143 300.625C111.131 298.727 109.807 297.508 108.073 297.508C106.256 297.508 104.955 298.727 104.955 300.625ZM106.034 314.664V307.867H108.635V312.555H120.471V314.664H106.034ZM113.416 299.102C113.545 299.582 113.627 300.086 113.627 300.625C113.627 301.141 113.557 301.633 113.428 302.102H117.33V299.102H113.416ZM139.043 293.898V299.125H141.996V301.281H139.043V306.273H136.441V293.898H139.043ZM122.355 297.953V295.867H127.348V293.734H129.949V295.867H134.918V297.953H122.355ZM123.434 302.406C123.434 300.156 125.543 298.68 128.637 298.68C131.695 298.68 133.805 300.156 133.816 302.406C133.805 304.656 131.695 306.145 128.637 306.133C125.543 306.145 123.434 304.656 123.434 302.406ZM125.355 314.828V307.117H127.934V308.945H136.441V307.117H139.043V314.828H125.355ZM125.965 302.406C125.953 303.555 127.031 304.211 128.637 304.211C130.242 304.211 131.332 303.555 131.332 302.406C131.332 301.293 130.242 300.602 128.637 300.602C127.031 300.602 125.953 301.293 125.965 302.406ZM127.934 312.766H136.441V310.961H127.934V312.766ZM148.943 300.367C148.943 303.648 150.291 306.953 153.255 308.547L151.802 310.469C149.834 309.426 148.498 307.562 147.736 305.336C146.986 307.738 145.65 309.801 143.67 310.961L142.146 308.992C145.146 307.258 146.47 303.719 146.482 300.367V299.711H142.873V297.602H146.482V294.648H148.943V297.602H152.482V299.711H148.943V300.367ZM151.17 304.188V302.031H153.935V294.297H156.396V314.055H153.935V304.188H151.17ZM158.224 315.086V293.898H160.709V315.086H158.224ZM185.946 293.898V315.086H183.462V304.281H181.071V314.008H178.68V294.297H181.071V302.195H183.462V293.898H185.946ZM168.368 310.141V296.406H176.29V298.516H170.993V307.938C173.29 307.914 175.188 307.797 177.345 307.398L177.532 309.531C174.966 310.047 172.751 310.117 169.798 310.141H168.368ZM207.213 310.539V312.648H187.854V310.539H192.87V306.18H189.518V304.07H192.495V297.789H189.448V295.703H205.526V297.789H202.432V304.07H205.455V306.18H202.104V310.539H207.213ZM195.096 304.07H199.854V297.789H195.096V304.07ZM195.471 310.539H199.502V306.18H195.471V310.539Z" fill="#E6ECEF"/>
<defs>
<clipPath id="clip0_1383_4018">
<rect width="264" height="264" fill="white"/>
</clipPath>
</defs>
</svg>
