<svg width="264" height="336" viewBox="0 0 264 336" fill="none" xmlns="http://www.w3.org/2000/svg">
<g clip-path="url(#clip0_1545_6076)">
<rect width="264" height="264" fill="#8A6262"/>
<path d="M43.9827 270.528C42.5277 271.983 41.5478 272.963 39.6452 274.163C39.2192 274.163 37.974 275.6 38.4 275.6C39.7104 275.6 40.9627 275.582 42.2473 275.903C50.513 277.969 58.4764 278.76 66.9756 278.76C78.5032 278.76 90.0289 278.425 101.522 277.611C112.918 276.804 124.124 276.231 135.557 276.174C142.406 276.14 149.274 275.779 156.119 275.536C164.726 275.229 173.197 273.908 181.837 274.035C190.513 274.163 198.743 275.213 207.315 276.462L207.394 276.473C214.154 277.458 220.866 278.436 227.701 278.697C231.491 278.841 235.02 278.791 238.717 277.962C240.983 277.454 243.464 277.443 245.39 275.999C247.126 274.697 248.773 271.345 247.545 269.134C245.613 265.658 240.94 264.489 237.695 262.732C235.621 261.61 233.52 260.943 231.373 260.019C229.876 259.374 228.608 258.304 227.127 257.64C222.054 255.366 218.37 249.116 212.488 248.604C210.056 248.393 208.02 246.99 205.671 246.417C202.167 245.564 198.85 244.374 195.422 243.272C193.717 242.724 191.822 242.472 190.218 241.628C188.418 240.681 188.588 237.719 187.919 236.009C187.462 234.84 187.136 233.326 186.482 232.273C185.937 231.395 185.187 230.657 184.63 229.783C184.118 228.978 183.309 228.549 182.906 227.628C182.629 226.993 182.358 226.413 181.885 225.888C179.946 223.733 179.503 220.864 177.351 218.927C176.613 218.263 175.723 218.647 174.86 218.4C174.117 218.188 173.845 216.717 173.615 216.054C173.04 214.393 172.372 213.027 171.971 211.264C171.297 208.3 171.54 205.219 171.54 202.197C171.54 196.443 172.536 190.921 172.993 185.211C173.094 183.946 173.264 182.774 173.264 181.492C173.264 180.169 173.795 178.979 173.839 177.676C173.893 176.064 173.875 174.238 174.19 172.663C174.714 170.043 176.561 167.273 177.878 164.969C179.131 162.776 180.727 160.899 181.885 158.647C183.164 156.159 184.467 153.786 185.493 151.176C186.659 148.207 187.205 145.35 188.063 142.3C189.127 138.518 189.008 134.448 189.068 130.55C189.094 128.91 189.643 127.39 189.643 125.729V121.547C189.643 115.415 189.503 109.41 189.053 103.332C188.77 99.5235 188.129 95.3608 186.626 91.8536C186.019 90.4362 184.824 89.29 184.056 87.9584C183.207 86.4864 183.247 84.922 182.747 83.3607C182.133 81.4488 181.546 79.386 180.448 77.6775C177.948 73.7889 177.482 68.6138 174.126 65.2575C173.032 64.1637 171.897 62.9808 170.678 62.0328C169.708 61.2785 168.469 60.7489 167.677 59.7978C166.407 58.2744 164.148 56.7184 162.456 55.6152C160.637 54.4289 158.618 53.3902 156.885 52.1032C155.623 51.1654 155.045 51.2732 154.57 49.6128C154.498 49.3613 154.707 49.0784 154.554 48.7347C154.192 47.9193 152.694 47.6759 152.128 46.9308C151.369 45.9324 148.937 45.8255 147.817 45.4302C146.245 44.875 144.582 44.2296 142.821 44.0094C141.403 43.8322 139.635 43.7178 138.335 43.0675C137.6 42.7001 136.118 41.982 135.318 41.982C133.409 41.982 132.037 40.3589 130.385 39.747C129.151 39.2901 128.126 38.6198 127.112 37.8313C125.966 36.9396 123.255 37.3843 121.892 37.3843C117.841 37.3843 113.809 37.6717 109.775 37.6717C107.569 37.6717 105.69 39.2076 103.853 40.2578C101.16 41.7965 98.0798 42.959 95.1681 43.9296C94.1961 44.2536 92.912 45.2356 92.087 45.8772C91.3913 46.4183 90.0278 47.301 89.5807 48.0164C89.0236 48.9076 86.7427 49.5816 85.7812 49.7564C85.0343 49.8923 83.8035 50.5639 83.1791 51.0495C81.0352 52.717 79.3121 54.6132 77.432 56.4933C76.201 57.7243 74.6492 58.259 73.2654 59.287C71.6731 60.4698 70.0779 61.6225 68.5241 62.831C67.2492 63.8226 66.5974 65.2242 65.922 66.6943C65.2138 68.2356 65.675 69.6595 64.5171 71.1482C64.0103 71.7999 63.3215 72.6729 62.9846 73.4311C62.4493 74.6355 62.6775 76.2502 61.7713 77.3263C59.6638 79.829 60.7856 83.0652 59.4087 85.8192C58.3881 87.8603 58.5121 90.6227 57.9719 92.8433C57.7116 93.9134 57.4908 95.1895 57.461 96.2916C57.4321 97.3631 56.9802 98.2565 56.9023 99.3088C56.6464 102.764 56.3116 106.065 56.3116 109.574V117.875C56.3116 119.734 55.8062 122.556 56.6149 124.308C57.0743 125.304 58.1549 126.084 58.7382 127.038C59.2806 127.926 59.592 128.975 60.0472 129.912C60.807 131.476 61.3721 133.247 61.4999 134.972C61.582 136.08 61.7565 137.187 62.0587 138.245C62.2725 138.993 62.9465 139.509 63.1442 140.257C63.4072 141.25 63.8444 142.124 64.0861 142.97C64.207 143.393 64.6449 143.104 64.6449 143.848C64.6449 144.298 64.6937 144.578 64.4214 144.918C64.1495 145.258 64.4867 145.715 64.134 146.067C63.8815 146.32 63.6221 146.649 63.3518 146.866C61.8574 148.061 64.8405 153.78 65.2834 154.975C66.358 157.877 67.6946 160.564 68.7316 163.468C69.7051 166.194 70.8456 168.889 72.2597 171.434C72.7661 172.346 73.0348 172.988 73.904 173.589C74.7665 174.186 75.9049 174.332 76.1549 175.457C76.4653 176.854 77.1469 179.624 79.0125 179.624C80.7339 179.624 81.5963 182.077 82.2372 183.359C83.6649 186.215 85.2618 187.972 87.0583 190.525C90.1496 194.917 89.5363 198.646 90.4427 204.737C91.0972 209.135 91.656 213.678 91.656 217.985C91.656 220.205 91.5374 223.055 90.4427 225.025C89.9414 225.928 89.1423 226.979 88.3514 227.612C87.6294 228.189 87.5245 229.504 87.0583 230.262C85.6494 232.551 84.503 235.044 83.1791 237.398L83.1768 237.402C82.2519 239.046 81.3113 240.718 80.4492 242.394C79.6513 243.946 78.2382 245.751 77.8631 247.439C77.2147 250.356 74.9964 252.574 72.9499 254.619L72.8184 254.75C71.2808 256.288 68.7594 257.036 66.6882 257.496C65.7038 257.715 64.4939 258.071 63.4954 258.071C62.6386 258.071 61.937 258.559 61.1966 258.646C60.0912 258.776 59.4981 260.486 58.4668 260.945C57.5473 261.353 56.8994 262.168 56.2478 262.892C55.1431 264.12 52.2849 264.25 50.7242 264.696C49.3241 265.096 48.0221 267.086 46.7013 267.841C45.8208 268.344 44.7618 269.749 44.0193 270.491L43.9827 270.528Z" fill="#E6ECEF"/>
</g>
<rect width="264" height="64" transform="translate(0 272)" fill="#8A6262"/>
<path d="M74.5055 293.898V315.086H71.8805V293.898H74.5055ZM56.9508 309.25C62.5055 306.613 65.0602 303.027 65.5289 298.211H58.0289V296.148H68.1773C68.1773 302.453 65.7281 307.809 58.3102 311.336L56.9508 309.25ZM82.8352 294.836C85.5773 294.824 87.7336 296.406 88.2609 298.727H92.093V293.898H94.6945V305.266H92.093V300.836H88.2844C87.7805 303.215 85.6008 304.82 82.8352 304.82C79.5891 304.82 77.2336 302.734 77.2336 299.805C77.2336 296.91 79.5891 294.824 82.8352 294.836ZM79.718 299.805C79.718 301.504 81.007 302.629 82.8352 302.617C84.6164 302.629 85.8938 301.504 85.9055 299.805C85.8938 298.105 84.6164 297.004 82.8352 297.016C81.007 297.004 79.718 298.105 79.718 299.805ZM80.7258 314.828V306.25H83.3039V308.5H92.093V306.25H94.6945V314.828H80.7258ZM83.3039 312.719H92.093V310.516H83.3039V312.719ZM119.932 293.922V309.461H117.33V304.211H112.28C111.272 305.348 109.772 306.027 108.073 306.039C104.873 306.027 102.471 303.754 102.471 300.625C102.471 297.461 104.873 295.199 108.073 295.188C109.76 295.199 111.26 295.867 112.268 296.992H117.33V293.922H119.932ZM104.955 300.625C104.955 302.512 106.256 303.719 108.073 303.719C109.807 303.719 111.131 302.512 111.143 300.625C111.131 298.727 109.807 297.508 108.073 297.508C106.256 297.508 104.955 298.727 104.955 300.625ZM106.034 314.664V307.867H108.635V312.555H120.471V314.664H106.034ZM113.416 299.102C113.545 299.582 113.627 300.086 113.627 300.625C113.627 301.141 113.557 301.633 113.428 302.102H117.33V299.102H113.416ZM139.043 293.898V299.125H141.996V301.281H139.043V306.273H136.441V293.898H139.043ZM122.355 297.953V295.867H127.348V293.734H129.949V295.867H134.918V297.953H122.355ZM123.434 302.406C123.434 300.156 125.543 298.68 128.637 298.68C131.695 298.68 133.805 300.156 133.816 302.406C133.805 304.656 131.695 306.145 128.637 306.133C125.543 306.145 123.434 304.656 123.434 302.406ZM125.355 314.828V307.117H127.934V308.945H136.441V307.117H139.043V314.828H125.355ZM125.965 302.406C125.953 303.555 127.031 304.211 128.637 304.211C130.242 304.211 131.332 303.555 131.332 302.406C131.332 301.293 130.242 300.602 128.637 300.602C127.031 300.602 125.953 301.293 125.965 302.406ZM127.934 312.766H136.441V310.961H127.934V312.766ZM148.943 300.367C148.943 303.648 150.291 306.953 153.255 308.547L151.802 310.469C149.834 309.426 148.498 307.562 147.736 305.336C146.986 307.738 145.65 309.801 143.67 310.961L142.146 308.992C145.146 307.258 146.47 303.719 146.482 300.367V299.711H142.873V297.602H146.482V294.648H148.943V297.602H152.482V299.711H148.943V300.367ZM151.17 304.188V302.031H153.935V294.297H156.396V314.055H153.935V304.188H151.17ZM158.224 315.086V293.898H160.709V315.086H158.224ZM185.946 293.898V315.086H183.462V304.281H181.071V314.008H178.68V294.297H181.071V302.195H183.462V293.898H185.946ZM168.368 310.141V296.406H176.29V298.516H170.993V307.938C173.29 307.914 175.188 307.797 177.345 307.398L177.532 309.531C174.966 310.047 172.751 310.117 169.798 310.141H168.368ZM207.213 310.539V312.648H187.854V310.539H192.87V306.18H189.518V304.07H192.495V297.789H189.448V295.703H205.526V297.789H202.432V304.07H205.455V306.18H202.104V310.539H207.213ZM195.096 304.07H199.854V297.789H195.096V304.07ZM195.471 310.539H199.502V306.18H195.471V310.539Z" fill="#E6ECEF"/>
<defs>
<clipPath id="clip0_1545_6076">
<rect width="264" height="264" fill="white"/>
</clipPath>
</defs>
</svg>
