<svg width="264" height="336" viewBox="0 0 264 336" fill="none" xmlns="http://www.w3.org/2000/svg">
<g clip-path="url(#clip0_1545_6058)">
<rect width="264" height="264" fill="#8A6262"/>
<path d="M43.9827 270.528C42.5277 271.983 41.5478 272.963 39.6452 274.163C39.2192 274.163 37.974 275.6 38.4 275.6C39.7104 275.6 40.9627 275.582 42.2473 275.903C50.513 277.969 58.4764 278.76 66.9756 278.76C78.5032 278.76 90.0289 278.425 101.522 277.611C112.918 276.804 124.124 276.231 135.557 276.174C142.406 276.14 149.274 275.779 156.119 275.536C164.726 275.229 173.197 273.908 181.837 274.035C190.513 274.163 198.743 275.213 207.315 276.462L207.394 276.473C214.154 277.458 220.866 278.436 227.701 278.697C231.491 278.841 235.02 278.791 238.717 277.962C240.983 277.454 243.464 277.443 245.39 275.999C247.126 274.697 248.773 271.345 247.545 269.134C245.613 265.658 240.94 264.489 237.695 262.732C235.621 261.61 233.52 260.943 231.373 260.019C229.876 259.374 228.608 258.304 227.127 257.64C222.054 255.366 218.37 249.116 212.488 248.604C210.056 248.393 208.02 246.99 205.671 246.417C202.167 245.564 198.85 244.374 195.422 243.272C193.717 242.724 191.822 242.472 190.218 241.628C188.418 240.681 188.588 237.719 187.919 236.009C187.462 234.84 187.136 233.326 186.482 232.273C185.937 231.395 185.187 230.657 184.63 229.783C184.118 228.978 183.309 228.549 182.906 227.628C182.629 226.993 182.358 226.413 181.885 225.888C179.946 223.733 179.503 220.864 177.351 218.927C176.613 218.263 175.723 218.647 174.86 218.4C174.117 218.188 173.845 216.717 173.615 216.054C173.04 214.393 172.372 213.027 171.971 211.264C171.297 208.3 171.54 205.219 171.54 202.197C171.54 196.443 172.536 190.921 172.993 185.211C173.094 183.946 173.264 182.774 173.264 181.492C173.264 180.169 173.795 178.979 173.839 177.676C173.893 176.064 173.875 174.238 174.19 172.663C174.714 170.043 176.561 167.273 177.878 164.969C179.131 162.776 180.727 160.899 181.885 158.647C183.164 156.159 184.467 153.786 185.493 151.176C186.659 148.207 187.205 145.35 188.063 142.3C189.127 138.518 189.008 134.448 189.068 130.55C189.094 128.91 189.643 127.39 189.643 125.729V121.547C189.643 115.415 189.503 109.41 189.053 103.332C188.77 99.5235 188.129 95.3608 186.626 91.8536C186.019 90.4362 184.824 89.29 184.056 87.9584C183.207 86.4864 183.247 84.922 182.747 83.3607C182.133 81.4488 181.546 79.386 180.448 77.6775C177.948 73.7889 177.482 68.6138 174.126 65.2575C173.032 64.1637 171.897 62.9808 170.678 62.0328C169.708 61.2785 168.469 60.7489 167.677 59.7978C166.407 58.2744 164.148 56.7184 162.456 55.6152C160.637 54.4289 158.618 53.3902 156.885 52.1032C155.623 51.1654 155.045 51.2732 154.57 49.6128C154.498 49.3613 154.707 49.0784 154.554 48.7347C154.192 47.9193 152.694 47.6759 152.128 46.9308C151.369 45.9324 148.937 45.8255 147.817 45.4302C146.245 44.875 144.582 44.2296 142.821 44.0094C141.403 43.8322 139.635 43.7178 138.335 43.0675C137.6 42.7001 136.118 41.982 135.318 41.982C133.409 41.982 132.037 40.3589 130.385 39.747C129.151 39.2901 128.126 38.6198 127.112 37.8313C125.966 36.9396 123.255 37.3843 121.892 37.3843C117.841 37.3843 113.809 37.6717 109.775 37.6717C107.569 37.6717 105.69 39.2076 103.853 40.2578C101.16 41.7965 98.0798 42.959 95.1681 43.9296C94.1961 44.2536 92.912 45.2356 92.087 45.8772C91.3913 46.4183 90.0278 47.301 89.5807 48.0164C89.0236 48.9076 86.7427 49.5816 85.7812 49.7564C85.0343 49.8923 83.8035 50.5639 83.1791 51.0495C81.0352 52.717 79.3121 54.6132 77.432 56.4933C76.201 57.7243 74.6492 58.259 73.2654 59.287C71.6731 60.4698 70.0779 61.6225 68.5241 62.831C67.2492 63.8226 66.5974 65.2242 65.922 66.6943C65.2138 68.2356 65.675 69.6595 64.5171 71.1482C64.0103 71.7999 63.3215 72.6729 62.9846 73.4311C62.4493 74.6355 62.6775 76.2502 61.7713 77.3263C59.6638 79.829 60.7856 83.0652 59.4087 85.8192C58.3881 87.8603 58.5121 90.6227 57.9719 92.8433C57.7116 93.9134 57.4908 95.1895 57.461 96.2916C57.4321 97.3631 56.9802 98.2565 56.9023 99.3088C56.6464 102.764 56.3116 106.065 56.3116 109.574V117.875C56.3116 119.734 55.8062 122.556 56.6149 124.308C57.0743 125.304 58.1549 126.084 58.7382 127.038C59.2806 127.926 59.592 128.975 60.0472 129.912C60.807 131.476 61.3721 133.247 61.4999 134.972C61.582 136.08 61.7565 137.187 62.0587 138.245C62.2725 138.993 62.9465 139.509 63.1442 140.257C63.4072 141.25 63.8444 142.124 64.0861 142.97C64.207 143.393 64.6449 143.104 64.6449 143.848C64.6449 144.298 64.6937 144.578 64.4214 144.918C64.1495 145.258 64.4867 145.715 64.134 146.067C63.8815 146.32 63.6221 146.649 63.3518 146.866C61.8574 148.061 64.8405 153.78 65.2834 154.975C66.358 157.877 67.6946 160.564 68.7316 163.468C69.7051 166.194 70.8456 168.889 72.2597 171.434C72.7661 172.346 73.0348 172.988 73.904 173.589C74.7665 174.186 75.9049 174.332 76.1549 175.457C76.4653 176.854 77.1469 179.624 79.0125 179.624C80.7339 179.624 81.5963 182.077 82.2372 183.359C83.6649 186.215 85.2618 187.972 87.0583 190.525C90.1496 194.917 89.5363 198.646 90.4427 204.737C91.0972 209.135 91.656 213.678 91.656 217.985C91.656 220.205 91.5374 223.055 90.4427 225.025C89.9414 225.928 89.1423 226.979 88.3514 227.612C87.6294 228.189 87.5245 229.504 87.0583 230.262C85.6494 232.551 84.503 235.044 83.1791 237.398L83.1768 237.402C82.2519 239.046 81.3113 240.718 80.4492 242.394C79.6513 243.946 78.2382 245.751 77.8631 247.439C77.2147 250.356 74.9964 252.574 72.9499 254.619L72.8184 254.75C71.2808 256.288 68.7594 257.036 66.6882 257.496C65.7038 257.715 64.4939 258.071 63.4954 258.071C62.6386 258.071 61.937 258.559 61.1966 258.646C60.0912 258.776 59.4981 260.486 58.4668 260.945C57.5473 261.353 56.8994 262.168 56.2478 262.892C55.1431 264.12 52.2849 264.25 50.7242 264.696C49.3241 265.096 48.0221 267.086 46.7013 267.841C45.8208 268.344 44.7618 269.749 44.0193 270.491L43.9827 270.528Z" fill="#E6ECEF"/>
</g>
<rect width="264" height="64" transform="translate(0 272)" fill="#8A6262"/>
<path d="M91.3664 310.375V312.508H72.007V310.375H76.4836V305.02C74.7961 304.047 73.7766 302.523 73.7883 300.648C73.7766 297.273 77.0812 295.047 81.6398 295.047C86.2219 295.047 89.55 297.273 89.5383 300.648C89.55 302.5 88.5539 303.988 86.9133 304.961V310.375H91.3664ZM76.343 300.648C76.3312 302.816 78.4758 304.199 81.6398 304.188C84.7922 304.199 86.9836 302.816 86.9836 300.648C86.9836 298.445 84.7922 297.098 81.6398 297.109C78.4758 297.098 76.3312 298.445 76.343 300.648ZM79.0617 310.375H84.2648V305.957C83.4562 306.133 82.5773 306.227 81.6398 306.227C80.7258 306.227 79.8586 306.133 79.0617 305.969V310.375ZM111.743 296.734V298.867H108.86V301.281H111.743V303.438H108.86V306.344H106.259V293.898H108.86V296.734H111.743ZM92.3836 300.18C92.3719 297.191 94.8328 295.094 98.1023 295.117C101.36 295.094 103.798 297.191 103.821 300.18C103.798 303.156 101.36 305.254 98.1023 305.266C94.8328 305.254 92.3719 303.156 92.3836 300.18ZM94.7977 310.961C94.7977 308.371 97.5867 306.848 101.97 306.836C106.317 306.848 109.059 308.371 109.071 310.961C109.059 313.527 106.317 315.062 101.97 315.062C97.5867 315.062 94.7977 313.527 94.7977 310.961ZM94.9383 300.18C94.9266 301.938 96.2742 303.051 98.1023 303.062C99.907 303.051 101.255 301.938 101.266 300.18C101.255 298.434 99.907 297.285 98.1023 297.297C96.2742 297.285 94.9266 298.434 94.9383 300.18ZM97.3992 310.961C97.3992 312.297 99.0633 312.977 101.97 312.977C104.864 312.977 106.493 312.297 106.493 310.961C106.493 309.637 104.864 308.922 101.97 308.922C99.0633 308.922 97.3992 309.637 97.3992 310.961ZM131.651 310.398V312.531H112.291V310.398H120.635V306.273H114.424V295.305H117.026V298.773H126.846V295.305H129.448V306.273H123.213V310.398H131.651ZM117.026 304.164H126.846V300.859H117.026V304.164ZM150.809 296.734V298.844H133.301V296.734H140.777V294.18H143.355V296.734H150.809ZM132.434 312.812V310.703H140.777V308.102C137.121 307.82 134.906 306.344 134.918 304C134.906 301.445 137.648 299.922 142.066 299.922C146.426 299.922 149.203 301.445 149.191 304C149.203 306.332 146.965 307.809 143.355 308.102V310.703H151.793V312.812H132.434ZM137.59 304C137.578 305.359 139.184 306.051 142.066 306.062C144.891 306.051 146.52 305.359 146.52 304C146.52 302.664 144.891 301.973 142.066 301.961C139.184 301.973 137.578 302.664 137.59 304ZM160.146 298.984C160.123 302.77 162.021 306.59 165.302 308.172L163.709 310.258C161.412 309.098 159.759 306.859 158.857 304.164C157.931 307.047 156.197 309.438 153.771 310.656L152.177 308.57C155.587 306.953 157.533 302.898 157.545 298.984V295.609H160.146V298.984ZM166.568 315.086V293.898H169.17V302.195H172.427V304.422H169.17V315.086H166.568ZM178.68 313V296.031H181.727V303.836H181.962L188.595 296.031H192.321L185.759 303.648L192.391 313H188.712L183.626 305.711L181.727 307.938V313H178.68Z" fill="#E6ECEF"/>
<defs>
<clipPath id="clip0_1545_6058">
<rect width="264" height="264" fill="white"/>
</clipPath>
</defs>
</svg>
