<svg width="264" height="336" viewBox="0 0 264 336" fill="none" xmlns="http://www.w3.org/2000/svg">
<g clip-path="url(#clip0_428_3756)">
<rect width="264" height="264" fill="#6E7463"/>
<path d="M90.2823 91.0365C90.923 92.7023 91.0529 94.7931 91.6752 96.5286C92.2153 98.0348 92.8288 99.9227 91.4618 100.754C90.8537 101.124 90.1578 101.359 89.4632 101.612C88.5971 101.927 87.9551 101.596 87.1698 102.34C86.2871 103.176 85.4434 104.214 84.8764 105.288C83.7913 107.344 82.5551 108.775 80.9448 110.385C79.4256 111.904 79.22 113.714 78.5058 115.754C76.4113 121.739 73.8731 127.814 72.2808 133.956C71.2094 138.089 70.7387 142.593 68.6587 146.424C66.5743 150.264 64.7259 153.867 62.1971 157.454C60.6275 159.681 58.8227 161.524 57.1006 163.607C56.1023 164.814 54.4693 166.324 53.7515 167.684C52.2555 170.518 51.5214 173.803 50.1475 176.712C48.7569 179.657 47.7884 182.961 46.7256 186.031C45.7274 188.915 44.3362 191.784 43.5949 194.75C43.2794 196.012 42.5101 197.107 42.1206 198.354C41.8578 199.195 41.6439 200.774 41.1195 201.448C40.224 202.599 39.991 204.233 39.2629 205.543C38.5895 206.756 37.0896 207.073 36.6419 208.237C36.2186 209.338 35.8384 212.744 34.6033 213.097C33.216 213.493 31.8002 215.742 31.8002 217.192C31.8002 219.154 30.5725 221.471 30.1439 223.399C29.7474 225.183 27.3815 226.674 26.4307 228.259C25.5698 229.694 25.6866 232.261 26.1577 233.792C26.8752 236.124 26.9912 238.663 28.1235 240.928C29.2194 243.119 31.5605 243.483 33.4202 244.877C34.5863 245.752 35.1343 247.236 36.205 248.154C36.7264 248.6 38.3095 251.003 38.3528 251.739C38.445 253.306 37.7468 255.163 37.6976 256.836C37.6538 258.322 37.5609 260.374 37.1151 261.823C36.6619 263.296 37.0548 265.07 36.4599 266.483C35.9876 267.604 36.0594 269.69 36.0594 270.906C36.0594 274.082 33.766 276.664 33.766 279.843C33.766 281.362 33.4384 282.926 33.4384 284.502C33.4384 285.943 33.1454 287.322 35.0765 286.632C37.4698 285.777 43.1265 287.996 43.9226 284.812C44.6329 281.97 45.5607 278.748 45.5607 275.82C45.5607 272.982 46.4398 270.197 46.5436 267.393C46.6265 265.153 47.1977 262.721 47.5993 260.513C47.9867 258.382 47.8541 256.198 47.8541 254.033C47.8541 251.263 50.261 248.907 52.6412 247.626C54.5483 246.599 57.1341 244.215 56.6819 241.728C56.5847 241.194 55.6611 237.503 56.2269 237.342C57.3599 237.018 58.8116 237.851 59.3212 236.322C59.7089 235.159 60.1991 233.026 61.287 232.482C63.6986 231.276 66.1068 230.72 68.0944 228.732C69.4711 227.356 70.5626 225.755 71.935 224.382C73.1945 223.123 74.1012 221.551 75.5389 220.432C76.7426 219.496 78.3026 218.511 79.2339 217.338C79.3531 217.188 81.2479 214.838 81.2724 214.863C81.4662 215.056 81.3245 216.714 81.1996 217.01C80.4169 218.869 80.6856 221.218 79.9619 223.163C79.0301 225.667 79.0383 228.709 79.3795 231.353C79.8321 234.861 79.712 238.426 79.3249 241.91C79.2237 242.821 79.3067 243.779 79.3067 244.695C79.3067 245.501 78.7376 246.335 78.6332 247.171C78.4764 248.425 77.8665 250.038 77.5047 251.284C76.9843 253.077 76.6844 255.451 77.0861 257.309C77.773 260.486 78.5935 263.519 79.2885 266.647C79.9461 269.606 80.7142 272.54 81.2542 275.511C81.6599 277.742 81.3895 278.85 83.7479 279.279C85.9912 279.686 88.5143 280.243 90.7737 280.243C96.2974 280.243 101.682 281.862 107.155 282.464C116.73 283.516 126.254 285.929 135.914 286.122C152.981 286.464 170.135 286.286 187.206 286.141C191.144 286.107 194.964 284.918 198.892 284.83C202.254 284.754 206.032 284.361 209.34 283.774C216.208 282.557 223.208 282.185 230.053 280.826C232.148 280.41 234.764 280.545 235.914 278.532C236.67 277.21 237.147 274.588 237.225 273.035C237.363 270.269 238.208 267.636 238.208 264.845C238.208 259.388 236.122 253.393 234.276 248.317C232.583 243.663 232.801 238.221 231.728 233.392C230.045 225.82 230.957 217.632 229.034 210.057C227.958 205.821 227.862 201.168 227.141 196.843C226.827 194.958 226.433 193.092 226.158 191.2C225.774 188.557 225.894 185.928 225.594 183.283C224.637 174.866 225.099 166.154 224.775 157.709C224.559 152.094 221.03 147.974 218.877 143.13C216.656 138.131 215.797 132.652 214.436 127.403C213.681 124.491 212.031 121.77 210.832 119.031C210.198 117.582 208.517 115.996 208.393 114.389C208.222 112.166 206.588 109.899 206.427 107.655C206.322 106.181 205.049 104.677 204.28 103.468C202.918 101.329 202.218 99.4407 200.366 97.5891C198.668 95.8905 196.375 94.8169 194.633 93.1661C190.824 89.5577 185.605 87.4873 180.799 85.8854C176.98 84.6122 173.611 82.3278 170.06 80.5523C165.992 78.5181 162.329 77.0211 158.848 74.2363C157.562 73.207 155.405 74.8271 156.227 72.2705C157.208 69.2191 156.479 66.1502 157.119 63.0787C158.052 58.6007 157.61 54.4378 157.61 49.9006C157.61 45.6154 156.668 41.7106 155.244 37.7237C153.873 33.8839 150.83 28.6675 147.126 26.6571C144.001 24.9607 141.473 22.7884 137.698 22.3979C135.877 22.2095 133.79 21.2522 132.055 20.5777C128.548 19.2139 125.108 17.4834 121.243 17.4834C117.473 17.4834 114.057 17.9345 110.432 18.8667C106.526 19.8711 102.589 21.4874 98.6369 22.052C95.1884 22.5447 93.7169 25.0929 91.0286 26.9847C84.2575 31.7495 82.3575 39.7737 80.963 47.4434C80.6365 49.2393 79.8808 51.0593 79.6525 52.8857C79.2964 55.7348 79.2266 58.8315 79.3067 61.7135C79.3899 64.7107 80.2919 67.8494 82.7468 69.7587C83.9655 70.7066 85.2859 71.9155 86.3689 72.9986C86.7642 73.3939 87.2717 73.5991 87.4974 74.1635C87.7235 74.7286 87.6991 75.4438 87.9889 75.9655C88.618 77.0978 87.8251 78.9716 87.8251 80.2065C87.8251 81.3993 88.0922 82.6369 88.1527 83.6648C88.2923 86.0379 89.4192 88.7924 90.2823 91.0365Z" fill="#E6ECEF"/>
</g>
<rect width="64" height="64" transform="translate(0 272)" fill="#E6ECEF"/>
<path d="M19.5695 313V310.797L25.5695 305.008C27.2805 303.297 28.1711 302.289 28.1711 300.859C28.1711 299.277 26.9172 298.281 25.2648 298.281C23.5188 298.281 22.3938 299.371 22.4055 301.094H19.4992C19.4875 297.883 21.9016 295.797 25.2883 295.797C28.757 295.797 31.0891 297.871 31.1008 300.719C31.0891 302.629 30.175 304.176 26.8352 307.328L23.8117 310.328V310.445H31.3586V313H19.5695ZM33.5945 313V296.031H39.9695C43.8602 296.031 45.9344 298.398 45.9461 301.656C45.9344 304.902 43.8367 307.258 39.9227 307.258H36.6414V313H33.5945ZM36.6414 304.75H39.5008C41.7977 304.738 42.8289 303.449 42.8289 301.656C42.8289 299.84 41.7977 298.586 39.5008 298.586H36.6414V304.75Z" fill="#6E7463"/>
<rect width="200" height="64" transform="translate(64 272)" fill="#6E7463"/>
<path d="M153.248 303.203V305.312H146.99V310.445H155.38V312.555H136.021V310.445H144.365V305.312H138.248V295.586H140.92V303.203H153.248ZM175.523 310.375V312.508H156.163V310.375H164.507V305.758H158.296V295.539H173.296V305.758H167.085V310.375H175.523ZM160.851 303.719H170.718V297.625H160.851V303.719ZM182.268 313V296.031H185.315V310.422H192.815V313H182.268Z" fill="#E6ECEF"/>
<defs>
<clipPath id="clip0_428_3756">
<rect width="264" height="264" fill="white"/>
</clipPath>
</defs>
</svg>
