<svg width="264" height="336" viewBox="0 0 264 336" fill="none" xmlns="http://www.w3.org/2000/svg">
<g clip-path="url(#clip0_2103_13021)">
<rect width="264" height="264" fill="#6E7463"/>
<path d="M90.2823 91.0375C90.923 92.7032 91.0529 94.7941 91.6752 96.5296C92.2153 98.0358 92.8288 99.9237 91.4618 100.755C90.8537 101.125 90.1578 101.36 89.4632 101.613C88.5971 101.928 87.9551 101.597 87.1698 102.341C86.2871 103.177 85.4434 104.215 84.8764 105.289C83.7913 107.345 82.5551 108.776 80.9448 110.386C79.4256 111.905 79.22 113.715 78.5058 115.755C76.4113 121.74 73.8731 127.815 72.2808 133.957C71.2094 138.09 70.7387 142.594 68.6587 146.425C66.5743 150.265 64.7259 153.868 62.1971 157.455C60.6275 159.682 58.8227 161.525 57.1006 163.608C56.1023 164.815 54.4693 166.325 53.7515 167.685C52.2555 170.519 51.5214 173.804 50.1475 176.713C48.7569 179.658 47.7884 182.962 46.7256 186.032C45.7274 188.916 44.3362 191.785 43.5949 194.751C43.2794 196.013 42.5101 197.108 42.1206 198.355C41.8578 199.196 41.6439 200.775 41.1195 201.449C40.224 202.6 39.991 204.234 39.2629 205.544C38.5895 206.757 37.0896 207.074 36.6419 208.238C36.2186 209.339 35.8384 212.745 34.6033 213.098C33.216 213.494 31.8002 215.743 31.8002 217.193C31.8002 219.155 30.5725 221.471 30.1439 223.4C29.7474 225.184 27.3815 226.675 26.4307 228.26C25.5698 229.695 25.6866 232.262 26.1577 233.793C26.8752 236.125 26.9912 238.664 28.1235 240.928C29.2194 243.12 31.5605 243.484 33.4202 244.878C34.5863 245.753 35.1343 247.237 36.205 248.155C36.7264 248.601 38.3095 251.004 38.3528 251.74C38.445 253.307 37.7468 255.164 37.6976 256.837C37.6538 258.323 37.5609 260.375 37.1151 261.824C36.6619 263.297 37.0548 265.071 36.4599 266.484C35.9876 267.605 36.0594 269.691 36.0594 270.907C36.0594 274.083 33.766 276.665 33.766 279.844C33.766 281.363 33.4384 282.927 33.4384 284.503C33.4384 285.944 33.1454 287.323 35.0765 286.633C37.4698 285.778 43.1265 287.997 43.9226 284.813C44.6329 281.971 45.5607 278.749 45.5607 275.821C45.5607 272.983 46.4398 270.198 46.5436 267.394C46.6265 265.154 47.1977 262.722 47.5993 260.514C47.9867 258.383 47.8541 256.199 47.8541 254.034C47.8541 251.264 50.261 248.908 52.6412 247.627C54.5483 246.6 57.1341 244.216 56.6819 241.729C56.5847 241.195 55.6611 237.504 56.2269 237.343C57.3599 237.019 58.8116 237.852 59.3212 236.323C59.7089 235.16 60.1991 233.027 61.287 232.483C63.6986 231.277 66.1068 230.721 68.0944 228.733C69.4711 227.357 70.5626 225.755 71.935 224.383C73.1945 223.124 74.1012 221.552 75.5389 220.433C76.7426 219.497 78.3026 218.512 79.2339 217.339C79.3531 217.189 81.2479 214.839 81.2724 214.864C81.4662 215.057 81.3245 216.715 81.1996 217.011C80.4169 218.87 80.6856 221.219 79.9619 223.164C79.0301 225.668 79.0383 228.71 79.3795 231.354C79.8321 234.862 79.712 238.427 79.3249 241.911C79.2237 242.822 79.3067 243.78 79.3067 244.696C79.3067 245.502 78.7376 246.336 78.6332 247.172C78.4764 248.426 77.8665 250.039 77.5047 251.285C76.9843 253.078 76.6844 255.452 77.0861 257.31C77.773 260.487 78.5935 263.52 79.2885 266.647C79.9461 269.607 80.7142 272.541 81.2542 275.512C81.6599 277.743 81.3895 278.851 83.7479 279.279C85.9912 279.687 88.5143 280.244 90.7737 280.244C96.2974 280.244 101.682 281.863 107.155 282.465C116.73 283.517 126.254 285.93 135.914 286.123C152.981 286.465 170.135 286.287 187.206 286.142C191.144 286.108 194.964 284.919 198.892 284.831C202.254 284.755 206.032 284.362 209.34 283.775C216.208 282.558 223.208 282.186 230.053 280.827C232.148 280.411 234.764 280.546 235.914 278.533C236.67 277.21 237.147 274.589 237.225 273.036C237.363 270.27 238.208 267.637 238.208 264.846C238.208 259.389 236.122 253.394 234.276 248.318C232.583 243.664 232.801 238.222 231.728 233.393C230.045 225.821 230.957 217.633 229.034 210.058C227.958 205.822 227.862 201.169 227.141 196.844C226.827 194.959 226.433 193.093 226.158 191.201C225.774 188.558 225.894 185.929 225.594 183.284C224.637 174.867 225.099 166.155 224.775 157.71C224.559 152.095 221.03 147.975 218.877 143.131C216.656 138.132 215.797 132.653 214.436 127.404C213.681 124.491 212.031 121.771 210.832 119.032C210.198 117.583 208.517 115.997 208.393 114.39C208.222 112.167 206.588 109.9 206.427 107.656C206.322 106.182 205.049 104.678 204.28 103.469C202.918 101.33 202.218 99.4417 200.366 97.5901C198.668 95.8914 196.375 94.8179 194.633 93.1671C190.824 89.5587 185.605 87.4882 180.799 85.8864C176.98 84.6132 173.611 82.3288 170.06 80.5533C165.992 78.5191 162.329 77.0221 158.848 74.2373C157.562 73.208 155.405 74.8281 156.227 72.2715C157.208 69.22 156.479 66.1512 157.119 63.0796C158.052 58.6017 157.61 54.4387 157.61 49.9016C157.61 45.6163 156.668 41.7116 155.244 37.7247C153.873 33.8849 150.83 28.6685 147.126 26.658C144.001 24.9617 141.473 22.7893 137.698 22.3988C135.877 22.2105 133.79 21.2532 132.055 20.5787C128.548 19.2149 125.108 17.4844 121.243 17.4844C117.473 17.4844 114.057 17.9354 110.432 18.8677C106.526 19.872 102.589 21.4884 98.6369 22.053C95.1884 22.5456 93.7169 25.0939 91.0286 26.9857C84.2575 31.7505 82.3575 39.7746 80.963 47.4444C80.6365 49.2403 79.8808 51.0603 79.6525 52.8867C79.2964 55.7358 79.2266 58.8325 79.3067 61.7145C79.3899 64.7116 80.2919 67.8503 82.7468 69.7597C83.9655 70.7075 85.2859 71.9165 86.3689 72.9996C86.7642 73.3949 87.2717 73.6001 87.4974 74.1645C87.7235 74.7296 87.6991 75.4448 87.9889 75.9664C88.618 77.0988 87.8251 78.9726 87.8251 80.2074C87.8251 81.4002 88.0922 82.6379 88.1527 83.6658C88.2923 86.0388 89.4192 88.7934 90.2823 91.0375Z" fill="#E6ECEF"/>
</g>
<rect width="264" height="64" transform="translate(0 272)" fill="#6E7463"/>
<path d="M63.7312 294.859V296.477C63.743 298.047 63.743 299.875 63.2742 302.242H66.0984V304.352H57.6844V307.656H63.7781V315.086H61.1766V309.742H48.7078V307.656H55.0828V304.352H46.7391V302.242H60.6609C61.0828 300.062 61.1297 298.41 61.1297 296.945H49.1297V294.859H63.7312ZM85.1156 293.898V315.086H82.6312V293.898H85.1156ZM66.5062 309.062C69.5648 307.199 70.9125 303.379 70.9125 299.688V298.281H67.2328V296.172H76.8422V298.281H73.4203V299.688C73.4203 303.262 74.6977 306.848 77.7328 308.594L76.1859 310.516C74.2289 309.355 72.9281 307.34 72.1898 304.926C71.4398 307.539 70.0922 309.766 68.1 311.008L66.5062 309.062ZM75.2953 303.391V301.281H78.3422V294.297H80.8031V314.055H78.3422V303.391H75.2953ZM104.719 293.898V315.086H102.094V293.898H104.719ZM87.1641 309.25C92.7187 306.613 95.2734 303.027 95.7422 298.211H88.2422V296.148H98.3906C98.3906 302.453 95.9414 307.809 88.5234 311.336L87.1641 309.25ZM124.111 295.188V297.086C124.099 299.066 124.099 301.234 123.548 304.234H126.478V306.344H118.064V315.109H115.439V306.344H107.166V304.234H120.9C121.486 301.352 121.509 299.184 121.509 297.297H109.439V295.188H124.111ZM139.27 295.211C142.634 295.211 145.083 297.309 145.106 300.32C145.083 302.922 143.255 304.844 140.583 305.312V308.406C142.47 308.312 144.38 308.148 146.184 307.891L146.395 309.766C141.649 310.668 136.563 310.703 132.825 310.703L132.497 308.57C134.114 308.57 136.001 308.57 137.981 308.512V305.324C135.321 304.855 133.446 302.934 133.458 300.32C133.446 297.309 135.942 295.211 139.27 295.211ZM136.036 300.32C136.024 302.066 137.419 303.203 139.27 303.203C141.157 303.203 142.54 302.066 142.552 300.32C142.54 298.539 141.145 297.449 139.27 297.461C137.419 297.449 136.024 298.539 136.036 300.32ZM147.45 315.109V293.898H150.052V315.109H147.45ZM169.912 295.844V298C169.912 300.637 169.912 303.473 169.139 307.633L166.584 307.375C167.311 303.449 167.311 300.566 167.311 298V297.93H154.491V295.844H169.912ZM152.545 312.344V310.211H156.881V303.461H159.483V310.211H162.178V303.461H164.733V310.211H171.858V312.344H152.545ZM196.017 293.898V315.086H193.533V304.281H191.142V314.008H188.752V294.297H191.142V302.195H193.533V293.898H196.017ZM178.439 310.141V296.406H186.361V298.516H181.064V307.938C183.361 307.914 185.259 307.797 187.416 307.398L187.603 309.531C185.037 310.047 182.822 310.117 179.869 310.141H178.439ZM217.284 310.539V312.648H197.925V310.539H202.941V306.18H199.589V304.07H202.566V297.789H199.519V295.703H215.597V297.789H212.503V304.07H215.527V306.18H212.175V310.539H217.284ZM205.167 304.07H209.925V297.789H205.167V304.07ZM205.542 310.539H209.573V306.18H205.542V310.539Z" fill="#E6ECEF"/>
<defs>
<clipPath id="clip0_2103_13021">
<rect width="264" height="264" fill="white"/>
</clipPath>
</defs>
</svg>
