<svg width="168" height="168" viewBox="0 0 168 168" fill="none" xmlns="http://www.w3.org/2000/svg">
<rect width="168" height="168" rx="84" fill="#6E7463"/>
<path d="M68.9145 94V91.4297L75.9145 84.6758C77.9105 82.6797 78.9496 81.5039 78.9496 79.8359C78.9496 77.9902 77.4867 76.8281 75.559 76.8281C73.5219 76.8281 72.2094 78.0996 72.223 80.1094H68.8324C68.8188 76.3633 71.6352 73.9297 75.5863 73.9297C79.6332 73.9297 82.3539 76.3496 82.3676 79.6719C82.3539 81.9004 81.2875 83.7051 77.391 87.3828L73.8637 90.8828V91.0195H82.6684V94H68.9145ZM85.277 94V74.2031H92.7145C97.2535 74.2031 99.6734 76.9648 99.6871 80.7656C99.6734 84.5527 97.2262 87.3008 92.6598 87.3008H88.8316V94H85.277ZM88.8316 84.375H92.1676C94.8473 84.3613 96.0504 82.8574 96.0504 80.7656C96.0504 78.6465 94.8473 77.1836 92.1676 77.1836H88.8316V84.375Z" fill="#E6ECEF"/>
</svg>
