<svg width="64" height="64" viewBox="0 0 64 64" fill="none" xmlns="http://www.w3.org/2000/svg">
<g clip-path="url(#clip0_506_656)">
<path d="M0 32C0 14.3269 14.3269 0 32 0C49.6731 0 64 14.3269 64 32C64 49.6731 49.6731 64 32 64C14.3269 64 0 49.6731 0 32Z" fill="#766178"/>
<g clip-path="url(#clip1_506_656)">
<rect width="64" height="64" rx="32" fill="#766178"/>
<path d="M4.92654 62.2417C4.92654 63.4526 4.87641 64.6252 5.14559 65.7978C5.16169 65.8679 5.18612 65.936 5.22633 65.9957C5.38391 66.2294 5.74053 66.6167 5.88483 66.7348C6.46133 67.2065 7.50344 67.1975 8.19015 67.2049C8.88581 67.2124 9.55547 67.3676 10.2559 67.3676C12.513 67.3676 14.748 66.9997 16.9775 66.676C18.4075 66.4684 19.8803 66.1857 21.326 66.1517C22.7738 66.1176 24.2262 66.1472 25.6744 66.1472C28.0978 66.1472 30.5214 66.2877 32.943 66.3732C35.9172 66.4782 38.8932 66.4188 41.8659 66.5359C44.3725 66.6347 46.8707 66.6515 49.3785 66.7981C52.5688 66.9846 55.7398 67.0422 58.9343 67.0422C59.0916 67.0422 60.661 67.1908 60.661 66.9156C60.661 66.2865 60.6407 65.6711 60.5345 65.0488C60.306 63.7107 59.6727 62.1721 58.645 61.2472C58.4021 61.0287 58.0936 60.889 57.7952 60.759C56.9389 60.3861 56.204 59.7555 55.3543 59.3939C54.7358 59.1307 54.2176 58.7224 53.5824 58.4989C53.0311 58.305 52.4097 58.0094 51.9234 57.6853C50.7099 56.8763 49.7321 55.7992 48.4564 55.0816C47.9433 54.793 47.5049 54.4574 46.9512 54.2318C46.4507 54.028 46.081 53.6966 45.6087 53.4544C44.749 53.0135 43.9659 52.357 43.0683 51.9898C42.3418 51.6926 41.5961 51.3965 40.9257 51.0134C40.6482 50.8548 40.2365 50.8938 40.0126 50.6699C39.8906 50.5478 39.7504 50.5838 39.7504 50.3625V49.5941C39.7504 49.3028 40.2507 49.142 40.5234 49.142H40.5323C40.7765 49.1421 41.459 49.1422 41.6218 48.9793C41.9547 48.6464 41.9602 47.9477 42.2727 47.5961C42.3844 47.4704 42.5071 46.9518 42.5168 46.7825C42.5389 46.3961 42.6176 45.9855 42.6795 45.5982C42.9225 44.0796 43.1789 42.5814 43.5339 41.0825C43.6335 40.6618 43.6961 40.2482 43.7554 39.8213C43.8034 39.4755 43.9839 39.1839 44.0582 38.8495C44.1808 38.2977 44.362 37.7379 44.4515 37.1815C44.6236 36.1103 44.7136 34.9655 44.7136 33.8817C44.7136 33.0208 44.902 31.8681 44.6684 31.034C44.3557 29.917 44.0402 28.8244 43.6198 27.7433C43.2161 26.7052 42.7403 25.6757 42.3902 24.6062C41.6412 22.3173 40.7277 19.5643 38.6927 18.1016C37.7362 17.4141 36.6849 16.8149 35.6054 16.3523C34.5738 15.9102 33.3439 15.0818 32.1836 15.0504C31.2551 15.0253 30.0795 14.8634 29.1686 15.0911C27.5551 15.4945 25.948 15.944 24.3364 16.3523C23.1343 16.6568 21.994 16.9917 20.8559 17.4914L20.8505 17.4937C20.2529 17.7561 19.6686 18.0126 19.2466 18.531C18.5551 19.3806 18.08 20.3481 17.4566 21.2386C17.161 21.6609 17.0476 22.2017 16.7244 22.6173C16.3797 23.0605 16.1138 23.6977 15.87 24.2039C15.4291 25.1197 15.2237 25.8531 15.079 26.8483C14.9946 27.4284 15.0127 28.0237 14.9163 28.6021C14.8413 29.0522 14.6537 29.4958 14.5456 29.9401C14.279 31.0359 14.334 32.2407 14.2021 33.3619C14.1309 33.9672 13.958 34.527 13.958 35.1429C13.958 35.5524 14.0802 35.9626 14.1252 36.3679C14.1686 36.758 14.4086 37.148 14.5637 37.5024C14.6806 37.7698 14.7032 38.092 14.853 38.3387C15.1314 38.7973 15.2305 39.3125 15.4406 39.7852C15.6284 40.2077 15.7661 40.8178 15.7661 41.2756C15.7661 41.8394 15.6841 42.2507 15.7661 42.7016C15.8255 43.0284 16.0228 43.2247 16.2407 43.4971C16.5928 43.9373 16.5062 44.7195 17.0091 45.1063C17.5247 45.5029 17.646 46.1682 18.0895 46.6116C18.3936 46.9157 18.6774 47.013 19.1065 47.2037C19.2779 47.2799 19.4967 47.2457 19.6761 47.3213C19.8448 47.3923 20.564 47.5148 20.7519 47.5148C21.2052 47.5148 21.683 47.8874 22.0492 48.1205C22.4299 48.3628 22.5012 48.4378 22.5012 48.898C22.5012 49.3841 22.1831 49.501 21.9497 49.8743C21.6892 50.2912 21.2216 50.7381 20.8694 51.0903C19.9685 51.9912 18.6715 52.5343 18.0895 53.6984C17.6986 54.4802 17.1387 55.0117 16.2814 55.1675C15.647 55.2829 15.0059 55.4921 14.3693 55.6512C14.0155 55.7396 13.6434 55.8797 13.3071 56.0173C12.8816 56.1914 12.4147 56.2184 12.0233 56.4648C11.7713 56.6235 11.3923 56.6533 11.1102 56.7903C10.7573 56.9617 10.3762 57.1101 10.0073 57.2423C9.48766 57.4286 8.9671 57.851 8.47945 58.1192C7.88012 58.4489 7.32766 58.7696 6.75724 59.1498C6.17848 59.5357 5.67941 59.685 5.37405 60.3296C5.08626 60.9372 4.92654 61.5712 4.92654 62.2417Z" fill="#D3D8DF"/>
</g>
</g>
<defs>
<clipPath id="clip0_506_656">
<path d="M0 32C0 14.3269 14.3269 0 32 0C49.6731 0 64 14.3269 64 32C64 49.6731 49.6731 64 32 64C14.3269 64 0 49.6731 0 32Z" fill="white"/>
</clipPath>
<clipPath id="clip1_506_656">
<rect width="64" height="64" rx="32" fill="white"/>
</clipPath>
</defs>
</svg>
