<svg width="72" height="72" viewBox="0 0 72 72" fill="none" xmlns="http://www.w3.org/2000/svg">
<g clip-path="url(#clip0_679_1535)">
<path d="M4 36C4 18.3269 18.3269 4 36 4C53.6731 4 68 18.3269 68 36C68 53.6731 53.6731 68 36 68C18.3269 68 4 53.6731 4 36Z" fill="#6E7463"/>
<g clip-path="url(#clip1_679_1535)">
<rect width="64" height="64" transform="translate(4 4)" fill="#6E7463"/>
<path d="M25.8877 26.0695C26.043 26.4733 26.0745 26.9802 26.2254 27.4009C26.3563 27.766 26.505 28.2237 26.1736 28.4253C26.0262 28.515 25.8575 28.5719 25.6891 28.6331C25.4792 28.7095 25.3235 28.6293 25.1331 28.8096C24.9192 29.0124 24.7146 29.264 24.5772 29.5245C24.3141 30.0229 24.0144 30.3696 23.6241 30.76C23.2558 31.1283 23.2059 31.567 23.0328 32.0617C22.525 33.5124 21.9097 34.9853 21.5237 36.4742C21.2639 37.4761 21.1498 38.5679 20.6456 39.4968C20.1403 40.4276 19.6922 41.3011 19.0791 42.1708C18.6986 42.7106 18.2611 43.1574 17.8436 43.6622C17.6016 43.9549 17.2057 44.3209 17.0317 44.6506C16.6691 45.3378 16.4911 46.134 16.158 46.8393C15.8209 47.5532 15.5861 48.3542 15.3285 49.0985C15.0865 49.7976 14.7492 50.4932 14.5695 51.2121C14.493 51.518 14.3065 51.7836 14.2121 52.0858C14.1484 52.2896 14.0966 52.6724 13.9694 52.8359C13.7523 53.115 13.6959 53.511 13.5193 53.8287C13.3561 54.1226 12.9925 54.1995 12.8839 54.4818C12.7813 54.7486 12.6892 55.5744 12.3897 55.6599C12.0534 55.756 11.7102 56.301 11.7102 56.6527C11.7102 57.1283 11.4126 57.6898 11.3087 58.1574C11.2126 58.5899 10.639 58.9514 10.4085 59.3356C10.1998 59.6834 10.2281 60.3058 10.3423 60.677C10.5163 61.2423 10.5444 61.8577 10.8189 62.4067C11.0846 62.938 11.6521 63.0261 12.1029 63.3642C12.3856 63.5762 12.5185 63.936 12.778 64.1584C12.9044 64.2668 13.2882 64.8493 13.2987 65.0277C13.3211 65.4076 13.1518 65.8576 13.1399 66.2632C13.1293 66.6236 13.1067 67.121 12.9987 67.4723C12.8888 67.8293 12.9841 68.2593 12.8398 68.6019C12.7253 68.8737 12.7427 69.3793 12.7427 69.6741C12.7427 70.4442 12.1868 71.0702 12.1868 71.8407C12.1868 72.209 12.1073 72.5882 12.1073 72.9703C12.1073 73.3195 12.0363 73.6537 12.5045 73.4865C13.0846 73.2793 14.456 73.8173 14.649 73.0453C14.8212 72.3564 15.0461 71.5752 15.0461 70.8655C15.0461 70.1774 15.2592 69.5022 15.2844 68.8225C15.3045 68.2796 15.4429 67.69 15.5403 67.1546C15.6342 66.638 15.6021 66.1086 15.6021 65.5837C15.6021 64.9122 16.1855 64.3412 16.7626 64.0305C17.2249 63.7815 17.8517 63.2037 17.7421 62.6008C17.7186 62.4712 17.4947 61.5766 17.6318 61.5374C17.9065 61.4589 18.2584 61.6609 18.382 61.2903C18.4759 61.0084 18.5948 60.4911 18.8585 60.3593C19.4432 60.0669 20.0269 59.9321 20.5088 59.4503C20.8425 59.1165 21.1072 58.7284 21.4398 58.3957C21.7452 58.0903 21.965 57.7093 22.3135 57.4382C22.6053 57.2112 22.9835 56.9723 23.2093 56.688C23.2382 56.6516 23.6975 56.082 23.7035 56.0879C23.7504 56.1349 23.7161 56.5367 23.6858 56.6086C23.4961 57.0593 23.5612 57.6285 23.3858 58.1C23.1599 58.7071 23.1619 59.4447 23.2446 60.0857C23.3543 60.9361 23.3252 61.8003 23.2313 62.645C23.2068 62.8656 23.2269 63.0979 23.2269 63.3201C23.2269 63.5154 23.089 63.7177 23.0637 63.9202C23.0257 64.2242 22.8778 64.6153 22.7901 64.9174C22.6639 65.352 22.5912 65.9276 22.6886 66.378C22.8551 67.1482 23.054 67.8834 23.2225 68.6416C23.3819 69.359 23.5681 70.0704 23.6991 70.7905C23.7974 71.3314 23.7319 71.5999 24.3036 71.7039C24.8474 71.8028 25.4591 71.9377 26.0068 71.9377C27.3459 71.9377 28.6513 72.3303 29.9781 72.4761C32.2992 72.7311 34.608 73.3162 36.9499 73.363C41.0873 73.4457 45.246 73.4028 49.3844 73.3674C50.339 73.3592 51.265 73.0711 52.2173 73.0497C53.0324 73.0314 53.9483 72.9359 54.7501 72.7938C56.4151 72.4986 58.1122 72.4084 59.7715 72.079C60.2794 71.9781 60.9135 72.0109 61.1924 71.523C61.3756 71.2023 61.4912 70.5668 61.5101 70.1904C61.5436 69.5199 61.7483 68.8814 61.7483 68.2047C61.7483 66.8819 61.2427 65.4286 60.7952 64.1982C60.3849 63.0698 60.4376 61.7505 60.1775 60.5799C59.7695 58.7441 59.9908 56.7592 59.5244 54.923C59.2636 53.896 59.2403 52.768 59.0655 51.7195C58.9894 51.2625 58.8938 50.8103 58.8273 50.3516C58.7342 49.7107 58.7633 49.0735 58.6905 48.4322C58.4586 46.3918 58.5706 44.2798 58.4919 42.2326C58.4395 40.8712 57.5842 39.8725 57.0622 38.6981C56.5237 37.4864 56.3155 36.1581 55.9856 34.8857C55.8025 34.1795 55.4025 33.5201 55.1119 32.8559C54.9583 32.5048 54.5506 32.1202 54.5206 31.7307C54.4792 31.1917 54.0829 30.6422 54.0441 30.0981C54.0185 29.7409 53.7099 29.3764 53.5234 29.0832C53.1934 28.5646 53.0236 28.1068 52.5747 27.658C52.1629 27.2462 51.6072 26.9859 51.1847 26.5857C50.2614 25.711 48.9962 25.209 47.8312 24.8207C46.9052 24.5121 46.0887 23.9583 45.2278 23.5278C44.2415 23.0347 43.3536 22.6718 42.5097 21.9967C42.1978 21.7472 41.6751 22.1399 41.8743 21.5201C42.1121 20.7804 41.9354 20.0364 42.0905 19.2918C42.3167 18.2062 42.2096 17.197 42.2096 16.0971C42.2096 15.0583 41.9812 14.1117 41.636 13.1451C41.3036 12.2143 40.5658 10.9497 39.668 10.4623C38.9105 10.0511 38.2975 9.52446 37.3823 9.42979C36.9409 9.38412 36.4349 9.15206 36.0144 8.98853C35.1643 8.65792 34.3303 8.2384 33.3934 8.2384C32.4794 8.2384 31.6513 8.34775 30.7724 8.57376C29.8255 8.81723 28.8711 9.20908 27.913 9.34595C27.0771 9.46538 26.7203 10.0831 26.0686 10.5417C24.4271 11.6969 23.9665 13.6421 23.6285 15.5014C23.5493 15.9368 23.3661 16.378 23.3108 16.8208C23.2244 17.5115 23.2075 18.2622 23.2269 18.9609C23.2471 19.6874 23.4658 20.4483 24.0609 20.9112C24.3563 21.141 24.6764 21.4341 24.939 21.6966C25.0348 21.7925 25.1578 21.8422 25.2126 21.979C25.2674 22.116 25.2614 22.2894 25.3317 22.4159C25.4842 22.6904 25.292 23.1446 25.292 23.444C25.292 23.7332 25.3568 24.0332 25.3714 24.2824C25.4053 24.8577 25.6784 25.5254 25.8877 26.0695Z" fill="#D3D8DF"/>
</g>
</g>
<defs>
<clipPath id="clip0_679_1535">
<path d="M4 36C4 18.3269 18.3269 4 36 4C53.6731 4 68 18.3269 68 36C68 53.6731 53.6731 68 36 68C18.3269 68 4 53.6731 4 36Z" fill="white"/>
</clipPath>
<clipPath id="clip1_679_1535">
<rect width="64" height="64" fill="white" transform="translate(4 4)"/>
</clipPath>
</defs>
</svg>
