<svg width="72" height="72" viewBox="0 0 72 72" fill="none" xmlns="http://www.w3.org/2000/svg">
<rect x="1" y="1" width="70" height="70" rx="35" stroke="#0D575C" stroke-width="2"/>
<path d="M4 36C4 18.3269 18.3269 4 36 4C53.6731 4 68 18.3269 68 36C68 53.6731 53.6731 68 36 68C18.3269 68 4 53.6731 4 36Z" fill="#6E7463"/>
<g clip-path="url(#clip0_397_1777)">
<rect x="4" y="4" width="64" height="64" rx="32" fill="#6E7463"/>
<path d="M25.8867 26.0693C26.042 26.4732 26.0735 26.98 26.2244 27.4008C26.3553 27.7659 26.504 28.2236 26.1726 28.4252C26.0252 28.5149 25.8565 28.5718 25.6881 28.633C25.4782 28.7094 25.3225 28.6292 25.1322 28.8095C24.9182 29.0122 24.7136 29.2639 24.5762 29.5243C24.3131 30.0227 24.0135 30.3695 23.6231 30.7599C23.2548 31.1281 23.2049 31.5668 23.0318 32.0616C22.524 33.5123 21.9087 34.9852 21.5227 36.4741C21.263 37.4759 21.1489 38.5678 20.6446 39.4967C20.1393 40.4275 19.6912 41.301 19.0782 42.1707C18.6977 42.7104 18.2601 43.1572 17.8427 43.6621C17.6006 43.9548 17.2048 44.3208 17.0307 44.6505C16.6681 45.3377 16.4901 46.1339 16.1571 46.8391C15.8199 47.553 15.5851 48.3541 15.3275 49.0984C15.0855 49.7974 14.7483 50.4931 14.5686 51.212C14.4921 51.5179 14.3056 51.7835 14.2111 52.0856C14.1474 52.2895 14.0956 52.6723 13.9685 52.8358C13.7514 53.1149 13.6949 53.5109 13.5184 53.8286C13.3551 54.1224 12.9915 54.1994 12.883 54.4816C12.7804 54.7484 12.6882 55.5742 12.3888 55.6598C12.0525 55.7559 11.7092 56.3009 11.7092 56.6526C11.7092 57.1282 11.4116 57.6897 11.3077 58.1573C11.2116 58.5897 10.638 58.9513 10.4075 59.3354C10.1988 59.6833 10.2271 60.3057 10.3413 60.6768C10.5153 61.2421 10.5434 61.8576 10.8179 62.4066C11.0836 62.9379 11.6511 63.026 12.1019 63.3641C12.3846 63.5761 12.5175 63.9358 12.7771 64.1583C12.9035 64.2667 13.2872 64.8492 13.2977 65.0276C13.3201 65.4075 13.1508 65.8575 13.1389 66.2631C13.1283 66.6235 13.1058 67.1209 12.9977 67.4721C12.8878 67.8292 12.9831 68.2592 12.8388 68.6017C12.7244 68.8736 12.7418 69.3792 12.7418 69.674C12.7418 70.444 12.1858 71.07 12.1858 71.8405C12.1858 72.2088 12.1064 72.5881 12.1064 72.9702C12.1064 73.3194 12.0353 73.6536 12.5035 73.4864C13.0837 73.2792 14.455 73.8171 14.648 73.0452C14.8202 72.3563 15.0451 71.5751 15.0451 70.8654C15.0451 70.1772 15.2582 69.5021 15.2834 68.8224C15.3035 68.2795 15.442 67.6899 15.5393 67.1544C15.6332 66.6379 15.6011 66.1085 15.6011 65.5836C15.6011 64.9121 16.1846 64.3411 16.7616 64.0304C17.2239 63.7814 17.8508 63.2035 17.7412 62.6007C17.7176 62.4711 17.4937 61.5765 17.6309 61.5373C17.9055 61.4588 18.2574 61.6608 18.381 61.2902C18.475 61.0082 18.5938 60.491 18.8575 60.3591C19.4422 60.0668 20.026 59.932 20.5078 59.4502C20.8416 59.1164 21.1062 58.7282 21.4389 58.3956C21.7442 58.0902 21.964 57.7091 22.3126 57.438C22.6044 57.2111 22.9825 56.9722 23.2083 56.6879C23.2372 56.6515 23.6965 56.0818 23.7025 56.0878C23.7495 56.1348 23.7151 56.5366 23.6849 56.6085C23.4951 57.0591 23.5602 57.6284 23.3848 58.0999C23.1589 58.707 23.1609 59.4446 23.2436 60.0856C23.3533 60.936 23.3242 61.8002 23.2304 62.6448C23.2058 62.8655 23.2259 63.0978 23.2259 63.3199C23.2259 63.5153 23.088 63.7176 23.0627 63.9201C23.0247 64.2241 22.8768 64.6152 22.7891 64.9173C22.6629 65.3519 22.5902 65.9274 22.6876 66.3778C22.8542 67.1481 23.0531 67.8833 23.2215 68.6415C23.381 69.3589 23.5672 70.0703 23.6981 70.7904C23.7964 71.3312 23.7309 71.5998 24.3026 71.7038C24.8464 71.8026 25.4581 71.9376 26.0058 71.9376C27.3449 71.9376 28.6503 72.3302 29.9771 72.476C32.2982 72.731 34.607 73.316 36.9489 73.3629C41.0863 73.4456 45.245 73.4027 49.3834 73.3673C50.338 73.3591 51.264 73.071 52.2163 73.0496C53.0314 73.0313 53.9473 72.9358 54.7491 72.7937C56.4141 72.4984 58.1112 72.4083 59.7706 72.0788C60.2784 71.978 60.9126 72.0108 61.1914 71.5228C61.3746 71.2022 61.4903 70.5667 61.5091 70.1903C61.5426 69.5198 61.7474 68.8813 61.7474 68.2046C61.7474 66.8818 61.2417 65.4285 60.7943 64.198C60.3839 63.0696 60.4366 61.7503 60.1765 60.5798C59.7686 58.744 59.9898 56.7591 59.5235 54.9229C59.2626 53.8959 59.2393 52.7679 59.0646 51.7194C58.9884 51.2624 58.8929 50.8102 58.8263 50.3515C58.7332 49.7106 58.7624 49.0734 58.6895 48.4321C58.4576 46.3917 58.5697 44.2797 58.4909 42.2324C58.4386 40.8711 57.5832 39.8724 57.0613 38.698C56.5227 37.4863 56.3145 36.158 55.9846 34.8856C55.8015 34.1794 55.4015 33.5199 55.1109 32.8558C54.9573 32.5047 54.5496 32.1201 54.5196 31.7306C54.4782 31.1916 54.0819 30.6421 54.0431 30.098C54.0176 29.7407 53.709 29.3762 53.5224 29.0831C53.1924 28.5645 53.0226 28.1067 52.5737 27.6578C52.1619 27.2461 51.6062 26.9858 51.1838 26.5856C50.2604 25.7108 48.9952 25.2089 47.8302 24.8206C46.9043 24.5119 46.0877 23.9581 45.2268 23.5277C44.2406 23.0346 43.3526 22.6717 42.5087 21.9966C42.1968 21.747 41.6741 22.1398 41.8733 21.52C42.1111 20.7803 41.9344 20.0363 42.0895 19.2917C42.3157 18.2061 42.2087 17.1969 42.2087 16.097C42.2087 15.0582 41.9802 14.1115 41.635 13.145C41.3026 12.2142 40.5649 10.9496 39.6671 10.4622C38.9095 10.051 38.2965 9.52434 37.3814 9.42967C36.9399 9.384 36.434 9.15193 36.0135 8.98841C35.1633 8.6578 34.3293 8.23828 33.3924 8.23828C32.4785 8.23828 31.6503 8.34763 30.7714 8.57363C29.8245 8.81711 28.8702 9.20896 27.9121 9.34583C27.0761 9.46525 26.7193 10.083 26.0676 10.5416C24.4261 11.6967 23.9655 13.642 23.6275 15.5013C23.5483 15.9367 23.3651 16.3779 23.3098 16.8207C23.2234 17.5113 23.2065 18.2621 23.2259 18.9607C23.2461 19.6873 23.4648 20.4482 24.0599 20.9111C24.3554 21.1409 24.6754 21.4339 24.938 21.6965C25.0338 21.7923 25.1569 21.8421 25.2116 21.9789C25.2664 22.1159 25.2605 22.2893 25.3307 22.4158C25.4832 22.6903 25.291 23.1445 25.291 23.4439C25.291 23.733 25.3558 24.0331 25.3704 24.2823C25.4043 24.8575 25.6775 25.5253 25.8867 26.0693Z" fill="#E6ECEF"/>
</g>
<defs>
<clipPath id="clip0_397_1777">
<rect x="4" y="4" width="64" height="64" rx="32" fill="white"/>
</clipPath>
</defs>
</svg>
