<svg width="168" height="168" viewBox="0 0 168 168" fill="none" xmlns="http://www.w3.org/2000/svg">
<rect width="168" height="168" rx="84" fill="#766178"/>
<path d="M76.1957 94.2734C71.9711 94.2734 68.9496 91.9766 68.8676 88.6406H72.4496C72.5453 90.2266 74.1313 91.2793 76.1957 91.2656C78.3695 91.2793 79.9418 90.0762 79.9418 88.3125C79.9418 86.5352 78.4105 85.2637 75.8402 85.25H74.0629V82.5156H75.8402C77.9457 82.5156 79.4086 81.3398 79.3949 79.6172C79.4086 77.9492 78.1508 76.8281 76.223 76.8281C74.3637 76.8281 72.7641 77.8672 72.6957 79.5352H69.2777C69.3598 76.2129 72.3813 73.9297 76.2504 73.9297C80.2699 73.9297 82.8676 76.3906 82.8402 79.4258C82.8676 81.6406 81.391 83.2402 79.2309 83.6914V83.8555C82.0199 84.2246 83.6059 86.0156 83.5785 88.5039C83.6059 91.8535 80.475 94.2734 76.1957 94.2734ZM86.1871 94V74.2031H93.6246C98.1637 74.2031 100.584 76.9648 100.597 80.7656C100.584 84.5527 98.1363 87.3008 93.5699 87.3008H89.7418V94H86.1871ZM89.7418 84.375H93.0777C95.7574 84.3613 96.9605 82.8574 96.9605 80.7656C96.9605 78.6465 95.7574 77.1836 93.0777 77.1836H89.7418V84.375Z" fill="#E6ECEF"/>
</svg>
