<svg width="154" height="155" viewBox="0 0 154 155" fill="none" xmlns="http://www.w3.org/2000/svg">
<rect y="0.666687" width="154" height="154" rx="77" fill="#766178"/>
<path d="M77.2375 87.4173C73.3649 87.4173 70.5952 85.3119 70.52 82.2539H73.8035C73.8913 83.7077 75.3451 84.6727 77.2375 84.6602C79.2301 84.6727 80.6714 83.5698 80.6714 81.9531C80.6714 80.3239 79.2677 79.1584 76.9116 79.1459H75.2824V76.6393H76.9116C78.8416 76.6393 80.1826 75.5615 80.1701 73.9824C80.1826 72.4535 79.0296 71.4258 77.2625 71.4258C75.5581 71.4258 74.0918 72.3783 74.0291 73.9072H70.896C70.9712 70.8618 73.7409 68.7689 77.2876 68.7689C80.9722 68.7689 83.3534 71.0248 83.3283 73.807C83.3534 75.8373 81.9998 77.3036 80.0197 77.7171V77.8675C82.5763 78.2059 84.0301 79.8477 84.005 82.1286C84.0301 85.1991 81.1602 87.4173 77.2375 87.4173Z" fill="#E6ECEF"/>
</svg>
