<svg width="264" height="336" viewBox="0 0 264 336" fill="none" xmlns="http://www.w3.org/2000/svg">
<g clip-path="url(#clip0_1545_6305)">
<rect width="264" height="264" fill="#766178"/>
<path d="M20.3199 256.749C20.3199 261.743 20.1131 266.581 21.2235 271.417C21.2899 271.707 21.3907 271.988 21.5565 272.234C22.2066 273.198 23.6776 274.796 24.2729 275.283C26.6509 277.228 30.9496 277.191 33.7823 277.222C36.6519 277.253 39.4143 277.893 42.3035 277.893C51.6139 277.893 60.8336 276.375 70.0301 275.04C75.929 274.184 82.0043 273.018 87.9675 272.877C93.94 272.737 99.9308 272.859 105.905 272.859C115.901 272.859 125.899 273.438 135.888 273.791C148.156 274.224 160.432 273.979 172.695 274.462C183.034 274.87 193.34 274.939 203.684 275.544C216.844 276.313 229.925 276.551 243.102 276.551C243.751 276.551 250.225 277.164 250.225 276.029C250.225 273.434 250.141 270.895 249.703 268.328C248.76 262.808 246.148 256.462 241.909 252.646C240.907 251.745 239.634 251.169 238.403 250.633C234.871 249.094 231.839 246.493 228.334 245.002C225.783 243.916 223.645 242.232 221.025 241.31C218.751 240.51 216.188 239.291 214.182 237.953C209.176 234.616 205.143 230.173 199.881 227.213C197.764 226.023 195.956 224.639 193.671 223.708C191.607 222.867 190.082 221.5 188.134 220.501C184.588 218.682 181.357 215.974 177.655 214.46C174.658 213.234 171.582 212.012 168.816 210.432C167.672 209.778 165.974 209.939 165.05 209.015C164.546 208.512 163.968 208.66 163.968 207.747V204.577C163.968 203.376 166.032 202.713 167.157 202.713H167.194C168.201 202.713 171.016 202.713 171.688 202.041C173.061 200.668 173.084 197.786 174.373 196.336C174.834 195.817 175.34 193.678 175.38 192.979C175.471 191.386 175.795 189.692 176.051 188.094C177.053 181.83 178.111 175.65 179.575 169.467C179.986 167.732 180.244 166.026 180.489 164.265C180.687 162.838 181.432 161.635 181.738 160.256C182.244 157.98 182.991 155.671 183.36 153.375C184.07 148.957 184.442 144.234 184.442 139.764C184.442 136.213 185.219 131.458 184.255 128.017C182.965 123.409 181.664 118.902 179.929 114.443C178.264 110.161 176.301 105.914 174.858 101.502C171.768 92.0606 168 80.7042 159.605 74.6707C155.66 71.835 151.323 69.3633 146.87 67.4547C142.615 65.6311 137.542 62.2141 132.755 62.0847C128.925 61.9812 124.076 61.3131 120.318 62.2525C113.663 63.9164 107.033 65.7707 100.386 67.4547C95.427 68.7109 90.7231 70.0924 86.0283 72.1535L86.0061 72.1633C83.5412 73.2454 81.1311 74.3035 79.3903 76.4421C76.5379 79.9466 74.5781 83.9374 72.0065 87.611C70.7872 89.3529 70.3192 91.5838 68.9859 93.2981C67.5641 95.126 66.4672 97.7546 65.4618 99.8428C63.643 103.62 62.7958 106.646 62.1988 110.751C61.8507 113.144 61.9252 115.599 61.5275 117.985C61.2181 119.842 60.4443 121.672 59.9985 123.505C58.899 128.025 59.1255 132.995 58.5814 137.62C58.2877 140.116 57.5746 142.426 57.5746 144.966C57.5746 146.655 58.0787 148.347 58.2645 150.019C58.4433 151.628 59.4335 153.237 60.0731 154.699C60.5556 155.802 60.6486 157.131 61.2665 158.149C62.4149 160.04 62.8239 162.166 63.6904 164.115C64.4651 165.858 65.0329 168.375 65.0329 170.264C65.0329 172.589 64.6948 174.286 65.0329 176.146C65.278 177.494 66.0919 178.304 66.9908 179.427C68.4431 181.243 68.0861 184.47 70.1606 186.065C72.2872 187.701 72.7878 190.445 74.617 192.274C75.8716 193.529 77.042 193.93 78.8123 194.717C79.5191 195.031 80.4217 194.89 81.1617 195.202C81.8577 195.495 84.8244 196 85.5995 196C87.4695 196 89.4401 197.537 90.9508 198.499C92.5213 199.498 92.8154 199.808 92.8154 201.706C92.8154 203.711 91.5031 204.193 90.5406 205.733C89.466 207.453 87.5371 209.296 86.0843 210.749C82.3678 214.465 77.018 216.706 74.617 221.508C73.0047 224.732 70.6949 226.925 67.1586 227.568C64.5416 228.043 61.8971 228.906 59.2713 229.563C57.8119 229.928 56.2772 230.505 54.8895 231.073C53.1345 231.791 51.2084 231.903 49.5941 232.919C48.5544 233.574 46.9913 233.696 45.8276 234.262C44.3717 234.969 42.7998 235.581 41.278 236.126C39.1345 236.895 36.9872 238.637 34.9757 239.743C32.5034 241.103 30.2245 242.426 27.8715 243.995C25.4841 245.586 23.4255 246.202 22.1659 248.861C20.9787 251.368 20.3199 253.983 20.3199 256.749Z" fill="#E6ECEF"/>
</g>
<rect width="264" height="64" transform="translate(0 272)" fill="#766178"/>
<path d="M30.9703 294.859V296.477C30.982 298.047 30.982 299.875 30.5133 302.242H33.3375V304.352H24.9234V307.656H31.0172V315.086H28.4156V309.742H15.9469V307.656H22.3219V304.352H13.9781V302.242H27.9C28.3219 300.062 28.3688 298.41 28.3688 296.945H16.3688V294.859H30.9703ZM50.7141 293.898V302.172H53.8547V304.352H50.7141V315.039H48.1125V293.898H50.7141ZM34.0031 309.25C39.1594 306.672 41.9484 303.086 42.4641 298.258H35.1516V296.102H45.1125C45.1008 302.324 42.5227 307.797 35.4797 311.266L34.0031 309.25ZM77.0063 293.922V309.227H74.3813V293.922H77.0063ZM59.7328 300.602C59.7328 297.52 62.2289 295.316 65.4516 295.305C68.6742 295.316 71.1586 297.52 71.1469 300.602C71.1586 303.73 68.6742 305.922 65.4516 305.922C62.2289 305.922 59.7328 303.73 59.7328 300.602ZM62.2875 300.602C62.2758 302.477 63.6352 303.648 65.4516 303.648C67.2211 303.648 68.5922 302.477 68.5922 300.602C68.5922 298.773 67.2211 297.578 65.4516 297.578C63.6352 297.578 62.2758 298.773 62.2875 300.602ZM62.9906 314.664V307.68H65.6156V312.555H77.5922V314.664H62.9906ZM89.0391 307.141C93.6445 307.152 96.5508 308.605 96.5625 311.125C96.5508 313.586 93.6445 315.062 89.0391 315.062C84.4805 315.062 81.5391 313.586 81.5391 311.125C81.5391 308.605 84.4805 307.152 89.0391 307.141ZM79.5469 305.617V303.508H87V299.664H89.5781V303.508H98.7656V305.617H79.5469ZM81.75 296.969V294.906H96.4219V296.664C96.4336 298.34 96.4336 300.121 95.8359 302.289L93.2578 302.055C93.7852 300.004 93.8203 298.504 93.8203 296.969H81.75ZM84.1641 311.125C84.1406 312.367 85.9805 313.047 89.0391 313.047C92.1094 313.047 93.9609 312.367 93.9844 311.125C93.9609 309.836 92.1094 309.109 89.0391 309.109C85.9805 309.109 84.1406 309.836 84.1641 311.125ZM107.634 299.922C107.634 303.391 109.673 307.047 113.095 308.477L111.666 310.539C109.158 309.449 107.33 307.234 106.357 304.539C105.384 307.445 103.521 309.883 101.048 311.055L99.5484 309.016C102.888 307.469 104.974 303.52 104.986 299.922V298.141H100.322V295.984H112.275V298.141H107.634V299.922ZM114.642 315.086V293.898H117.267V315.086H114.642ZM136.917 299.406V301.516H122.292V294.273H124.894V299.406H136.917ZM119.784 305.664V303.555H139.12V305.664H119.784ZM122.034 311.102C122.034 308.605 124.812 307.199 129.417 307.188C133.988 307.199 136.741 308.605 136.753 311.102C136.741 313.586 133.988 314.992 129.417 314.992C124.812 314.992 122.034 313.586 122.034 311.102ZM124.683 311.102C124.671 312.32 126.335 312.988 129.417 313C132.452 312.988 134.128 312.32 134.152 311.102C134.128 309.848 132.452 309.238 129.417 309.227C126.335 309.238 124.671 309.848 124.683 311.102ZM151.936 294.836C155.159 294.824 157.491 296.629 157.491 299.289C157.491 301.902 155.159 303.73 151.936 303.719C148.748 303.73 146.428 301.902 146.428 299.289C146.428 296.629 148.748 294.824 151.936 294.836ZM145.045 305.172C148.866 305.172 154.221 305.102 158.78 304.422L158.967 306.344C157.139 306.695 155.241 306.918 153.389 307.059V314.43H150.764V307.211C148.807 307.293 146.967 307.316 145.373 307.328L145.045 305.172ZM148.959 299.289C148.948 300.707 150.202 301.598 151.936 301.586C153.741 301.598 155.006 300.707 155.006 299.289C155.006 297.824 153.741 296.922 151.936 296.945C150.202 296.922 148.948 297.824 148.959 299.289ZM160.163 315.062V293.922H162.741V315.062H160.163ZM182.93 293.922V309.953H180.305V308.102H176.156V306.273H180.305V293.922H182.93ZM165.07 303.438C168.973 303.414 174.234 303.379 178.734 302.805L178.875 304.68C177.129 304.973 175.324 305.16 173.531 305.289V309.367H170.93V305.43C168.949 305.512 167.062 305.523 165.398 305.523L165.07 303.438ZM166.688 298.445C166.688 296.207 168.844 294.684 171.984 294.695C175.066 294.684 177.234 296.207 177.258 298.445C177.234 300.719 175.066 302.16 171.984 302.172C168.844 302.16 166.688 300.719 166.688 298.445ZM167.883 314.664V308.406H170.484V312.555H183.422V314.664H167.883ZM169.148 298.445C169.148 299.594 170.285 300.262 171.984 300.273C173.602 300.262 174.762 299.594 174.773 298.445C174.762 297.297 173.602 296.605 171.984 296.617C170.285 296.605 169.148 297.297 169.148 298.445ZM202.955 293.898V315.086H200.353V293.898H202.955ZM185.4 309.203C187.087 309.191 188.998 309.191 191.002 309.133V307.188C188.623 306.812 187.064 305.359 187.064 303.344C187.064 300.953 189.185 299.371 192.267 299.359C195.384 299.371 197.541 300.953 197.541 303.344C197.541 305.348 195.982 306.789 193.603 307.176V309.039C195.466 308.957 197.341 308.805 199.111 308.57L199.298 310.516C194.646 311.301 189.584 311.359 185.775 311.359L185.4 309.203ZM185.845 298.398V296.336H191.002V293.969H193.603V296.336H198.736V298.398H185.845ZM189.548 303.344C189.525 304.562 190.662 305.277 192.267 305.266C193.92 305.277 195.045 304.562 195.033 303.344C195.045 302.113 193.92 301.363 192.267 301.352C190.662 301.363 189.525 302.113 189.548 303.344ZM228.778 293.898V315.086H226.294V304.281H223.903V314.008H221.513V294.297H223.903V302.195H226.294V293.898H228.778ZM211.2 310.141V296.406H219.122V298.516H213.825V307.938C216.122 307.914 218.02 307.797 220.177 307.398L220.364 309.531C217.798 310.047 215.583 310.117 212.63 310.141H211.2ZM250.045 310.539V312.648H230.686V310.539H235.702V306.18H232.35V304.07H235.327V297.789H232.28V295.703H248.358V297.789H245.264V304.07H248.288V306.18H244.936V310.539H250.045ZM237.928 304.07H242.686V297.789H237.928V304.07ZM238.303 310.539H242.334V306.18H238.303V310.539Z" fill="#E6ECEF"/>
<defs>
<clipPath id="clip0_1545_6305">
<rect width="264" height="264" fill="white"/>
</clipPath>
</defs>
</svg>
