<svg width="264" height="336" viewBox="0 0 264 336" fill="none" xmlns="http://www.w3.org/2000/svg">
<g clip-path="url(#clip0_2103_13028)">
<rect width="264" height="264" fill="#766178"/>
<path d="M20.3219 256.745C20.3219 261.74 20.1151 266.577 21.2255 271.414C21.2918 271.703 21.3926 271.984 21.5585 272.23C22.2085 273.194 23.6796 274.792 24.2748 275.279C26.6529 277.224 30.9516 277.188 33.7843 277.218C36.6539 277.249 39.4162 277.889 42.3055 277.889C51.6158 277.889 60.8356 276.371 70.032 275.036C75.931 274.18 82.0063 273.014 87.9694 272.873C93.9419 272.733 99.9328 272.855 105.907 272.855C115.903 272.855 125.901 273.435 135.89 273.787C148.158 274.22 160.434 273.975 172.697 274.458C183.036 274.866 193.342 274.935 203.686 275.54C216.846 276.309 229.927 276.547 243.104 276.547C243.753 276.547 250.227 277.16 250.227 276.025C250.227 273.43 250.143 270.891 249.705 268.324C248.762 262.804 246.15 256.458 241.911 252.643C240.909 251.741 239.636 251.165 238.405 250.629C234.873 249.091 231.841 246.489 228.336 244.998C225.785 243.912 223.647 242.228 221.027 241.306C218.753 240.506 216.19 239.287 214.184 237.95C209.178 234.612 205.145 230.17 199.883 227.209C197.766 226.019 195.958 224.635 193.673 223.704C191.609 222.863 190.084 221.496 188.136 220.497C184.59 218.679 181.359 215.97 177.657 214.456C174.66 213.23 171.584 212.008 168.818 210.428C167.673 209.774 165.976 209.935 165.052 209.011C164.548 208.508 163.97 208.656 163.97 207.743V204.573C163.97 203.372 166.034 202.709 167.159 202.709H167.196C168.203 202.709 171.018 202.709 171.69 202.037C173.063 200.664 173.086 197.782 174.375 196.332C174.836 195.813 175.342 193.674 175.382 192.975C175.473 191.382 175.797 189.688 176.053 188.09C177.055 181.826 178.113 175.646 179.577 169.463C179.988 167.728 180.246 166.022 180.491 164.261C180.689 162.834 181.433 161.631 181.74 160.252C182.246 157.976 182.993 155.667 183.362 153.371C184.072 148.953 184.444 144.23 184.444 139.76C184.444 136.209 185.221 131.454 184.257 128.013C182.967 123.405 181.666 118.899 179.931 114.439C178.266 110.157 176.303 105.91 174.86 101.498C171.77 92.0567 168.002 80.7003 159.607 74.6668C155.662 71.8311 151.325 69.3594 146.872 67.4508C142.617 65.6272 137.544 62.2102 132.757 62.0808C128.927 61.9773 124.078 61.3092 120.32 62.2486C113.665 63.9125 107.035 65.7668 100.388 67.4508C95.429 68.707 90.725 70.0885 86.0303 72.1496L86.0081 72.1594C83.5432 73.2415 81.133 74.2996 79.3923 76.4382C76.5398 79.9427 74.58 83.9335 72.0085 87.6071C70.7892 89.349 70.3211 91.5799 68.9879 93.2942C67.5661 95.1221 66.4692 97.7507 65.4638 99.8389C63.6449 103.616 62.7978 106.642 62.2007 110.747C61.8526 113.14 61.9271 115.595 61.5295 117.981C61.22 119.838 60.4463 121.668 60.0005 123.501C58.9009 128.021 59.1275 132.991 58.5834 137.616C58.2896 140.112 57.5765 142.422 57.5765 144.962C57.5765 146.651 58.0807 148.344 58.2664 150.015C58.4452 151.624 59.4354 153.233 60.0751 154.695C60.5575 155.798 60.6505 157.127 61.2684 158.145C62.4169 160.036 62.8259 162.162 63.6924 164.112C64.467 165.854 65.0349 168.371 65.0349 170.26C65.0349 172.585 64.6968 174.282 65.0349 176.142C65.28 177.49 66.0938 178.3 66.9927 179.423C68.4451 181.239 68.088 184.466 70.1625 186.061C72.2891 187.697 72.7898 190.441 74.6189 192.271C75.8736 193.525 77.044 193.926 78.8143 194.713C79.521 195.027 80.4236 194.886 81.1637 195.198C81.8597 195.491 84.8263 195.996 85.6014 195.996C87.4715 195.996 89.4421 197.533 90.9528 198.495C92.5233 199.494 92.8174 199.804 92.8174 201.702C92.8174 203.707 91.505 204.189 90.5426 205.729C89.4679 207.449 87.539 209.292 86.0862 210.745C82.3698 214.462 77.0199 216.702 74.6189 221.504C73.0066 224.728 70.6969 226.921 67.1605 227.564C64.5435 228.04 61.899 228.902 59.2733 229.559C57.8138 229.924 56.2791 230.502 54.8915 231.069C53.1365 231.787 51.2103 231.899 49.596 232.915C48.5564 233.57 46.9933 233.692 45.8296 234.258C44.3737 234.965 42.8018 235.577 41.2799 236.122C39.1365 236.891 36.9892 238.633 34.9776 239.74C32.5054 241.099 30.2265 242.422 27.8735 243.991C25.4861 245.582 23.4274 246.198 22.1678 248.857C20.9807 251.364 20.3219 253.979 20.3219 256.745Z" fill="#E6ECEF"/>
</g>
<rect width="264" height="64" transform="translate(0 272)" fill="#766178"/>
<path d="M59.1055 294.789V296.195C59.1172 297.578 59.1172 299.336 58.6719 301.539H61.4727V303.602H42.1133V301.539H56.0469C56.4336 299.605 56.4922 298.105 56.5039 296.852H44.5039V294.789H59.1055ZM44.3398 307.328V305.289H59.082V311.031H46.9648V312.836H59.6211V314.875H44.3633V309.039H56.4805V307.328H44.3398ZM81.6148 310.469V312.625H62.2555V310.469H70.5992V307.023H64.5523V300.086H76.7398V297.461H64.5055V295.352H79.318V302.148H67.1539V304.891H79.8102V307.023H73.1773V310.469H81.6148ZM100.14 293.898V304.797H97.5383V300.461H93.2727V304.117H83.3586V294.836H85.9602V297.461H90.6945V294.836H93.2727V298.328H97.5383V293.898H100.14ZM85.9602 302.055H90.6945V299.5H85.9602V302.055ZM86.1711 307.727V305.664H100.14V311.125H88.7961V312.766H100.82V314.828H86.1945V309.227H97.5383V307.727H86.1711ZM122.448 296.031V313H119.729L111.69 301.398H111.549V313H108.502V296.031H111.268L119.26 307.633H119.424V296.031H122.448ZM136.355 301.445C135.805 299.641 134.41 298.539 132.348 298.539C129.617 298.539 127.625 300.672 127.637 304.492C127.625 308.348 129.582 310.492 132.418 310.492C134.984 310.492 136.613 308.945 136.66 306.531H132.723V304.117H139.613V306.156C139.613 310.527 136.613 313.234 132.418 313.234C127.73 313.234 124.555 309.895 124.566 304.516C124.555 299.066 127.883 295.797 132.324 295.797C136.062 295.797 138.957 298.117 139.473 301.445H136.355ZM156.92 304.516C156.931 310 153.58 313.234 149.138 313.234C144.673 313.234 141.345 309.988 141.357 304.516C141.345 299.031 144.673 295.797 149.138 295.797C153.58 295.797 156.931 299.031 156.92 304.516ZM144.427 304.516C144.416 308.395 146.373 310.492 149.138 310.492C151.916 310.492 153.861 308.395 153.849 304.516C153.861 300.637 151.916 298.539 149.138 298.539C146.373 298.539 144.416 300.637 144.427 304.516ZM180.048 293.898V299.055H182.907V301.234H180.048V306.367H177.446V293.898H180.048ZM163.079 304.234C164.673 304.234 166.512 304.234 168.423 304.188V303.121C166.044 302.875 164.567 301.902 164.579 300.344C164.567 298.633 166.583 297.625 169.688 297.625C172.794 297.625 174.798 298.633 174.798 300.344C174.798 301.879 173.356 302.863 171.024 303.109V304.094C172.829 304 174.645 303.859 176.345 303.625L176.555 305.266C172.02 306.027 167.052 306.062 163.36 306.062L163.079 304.234ZM163.618 297.109V295.328H168.423V293.734H171.024V295.328H175.782V297.109H163.618ZM165.891 308.969V307.211H180.048V311.781H168.54V313.141H180.798V314.898H165.938V310.164H177.446V308.969H165.891ZM167.087 300.344C167.063 301.105 168.048 301.516 169.688 301.516C171.329 301.516 172.313 301.105 172.313 300.344C172.313 299.641 171.329 299.277 169.688 299.266C168.048 299.277 167.063 299.641 167.087 300.344ZM202.745 304.047V306.133H183.409V304.047H191.799V302.031H185.776V294.859H200.401V296.898H188.377V299.969H200.518V302.031H194.354V304.047H202.745ZM185.659 311.219C185.659 308.734 188.436 307.34 193.041 307.352C197.612 307.34 200.366 308.734 200.377 311.219C200.366 313.68 197.612 315.074 193.041 315.086C188.436 315.074 185.659 313.68 185.659 311.219ZM188.307 311.219C188.295 312.449 189.959 313.082 193.041 313.07C196.077 313.082 197.752 312.449 197.776 311.219C197.752 310 196.077 309.344 193.041 309.344C189.959 309.344 188.295 310 188.307 311.219ZM220.145 293.898V302.172H223.285V304.352H220.145V315.039H217.543V293.898H220.145ZM203.434 309.25C208.59 306.672 211.379 303.086 211.895 298.258H204.582V296.102H214.543C214.531 302.324 211.953 307.797 204.91 311.266L203.434 309.25Z" fill="#E6ECEF"/>
<defs>
<clipPath id="clip0_2103_13028">
<rect width="264" height="264" fill="white"/>
</clipPath>
</defs>
</svg>
