<svg width="264" height="336" viewBox="0 0 264 336" fill="none" xmlns="http://www.w3.org/2000/svg">
<g clip-path="url(#clip0_428_3783)">
<rect width="264" height="264" fill="#766178"/>
<path d="M20.3199 256.746C20.3199 261.741 20.1131 266.579 21.2235 271.415C21.2899 271.704 21.3907 271.986 21.5565 272.232C22.2066 273.196 23.6776 274.793 24.2729 275.281C26.6509 277.226 30.9496 277.189 33.7823 277.22C36.6519 277.251 39.4143 277.891 42.3035 277.891C51.6139 277.891 60.8336 276.373 70.0301 275.038C75.929 274.182 82.0043 273.015 87.9675 272.875C93.94 272.735 99.9308 272.857 105.905 272.857C115.901 272.857 125.899 273.436 135.888 273.789C148.156 274.222 160.432 273.977 172.695 274.46C183.034 274.868 193.34 274.937 203.684 275.542C216.844 276.311 229.925 276.548 243.102 276.548C243.751 276.548 250.225 277.162 250.225 276.026C250.225 273.431 250.141 270.893 249.703 268.326C248.76 262.806 246.148 256.46 241.909 252.644C240.907 251.743 239.634 251.167 238.403 250.631C234.871 249.092 231.839 246.491 228.334 244.999C225.783 243.914 223.645 242.229 221.025 241.308C218.751 240.508 216.188 239.288 214.182 237.951C209.176 234.614 205.143 230.171 199.881 227.211C197.764 226.021 195.956 224.636 193.671 223.706C191.607 222.865 190.082 221.498 188.134 220.499C184.588 218.68 181.357 215.972 177.655 214.457C174.658 213.231 171.582 212.01 168.816 210.43C167.672 209.776 165.974 209.936 165.05 209.013C164.546 208.509 163.968 208.658 163.968 207.745V204.575C163.968 203.374 166.032 202.71 167.157 202.71H167.194C168.201 202.711 171.016 202.711 171.688 202.039C173.061 200.666 173.084 197.784 174.373 196.333C174.834 195.815 175.34 193.676 175.38 192.977C175.471 191.383 175.795 189.69 176.051 188.092C177.053 181.828 178.111 175.648 179.575 169.465C179.986 167.729 180.244 166.023 180.489 164.262C180.687 162.836 181.432 161.633 181.738 160.254C182.244 157.978 182.991 155.668 183.36 153.373C184.07 148.955 184.442 144.232 184.442 139.762C184.442 136.21 185.219 131.455 184.255 128.015C182.965 123.407 181.664 118.9 179.929 114.44C178.264 110.158 176.301 105.912 174.858 101.5C171.768 92.0584 168 80.702 159.605 74.6685C155.66 71.8328 151.323 69.3611 146.87 67.4525C142.615 65.6289 137.542 62.2119 132.755 62.0825C128.925 61.979 124.076 61.3109 120.318 62.2503C113.663 63.9142 107.033 65.7685 100.386 67.4525C95.427 68.7088 90.7231 70.0902 86.0283 72.1513L86.0061 72.1611C83.5412 73.2432 81.1311 74.3013 79.3903 76.4399C76.5379 79.9444 74.5781 83.9352 72.0065 87.6088C70.7872 89.3507 70.3192 91.5816 68.9859 93.2959C67.5641 95.1238 66.4672 97.7524 65.4618 99.8406C63.643 103.618 62.7958 106.644 62.1988 110.748C61.8507 113.142 61.9252 115.597 61.5275 117.983C61.2181 119.84 60.4443 121.67 59.9985 123.502C58.899 128.023 59.1255 132.993 58.5814 137.617C58.2877 140.114 57.5746 142.423 57.5746 144.964C57.5746 146.653 58.0787 148.345 58.2645 150.017C58.4433 151.626 59.4335 153.235 60.0731 154.697C60.5556 155.8 60.6486 157.129 61.2665 158.147C62.4149 160.038 62.8239 162.164 63.6904 164.113C64.4651 165.856 65.0329 168.373 65.0329 170.261C65.0329 172.587 64.6948 174.284 65.0329 176.143C65.278 177.491 66.0919 178.302 66.9908 179.425C68.4431 181.241 68.0861 184.467 70.1606 186.063C72.2872 187.699 72.7878 190.443 74.617 192.272C75.8716 193.527 77.042 193.928 78.8123 194.715C79.5191 195.029 80.4217 194.888 81.1617 195.2C81.8577 195.493 84.8244 195.998 85.5995 195.998C87.4695 195.998 89.4401 197.535 90.9508 198.496C92.5213 199.496 92.8154 199.805 92.8154 201.704C92.8154 203.709 91.5031 204.191 90.5406 205.731C89.466 207.451 87.5371 209.294 86.0843 210.747C82.3678 214.463 77.018 216.704 74.617 221.506C73.0047 224.73 70.6949 226.923 67.1586 227.565C64.5416 228.041 61.8971 228.904 59.2713 229.561C57.8119 229.925 56.2772 230.503 54.8895 231.071C53.1345 231.789 51.2084 231.9 49.5941 232.917C48.5544 233.571 46.9913 233.694 45.8276 234.259C44.3717 234.967 42.7998 235.578 41.278 236.124C39.1345 236.892 36.9872 238.635 34.9757 239.741C32.5034 241.101 30.2245 242.424 27.8715 243.993C25.4841 245.584 23.4255 246.2 22.1659 248.859C20.9787 251.365 20.3199 253.981 20.3199 256.746Z" fill="#E6ECEF"/>
</g>
<rect width="64" height="64" transform="translate(0 272)" fill="#E6ECEF"/>
<path d="M24.882 313.234C21.2609 313.234 18.6711 311.266 18.6008 308.406H21.6711C21.7531 309.766 23.1125 310.668 24.882 310.656C26.7453 310.668 28.093 309.637 28.093 308.125C28.093 306.602 26.7805 305.512 24.5773 305.5H23.0539V303.156H24.5773C26.382 303.156 27.6359 302.148 27.6242 300.672C27.6359 299.242 26.5578 298.281 24.9055 298.281C23.3117 298.281 21.9406 299.172 21.882 300.602H18.9523C19.0227 297.754 21.6125 295.797 24.9289 295.797C28.3742 295.797 30.6008 297.906 30.5773 300.508C30.6008 302.406 29.3352 303.777 27.4836 304.164V304.305C29.8742 304.621 31.2336 306.156 31.2102 308.289C31.2336 311.16 28.55 313.234 24.882 313.234ZM33.4461 313V296.031H39.8211C43.7117 296.031 45.7859 298.398 45.7977 301.656C45.7859 304.902 43.6883 307.258 39.7742 307.258H36.493V313H33.4461ZM36.493 304.75H39.3523C41.6492 304.738 42.6805 303.449 42.6805 301.656C42.6805 299.84 41.6492 298.586 39.3523 298.586H36.493V304.75Z" fill="#766178"/>
<rect width="200" height="64" transform="translate(64 272)" fill="#766178"/>
<path d="M143.673 299.922C143.662 303.191 145.63 306.918 148.97 308.477L147.517 310.539C145.127 309.414 143.357 307.141 142.408 304.492C141.447 307.398 139.595 309.883 137.158 311.055L135.634 309.016C139.009 307.41 141.06 303.449 141.072 299.922V298.141H136.455V295.984H148.103V298.141H143.673V299.922ZM150.072 315.086V293.898H152.673V302.148H155.931V304.328H152.673V315.086H150.072ZM174.011 293.898V315.109H171.409V305.383H165.456V303.273H171.409V300.625H165.456V298.516H171.409V293.898H174.011ZM157.347 310.422V296.172H159.948V308.242C163.077 308.207 165.491 308.066 168.175 307.539L168.409 309.695C165.409 310.27 162.726 310.422 159.058 310.422H157.347ZM189.03 296.031H192.053V307.961C192.053 311.242 189.862 313.234 186.592 313.234C183.616 313.234 181.33 311.617 181.342 308.5H184.389C184.401 309.883 185.338 310.715 186.709 310.727C188.186 310.715 189.018 309.766 189.03 307.961V296.031Z" fill="#E6ECEF"/>
<defs>
<clipPath id="clip0_428_3783">
<rect width="264" height="264" fill="white"/>
</clipPath>
</defs>
</svg>
