<svg width="264" height="336" viewBox="0 0 264 336" fill="none" xmlns="http://www.w3.org/2000/svg">
<g clip-path="url(#clip0_1444_19349)">
<rect width="264" height="264" fill="#766178"/>
<path d="M20.3199 256.745C20.3199 261.74 20.1131 266.577 21.2235 271.414C21.2899 271.703 21.3907 271.984 21.5565 272.23C22.2066 273.194 23.6776 274.792 24.2729 275.279C26.6509 277.224 30.9496 277.188 33.7823 277.218C36.6519 277.249 39.4143 277.889 42.3035 277.889C51.6139 277.889 60.8336 276.371 70.0301 275.036C75.929 274.18 82.0043 273.014 87.9675 272.873C93.94 272.733 99.9308 272.855 105.905 272.855C115.901 272.855 125.899 273.435 135.888 273.787C148.156 274.22 160.432 273.975 172.695 274.458C183.034 274.866 193.34 274.935 203.684 275.54C216.844 276.309 229.925 276.547 243.102 276.547C243.751 276.547 250.225 277.16 250.225 276.025C250.225 273.43 250.141 270.891 249.703 268.324C248.76 262.804 246.148 256.458 241.909 252.643C240.907 251.741 239.634 251.165 238.403 250.629C234.871 249.091 231.839 246.489 228.334 244.998C225.783 243.912 223.645 242.228 221.025 241.306C218.751 240.506 216.188 239.287 214.182 237.95C209.176 234.612 205.143 230.17 199.881 227.209C197.764 226.019 195.956 224.635 193.671 223.704C191.607 222.863 190.082 221.496 188.134 220.497C184.588 218.679 181.357 215.97 177.655 214.456C174.658 213.23 171.582 212.008 168.816 210.428C167.672 209.774 165.974 209.935 165.05 209.011C164.546 208.508 163.968 208.656 163.968 207.743V204.573C163.968 203.372 166.032 202.709 167.157 202.709H167.194C168.201 202.709 171.016 202.709 171.688 202.037C173.061 200.664 173.084 197.782 174.373 196.332C174.834 195.813 175.34 193.674 175.38 192.975C175.471 191.382 175.795 189.688 176.051 188.09C177.053 181.826 178.111 175.646 179.575 169.463C179.986 167.728 180.244 166.022 180.489 164.261C180.687 162.834 181.432 161.631 181.738 160.252C182.244 157.976 182.991 155.667 183.36 153.371C184.07 148.953 184.442 144.23 184.442 139.76C184.442 136.209 185.219 131.454 184.255 128.013C182.965 123.405 181.664 118.899 179.929 114.439C178.264 110.157 176.301 105.91 174.858 101.498C171.768 92.0567 168 80.7003 159.605 74.6668C155.66 71.8311 151.323 69.3594 146.87 67.4508C142.615 65.6272 137.542 62.2102 132.755 62.0808C128.925 61.9773 124.076 61.3092 120.318 62.2486C113.663 63.9125 107.033 65.7668 100.386 67.4508C95.427 68.707 90.7231 70.0885 86.0283 72.1496L86.0061 72.1594C83.5412 73.2415 81.1311 74.2996 79.3903 76.4382C76.5379 79.9427 74.5781 83.9335 72.0065 87.6071C70.7872 89.349 70.3192 91.5799 68.9859 93.2942C67.5641 95.1221 66.4672 97.7507 65.4618 99.8389C63.643 103.616 62.7958 106.642 62.1988 110.747C61.8507 113.14 61.9252 115.595 61.5275 117.981C61.2181 119.838 60.4443 121.668 59.9985 123.501C58.899 128.021 59.1255 132.991 58.5814 137.616C58.2877 140.112 57.5746 142.422 57.5746 144.962C57.5746 146.651 58.0787 148.344 58.2645 150.015C58.4433 151.624 59.4335 153.233 60.0731 154.695C60.5556 155.798 60.6486 157.127 61.2665 158.145C62.4149 160.036 62.8239 162.162 63.6904 164.112C64.4651 165.854 65.0329 168.371 65.0329 170.26C65.0329 172.585 64.6948 174.282 65.0329 176.142C65.278 177.49 66.0919 178.3 66.9908 179.423C68.4431 181.239 68.0861 184.466 70.1606 186.061C72.2872 187.697 72.7878 190.441 74.617 192.271C75.8716 193.525 77.042 193.926 78.8123 194.713C79.5191 195.027 80.4217 194.886 81.1617 195.198C81.8577 195.491 84.8244 195.996 85.5995 195.996C87.4695 195.996 89.4401 197.533 90.9508 198.495C92.5213 199.494 92.8154 199.804 92.8154 201.702C92.8154 203.707 91.5031 204.189 90.5406 205.729C89.466 207.449 87.5371 209.292 86.0843 210.745C82.3678 214.462 77.018 216.702 74.617 221.504C73.0047 224.728 70.6949 226.921 67.1586 227.564C64.5416 228.04 61.8971 228.902 59.2713 229.559C57.8119 229.924 56.2772 230.502 54.8895 231.069C53.1345 231.787 51.2084 231.899 49.5941 232.915C48.5544 233.57 46.9913 233.692 45.8276 234.258C44.3717 234.965 42.7998 235.577 41.278 236.122C39.1345 236.891 36.9872 238.633 34.9757 239.74C32.5034 241.099 30.2245 242.422 27.8715 243.991C25.4841 245.582 23.4255 246.198 22.1659 248.857C20.9787 251.364 20.3199 253.979 20.3199 256.745Z" fill="#E6ECEF"/>
<rect width="64" height="64" fill="#E6ECEF"/>
<path d="M24.882 41.2344C21.2609 41.2344 18.6711 39.2656 18.6008 36.4062H21.6711C21.7531 37.7656 23.1125 38.668 24.882 38.6562C26.7453 38.668 28.093 37.6367 28.093 36.125C28.093 34.6016 26.7805 33.5117 24.5773 33.5H23.0539V31.1562H24.5773C26.382 31.1562 27.6359 30.1484 27.6242 28.6719C27.6359 27.2422 26.5578 26.2812 24.9055 26.2812C23.3117 26.2812 21.9406 27.1719 21.882 28.6016H18.9523C19.0227 25.7539 21.6125 23.7969 24.9289 23.7969C28.3742 23.7969 30.6008 25.9062 30.5773 28.5078C30.6008 30.4062 29.3352 31.7773 27.4836 32.1641V32.3047C29.8742 32.6211 31.2336 34.1562 31.2102 36.2891C31.2336 39.1602 28.55 41.2344 24.882 41.2344ZM33.4461 41V24.0312H39.8211C43.7117 24.0312 45.7859 26.3984 45.7977 29.6562C45.7859 32.9023 43.6883 35.2578 39.7742 35.2578H36.493V41H33.4461ZM36.493 32.75H39.3523C41.6492 32.7383 42.6805 31.4492 42.6805 29.6562C42.6805 27.8398 41.6492 26.5859 39.3523 26.5859H36.493V32.75Z" fill="#766178"/>
</g>
<rect width="264" height="64" transform="translate(0 272)" fill="#766178"/>
<path d="M111.673 299.922C111.662 303.191 113.63 306.918 116.97 308.477L115.517 310.539C113.127 309.414 111.357 307.141 110.408 304.492C109.447 307.398 107.595 309.883 105.158 311.055L103.634 309.016C107.009 307.41 109.06 303.449 109.072 299.922V298.141H104.455V295.984H116.103V298.141H111.673V299.922ZM118.072 315.086V293.898H120.673V302.148H123.931V304.328H120.673V315.086H118.072ZM142.011 293.898V315.109H139.409V305.383H133.456V303.273H139.409V300.625H133.456V298.516H139.409V293.898H142.011ZM125.347 310.422V296.172H127.948V308.242C131.077 308.207 133.491 308.066 136.175 307.539L136.409 309.695C133.409 310.27 130.726 310.422 127.058 310.422H125.347ZM157.03 296.031H160.053V307.961C160.053 311.242 157.862 313.234 154.592 313.234C151.616 313.234 149.33 311.617 149.342 308.5H152.389C152.401 309.883 153.338 310.715 154.709 310.727C156.186 310.715 157.018 309.766 157.03 307.961V296.031Z" fill="#E6ECEF"/>
<defs>
<clipPath id="clip0_1444_19349">
<rect width="264" height="264" fill="white"/>
</clipPath>
</defs>
</svg>
