<svg width="264" height="336" viewBox="0 0 264 336" fill="none" xmlns="http://www.w3.org/2000/svg">
<g clip-path="url(#clip0_2103_12971)">
<rect width="264" height="264" fill="#766178"/>
<path d="M20.3219 256.745C20.3219 261.74 20.1151 266.577 21.2255 271.414C21.2918 271.703 21.3926 271.984 21.5585 272.23C22.2085 273.194 23.6796 274.792 24.2748 275.279C26.6529 277.224 30.9516 277.188 33.7843 277.218C36.6539 277.249 39.4162 277.889 42.3055 277.889C51.6158 277.889 60.8356 276.371 70.032 275.036C75.931 274.18 82.0063 273.014 87.9694 272.873C93.9419 272.733 99.9328 272.855 105.907 272.855C115.903 272.855 125.901 273.435 135.89 273.787C148.158 274.22 160.434 273.975 172.697 274.458C183.036 274.866 193.342 274.935 203.686 275.54C216.846 276.309 229.927 276.547 243.104 276.547C243.753 276.547 250.227 277.16 250.227 276.025C250.227 273.43 250.143 270.891 249.705 268.324C248.762 262.804 246.15 256.458 241.911 252.643C240.909 251.741 239.636 251.165 238.405 250.629C234.873 249.091 231.841 246.489 228.336 244.998C225.785 243.912 223.647 242.228 221.027 241.306C218.753 240.506 216.19 239.287 214.184 237.95C209.178 234.612 205.145 230.17 199.883 227.209C197.766 226.019 195.958 224.635 193.673 223.704C191.609 222.863 190.084 221.496 188.136 220.497C184.59 218.679 181.359 215.97 177.657 214.456C174.66 213.23 171.584 212.008 168.818 210.428C167.673 209.774 165.976 209.935 165.052 209.011C164.548 208.508 163.97 208.656 163.97 207.743V204.573C163.97 203.372 166.034 202.709 167.159 202.709H167.196C168.203 202.709 171.018 202.709 171.69 202.037C173.063 200.664 173.086 197.782 174.375 196.332C174.836 195.813 175.342 193.674 175.382 192.975C175.473 191.382 175.797 189.688 176.053 188.09C177.055 181.826 178.113 175.646 179.577 169.463C179.988 167.728 180.246 166.022 180.491 164.261C180.689 162.834 181.433 161.631 181.74 160.252C182.246 157.976 182.993 155.667 183.362 153.371C184.072 148.953 184.444 144.23 184.444 139.76C184.444 136.209 185.221 131.454 184.257 128.013C182.967 123.405 181.666 118.899 179.931 114.439C178.266 110.157 176.303 105.91 174.86 101.498C171.77 92.0567 168.002 80.7003 159.607 74.6668C155.662 71.8311 151.325 69.3594 146.872 67.4508C142.617 65.6272 137.544 62.2102 132.757 62.0808C128.927 61.9773 124.078 61.3092 120.32 62.2486C113.665 63.9125 107.035 65.7668 100.388 67.4508C95.429 68.707 90.725 70.0885 86.0303 72.1496L86.0081 72.1594C83.5432 73.2415 81.133 74.2996 79.3923 76.4382C76.5398 79.9427 74.58 83.9335 72.0085 87.6071C70.7892 89.349 70.3211 91.5799 68.9879 93.2942C67.5661 95.1221 66.4692 97.7507 65.4638 99.8389C63.6449 103.616 62.7978 106.642 62.2007 110.747C61.8526 113.14 61.9271 115.595 61.5295 117.981C61.22 119.838 60.4463 121.668 60.0005 123.501C58.9009 128.021 59.1275 132.991 58.5834 137.616C58.2896 140.112 57.5765 142.422 57.5765 144.962C57.5765 146.651 58.0807 148.344 58.2664 150.015C58.4452 151.624 59.4354 153.233 60.0751 154.695C60.5575 155.798 60.6505 157.127 61.2684 158.145C62.4169 160.036 62.8259 162.162 63.6924 164.112C64.467 165.854 65.0349 168.371 65.0349 170.26C65.0349 172.585 64.6968 174.282 65.0349 176.142C65.28 177.49 66.0938 178.3 66.9927 179.423C68.4451 181.239 68.088 184.466 70.1625 186.061C72.2891 187.697 72.7898 190.441 74.6189 192.271C75.8736 193.525 77.044 193.926 78.8143 194.713C79.521 195.027 80.4236 194.886 81.1637 195.198C81.8597 195.491 84.8263 195.996 85.6014 195.996C87.4715 195.996 89.4421 197.533 90.9528 198.495C92.5233 199.494 92.8174 199.804 92.8174 201.702C92.8174 203.707 91.505 204.189 90.5426 205.729C89.4679 207.449 87.539 209.292 86.0862 210.745C82.3698 214.462 77.0199 216.702 74.6189 221.504C73.0066 224.728 70.6969 226.921 67.1605 227.564C64.5435 228.04 61.899 228.902 59.2733 229.559C57.8138 229.924 56.2791 230.502 54.8915 231.069C53.1365 231.787 51.2103 231.899 49.596 232.915C48.5564 233.57 46.9933 233.692 45.8296 234.258C44.3737 234.965 42.8018 235.577 41.2799 236.122C39.1365 236.891 36.9892 238.633 34.9776 239.74C32.5054 241.099 30.2265 242.422 27.8735 243.991C25.4861 245.582 23.4274 246.198 22.1678 248.857C20.9807 251.364 20.3219 253.979 20.3219 256.745Z" fill="#E6ECEF"/>
</g>
<rect width="264" height="64" transform="translate(0 272)" fill="#766178"/>
<path d="M60.9289 294.93V296.711C60.9406 298.492 60.9406 300.449 60.4602 303.016H63.2961V305.078H55.0227V309.812H52.4211V305.078H43.9367V303.016H57.8C58.2922 300.578 58.3273 298.738 58.3273 297.039H46.3273V294.93H60.9289ZM46.257 314.664V307.891H48.8586V312.555H61.3039V314.664H46.257ZM71.6492 298.984C71.6258 302.77 73.5242 306.59 76.8055 308.172L75.2117 310.258C72.9148 309.098 71.2625 306.859 70.3602 304.164C69.4344 307.047 67.7 309.438 65.2742 310.656L63.6805 308.57C67.0906 306.953 69.0359 302.898 69.0477 298.984V295.609H71.6492V298.984ZM78.0711 315.086V293.898H80.6727V302.195H83.9305V304.422H80.6727V315.086H78.0711ZM92.3398 313H89.082L95.0586 296.031H98.8086L104.809 313H101.551L100.133 308.805H93.7461L92.3398 313ZM94.5664 306.344H99.3125L97.0039 299.5H96.8633L94.5664 306.344ZM109.271 296.031V313H106.224V296.031H109.271ZM125.696 294.367C130.278 294.367 133.29 296.043 133.29 298.703C133.29 301.34 130.278 302.98 125.696 302.992C121.138 302.98 118.091 301.34 118.102 298.703C118.091 296.043 121.138 294.367 125.696 294.367ZM116.063 306.391V304.281H135.399V306.391H130.735V310.375H128.134V306.391H125.345V310.375H122.72V306.391H116.063ZM118.313 314.664V308.547H120.938V312.555H133.454V314.664H118.313ZM120.915 298.703C120.891 300.109 122.79 300.918 125.696 300.93C128.626 300.918 130.513 300.109 130.501 298.703C130.513 297.25 128.626 296.43 125.696 296.43C122.79 296.43 120.891 297.25 120.915 298.703ZM153.854 293.898V315.109H151.276V293.898H153.854ZM137.354 297.859V295.75H147.338V303.695H140.049V307.961C143.389 307.938 146.26 307.762 149.565 307.211L149.799 309.344C146.202 309.965 143.038 310.105 139.229 310.094H137.377V301.633H144.69V297.859H137.354ZM179.185 293.922V309.391H176.584V301.633H172.834V299.523H176.584V293.922H179.185ZM161.396 304.82C164.771 303.707 166.576 300.941 166.576 298.117V297.555H162.17V295.445H173.607V297.555H169.224V298.141C169.224 300.684 170.935 303.32 174.216 304.398L172.904 306.484C170.537 305.676 168.861 304.059 167.935 302.055C167.009 304.281 165.24 306.062 162.732 306.93L161.396 304.82ZM165.287 314.664V308.031H167.888V312.555H179.724V314.664H165.287ZM200.921 304.492V306.578H192.741V310.469H190.163V306.578H181.562V304.492H200.921ZM183.905 314.664V308.523H186.507V312.555H198.788V314.664H183.905ZM184.023 302.523V294.859H198.437V302.523H184.023ZM186.554 300.484H195.859V296.898H186.554V300.484ZM218.321 293.898V302.172H221.462V304.352H218.321V315.039H215.72V293.898H218.321ZM201.61 309.25C206.766 306.672 209.555 303.086 210.071 298.258H202.759V296.102H212.72C212.708 302.324 210.13 307.797 203.087 311.266L201.61 309.25Z" fill="#E6ECEF"/>
<defs>
<clipPath id="clip0_2103_12971">
<rect width="264" height="264" fill="white"/>
</clipPath>
</defs>
</svg>
