<svg width="264" height="336" viewBox="0 0 264 336" fill="none" xmlns="http://www.w3.org/2000/svg">
<g clip-path="url(#clip0_2103_12985)">
<rect width="264" height="264" fill="#766178"/>
<path d="M20.3219 256.745C20.3219 261.74 20.1151 266.577 21.2255 271.414C21.2918 271.703 21.3926 271.984 21.5585 272.23C22.2085 273.194 23.6796 274.792 24.2748 275.279C26.6529 277.224 30.9516 277.188 33.7843 277.218C36.6539 277.249 39.4162 277.889 42.3055 277.889C51.6158 277.889 60.8356 276.371 70.032 275.036C75.931 274.18 82.0063 273.014 87.9694 272.873C93.9419 272.733 99.9328 272.855 105.907 272.855C115.903 272.855 125.901 273.435 135.89 273.787C148.158 274.22 160.434 273.975 172.697 274.458C183.036 274.866 193.342 274.935 203.686 275.54C216.846 276.309 229.927 276.547 243.104 276.547C243.753 276.547 250.227 277.16 250.227 276.025C250.227 273.43 250.143 270.891 249.705 268.324C248.762 262.804 246.15 256.458 241.911 252.643C240.909 251.741 239.636 251.165 238.405 250.629C234.873 249.091 231.841 246.489 228.336 244.998C225.785 243.912 223.647 242.228 221.027 241.306C218.753 240.506 216.19 239.287 214.184 237.95C209.178 234.612 205.145 230.17 199.883 227.209C197.766 226.019 195.958 224.635 193.673 223.704C191.609 222.863 190.084 221.496 188.136 220.497C184.59 218.679 181.359 215.97 177.657 214.456C174.66 213.23 171.584 212.008 168.818 210.428C167.673 209.774 165.976 209.935 165.052 209.011C164.548 208.508 163.97 208.656 163.97 207.743V204.573C163.97 203.372 166.034 202.709 167.159 202.709H167.196C168.203 202.709 171.018 202.709 171.69 202.037C173.063 200.664 173.086 197.782 174.375 196.332C174.836 195.813 175.342 193.674 175.382 192.975C175.473 191.382 175.797 189.688 176.053 188.09C177.055 181.826 178.113 175.646 179.577 169.463C179.988 167.728 180.246 166.022 180.491 164.261C180.689 162.834 181.433 161.631 181.74 160.252C182.246 157.976 182.993 155.667 183.362 153.371C184.072 148.953 184.444 144.23 184.444 139.76C184.444 136.209 185.221 131.454 184.257 128.013C182.967 123.405 181.666 118.899 179.931 114.439C178.266 110.157 176.303 105.91 174.86 101.498C171.77 92.0567 168.002 80.7003 159.607 74.6668C155.662 71.8311 151.325 69.3594 146.872 67.4508C142.617 65.6272 137.544 62.2102 132.757 62.0808C128.927 61.9773 124.078 61.3092 120.32 62.2486C113.665 63.9125 107.035 65.7668 100.388 67.4508C95.429 68.707 90.725 70.0885 86.0303 72.1496L86.0081 72.1594C83.5432 73.2415 81.133 74.2996 79.3923 76.4382C76.5398 79.9427 74.58 83.9335 72.0085 87.6071C70.7892 89.349 70.3211 91.5799 68.9879 93.2942C67.5661 95.1221 66.4692 97.7507 65.4638 99.8389C63.6449 103.616 62.7978 106.642 62.2007 110.747C61.8526 113.14 61.9271 115.595 61.5295 117.981C61.22 119.838 60.4463 121.668 60.0005 123.501C58.9009 128.021 59.1275 132.991 58.5834 137.616C58.2896 140.112 57.5765 142.422 57.5765 144.962C57.5765 146.651 58.0807 148.344 58.2664 150.015C58.4452 151.624 59.4354 153.233 60.0751 154.695C60.5575 155.798 60.6505 157.127 61.2684 158.145C62.4169 160.036 62.8259 162.162 63.6924 164.112C64.467 165.854 65.0349 168.371 65.0349 170.26C65.0349 172.585 64.6968 174.282 65.0349 176.142C65.28 177.49 66.0938 178.3 66.9927 179.423C68.4451 181.239 68.088 184.466 70.1625 186.061C72.2891 187.697 72.7898 190.441 74.6189 192.271C75.8736 193.525 77.044 193.926 78.8143 194.713C79.521 195.027 80.4236 194.886 81.1637 195.198C81.8597 195.491 84.8263 195.996 85.6014 195.996C87.4715 195.996 89.4421 197.533 90.9528 198.495C92.5233 199.494 92.8174 199.804 92.8174 201.702C92.8174 203.707 91.505 204.189 90.5426 205.729C89.4679 207.449 87.539 209.292 86.0862 210.745C82.3698 214.462 77.0199 216.702 74.6189 221.504C73.0066 224.728 70.6969 226.921 67.1605 227.564C64.5435 228.04 61.899 228.902 59.2733 229.559C57.8138 229.924 56.2791 230.502 54.8915 231.069C53.1365 231.787 51.2103 231.899 49.596 232.915C48.5564 233.57 46.9933 233.692 45.8296 234.258C44.3737 234.965 42.8018 235.577 41.2799 236.122C39.1365 236.891 36.9892 238.633 34.9776 239.74C32.5054 241.099 30.2265 242.422 27.8735 243.991C25.4861 245.582 23.4274 246.198 22.1678 248.857C20.9807 251.364 20.3219 253.979 20.3219 256.745Z" fill="#E6ECEF"/>
</g>
<rect width="264" height="64" transform="translate(0 272)" fill="#766178"/>
<path d="M30.9703 294.859V296.477C30.982 298.047 30.982 299.875 30.5133 302.242H33.3375V304.352H24.9234V307.656H31.0172V315.086H28.4156V309.742H15.9469V307.656H22.3219V304.352H13.9781V302.242H27.9C28.3219 300.062 28.3688 298.41 28.3688 296.945H16.3688V294.859H30.9703ZM50.7141 293.898V302.172H53.8547V304.352H50.7141V315.039H48.1125V293.898H50.7141ZM34.0031 309.25C39.1594 306.672 41.9484 303.086 42.4641 298.258H35.1516V296.102H45.1125C45.1008 302.324 42.5227 307.797 35.4797 311.266L34.0031 309.25ZM77.0063 293.922V309.227H74.3813V293.922H77.0063ZM59.7328 300.602C59.7328 297.52 62.2289 295.316 65.4516 295.305C68.6742 295.316 71.1586 297.52 71.1469 300.602C71.1586 303.73 68.6742 305.922 65.4516 305.922C62.2289 305.922 59.7328 303.73 59.7328 300.602ZM62.2875 300.602C62.2758 302.477 63.6352 303.648 65.4516 303.648C67.2211 303.648 68.5922 302.477 68.5922 300.602C68.5922 298.773 67.2211 297.578 65.4516 297.578C63.6352 297.578 62.2758 298.773 62.2875 300.602ZM62.9906 314.664V307.68H65.6156V312.555H77.5922V314.664H62.9906ZM89.0391 307.141C93.6445 307.152 96.5508 308.605 96.5625 311.125C96.5508 313.586 93.6445 315.062 89.0391 315.062C84.4805 315.062 81.5391 313.586 81.5391 311.125C81.5391 308.605 84.4805 307.152 89.0391 307.141ZM79.5469 305.617V303.508H87V299.664H89.5781V303.508H98.7656V305.617H79.5469ZM81.75 296.969V294.906H96.4219V296.664C96.4336 298.34 96.4336 300.121 95.8359 302.289L93.2578 302.055C93.7852 300.004 93.8203 298.504 93.8203 296.969H81.75ZM84.1641 311.125C84.1406 312.367 85.9805 313.047 89.0391 313.047C92.1094 313.047 93.9609 312.367 93.9844 311.125C93.9609 309.836 92.1094 309.109 89.0391 309.109C85.9805 309.109 84.1406 309.836 84.1641 311.125ZM107.634 299.922C107.634 303.391 109.673 307.047 113.095 308.477L111.666 310.539C109.158 309.449 107.33 307.234 106.357 304.539C105.384 307.445 103.521 309.883 101.048 311.055L99.5484 309.016C102.888 307.469 104.974 303.52 104.986 299.922V298.141H100.322V295.984H112.275V298.141H107.634V299.922ZM114.642 315.086V293.898H117.267V315.086H114.642ZM136.917 299.406V301.516H122.292V294.273H124.894V299.406H136.917ZM119.784 305.664V303.555H139.12V305.664H119.784ZM122.034 311.102C122.034 308.605 124.812 307.199 129.417 307.188C133.988 307.199 136.741 308.605 136.753 311.102C136.741 313.586 133.988 314.992 129.417 314.992C124.812 314.992 122.034 313.586 122.034 311.102ZM124.683 311.102C124.671 312.32 126.335 312.988 129.417 313C132.452 312.988 134.128 312.32 134.152 311.102C134.128 309.848 132.452 309.238 129.417 309.227C126.335 309.238 124.671 309.848 124.683 311.102ZM151.936 294.836C155.159 294.824 157.491 296.629 157.491 299.289C157.491 301.902 155.159 303.73 151.936 303.719C148.748 303.73 146.428 301.902 146.428 299.289C146.428 296.629 148.748 294.824 151.936 294.836ZM145.045 305.172C148.866 305.172 154.221 305.102 158.78 304.422L158.967 306.344C157.139 306.695 155.241 306.918 153.389 307.059V314.43H150.764V307.211C148.807 307.293 146.967 307.316 145.373 307.328L145.045 305.172ZM148.959 299.289C148.948 300.707 150.202 301.598 151.936 301.586C153.741 301.598 155.006 300.707 155.006 299.289C155.006 297.824 153.741 296.922 151.936 296.945C150.202 296.922 148.948 297.824 148.959 299.289ZM160.163 315.062V293.922H162.741V315.062H160.163ZM182.93 293.922V309.953H180.305V308.102H176.156V306.273H180.305V293.922H182.93ZM165.07 303.438C168.973 303.414 174.234 303.379 178.734 302.805L178.875 304.68C177.129 304.973 175.324 305.16 173.531 305.289V309.367H170.93V305.43C168.949 305.512 167.062 305.523 165.398 305.523L165.07 303.438ZM166.688 298.445C166.688 296.207 168.844 294.684 171.984 294.695C175.066 294.684 177.234 296.207 177.258 298.445C177.234 300.719 175.066 302.16 171.984 302.172C168.844 302.16 166.688 300.719 166.688 298.445ZM167.883 314.664V308.406H170.484V312.555H183.422V314.664H167.883ZM169.148 298.445C169.148 299.594 170.285 300.262 171.984 300.273C173.602 300.262 174.762 299.594 174.773 298.445C174.762 297.297 173.602 296.605 171.984 296.617C170.285 296.605 169.148 297.297 169.148 298.445ZM202.955 293.898V315.086H200.353V293.898H202.955ZM185.4 309.203C187.087 309.191 188.998 309.191 191.002 309.133V307.188C188.623 306.812 187.064 305.359 187.064 303.344C187.064 300.953 189.185 299.371 192.267 299.359C195.384 299.371 197.541 300.953 197.541 303.344C197.541 305.348 195.982 306.789 193.603 307.176V309.039C195.466 308.957 197.341 308.805 199.111 308.57L199.298 310.516C194.646 311.301 189.584 311.359 185.775 311.359L185.4 309.203ZM185.845 298.398V296.336H191.002V293.969H193.603V296.336H198.736V298.398H185.845ZM189.548 303.344C189.525 304.562 190.662 305.277 192.267 305.266C193.92 305.277 195.045 304.562 195.033 303.344C195.045 302.113 193.92 301.363 192.267 301.352C190.662 301.363 189.525 302.113 189.548 303.344ZM228.778 293.898V315.086H226.294V304.281H223.903V314.008H221.513V294.297H223.903V302.195H226.294V293.898H228.778ZM211.2 310.141V296.406H219.122V298.516H213.825V307.938C216.122 307.914 218.02 307.797 220.177 307.398L220.364 309.531C217.798 310.047 215.583 310.117 212.63 310.141H211.2ZM250.045 310.539V312.648H230.686V310.539H235.702V306.18H232.35V304.07H235.327V297.789H232.28V295.703H248.358V297.789H245.264V304.07H248.288V306.18H244.936V310.539H250.045ZM237.928 304.07H242.686V297.789H237.928V304.07ZM238.303 310.539H242.334V306.18H238.303V310.539Z" fill="#E6ECEF"/>
<defs>
<clipPath id="clip0_2103_12985">
<rect width="264" height="264" fill="white"/>
</clipPath>
</defs>
</svg>
