<svg width="72" height="72" viewBox="0 0 72 72" fill="none" xmlns="http://www.w3.org/2000/svg">
<rect x="1" y="1" width="70" height="70" rx="35" stroke="#0D575C" stroke-width="2"/>
<path d="M4 36C4 18.3269 18.3269 4 36 4C53.6731 4 68 18.3269 68 36C68 53.6731 53.6731 68 36 68C18.3269 68 4 53.6731 4 36Z" fill="#766178"/>
<g clip-path="url(#clip0_397_1781)">
<rect x="4" y="4" width="64" height="64" rx="32" fill="#766178"/>
<path d="M8.92654 66.2417C8.92654 67.4526 8.87641 68.6252 9.14559 69.7978C9.16169 69.8679 9.18612 69.936 9.22633 69.9957C9.38391 70.2294 9.74053 70.6167 9.88483 70.7348C10.4613 71.2065 11.5034 71.1975 12.1902 71.2049C12.8858 71.2124 13.5555 71.3676 14.2559 71.3676C16.513 71.3676 18.748 70.9997 20.9775 70.676C22.4075 70.4684 23.8803 70.1857 25.326 70.1517C26.7738 70.1176 28.2262 70.1472 29.6744 70.1472C32.0978 70.1472 34.5214 70.2877 36.943 70.3732C39.9172 70.4782 42.8932 70.4188 45.8659 70.5359C48.3725 70.6347 50.8707 70.6515 53.3785 70.7981C56.5688 70.9846 59.7398 71.0422 62.9343 71.0422C63.0916 71.0422 64.661 71.1908 64.661 70.9156C64.661 70.2865 64.6407 69.6711 64.5345 69.0488C64.306 67.7107 63.6727 66.1721 62.645 65.2472C62.4021 65.0287 62.0936 64.889 61.7952 64.759C60.9389 64.3861 60.204 63.7555 59.3543 63.3939C58.7358 63.1307 58.2176 62.7224 57.5824 62.4989C57.0311 62.305 56.4097 62.0094 55.9234 61.6853C54.7099 60.8763 53.7321 59.7992 52.4564 59.0816C51.9433 58.793 51.5049 58.4574 50.9512 58.2318C50.4507 58.028 50.081 57.6966 49.6087 57.4544C48.749 57.0135 47.9659 56.357 47.0683 55.9898C46.3418 55.6926 45.5961 55.3965 44.9257 55.0134C44.6482 54.8548 44.2365 54.8938 44.0126 54.6699C43.8906 54.5478 43.7504 54.5838 43.7504 54.3625V53.5941C43.7504 53.3028 44.2507 53.142 44.5234 53.142H44.5323C44.7765 53.1421 45.459 53.1422 45.6218 52.9793C45.9547 52.6464 45.9602 51.9477 46.2727 51.5961C46.3844 51.4704 46.5071 50.9518 46.5168 50.7825C46.5389 50.3961 46.6176 49.9855 46.6795 49.5982C46.9225 48.0796 47.1789 46.5814 47.5339 45.0825C47.6335 44.6618 47.6961 44.2482 47.7554 43.8213C47.8034 43.4755 47.9839 43.1839 48.0582 42.8495C48.1808 42.2977 48.362 41.7379 48.4515 41.1815C48.6236 40.1103 48.7136 38.9655 48.7136 37.8817C48.7136 37.0208 48.902 35.8681 48.6684 35.034C48.3557 33.917 48.0402 32.8244 47.6198 31.7433C47.2161 30.7052 46.7403 29.6757 46.3902 28.6062C45.6412 26.3173 44.7277 23.5643 42.6927 22.1016C41.7362 21.4141 40.6849 20.8149 39.6054 20.3523C38.5738 19.9102 37.3439 19.0818 36.1836 19.0504C35.2551 19.0253 34.0795 18.8634 33.1686 19.0911C31.5551 19.4945 29.948 19.944 28.3364 20.3523C27.1343 20.6568 25.994 20.9917 24.8559 21.4914L24.8505 21.4937C24.2529 21.7561 23.6686 22.0126 23.2466 22.531C22.5551 23.3806 22.08 24.3481 21.4566 25.2386C21.161 25.6609 21.0476 26.2017 20.7244 26.6173C20.3797 27.0605 20.1138 27.6977 19.87 28.2039C19.4291 29.1197 19.2237 29.8531 19.079 30.8483C18.9946 31.4284 19.0127 32.0237 18.9163 32.6021C18.8413 33.0522 18.6537 33.4958 18.5456 33.9401C18.279 35.0359 18.334 36.2407 18.2021 37.3619C18.1309 37.9672 17.958 38.527 17.958 39.1429C17.958 39.5524 18.0802 39.9626 18.1252 40.3679C18.1686 40.758 18.4086 41.148 18.5637 41.5024C18.6806 41.7698 18.7032 42.092 18.853 42.3387C19.1314 42.7973 19.2305 43.3125 19.4406 43.7852C19.6284 44.2077 19.7661 44.8178 19.7661 45.2756C19.7661 45.8394 19.6841 46.2507 19.7661 46.7016C19.8255 47.0284 20.0228 47.2247 20.2407 47.4971C20.5928 47.9373 20.5062 48.7195 21.0091 49.1063C21.5247 49.5029 21.646 50.1682 22.0895 50.6116C22.3936 50.9157 22.6774 51.013 23.1065 51.2037C23.2779 51.2799 23.4967 51.2457 23.6761 51.3213C23.8448 51.3923 24.564 51.5148 24.7519 51.5148C25.2052 51.5148 25.683 51.8874 26.0492 52.1205C26.4299 52.3628 26.5012 52.4378 26.5012 52.898C26.5012 53.3841 26.1831 53.501 25.9497 53.8743C25.6892 54.2912 25.2216 54.7381 24.8694 55.0903C23.9685 55.9912 22.6715 56.5343 22.0895 57.6984C21.6986 58.4802 21.1387 59.0117 20.2814 59.1675C19.647 59.2829 19.0059 59.4921 18.3693 59.6512C18.0155 59.7396 17.6434 59.8797 17.3071 60.0173C16.8816 60.1914 16.4147 60.2184 16.0233 60.4648C15.7713 60.6235 15.3923 60.6533 15.1102 60.7903C14.7573 60.9617 14.3762 61.1101 14.0073 61.2423C13.4877 61.4286 12.9671 61.851 12.4794 62.1192C11.8801 62.4489 11.3277 62.7696 10.7572 63.1498C10.1785 63.5357 9.67941 63.685 9.37405 64.3296C9.08626 64.9372 8.92654 65.5712 8.92654 66.2417Z" fill="#E6ECEF"/>
</g>
<defs>
<clipPath id="clip0_397_1781">
<rect x="4" y="4" width="64" height="64" rx="32" fill="white"/>
</clipPath>
</defs>
</svg>
