<svg width="264" height="336" viewBox="0 0 264 336" fill="none" xmlns="http://www.w3.org/2000/svg">
<g clip-path="url(#clip0_1545_6314)">
<rect width="264" height="264" fill="#766178"/>
<path d="M20.3199 256.749C20.3199 261.743 20.1131 266.581 21.2235 271.417C21.2899 271.707 21.3907 271.988 21.5565 272.234C22.2066 273.198 23.6776 274.796 24.2729 275.283C26.6509 277.228 30.9496 277.191 33.7823 277.222C36.6519 277.253 39.4143 277.893 42.3035 277.893C51.6139 277.893 60.8336 276.375 70.0301 275.04C75.929 274.184 82.0043 273.018 87.9675 272.877C93.94 272.737 99.9308 272.859 105.905 272.859C115.901 272.859 125.899 273.438 135.888 273.791C148.156 274.224 160.432 273.979 172.695 274.462C183.034 274.87 193.34 274.939 203.684 275.544C216.844 276.313 229.925 276.551 243.102 276.551C243.751 276.551 250.225 277.164 250.225 276.029C250.225 273.434 250.141 270.895 249.703 268.328C248.76 262.808 246.148 256.462 241.909 252.646C240.907 251.745 239.634 251.169 238.403 250.633C234.871 249.094 231.839 246.493 228.334 245.002C225.783 243.916 223.645 242.232 221.025 241.31C218.751 240.51 216.188 239.291 214.182 237.953C209.176 234.616 205.143 230.173 199.881 227.213C197.764 226.023 195.956 224.639 193.671 223.708C191.607 222.867 190.082 221.5 188.134 220.501C184.588 218.682 181.357 215.974 177.655 214.46C174.658 213.234 171.582 212.012 168.816 210.432C167.672 209.778 165.974 209.939 165.05 209.015C164.546 208.512 163.968 208.66 163.968 207.747V204.577C163.968 203.376 166.032 202.713 167.157 202.713H167.194C168.201 202.713 171.016 202.713 171.688 202.041C173.061 200.668 173.084 197.786 174.373 196.336C174.834 195.817 175.34 193.678 175.38 192.979C175.471 191.386 175.795 189.692 176.051 188.094C177.053 181.83 178.111 175.65 179.575 169.467C179.986 167.732 180.244 166.026 180.489 164.265C180.687 162.838 181.432 161.635 181.738 160.256C182.244 157.98 182.991 155.671 183.36 153.375C184.07 148.957 184.442 144.234 184.442 139.764C184.442 136.213 185.219 131.458 184.255 128.017C182.965 123.409 181.664 118.902 179.929 114.443C178.264 110.161 176.301 105.914 174.858 101.502C171.768 92.0606 168 80.7042 159.605 74.6707C155.66 71.835 151.323 69.3633 146.87 67.4547C142.615 65.6311 137.542 62.2141 132.755 62.0847C128.925 61.9812 124.076 61.3131 120.318 62.2525C113.663 63.9164 107.033 65.7707 100.386 67.4547C95.427 68.7109 90.7231 70.0924 86.0283 72.1535L86.0061 72.1633C83.5412 73.2454 81.1311 74.3035 79.3903 76.4421C76.5379 79.9466 74.5781 83.9374 72.0065 87.611C70.7872 89.3529 70.3192 91.5838 68.9859 93.2981C67.5641 95.126 66.4672 97.7546 65.4618 99.8428C63.643 103.62 62.7958 106.646 62.1988 110.751C61.8507 113.144 61.9252 115.599 61.5275 117.985C61.2181 119.842 60.4443 121.672 59.9985 123.505C58.899 128.025 59.1255 132.995 58.5814 137.62C58.2877 140.116 57.5746 142.426 57.5746 144.966C57.5746 146.655 58.0787 148.347 58.2645 150.019C58.4433 151.628 59.4335 153.237 60.0731 154.699C60.5556 155.802 60.6486 157.131 61.2665 158.149C62.4149 160.04 62.8239 162.166 63.6904 164.115C64.4651 165.858 65.0329 168.375 65.0329 170.264C65.0329 172.589 64.6948 174.286 65.0329 176.146C65.278 177.494 66.0919 178.304 66.9908 179.427C68.4431 181.243 68.0861 184.47 70.1606 186.065C72.2872 187.701 72.7878 190.445 74.617 192.274C75.8716 193.529 77.042 193.93 78.8123 194.717C79.5191 195.031 80.4217 194.89 81.1617 195.202C81.8577 195.495 84.8244 196 85.5995 196C87.4695 196 89.4401 197.537 90.9508 198.499C92.5213 199.498 92.8154 199.808 92.8154 201.706C92.8154 203.711 91.5031 204.193 90.5406 205.733C89.466 207.453 87.5371 209.296 86.0843 210.749C82.3678 214.465 77.018 216.706 74.617 221.508C73.0047 224.732 70.6949 226.925 67.1586 227.568C64.5416 228.043 61.8971 228.906 59.2713 229.563C57.8119 229.928 56.2772 230.505 54.8895 231.073C53.1345 231.791 51.2084 231.903 49.5941 232.919C48.5544 233.574 46.9913 233.696 45.8276 234.262C44.3717 234.969 42.7998 235.581 41.278 236.126C39.1345 236.895 36.9872 238.637 34.9757 239.743C32.5034 241.103 30.2245 242.426 27.8715 243.995C25.4841 245.586 23.4255 246.202 22.1659 248.861C20.9787 251.368 20.3199 253.983 20.3199 256.749Z" fill="#E6ECEF"/>
</g>
<rect width="264" height="64" transform="translate(0 272)" fill="#766178"/>
<path d="M99.3594 310.352V312.461H80V310.352H88.2969V305.453H90.875V310.352H99.3594ZM80.5625 303.812C84.9922 303.098 88.168 299.922 88.1797 296.734V295.188H90.9453V296.734C90.9453 299.934 94.1445 303.098 98.6094 303.812L97.4844 305.969C93.9102 305.289 90.9688 303.238 89.5625 300.461C88.168 303.227 85.2617 305.301 81.6875 305.969L80.5625 303.812ZM117.767 293.898V315.109H115.142V293.898H117.767ZM101.267 310.117V295.633H103.869V300.93H109.002V295.633H111.58V310.117H101.267ZM103.869 307.984H109.002V302.969H103.869V307.984ZM127.878 299.922C127.866 303.191 129.835 306.918 133.175 308.477L131.722 310.539C129.331 309.414 127.562 307.141 126.612 304.492C125.652 307.398 123.8 309.883 121.362 311.055L119.839 309.016C123.214 307.41 125.265 303.449 125.277 299.922V298.141H120.659V295.984H132.308V298.141H127.878V299.922ZM134.277 315.086V293.898H136.878V302.148H140.136V304.328H136.878V315.086H134.277ZM163.756 293.898V315.086H161.272V304.281H158.881V314.008H156.491V294.297H158.881V302.195H161.272V293.898H163.756ZM146.178 310.141V296.406H154.1V298.516H148.803V307.938C151.1 307.914 152.998 307.797 155.155 307.398L155.342 309.531C152.776 310.047 150.561 310.117 147.608 310.141H146.178ZM185.023 310.539V312.648H165.664V310.539H170.68V306.18H167.328V304.07H170.305V297.789H167.258V295.703H183.336V297.789H180.242V304.07H183.266V306.18H179.914V310.539H185.023ZM172.906 304.07H177.664V297.789H172.906V304.07ZM173.281 310.539H177.312V306.18H173.281V310.539Z" fill="#E6ECEF"/>
<defs>
<clipPath id="clip0_1545_6314">
<rect width="264" height="264" fill="white"/>
</clipPath>
</defs>
</svg>
