<svg width="264" height="336" viewBox="0 0 264 336" fill="none" xmlns="http://www.w3.org/2000/svg">
<g clip-path="url(#clip0_2103_12978)">
<rect width="264" height="264" fill="#766178"/>
<path d="M20.3219 256.745C20.3219 261.74 20.1151 266.577 21.2255 271.414C21.2918 271.703 21.3926 271.984 21.5585 272.23C22.2085 273.194 23.6796 274.792 24.2748 275.279C26.6529 277.224 30.9516 277.188 33.7843 277.218C36.6539 277.249 39.4162 277.889 42.3055 277.889C51.6158 277.889 60.8356 276.371 70.032 275.036C75.931 274.18 82.0063 273.014 87.9694 272.873C93.9419 272.733 99.9328 272.855 105.907 272.855C115.903 272.855 125.901 273.435 135.89 273.787C148.158 274.22 160.434 273.975 172.697 274.458C183.036 274.866 193.342 274.935 203.686 275.54C216.846 276.309 229.927 276.547 243.104 276.547C243.753 276.547 250.227 277.16 250.227 276.025C250.227 273.43 250.143 270.891 249.705 268.324C248.762 262.804 246.15 256.458 241.911 252.643C240.909 251.741 239.636 251.165 238.405 250.629C234.873 249.091 231.841 246.489 228.336 244.998C225.785 243.912 223.647 242.228 221.027 241.306C218.753 240.506 216.19 239.287 214.184 237.95C209.178 234.612 205.145 230.17 199.883 227.209C197.766 226.019 195.958 224.635 193.673 223.704C191.609 222.863 190.084 221.496 188.136 220.497C184.59 218.679 181.359 215.97 177.657 214.456C174.66 213.23 171.584 212.008 168.818 210.428C167.673 209.774 165.976 209.935 165.052 209.011C164.548 208.508 163.97 208.656 163.97 207.743V204.573C163.97 203.372 166.034 202.709 167.159 202.709H167.196C168.203 202.709 171.018 202.709 171.69 202.037C173.063 200.664 173.086 197.782 174.375 196.332C174.836 195.813 175.342 193.674 175.382 192.975C175.473 191.382 175.797 189.688 176.053 188.09C177.055 181.826 178.113 175.646 179.577 169.463C179.988 167.728 180.246 166.022 180.491 164.261C180.689 162.834 181.433 161.631 181.74 160.252C182.246 157.976 182.993 155.667 183.362 153.371C184.072 148.953 184.444 144.23 184.444 139.76C184.444 136.209 185.221 131.454 184.257 128.013C182.967 123.405 181.666 118.899 179.931 114.439C178.266 110.157 176.303 105.91 174.86 101.498C171.77 92.0567 168.002 80.7003 159.607 74.6668C155.662 71.8311 151.325 69.3594 146.872 67.4508C142.617 65.6272 137.544 62.2102 132.757 62.0808C128.927 61.9773 124.078 61.3092 120.32 62.2486C113.665 63.9125 107.035 65.7668 100.388 67.4508C95.429 68.707 90.725 70.0885 86.0303 72.1496L86.0081 72.1594C83.5432 73.2415 81.133 74.2996 79.3923 76.4382C76.5398 79.9427 74.58 83.9335 72.0085 87.6071C70.7892 89.349 70.3211 91.5799 68.9879 93.2942C67.5661 95.1221 66.4692 97.7507 65.4638 99.8389C63.6449 103.616 62.7978 106.642 62.2007 110.747C61.8526 113.14 61.9271 115.595 61.5295 117.981C61.22 119.838 60.4463 121.668 60.0005 123.501C58.9009 128.021 59.1275 132.991 58.5834 137.616C58.2896 140.112 57.5765 142.422 57.5765 144.962C57.5765 146.651 58.0807 148.344 58.2664 150.015C58.4452 151.624 59.4354 153.233 60.0751 154.695C60.5575 155.798 60.6505 157.127 61.2684 158.145C62.4169 160.036 62.8259 162.162 63.6924 164.112C64.467 165.854 65.0349 168.371 65.0349 170.26C65.0349 172.585 64.6968 174.282 65.0349 176.142C65.28 177.49 66.0938 178.3 66.9927 179.423C68.4451 181.239 68.088 184.466 70.1625 186.061C72.2891 187.697 72.7898 190.441 74.6189 192.271C75.8736 193.525 77.044 193.926 78.8143 194.713C79.521 195.027 80.4236 194.886 81.1637 195.198C81.8597 195.491 84.8263 195.996 85.6014 195.996C87.4715 195.996 89.4421 197.533 90.9528 198.495C92.5233 199.494 92.8174 199.804 92.8174 201.702C92.8174 203.707 91.505 204.189 90.5426 205.729C89.4679 207.449 87.539 209.292 86.0862 210.745C82.3698 214.462 77.0199 216.702 74.6189 221.504C73.0066 224.728 70.6969 226.921 67.1605 227.564C64.5435 228.04 61.899 228.902 59.2733 229.559C57.8138 229.924 56.2791 230.502 54.8915 231.069C53.1365 231.787 51.2103 231.899 49.596 232.915C48.5564 233.57 46.9933 233.692 45.8296 234.258C44.3737 234.965 42.8018 235.577 41.2799 236.122C39.1365 236.891 36.9892 238.633 34.9776 239.74C32.5054 241.099 30.2265 242.422 27.8735 243.991C25.4861 245.582 23.4274 246.198 22.1678 248.857C20.9807 251.364 20.3219 253.979 20.3219 256.745Z" fill="#E6ECEF"/>
</g>
<rect width="264" height="64" transform="translate(0 272)" fill="#766178"/>
<path d="M107.063 294.93V296.711C107.075 298.492 107.075 300.449 106.595 303.016H109.43V305.078H101.157V309.812H98.5555V305.078H90.0711V303.016H103.934C104.427 300.578 104.462 298.738 104.462 297.039H92.4617V294.93H107.063ZM92.3914 314.664V307.891H94.993V312.555H107.438V314.664H92.3914ZM123.301 299.922C123.301 303.391 125.34 307.047 128.762 308.477L127.332 310.539C124.824 309.449 122.996 307.234 122.023 304.539C121.051 307.445 119.188 309.883 116.715 311.055L115.215 309.016C118.555 307.469 120.641 303.52 120.652 299.922V298.141H115.988V295.984H127.941V298.141H123.301V299.922ZM130.309 315.086V293.898H132.934V315.086H130.309ZM153.17 293.922V315.109H150.591V293.922H153.17ZM135.498 307C139.623 307 144.767 306.988 149.279 306.484L149.466 308.383C147.568 308.652 145.623 308.828 143.724 308.934V314.664H141.099V309.039C139.236 309.086 137.455 309.098 135.826 309.086L135.498 307ZM136.177 298.023V296.031H141.123V293.734H143.724V296.031H148.716V298.023H136.177ZM137.279 302.312C137.279 300.168 139.377 298.738 142.459 298.727C145.47 298.738 147.568 300.168 147.591 302.312C147.568 304.434 145.47 305.875 142.459 305.875C139.377 305.875 137.279 304.434 137.279 302.312ZM139.787 302.312C139.775 303.355 140.818 303.918 142.459 303.93C144.017 303.918 145.072 303.355 145.084 302.312C145.072 301.258 144.017 300.684 142.459 300.695C140.818 300.684 139.775 301.258 139.787 302.312ZM167.429 295.469V296.734C167.405 298.176 167.405 300.285 166.913 302.969L164.335 302.734C164.757 300.555 164.839 298.926 164.863 297.625H156.624V295.469H167.429ZM155.359 304.656C156.613 304.645 158.019 304.633 159.507 304.609V300.297H162.085V304.527C164.277 304.434 166.527 304.27 168.577 303.977L168.718 305.852C164.312 306.648 159.308 306.73 155.593 306.742L155.359 304.656ZM158.523 314.664V308.359H161.148V312.555H173.171V314.664H158.523ZM169.82 309.766V293.898H172.491V300.508H175.234V302.688H172.491V309.766H169.82Z" fill="#E6ECEF"/>
<defs>
<clipPath id="clip0_2103_12978">
<rect width="264" height="264" fill="white"/>
</clipPath>
</defs>
</svg>
