<svg width="520" height="571" viewBox="0 0 520 571" fill="none" xmlns="http://www.w3.org/2000/svg">
<g filter="url(#filter0_d_442_5436)">
<path d="M85.4837 6.91094C87.9291 6.91094 90.2994 7.45899 92.72 7.45899C94.1005 8.37927 98.0463 8.00704 99.662 8.00704C100.445 8.00704 104.167 8.78192 104.229 9.83387C104.31 11.2105 104.229 12.6161 104.229 13.995C104.229 16.0273 105.58 16.7384 106.969 18.0546C108.065 19.0928 109.426 19.8039 110.735 20.531C112.155 21.32 113.472 22.2458 114.865 23.0683C116.929 24.2859 119.184 25.1132 121.219 26.3565C122.673 27.2456 124.127 28.1614 125.603 29.0156C126.066 29.2835 125.968 29.7393 125.968 30.203C125.968 31.188 124.343 31.9136 123.593 32.3952C123.085 32.7223 122.551 32.969 122.031 33.2579C121.724 33.428 121.592 33.8435 121.3 34.0292C120.099 34.7936 119.632 36.2652 118.62 37.2769C117.308 38.5897 115.273 38.8252 113.546 39.0226C110.986 39.3151 108.387 38.8805 105.833 38.8805C100.043 38.8805 94.2921 38.6938 88.5995 39.8853C85.9377 40.4424 83.4572 41.3688 80.9167 42.2703C78.1973 43.2352 76.5152 45.706 74.2589 47.3651C72.5066 48.0768 68.902 49.5002 68.502 49.5002C68.102 49.5002 62.6196 49.1669 59.9284 49.0002L58.1016 44.7264C58.5987 43.3496 58.9526 41.9493 59.289 40.5246C59.5936 39.2347 59.5341 37.8775 59.9284 36.6071C60.3368 35.2912 60.9042 33.8619 62.0293 32.994C64.6537 30.9695 68.7873 27.6547 68.0172 23.9005C67.8332 23.0037 67.6381 22.1177 67.4083 21.2313C66.951 19.4676 65.8418 17.9323 65.5408 16.1263C65.2411 14.3282 65.8404 13.6153 67.1545 12.564C68.8096 11.2399 70.9117 10.5823 72.7061 9.4685C74.204 8.53877 75.8403 7.19929 77.6487 6.92109C80.126 6.53996 83.0084 6.91094 85.4837 6.91094Z" fill="#1E7C77" fill-opacity="0.5"/>
<path d="M14.2586 245.502C15.0681 245.212 15.8145 244.844 16.6027 244.498C16.3787 244.579 17.5125 243.244 17.5919 242.974C17.8026 242.258 18.3381 241.717 18.6406 241.036C18.9698 240.295 19.0351 239.337 19.5676 238.686C20.2019 237.911 22.4799 238.167 23.3597 238.293C26.5456 238.748 29.7517 239.274 32.9571 239.594C35.7088 239.869 38.1341 238.788 40.6256 237.843C42.6736 237.066 44.5883 235.962 46.6181 235.137C48.4424 234.396 50.4119 233.457 52.1424 232.525C54.0477 231.499 56.0424 230.925 58.2098 231.008C58.9191 231.035 57.7613 232.924 57.6574 233.124C56.9338 234.516 55.8473 235.543 54.7079 236.579C53.187 237.962 51.727 239.416 50.1574 240.746C49.4352 241.358 48.5553 241.711 47.8821 242.384C47.4795 242.787 47.1526 243.226 46.7772 243.648C45.9089 244.625 45.1012 246.032 45.1012 247.356C45.1012 248.169 44.9327 248.969 44.9327 249.753C44.9327 250.758 45.0471 251.689 44.502 252.581C43.8499 253.648 42.827 254.24 41.6555 254.519C40.8211 254.718 39.6879 254.94 38.8278 254.94C37.9759 254.94 36.7581 255.489 36.0001 255.858C34.7971 256.443 33.5727 257.017 32.3765 257.637C31.0518 258.324 29.5811 258.71 28.2099 259.285C26.7787 259.885 25.165 260.057 23.7623 260.68C22.6183 261.189 21.2991 261.275 20.1013 261.645C19.1548 261.937 18.1164 261.902 17.1425 261.766C15.5337 261.543 14.2464 261.625 12.7043 261.008C11.398 260.485 10.3054 259.693 9.07135 258.985C8.09843 258.427 7.10172 257.649 6.59009 256.626C5.79941 255.045 4.04447 252.599 5.66312 250.896C7.57388 248.884 9.8064 247.599 12.4047 246.588C13.0859 246.324 13.5709 245.749 14.2586 245.502Z" fill="#1E7C77" fill-opacity="0.5"/>
<path d="M115.326 56.5525C117.998 55.2948 121.044 56.5525 123.969 56.5525C126.617 56.5525 126.129 54.6279 126.129 52.4472C126.129 50.2352 125.798 48.774 128.506 48.774C130.62 48.774 132.267 49.2061 134.34 49.2061C136.467 49.2061 135.841 46.5773 134.676 45.4129C133.383 44.12 130.491 43.6591 130.043 41.6437C129.535 39.3585 129.587 37.1251 129.587 34.7294C129.587 32.1875 131.673 31.9535 133.476 31.1522C134.94 30.5017 137.604 30.2321 139.19 30.7201C140.353 31.0781 141.103 31.4883 142.335 31.4883C143.359 31.4883 144.31 32.5274 145.36 32.7608C149.466 33.6734 153.352 33.4573 157.514 33.2259L157.676 33.2169C158.612 33.1649 159.461 32.7848 160.485 32.7848C161.56 32.7848 162.532 33.6068 163.63 33.6491C165.993 33.74 168.487 35.6914 170.856 36.2179C177.501 37.6946 183.656 33.3927 188.574 29.5677C190.385 28.1586 190.995 25.3936 192.679 23.7098C195.489 20.9001 198.479 18.054 201.85 15.9313C202.95 15.2388 204.206 15.0703 205.403 14.6349C207.136 14.0046 208.574 12.8845 210.397 12.3781C215.253 11.0291 219.637 8.58489 224.874 8.58489C227.031 8.58489 228.993 7.72061 231.14 7.72061C232.684 7.72061 234.43 7.96921 235.917 7.50454C238.74 6.62253 242.664 7.28847 245.592 7.28847H259.205C262.25 7.28847 273.431 3.63574 274.45 5.5599C275.812 8.13307 276.52 10.319 278.675 12.4742C280.713 14.5119 282.652 16.5515 284.941 18.3321C287.08 19.9959 289.085 19.8205 291.735 19.8205C292.608 19.8205 297.009 19.1864 297.689 20.0366C299.841 22.7262 302.451 25.557 304.267 28.4634C304.988 29.6167 308.664 29.7598 309.885 29.7598C312.475 29.7598 314.568 29.5791 316.92 30.6241C318.444 31.3017 320.048 32.1784 321.361 33.2169C322.893 34.4279 324.104 34.8743 325.682 35.8098C327.891 37.1186 330.916 37.1873 333.365 37.7784C335.868 38.3826 338.253 38.297 340.807 38.4986C343.483 38.7099 346.04 39.4891 348.682 39.8911C353.676 40.651 358.759 40.9954 363.807 40.9954C366.924 40.9954 370.539 38.9945 373.554 37.9705C377.331 36.6876 380.079 36.2419 384.021 36.2419C388.136 36.2419 391.897 38.8347 396.001 38.8347C400.495 38.8347 404.613 37.286 408.749 35.5937C411.406 34.507 414.097 34.0004 416.72 32.6887C419.053 31.5221 421.355 30.2968 423.778 29.3276C433.748 25.3398 444.462 22.8455 455.205 22.8455C458.493 22.8455 462.677 26.4168 465.144 28.2473C467.111 29.7067 468.521 30.5566 469.873 32.5447C471.395 34.7828 472.913 37.1097 474.531 39.2669L474.693 39.4836C477.201 42.8267 479.427 45.7935 481.349 49.6383C482.157 51.2533 483.158 52.7835 483.486 54.5839C483.718 55.8612 484.009 56.8688 485.022 57.6569L499.932 70.4207C502.557 71.8791 501.959 76.519 500.58 78.5113C499.592 79.9381 498.448 81.701 497.243 82.9527C496.016 84.2269 495.829 85.4454 495.082 86.938C493.731 89.6403 494.361 93.3801 493.978 96.3491C493.245 102.031 494.314 107.836 494.314 113.491C494.314 114.968 494.648 117.281 495.611 118.484C496.614 119.738 496.406 121.645 497.147 123.022C498.257 125.083 498.395 127.569 499.5 129.72C500.522 131.711 501.15 133.719 502.093 135.77C502.793 137.295 503.352 139.533 503.772 141.214L503.821 141.412C504.156 142.752 504.613 144.341 504.685 145.709C504.821 148.286 504.583 149.222 502.741 150.655C500.53 152.375 495.333 152.706 492.586 152.095L481.301 149.223C474.233 147.32 467.275 147.331 460.174 146.222L449.407 146.65C450.356 147.124 450.954 150.779 450.954 152.065C450.954 154.671 449.854 154.534 447.516 155.202C444.356 156.105 443.639 162.13 441.5 164.269C440.182 165.587 438.633 167.195 437.031 168.137C435.642 168.954 436.257 171.846 436.257 173.337C436.257 176.02 432.754 181.107 431.272 183.436C428.518 187.764 428.52 194.581 428.522 199.67L428.522 200.024C428.522 202.292 428.917 204.844 429.682 206.986C431.338 211.622 426.478 217.32 424.052 220.738C412.608 236.864 390.484 238.734 379.488 254.989C377.085 258.541 376.694 263.493 376.694 267.709C376.694 270.444 373.821 270.699 372.225 272.135C370.41 273.769 369.733 273.549 369.733 276.218C369.733 278.463 369.649 280.722 369.733 282.965C370.001 290.207 374.359 295.537 378.585 300.971C379.828 302.569 380.314 305.438 379.617 307.374C379.022 309.026 376.034 308.773 374.761 309.48C371.202 311.457 365.317 309.519 361.224 311.242C359.17 312.107 350.052 315.782 348.245 314.336C345.471 312.117 334.902 313.575 331.485 314.551C325.716 316.199 323.589 321.153 322.547 326.885C321.922 330.319 319.238 333.787 323.019 335.824C327.088 338.014 329.978 341.077 333.087 344.371L333.088 344.371L333.376 344.676C338.004 349.576 329.947 354.52 327.961 358.987C326.56 362.139 316.932 364.791 313.866 365.734C309.774 366.993 305.516 368.086 303.81 372.352C300.18 381.426 291.578 380.021 283.139 381.076C278.4 381.668 272.672 380.814 268.012 381.849C261.702 383.252 259.456 394.593 258.514 399.77C257.679 404.366 257.942 410 259.46 414.338C260.492 417.287 262.037 421.226 262.21 424.351C262.43 428.312 263.782 432.711 259.46 435.181C249.884 440.653 257.962 455.004 261.394 461.438C265.837 469.77 271.048 476.947 276.134 484.859C279.346 489.856 284.284 495.196 284.6 501.361C284.822 505.685 284.135 510.887 282.15 514.855C278.788 521.58 275.891 529.055 272.266 535.397C269.847 539.631 262.668 540.987 258.514 542.703C256.636 543.479 253.704 545.024 251.767 545.024C246.565 545.024 240.658 548.198 235.91 549.493C232.534 550.414 227.754 549.665 224.35 549.665C218.928 549.665 213.482 549.51 208.062 549.665C202.824 549.814 197.877 553.597 193.365 555.853C191.768 544.069 188.574 516.672 188.574 501.361C188.574 482.223 178 492.5 157.676 484.859C137.351 477.218 145.36 468.5 152 435.181C158.64 413.861 145.36 414.338 96.0708 399.77C46.782 385.201 73.6243 381.849 67.6944 376.005C62.9504 371.329 53.0348 374.057 48.6699 376.005C49.4747 366.75 51.9341 354.967 59.1127 348.544C63.6156 344.515 73.0829 345.45 78.4513 345.45C83.7172 345.45 90.9604 346.792 96.0708 345.278C102.288 342.012 86.9006 335.824 76.8653 333C66.8301 330.176 69.9751 335.824 60.9482 333C51.9212 330.176 50.4996 317.5 58.7394 297.5C62.032 294.797 64.3757 293.041 66.0487 291.953C64.3317 290.04 65.8273 284.966 78.978 272.135C107.163 244.635 57.419 268.989 64.6694 260.5C71.9197 252.011 50.6008 251.5 57.8512 243C65.1015 234.5 76.8653 225 76.8653 222C76.8653 219 85.0777 209.5 83.2514 199.5C81.7904 191.5 99.0285 187.333 105 186L123.969 171.166C123.19 170.733 123.384 169.429 122.768 168.813C120.966 167.011 105.79 161.586 105.363 163.507C104.803 166.026 101.848 166.748 99.7688 166.748C96.276 166.748 93.021 164.588 89.6135 164.588C89.1123 164.588 87.239 164.872 86.9006 164.492C86.4221 163.953 88.4404 162.978 88.7732 162.883C90.4293 162.41 92.3112 162.778 93.6228 161.467C95.0804 160.009 95.8871 157.958 96.7438 156.137C98.1829 153.079 91.7115 152.92 89.8536 152.92C86.2667 152.92 82.4115 153.34 78.978 152.248C78.0529 151.953 73.518 151.706 75.2328 149.991C77.342 147.882 80.6049 147.817 83.2514 146.966C85.5346 146.232 83.6373 141.61 82.4832 140.388C81.3289 139.166 76.8538 138.079 76.4572 136.691C75.8591 134.597 76.2293 130.785 78.834 130.04C80.5114 129.561 76.0207 125.309 75.1368 124.831C72.791 123.563 70.5865 122.036 68.2465 120.749C66.4098 119.739 64.4835 119.384 62.6047 118.445C60.6995 117.492 59.107 117.065 58.7394 114.675C58.4247 112.63 59.1374 111.19 60.2039 109.514C60.7175 108.707 61.3083 108.139 61.3083 107.113C61.3083 106.465 60.823 104.766 60.9482 104.328C61.1975 103.455 64.1479 104.42 64.5253 104.616C66.6223 105.707 67.0487 106.929 67.6944 108.938C68.0902 110.169 68.7668 111.786 69.9751 112.491C70.3655 112.718 72.7856 113.073 72.9521 112.491C73.2161 111.567 72.408 110.49 72.0158 109.706C71.4053 108.485 71.4131 107.065 70.7193 105.817C68.8916 102.527 71.9996 102.73 74.7046 101.591C76.5103 100.831 76.8653 101.34 76.8653 99.1184C76.8653 97.3551 74.7152 95.2901 73.6243 93.9567C72.1213 92.1198 70.849 88.7935 71.9197 86.3462C72.1194 85.89 75.5268 80.877 73.4082 80.7524C71.6806 80.6508 69.7583 80.5759 68.0545 80.7764C66.7791 80.9264 65.9464 81.6167 64.6694 81.6167C61.0472 81.6167 57.8512 81.8671 57.8512 77.4873C57.8512 74.9016 58.9623 72.5455 59.1476 70.0449C59.2581 68.5524 60.7162 67.4287 61.3083 66.1556C63.3467 61.7729 71.2234 59.5226 75.5148 58.2965L75.5689 58.2811C80.1097 56.9837 85.2862 57.7487 89.8056 56.3364C91.2398 55.8882 91.6418 55.1724 92.7585 54.0557C93.5396 53.2746 94.108 51.4605 95.0153 51.0307C97.415 49.894 101.054 51.3473 102.89 52.9994C104.414 54.3708 105.995 54.8779 108.076 55.2561C109.24 55.4677 115.168 55.1302 115.326 56.5525Z" fill="#1E7C77" fill-opacity="0.5"/>
</g>
<defs>
<filter id="filter0_d_442_5436" x="0" y="0" width="519.717" height="570.853" filterUnits="userSpaceOnUse" color-interpolation-filters="sRGB">
<feFlood flood-opacity="0" result="BackgroundImageFix"/>
<feColorMatrix in="SourceAlpha" type="matrix" values="0 0 0 0 0 0 0 0 0 0 0 0 0 0 0 0 0 0 127 0" result="hardAlpha"/>
<feOffset dx="5" dy="5"/>
<feGaussianBlur stdDeviation="5"/>
<feComposite in2="hardAlpha" operator="out"/>
<feColorMatrix type="matrix" values="0 0 0 0 0.0980392 0 0 0 0 0.176471 0 0 0 0 0.227451 0 0 0 0.1 0"/>
<feBlend mode="normal" in2="BackgroundImageFix" result="effect1_dropShadow_442_5436"/>
<feBlend mode="normal" in="SourceGraphic" in2="effect1_dropShadow_442_5436" result="shape"/>
</filter>
</defs>
</svg>
