<svg width="264" height="440" viewBox="0 0 264 440" fill="none" xmlns="http://www.w3.org/2000/svg">
<rect width="264" height="440" fill="#FCFDFA"/>
<g clip-path="url(#clip0_1545_6130)">
<rect width="264" height="200" fill="#766178"/>
<mask id="path-1-inside-1_1545_6130" fill="white">
<path d="M0 160H264V200H0V160Z"/>
</mask>
<path d="M0 160H264V200H0V160Z" fill="#766178"/>
<path d="M0 160V161H264V160V159H0V160Z" fill="#E6ECEF" mask="url(#path-1-inside-1_1545_6130)"/>
<g clip-path="url(#clip1_1545_6130)">
<rect width="160" height="160" transform="translate(52)" fill="#766178"/>
<path d="M64.3178 155.602C64.3178 158.629 64.1925 161.561 64.8655 164.492C64.9057 164.667 64.9668 164.838 65.0673 164.987C65.4612 165.571 66.3528 166.54 66.7136 166.835C68.1548 168.014 70.7601 167.992 72.4768 168.01C74.216 168.029 75.8901 168.417 77.6412 168.417C83.2838 168.417 88.8716 167.497 94.4452 166.688C98.0203 166.169 101.702 165.462 105.316 165.377C108.936 165.292 112.567 165.366 116.188 165.366C122.246 165.366 128.305 165.717 134.359 165.931C141.794 166.193 149.234 166.045 156.666 166.338C162.933 166.585 169.178 166.626 175.448 166.993C183.423 167.459 191.351 167.603 199.337 167.603C199.73 167.603 203.654 167.975 203.654 167.287C203.654 165.714 203.603 164.175 203.338 162.62C202.767 159.275 201.183 155.428 198.614 153.116C198.007 152.569 197.235 152.22 196.489 151.895C194.349 150.963 192.511 149.387 190.387 148.483C188.841 147.825 187.545 146.804 185.957 146.245C184.579 145.76 183.026 145.021 181.81 144.211C178.776 142.188 176.332 139.496 173.142 137.702C171.86 136.98 170.764 136.141 169.379 135.577C168.128 135.068 167.204 134.239 166.023 133.634C163.874 132.532 161.916 130.89 159.672 129.972C157.856 129.229 155.992 128.489 154.316 127.531C153.622 127.135 152.593 127.232 152.033 126.673C151.728 126.367 151.378 126.457 151.378 125.904V123.983C151.378 123.255 152.628 122.853 153.31 122.853H153.332C153.943 122.853 155.649 122.853 156.056 122.446C156.888 121.614 156.902 119.867 157.683 118.988C157.963 118.674 158.269 117.377 158.293 116.954C158.349 115.988 158.545 114.962 158.7 113.993C159.308 110.197 159.949 106.451 160.836 102.704C161.085 101.652 161.242 100.618 161.39 99.5511C161.51 98.6865 161.961 97.9576 162.147 97.1215C162.454 95.7421 162.907 94.3426 163.13 92.9516C163.561 90.2736 163.786 87.4115 163.786 84.7021C163.786 82.5499 164.256 79.668 163.673 77.5828C162.891 74.7903 162.102 72.0589 161.051 69.3559C160.042 66.7608 158.852 64.187 157.977 61.5133C156.104 55.7911 153.821 48.9084 148.733 45.2518C146.342 43.5332 143.714 42.0351 141.015 40.8785C138.436 39.7732 135.361 37.7023 132.46 37.6239C130.139 37.5612 127.2 37.1563 124.923 37.7256C120.889 38.734 116.871 39.8578 112.843 40.8785C109.837 41.6398 106.986 42.4771 104.141 43.7262L104.128 43.7321C102.634 44.388 101.173 45.0292 100.118 46.3254C98.3893 48.4493 97.2016 50.868 95.643 53.0944C94.9041 54.1501 94.6204 55.5022 93.8124 56.5411C92.9507 57.6489 92.2859 59.242 91.6765 60.5076C90.5742 62.797 90.0608 64.6306 89.6989 67.1184C89.488 68.5689 89.5331 70.057 89.2921 71.5031C89.1046 72.6283 88.6357 73.7373 88.3655 74.848C87.6991 77.5876 87.8364 80.5997 87.5066 83.4026C87.3286 84.9158 86.8964 86.3154 86.8964 87.855C86.8964 88.8787 87.2019 89.9043 87.3145 90.9175C87.4229 91.8928 88.023 92.8678 88.4107 93.7539C88.7031 94.4222 88.7594 95.2277 89.1339 95.8445C89.83 96.9909 90.0778 98.2791 90.603 99.4607C91.0725 100.517 91.4166 102.042 91.4166 103.187C91.4166 104.596 91.2117 105.625 91.4166 106.752C91.5652 107.569 92.0584 108.06 92.6032 108.741C93.4834 109.841 93.267 111.797 94.5243 112.764C95.8131 113.755 96.1166 115.418 97.2251 116.527C97.9855 117.287 98.6949 117.53 99.7678 118.007C100.196 118.198 100.743 118.112 101.192 118.301C101.613 118.479 103.411 118.785 103.881 118.785C105.015 118.785 106.209 119.716 107.124 120.299C108.076 120.905 108.255 121.092 108.255 122.243C108.255 123.458 107.459 123.75 106.876 124.684C106.225 125.726 105.055 126.843 104.175 127.723C101.923 129.976 98.6803 131.334 97.2251 134.244C96.248 136.198 94.8481 137.527 92.7049 137.917C91.1188 138.205 89.5161 138.728 87.9247 139.126C87.0402 139.347 86.1101 139.697 85.2691 140.041C84.2055 140.476 83.0381 140.544 82.0597 141.16C81.4296 141.557 80.4823 141.631 79.777 141.974C78.8947 142.402 77.942 142.773 77.0197 143.104C75.7206 143.569 74.4192 144.625 73.2001 145.296C71.7018 146.12 70.3206 146.922 68.8946 147.872C67.4477 148.837 66.2 149.21 65.4366 150.822C64.7171 152.341 64.3178 153.926 64.3178 155.602Z" fill="#E6ECEF"/>
</g>
</g>
<defs>
<clipPath id="clip0_1545_6130">
<rect width="264" height="200" fill="white"/>
</clipPath>
<clipPath id="clip1_1545_6130">
<rect width="160" height="160" fill="white" transform="translate(52)"/>
</clipPath>
</defs>
</svg>
