<svg width="264" height="440" viewBox="0 0 264 440" fill="none" xmlns="http://www.w3.org/2000/svg">
<rect width="264" height="440" fill="#FCFDFA"/>
<g clip-path="url(#clip0_1545_6105)">
<rect width="264" height="200" fill="#8A6262"/>
<g clip-path="url(#clip1_1545_6105)">
<rect width="160" height="160" transform="translate(52)" fill="#8A6262"/>
<path d="M78.6553 163.96C77.7734 164.842 77.1796 165.436 76.0264 166.163C75.7683 166.163 75.0136 167.034 75.2718 167.034C76.066 167.034 76.8249 167.023 77.6035 167.218C82.613 168.47 87.4393 168.949 92.5903 168.949C99.5767 168.949 106.562 168.746 113.527 168.253C120.434 167.764 127.225 167.417 134.155 167.382C138.306 167.361 142.468 167.143 146.616 166.995C151.833 166.809 156.967 166.009 162.203 166.086C167.462 166.163 172.45 166.799 177.645 167.556L177.693 167.563C181.789 168.16 185.857 168.753 190 168.911C192.297 168.998 194.435 168.968 196.676 168.466C198.049 168.158 199.553 168.151 200.72 167.276C201.772 166.487 202.77 164.455 202.026 163.115C200.856 161.008 198.023 160.3 196.057 159.236C194.8 158.556 193.526 158.151 192.225 157.591C191.318 157.2 190.549 156.552 189.652 156.149C186.577 154.771 184.345 150.983 180.779 150.673C179.306 150.545 178.072 149.694 176.648 149.348C174.524 148.83 172.514 148.109 170.437 147.442C169.403 147.109 168.255 146.957 167.283 146.445C166.192 145.871 166.295 144.076 165.889 143.039C165.612 142.331 165.415 141.413 165.019 140.775C164.688 140.243 164.233 139.796 163.896 139.266C163.586 138.778 163.096 138.518 162.851 137.96C162.683 137.575 162.519 137.224 162.232 136.905C161.057 135.6 160.789 133.861 159.484 132.687C159.037 132.285 158.498 132.517 157.975 132.368C157.525 132.239 157.36 131.348 157.22 130.945C156.872 129.939 156.467 129.111 156.224 128.043C155.816 126.246 155.963 124.379 155.963 122.547C155.963 119.06 156.566 115.714 156.843 112.253C156.904 111.486 157.008 110.776 157.008 109.999C157.008 109.197 157.33 108.476 157.356 107.686C157.388 106.71 157.378 105.603 157.569 104.648C157.886 103.06 159.006 101.382 159.804 99.9849C160.563 98.656 161.53 97.5182 162.232 96.1535C163.008 94.6454 163.797 93.2073 164.419 91.6255C165.126 89.826 165.457 88.0944 165.976 86.2461C166.621 83.9538 166.55 81.4877 166.586 79.1252C166.601 78.131 166.934 77.2098 166.934 76.2033V73.6684C166.934 69.9525 166.849 66.3131 166.576 62.6291C166.405 60.3211 166.017 57.7982 165.106 55.6726C164.738 54.8136 164.014 54.1189 163.548 53.3119C163.033 52.4198 163.058 51.4716 162.755 50.5254C162.383 49.3667 162.027 48.1165 161.361 47.0811C159.846 44.7243 159.564 41.5879 157.53 39.5538C156.867 38.8909 156.179 38.174 155.44 37.5994C154.852 37.1423 154.102 36.8213 153.621 36.2449C152.852 35.3216 151.483 34.3785 150.457 33.71C149.355 32.991 148.131 32.3615 147.081 31.5815C146.316 31.0131 145.965 31.0784 145.678 30.0721C145.634 29.9197 145.761 29.7483 145.668 29.54C145.449 29.0458 144.541 28.8982 144.198 28.4467C143.738 27.8416 142.264 27.7768 141.585 27.5372C140.632 27.2008 139.625 26.8096 138.557 26.6761C137.698 26.5687 136.627 26.4994 135.838 26.1053C135.393 25.8827 134.495 25.4474 134.01 25.4474C132.853 25.4474 132.021 24.4637 131.02 24.0929C130.272 23.816 129.651 23.4097 129.037 22.9319C128.342 22.3914 126.699 22.661 125.873 22.661C123.418 22.661 120.974 22.8351 118.529 22.8351C117.192 22.8351 116.054 23.766 114.94 24.4025C113.308 25.335 111.441 26.0395 109.677 26.6278C109.088 26.8241 108.309 27.4193 107.809 27.8081C107.388 28.1361 106.561 28.6711 106.29 29.1046C105.953 29.6447 104.57 30.0533 103.988 30.1592C103.535 30.2415 102.789 30.6486 102.411 30.9429C101.111 31.9535 100.067 33.1027 98.9276 34.2421C98.1815 34.9882 97.241 35.3123 96.4023 35.9353C95.4373 36.6522 94.4705 37.3508 93.5288 38.0832C92.7562 38.6841 92.3611 39.5336 91.9518 40.4246C91.5226 41.3587 91.8021 42.2217 91.1004 43.1239C90.7932 43.5189 90.3757 44.048 90.1715 44.5075C89.8471 45.2374 89.9854 46.216 89.4362 46.8682C88.1589 48.385 88.8388 50.3463 88.0043 52.0154C87.3858 53.2525 87.4609 54.9266 87.1335 56.2725C86.9758 56.921 86.842 57.6944 86.8239 58.3623C86.8064 59.0117 86.5325 59.5532 86.4853 60.1909C86.3302 62.285 86.1273 64.2855 86.1273 66.4121V71.4431C86.1273 72.5698 85.821 74.2803 86.3111 75.3422C86.5895 75.9454 87.2445 76.4183 87.5979 76.9967C87.9267 77.5346 88.1154 78.1702 88.3913 78.7382C88.8518 79.6863 89.1943 80.7593 89.2717 81.8052C89.3215 82.4764 89.4272 83.1477 89.6104 83.7887C89.74 84.2422 90.1484 84.5549 90.2683 85.0077C90.4277 85.6098 90.6926 86.1397 90.8391 86.6525C90.9124 86.9088 91.1778 86.7334 91.1778 87.1846C91.1778 87.4574 91.2074 87.6265 91.0423 87.8329C90.8775 88.0389 91.0819 88.3157 90.8681 88.5295C90.7151 88.6825 90.5579 88.8822 90.3941 89.0132C89.4884 89.7378 91.2963 93.2035 91.5648 93.9282C92.216 95.6867 93.0261 97.3156 93.6546 99.0754C94.2446 100.727 94.9358 102.361 95.7928 103.903C96.0997 104.456 96.2626 104.845 96.7893 105.209C97.3121 105.571 98.002 105.66 98.1535 106.341C98.3417 107.188 98.7548 108.867 99.8854 108.867C100.929 108.867 101.451 110.354 101.84 111.131C102.705 112.861 103.673 113.926 104.762 115.473C106.635 118.136 106.263 120.395 106.813 124.087C107.209 126.752 107.548 129.505 107.548 132.116C107.548 133.461 107.476 135.189 106.813 136.383C106.509 136.93 106.025 137.567 105.545 137.95C105.108 138.3 105.044 139.097 104.762 139.556C103.908 140.944 103.213 142.455 102.411 143.881L102.409 143.884C101.849 144.88 101.279 145.893 100.756 146.909C100.273 147.85 99.4161 148.944 99.1888 149.967C98.7959 151.735 97.4514 153.079 96.2111 154.318L96.1314 154.398C95.1996 155.33 93.6714 155.783 92.4162 156.062C91.8195 156.195 91.0863 156.41 90.4811 156.41C89.9618 156.41 89.5366 156.706 89.0879 156.759C88.418 156.838 88.0585 157.874 87.4335 158.152C86.8762 158.4 86.4836 158.894 86.0886 159.332C85.4191 160.076 83.6869 160.155 82.741 160.426C81.8925 160.668 81.1033 161.874 80.3029 162.332C79.7692 162.637 79.1274 163.488 78.6774 163.938L78.6553 163.96Z" fill="#E6ECEF"/>
</g>
<mask id="path-2-inside-1_1545_6105" fill="white">
<path d="M0 160H264V200H0V160Z"/>
</mask>
<path d="M0 160H264V200H0V160Z" fill="#8A6262"/>
<path d="M0 160V161H264V160V159H0V160Z" fill="#E6ECEF" mask="url(#path-2-inside-1_1545_6105)"/>
</g>
<defs>
<clipPath id="clip0_1545_6105">
<rect width="264" height="200" fill="white"/>
</clipPath>
<clipPath id="clip1_1545_6105">
<rect width="160" height="160" fill="white" transform="translate(52)"/>
</clipPath>
</defs>
</svg>
