<svg width="264" height="440" viewBox="0 0 264 440" fill="none" xmlns="http://www.w3.org/2000/svg">
<rect width="264" height="440" fill="#FCFDFA"/>
<g clip-path="url(#clip0_1545_6117)">
<rect width="264" height="200" fill="#6E7463"/>
<mask id="path-1-inside-1_1545_6117" fill="white">
<path d="M0 160H264V200H0V160Z"/>
</mask>
<path d="M0 160H264V200H0V160Z" fill="#6E7463"/>
<path d="M0 160V161H264V160V159H0V160Z" fill="#E6ECEF" mask="url(#path-1-inside-1_1545_6117)"/>
<g clip-path="url(#clip1_1545_6117)">
<rect width="160" height="160" transform="translate(52)" fill="#6E7463"/>
<path d="M106.717 55.1753C107.106 56.1849 107.184 57.452 107.561 58.5038C107.889 59.4167 108.261 60.5609 107.432 61.0649C107.064 61.2891 106.642 61.4314 106.221 61.5845C105.696 61.7754 105.307 61.5749 104.831 62.0257C104.296 62.5325 103.785 63.1617 103.441 63.8128C102.783 65.0588 102.034 65.9257 101.058 66.9016C100.137 67.8223 100.013 68.9191 99.58 70.1558C98.3106 73.7827 96.7723 77.4649 95.8073 81.1872C95.1579 83.6918 94.8726 86.4215 93.612 88.7436C92.3488 91.0706 91.2285 93.2545 89.6959 95.4286C88.7447 96.7781 87.6508 97.8951 86.6071 99.1572C86.0021 99.8889 85.0124 100.804 84.5774 101.628C83.6707 103.346 83.2258 105.337 82.3932 107.1C81.5504 108.885 80.9633 110.887 80.3193 112.748C79.7143 114.496 78.8712 116.235 78.4219 118.032C78.2307 118.797 77.7644 119.461 77.5283 120.216C77.3691 120.726 77.2394 121.683 76.9216 122.091C76.3789 122.789 76.2377 123.779 75.7964 124.573C75.3883 125.308 74.4793 125.5 74.2079 126.206C73.9514 126.873 73.7209 128.938 72.9724 129.151C72.1316 129.392 71.2736 130.754 71.2736 131.633C71.2736 132.822 70.5295 134.226 70.2697 135.395C70.0295 136.476 68.5956 137.38 68.0193 138.341C67.4976 139.21 67.5683 140.766 67.8539 141.694C68.2887 143.107 68.359 144.646 69.0452 146.018C69.7094 147.347 71.1283 147.567 72.2554 148.412C72.9621 148.942 73.2942 149.842 73.9432 150.398C74.2591 150.669 75.2186 152.125 75.2449 152.571C75.3007 153.521 74.8775 154.646 74.8477 155.66C74.8212 156.561 74.7649 157.804 74.4947 158.682C74.2201 159.575 74.4582 160.65 74.0976 161.506C73.8114 162.186 73.8549 163.45 73.8549 164.187C73.8549 166.112 72.465 167.677 72.465 169.603C72.465 170.524 72.2664 171.472 72.2664 172.427C72.2664 173.3 72.0888 174.136 73.2592 173.718C74.7097 173.2 78.138 174.545 78.6204 172.615C79.051 170.893 79.6133 168.94 79.6133 167.165C79.6133 165.445 80.146 163.757 80.209 162.058C80.2592 160.701 80.6054 159.227 80.8488 157.888C81.0836 156.597 81.0032 155.273 81.0032 153.961C81.0032 152.282 82.4619 150.855 83.9044 150.078C85.0603 149.455 86.6274 148.011 86.3534 146.504C86.2945 146.18 85.7347 143.943 86.0776 143.845C86.7643 143.649 87.6441 144.154 87.9529 143.227C88.1879 142.523 88.485 141.229 89.1443 140.9C90.6059 140.169 92.0654 139.832 93.2701 138.627C94.1044 137.793 94.7659 136.823 95.5977 135.991C96.361 135.227 96.9105 134.275 97.7819 133.597C98.5114 133.03 99.4568 132.432 100.021 131.722C100.093 131.631 101.242 130.207 101.257 130.221C101.374 130.339 101.288 131.343 101.213 131.523C100.738 132.65 100.901 134.073 100.462 135.252C99.8978 136.769 99.9027 138.613 100.109 140.216C100.384 142.342 100.311 144.502 100.076 146.614C100.015 147.166 100.065 147.746 100.065 148.302C100.065 148.79 99.7205 149.296 99.6572 149.802C99.5622 150.562 99.1925 151.54 98.9733 152.295C98.6578 153.382 98.4761 154.821 98.7195 155.947C99.1359 157.872 99.6331 159.71 100.054 161.606C100.453 163.399 100.918 165.178 101.246 166.978C101.492 168.33 101.328 169.001 102.757 169.261C104.117 169.509 105.646 169.846 107.015 169.846C110.363 169.846 113.626 170.827 116.943 171.192C122.746 171.83 128.518 173.292 134.373 173.409C144.716 173.616 155.113 173.509 165.459 173.42C167.846 173.4 170.16 172.679 172.541 172.626C174.579 172.58 176.869 172.342 178.873 171.986C183.036 171.248 187.279 171.023 191.427 170.199C192.697 169.947 194.282 170.029 194.979 168.809C195.437 168.007 195.726 166.419 195.773 165.478C195.857 163.801 196.369 162.205 196.369 160.514C196.369 157.207 195.105 153.573 193.986 150.497C192.96 147.676 193.092 144.378 192.442 141.451C191.422 136.862 191.975 131.9 190.809 127.309C190.157 124.742 190.099 121.922 189.662 119.3C189.471 118.158 189.233 117.027 189.066 115.881C188.834 114.278 188.906 112.685 188.724 111.082C188.145 105.981 188.425 100.701 188.228 95.5831C188.097 92.1797 185.959 89.6829 184.654 86.747C183.307 83.7177 182.787 80.397 181.962 77.2159C181.504 75.4505 180.504 73.8018 179.778 72.1415C179.394 71.2636 178.374 70.3021 178.3 69.3285C178.196 67.9809 177.205 66.6071 177.108 65.2469C177.044 64.3538 176.273 63.4426 175.807 62.7097C174.981 61.4132 174.557 60.2688 173.435 59.1466C172.405 58.1171 171.016 57.4665 169.96 56.466C167.652 54.2791 164.489 53.0242 161.576 52.0534C159.261 51.2818 157.22 49.8973 155.068 48.8212C152.602 47.5884 150.382 46.6811 148.272 44.9934C147.493 44.3696 146.186 45.3514 146.684 43.802C147.278 41.9526 146.836 40.0927 147.224 38.2312C147.79 35.5172 147.522 32.9942 147.522 30.2445C147.522 27.6473 146.951 25.2808 146.088 22.8645C145.257 20.5374 143.413 17.3759 141.168 16.1574C139.274 15.1294 137.742 13.8128 135.454 13.5761C134.35 13.462 133.085 12.8818 132.034 12.473C129.909 11.6464 127.824 10.5977 125.482 10.5977C123.197 10.5977 121.126 10.871 118.929 11.436C116.562 12.0447 114.176 13.0243 111.781 13.3665C109.691 13.6651 108.799 15.2095 107.17 16.356C103.066 19.2438 101.914 24.1069 101.069 28.7552C100.871 29.8437 100.413 30.9467 100.275 32.0536C100.059 33.7803 100.017 35.6571 100.065 37.4038C100.116 39.2202 100.662 41.1225 102.15 42.2797C102.889 42.8541 103.689 43.5868 104.346 44.2432C104.585 44.4828 104.893 44.6072 105.029 44.9492C105.166 45.2917 105.152 45.7252 105.327 46.0413C105.709 46.7276 105.228 47.8633 105.228 48.6116C105.228 49.3345 105.39 50.0846 105.427 50.7076C105.511 52.1458 106.194 53.8152 106.717 55.1753Z" fill="#E6ECEF"/>
</g>
</g>
<defs>
<clipPath id="clip0_1545_6117">
<rect width="264" height="200" fill="white"/>
</clipPath>
<clipPath id="clip1_1545_6117">
<rect width="160" height="160" fill="white" transform="translate(52)"/>
</clipPath>
</defs>
</svg>
