<svg width="200" height="80" viewBox="0 0 200 80" fill="none" xmlns="http://www.w3.org/2000/svg">
<g clip-path="url(#clip0_1809_14221)">
<path d="M200 0H0L40 80H200V0Z" fill="#BB4E2D"/>
<path d="M76.4367 28.7812C80.0461 28.7812 82.6164 30.791 82.6437 33.7578C82.6164 36.2188 80.7707 38.0645 78.0227 38.5703V40.5664C80.0871 40.4434 82.1516 40.2656 84.0656 39.9922L84.3117 42.207C79.1711 43.123 73.4289 43.2324 69.2453 43.2188L68.9172 40.7852C70.6945 40.7852 72.7727 40.7715 74.9602 40.7031V38.584C72.1301 38.1055 70.2434 36.2598 70.257 33.7578C70.2434 30.791 72.8137 28.7812 76.4367 28.7812ZM72.3078 51.9141V44.9414H75.343V49.4531H89.425V51.9141H72.3078ZM73.1008 33.7578C73.0734 35.3848 74.468 36.3965 76.4367 36.4102C78.4191 36.3965 79.759 35.3848 79.7727 33.7578C79.759 32.0898 78.4191 31.1055 76.4367 31.1055C74.468 31.1055 73.0734 32.0898 73.1008 33.7578ZM85.5148 46.6094V27.7422H88.55V35.7266H91.8859V38.2422H88.55V46.6094H85.5148ZM115.057 47.0469V49.5625H92.4711V47.0469H98.4594V42.9727H95.1508V34.9062H109.37V31.8711H95.0961V29.4102H112.377V37.3398H98.1859V40.5117H112.952V42.9727H109.342V47.0469H115.057ZM101.412 47.0469H106.362V42.9727H101.412V47.0469ZM135.33 27.7148V37.5586H139.13V40.0742H135.33V52.4336H132.322V27.7148H135.33ZM115.834 33.9492V31.5156H121.685V28.0703H124.72V31.5156H130.408V33.9492H115.834ZM116.982 41.3867C116.955 37.9688 119.607 35.5488 123.216 35.5625C126.771 35.5488 129.41 37.9688 129.423 41.3867C129.41 44.791 126.771 47.1836 123.216 47.1836C119.607 47.1836 116.955 44.791 116.982 41.3867ZM119.88 41.3867C119.867 43.3965 121.275 44.6816 123.216 44.668C125.117 44.6816 126.498 43.3965 126.525 41.3867C126.498 39.377 125.117 38.0508 123.216 38.0508C121.275 38.0508 119.867 39.377 119.88 41.3867ZM160.114 27.7148V52.4336H157.052V27.7148H160.114ZM139.634 45.625C146.114 42.5488 149.095 38.3652 149.641 32.7461H140.891V30.3398H152.731C152.731 37.6953 149.874 43.9434 141.22 48.0586L139.634 45.625Z" fill="white"/>
</g>
<defs>
<clipPath id="clip0_1809_14221">
<rect width="200" height="80" fill="white" transform="matrix(-1 0 0 1 200 0)"/>
</clipPath>
</defs>
</svg>
