<svg width="264" height="72" viewBox="0 0 264 72" fill="none" xmlns="http://www.w3.org/2000/svg">
<g clip-path="url(#clip0_793_3959)">
<mask id="path-1-inside-1_793_3959" fill="white">
<path d="M256 0L264 8V64L256 72H8L0 64V8L8 0H256Z"/>
</mask>
<path d="M256 0L257.414 -1.41421L256.828 -2H256V0ZM264 8H266V7.17157L265.414 6.58579L264 8ZM264 64L265.414 65.4142L266 64.8284V64H264ZM256 72V74H256.828L257.414 73.4142L256 72ZM8 72L6.58579 73.4142L7.17157 74H8V72ZM0 64H-2V64.8284L-1.41421 65.4142L0 64ZM0 8L-1.41421 6.58579L-2 7.17157V8H0ZM8 0V-2H7.17157L6.58579 -1.41421L8 0ZM256 0L254.586 1.41421L262.586 9.41421L264 8L265.414 6.58579L257.414 -1.41421L256 0ZM264 8H262V64H264H266V8H264ZM264 64L262.586 62.5858L254.586 70.5858L256 72L257.414 73.4142L265.414 65.4142L264 64ZM256 72V70H8V72V74H256V72ZM8 72L9.41421 70.5858L1.41421 62.5858L0 64L-1.41421 65.4142L6.58579 73.4142L8 72ZM0 64H2V8H0H-2V64H0ZM0 8L1.41421 9.41421L9.41421 1.41421L8 0L6.58579 -1.41421L-1.41421 6.58579L0 8ZM8 0V2H256V0V-2H8V0Z" fill="#0D575C" mask="url(#path-1-inside-1_793_3959)"/>
<mask id="path-3-inside-2_793_3959" fill="white">
<path d="M260 10V62L254.432 67.5684H9.56836L4 62V10L9.57031 4.42969H254.43L260 10Z"/>
</mask>
<path d="M260 10V62L254.432 67.5684H9.56836L4 62V10L9.57031 4.42969H254.43L260 10Z" fill="#0D575C"/>
<path d="M260 10H261V9.58579L260.707 9.29289L260 10ZM260 62L260.707 62.7071L261 62.4142V62H260ZM254.432 67.5684V68.5684H254.846L255.139 68.2755L254.432 67.5684ZM9.56836 67.5684L8.86125 68.2755L9.15415 68.5684H9.56836V67.5684ZM4 62H3V62.4142L3.29289 62.7071L4 62ZM4 10L3.29289 9.29289L3 9.58579V10H4ZM9.57031 4.42969V3.42969H9.1561L8.86321 3.72258L9.57031 4.42969ZM254.43 4.42969L255.137 3.72258L254.844 3.42969H254.43V4.42969ZM260 10H259V62H260H261V10H260ZM260 62L259.293 61.2929L253.725 66.8613L254.432 67.5684L255.139 68.2755L260.707 62.7071L260 62ZM254.432 67.5684V66.5684H9.56836V67.5684V68.5684H254.432V67.5684ZM9.56836 67.5684L10.2755 66.8613L4.70711 61.2929L4 62L3.29289 62.7071L8.86125 68.2755L9.56836 67.5684ZM4 62H5V10H4H3V62H4ZM4 10L4.70711 10.7071L10.2774 5.13679L9.57031 4.42969L8.86321 3.72258L3.29289 9.29289L4 10ZM9.57031 4.42969V5.42969H254.43V4.42969V3.42969H9.57031V4.42969ZM254.43 4.42969L253.723 5.13679L259.293 10.7071L260 10L260.707 9.29289L255.137 3.72258L254.43 4.42969Z" fill="#0D575C" mask="url(#path-3-inside-2_793_3959)"/>
<path d="M109.697 26.8594V28.9453H103.556C103.791 30.9492 106.38 32.8477 110.47 33.3281L109.486 35.3906C105.689 34.9336 102.888 33.2578 101.752 30.9727C100.615 33.2461 97.8375 34.9336 94.0406 35.3906L93.0797 33.3281C97.1695 32.8477 99.7242 30.9375 99.9703 28.9453H93.8766V26.8594H109.697ZM92.0953 38.6719V36.5625H111.455V38.6719H103.275V42.5391H100.697V38.6719H92.0953ZM94.4391 46.6641V40.5938H97.0406V44.5547H109.322V46.6641H94.4391ZM129.886 25.8984V47.1094H127.261V25.8984H129.886ZM113.386 42.1172V27.6328H115.988V32.9297H121.12V27.6328H123.698V42.1172H113.386ZM115.988 39.9844H121.12V34.9688H115.988V39.9844ZM148.997 25.8984V34.3359H152.255V36.4922H148.997V47.0859H146.419V25.8984H148.997ZM132.286 31.2422V29.1562H137.302V26.2031H139.903V29.1562H144.778V31.2422H132.286ZM133.27 37.6172C133.247 34.6875 135.52 32.6133 138.614 32.625C141.661 32.6133 143.923 34.6875 143.934 37.6172C143.923 40.5352 141.661 42.5859 138.614 42.5859C135.52 42.5859 133.247 40.5352 133.27 37.6172ZM135.755 37.6172C135.743 39.3398 136.95 40.4414 138.614 40.4297C140.243 40.4414 141.427 39.3398 141.45 37.6172C141.427 35.8945 140.243 34.7578 138.614 34.7578C136.95 34.7578 135.743 35.8945 135.755 37.6172ZM170.241 25.8984V47.0859H167.616V25.8984H170.241ZM152.686 41.25C158.241 38.6133 160.795 35.0273 161.264 30.2109H153.764V28.1484H163.913C163.913 34.4531 161.463 39.8086 154.045 43.3359L152.686 41.25Z" fill="#E6ECEF"/>
</g>
<defs>
<clipPath id="clip0_793_3959">
<rect width="264" height="72" fill="white"/>
</clipPath>
</defs>
</svg>
