<svg width="264" height="72" viewBox="0 0 264 72" fill="none" xmlns="http://www.w3.org/2000/svg">
<g clip-path="url(#clip0_679_1816)">
<mask id="path-1-inside-1_679_1816" fill="white">
<path d="M256 0L264 8V64L256 72H8L0 64V8L8 0H256Z"/>
</mask>
<path d="M256 0L257.414 -1.41421L256.828 -2H256V0ZM264 8H266V7.17157L265.414 6.58579L264 8ZM264 64L265.414 65.4142L266 64.8284V64H264ZM256 72V74H256.828L257.414 73.4142L256 72ZM8 72L6.58579 73.4142L7.17157 74H8V72ZM0 64H-2V64.8284L-1.41421 65.4142L0 64ZM0 8L-1.41421 6.58579L-2 7.17157V8H0ZM8 0V-2H7.17157L6.58579 -1.41421L8 0ZM256 0L254.586 1.41421L262.586 9.41421L264 8L265.414 6.58579L257.414 -1.41421L256 0ZM264 8H262V64H264H266V8H264ZM264 64L262.586 62.5858L254.586 70.5858L256 72L257.414 73.4142L265.414 65.4142L264 64ZM256 72V70H8V72V74H256V72ZM8 72L9.41421 70.5858L1.41421 62.5858L0 64L-1.41421 65.4142L6.58579 73.4142L8 72ZM0 64H2V8H0H-2V64H0ZM0 8L1.41421 9.41421L9.41421 1.41421L8 0L6.58579 -1.41421L-1.41421 6.58579L0 8ZM8 0V2H256V0V-2H8V0Z" fill="#354750" mask="url(#path-1-inside-1_679_1816)"/>
<mask id="path-3-inside-2_679_1816" fill="white">
<path d="M260 10V62L254.431 67.5693H9.56934L4 62V10L9.56934 4.43066H254.431L260 10Z"/>
</mask>
<path d="M260 10V62L254.431 67.5693H9.56934L4 62V10L9.56934 4.43066H254.431L260 10Z" fill="#354750"/>
<path d="M260 10H261V9.58579L260.707 9.29289L260 10ZM260 62L260.707 62.7071L261 62.4142V62H260ZM254.431 67.5693V68.5693H254.845L255.138 68.2764L254.431 67.5693ZM9.56934 67.5693L8.86223 68.2764L9.15512 68.5693H9.56934V67.5693ZM4 62H3V62.4142L3.29289 62.7071L4 62ZM4 10L3.29289 9.29289L3 9.58579V10H4ZM9.56934 4.43066V3.43066H9.15512L8.86223 3.72356L9.56934 4.43066ZM254.431 4.43066L255.138 3.72356L254.845 3.43066H254.431V4.43066ZM260 10H259V62H260H261V10H260ZM260 62L259.293 61.2929L253.724 66.8622L254.431 67.5693L255.138 68.2764L260.707 62.7071L260 62ZM254.431 67.5693V66.5693H9.56934V67.5693V68.5693H254.431V67.5693ZM9.56934 67.5693L10.2764 66.8622L4.70711 61.2929L4 62L3.29289 62.7071L8.86223 68.2764L9.56934 67.5693ZM4 62H5V10H4H3V62H4ZM4 10L4.70711 10.7071L10.2764 5.13777L9.56934 4.43066L8.86223 3.72356L3.29289 9.29289L4 10ZM9.56934 4.43066V5.43066H254.431V4.43066V3.43066H9.56934V4.43066ZM254.431 4.43066L253.724 5.13777L259.293 10.7071L260 10L260.707 9.29289L255.138 3.72356L254.431 4.43066Z" fill="#354750" mask="url(#path-3-inside-2_679_1816)"/>
<path d="M109.697 26.8594V28.9453H103.556C103.791 30.9375 106.38 32.8359 110.47 33.3281L109.486 35.3906C105.689 34.9336 102.888 33.2578 101.752 30.9609C100.615 33.2461 97.8375 34.9336 94.0406 35.3906L93.0797 33.3281C97.1695 32.8359 99.7242 30.9375 99.9703 28.9453H93.8766V26.8594H109.697ZM111.455 36.5625V38.6719H103.275V42.5391H100.697V38.6719H92.0953V36.5625H111.455ZM109.322 44.5547V46.6641H94.4391V40.5938H97.0406V44.5547H109.322ZM129.886 25.8984V47.1094H127.261V25.8984H129.886ZM115.988 27.6328V32.9297H121.12V27.6328H123.698V42.1172H113.386V27.6328H115.988ZM115.988 39.9844H121.12V34.9688H115.988V39.9844ZM148.997 25.8984V34.3359H152.255V36.4922H148.997V47.0859H146.419V25.8984H148.997ZM144.778 29.1562V31.2422H132.286V29.1562H137.302V26.2031H139.903V29.1562H144.778ZM138.614 32.625C141.661 32.625 143.934 34.6875 143.934 37.6172C143.934 40.5469 141.661 42.5859 138.614 42.5859C135.52 42.5859 133.247 40.5469 133.27 37.6172C133.247 34.6875 135.52 32.625 138.614 32.625ZM138.614 34.7578C136.95 34.7578 135.755 35.8828 135.755 37.6172C135.755 39.3516 136.95 40.4531 138.614 40.4297C140.231 40.4531 141.427 39.3516 141.45 37.6172C141.427 35.8828 140.231 34.7578 138.614 34.7578ZM170.241 25.8984V47.0859H167.616V25.8984H170.241ZM163.913 28.1484C163.913 34.4531 161.475 39.8203 154.045 43.3359L152.686 41.25C158.229 38.6133 160.807 35.0273 161.264 30.2109H153.764V28.1484H163.913Z" fill="#E6ECEF"/>
</g>
<defs>
<clipPath id="clip0_679_1816">
<rect width="264" height="72" fill="white"/>
</clipPath>
</defs>
</svg>
