<svg width="168" height="168" viewBox="0 0 168 168" fill="none" xmlns="http://www.w3.org/2000/svg">
<path d="M119 28H49V140H105.656L112.566 147H28L42 133V21H126L119 28ZM126 118.434L119 111.696V35L126 28V118.434Z" fill="#0D575C"/>
<path d="M97.6455 123.83L120.814 146.999L133.321 134.492L110.152 111.323C109.845 111.015 109.479 110.77 109.077 110.604C108.675 110.437 108.243 110.351 107.808 110.351C107.373 110.351 106.941 110.437 106.539 110.604C106.137 110.77 105.771 111.015 105.463 111.323L103.899 112.887L91.1932 100.181L105.424 85.9509L94.3752 74.9023L80.1446 89.1329L79.1724 88.1606L74.4834 88.1606L74.4834 92.8496L75.4556 93.8219L65.6445 103.633L65.6445 125.73L86.5042 104.87L99.21 117.576L97.6455 119.141C97.3375 119.449 97.0932 119.814 96.9265 120.216C96.7598 120.619 96.674 121.05 96.674 121.485C96.674 121.921 96.7598 122.352 96.9265 122.754C97.0932 123.156 97.3375 123.522 97.6455 123.83Z" fill="#0D575C"/>
<path d="M147 147L140 140L135.052 140L128.319 147L147 147Z" fill="#0D575C"/>
</svg>
