<svg width="168" height="169" viewBox="0 0 168 169" fill="none" xmlns="http://www.w3.org/2000/svg">
<path d="M49 140.5H42L119 28.5H126L49 140.5Z" fill="#0D575C"/>
<path d="M119 140.5H126L49 28.5H42L119 140.5Z" fill="#0D575C"/>
<path d="M98 28.5H105L84 59.5L63 28.5H70L84 49.5L98 28.5Z" fill="#0D575C"/>
<path d="M98 140.5H105L84 109.5L63 140.5H70L84 119.5L98 140.5Z" fill="#0D575C"/>
<path d="M147 28.5H140L101.5 84.5L140 140.5H147L108.5 84.5L147 28.5Z" fill="#0D575C"/>
<path d="M20.9999 28.5H27.9999L66.4999 84.5L28 140.5H21L59.4999 84.5L20.9999 28.5Z" fill="#0D575C"/>
</svg>
