<svg width="24" height="24" viewBox="0 0 24 24" fill="none" xmlns="http://www.w3.org/2000/svg">
<g clip-path="url(#clip0_43_490)">
<path d="M9 12C9 11.2044 9.31607 10.4413 9.87868 9.87868C10.4413 9.31607 11.2044 9 12 9C12.7956 9 13.5587 9.31607 14.1213 9.87868C14.6839 10.4413 15 11.2044 15 12C15 12.7956 14.6839 13.5587 14.1213 14.1213C13.5587 14.6839 12.7956 15 12 15C11.2044 15 10.4413 14.6839 9.87868 14.1213C9.31607 13.5587 9 12.7956 9 12Z" fill="#98A3AA"/>
<path d="M12 3C6.41997 3 1.69797 6.654 0.0899668 11.696L-0.0090332 12L0.0879668 12.304C1.69997 17.346 6.42097 21 12 21C17.579 21 22.302 17.346 23.91 12.304L24.008 12L23.911 11.696C22.3 6.654 17.578 3 12 3ZM12 7C13.326 7 14.5978 7.52678 15.5355 8.46447C16.4732 9.40215 17 10.6739 17 12C17 13.3261 16.4732 14.5979 15.5355 15.5355C14.5978 16.4732 13.326 17 12 17C10.6739 17 9.40211 16.4732 8.46443 15.5355C7.52675 14.5979 6.99997 13.3261 6.99997 12C6.99997 10.6739 7.52675 9.40215 8.46443 8.46447C9.40211 7.52678 10.6739 7 12 7Z" fill="#98A3AA"/>
</g>
<defs>
<clipPath id="clip0_43_490">
<rect width="24" height="24" fill="white"/>
</clipPath>
</defs>
</svg>
