<svg width="24" height="24" viewBox="0 0 24 24" fill="none" xmlns="http://www.w3.org/2000/svg">
<g clip-path="url(#clip0_43_492)">
<path d="M3.00394 1.59L2.99994 1.586L1.58594 3L4.26594 5.68C2.30419 7.22331 0.849397 9.3186 0.0889434 11.696L-0.00805664 12L0.0889434 12.304C1.69994 17.346 6.42094 21 11.9999 21C14.1899 21 16.2469 20.437 18.0359 19.45L20.9999 22.413L22.4099 21.003L2.99994 1.594L3.00394 1.59ZM6.99994 12C6.99994 10.98 7.30494 10.033 7.82794 9.243L9.29194 10.707C9.02423 11.2668 8.93673 11.8959 9.04148 12.5076C9.14624 13.1193 9.4381 13.6834 9.87685 14.1222C10.3156 14.5611 10.8796 14.8531 11.4913 14.958C12.1029 15.0629 12.732 14.9756 13.2919 14.708L14.7569 16.172C14.0033 16.6701 13.1288 16.9548 12.2263 16.9957C11.3239 17.0366 10.4272 16.8322 9.63158 16.4043C8.83597 15.9764 8.17115 15.3409 7.70778 14.5654C7.24441 13.7899 6.9998 12.9034 6.99994 12ZM21.1979 16.964C22.4302 15.6264 23.3557 14.0361 23.9099 12.304L24.0069 12L23.9099 11.696C22.2999 6.654 17.5779 3 11.9999 3C10.5699 3 9.19594 3.24 7.91594 3.682L11.2849 7.051C11.5183 7.017 11.7566 7 11.9999 7C12.7171 6.9998 13.4259 7.15387 14.0782 7.45177C14.7306 7.74966 15.3112 8.1844 15.7808 8.72648C16.2503 9.26856 16.5977 9.9053 16.7994 10.5935C17.0012 11.2817 17.0525 12.0052 16.9499 12.715L21.1979 16.964Z" fill="#98A3AA"/>
<path d="M14.253 10.02C14.1682 9.92327 14.0774 9.83209 13.981 9.74701L14.253 10.02Z" fill="#98A3AA"/>
</g>
<defs>
<clipPath id="clip0_43_492">
<rect width="24" height="24" fill="white"/>
</clipPath>
</defs>
</svg>
