<svg width="264" height="64" viewBox="0 0 264 64" fill="none" xmlns="http://www.w3.org/2000/svg">
<g clip-path="url(#clip0_442_5385)">
<mask id="path-1-inside-1_442_5385" fill="white">
<path d="M264 32L232 64H0V32L32 0H264V32Z"/>
</mask>
<path d="M264 32L232 64H0V32L32 0H264V32Z" fill="white" fill-opacity="0.1"/>
<path d="M264 32L265.414 33.4142L266 32.8284V32H264ZM232 64V66H232.828L233.414 65.4142L232 64ZM0 64H-2V66H0V64ZM0 32L-1.41421 30.5858L-2 31.1716V32H0ZM32 0V-2H31.1716L30.5858 -1.41421L32 0ZM264 0H266V-2H264V0ZM264 32L262.586 30.5858L230.586 62.5858L232 64L233.414 65.4142L265.414 33.4142L264 32ZM232 64V62H0V64V66H232V64ZM0 64H2V32H0H-2V64H0ZM0 32L1.41421 33.4142L33.4142 1.41421L32 0L30.5858 -1.41421L-1.41421 30.5858L0 32ZM32 0V2H264V0V-2H32V0ZM264 0H262V32H264H266V0H264Z" fill="#E6ECEF" mask="url(#path-1-inside-1_442_5385)"/>
<mask id="path-3-inside-2_442_5385" fill="white">
<path d="M260 30.001L230.001 60H4V4H4.00098V34L34.001 4H260V30.001Z"/>
</mask>
<path d="M260 30.001L230.001 60H4V4H4.00098V34L34.001 4H260V30.001Z" fill="white" fill-opacity="0.1"/>
<path d="M260 30.001L260.707 30.7081L261 30.4152V30.001H260ZM230.001 60V61H230.415L230.708 60.7071L230.001 60ZM4 60H3V61H4V60ZM4 4V3H3V4H4ZM4.00098 4H5.00098V3H4.00098V4ZM4.00098 34H3.00098V36.4142L4.70808 34.7071L4.00098 34ZM34.001 4V3H33.5868L33.2939 3.29289L34.001 4ZM260 4H261V3H260V4ZM260 30.001L259.293 29.2939L229.294 59.2929L230.001 60L230.708 60.7071L260.707 30.7081L260 30.001ZM230.001 60V59H4V60V61H230.001V60ZM4 60H5V4H4H3V60H4ZM4 4V5H4.00098V4V3H4V4ZM4.00098 4H3.00098V34H4.00098H5.00098V4H4.00098ZM4.00098 34L4.70808 34.7071L34.7081 4.70711L34.001 4L33.2939 3.29289L3.29387 33.2929L4.00098 34ZM34.001 4V5H260V4V3H34.001V4ZM260 4H259V30.001H260H261V4H260Z" fill="#E6ECEF" mask="url(#path-3-inside-2_442_5385)"/>
</g>
<defs>
<clipPath id="clip0_442_5385">
<rect width="264" height="64" fill="white"/>
</clipPath>
</defs>
</svg>
