<svg width="1920" height="80" viewBox="0 0 1920 80" fill="none" xmlns="http://www.w3.org/2000/svg">
<g clip-path="url(#clip0_1661_7481)">
<rect width="1920" height="80" fill="white"/>
<rect width="80" height="80" fill="#BB4E2D"/>
<mask id="mask0_1661_7481" style="mask-type:alpha" maskUnits="userSpaceOnUse" x="12" y="12" width="56" height="56">
<rect x="12" y="12" width="56" height="56" fill="#D9D9D9"/>
</mask>
<g mask="url(#mask0_1661_7481)">
<path d="M21.332 61V33L39.9987 19L58.6654 33V61H44.6654V44.6667H35.332V61H21.332Z" fill="#F2EEED"/>
</g>
<g clip-path="url(#clip1_1661_7481)">
<path d="M236.842 23.3076L246.643 60.001L237.732 53.0352L238.057 50.6055L236.437 44.4492H226.717L225.097 50.6055L225.421 53.0352L216.511 60.001L226.312 23.3076L225.097 20.7969H238.057L236.842 23.3076ZM129.11 28.166V48.7402L122.226 55.2207L104 59.4326L114.611 50.0361H119.552L123.278 46.3105V30.4346L119.876 27.0322H110.237L104.892 20.957H123.116L129.11 28.166ZM257.261 23.2549V50.5859L258.152 52.958H250.7L251.591 50.5859V23.2549L250.7 20.8828H258.152L257.261 23.2549ZM249.5 52.8984H245.9V49.2979H249.5V52.8984ZM263 52.8984H259.4V49.2979H263V52.8984ZM138.265 28.9795V50.4443L139.155 52.3076H131.703L132.595 50.4443V28.9795L131.703 27.1172H139.155L138.265 28.9795ZM146.768 28.9795V47.7715H150.655L154.463 44.7744V52.3076H140.206L141.098 50.4443V28.9795L140.206 27.1172H147.658L146.768 28.9795ZM170.988 28.9795V35.46L167.748 31.8955H161.997V37.3232L170.178 37.4844L166.533 41.373H161.997V47.7715H167.748L171.555 44.7744V52.3076H155.437L156.327 50.4443V28.9795L155.437 27.1172H171.717L170.988 28.9795ZM184.351 36.5127L187.995 27.1172H195.447L194.557 28.9795V50.4443L195.447 52.3076H187.995L188.887 50.4443V37.4844L184.351 49.1484L179.814 37.4844V50.4443L180.705 52.3076H173.253L174.145 50.4443V28.9795L173.253 27.1172H180.705L184.351 36.5127ZM207.033 36.5127L210.678 27.1172H218.13L217.239 28.9795V50.4443L218.13 52.3076H210.678L211.569 50.4443V37.4844L207.033 49.1484L202.497 37.4844V50.4443L203.388 52.3076H195.937L196.827 50.4443V28.9795L195.937 27.1172H203.388L207.033 36.5127ZM114.937 47.2812L109.429 52.1416V28.8135H114.937V47.2812ZM228.094 38.7773H235.06L231.576 27.2754L228.094 38.7773Z" fill="#993516"/>
</g>
<path d="M290.04 36.125C289.495 33.0664 287.052 31.3086 283.958 31.3086C279.792 31.3086 276.839 34.5078 276.856 40.2734C276.839 46.127 279.809 49.2383 283.958 49.2383C286.981 49.2383 289.425 47.5508 290.04 44.5625H294.645C293.942 49.4492 289.917 53.3516 283.888 53.3516C277.173 53.3516 272.233 48.4824 272.251 40.2734C272.233 32.0469 277.225 27.1953 283.888 27.1953C289.513 27.1953 293.854 30.4648 294.645 36.125H290.04ZM297.472 53V33.9102H301.831V37.0742H302.042C302.728 34.877 304.556 33.6289 306.753 33.6289C307.245 33.6289 307.948 33.6816 308.37 33.7344V37.8828C307.966 37.7422 307.034 37.6191 306.296 37.6016C303.8 37.6191 301.972 39.3418 301.972 41.75V53H297.472ZM317.982 53.3867C312.234 53.3867 308.701 49.5547 308.701 43.5781C308.701 37.6719 312.287 33.6641 317.736 33.6641C322.412 33.6641 326.455 36.5996 326.455 43.2969V44.7031H313.13C313.201 47.9551 315.117 49.8887 318.017 49.8711C319.986 49.8887 321.304 49.0449 321.884 47.9023H326.279C325.47 51.207 322.412 53.3867 317.982 53.3867ZM313.148 41.6445H322.166C322.148 39.043 320.39 37.1445 317.806 37.1445C315.117 37.1445 313.306 39.2188 313.148 41.6445ZM328.156 47.6211C328.156 43.332 331.725 42.084 335.258 41.8555C336.594 41.75 339.318 41.627 340.162 41.5918L340.145 40.0625C340.145 38.1641 338.932 37.0742 336.699 37.0742C334.695 37.0742 333.465 37.9883 333.113 39.3594H328.789C329.105 36.1074 332.023 33.6641 336.805 33.6641C340.426 33.6641 344.609 35.1582 344.609 40.2383V53H340.32V50.3633H340.18C339.336 51.9805 337.561 53.3867 334.555 53.3867C330.916 53.3867 328.156 51.4004 328.156 47.6211ZM332.48 47.5859C332.48 49.2383 333.834 50.082 335.715 50.082C338.439 50.082 340.18 48.2891 340.18 46.1445L340.162 44.5801C339.354 44.6152 336.857 44.7734 335.961 44.8438C333.834 45.0195 332.48 45.916 332.48 47.5859ZM357.455 33.9102V37.3555H353.694V47.2695C353.694 49.0977 354.608 49.4668 355.733 49.4844C356.26 49.502 357.139 49.4492 357.702 49.4141V53.0703C357.174 53.1582 356.313 53.2637 355.17 53.2461C351.795 53.2637 349.194 51.5938 349.229 48.0078V37.3555H346.487V33.9102H349.229V29.3398H353.694V33.9102H357.455ZM368.122 53.3867C362.55 53.3867 358.981 49.4316 358.981 43.543C358.981 37.6016 362.55 33.6641 368.122 33.6641C373.712 33.6641 377.28 37.6016 377.262 43.543C377.28 49.4316 373.712 53.3867 368.122 53.3867ZM363.516 43.5078C363.516 47.0059 365.046 49.8008 368.157 49.8008C371.216 49.8008 372.745 47.0059 372.727 43.5078C372.745 40.0098 371.216 37.1973 368.157 37.2148C365.046 37.1973 363.516 40.0098 363.516 43.5078ZM379.843 53V33.9102H384.202V37.0742H384.413C385.099 34.877 386.927 33.6289 389.124 33.6289C389.616 33.6289 390.32 33.6816 390.741 33.7344V37.8828C390.337 37.7422 389.405 37.6191 388.667 37.6016C386.171 37.6191 384.343 39.3418 384.343 41.75V53H379.843Z" fill="#993516"/>
</g>
<defs>
<clipPath id="clip0_1661_7481">
<rect width="1920" height="80" fill="white"/>
</clipPath>
<clipPath id="clip1_1661_7481">
<rect width="158.4" height="60" fill="white" transform="translate(104 10)"/>
</clipPath>
</defs>
</svg>
