<svg width="2029" height="60" viewBox="0 0 2029 60" fill="none" xmlns="http://www.w3.org/2000/svg">
  <rect width="2029" height="60" fill="#ffffff" />

<g clip-path="url(#clip0_2411_26453)">
<path d="M156.84 13.3076L166.641 50.001L157.73 43.0352L158.055 40.6055L156.435 34.4492H146.715L145.095 40.6055L145.419 43.0352L136.509 50.001L146.31 13.3076L145.095 10.7969H158.055L156.84 13.3076ZM49.1084 18.166V38.7402L42.2236 45.2207L23.998 49.4326L34.6094 40.0361H39.5498L43.2764 36.3105V20.4346L39.874 17.0322H30.2354L24.8896 10.957H43.1143L49.1084 18.166ZM177.259 13.2549V40.5859L178.15 42.958H170.698L171.589 40.5859V13.2549L170.698 10.8828H178.15L177.259 13.2549ZM169.498 42.8984H165.898V39.2979H169.498V42.8984ZM182.998 42.8984H179.398V39.2979H182.998V42.8984ZM58.2627 18.9795V40.4443L59.1533 42.3076H51.7012L52.5928 40.4443V18.9795L51.7012 17.1172H59.1533L58.2627 18.9795ZM66.7656 18.9795V37.7715H70.6533L74.4609 34.7744V42.3076H60.2041L61.0957 40.4443V18.9795L60.2041 17.1172H67.6562L66.7656 18.9795ZM90.9863 18.9795V25.46L87.7461 21.8955H81.9951V27.3232L90.1758 27.4844L86.5312 31.373H81.9951V37.7715H87.7461L91.5527 34.7744V42.3076H75.4346L76.3252 40.4443V18.9795L75.4346 17.1172H91.7148L90.9863 18.9795ZM104.349 26.5127L107.993 17.1172H115.445L114.555 18.9795V40.4443L115.445 42.3076H107.993L108.885 40.4443V27.4844L104.349 39.1484L99.8125 27.4844V40.4443L100.703 42.3076H93.251L94.1426 40.4443V18.9795L93.251 17.1172H100.703L104.349 26.5127ZM127.031 26.5127L130.676 17.1172H138.128L137.237 18.9795V40.4443L138.128 42.3076H130.676L131.567 40.4443V27.4844L127.031 39.1484L122.495 27.4844V40.4443L123.386 42.3076H115.935L116.825 40.4443V18.9795L115.935 17.1172H123.386L127.031 26.5127ZM34.9346 37.2812L29.4268 42.1416V18.8135H34.9346V37.2812ZM148.092 28.7773H155.058L151.574 17.2754L148.092 28.7773Z" fill="#BB4E2D"/>
</g>
<path d="M210.042 26.125C209.866 25.1289 209.497 24.2676 208.934 23.541C208.372 22.8145 207.657 22.2637 206.79 21.8887C205.934 21.502 204.991 21.3086 203.96 21.3086C202.554 21.3086 201.317 21.6602 200.251 22.3633C199.184 23.0547 198.352 24.0742 197.755 25.4219C197.157 26.7695 196.858 28.3867 196.858 30.2734C196.858 32.1719 197.157 33.7949 197.755 35.1426C198.352 36.4902 199.184 37.5098 200.251 38.2012C201.329 38.8926 202.565 39.2383 203.96 39.2383C204.968 39.2383 205.893 39.0566 206.737 38.6934C207.593 38.3184 208.307 37.7793 208.882 37.0762C209.456 36.373 209.843 35.5352 210.042 34.5625H214.647C214.413 36.2031 213.821 37.6914 212.872 39.0273C211.934 40.3633 210.692 41.418 209.145 42.1914C207.598 42.9648 205.846 43.3516 203.889 43.3516C201.651 43.3516 199.647 42.8301 197.878 41.7871C196.12 40.7324 194.743 39.2207 193.747 37.252C192.751 35.2715 192.253 32.9453 192.253 30.2734C192.253 27.5898 192.751 25.2637 193.747 23.2949C194.755 21.3262 196.138 19.8203 197.895 18.7773C199.665 17.7227 201.663 17.1953 203.889 17.1953C205.764 17.1953 207.47 17.5527 209.005 18.2676C210.54 18.9707 211.8 19.9961 212.784 21.3438C213.768 22.6797 214.389 24.2734 214.647 26.125H210.042ZM217.474 23.9102H221.833V27.0742H222.044C222.372 25.9961 222.964 25.1523 223.82 24.543C224.675 23.9336 225.654 23.6289 226.755 23.6289C227.411 23.6289 227.95 23.6641 228.372 23.7344V27.8828C228.173 27.8125 227.868 27.748 227.458 27.6895C227.048 27.6309 226.661 27.6016 226.298 27.6016C225.478 27.6016 224.739 27.7773 224.083 28.1289C223.427 28.4805 222.911 28.9727 222.536 29.6055C222.161 30.2383 221.974 30.9531 221.974 31.75V43H217.474V23.9102ZM237.984 43.3867C236.086 43.3867 234.433 42.9883 233.027 42.1914C231.632 41.3828 230.56 40.2402 229.81 38.7637C229.072 37.2871 228.703 35.5586 228.703 33.5781C228.703 31.6211 229.078 29.8984 229.828 28.4102C230.578 26.9102 231.632 25.7441 232.992 24.9121C234.363 24.0801 235.945 23.6641 237.738 23.6641C239.355 23.6641 240.82 24.0098 242.132 24.7012C243.457 25.3926 244.505 26.4648 245.279 27.918C246.064 29.3594 246.457 31.1523 246.457 33.2969V34.7031H233.132C233.144 35.7695 233.355 36.6953 233.765 37.4805C234.175 38.2539 234.744 38.8457 235.47 39.2559C236.197 39.666 237.046 39.8711 238.019 39.8711C238.968 39.8711 239.777 39.6895 240.445 39.3262C241.113 38.9629 241.593 38.4883 241.886 37.9023H246.281C246.011 39.0039 245.502 39.9707 244.752 40.8027C244.002 41.623 243.046 42.2617 241.886 42.7188C240.738 43.1641 239.437 43.3867 237.984 43.3867ZM242.168 31.6445C242.156 30.7773 241.968 30.0039 241.605 29.3242C241.242 28.6445 240.732 28.1113 240.076 27.7246C239.42 27.3379 238.664 27.1445 237.808 27.1445C236.929 27.1445 236.144 27.3496 235.453 27.7598C234.773 28.1582 234.234 28.7031 233.836 29.3945C233.437 30.0742 233.209 30.8242 233.15 31.6445H242.168ZM248.158 37.6211C248.158 35.6523 248.82 34.2344 250.145 33.3672C251.48 32.4883 253.186 31.9844 255.26 31.8555C257.287 31.7148 258.916 31.6211 260.146 31.5742V30.0625C260.146 29.1133 259.848 28.3809 259.25 27.8652C258.652 27.3379 257.803 27.0742 256.701 27.0742C255.729 27.0742 254.932 27.2793 254.311 27.6895C253.689 28.0996 253.291 28.6562 253.115 29.3594H248.791C248.896 28.2695 249.283 27.2969 249.951 26.4414C250.619 25.5742 251.539 24.8945 252.711 24.4023C253.883 23.9102 255.248 23.6641 256.807 23.6641C258.143 23.6641 259.396 23.875 260.568 24.2969C261.752 24.707 262.719 25.4043 263.469 26.3887C264.23 27.3613 264.611 28.6445 264.611 30.2383V43H260.322V40.3633H260.182C259.713 41.2539 259.01 41.9805 258.072 42.543C257.135 43.1055 255.963 43.3867 254.557 43.3867C253.326 43.3867 252.225 43.1641 251.252 42.7188C250.291 42.2734 249.535 41.6172 248.984 40.75C248.434 39.8828 248.158 38.8398 248.158 37.6211ZM252.482 37.5859C252.482 38.3945 252.775 39.0156 253.361 39.4492C253.947 39.8711 254.732 40.082 255.717 40.082C256.596 40.082 257.375 39.9062 258.055 39.5547C258.734 39.2031 259.256 38.7285 259.619 38.1309C259.994 37.5215 260.182 36.8594 260.182 36.1445L260.164 34.5801L255.963 34.8438C254.861 34.9375 254.006 35.2129 253.396 35.6699C252.787 36.127 252.482 36.7656 252.482 37.5859ZM277.457 27.3555H273.696V37.2695C273.696 38.1133 273.871 38.6934 274.223 39.0098C274.586 39.3262 275.09 39.4844 275.735 39.4844C276.297 39.4844 276.954 39.4609 277.704 39.4141V43.0703C277.118 43.1875 276.274 43.2461 275.172 43.2461C274.012 43.2461 272.981 43.0586 272.079 42.6836C271.188 42.2969 270.485 41.7109 269.969 40.9258C269.465 40.1406 269.219 39.168 269.231 38.0078V27.3555H266.489V23.9102H269.231V19.3398H273.696V23.9102H277.457V27.3555ZM288.124 43.3867C286.296 43.3867 284.69 42.9766 283.307 42.1562C281.925 41.3359 280.858 40.1875 280.108 38.7109C279.358 37.2227 278.983 35.5 278.983 33.543C278.983 31.5742 279.358 29.8457 280.108 28.3574C280.858 26.8691 281.925 25.7148 283.307 24.8945C284.69 24.0742 286.296 23.6641 288.124 23.6641C289.964 23.6641 291.575 24.0742 292.958 24.8945C294.341 25.7148 295.401 26.8691 296.139 28.3574C296.889 29.8457 297.264 31.5742 297.264 33.543C297.264 35.5 296.889 37.2227 296.139 38.7109C295.389 40.1992 294.323 41.3535 292.94 42.1738C291.569 42.9824 289.964 43.3867 288.124 43.3867ZM288.159 39.8008C289.143 39.8008 289.975 39.5254 290.655 38.9746C291.346 38.4238 291.862 37.6738 292.202 36.7246C292.554 35.7754 292.729 34.7031 292.729 33.5078C292.729 32.3242 292.554 31.2578 292.202 30.3086C291.862 29.3477 291.346 28.5918 290.655 28.041C289.975 27.4902 289.143 27.2148 288.159 27.2148C287.151 27.2148 286.296 27.4902 285.593 28.041C284.901 28.5918 284.38 29.3418 284.028 30.291C283.688 31.2402 283.518 32.3125 283.518 33.5078C283.518 34.7031 283.688 35.7754 284.028 36.7246C284.38 37.6738 284.901 38.4238 285.593 38.9746C286.296 39.5254 287.151 39.8008 288.159 39.8008ZM299.845 23.9102H304.204V27.0742H304.415C304.743 25.9961 305.335 25.1523 306.191 24.543C307.046 23.9336 308.025 23.6289 309.126 23.6289C309.782 23.6289 310.321 23.6641 310.743 23.7344V27.8828C310.544 27.8125 310.239 27.748 309.829 27.6895C309.419 27.6309 309.032 27.6016 308.669 27.6016C307.849 27.6016 307.111 27.7773 306.454 28.1289C305.798 28.4805 305.282 28.9727 304.907 29.6055C304.532 30.2383 304.345 30.9531 304.345 31.75V43H299.845V23.9102Z" fill="#BB4E2D"/>
<defs>
<clipPath id="clip0_2411_26453">
<rect width="158.4" height="60" fill="white" transform="translate(24)"/>
</clipPath>
</defs>
</svg>
