<svg width="478" height="130" viewBox="0 0 478 130" fill="none" xmlns="http://www.w3.org/2000/svg">
<rect width="478" height="130" fill="#444F55"/>
<path d="M79.7695 54.9805C80.9805 54.9805 82.0286 55.1139 82.9141 55.3809C83.806 55.6413 84.4896 56.0254 84.9648 56.5332C85.4401 57.0345 85.681 57.6367 85.6875 58.3398C85.681 59.0495 85.4401 59.6582 84.9648 60.166C84.4896 60.6803 83.806 61.071 82.9141 61.3379C82.0286 61.6048 80.9805 61.7383 79.7695 61.7383C78.5456 61.7383 77.4844 61.6048 76.5859 61.3379C75.6875 61.071 74.9974 60.6803 74.5156 60.166C74.0339 59.6582 73.793 59.0495 73.793 58.3398C73.793 57.6367 74.0339 57.0345 74.5156 56.5332C74.9974 56.0254 75.6842 55.6413 76.5762 55.3809C77.4746 55.1139 78.5391 54.9805 79.7695 54.9805ZM79.7695 56.6797C78.5456 56.6797 77.6048 56.8229 76.9473 57.1094C76.2897 57.3893 75.9609 57.7995 75.9609 58.3398C75.9609 58.8867 76.2897 59.3034 76.9473 59.5898C77.6113 59.8763 78.5521 60.0195 79.7695 60.0195C80.987 60.0195 81.918 59.8763 82.5625 59.5898C83.2135 59.3034 83.5391 58.8867 83.5391 58.3398C83.5391 57.7995 83.2135 57.3893 82.5625 57.1094C81.918 56.8229 80.987 56.6797 79.7695 56.6797ZM85.5117 48.3008H87.9727V50.1172H85.5117V54.5508H83.3438V44.082H85.5117V48.3008ZM74.3398 47.5781H78.4609V45.1953H80.6094V53.4375H72.1914V45.1953H74.3398V47.5781ZM78.4609 51.7188V49.2773H74.3398V51.7188H78.4609ZM94.6992 47.2656C94.6992 48.0013 94.8555 48.7012 95.168 49.3652C95.487 50.0293 95.959 50.6185 96.584 51.1328C97.209 51.6406 97.9674 52.0312 98.8594 52.3047L97.8242 54.0039C96.8542 53.7044 96.0143 53.2552 95.3047 52.6562C94.6016 52.0573 94.0514 51.3509 93.6543 50.5371C93.2572 51.4811 92.6875 52.3014 91.9453 52.998C91.2031 53.6947 90.3112 54.2188 89.2695 54.5703L88.1758 52.8516C89.1003 52.5456 89.888 52.1094 90.5391 51.543C91.1901 50.9701 91.6816 50.3158 92.0137 49.5801C92.3457 48.8444 92.5117 48.0794 92.5117 47.2852V47.0703H88.7812V45.3125H98.3711V47.0703H94.6992V47.2656ZM102.297 48.3203H104.758V50.0977H102.297V54.6094H100.129V44.082H102.297V48.3203ZM96.5547 55C97.7656 55 98.8138 55.1335 99.6992 55.4004C100.591 55.6608 101.275 56.0417 101.75 56.543C102.225 57.0443 102.466 57.6432 102.473 58.3398C102.466 59.043 102.222 59.6484 101.74 60.1562C101.265 60.6641 100.585 61.0514 99.6992 61.3184C98.8138 61.5853 97.7656 61.7188 96.5547 61.7188C95.3307 61.7188 94.2695 61.5853 93.3711 61.3184C92.4727 61.0514 91.7826 60.6641 91.3008 60.1562C90.819 59.6484 90.5781 59.043 90.5781 58.3398C90.5781 57.6432 90.819 57.0443 91.3008 56.543C91.7826 56.0417 92.4727 55.6608 93.3711 55.4004C94.2695 55.1335 95.3307 55 96.5547 55ZM96.5547 56.6992C95.3372 56.6992 94.3965 56.8392 93.7324 57.1191C93.0749 57.3991 92.7461 57.806 92.7461 58.3398C92.7461 58.8867 93.0749 59.3034 93.7324 59.5898C94.3965 59.8763 95.3372 60.0195 96.5547 60.0195C97.7721 60.0195 98.7031 59.8763 99.3477 59.5898C99.9987 59.3034 100.324 58.8867 100.324 58.3398C100.324 57.806 99.9987 57.3991 99.3477 57.1191C98.7031 56.8392 97.7721 56.6992 96.5547 56.6992ZM119.844 61.7578H117.656V44.082H119.844V61.7578ZM110.332 45.3711C111.217 45.3711 112.005 45.6283 112.695 46.1426C113.392 46.6504 113.939 47.3763 114.336 48.3203C114.733 49.2578 114.935 50.3516 114.941 51.6016C114.935 52.8581 114.733 53.9583 114.336 54.9023C113.945 55.8464 113.402 56.5755 112.705 57.0898C112.008 57.5977 111.217 57.8516 110.332 57.8516C109.44 57.8516 108.646 57.5977 107.949 57.0898C107.253 56.5755 106.706 55.8464 106.309 54.9023C105.918 53.9583 105.723 52.8581 105.723 51.6016C105.723 50.3516 105.918 49.2578 106.309 48.3203C106.706 47.3763 107.253 46.6504 107.949 46.1426C108.646 45.6283 109.44 45.3711 110.332 45.3711ZM110.332 47.3242C109.831 47.3242 109.388 47.4935 109.004 47.832C108.626 48.1706 108.333 48.6621 108.125 49.3066C107.917 49.9512 107.812 50.7161 107.812 51.6016C107.812 52.4935 107.917 53.2617 108.125 53.9062C108.333 54.5508 108.626 55.0456 109.004 55.3906C109.388 55.7292 109.831 55.8984 110.332 55.8984C110.827 55.8984 111.263 55.7292 111.641 55.3906C112.018 55.0456 112.311 54.5508 112.52 53.9062C112.728 53.2617 112.832 52.4935 112.832 51.6016C112.832 50.7161 112.728 49.9544 112.52 49.3164C112.311 48.6719 112.018 48.1803 111.641 47.8418C111.263 47.4967 110.827 47.3242 110.332 47.3242ZM140.797 46.2305H138.375V48.9062H140.699V50.5469H127.73V48.9062H130.055V46.2305H127.633V44.5898H140.797V46.2305ZM142.281 53.3789H126.188V51.6602H142.281V53.3789ZM140.27 58.7695H130.23V59.9609H140.758V61.582H128.102V57.2656H138.141V56.1523H128.082V54.5703H140.27V58.7695ZM136.188 48.9062V46.2305H132.223V48.9062H136.188ZM149.77 52.4023H145.59V55.7227C146.638 55.7096 147.595 55.6706 148.461 55.6055C149.327 55.5404 150.219 55.4232 151.137 55.2539L151.312 57.0312C150.225 57.2266 149.177 57.3568 148.168 57.4219C147.165 57.487 146.02 57.5195 144.73 57.5195H143.5V50.6836H147.68V47.6562H143.48V45.918H149.77V52.4023ZM158.168 61.7383H156.098V44.082H158.168V61.7383ZM154.535 60.8398H152.484V51.9922H150.551V50.2148H152.484V44.4531H154.535V60.8398ZM174.445 61.7578H172.258V44.082H174.445V61.7578ZM164.934 45.3711C165.819 45.3711 166.607 45.6283 167.297 46.1426C167.993 46.6504 168.54 47.3763 168.938 48.3203C169.335 49.2578 169.536 50.3516 169.543 51.6016C169.536 52.8581 169.335 53.9583 168.938 54.9023C168.547 55.8464 168.003 56.5755 167.307 57.0898C166.61 57.5977 165.819 57.8516 164.934 57.8516C164.042 57.8516 163.247 57.5977 162.551 57.0898C161.854 56.5755 161.307 55.8464 160.91 54.9023C160.52 53.9583 160.324 52.8581 160.324 51.6016C160.324 50.3516 160.52 49.2578 160.91 48.3203C161.307 47.3763 161.854 46.6504 162.551 46.1426C163.247 45.6283 164.042 45.3711 164.934 45.3711ZM164.934 47.3242C164.432 47.3242 163.99 47.4935 163.605 47.832C163.228 48.1706 162.935 48.6621 162.727 49.3066C162.518 49.9512 162.414 50.7161 162.414 51.6016C162.414 52.4935 162.518 53.2617 162.727 53.9062C162.935 54.5508 163.228 55.0456 163.605 55.3906C163.99 55.7292 164.432 55.8984 164.934 55.8984C165.428 55.8984 165.865 55.7292 166.242 55.3906C166.62 55.0456 166.913 54.5508 167.121 53.9062C167.329 53.2617 167.434 52.4935 167.434 51.6016C167.434 50.7161 167.329 49.9544 167.121 49.3164C166.913 48.6719 166.62 48.1803 166.242 47.8418C165.865 47.4967 165.428 47.3242 164.934 47.3242ZM181.367 45.3711C182.161 45.3711 182.878 45.5827 183.516 46.0059C184.154 46.429 184.674 47.0345 185.078 47.8223C185.482 48.6035 185.732 49.5247 185.83 50.5859H189.199V44.082H191.348V61.7578H189.199V52.3438H185.859C185.781 53.4635 185.544 54.4401 185.146 55.2734C184.749 56.1003 184.225 56.7383 183.574 57.1875C182.923 57.6302 182.188 57.8516 181.367 57.8516C180.482 57.8516 179.697 57.5977 179.014 57.0898C178.33 56.582 177.796 55.8561 177.412 54.9121C177.028 53.9681 176.836 52.8646 176.836 51.6016C176.836 50.3516 177.028 49.2578 177.412 48.3203C177.796 47.3763 178.33 46.6504 179.014 46.1426C179.704 45.6283 180.488 45.3711 181.367 45.3711ZM181.367 47.3242C180.879 47.3242 180.449 47.4967 180.078 47.8418C179.707 48.1803 179.421 48.6719 179.219 49.3164C179.017 49.9544 178.919 50.7161 178.926 51.6016C178.919 52.4935 179.017 53.2617 179.219 53.9062C179.421 54.5508 179.707 55.0456 180.078 55.3906C180.449 55.7292 180.879 55.8984 181.367 55.8984C181.855 55.8984 182.282 55.7292 182.646 55.3906C183.018 55.0456 183.304 54.5508 183.506 53.9062C183.714 53.2617 183.822 52.4935 183.828 51.6016C183.822 50.7161 183.714 49.9512 183.506 49.3066C183.304 48.6621 183.018 48.1706 182.646 47.832C182.282 47.4935 181.855 47.3242 181.367 47.3242ZM203.297 60.1953C202.301 60.1953 201.409 60.026 200.621 59.6875C199.833 59.349 199.215 58.877 198.766 58.2715C198.316 57.6595 198.082 56.9596 198.062 56.1719H200.621C200.647 56.543 200.777 56.8717 201.012 57.1582C201.253 57.4382 201.572 57.6562 201.969 57.8125C202.366 57.9688 202.809 58.0469 203.297 58.0469C203.811 58.0469 204.27 57.959 204.674 57.7832C205.084 57.6009 205.403 57.3503 205.631 57.0312C205.859 56.7122 205.973 56.3477 205.973 55.9375C205.973 55.5143 205.855 55.1367 205.621 54.8047C205.387 54.4727 205.048 54.2155 204.605 54.0332C204.163 53.8444 203.642 53.75 203.043 53.75H201.773V51.7969H203.043C203.538 51.7969 203.977 51.7122 204.361 51.543C204.752 51.3672 205.055 51.123 205.27 50.8105C205.484 50.4915 205.589 50.1302 205.582 49.7266C205.589 49.3359 205.497 48.9909 205.309 48.6914C205.126 48.3854 204.863 48.151 204.518 47.9883C204.173 47.819 203.772 47.7344 203.316 47.7344C202.874 47.7344 202.46 47.8158 202.076 47.9785C201.699 48.1348 201.393 48.3594 201.158 48.6523C200.93 48.9453 200.81 49.2839 200.797 49.668H198.355C198.375 48.8867 198.603 48.1934 199.039 47.5879C199.482 46.9824 200.077 46.5104 200.826 46.1719C201.581 45.8333 202.418 45.6641 203.336 45.6641C204.267 45.6641 205.09 45.8398 205.807 46.1914C206.523 46.5365 207.076 47.0085 207.467 47.6074C207.857 48.2064 208.049 48.8672 208.043 49.5898C208.049 50.1107 207.945 50.5827 207.73 51.0059C207.516 51.429 207.213 51.7806 206.822 52.0605C206.432 52.3405 205.979 52.5326 205.465 52.6367V52.7539C206.122 52.8451 206.686 53.0404 207.154 53.3398C207.623 53.6328 207.978 54.0137 208.219 54.4824C208.46 54.9512 208.577 55.4818 208.57 56.0742C208.577 56.8555 208.352 57.5618 207.896 58.1934C207.447 58.8184 206.819 59.3099 206.012 59.668C205.211 60.0195 204.306 60.1953 203.297 60.1953ZM224.418 56.8555H222.23V44.1016H224.418V56.8555ZM224.906 61.3867H212.738V55.5664H214.926V59.6289H224.906V61.3867ZM214.789 45.2539C215.674 45.2539 216.479 45.446 217.201 45.8301C217.924 46.2077 218.493 46.7318 218.91 47.4023C219.327 48.0729 219.535 48.8281 219.535 49.668C219.535 50.5208 219.327 51.2858 218.91 51.9629C218.493 52.6335 217.924 53.1576 217.201 53.5352C216.479 53.9128 215.674 54.1016 214.789 54.1016C213.897 54.1016 213.087 53.9128 212.357 53.5352C211.635 53.1576 211.065 52.6335 210.648 51.9629C210.232 51.2858 210.023 50.5208 210.023 49.668C210.023 48.8281 210.232 48.0729 210.648 47.4023C211.065 46.7318 211.635 46.2077 212.357 45.8301C213.087 45.446 213.897 45.2539 214.789 45.2539ZM214.789 47.1484C214.288 47.1484 213.835 47.2526 213.432 47.4609C213.028 47.6693 212.712 47.9655 212.484 48.3496C212.257 48.7337 212.146 49.1732 212.152 49.668C212.146 50.1758 212.257 50.6217 212.484 51.0059C212.712 51.39 213.028 51.6862 213.432 51.8945C213.835 52.1029 214.288 52.207 214.789 52.207C215.277 52.207 215.72 52.1029 216.117 51.8945C216.514 51.6862 216.827 51.39 217.055 51.0059C217.289 50.6217 217.406 50.1758 217.406 49.668C217.406 49.1732 217.289 48.7337 217.055 48.3496C216.827 47.9655 216.514 47.6693 216.117 47.4609C215.72 47.2526 215.277 47.1484 214.789 47.1484ZM232.219 45.3125C233.137 45.306 233.964 45.485 234.699 45.8496C235.441 46.2077 236.021 46.7122 236.438 47.3633C236.861 48.0143 237.076 48.75 237.082 49.5703C237.076 50.3971 236.861 51.1361 236.438 51.7871C236.021 52.4382 235.445 52.946 234.709 53.3105C233.973 53.6686 233.143 53.8477 232.219 53.8477C231.301 53.8477 230.474 53.6654 229.738 53.3008C229.003 52.9362 228.423 52.4316 228 51.7871C227.583 51.1361 227.375 50.3971 227.375 49.5703C227.375 48.75 227.583 48.0143 228 47.3633C228.423 46.7122 229.003 46.2077 229.738 45.8496C230.48 45.485 231.307 45.306 232.219 45.3125ZM232.219 47.1875C231.704 47.1875 231.242 47.2852 230.832 47.4805C230.422 47.6758 230.1 47.9557 229.865 48.3203C229.637 48.6784 229.523 49.0951 229.523 49.5703C229.523 50.0521 229.637 50.4753 229.865 50.8398C230.1 51.1979 230.422 51.4746 230.832 51.6699C231.242 51.8587 231.704 51.9531 232.219 51.9531C232.74 51.9531 233.205 51.8587 233.615 51.6699C234.032 51.4746 234.357 51.1979 234.592 50.8398C234.833 50.4753 234.953 50.0521 234.953 49.5703C234.953 49.0951 234.833 48.6784 234.592 48.3203C234.357 47.9557 234.032 47.6758 233.615 47.4805C233.205 47.2852 232.74 47.1875 232.219 47.1875ZM241.203 61.7578H239.035V44.082H241.203V61.7578ZM226.574 56.2891C228.736 56.2891 230.754 56.2533 232.629 56.1816C234.51 56.1035 236.294 55.944 237.98 55.7031L238.156 57.2852C236.411 57.6237 234.637 57.8385 232.834 57.9297C231.037 58.0208 229.042 58.0664 226.848 58.0664L226.574 56.2891ZM253.25 45.3125C254.168 45.306 254.995 45.485 255.73 45.8496C256.473 46.2077 257.052 46.7122 257.469 47.3633C257.892 48.0143 258.107 48.75 258.113 49.5703C258.107 50.3971 257.892 51.1361 257.469 51.7871C257.052 52.4382 256.476 52.946 255.74 53.3105C255.005 53.6686 254.174 53.8477 253.25 53.8477C252.332 53.8477 251.505 53.6654 250.77 53.3008C250.034 52.9362 249.454 52.4316 249.031 51.7871C248.615 51.1361 248.406 50.3971 248.406 49.5703C248.406 48.75 248.615 48.0143 249.031 47.3633C249.454 46.7122 250.034 46.2077 250.77 45.8496C251.512 45.485 252.339 45.306 253.25 45.3125ZM253.25 47.1875C252.736 47.1875 252.273 47.2852 251.863 47.4805C251.453 47.6758 251.131 47.9557 250.896 48.3203C250.669 48.6784 250.555 49.0951 250.555 49.5703C250.555 50.0521 250.669 50.4753 250.896 50.8398C251.131 51.1979 251.453 51.4746 251.863 51.6699C252.273 51.8587 252.736 51.9531 253.25 51.9531C253.771 51.9531 254.236 51.8587 254.646 51.6699C255.063 51.4746 255.389 51.1979 255.623 50.8398C255.864 50.4753 255.984 50.0521 255.984 49.5703C255.984 49.0951 255.864 48.6784 255.623 48.3203C255.389 47.9557 255.063 47.6758 254.646 47.4805C254.236 47.2852 253.771 47.1875 253.25 47.1875ZM262.234 61.7578H260.066V44.082H262.234V61.7578ZM247.605 56.2891C249.767 56.2891 251.785 56.2533 253.66 56.1816C255.542 56.1035 257.326 55.944 259.012 55.7031L259.188 57.2852C257.443 57.6237 255.669 57.8385 253.865 57.9297C252.068 58.0208 250.073 58.0664 247.879 58.0664L247.605 56.2891ZM279.098 57.1484H276.93V53.3008H272.672V51.5234H276.93V49.3359H272.906C272.281 50.6901 271.334 51.8652 270.064 52.8613C268.801 53.8574 267.275 54.6289 265.484 55.1758L264.566 53.4766C265.868 53.0599 267.005 52.5391 267.975 51.9141C268.945 51.2826 269.719 50.5697 270.299 49.7754C270.878 48.9746 271.233 48.112 271.363 47.1875H265.484V45.4492H273.746C273.746 46.1523 273.668 46.862 273.512 47.5781H276.93V44.1016H279.098V57.1484ZM279.547 61.3867H267.594V55.8594H269.801V59.6289H279.547V61.3867ZM289.125 44.3555C290.466 44.3555 291.609 44.4727 292.553 44.707C293.503 44.9414 294.229 45.2865 294.73 45.7422C295.232 46.1914 295.486 46.7383 295.492 47.3828C295.486 48.3594 294.929 49.1081 293.822 49.6289C292.715 50.1497 291.15 50.4167 289.125 50.4297C287.094 50.4167 285.525 50.1497 284.418 49.6289C283.311 49.1081 282.758 48.3594 282.758 47.3828C282.758 46.7383 283.008 46.1914 283.51 45.7422C284.011 45.2865 284.737 44.9414 285.688 44.707C286.638 44.4727 287.784 44.3555 289.125 44.3555ZM289.125 45.957C287.784 45.957 286.765 46.0807 286.068 46.3281C285.372 46.569 285.03 46.9206 285.043 47.3828C285.036 47.8646 285.375 48.2227 286.059 48.457C286.742 48.6914 287.764 48.8086 289.125 48.8086C290.505 48.8086 291.537 48.6914 292.221 48.457C292.904 48.2227 293.246 47.8646 293.246 47.3828C293.246 46.9206 292.898 46.569 292.201 46.3281C291.505 46.0807 290.479 45.957 289.125 45.957ZM297.191 53.1055H281.098V51.3672H297.191V53.1055ZM295.18 58.6133H285.141V59.9219H295.668V61.582H283.012V57.0703H293.051V55.8984H282.992V54.2969H295.18V58.6133ZM318.262 59.5898H302.129V57.8125H309.082V53.9648H303.906V45.4492H316.406V53.9648H311.23V57.8125H318.262V59.5898ZM306.035 52.2656H314.258V47.1875H306.035V52.2656ZM323.66 45.3711C324.546 45.3711 325.333 45.6283 326.023 46.1426C326.714 46.6504 327.254 47.3763 327.645 48.3203C328.042 49.2578 328.243 50.3516 328.25 51.6016C328.243 52.8646 328.042 53.9681 327.645 54.9121C327.254 55.8561 326.714 56.582 326.023 57.0898C325.333 57.5977 324.546 57.8516 323.66 57.8516C322.768 57.8516 321.974 57.5977 321.277 57.0898C320.581 56.5755 320.037 55.8464 319.646 54.9023C319.256 53.9583 319.064 52.8581 319.07 51.6016C319.064 50.3581 319.256 49.2643 319.646 48.3203C320.037 47.3763 320.581 46.6504 321.277 46.1426C321.974 45.6283 322.768 45.3711 323.66 45.3711ZM323.66 47.3242C323.165 47.3242 322.729 47.4967 322.352 47.8418C321.974 48.1803 321.681 48.6719 321.473 49.3164C321.264 49.9544 321.16 50.7161 321.16 51.6016C321.16 52.4935 321.264 53.2617 321.473 53.9062C321.681 54.5508 321.974 55.0456 322.352 55.3906C322.729 55.7292 323.165 55.8984 323.66 55.8984C324.161 55.8984 324.601 55.7292 324.979 55.3906C325.356 55.0456 325.646 54.5508 325.848 53.9062C326.056 53.2617 326.16 52.4935 326.16 51.6016C326.16 50.7161 326.056 49.9512 325.848 49.3066C325.646 48.6621 325.356 48.1706 324.979 47.832C324.601 47.4935 324.161 47.3242 323.66 47.3242ZM332.742 50.8594H335.457V52.6953H332.742V61.7383H330.574V44.082H332.742V50.8594ZM346.371 47.207C346.371 48.0013 346.527 48.7663 346.84 49.502C347.159 50.2376 347.628 50.8919 348.246 51.4648C348.871 52.0312 349.626 52.4674 350.512 52.7734L349.32 54.4727C348.383 54.1146 347.572 53.6068 346.889 52.9492C346.212 52.2917 345.684 51.5234 345.307 50.6445C344.916 51.6341 344.359 52.4935 343.637 53.2227C342.921 53.9518 342.055 54.5052 341.039 54.8828L339.887 53.1641C340.805 52.8516 341.583 52.3926 342.221 51.7871C342.865 51.1816 343.35 50.4818 343.676 49.6875C344.008 48.8932 344.177 48.0599 344.184 47.1875V45.1758H346.371V47.207ZM354.73 57.207H352.562V49.7656H349.047V47.9883H352.562V44.1016H354.73V57.207ZM355.121 61.3867H343.09V55.7812H345.297V59.6289H355.121V61.3867ZM364.328 47.0508H359.484V48.7695H364.152V50.4297H359.484V52.2852C360.624 52.2721 361.597 52.2363 362.404 52.1777C363.218 52.1191 364.035 52.0117 364.855 51.8555L365.09 53.6133C364.12 53.7956 363.163 53.916 362.219 53.9746C361.281 54.0332 360.064 54.0625 358.566 54.0625H357.395V45.3125H364.328V47.0508ZM371.828 54.8438H369.758V50.2539H367.922V54.707H365.891V44.4336H367.922V48.5156H369.758V44.1016H371.828V54.8438ZM371.828 61.7383H369.66V57.3828H359.738V55.625H371.828V61.7383ZM387.344 51.1133H390.059V52.9102H387.344V61.7383H385.195V44.082H387.344V51.1133ZM383.828 48.5352H373.418V46.7969H377.598V44.3359H379.766V46.7969H383.828V48.5352ZM378.691 49.6875C379.531 49.6875 380.286 49.8665 380.957 50.2246C381.634 50.5762 382.165 51.0677 382.549 51.6992C382.933 52.3307 383.125 53.0469 383.125 53.8477C383.125 54.6484 382.933 55.3646 382.549 55.9961C382.165 56.6211 381.634 57.1094 380.957 57.4609C380.286 57.8125 379.531 57.9883 378.691 57.9883C377.839 57.9883 377.074 57.8125 376.396 57.4609C375.719 57.1094 375.189 56.6211 374.805 55.9961C374.421 55.3646 374.232 54.6484 374.238 53.8477C374.232 53.0469 374.421 52.3307 374.805 51.6992C375.189 51.0677 375.719 50.5762 376.396 50.2246C377.074 49.8665 377.839 49.6875 378.691 49.6875ZM378.691 51.4648C378.229 51.4648 377.816 51.5625 377.451 51.7578C377.093 51.9531 376.813 52.2331 376.611 52.5977C376.41 52.9557 376.309 53.3724 376.309 53.8477C376.309 54.3229 376.41 54.7396 376.611 55.0977C376.813 55.4492 377.093 55.7227 377.451 55.918C377.816 56.1068 378.229 56.1979 378.691 56.1914C379.141 56.1979 379.541 56.1068 379.893 55.918C380.251 55.7227 380.531 55.4492 380.732 55.0977C380.941 54.7396 381.048 54.3229 381.055 53.8477C381.048 53.3724 380.941 52.9557 380.732 52.5977C380.531 52.2396 380.251 51.9629 379.893 51.7676C379.541 51.5658 379.141 51.4648 378.691 51.4648ZM404.715 47.4023V47.6172C404.708 48.5938 404.689 49.4434 404.656 50.166C404.63 50.8822 404.568 51.7155 404.471 52.666C404.373 53.61 404.22 54.6354 404.012 55.7422L401.824 55.5078C402.033 54.4792 402.186 53.5091 402.283 52.5977C402.381 51.6797 402.443 50.8659 402.469 50.1562C402.501 49.4466 402.521 48.6133 402.527 47.6562V47.4414H391.98V45.7031H404.715V47.4023ZM406.395 59.4531H390.301V57.6758H396.238V51.543H398.387V57.6758H406.395V59.4531ZM164.992 74.7812H167.707V76.5586H164.992V85.7578H162.824V68.082H164.992V74.7812ZM160.148 71.5195H154.055V79.625C155.48 79.625 156.766 79.5827 157.912 79.498C159.058 79.4134 160.22 79.2669 161.398 79.0586L161.652 80.8945C160.376 81.1159 159.113 81.2624 157.863 81.334C156.62 81.4056 155.116 81.4414 153.352 81.4414H151.887V69.7617H160.148V71.5195ZM175.977 68.4336C177.272 68.4336 178.395 68.5703 179.346 68.8438C180.303 69.1172 181.038 69.5143 181.553 70.0352C182.074 70.5495 182.337 71.1615 182.344 71.8711C182.337 72.5677 182.074 73.1699 181.553 73.6777C181.038 74.1855 180.303 74.5729 179.346 74.8398C178.395 75.1068 177.272 75.237 175.977 75.2305C174.694 75.237 173.571 75.1068 172.607 74.8398C171.65 74.5729 170.911 74.1855 170.391 73.6777C169.87 73.1699 169.609 72.5677 169.609 71.8711C169.609 71.1615 169.87 70.5495 170.391 70.0352C170.911 69.5143 171.65 69.1172 172.607 68.8438C173.571 68.5703 174.694 68.4336 175.977 68.4336ZM175.977 70.1328C174.674 70.1328 173.662 70.2826 172.939 70.582C172.223 70.8815 171.868 71.3112 171.875 71.8711C171.868 72.4049 172.223 72.8151 172.939 73.1016C173.662 73.388 174.674 73.5378 175.977 73.5508C177.279 73.5378 178.291 73.388 179.014 73.1016C179.736 72.8151 180.098 72.4049 180.098 71.8711C180.098 71.3112 179.736 70.8815 179.014 70.582C178.291 70.2826 177.279 70.1328 175.977 70.1328ZM182.09 85.5234H169.844V79.5859H182.09V85.5234ZM171.992 83.7656H179.98V81.3047H171.992V83.7656ZM184.043 78.1797H167.949V76.4219H184.043V78.1797ZM192.762 69.0781C193.999 69.0781 195.118 69.2865 196.121 69.7031C197.124 70.1133 197.911 70.696 198.484 71.4512C199.057 72.2064 199.344 73.0755 199.344 74.0586C199.344 75.0547 199.057 75.9336 198.484 76.6953C197.911 77.4505 197.124 78.0365 196.121 78.4531C195.125 78.8698 194.005 79.0781 192.762 79.0781C191.525 79.0781 190.408 78.8698 189.412 78.4531C188.416 78.0365 187.632 77.4505 187.059 76.6953C186.492 75.9336 186.212 75.0547 186.219 74.0586C186.212 73.0755 186.492 72.2064 187.059 71.4512C187.632 70.696 188.416 70.1133 189.412 69.7031C190.408 69.2865 191.525 69.0781 192.762 69.0781ZM192.762 70.8359C191.915 70.8294 191.154 70.9596 190.477 71.2266C189.799 71.4935 189.269 71.8743 188.885 72.3691C188.501 72.8574 188.309 73.4206 188.309 74.0586C188.309 74.7096 188.501 75.2826 188.885 75.7773C189.269 76.2656 189.796 76.6432 190.467 76.9102C191.144 77.1706 191.909 77.3008 192.762 77.3008C193.621 77.3008 194.386 77.1706 195.057 76.9102C195.734 76.6432 196.261 76.2656 196.639 75.7773C197.023 75.2826 197.215 74.7096 197.215 74.0586C197.215 73.4206 197.023 72.8574 196.639 72.3691C196.261 71.8743 195.734 71.4935 195.057 71.2266C194.38 70.9596 193.615 70.8294 192.762 70.8359ZM200.867 83.5117H184.734V81.7344H200.867V83.5117ZM217.652 83.6875H201.52V81.8906H208.473V79.0195H203.434V73.2383H213.59V71.0508H203.395V69.293H215.738V74.957H205.602V77.2422H216.148V79.0195H210.621V81.8906H217.652V83.6875ZM237.336 85.5234H225.676V78.9609H237.336V85.5234ZM227.805 83.7656H235.207V80.6992H227.805V83.7656ZM225.715 75.543C226.965 75.5299 228.169 75.4714 229.328 75.3672C230.487 75.2565 231.652 75.0872 232.824 74.8594L233.059 76.6758C231.757 76.9427 230.461 77.1283 229.172 77.2324C227.889 77.3301 226.496 77.3789 224.992 77.3789H223.566V69.0586H225.715V75.543ZM237.336 78.1992H235.168V72.9453H230.559V71.1875H235.168V68.082H237.336V78.1992ZM244.16 69.3711C244.954 69.3711 245.671 69.5827 246.309 70.0059C246.947 70.429 247.467 71.0345 247.871 71.8223C248.275 72.6035 248.525 73.5247 248.623 74.5859H251.992V68.082H254.141V85.7578H251.992V76.3438H248.652C248.574 77.4635 248.337 78.4401 247.939 79.2734C247.542 80.1003 247.018 80.7383 246.367 81.1875C245.716 81.6302 244.98 81.8516 244.16 81.8516C243.275 81.8516 242.49 81.5977 241.807 81.0898C241.123 80.582 240.589 79.8561 240.205 78.9121C239.821 77.9681 239.629 76.8646 239.629 75.6016C239.629 74.3516 239.821 73.2578 240.205 72.3203C240.589 71.3763 241.123 70.6504 241.807 70.1426C242.497 69.6283 243.281 69.3711 244.16 69.3711ZM244.16 71.3242C243.672 71.3242 243.242 71.4967 242.871 71.8418C242.5 72.1803 242.214 72.6719 242.012 73.3164C241.81 73.9544 241.712 74.7161 241.719 75.6016C241.712 76.4935 241.81 77.2617 242.012 77.9062C242.214 78.5508 242.5 79.0456 242.871 79.3906C243.242 79.7292 243.672 79.8984 244.16 79.8984C244.648 79.8984 245.075 79.7292 245.439 79.3906C245.811 79.0456 246.097 78.5508 246.299 77.9062C246.507 77.2617 246.615 76.4935 246.621 75.6016C246.615 74.7161 246.507 73.9512 246.299 73.3066C246.097 72.6621 245.811 72.1706 245.439 71.832C245.075 71.4935 244.648 71.3242 244.16 71.3242ZM269.949 74.9766H272.566V76.793H269.949V85.6992H267.781V68.082H269.949V74.9766ZM265.281 69.918C265.281 75.7122 262.605 79.9245 257.254 82.5547L256.023 80.875C258.172 79.8073 259.829 78.515 260.994 76.998C262.166 75.4811 262.863 73.7201 263.084 71.7148H256.98V69.918H265.281ZM293.246 79.6836H286.234V85.7188H284.086V79.6836H277.152V77.9258H293.246V79.6836ZM291.762 70.7969H286.459C286.505 71.4414 286.781 72.0632 287.289 72.6621C287.797 73.2546 288.493 73.7624 289.379 74.1855C290.264 74.6087 291.273 74.8919 292.406 75.0352L291.625 76.7344C290.128 76.526 288.816 76.0964 287.689 75.4453C286.57 74.7943 285.74 73.987 285.199 73.0234C284.659 73.9805 283.829 74.7878 282.709 75.4453C281.589 76.0964 280.29 76.526 278.812 76.7344L277.992 75.0352C279.118 74.8919 280.121 74.6087 281 74.1855C281.885 73.7624 282.582 73.2546 283.09 72.6621C283.604 72.0632 283.887 71.4414 283.939 70.7969H278.637V69.0781H291.762V70.7969ZM299.445 72.7109C299.445 73.7005 299.562 74.6608 299.797 75.5918C300.038 76.5228 300.412 77.3757 300.92 78.1504C301.428 78.9251 302.062 79.5534 302.824 80.0352L301.633 81.6953C300.865 81.2331 300.214 80.6146 299.68 79.8398C299.146 79.0586 298.726 78.1634 298.42 77.1543C298.088 78.2546 297.635 79.2311 297.062 80.084C296.49 80.9368 295.799 81.6107 294.992 82.1055L293.645 80.4844C294.471 79.9831 295.161 79.3255 295.715 78.5117C296.268 77.6979 296.678 76.8027 296.945 75.8262C297.219 74.8496 297.355 73.8438 297.355 72.8086V69.6445H299.445V72.7109ZM309.172 85.7383H307.082V68.082H309.172V85.7383ZM305.5 84.8789H303.449V75.9531H300.93V74.1562H303.449V68.3945H305.5V84.8789ZM326.855 83.5898H310.723V81.8125H314.453V77.3496C313.737 76.9329 313.18 76.4154 312.783 75.7969C312.393 75.1784 312.201 74.4818 312.207 73.707C312.201 72.7891 312.477 71.9753 313.037 71.2656C313.597 70.556 314.375 70.0091 315.371 69.625C316.367 69.2344 317.493 69.0391 318.75 69.0391C320.013 69.0391 321.143 69.2344 322.139 69.625C323.141 70.0091 323.923 70.556 324.482 71.2656C325.049 71.9688 325.332 72.7826 325.332 73.707C325.332 74.4622 325.14 75.1491 324.756 75.7676C324.378 76.3796 323.841 76.8906 323.145 77.3008V81.8125H326.855V83.5898ZM318.75 70.7578C317.871 70.7578 317.096 70.8783 316.426 71.1191C315.762 71.3535 315.244 71.6921 314.873 72.1348C314.508 72.5775 314.329 73.1016 314.336 73.707C314.329 74.306 314.508 74.8268 314.873 75.2695C315.244 75.7122 315.765 76.054 316.436 76.2949C317.106 76.5358 317.878 76.6562 318.75 76.6562C319.622 76.6562 320.394 76.5358 321.064 76.2949C321.742 76.054 322.266 75.7122 322.637 75.2695C323.014 74.8268 323.203 74.306 323.203 73.707C323.203 73.1081 323.014 72.5872 322.637 72.1445C322.266 71.6953 321.745 71.3535 321.074 71.1191C320.404 70.8783 319.629 70.7578 318.75 70.7578ZM320.938 81.8125V78.1309C320.247 78.2806 319.518 78.3555 318.75 78.3555C318.014 78.3555 317.298 78.2839 316.602 78.1406V81.8125H320.938Z" fill="white"/>
<path d="M466.665 11.332V44.6654H433.332V11.332H466.665ZM457.07 23.2854L454.715 20.927L449.999 25.642L445.285 20.927L442.929 23.2854L447.642 27.9987L442.929 32.712L445.285 35.0704L450 30.3554L454.714 35.0704L457.07 32.712L452.357 27.9987L457.07 23.2854Z" fill="white"/>
</svg>
