<svg width="317" height="130" viewBox="0 0 317 130" fill="none" xmlns="http://www.w3.org/2000/svg">
<rect width="317" height="130" fill="#444F55"/>
<path d="M309.667 6.33594V39.6693H276.334V6.33594H309.667ZM300.072 18.2893L297.717 15.9309L293.001 20.6459L288.287 15.9309L285.931 18.2893L290.644 23.0026L285.931 27.7159L288.287 30.0743L293.002 25.3593L297.716 30.0743L300.072 27.7159L295.359 23.0026L300.072 18.2893Z" fill="white"/>
<path d="M52.9059 60.4824C53.9957 60.4824 54.9391 60.6025 55.7359 60.8428C56.5387 61.0771 57.1539 61.4229 57.5816 61.8799C58.0094 62.3311 58.2262 62.873 58.232 63.5059C58.2262 64.1445 58.0094 64.6924 57.5816 65.1494C57.1539 65.6123 56.5387 65.9639 55.7359 66.2041C54.9391 66.4443 53.9957 66.5645 52.9059 66.5645C51.8043 66.5645 50.8492 66.4443 50.0406 66.2041C49.232 65.9639 48.6109 65.6123 48.1773 65.1494C47.7438 64.6924 47.527 64.1445 47.527 63.5059C47.527 62.873 47.7438 62.3311 48.1773 61.8799C48.6109 61.4229 49.2291 61.0771 50.0318 60.8428C50.8404 60.6025 51.7984 60.4824 52.9059 60.4824ZM52.9059 62.0117C51.8043 62.0117 50.9576 62.1406 50.3658 62.3984C49.774 62.6504 49.4781 63.0195 49.4781 63.5059C49.4781 63.998 49.774 64.373 50.3658 64.6309C50.9635 64.8887 51.8102 65.0176 52.9059 65.0176C54.0016 65.0176 54.8395 64.8887 55.4195 64.6309C56.0055 64.373 56.2984 63.998 56.2984 63.5059C56.2984 63.0195 56.0055 62.6504 55.4195 62.3984C54.8395 62.1406 54.0016 62.0117 52.9059 62.0117ZM58.0738 54.4707H60.2887V56.1055H58.0738V60.0957H56.1227V50.6738H58.0738V54.4707ZM48.0191 53.8203H51.7281V51.6758H53.6617V59.0938H46.0855V51.6758H48.0191V53.8203ZM51.7281 57.5469V55.3496H48.0191V57.5469H51.7281ZM66.3426 53.5391C66.3426 54.2012 66.4832 54.8311 66.7645 55.4287C67.0516 56.0264 67.4764 56.5566 68.0389 57.0195C68.6014 57.4766 69.284 57.8281 70.0867 58.0742L69.1551 59.6035C68.282 59.334 67.5262 58.9297 66.8875 58.3906C66.2547 57.8516 65.7596 57.2158 65.4022 56.4834C65.0447 57.333 64.532 58.0713 63.8641 58.6982C63.1961 59.3252 62.3934 59.7969 61.4559 60.1133L60.4715 58.5664C61.3035 58.291 62.0125 57.8984 62.5984 57.3887C63.1844 56.873 63.6268 56.2842 63.9256 55.6221C64.2244 54.96 64.3738 54.2715 64.3738 53.5566V53.3633H61.0164V51.7812H69.6473V53.3633H66.3426V53.5391ZM73.1805 54.4883H75.3953V56.0879H73.1805V60.1484H71.2293V50.6738H73.1805V54.4883ZM68.0125 60.5C69.1023 60.5 70.0457 60.6201 70.8426 60.8604C71.6453 61.0947 72.2605 61.4375 72.6883 61.8887C73.116 62.3398 73.3328 62.8789 73.3387 63.5059C73.3328 64.1387 73.1131 64.6836 72.6795 65.1406C72.2518 65.5977 71.6395 65.9463 70.8426 66.1865C70.0457 66.4268 69.1023 66.5469 68.0125 66.5469C66.9109 66.5469 65.9559 66.4268 65.1473 66.1865C64.3387 65.9463 63.7176 65.5977 63.284 65.1406C62.8504 64.6836 62.6336 64.1387 62.6336 63.5059C62.6336 62.8789 62.8504 62.3398 63.284 61.8887C63.7176 61.4375 64.3387 61.0947 65.1473 60.8604C65.9559 60.6201 66.9109 60.5 68.0125 60.5ZM68.0125 62.0293C66.9168 62.0293 66.0701 62.1553 65.4725 62.4072C64.8807 62.6592 64.5848 63.0254 64.5848 63.5059C64.5848 63.998 64.8807 64.373 65.4725 64.6309C66.0701 64.8887 66.9168 65.0176 68.0125 65.0176C69.1082 65.0176 69.9461 64.8887 70.5262 64.6309C71.1121 64.373 71.4051 63.998 71.4051 63.5059C71.4051 63.0254 71.1121 62.6592 70.5262 62.4072C69.9461 62.1553 69.1082 62.0293 68.0125 62.0293ZM88.9727 66.582H87.0039V50.6738H88.9727V66.582ZM80.4121 51.834C81.209 51.834 81.918 52.0654 82.5391 52.5283C83.166 52.9854 83.6582 53.6387 84.0156 54.4883C84.373 55.332 84.5547 56.3164 84.5605 57.4414C84.5547 58.5723 84.373 59.5625 84.0156 60.4121C83.6641 61.2617 83.1748 61.918 82.5479 62.3809C81.9209 62.8379 81.209 63.0664 80.4121 63.0664C79.6094 63.0664 78.8945 62.8379 78.2676 62.3809C77.6406 61.918 77.1484 61.2617 76.791 60.4121C76.4395 59.5625 76.2637 58.5723 76.2637 57.4414C76.2637 56.3164 76.4395 55.332 76.791 54.4883C77.1484 53.6387 77.6406 52.9854 78.2676 52.5283C78.8945 52.0654 79.6094 51.834 80.4121 51.834ZM80.4121 53.5918C79.9609 53.5918 79.5625 53.7441 79.2168 54.0488C78.877 54.3535 78.6133 54.7959 78.4258 55.376C78.2383 55.9561 78.1445 56.6445 78.1445 57.4414C78.1445 58.2441 78.2383 58.9355 78.4258 59.5156C78.6133 60.0957 78.877 60.541 79.2168 60.8516C79.5625 61.1562 79.9609 61.3086 80.4121 61.3086C80.8574 61.3086 81.25 61.1562 81.5898 60.8516C81.9297 60.541 82.1934 60.0957 82.3809 59.5156C82.5684 58.9355 82.6621 58.2441 82.6621 57.4414C82.6621 56.6445 82.5684 55.959 82.3809 55.3848C82.1934 54.8047 81.9297 54.3623 81.5898 54.0576C81.25 53.7471 80.8574 53.5918 80.4121 53.5918ZM107.83 52.6074H105.651V55.0156H107.743V56.4922H96.0707V55.0156H98.1625V52.6074H95.9828V51.1309H107.83V52.6074ZM109.166 59.041H94.682V57.4941H109.166V59.041ZM107.356 63.8926H98.3207V64.9648H107.795V66.4238H96.4047V62.5391H105.44V61.5371H96.3871V60.1133H107.356V63.8926ZM103.682 55.0156V52.6074H100.114V55.0156H103.682ZM115.906 58.1621H112.144V61.1504C113.088 61.1387 113.949 61.1035 114.728 61.0449C115.507 60.9863 116.31 60.8809 117.136 60.7285L117.295 62.3281C116.316 62.5039 115.373 62.6211 114.464 62.6797C113.562 62.7383 112.531 62.7676 111.371 62.7676H110.263V56.6152H114.025V53.8906H110.246V52.3262H115.906V58.1621ZM123.464 66.5645H121.601V50.6738H123.464V66.5645ZM120.195 65.7559H118.349V57.793H116.609V56.1934H118.349V51.0078H120.195V65.7559ZM138.114 66.582H136.145V50.6738H138.114V66.582ZM129.554 51.834C130.35 51.834 131.059 52.0654 131.68 52.5283C132.307 52.9854 132.8 53.6387 133.157 54.4883C133.514 55.332 133.696 56.3164 133.702 57.4414C133.696 58.5723 133.514 59.5625 133.157 60.4121C132.805 61.2617 132.316 61.918 131.689 62.3809C131.062 62.8379 130.35 63.0664 129.554 63.0664C128.751 63.0664 128.036 62.8379 127.409 62.3809C126.782 61.918 126.29 61.2617 125.932 60.4121C125.581 59.5625 125.405 58.5723 125.405 57.4414C125.405 56.3164 125.581 55.332 125.932 54.4883C126.29 53.6387 126.782 52.9854 127.409 52.5283C128.036 52.0654 128.751 51.834 129.554 51.834ZM129.554 53.5918C129.102 53.5918 128.704 53.7441 128.358 54.0488C128.018 54.3535 127.755 54.7959 127.567 55.376C127.38 55.9561 127.286 56.6445 127.286 57.4414C127.286 58.2441 127.38 58.9355 127.567 59.5156C127.755 60.0957 128.018 60.541 128.358 60.8516C128.704 61.1562 129.102 61.3086 129.554 61.3086C129.999 61.3086 130.391 61.1562 130.731 60.8516C131.071 60.541 131.335 60.0957 131.522 59.5156C131.71 58.9355 131.804 58.2441 131.804 57.4414C131.804 56.6445 131.71 55.959 131.522 55.3848C131.335 54.8047 131.071 54.3623 130.731 54.0576C130.391 53.7471 129.999 53.5918 129.554 53.5918ZM144.344 51.834C145.059 51.834 145.703 52.0244 146.277 52.4053C146.852 52.7861 147.32 53.3311 147.684 54.04C148.047 54.7432 148.272 55.5723 148.36 56.5273H151.393V50.6738H153.326V66.582H151.393V58.1094H148.387C148.316 59.1172 148.103 59.9961 147.745 60.7461C147.388 61.4902 146.916 62.0645 146.33 62.4688C145.744 62.8672 145.082 63.0664 144.344 63.0664C143.547 63.0664 142.841 62.8379 142.226 62.3809C141.61 61.9238 141.13 61.2705 140.784 60.4209C140.438 59.5713 140.266 58.5781 140.266 57.4414C140.266 56.3164 140.438 55.332 140.784 54.4883C141.13 53.6387 141.61 52.9854 142.226 52.5283C142.847 52.0654 143.553 51.834 144.344 51.834ZM144.344 53.5918C143.904 53.5918 143.518 53.7471 143.184 54.0576C142.85 54.3623 142.592 54.8047 142.41 55.3848C142.229 55.959 142.141 56.6445 142.146 57.4414C142.141 58.2441 142.229 58.9355 142.41 59.5156C142.592 60.0957 142.85 60.541 143.184 60.8516C143.518 61.1562 143.904 61.3086 144.344 61.3086C144.783 61.3086 145.167 61.1562 145.495 60.8516C145.829 60.541 146.087 60.0957 146.269 59.5156C146.456 58.9355 146.553 58.2441 146.559 57.4414C146.553 56.6445 146.456 55.9561 146.269 55.376C146.087 54.7959 145.829 54.3535 145.495 54.0488C145.167 53.7441 144.783 53.5918 144.344 53.5918ZM164.08 65.1758C163.184 65.1758 162.381 65.0234 161.672 64.7188C160.963 64.4141 160.407 63.9893 160.002 63.4443C159.598 62.8936 159.387 62.2637 159.37 61.5547H161.672C161.696 61.8887 161.813 62.1846 162.024 62.4424C162.241 62.6943 162.528 62.8906 162.885 63.0312C163.243 63.1719 163.641 63.2422 164.08 63.2422C164.543 63.2422 164.956 63.1631 165.32 63.0049C165.689 62.8408 165.976 62.6152 166.181 62.3281C166.386 62.041 166.489 61.7129 166.489 61.3438C166.489 60.9629 166.383 60.623 166.172 60.3242C165.961 60.0254 165.657 59.7939 165.258 59.6299C164.86 59.46 164.391 59.375 163.852 59.375H162.709V57.6172H163.852C164.297 57.6172 164.693 57.541 165.038 57.3887C165.39 57.2305 165.662 57.0107 165.856 56.7295C166.049 56.4424 166.143 56.1172 166.137 55.7539C166.143 55.4023 166.061 55.0918 165.891 54.8223C165.727 54.5469 165.49 54.3359 165.179 54.1895C164.869 54.0371 164.508 53.9609 164.098 53.9609C163.7 53.9609 163.328 54.0342 162.982 54.1807C162.642 54.3213 162.367 54.5234 162.156 54.7871C161.951 55.0508 161.842 55.3555 161.83 55.7012H159.633C159.651 54.998 159.856 54.374 160.248 53.8291C160.647 53.2842 161.183 52.8594 161.857 52.5547C162.537 52.25 163.289 52.0977 164.116 52.0977C164.954 52.0977 165.695 52.2559 166.339 52.5723C166.984 52.8828 167.482 53.3076 167.833 53.8467C168.185 54.3857 168.358 54.9805 168.352 55.6309C168.358 56.0996 168.264 56.5244 168.071 56.9053C167.877 57.2861 167.605 57.6025 167.253 57.8545C166.902 58.1064 166.495 58.2793 166.032 58.373V58.4785C166.623 58.5605 167.13 58.7363 167.552 59.0059C167.974 59.2695 168.293 59.6123 168.51 60.0342C168.727 60.4561 168.832 60.9336 168.827 61.4668C168.832 62.1699 168.63 62.8057 168.22 63.374C167.816 63.9365 167.25 64.3789 166.524 64.7012C165.803 65.0176 164.989 65.1758 164.08 65.1758ZM183.089 62.1699H181.121V50.6914H183.089V62.1699ZM183.529 66.248H172.578V61.0098H174.546V64.666H183.529V66.248ZM174.423 51.7285C175.22 51.7285 175.944 51.9014 176.594 52.2471C177.245 52.5869 177.757 53.0586 178.132 53.6621C178.507 54.2656 178.695 54.9453 178.695 55.7012C178.695 56.4688 178.507 57.1572 178.132 57.7666C177.757 58.3701 177.245 58.8418 176.594 59.1816C175.944 59.5215 175.22 59.6914 174.423 59.6914C173.621 59.6914 172.891 59.5215 172.235 59.1816C171.585 58.8418 171.072 58.3701 170.697 57.7666C170.322 57.1572 170.134 56.4688 170.134 55.7012C170.134 54.9453 170.322 54.2656 170.697 53.6621C171.072 53.0586 171.585 52.5869 172.235 52.2471C172.891 51.9014 173.621 51.7285 174.423 51.7285ZM174.423 53.4336C173.972 53.4336 173.565 53.5273 173.202 53.7148C172.838 53.9023 172.554 54.1689 172.349 54.5146C172.144 54.8604 172.045 55.2559 172.05 55.7012C172.045 56.1582 172.144 56.5596 172.349 56.9053C172.554 57.251 172.838 57.5176 173.202 57.7051C173.565 57.8926 173.972 57.9863 174.423 57.9863C174.863 57.9863 175.261 57.8926 175.619 57.7051C175.976 57.5176 176.257 57.251 176.463 56.9053C176.673 56.5596 176.779 56.1582 176.779 55.7012C176.779 55.2559 176.673 54.8604 176.463 54.5146C176.257 54.1689 175.976 53.9023 175.619 53.7148C175.261 53.5273 174.863 53.4336 174.423 53.4336ZM190.11 51.7812C190.936 51.7754 191.68 51.9365 192.343 52.2646C193.011 52.5869 193.532 53.041 193.907 53.627C194.288 54.2129 194.481 54.875 194.487 55.6133C194.481 56.3574 194.288 57.0225 193.907 57.6084C193.532 58.1943 193.013 58.6514 192.351 58.9795C191.689 59.3018 190.942 59.4629 190.11 59.4629C189.284 59.4629 188.54 59.2988 187.878 58.9707C187.216 58.6426 186.694 58.1885 186.313 57.6084C185.938 57.0225 185.751 56.3574 185.751 55.6133C185.751 54.875 185.938 54.2129 186.313 53.627C186.694 53.041 187.216 52.5869 187.878 52.2646C188.546 51.9365 189.29 51.7754 190.11 51.7812ZM190.11 53.4688C189.647 53.4688 189.231 53.5566 188.862 53.7324C188.493 53.9082 188.203 54.1602 187.992 54.4883C187.787 54.8105 187.684 55.1855 187.684 55.6133C187.684 56.0469 187.787 56.4277 187.992 56.7559C188.203 57.0781 188.493 57.3271 188.862 57.5029C189.231 57.6729 189.647 57.7578 190.11 57.7578C190.579 57.7578 190.998 57.6729 191.367 57.5029C191.742 57.3271 192.035 57.0781 192.246 56.7559C192.463 56.4277 192.571 56.0469 192.571 55.6133C192.571 55.1855 192.463 54.8105 192.246 54.4883C192.035 54.1602 191.742 53.9082 191.367 53.7324C190.998 53.5566 190.579 53.4688 190.11 53.4688ZM198.196 66.582H196.245V50.6738H198.196V66.582ZM185.03 61.6602C186.975 61.6602 188.792 61.6279 190.479 61.5635C192.173 61.4932 193.778 61.3496 195.296 61.1328L195.454 62.5566C193.884 62.8613 192.287 63.0547 190.664 63.1367C189.047 63.2188 187.251 63.2598 185.276 63.2598L185.03 61.6602ZM209.038 51.7812C209.864 51.7754 210.609 51.9365 211.271 52.2646C211.939 52.5869 212.46 53.041 212.835 53.627C213.216 54.2129 213.409 54.875 213.415 55.6133C213.409 56.3574 213.216 57.0225 212.835 57.6084C212.46 58.1943 211.942 58.6514 211.279 58.9795C210.617 59.3018 209.87 59.4629 209.038 59.4629C208.212 59.4629 207.468 59.2988 206.806 58.9707C206.144 58.6426 205.622 58.1885 205.241 57.6084C204.866 57.0225 204.679 56.3574 204.679 55.6133C204.679 54.875 204.866 54.2129 205.241 53.627C205.622 53.041 206.144 52.5869 206.806 52.2646C207.474 51.9365 208.218 51.7754 209.038 51.7812ZM209.038 53.4688C208.575 53.4688 208.159 53.5566 207.79 53.7324C207.421 53.9082 207.131 54.1602 206.92 54.4883C206.715 54.8105 206.612 55.1855 206.612 55.6133C206.612 56.0469 206.715 56.4277 206.92 56.7559C207.131 57.0781 207.421 57.3271 207.79 57.5029C208.159 57.6729 208.575 57.7578 209.038 57.7578C209.507 57.7578 209.926 57.6729 210.295 57.5029C210.67 57.3271 210.963 57.0781 211.174 56.7559C211.391 56.4277 211.499 56.0469 211.499 55.6133C211.499 55.1855 211.391 54.8105 211.174 54.4883C210.963 54.1602 210.67 53.9082 210.295 53.7324C209.926 53.5566 209.507 53.4688 209.038 53.4688ZM217.124 66.582H215.173V50.6738H217.124V66.582ZM203.958 61.6602C205.904 61.6602 207.72 61.6279 209.407 61.5635C211.101 61.4932 212.706 61.3496 214.224 61.1328L214.382 62.5566C212.812 62.8613 211.215 63.0547 209.592 63.1367C207.975 63.2188 206.179 63.2598 204.204 63.2598L203.958 61.6602ZM232.301 62.4336H230.35V58.9707H226.518V57.3711H230.35V55.4023H226.729C226.166 56.6211 225.314 57.6787 224.171 58.5752C223.035 59.4717 221.661 60.166 220.049 60.6582L219.223 59.1289C220.395 58.7539 221.417 58.2852 222.29 57.7227C223.163 57.1543 223.861 56.5127 224.382 55.7979C224.904 55.0771 225.223 54.3008 225.34 53.4688H220.049V51.9043H227.485C227.485 52.5371 227.414 53.1758 227.274 53.8203H230.35V50.6914H232.301V62.4336ZM232.705 66.248H221.948V61.2734H223.934V64.666H232.705V66.248ZM241.326 50.9199C242.533 50.9199 243.561 51.0254 244.411 51.2363C245.266 51.4473 245.92 51.7578 246.371 52.168C246.822 52.5723 247.05 53.0645 247.056 53.6445C247.05 54.5234 246.549 55.1973 245.553 55.666C244.557 56.1348 243.148 56.375 241.326 56.3867C239.498 56.375 238.086 56.1348 237.089 55.666C236.093 55.1973 235.595 54.5234 235.595 53.6445C235.595 53.0645 235.821 52.5723 236.272 52.168C236.723 51.7578 237.377 51.4473 238.232 51.2363C239.087 51.0254 240.119 50.9199 241.326 50.9199ZM241.326 52.3613C240.119 52.3613 239.202 52.4727 238.575 52.6953C237.948 52.9121 237.64 53.2285 237.652 53.6445C237.646 54.0781 237.951 54.4004 238.566 54.6113C239.181 54.8223 240.101 54.9277 241.326 54.9277C242.568 54.9277 243.497 54.8223 244.112 54.6113C244.727 54.4004 245.035 54.0781 245.035 53.6445C245.035 53.2285 244.721 52.9121 244.094 52.6953C243.467 52.4727 242.545 52.3613 241.326 52.3613ZM248.586 58.7949H234.101V57.2305H248.586V58.7949ZM246.775 63.752H237.74V64.9297H247.214V66.4238H235.824V62.3633H244.859V61.3086H235.806V59.8672H246.775V63.752ZM267.549 64.6309H253.029V63.0312H259.287V59.5684H254.629V51.9043H265.879V59.5684H261.221V63.0312H267.549V64.6309ZM256.545 58.0391H263.945V53.4688H256.545V58.0391ZM272.407 51.834C273.204 51.834 273.913 52.0654 274.534 52.5283C275.155 52.9854 275.642 53.6387 275.993 54.4883C276.351 55.332 276.532 56.3164 276.538 57.4414C276.532 58.5781 276.351 59.5713 275.993 60.4209C275.642 61.2705 275.155 61.9238 274.534 62.3809C273.913 62.8379 273.204 63.0664 272.407 63.0664C271.605 63.0664 270.89 62.8379 270.263 62.3809C269.636 61.918 269.147 61.2617 268.795 60.4121C268.444 59.5625 268.271 58.5723 268.277 57.4414C268.271 56.3223 268.444 55.3379 268.795 54.4883C269.147 53.6387 269.636 52.9854 270.263 52.5283C270.89 52.0654 271.605 51.834 272.407 51.834ZM272.407 53.5918C271.962 53.5918 271.57 53.7471 271.23 54.0576C270.89 54.3623 270.626 54.8047 270.439 55.3848C270.251 55.959 270.157 56.6445 270.157 57.4414C270.157 58.2441 270.251 58.9355 270.439 59.5156C270.626 60.0957 270.89 60.541 271.23 60.8516C271.57 61.1562 271.962 61.3086 272.407 61.3086C272.859 61.3086 273.254 61.1562 273.594 60.8516C273.934 60.541 274.195 60.0957 274.376 59.5156C274.564 58.9355 274.657 58.2441 274.657 57.4414C274.657 56.6445 274.564 55.9561 274.376 55.376C274.195 54.7959 273.934 54.3535 273.594 54.0488C273.254 53.7441 272.859 53.5918 272.407 53.5918ZM280.581 56.7734H283.025V58.4258H280.581V66.5645H278.63V50.6738H280.581V56.7734ZM62.5176 77.4863C62.5176 78.2012 62.6582 78.8896 62.9395 79.5518C63.2266 80.2139 63.6484 80.8027 64.2051 81.3184C64.7676 81.8281 65.4473 82.2207 66.2441 82.4961L65.1719 84.0254C64.3281 83.7031 63.5986 83.2461 62.9834 82.6543C62.374 82.0625 61.8994 81.3711 61.5596 80.5801C61.208 81.4707 60.707 82.2441 60.0566 82.9004C59.4121 83.5566 58.6328 84.0547 57.7188 84.3945L56.6816 82.8477C57.5078 82.5664 58.208 82.1533 58.7822 81.6084C59.3623 81.0635 59.7988 80.4336 60.0918 79.7188C60.3906 79.0039 60.543 78.2539 60.5488 77.4688V75.6582H62.5176V77.4863ZM70.041 86.4863H68.0898V79.7891H64.9258V78.1895H68.0898V74.6914H70.041V86.4863ZM70.3926 90.248H59.5645V85.2031H61.5508V88.666H70.3926V90.248ZM78.6789 77.3457H74.3195V78.8926H78.5207V80.3867H74.3195V82.0566C75.3449 82.0449 76.2209 82.0127 76.9475 81.96C77.6799 81.9072 78.4152 81.8105 79.1535 81.6699L79.3645 83.252C78.4914 83.416 77.6301 83.5244 76.7805 83.5771C75.9367 83.6299 74.841 83.6562 73.4934 83.6562H72.4387V75.7812H78.6789V77.3457ZM85.4289 84.3594H83.5656V80.2285H81.9133V84.2363H80.0852V74.9902H81.9133V78.6641H83.5656V74.6914H85.4289V84.3594ZM85.4289 90.5645H83.4777V86.6445H74.548V85.0625H85.4289V90.5645ZM99.393 81.002H101.836V82.6191H99.393V90.5645H97.4594V74.6738H99.393V81.002ZM96.2289 78.6816H86.8598V77.1172H90.6215V74.9023H92.5727V77.1172H96.2289V78.6816ZM91.6059 79.7188C92.3617 79.7188 93.0414 79.8799 93.6449 80.2021C94.2543 80.5186 94.7318 80.9609 95.0775 81.5293C95.4232 82.0977 95.5961 82.7422 95.5961 83.4629C95.5961 84.1836 95.4232 84.8281 95.0775 85.3965C94.7318 85.959 94.2543 86.3984 93.6449 86.7148C93.0414 87.0312 92.3617 87.1895 91.6059 87.1895C90.8383 87.1895 90.1498 87.0312 89.5404 86.7148C88.9311 86.3984 88.4535 85.959 88.1078 85.3965C87.7621 84.8281 87.5922 84.1836 87.598 83.4629C87.5922 82.7422 87.7621 82.0977 88.1078 81.5293C88.4535 80.9609 88.9311 80.5186 89.5404 80.2021C90.1498 79.8799 90.8383 79.7188 91.6059 79.7188ZM91.6059 81.3184C91.1898 81.3184 90.8178 81.4062 90.4896 81.582C90.1674 81.7578 89.9154 82.0098 89.7338 82.3379C89.5521 82.6602 89.4613 83.0352 89.4613 83.4629C89.4613 83.8906 89.5521 84.2656 89.7338 84.5879C89.9154 84.9043 90.1674 85.1504 90.4896 85.3262C90.8178 85.4961 91.1898 85.5781 91.6059 85.5723C92.0102 85.5781 92.3705 85.4961 92.6869 85.3262C93.0092 85.1504 93.2611 84.9043 93.4428 84.5879C93.6303 84.2656 93.727 83.8906 93.7328 83.4629C93.727 83.0352 93.6303 82.6602 93.4428 82.3379C93.2611 82.0156 93.0092 81.7666 92.6869 81.5908C92.3705 81.4092 92.0102 81.3184 91.6059 81.3184ZM115.027 77.6621V77.8555C115.021 78.7344 115.004 79.499 114.974 80.1494C114.951 80.7939 114.895 81.5439 114.807 82.3994C114.719 83.249 114.582 84.1719 114.394 85.168L112.425 84.957C112.613 84.0312 112.751 83.1582 112.838 82.3379C112.926 81.5117 112.982 80.7793 113.005 80.1406C113.035 79.502 113.052 78.752 113.058 77.8906V77.6973H103.566V76.1328H115.027V77.6621ZM116.539 88.5078H102.054V86.9082H107.398V81.3887H109.332V86.9082H116.539V88.5078ZM133.428 80.7031H135.871V82.3027H133.428V90.582H131.477V74.6738H133.428V80.7031ZM129.068 77.7676H123.584V85.0625C124.867 85.0625 126.024 85.0244 127.056 84.9482C128.087 84.8721 129.133 84.7402 130.193 84.5527L130.422 86.2051C129.273 86.4043 128.137 86.5361 127.012 86.6006C125.893 86.665 124.539 86.6973 122.951 86.6973H121.633V76.1855H129.068V77.7676ZM143.314 74.9902C144.48 74.9902 145.49 75.1133 146.346 75.3594C147.207 75.6055 147.869 75.9629 148.332 76.4316C148.801 76.8945 149.038 77.4453 149.044 78.084C149.038 78.7109 148.801 79.2529 148.332 79.71C147.869 80.167 147.207 80.5156 146.346 80.7559C145.49 80.9961 144.48 81.1133 143.314 81.1074C142.159 81.1133 141.149 80.9961 140.281 80.7559C139.42 80.5156 138.755 80.167 138.286 79.71C137.818 79.2529 137.583 78.7109 137.583 78.084C137.583 77.4453 137.818 76.8945 138.286 76.4316C138.755 75.9629 139.42 75.6055 140.281 75.3594C141.149 75.1133 142.159 74.9902 143.314 74.9902ZM143.314 76.5195C142.142 76.5195 141.231 76.6543 140.58 76.9238C139.936 77.1934 139.616 77.5801 139.622 78.084C139.616 78.5645 139.936 78.9336 140.58 79.1914C141.231 79.4492 142.142 79.584 143.314 79.5957C144.486 79.584 145.397 79.4492 146.047 79.1914C146.697 78.9336 147.023 78.5645 147.023 78.084C147.023 77.5801 146.697 77.1934 146.047 76.9238C145.397 76.6543 144.486 76.5195 143.314 76.5195ZM148.816 90.3711H137.794V85.0273H148.816V90.3711ZM139.728 88.7891H146.917V86.5742H139.728V88.7891ZM150.573 83.7617H136.089V82.1797H150.573V83.7617ZM158.42 75.5703C159.534 75.5703 160.541 75.7578 161.444 76.1328C162.346 76.502 163.055 77.0264 163.571 77.7061C164.086 78.3857 164.344 79.168 164.344 80.0527C164.344 80.9492 164.086 81.7402 163.571 82.4258C163.055 83.1055 162.346 83.6328 161.444 84.0078C160.547 84.3828 159.539 84.5703 158.42 84.5703C157.307 84.5703 156.302 84.3828 155.406 84.0078C154.509 83.6328 153.803 83.1055 153.287 82.4258C152.778 81.7402 152.526 80.9492 152.532 80.0527C152.526 79.168 152.778 78.3857 153.287 77.7061C153.803 77.0264 154.509 76.502 155.406 76.1328C156.302 75.7578 157.307 75.5703 158.42 75.5703ZM158.42 77.1523C157.659 77.1465 156.973 77.2637 156.364 77.5039C155.754 77.7441 155.277 78.0869 154.931 78.5322C154.585 78.9717 154.412 79.4785 154.412 80.0527C154.412 80.6387 154.585 81.1543 154.931 81.5996C155.277 82.0391 155.751 82.3789 156.355 82.6191C156.964 82.8535 157.653 82.9707 158.42 82.9707C159.194 82.9707 159.882 82.8535 160.486 82.6191C161.095 82.3789 161.57 82.0391 161.91 81.5996C162.255 81.1543 162.428 80.6387 162.428 80.0527C162.428 79.4785 162.255 78.9717 161.91 78.5322C161.57 78.0869 161.095 77.7441 160.486 77.5039C159.876 77.2637 159.188 77.1465 158.42 77.1523ZM165.715 88.5605H151.196V86.9609H165.715V88.5605ZM180.822 88.7188H166.302V87.1016H172.56V84.5176H168.025V79.3145H177.166V77.3457H167.99V75.7637H179.099V80.8613H169.976V82.918H179.468V84.5176H174.494V87.1016H180.822V88.7188ZM198.537 90.3711H188.043V84.4648H198.537V90.3711ZM189.959 88.7891H196.621V86.0293H189.959V88.7891ZM188.078 81.3887C189.203 81.377 190.287 81.3242 191.33 81.2305C192.373 81.1309 193.422 80.9785 194.477 80.7734L194.688 82.4082C193.516 82.6484 192.35 82.8154 191.189 82.9092C190.035 82.9971 188.781 83.041 187.428 83.041H186.145V75.5527H188.078V81.3887ZM198.537 83.7793H196.586V79.0508H192.438V77.4688H196.586V74.6738H198.537V83.7793ZM204.679 75.834C205.394 75.834 206.038 76.0244 206.613 76.4053C207.187 76.7861 207.655 77.3311 208.019 78.04C208.382 78.7432 208.608 79.5723 208.696 80.5273H211.728V74.6738H213.661V90.582H211.728V82.1094H208.722C208.652 83.1172 208.438 83.9961 208.08 84.7461C207.723 85.4902 207.251 86.0645 206.665 86.4688C206.079 86.8672 205.417 87.0664 204.679 87.0664C203.882 87.0664 203.176 86.8379 202.561 86.3809C201.946 85.9238 201.465 85.2705 201.119 84.4209C200.774 83.5713 200.601 82.5781 200.601 81.4414C200.601 80.3164 200.774 79.332 201.119 78.4883C201.465 77.6387 201.946 76.9854 202.561 76.5283C203.182 76.0654 203.888 75.834 204.679 75.834ZM204.679 77.5918C204.239 77.5918 203.853 77.7471 203.519 78.0576C203.185 78.3623 202.927 78.8047 202.745 79.3848C202.564 79.959 202.476 80.6445 202.482 81.4414C202.476 82.2441 202.564 82.9355 202.745 83.5156C202.927 84.0957 203.185 84.541 203.519 84.8516C203.853 85.1562 204.239 85.3086 204.679 85.3086C205.118 85.3086 205.502 85.1562 205.83 84.8516C206.164 84.541 206.422 84.0957 206.604 83.5156C206.791 82.9355 206.888 82.2441 206.894 81.4414C206.888 80.6445 206.791 79.9561 206.604 79.376C206.422 78.7959 206.164 78.3535 205.83 78.0488C205.502 77.7441 205.118 77.5918 204.679 77.5918ZM227.889 80.8789H230.245V82.5137H227.889V90.5293H225.938V74.6738H227.889V80.8789ZM223.688 76.3262C223.688 81.541 221.28 85.332 216.463 87.6992L215.356 86.1875C217.289 85.2266 218.781 84.0635 219.829 82.6982C220.884 81.333 221.511 79.748 221.71 77.9434H216.217V76.3262H223.688ZM245.035 85.1152H238.724V90.5469H236.791V85.1152H230.55V83.5332H245.035V85.1152ZM243.699 77.1172H238.926C238.967 77.6973 239.216 78.2568 239.673 78.7959C240.13 79.3291 240.757 79.7861 241.554 80.167C242.351 80.5479 243.259 80.8027 244.279 80.9316L243.576 82.4609C242.228 82.2734 241.047 81.8867 240.034 81.3008C239.026 80.7148 238.279 79.9883 237.793 79.1211C237.306 79.9824 236.559 80.709 235.551 81.3008C234.544 81.8867 233.375 82.2734 232.045 82.4609L231.306 80.9316C232.32 80.8027 233.222 80.5479 234.013 80.167C234.81 79.7861 235.437 79.3291 235.894 78.7959C236.357 78.2568 236.612 77.6973 236.659 77.1172H231.886V75.5703H243.699V77.1172ZM250.614 78.8398C250.614 79.7305 250.72 80.5947 250.93 81.4326C251.147 82.2705 251.484 83.0381 251.941 83.7354C252.398 84.4326 252.97 84.998 253.655 85.4316L252.583 86.9258C251.891 86.5098 251.305 85.9531 250.825 85.2559C250.345 84.5527 249.967 83.7471 249.691 82.8389C249.392 83.8291 248.985 84.708 248.47 85.4756C247.954 86.2432 247.333 86.8496 246.606 87.2949L245.393 85.8359C246.137 85.3848 246.759 84.793 247.257 84.0605C247.755 83.3281 248.124 82.5225 248.364 81.6436C248.61 80.7646 248.733 79.8594 248.733 78.9277V76.0801H250.614V78.8398ZM259.368 90.5645H257.487V74.6738H259.368V90.5645ZM256.063 89.791H254.218V81.7578H251.95V80.1406H254.218V74.9551H256.063V89.791ZM275.283 88.6309H260.764V87.0312H264.121V83.0146C263.477 82.6396 262.976 82.1738 262.618 81.6172C262.267 81.0605 262.094 80.4336 262.1 79.7363C262.094 78.9102 262.343 78.1777 262.847 77.5391C263.351 76.9004 264.051 76.4082 264.947 76.0625C265.844 75.7109 266.857 75.5352 267.988 75.5352C269.125 75.5352 270.142 75.7109 271.038 76.0625C271.94 76.4082 272.644 76.9004 273.147 77.5391C273.657 78.1719 273.912 78.9043 273.912 79.7363C273.912 80.416 273.739 81.0342 273.394 81.5908C273.054 82.1416 272.57 82.6016 271.943 82.9707V87.0312H275.283V88.6309ZM267.988 77.082C267.197 77.082 266.5 77.1904 265.896 77.4072C265.299 77.6182 264.833 77.9229 264.499 78.3213C264.171 78.7197 264.01 79.1914 264.016 79.7363C264.01 80.2754 264.171 80.7441 264.499 81.1426C264.833 81.541 265.302 81.8486 265.905 82.0654C266.509 82.2822 267.203 82.3906 267.988 82.3906C268.773 82.3906 269.468 82.2822 270.071 82.0654C270.681 81.8486 271.152 81.541 271.486 81.1426C271.826 80.7441 271.996 80.2754 271.996 79.7363C271.996 79.1973 271.826 78.7285 271.486 78.3301C271.152 77.9258 270.684 77.6182 270.08 77.4072C269.477 77.1904 268.779 77.082 267.988 77.082ZM269.957 87.0312V83.7178C269.336 83.8525 268.68 83.9199 267.988 83.9199C267.326 83.9199 266.682 83.8555 266.055 83.7266V87.0312H269.957Z" fill="white"/>
</svg>
