<svg width="478" height="130" viewBox="0 0 478 130" fill="none" xmlns="http://www.w3.org/2000/svg">
<rect width="478" height="130" fill="#444F55"/>
<path d="M127.83 27.082V44.7383H125.76V27.082H127.83ZM112.459 39.4648C116.111 37.3066 117.791 34.543 118.123 30.9883H113.357V29.2305H120.271C120.271 30.9395 120.057 32.541 119.578 34.0352H122.029V27.5117H124.08V43.8984H122.029V35.7734H118.865C117.84 37.7949 116.18 39.5625 113.689 41.0078L112.459 39.4648ZM144.088 27.1016V37.1016H141.9V27.1016H144.088ZM129.693 32.1602C129.693 29.6699 131.725 27.9512 134.459 27.9414C137.184 27.9512 139.215 29.6699 139.205 32.1602C139.215 34.5918 137.184 36.3398 134.459 36.3398C131.725 36.3398 129.693 34.5918 129.693 32.1602ZM131.822 32.1602C131.812 33.5859 132.916 34.5137 134.459 34.5039C135.973 34.5137 137.076 33.5859 137.076 32.1602C137.076 30.6953 135.973 29.7773 134.459 29.7773C132.916 29.7773 131.812 30.6953 131.822 32.1602ZM132.369 44.5234V37.9609H144.088V44.5234H132.369ZM134.518 42.7656H141.959V39.6797H134.518V42.7656ZM151.889 28.3125C154.691 28.3027 156.732 30.0703 156.752 32.5703C156.732 35.0801 154.691 36.8379 151.889 36.8477C149.115 36.8379 147.035 35.0801 147.045 32.5703C147.035 30.0703 149.115 28.3027 151.889 28.3125ZM146.244 39.2891C149.428 39.2891 153.832 39.25 157.65 38.7031L157.826 40.2852C153.871 41.0371 149.633 41.0664 146.518 41.0664L146.244 39.2891ZM149.193 32.5703C149.184 34.0449 150.346 34.9531 151.889 34.9531C153.451 34.9531 154.613 34.0449 154.623 32.5703C154.613 31.1055 153.461 30.1875 151.889 30.1875C150.346 30.1875 149.184 31.1055 149.193 32.5703ZM158.705 44.7578V27.082H160.873V44.7578H158.705ZM175.381 37.9805C179.043 37.9805 181.289 39.2207 181.299 41.3398C181.289 43.4883 179.043 44.7285 175.381 44.7383C171.689 44.7285 169.404 43.4883 169.404 41.3398C169.404 39.2207 171.689 37.9805 175.381 37.9805ZM167.803 36.4375V28.1953H169.951V30.5781H174.072V28.1953H176.221V36.4375H167.803ZM169.951 34.7188H174.072V32.2773H169.951V34.7188ZM171.572 41.3398C171.572 42.4336 172.959 43.0293 175.381 43.0195C177.793 43.0293 179.15 42.4336 179.15 41.3398C179.15 40.2461 177.793 39.6895 175.381 39.6797C172.959 39.6895 171.572 40.2461 171.572 41.3398ZM178.955 37.5508V27.082H181.123V31.3008H183.584V33.1172H181.123V37.5508H178.955ZM190.311 30.2656C190.311 32.4238 191.707 34.4551 194.471 35.3047L193.436 37.0039C191.453 36.3789 190.047 35.1191 189.275 33.5273C188.494 35.3828 187.01 36.8574 184.881 37.5703L183.787 35.8516C186.629 34.9238 188.123 32.6289 188.123 30.2852V30.0703H184.393V28.3125H193.982V30.0703H190.311V30.2656ZM186.189 41.3398C186.189 39.2305 188.475 38 192.166 38C195.828 38 198.074 39.2305 198.084 41.3398C198.074 43.4688 195.828 44.7188 192.166 44.7188C188.475 44.7188 186.189 43.4688 186.189 41.3398ZM188.357 41.3398C188.357 42.4336 189.744 43.0098 192.166 43.0195C194.578 43.0098 195.936 42.4336 195.936 41.3398C195.936 40.2656 194.578 39.6992 192.166 39.6992C189.744 39.6992 188.357 40.2656 188.357 41.3398ZM195.74 37.6094V27.082H197.908V31.3203H200.369V33.0977H197.908V37.6094H195.74ZM208.795 28.0781C212.516 28.0781 215.387 30.0605 215.377 33.0586C215.387 36.0957 212.516 38.0781 208.795 38.0781C205.094 38.0781 202.242 36.0957 202.252 33.0586C202.242 30.0605 205.094 28.0781 208.795 28.0781ZM200.768 42.5117V40.7344H216.9V42.5117H200.768ZM204.342 33.0586C204.332 35.0605 206.227 36.291 208.795 36.3008C211.373 36.291 213.248 35.0605 213.248 33.0586C213.248 31.1055 211.373 29.8164 208.795 29.8359C206.227 29.8164 204.332 31.1055 204.342 33.0586ZM233.686 40.8906V42.6875H217.553V40.8906H224.506V38.0195H219.467V32.2383H229.623V30.0508H219.428V28.293H231.771V33.957H221.635V36.2422H232.182V38.0195H226.654V40.8906H233.686ZM245.01 30.207C245 32.5508 246.406 34.8359 249.15 35.7734L247.959 37.4727C246.055 36.7598 244.697 35.3828 243.945 33.6445C243.193 35.5879 241.748 37.1113 239.678 37.8828L238.525 36.1641C241.367 35.207 242.812 32.7656 242.822 30.1875V28.1758H245.01V30.207ZM241.729 44.3867V38.7812H243.936V42.6289H253.76V44.3867H241.729ZM247.686 32.7656V30.9883H251.201V27.1016H253.369V40.207H251.201V32.7656H247.686ZM262.967 28.3125V30.0508H258.123V31.7695H262.791V33.4297H258.123V35.2852C260.271 35.2656 261.775 35.1777 263.494 34.8555L263.729 36.6133C261.648 37.0039 259.949 37.0723 257.205 37.0625H256.033V28.3125H262.967ZM258.377 40.3828V38.625H270.467V44.7383H268.299V40.3828H258.377ZM264.529 37.707V27.4336H266.561V31.5156H268.396V27.1016H270.467V37.8438H268.396V33.2539H266.561V37.707H264.529ZM282.662 34.4062V36.1641H279.088V39.2402C280.631 39.1816 282.174 39.0742 283.639 38.918L283.814 40.5195C279.928 41.0957 275.836 41.1348 272.506 41.1445L272.232 39.3477C273.688 39.3574 275.279 39.3477 276.92 39.3184V36.1641H273.463V28.7031H282.584V30.4219H275.611V34.4062H282.662ZM284.693 44.7578V27.082H286.861V44.7578H284.693ZM303.725 27.082V37.3164H301.557V34.0938H298.432V32.3555H301.557V30.7344H298.432V28.9766H301.557V27.082H303.725ZM288.861 35.5391C291.723 34.4941 293.158 32.0527 293.158 29.4453V27.7266H295.346V29.4453C295.336 31.8672 296.723 34.2891 299.467 35.2852L298.217 37.0039C296.352 36.2715 295.023 34.8555 294.271 33.0977C293.5 34.9824 292.094 36.4863 290.092 37.2578L288.861 35.5391ZM289.896 42.8828C292.182 42.1016 293.285 40.2754 293.295 38.5273V37.9414H295.404V38.5273C295.385 40.0215 296.059 41.5645 297.582 42.5605C299.115 41.4961 299.799 39.8652 299.818 38.5273V37.9414H301.947V38.5273C301.938 40.373 303.021 42.1406 305.385 42.8828L304.291 44.5039C302.572 43.8984 301.449 42.7656 300.844 41.3398C300.258 42.7363 299.213 43.9863 297.592 44.6406C295.941 44.0254 294.887 42.8145 294.32 41.3984C293.695 42.7559 292.582 43.8984 290.951 44.5039L289.896 42.8828ZM309.807 37.668V39.3477H317.58V37.668H319.748V44.5234H307.658V37.668H309.807ZM305.725 36.6719V34.8945H321.818V36.6719H305.725ZM306.545 32.2578C310.236 31.7988 312.648 29.9043 312.658 27.9414V27.2773H314.885V27.9414C314.885 29.8457 317.307 31.8281 320.959 32.2578L320.197 33.9766C317.238 33.5762 314.904 32.2578 313.771 30.4707C312.629 32.2676 310.285 33.5762 307.346 33.9766L306.545 32.2578ZM309.807 42.8047H317.58V41.0078H309.807V42.8047ZM337.236 27.082V44.7383H335.088V27.082H337.236ZM323.525 40.3047V28.8008H325.674V38.4492C328.145 38.4102 330.781 38.1953 333.506 37.6484L333.779 39.4648C330.674 40.1094 327.793 40.3145 325.049 40.3047H323.525ZM353.123 27.082V33.7812H355.838V35.5586H353.123V44.7578H350.955V27.082H353.123ZM340.018 40.4414V28.7617H348.279V30.5195H342.186V38.625C344.93 38.6152 347.107 38.4785 349.529 38.0586L349.783 39.8945C347.039 40.3633 344.666 40.4414 341.482 40.4414H340.018ZM359.713 28.8594L359.498 38.8398H357.291L357.057 28.8594H359.713ZM356.881 41.6328C356.871 40.8125 357.564 40.1387 358.404 40.1289C359.215 40.1387 359.908 40.8125 359.908 41.6328C359.908 42.4727 359.215 43.1562 358.404 43.1562C357.564 43.1562 356.871 42.4727 356.881 41.6328Z" fill="white"/>
<path d="M100.614 71.623C103.822 71.623 105.765 72.6777 105.765 74.5059C105.765 76.3516 103.822 77.4062 100.614 77.4238C97.3977 77.4062 95.4377 76.3516 95.4289 74.5059C95.4377 72.6777 97.3977 71.623 100.614 71.623ZM94.0754 69.9883V62.7812H95.4289V65.1719H99.9816V62.7812H101.353V69.9883H94.0754ZM95.4289 68.8633H99.9816V66.2617H95.4289V68.8633ZM96.8176 74.5059C96.8 75.6309 98.259 76.2988 100.614 76.2988C102.979 76.2988 104.42 75.6309 104.429 74.5059C104.42 73.3896 102.979 72.7305 100.614 72.7129C98.259 72.7305 96.8 73.3896 96.8176 74.5059ZM104.253 71.2012V61.7969H105.624V65.7344H107.98V66.9121H105.624V71.2012H104.253ZM113.805 64.7676C113.814 66.8154 115.343 68.6436 117.637 69.3906L116.987 70.4805C115.185 69.8828 113.823 68.6436 113.146 67.0703C112.478 68.8633 111.037 70.2607 109.164 70.9375L108.461 69.8301C110.799 69.0391 112.434 67.0264 112.452 64.7676V64.0996H108.883V62.957H117.321V64.0996H113.805V64.7676ZM110.536 74.5059C110.544 72.7041 112.504 71.6582 115.721 71.6582C118.929 71.6582 120.871 72.7041 120.871 74.5059C120.871 76.334 118.929 77.3887 115.721 77.3887C112.504 77.3887 110.544 76.334 110.536 74.5059ZM111.924 74.5059C111.907 75.6309 113.366 76.29 115.721 76.2812C118.085 76.29 119.527 75.6309 119.536 74.5059C119.527 73.416 118.085 72.7656 115.721 72.7656C113.366 72.7656 111.907 73.416 111.924 74.5059ZM119.36 71.2363V61.7969H120.731V65.7871H123.086V66.9473H120.731V71.2363H119.36ZM137.859 70.041V71.166H123.621V70.041H137.859ZM125.203 65.4531C125.203 63.4932 127.347 62.3418 130.74 62.3594C134.097 62.3418 136.251 63.4932 136.259 65.4531C136.251 67.3955 134.097 68.5645 130.74 68.5645C127.347 68.5645 125.203 67.3955 125.203 65.4531ZM125.466 77.0898V72.5371H126.855V75.9297H136.277V77.0898H125.466ZM126.627 65.4531C126.618 66.6924 128.217 67.4395 130.74 67.4395C133.245 67.4395 134.844 66.6924 134.853 65.4531C134.844 64.2314 133.245 63.4668 130.74 63.4668C128.217 63.4668 126.618 64.2314 126.627 65.4531ZM155.68 62.2891V63.3789H153.271V66.4023H155.627V67.4746H144.184V66.4023H146.539V63.3789H144.131V62.2891H155.68ZM142.795 69.9004V68.793H157.033V69.9004H142.795ZM144.518 72.3438V71.3066H155.205V74.6992H145.924V76.1934H155.68V77.248H144.553V73.6973H153.852V72.3438H144.518ZM147.91 66.4023H151.9V63.3789H147.91V66.4023ZM164.001 63.5371V68.9336H159.765V72.4141C161.567 72.3965 163.272 72.3438 165.355 71.9746L165.46 73.1172C163.237 73.5127 161.444 73.5654 159.466 73.5742H158.429V67.791H162.683V64.6797H158.394V63.5371H164.001ZM164.757 68.5645V67.4395H166.761V62.1836H168.062V76.5977H166.761V68.5645H164.757ZM169.943 77.4238V61.7969H171.261V77.4238H169.943ZM185.893 61.7969V77.459H184.504V61.7969H185.893ZM173.588 68.459C173.597 65.1367 175.249 63.0186 177.579 63.0098C179.899 63.0186 181.578 65.1367 181.569 68.459C181.578 71.79 179.899 73.8994 177.579 73.8906C175.249 73.8994 173.597 71.79 173.588 68.459ZM174.924 68.459C174.924 70.999 176.014 72.6689 177.579 72.6602C179.152 72.6689 180.233 70.999 180.233 68.459C180.233 65.9189 179.152 64.249 177.579 64.2402C176.014 64.249 174.924 65.9189 174.924 68.459ZM192.316 63.0098C194.443 63.0186 195.981 64.8467 196.192 67.7734H199.699V61.7969H201.07V77.459H199.699V68.916H196.21C196.06 71.9834 194.496 73.8994 192.316 73.8906C190.004 73.8994 188.387 71.79 188.396 68.459C188.387 65.1367 190.004 63.0186 192.316 63.0098ZM189.714 68.459C189.723 70.999 190.778 72.6689 192.316 72.6602C193.845 72.6689 194.918 70.999 194.918 68.459C194.918 65.9189 193.845 64.249 192.316 64.2402C190.778 64.249 189.723 65.9189 189.714 68.459ZM212.246 76.1758C209.715 76.1758 207.896 74.8223 207.816 72.8008H209.416C209.504 74.0137 210.708 74.7695 212.229 74.7695C213.907 74.7695 215.12 73.8643 215.129 72.5371C215.12 71.1484 214.013 70.1729 212.035 70.1641H210.998V68.7754H212.035C213.582 68.7754 214.663 67.9053 214.654 66.5957C214.663 65.3213 213.731 64.4775 212.281 64.4688C210.919 64.4775 209.68 65.2246 209.609 66.4727H208.08C208.159 64.4512 210.04 63.0977 212.299 63.0977C214.725 63.0977 216.201 64.6885 216.184 66.5078C216.201 67.958 215.357 69.0127 214.021 69.3906V69.4785C215.683 69.7334 216.685 70.9199 216.676 72.5371C216.685 74.6289 214.786 76.1758 212.246 76.1758ZM230.851 61.8145V73.2402H229.48V61.8145H230.851ZM218.318 66.7363C218.309 64.4863 220.075 62.9131 222.413 62.9043C224.751 62.9131 226.5 64.4863 226.509 66.7363C226.5 69.0127 224.751 70.5947 222.413 70.5859C220.075 70.5947 218.309 69.0127 218.318 66.7363ZM219.671 66.7363C219.654 68.292 220.831 69.373 222.413 69.373C223.969 69.373 225.155 68.292 225.155 66.7363C225.155 65.207 223.969 64.1172 222.413 64.1172C220.831 64.1172 219.654 65.207 219.671 66.7363ZM220.761 77.0898V72.0801H222.132V75.9297H231.343V77.0898H220.761ZM238.17 62.9395C240.622 62.9482 242.363 64.4424 242.371 66.6133C242.363 68.793 240.622 70.2783 238.17 70.2871C235.701 70.2783 233.943 68.793 233.952 66.6133C233.943 64.4424 235.701 62.9482 238.17 62.9395ZM233.143 72.8359C236.026 72.8447 240.007 72.8184 243.461 72.3086L243.567 73.3281C239.99 73.9961 236.149 74.0137 233.336 74.0137L233.143 72.8359ZM235.305 66.6133C235.296 68.0723 236.5 69.0742 238.17 69.0742C239.823 69.0742 241.027 68.0723 241.018 66.6133C241.027 65.1631 239.823 64.1523 238.17 64.1523C236.5 64.1523 235.296 65.1631 235.305 66.6133ZM244.498 77.459V61.7969H245.87V77.459H244.498ZM257.345 62.9395C259.797 62.9482 261.537 64.4424 261.546 66.6133C261.537 68.793 259.797 70.2783 257.345 70.2871C254.875 70.2783 253.117 68.793 253.126 66.6133C253.117 64.4424 254.875 62.9482 257.345 62.9395ZM252.317 72.8359C255.2 72.8447 259.181 72.8184 262.636 72.3086L262.741 73.3281C259.164 73.9961 255.323 74.0137 252.511 74.0137L252.317 72.8359ZM254.479 66.6133C254.471 68.0723 255.675 69.0742 257.345 69.0742C258.997 69.0742 260.201 68.0723 260.192 66.6133C260.201 65.1631 258.997 64.1523 257.345 64.1523C255.675 64.1523 254.471 65.1631 254.479 66.6133ZM263.673 77.459V61.7969H265.044V77.459H263.673ZM280.291 61.8145V73.4688H278.902V69.6895H274.701V68.5469H278.902V66.1738H274.912C273.813 68.6436 271.405 70.5244 268.215 71.5527L267.6 70.4453C271.256 69.2412 273.77 67 274.068 64.1699H268.373V63.0273H275.58C275.58 63.7305 275.483 64.4072 275.316 65.0488H278.902V61.8145H280.291ZM270.342 77.0898V72.3086H271.748V75.9297H280.695V77.0898H270.342ZM289.562 62.0781C293.033 62.0781 295.072 63.0361 295.081 64.7676C295.072 66.543 293.033 67.501 289.562 67.5098C286.072 67.501 284.025 66.543 284.025 64.7676C284.025 63.0361 286.072 62.0781 289.562 62.0781ZM282.443 69.6895V68.5645H296.681V69.6895H282.443ZM284.165 72.0977V71.043H294.853V74.541H285.571V76.1582H295.327V77.248H284.2V73.5215H293.499V72.0977H284.165ZM285.466 64.7676C285.448 65.8574 286.969 66.4551 289.562 66.4551C292.154 66.4551 293.666 65.8574 293.675 64.7676C293.666 63.7393 292.154 63.124 289.562 63.1152C286.969 63.124 285.448 63.7393 285.466 64.7676ZM315.925 74.2598V75.4199H301.617V74.2598H308.05V70.4453H303.304V63.1152H314.15V70.4453H309.404V74.2598H315.925ZM304.658 69.3379H312.814V64.2227H304.658V69.3379ZM320.907 63.0098C323.21 63.0186 324.845 65.1367 324.862 68.459C324.845 71.79 323.21 73.8994 320.907 73.8906C318.587 73.8994 316.961 71.79 316.97 68.459C316.961 65.1367 318.587 63.0186 320.907 63.0098ZM318.27 68.459C318.279 70.999 319.36 72.6689 320.907 72.6602C322.471 72.6689 323.526 70.999 323.526 68.459C323.526 65.9189 322.471 64.249 320.907 64.2402C319.36 64.249 318.279 65.9189 318.27 68.459ZM327.446 77.4238V61.7969H328.817V68.0371H331.436V69.2324H328.817V77.4238H327.446ZM336.014 63.0098C338.316 63.0186 339.951 65.1367 339.969 68.459C339.951 71.79 338.316 73.8994 336.014 73.8906C333.693 73.8994 332.067 71.79 332.076 68.459C332.067 65.1367 333.693 63.0186 336.014 63.0098ZM333.377 68.459C333.386 70.999 334.467 72.6689 336.014 72.6602C337.578 72.6689 338.633 70.999 338.633 68.459C338.633 65.9189 337.578 64.249 336.014 64.2402C334.467 64.249 333.386 65.9189 333.377 68.459ZM342.553 77.4238V61.7969H343.924V65.7344H346.455V66.9121H343.924V70.3926H346.455V71.5527H343.924V77.4238H342.553ZM359.154 61.7441V65.541H361.527V66.6836H359.154V70.3926H357.782V61.7441H359.154ZM346.972 64.3281V63.2207H350.945V61.6387H352.316V63.2207H356.288V64.3281H346.972ZM347.868 67.5977C347.86 66.0156 349.354 65.04 351.63 65.0312C353.898 65.04 355.374 66.0156 355.392 67.5977C355.374 69.1885 353.898 70.1553 351.63 70.1641C349.354 70.1553 347.86 69.1885 347.868 67.5977ZM349.187 72.2383V71.2012H359.154V74.6641H350.575V76.1934H359.734V77.248H349.222V73.6445H357.782V72.2383H349.187ZM349.187 67.5977C349.178 68.5381 350.145 69.127 351.63 69.127C353.107 69.127 354.073 68.5381 354.091 67.5977C354.073 66.666 353.107 66.0596 351.63 66.0508C350.145 66.0596 349.178 66.666 349.187 67.5977ZM376.464 62.1484V68.1953H378.363V61.7969H379.681V77.4238H378.363V69.3379H376.464V76.6504H375.181V62.1484H376.464ZM366.586 73.3457V63.7832H369.978V64.9258H367.869V72.1768C368.458 72.1504 369.231 72.0801 370.084 71.8691L370.207 73.0469C368.888 73.3369 367.869 73.3545 367.201 73.3457H366.586ZM370.664 73.3457V63.7832H374.127V64.9258H371.912V72.1768C372.65 72.1592 373.52 72.0889 374.461 71.8164L374.584 72.9941C373.283 73.3369 372.202 73.3545 371.297 73.3457H370.664ZM383.784 74.8223L382.413 79.6035H381.112L382.079 74.8223H383.784ZM37.1187 86.4824V87.4844C37.1187 88.5391 37.1187 89.8926 36.7672 91.6504H38.9996V92.7578H24.691V91.6504H35.3785C35.7389 89.9102 35.7564 88.6357 35.7477 87.6074H26.5016V86.4824H37.1187ZM26.3961 95.4473V94.3398H37.1715V98.2773H27.8023V100.123H37.5758V101.248H26.4137V97.1875H35.8004V95.4473H26.3961ZM45.0887 90.5957C45.0711 93.1006 46.8816 95.8604 49.1492 96.9414L48.3582 98.0312C46.6004 97.1699 45.115 95.3242 44.4119 93.2061C43.6912 95.5 42.1268 97.5215 40.3777 98.418L39.534 97.3281C41.784 96.2295 43.7176 93.2588 43.7352 90.5957V88.5566H40.0965V87.4141H48.6043V88.5566H45.0887V90.5957ZM50.5203 101.424V85.7969H51.8914V92.125H54.5105V93.3027H51.8914V101.424H50.5203ZM69.1953 93.0566V94.1465H54.8867V93.0566H69.1953ZM56.6094 96.4316V95.3945H67.4023V98.7168H58.0156V100.211H67.9121V101.213H56.6269V97.7676H66.0312V96.4316H56.6094ZM56.6973 87.2734V86.2715H67.3496V89.5059H58.1211V90.877H67.6309V91.8789H56.75V88.5566H65.9609V87.2734H56.6973ZM86.9809 85.7969V94.1816H85.6098V85.7969H86.9809ZM74.4477 90.1562C74.4389 88.0205 76.1703 86.5527 78.5434 86.5703C80.9164 86.5527 82.6303 88.0205 82.6391 90.1562C82.6303 92.2832 80.9164 93.751 78.5434 93.7422C76.1703 93.751 74.4389 92.2832 74.4477 90.1562ZM75.8012 90.1562C75.7836 91.5801 76.935 92.5908 78.5434 92.5996C80.1342 92.5908 81.2855 91.5801 81.2855 90.1562C81.2855 88.7236 80.1342 87.7217 78.5434 87.7305C76.935 87.7217 75.7836 88.7236 75.8012 90.1562ZM76.8559 101.213V94.9727H78.2269V96.8711H85.6098V94.9727H86.9809V101.213H76.8559ZM78.2269 100.088H85.6098V97.9785H78.2269V100.088ZM96.6031 86.7637V91.1406H91.2242V93.5664C94.1598 93.5752 95.6803 93.5137 97.5172 93.1797L97.6578 94.3223C95.7154 94.6387 94.1246 94.6914 90.9605 94.6914H89.8531V90.0859H95.232V87.8711H89.818V86.7637H96.6031ZM91.6109 97.3809V96.2559H102.14V101.459H100.752V97.3809H91.6109ZM97.6402 92.5117V91.3691H100.752V89.2598H97.6402V88.1348H100.752V85.8145H102.14V95.4121H100.752V92.5117H97.6402ZM116.386 85.7969V92.248H119.005V93.3906H116.386V101.424H115.014V85.7969H116.386ZM104.204 89.4531V88.3105H108.229V85.9902H109.6V88.3105H113.503V89.4531H104.204ZM105.1 94.3398C105.092 92.2305 106.709 90.7539 108.932 90.7539C111.138 90.7539 112.747 92.2305 112.764 94.3398C112.747 96.458 111.138 97.9258 108.932 97.9258C106.709 97.9258 105.092 96.458 105.1 94.3398ZM106.419 94.3398C106.41 95.7637 107.473 96.7656 108.932 96.748C110.374 96.7656 111.429 95.7637 111.446 94.3398C111.429 92.9248 110.374 91.9053 108.932 91.9141C107.473 91.9053 106.41 92.9248 106.419 94.3398ZM132.336 85.7969V101.424H130.965V93.2324H127.238V92.0898H130.965V85.7969H132.336ZM119.416 97.3457C123.644 95.2979 125.604 92.2832 125.885 88.627H120.102V87.502H127.273C127.265 91.9316 125.393 95.8604 120.172 98.4531L119.416 97.3457ZM149.13 92.0371V93.1973H146.599V101.424H145.228V85.7969H146.599V92.0371H149.13ZM135.155 97.4512V87.3438H136.527V96.291C138.812 96.291 141.141 96.1152 143.716 95.5703L143.892 96.748C141.194 97.293 138.768 97.4512 136.404 97.4512H135.155ZM165.773 85.7969V91.9844H168.392V93.1445H165.773V101.459H164.402V85.7969H165.773ZM154.365 97.5391V87.3262H161.66V88.4688H155.736V96.3789C158.566 96.3701 160.561 96.2471 162.89 95.8164L163.066 97.0117C160.614 97.4512 158.566 97.5391 155.595 97.5391H154.365ZM175.905 86.1484C179.306 86.1484 181.416 87.2471 181.425 89.1191C181.416 90.9648 179.306 92.0459 175.905 92.0371C172.504 92.0459 170.368 90.9648 170.368 89.1191C170.368 87.2471 172.504 86.1484 175.905 86.1484ZM168.786 94.5332V93.3906H183.024V94.5332H168.786ZM170.526 101.213V96.0801H181.284V101.213H170.526ZM171.792 89.1191C171.783 90.2529 173.374 90.9385 175.905 90.9473C178.41 90.9385 180.01 90.2529 180.018 89.1191C180.01 87.9502 178.41 87.2559 175.905 87.2559C173.374 87.2559 171.783 87.9502 171.792 89.1191ZM171.897 100.088H179.93V97.1875H171.897V100.088ZM193.304 88.75C193.304 90.9297 194.886 92.9863 197.171 93.8125L196.398 94.8848C194.684 94.208 193.313 92.8545 192.645 91.1494C191.986 93.0391 190.562 94.5332 188.716 95.2715L187.978 94.1465C190.324 93.2852 191.942 91.0967 191.95 88.6973V86.7637H193.304V88.75ZM190.808 101.09V96.1855H192.196V99.9297H201.267V101.09H190.808ZM196.046 90.6484V89.4883H199.527V85.8145H200.915V97.5215H199.527V90.6484H196.046ZM209.834 86.9395V88.0996H205.088V90.0508H209.659V91.1406H205.088V93.3027C207.365 93.2939 208.788 93.2061 210.467 92.8809L210.608 94.0234C208.771 94.3838 207.294 94.4541 204.754 94.4629H203.77V86.9395H209.834ZM205.809 97.2227V96.0977H216.338V101.424H214.985V97.2227H205.809ZM211.539 95.1836V86.1133H212.823V89.8926H215.02V85.8145H216.338V95.2891H215.02V91.0176H212.823V95.1836H211.539ZM235.196 85.7969V101.459H233.825V92.7578H230.081V97.5039H222.874V87.0273H224.262V91.1055H228.727V87.0273H230.081V91.6152H233.825V85.7969H235.196ZM224.262 96.3613H228.727V92.2129H224.262V96.3613ZM251.586 94.4629V95.5879H237.33V94.4629H251.586ZM239.193 101.09V96.7305H240.564V99.9297H250.092V101.09H239.193ZM239.229 92.9863V86.3945H249.811V87.502H240.617V89.1367H249.389V90.209H240.617V91.8965H249.898V92.9863H239.229ZM259.573 86.0781C263.045 86.0781 265.084 87.0361 265.093 88.7676C265.084 90.543 263.045 91.501 259.573 91.5098C256.084 91.501 254.036 90.543 254.036 88.7676C254.036 87.0361 256.084 86.0781 259.573 86.0781ZM252.454 93.6895V92.5645H266.693V93.6895H252.454ZM254.177 96.0977V95.043H264.864V98.541H255.583V100.158H265.339V101.248H254.212V97.5215H263.511V96.0977H254.177ZM255.478 88.7676C255.46 89.8574 256.981 90.4551 259.573 90.4551C262.166 90.4551 263.678 89.8574 263.687 88.7676C263.678 87.7393 262.166 87.124 259.573 87.1152C256.981 87.124 255.46 87.7393 255.478 88.7676ZM284.25 91.0703V92.2129H273.474V86.6055H274.845V91.0703H284.25ZM271.629 95.7285V94.5684H285.937V95.7285H279.398V101.424H278.027V95.7285H271.629ZM301.044 98.2949V99.4551H286.735V98.2949H301.044ZM288.493 88.1348V86.9922H299.233V91.7207H289.899V94.2871H299.602V95.3945H288.528V90.5957H297.88V88.1348H288.493ZM314.48 90.543V91.6504H303.775V86.377H305.146V90.543H314.48ZM301.824 94.9023V93.7773H316.133V94.9023H301.824ZM303.688 101.037V96.502H305.059V99.8945H314.568V101.037H303.688ZM333.971 95.8691V101.424H332.582V96.9766H323.459V95.8691H333.971ZM321.262 90.4199C321.253 88.2402 322.985 86.6846 325.323 86.6934C326.676 86.6846 327.828 87.2207 328.548 88.0996H332.582V85.7969H333.971V95.0078H332.582V92.7578H328.557C327.836 93.6455 326.685 94.1729 325.323 94.1641C322.985 94.1816 321.253 92.6436 321.262 90.4199ZM322.58 90.4199C322.58 91.9404 323.723 93.0039 325.323 93.0039C326.861 93.0039 328.03 91.9404 328.03 90.4199C328.03 88.9521 326.861 87.8711 325.323 87.8711C323.723 87.8711 322.58 88.9521 322.58 90.4199ZM329.181 91.6152H332.582V89.2422H329.172C329.295 89.6113 329.366 89.998 329.366 90.4199C329.366 90.8418 329.295 91.2461 329.181 91.6152ZM348.339 85.7441V89.541H350.712V90.6836H348.339V94.3926H346.968V85.7441H348.339ZM336.158 88.3281V87.2207H340.13V85.6387H341.502V87.2207H345.474V88.3281H336.158ZM337.054 91.5977C337.046 90.0156 338.54 89.04 340.816 89.0312C343.084 89.04 344.56 90.0156 344.578 91.5977C344.56 93.1885 343.084 94.1553 340.816 94.1641C338.54 94.1553 337.046 93.1885 337.054 91.5977ZM338.373 96.2383V95.2012H348.339V98.6641H339.761V100.193H348.92V101.248H338.408V97.6445H346.968V96.2383H338.373ZM338.373 91.5977C338.364 92.5381 339.331 93.127 340.816 93.127C342.293 93.127 343.259 92.5381 343.277 91.5977C343.259 90.666 342.293 90.0596 340.816 90.0508C339.331 90.0596 338.364 90.666 338.373 91.5977ZM358.348 86.0781C361.82 86.0781 363.859 87.0361 363.868 88.7676C363.859 90.543 361.82 91.501 358.348 91.5098C354.859 91.501 352.811 90.543 352.811 88.7676C352.811 87.0361 354.859 86.0781 358.348 86.0781ZM351.229 93.6895V92.5645H365.468V93.6895H351.229ZM352.952 96.0977V95.043H363.639V98.541H354.358V100.158H364.114V101.248H352.987V97.5215H362.286V96.0977H352.952ZM354.253 88.7676C354.235 89.8574 355.756 90.4551 358.348 90.4551C360.941 90.4551 362.453 89.8574 362.462 88.7676C362.453 87.7393 360.941 87.124 358.348 87.1152C355.756 87.124 354.235 87.7393 354.253 88.7676ZM382.497 85.7969V92.248H385.116V93.3906H382.497V101.424H381.126V85.7969H382.497ZM370.316 89.4531V88.3105H374.341V85.9902H375.712V88.3105H379.614V89.4531H370.316ZM371.212 94.3398C371.203 92.2305 372.82 90.7539 375.044 90.7539C377.25 90.7539 378.859 92.2305 378.876 94.3398C378.859 96.458 377.25 97.9258 375.044 97.9258C372.82 97.9258 371.203 96.458 371.212 94.3398ZM372.53 94.3398C372.522 95.7637 373.585 96.7656 375.044 96.748C376.486 96.7656 377.54 95.7637 377.558 94.3398C377.54 92.9248 376.486 91.9053 375.044 91.9141C373.585 91.9053 372.522 92.9248 372.53 94.3398ZM398.887 85.7969V101.424H397.569V85.7969H398.887ZM385.528 97.0469C388.92 95.0342 390.625 92.2129 390.889 88.9434H386.196V87.8008H392.26C392.26 89.3389 392.014 90.8242 391.478 92.2129H394.282V86.2188H395.6V100.633H394.282V93.3379H390.968C390.028 95.1572 388.516 96.7656 386.336 98.0488L385.528 97.0469ZM417.587 85.8145V94.7969H416.198V85.8145H417.587ZM404.737 93.2676C406.064 93.2676 407.611 93.2676 409.22 93.2148V91.5273H406.161V86.5879H413.579V87.7305H407.55V90.4199H413.72V91.5273H410.608V93.1533C412.058 93.083 413.526 92.9688 414.897 92.7754L414.985 93.7773C411.557 94.3574 407.769 94.4102 404.948 94.4102L404.737 93.2676ZM407.286 101.213V95.5H408.657V97.1699H416.233V95.5H417.587V101.213H407.286ZM408.657 100.088H416.233V98.2422H408.657V100.088ZM432.676 85.7969V101.424H431.305V85.7969H432.676ZM420.811 97.3984V87.3438H422.164V96.2031C424.555 96.1855 427.016 96.001 429.635 95.4473L429.828 96.625C427.051 97.2051 424.581 97.3984 422.076 97.3984H420.811ZM446.991 85.7969V91.9844H449.611V93.1445H446.991V101.459H445.62V85.7969H446.991ZM435.583 97.5391V87.3262H442.878V88.4688H436.954V96.3789C439.784 96.3701 441.779 96.2471 444.109 95.8164L444.284 97.0117C441.832 97.4512 439.784 97.5391 436.814 97.5391H435.583ZM451.657 100.105C451.041 100.097 450.514 99.5869 450.532 98.9629C450.514 98.3477 451.041 97.8379 451.657 97.8379C452.281 97.8379 452.79 98.3477 452.782 98.9629C452.79 99.5869 452.281 100.097 451.657 100.105Z" fill="white"/>
<path d="M466.665 11.334V44.6673H433.332V11.334H466.665ZM457.07 23.2873L454.715 20.929L449.999 25.644L445.285 20.929L442.929 23.2873L447.642 28.0007L442.929 32.714L445.285 35.0723L450 30.3573L454.714 35.0723L457.07 32.714L452.357 28.0007L457.07 23.2873Z" fill="white"/>
</svg>
