<svg width="478" height="130" viewBox="0 0 478 130" fill="none" xmlns="http://www.w3.org/2000/svg">
<rect width="478" height="130" fill="#444F55"/>
<path d="M466.667 9.33594V42.6693H433.334V9.33594H466.667ZM457.072 21.2893L454.717 18.9309L450.001 23.6459L445.287 18.9309L442.931 21.2893L447.644 26.0026L442.931 30.7159L445.287 33.0743L450.002 28.3593L454.716 33.0743L457.072 30.7159L452.359 26.0026L457.072 21.2893Z" fill="white"/>
<path d="M78.1465 54.9805C79.3574 54.9805 80.4056 55.1139 81.291 55.3809C82.1829 55.6413 82.8665 56.0254 83.3418 56.5332C83.8171 57.0345 84.0579 57.6367 84.0645 58.3398C84.0579 59.0495 83.8171 59.6582 83.3418 60.166C82.8665 60.6803 82.1829 61.071 81.291 61.3379C80.4056 61.6048 79.3574 61.7383 78.1465 61.7383C76.9225 61.7383 75.8613 61.6048 74.9629 61.3379C74.0645 61.071 73.3743 60.6803 72.8926 60.166C72.4108 59.6582 72.1699 59.0495 72.1699 58.3398C72.1699 57.6367 72.4108 57.0345 72.8926 56.5332C73.3743 56.0254 74.0612 55.6413 74.9531 55.3809C75.8516 55.1139 76.916 54.9805 78.1465 54.9805ZM78.1465 56.6797C76.9225 56.6797 75.9818 56.8229 75.3242 57.1094C74.6667 57.3893 74.3379 57.7995 74.3379 58.3398C74.3379 58.8867 74.6667 59.3034 75.3242 59.5898C75.9883 59.8763 76.929 60.0195 78.1465 60.0195C79.3639 60.0195 80.2949 59.8763 80.9395 59.5898C81.5905 59.3034 81.916 58.8867 81.916 58.3398C81.916 57.7995 81.5905 57.3893 80.9395 57.1094C80.2949 56.8229 79.3639 56.6797 78.1465 56.6797ZM83.8887 48.3008H86.3496V50.1172H83.8887V54.5508H81.7207V44.082H83.8887V48.3008ZM72.7168 47.5781H76.8379V45.1953H78.9863V53.4375H70.5684V45.1953H72.7168V47.5781ZM76.8379 51.7188V49.2773H72.7168V51.7188H76.8379ZM93.0762 47.2656C93.0762 48.0013 93.2324 48.7012 93.5449 49.3652C93.8639 50.0293 94.3359 50.6185 94.9609 51.1328C95.5859 51.6406 96.3444 52.0312 97.2363 52.3047L96.2012 54.0039C95.2311 53.7044 94.3913 53.2552 93.6816 52.6562C92.9785 52.0573 92.4284 51.3509 92.0312 50.5371C91.6341 51.4811 91.0645 52.3014 90.3223 52.998C89.5801 53.6947 88.6882 54.2188 87.6465 54.5703L86.5527 52.8516C87.4772 52.5456 88.265 52.1094 88.916 51.543C89.5671 50.9701 90.0586 50.3158 90.3906 49.5801C90.7227 48.8444 90.8887 48.0794 90.8887 47.2852V47.0703H87.1582V45.3125H96.748V47.0703H93.0762V47.2656ZM100.674 48.3203H103.135V50.0977H100.674V54.6094H98.5059V44.082H100.674V48.3203ZM94.9316 55C96.1426 55 97.1908 55.1335 98.0762 55.4004C98.9681 55.6608 99.6517 56.0417 100.127 56.543C100.602 57.0443 100.843 57.6432 100.85 58.3398C100.843 59.043 100.599 59.6484 100.117 60.1562C99.6419 60.6641 98.9616 61.0514 98.0762 61.3184C97.1908 61.5853 96.1426 61.7188 94.9316 61.7188C93.7077 61.7188 92.6465 61.5853 91.748 61.3184C90.8496 61.0514 90.1595 60.6641 89.6777 60.1562C89.196 59.6484 88.9551 59.043 88.9551 58.3398C88.9551 57.6432 89.196 57.0443 89.6777 56.543C90.1595 56.0417 90.8496 55.6608 91.748 55.4004C92.6465 55.1335 93.7077 55 94.9316 55ZM94.9316 56.6992C93.7142 56.6992 92.7734 56.8392 92.1094 57.1191C91.4518 57.3991 91.123 57.806 91.123 58.3398C91.123 58.8867 91.4518 59.3034 92.1094 59.5898C92.7734 59.8763 93.7142 60.0195 94.9316 60.0195C96.1491 60.0195 97.0801 59.8763 97.7246 59.5898C98.3757 59.3034 98.7012 58.8867 98.7012 58.3398C98.7012 57.806 98.3757 57.3991 97.7246 57.1191C97.0801 56.8392 96.1491 56.6992 94.9316 56.6992ZM118.221 61.7578H116.033V44.082H118.221V61.7578ZM108.709 45.3711C109.594 45.3711 110.382 45.6283 111.072 46.1426C111.769 46.6504 112.316 47.3763 112.713 48.3203C113.11 49.2578 113.312 50.3516 113.318 51.6016C113.312 52.8581 113.11 53.9583 112.713 54.9023C112.322 55.8464 111.779 56.5755 111.082 57.0898C110.385 57.5977 109.594 57.8516 108.709 57.8516C107.817 57.8516 107.023 57.5977 106.326 57.0898C105.63 56.5755 105.083 55.8464 104.686 54.9023C104.295 53.9583 104.1 52.8581 104.1 51.6016C104.1 50.3516 104.295 49.2578 104.686 48.3203C105.083 47.3763 105.63 46.6504 106.326 46.1426C107.023 45.6283 107.817 45.3711 108.709 45.3711ZM108.709 47.3242C108.208 47.3242 107.765 47.4935 107.381 47.832C107.003 48.1706 106.71 48.6621 106.502 49.3066C106.294 49.9512 106.189 50.7161 106.189 51.6016C106.189 52.4935 106.294 53.2617 106.502 53.9062C106.71 54.5508 107.003 55.0456 107.381 55.3906C107.765 55.7292 108.208 55.8984 108.709 55.8984C109.204 55.8984 109.64 55.7292 110.018 55.3906C110.395 55.0456 110.688 54.5508 110.896 53.9062C111.105 53.2617 111.209 52.4935 111.209 51.6016C111.209 50.7161 111.105 49.9544 110.896 49.3164C110.688 48.6719 110.395 48.1803 110.018 47.8418C109.64 47.4967 109.204 47.3242 108.709 47.3242ZM139.174 46.2305H136.752V48.9062H139.076V50.5469H126.107V48.9062H128.432V46.2305H126.01V44.5898H139.174V46.2305ZM140.658 53.3789H124.564V51.6602H140.658V53.3789ZM138.646 58.7695H128.607V59.9609H139.135V61.582H126.479V57.2656H136.518V56.1523H126.459V54.5703H138.646V58.7695ZM134.564 48.9062V46.2305H130.6V48.9062H134.564ZM148.146 52.4023H143.967V55.7227C145.015 55.7096 145.972 55.6706 146.838 55.6055C147.704 55.5404 148.596 55.4232 149.514 55.2539L149.689 57.0312C148.602 57.2266 147.554 57.3568 146.545 57.4219C145.542 57.487 144.396 57.5195 143.107 57.5195H141.877V50.6836H146.057V47.6562H141.857V45.918H148.146V52.4023ZM156.545 61.7383H154.475V44.082H156.545V61.7383ZM152.912 60.8398H150.861V51.9922H148.928V50.2148H150.861V44.4531H152.912V60.8398ZM172.822 61.7578H170.635V44.082H172.822V61.7578ZM163.311 45.3711C164.196 45.3711 164.984 45.6283 165.674 46.1426C166.37 46.6504 166.917 47.3763 167.314 48.3203C167.712 49.2578 167.913 50.3516 167.92 51.6016C167.913 52.8581 167.712 53.9583 167.314 54.9023C166.924 55.8464 166.38 56.5755 165.684 57.0898C164.987 57.5977 164.196 57.8516 163.311 57.8516C162.419 57.8516 161.624 57.5977 160.928 57.0898C160.231 56.5755 159.684 55.8464 159.287 54.9023C158.896 53.9583 158.701 52.8581 158.701 51.6016C158.701 50.3516 158.896 49.2578 159.287 48.3203C159.684 47.3763 160.231 46.6504 160.928 46.1426C161.624 45.6283 162.419 45.3711 163.311 45.3711ZM163.311 47.3242C162.809 47.3242 162.367 47.4935 161.982 47.832C161.605 48.1706 161.312 48.6621 161.104 49.3066C160.895 49.9512 160.791 50.7161 160.791 51.6016C160.791 52.4935 160.895 53.2617 161.104 53.9062C161.312 54.5508 161.605 55.0456 161.982 55.3906C162.367 55.7292 162.809 55.8984 163.311 55.8984C163.805 55.8984 164.242 55.7292 164.619 55.3906C164.997 55.0456 165.29 54.5508 165.498 53.9062C165.706 53.2617 165.811 52.4935 165.811 51.6016C165.811 50.7161 165.706 49.9544 165.498 49.3164C165.29 48.6719 164.997 48.1803 164.619 47.8418C164.242 47.4967 163.805 47.3242 163.311 47.3242ZM179.744 45.3711C180.538 45.3711 181.255 45.5827 181.893 46.0059C182.531 46.429 183.051 47.0345 183.455 47.8223C183.859 48.6035 184.109 49.5247 184.207 50.5859H187.576V44.082H189.725V61.7578H187.576V52.3438H184.236C184.158 53.4635 183.921 54.4401 183.523 55.2734C183.126 56.1003 182.602 56.7383 181.951 57.1875C181.3 57.6302 180.564 57.8516 179.744 57.8516C178.859 57.8516 178.074 57.5977 177.391 57.0898C176.707 56.582 176.173 55.8561 175.789 54.9121C175.405 53.9681 175.213 52.8646 175.213 51.6016C175.213 50.3516 175.405 49.2578 175.789 48.3203C176.173 47.3763 176.707 46.6504 177.391 46.1426C178.081 45.6283 178.865 45.3711 179.744 45.3711ZM179.744 47.3242C179.256 47.3242 178.826 47.4967 178.455 47.8418C178.084 48.1803 177.798 48.6719 177.596 49.3164C177.394 49.9544 177.296 50.7161 177.303 51.6016C177.296 52.4935 177.394 53.2617 177.596 53.9062C177.798 54.5508 178.084 55.0456 178.455 55.3906C178.826 55.7292 179.256 55.8984 179.744 55.8984C180.232 55.8984 180.659 55.7292 181.023 55.3906C181.395 55.0456 181.681 54.5508 181.883 53.9062C182.091 53.2617 182.199 52.4935 182.205 51.6016C182.199 50.7161 182.091 49.9512 181.883 49.3066C181.681 48.6621 181.395 48.1706 181.023 47.832C180.659 47.4935 180.232 47.3242 179.744 47.3242ZM201.674 60.1953C200.678 60.1953 199.786 60.026 198.998 59.6875C198.21 59.349 197.592 58.877 197.143 58.2715C196.693 57.6595 196.459 56.9596 196.439 56.1719H198.998C199.024 56.543 199.154 56.8717 199.389 57.1582C199.63 57.4382 199.949 57.6562 200.346 57.8125C200.743 57.9688 201.186 58.0469 201.674 58.0469C202.188 58.0469 202.647 57.959 203.051 57.7832C203.461 57.6009 203.78 57.3503 204.008 57.0312C204.236 56.7122 204.35 56.3477 204.35 55.9375C204.35 55.5143 204.232 55.1367 203.998 54.8047C203.764 54.4727 203.425 54.2155 202.982 54.0332C202.54 53.8444 202.019 53.75 201.42 53.75H200.15V51.7969H201.42C201.915 51.7969 202.354 51.7122 202.738 51.543C203.129 51.3672 203.432 51.123 203.646 50.8105C203.861 50.4915 203.965 50.1302 203.959 49.7266C203.965 49.3359 203.874 48.9909 203.686 48.6914C203.503 48.3854 203.24 48.151 202.895 47.9883C202.549 47.819 202.149 47.7344 201.693 47.7344C201.251 47.7344 200.837 47.8158 200.453 47.9785C200.076 48.1348 199.77 48.3594 199.535 48.6523C199.307 48.9453 199.187 49.2839 199.174 49.668H196.732C196.752 48.8867 196.98 48.1934 197.416 47.5879C197.859 46.9824 198.454 46.5104 199.203 46.1719C199.958 45.8333 200.795 45.6641 201.713 45.6641C202.644 45.6641 203.467 45.8398 204.184 46.1914C204.9 46.5365 205.453 47.0085 205.844 47.6074C206.234 48.2064 206.426 48.8672 206.42 49.5898C206.426 50.1107 206.322 50.5827 206.107 51.0059C205.893 51.429 205.59 51.7806 205.199 52.0605C204.809 52.3405 204.356 52.5326 203.842 52.6367V52.7539C204.499 52.8451 205.062 53.0404 205.531 53.3398C206 53.6328 206.355 54.0137 206.596 54.4824C206.837 54.9512 206.954 55.4818 206.947 56.0742C206.954 56.8555 206.729 57.5618 206.273 58.1934C205.824 58.8184 205.196 59.3099 204.389 59.668C203.588 60.0195 202.683 60.1953 201.674 60.1953ZM222.795 56.8555H220.607V44.1016H222.795V56.8555ZM223.283 61.3867H211.115V55.5664H213.303V59.6289H223.283V61.3867ZM213.166 45.2539C214.051 45.2539 214.855 45.446 215.578 45.8301C216.301 46.2077 216.87 46.7318 217.287 47.4023C217.704 48.0729 217.912 48.8281 217.912 49.668C217.912 50.5208 217.704 51.2858 217.287 51.9629C216.87 52.6335 216.301 53.1576 215.578 53.5352C214.855 53.9128 214.051 54.1016 213.166 54.1016C212.274 54.1016 211.464 53.9128 210.734 53.5352C210.012 53.1576 209.442 52.6335 209.025 51.9629C208.609 51.2858 208.4 50.5208 208.4 49.668C208.4 48.8281 208.609 48.0729 209.025 47.4023C209.442 46.7318 210.012 46.2077 210.734 45.8301C211.464 45.446 212.274 45.2539 213.166 45.2539ZM213.166 47.1484C212.665 47.1484 212.212 47.2526 211.809 47.4609C211.405 47.6693 211.089 47.9655 210.861 48.3496C210.633 48.7337 210.523 49.1732 210.529 49.668C210.523 50.1758 210.633 50.6217 210.861 51.0059C211.089 51.39 211.405 51.6862 211.809 51.8945C212.212 52.1029 212.665 52.207 213.166 52.207C213.654 52.207 214.097 52.1029 214.494 51.8945C214.891 51.6862 215.204 51.39 215.432 51.0059C215.666 50.6217 215.783 50.1758 215.783 49.668C215.783 49.1732 215.666 48.7337 215.432 48.3496C215.204 47.9655 214.891 47.6693 214.494 47.4609C214.097 47.2526 213.654 47.1484 213.166 47.1484ZM230.596 45.3125C231.514 45.306 232.34 45.485 233.076 45.8496C233.818 46.2077 234.398 46.7122 234.814 47.3633C235.238 48.0143 235.452 48.75 235.459 49.5703C235.452 50.3971 235.238 51.1361 234.814 51.7871C234.398 52.4382 233.822 52.946 233.086 53.3105C232.35 53.6686 231.52 53.8477 230.596 53.8477C229.678 53.8477 228.851 53.6654 228.115 53.3008C227.38 52.9362 226.8 52.4316 226.377 51.7871C225.96 51.1361 225.752 50.3971 225.752 49.5703C225.752 48.75 225.96 48.0143 226.377 47.3633C226.8 46.7122 227.38 46.2077 228.115 45.8496C228.857 45.485 229.684 45.306 230.596 45.3125ZM230.596 47.1875C230.081 47.1875 229.619 47.2852 229.209 47.4805C228.799 47.6758 228.477 47.9557 228.242 48.3203C228.014 48.6784 227.9 49.0951 227.9 49.5703C227.9 50.0521 228.014 50.4753 228.242 50.8398C228.477 51.1979 228.799 51.4746 229.209 51.6699C229.619 51.8587 230.081 51.9531 230.596 51.9531C231.117 51.9531 231.582 51.8587 231.992 51.6699C232.409 51.4746 232.734 51.1979 232.969 50.8398C233.21 50.4753 233.33 50.0521 233.33 49.5703C233.33 49.0951 233.21 48.6784 232.969 48.3203C232.734 47.9557 232.409 47.6758 231.992 47.4805C231.582 47.2852 231.117 47.1875 230.596 47.1875ZM239.58 61.7578H237.412V44.082H239.58V61.7578ZM224.951 56.2891C227.113 56.2891 229.131 56.2533 231.006 56.1816C232.887 56.1035 234.671 55.944 236.357 55.7031L236.533 57.2852C234.788 57.6237 233.014 57.8385 231.211 57.9297C229.414 58.0208 227.419 58.0664 225.225 58.0664L224.951 56.2891ZM251.627 45.3125C252.545 45.306 253.372 45.485 254.107 45.8496C254.85 46.2077 255.429 46.7122 255.846 47.3633C256.269 48.0143 256.484 48.75 256.49 49.5703C256.484 50.3971 256.269 51.1361 255.846 51.7871C255.429 52.4382 254.853 52.946 254.117 53.3105C253.382 53.6686 252.551 53.8477 251.627 53.8477C250.709 53.8477 249.882 53.6654 249.146 53.3008C248.411 52.9362 247.831 52.4316 247.408 51.7871C246.992 51.1361 246.783 50.3971 246.783 49.5703C246.783 48.75 246.992 48.0143 247.408 47.3633C247.831 46.7122 248.411 46.2077 249.146 45.8496C249.889 45.485 250.715 45.306 251.627 45.3125ZM251.627 47.1875C251.113 47.1875 250.65 47.2852 250.24 47.4805C249.83 47.6758 249.508 47.9557 249.273 48.3203C249.046 48.6784 248.932 49.0951 248.932 49.5703C248.932 50.0521 249.046 50.4753 249.273 50.8398C249.508 51.1979 249.83 51.4746 250.24 51.6699C250.65 51.8587 251.113 51.9531 251.627 51.9531C252.148 51.9531 252.613 51.8587 253.023 51.6699C253.44 51.4746 253.766 51.1979 254 50.8398C254.241 50.4753 254.361 50.0521 254.361 49.5703C254.361 49.0951 254.241 48.6784 254 48.3203C253.766 47.9557 253.44 47.6758 253.023 47.4805C252.613 47.2852 252.148 47.1875 251.627 47.1875ZM260.611 61.7578H258.443V44.082H260.611V61.7578ZM245.982 56.2891C248.144 56.2891 250.162 56.2533 252.037 56.1816C253.919 56.1035 255.702 55.944 257.389 55.7031L257.564 57.2852C255.82 57.6237 254.046 57.8385 252.242 57.9297C250.445 58.0208 248.45 58.0664 246.256 58.0664L245.982 56.2891ZM277.475 57.1484H275.307V53.3008H271.049V51.5234H275.307V49.3359H271.283C270.658 50.6901 269.711 51.8652 268.441 52.8613C267.178 53.8574 265.652 54.6289 263.861 55.1758L262.943 53.4766C264.245 53.0599 265.382 52.5391 266.352 51.9141C267.322 51.2826 268.096 50.5697 268.676 49.7754C269.255 48.9746 269.61 48.112 269.74 47.1875H263.861V45.4492H272.123C272.123 46.1523 272.045 46.862 271.889 47.5781H275.307V44.1016H277.475V57.1484ZM277.924 61.3867H265.971V55.8594H268.178V59.6289H277.924V61.3867ZM287.502 44.3555C288.843 44.3555 289.986 44.4727 290.93 44.707C291.88 44.9414 292.606 45.2865 293.107 45.7422C293.609 46.1914 293.863 46.7383 293.869 47.3828C293.863 48.3594 293.306 49.1081 292.199 49.6289C291.092 50.1497 289.527 50.4167 287.502 50.4297C285.471 50.4167 283.902 50.1497 282.795 49.6289C281.688 49.1081 281.135 48.3594 281.135 47.3828C281.135 46.7383 281.385 46.1914 281.887 45.7422C282.388 45.2865 283.114 44.9414 284.064 44.707C285.015 44.4727 286.161 44.3555 287.502 44.3555ZM287.502 45.957C286.161 45.957 285.142 46.0807 284.445 46.3281C283.749 46.569 283.407 46.9206 283.42 47.3828C283.413 47.8646 283.752 48.2227 284.436 48.457C285.119 48.6914 286.141 48.8086 287.502 48.8086C288.882 48.8086 289.914 48.6914 290.598 48.457C291.281 48.2227 291.623 47.8646 291.623 47.3828C291.623 46.9206 291.275 46.569 290.578 46.3281C289.882 46.0807 288.856 45.957 287.502 45.957ZM295.568 53.1055H279.475V51.3672H295.568V53.1055ZM293.557 58.6133H283.518V59.9219H294.045V61.582H281.389V57.0703H291.428V55.8984H281.369V54.2969H293.557V58.6133ZM316.639 59.5898H300.506V57.8125H307.459V53.9648H302.283V45.4492H314.783V53.9648H309.607V57.8125H316.639V59.5898ZM304.412 52.2656H312.635V47.1875H304.412V52.2656ZM322.037 45.3711C322.923 45.3711 323.71 45.6283 324.4 46.1426C325.09 46.6504 325.631 47.3763 326.021 48.3203C326.419 49.2578 326.62 50.3516 326.627 51.6016C326.62 52.8646 326.419 53.9681 326.021 54.9121C325.631 55.8561 325.09 56.582 324.4 57.0898C323.71 57.5977 322.923 57.8516 322.037 57.8516C321.145 57.8516 320.351 57.5977 319.654 57.0898C318.958 56.5755 318.414 55.8464 318.023 54.9023C317.633 53.9583 317.441 52.8581 317.447 51.6016C317.441 50.3581 317.633 49.2643 318.023 48.3203C318.414 47.3763 318.958 46.6504 319.654 46.1426C320.351 45.6283 321.145 45.3711 322.037 45.3711ZM322.037 47.3242C321.542 47.3242 321.106 47.4967 320.729 47.8418C320.351 48.1803 320.058 48.6719 319.85 49.3164C319.641 49.9544 319.537 50.7161 319.537 51.6016C319.537 52.4935 319.641 53.2617 319.85 53.9062C320.058 54.5508 320.351 55.0456 320.729 55.3906C321.106 55.7292 321.542 55.8984 322.037 55.8984C322.538 55.8984 322.978 55.7292 323.355 55.3906C323.733 55.0456 324.023 54.5508 324.225 53.9062C324.433 53.2617 324.537 52.4935 324.537 51.6016C324.537 50.7161 324.433 49.9512 324.225 49.3066C324.023 48.6621 323.733 48.1706 323.355 47.832C322.978 47.4935 322.538 47.3242 322.037 47.3242ZM331.119 50.8594H333.834V52.6953H331.119V61.7383H328.951V44.082H331.119V50.8594ZM344.748 47.207C344.748 48.0013 344.904 48.7663 345.217 49.502C345.536 50.2376 346.005 50.8919 346.623 51.4648C347.248 52.0312 348.003 52.4674 348.889 52.7734L347.697 54.4727C346.76 54.1146 345.949 53.6068 345.266 52.9492C344.589 52.2917 344.061 51.5234 343.684 50.6445C343.293 51.6341 342.736 52.4935 342.014 53.2227C341.298 53.9518 340.432 54.5052 339.416 54.8828L338.264 53.1641C339.182 52.8516 339.96 52.3926 340.598 51.7871C341.242 51.1816 341.727 50.4818 342.053 49.6875C342.385 48.8932 342.554 48.0599 342.561 47.1875V45.1758H344.748V47.207ZM353.107 57.207H350.939V49.7656H347.424V47.9883H350.939V44.1016H353.107V57.207ZM353.498 61.3867H341.467V55.7812H343.674V59.6289H353.498V61.3867ZM362.705 47.0508H357.861V48.7695H362.529V50.4297H357.861V52.2852C359.001 52.2721 359.974 52.2363 360.781 52.1777C361.595 52.1191 362.412 52.0117 363.232 51.8555L363.467 53.6133C362.497 53.7956 361.54 53.916 360.596 53.9746C359.658 54.0332 358.441 54.0625 356.943 54.0625H355.771V45.3125H362.705V47.0508ZM370.205 54.8438H368.135V50.2539H366.299V54.707H364.268V44.4336H366.299V48.5156H368.135V44.1016H370.205V54.8438ZM370.205 61.7383H368.037V57.3828H358.115V55.625H370.205V61.7383ZM385.721 51.1133H388.436V52.9102H385.721V61.7383H383.572V44.082H385.721V51.1133ZM382.205 48.5352H371.795V46.7969H375.975V44.3359H378.143V46.7969H382.205V48.5352ZM377.068 49.6875C377.908 49.6875 378.663 49.8665 379.334 50.2246C380.011 50.5762 380.542 51.0677 380.926 51.6992C381.31 52.3307 381.502 53.0469 381.502 53.8477C381.502 54.6484 381.31 55.3646 380.926 55.9961C380.542 56.6211 380.011 57.1094 379.334 57.4609C378.663 57.8125 377.908 57.9883 377.068 57.9883C376.215 57.9883 375.451 57.8125 374.773 57.4609C374.096 57.1094 373.566 56.6211 373.182 55.9961C372.798 55.3646 372.609 54.6484 372.615 53.8477C372.609 53.0469 372.798 52.3307 373.182 51.6992C373.566 51.0677 374.096 50.5762 374.773 50.2246C375.451 49.8665 376.215 49.6875 377.068 49.6875ZM377.068 51.4648C376.606 51.4648 376.193 51.5625 375.828 51.7578C375.47 51.9531 375.19 52.2331 374.988 52.5977C374.786 52.9557 374.686 53.3724 374.686 53.8477C374.686 54.3229 374.786 54.7396 374.988 55.0977C375.19 55.4492 375.47 55.7227 375.828 55.918C376.193 56.1068 376.606 56.1979 377.068 56.1914C377.518 56.1979 377.918 56.1068 378.27 55.918C378.628 55.7227 378.908 55.4492 379.109 55.0977C379.318 54.7396 379.425 54.3229 379.432 53.8477C379.425 53.3724 379.318 52.9557 379.109 52.5977C378.908 52.2396 378.628 51.9629 378.27 51.7676C377.918 51.5658 377.518 51.4648 377.068 51.4648ZM403.092 47.4023V47.6172C403.085 48.5938 403.066 49.4434 403.033 50.166C403.007 50.8822 402.945 51.7155 402.848 52.666C402.75 53.61 402.597 54.6354 402.389 55.7422L400.201 55.5078C400.41 54.4792 400.562 53.5091 400.66 52.5977C400.758 51.6797 400.82 50.8659 400.846 50.1562C400.878 49.4466 400.898 48.6133 400.904 47.6562V47.4414H390.357V45.7031H403.092V47.4023ZM404.771 59.4531H388.678V57.6758H394.615V51.543H396.764V57.6758H404.771V59.4531ZM167.615 74.7812H170.33V76.5586H167.615V85.7578H165.447V68.082H167.615V74.7812ZM162.771 71.5195H156.678V79.625C158.104 79.625 159.389 79.5827 160.535 79.498C161.681 79.4134 162.843 79.2669 164.021 79.0586L164.275 80.8945C162.999 81.1159 161.736 81.2624 160.486 81.334C159.243 81.4056 157.739 81.4414 155.975 81.4414H154.51V69.7617H162.771V71.5195ZM178.6 68.4336C179.895 68.4336 181.018 68.5703 181.969 68.8438C182.926 69.1172 183.661 69.5143 184.176 70.0352C184.697 70.5495 184.96 71.1615 184.967 71.8711C184.96 72.5677 184.697 73.1699 184.176 73.6777C183.661 74.1855 182.926 74.5729 181.969 74.8398C181.018 75.1068 179.895 75.237 178.6 75.2305C177.317 75.237 176.194 75.1068 175.23 74.8398C174.273 74.5729 173.535 74.1855 173.014 73.6777C172.493 73.1699 172.232 72.5677 172.232 71.8711C172.232 71.1615 172.493 70.5495 173.014 70.0352C173.535 69.5143 174.273 69.1172 175.23 68.8438C176.194 68.5703 177.317 68.4336 178.6 68.4336ZM178.6 70.1328C177.298 70.1328 176.285 70.2826 175.562 70.582C174.846 70.8815 174.492 71.3112 174.498 71.8711C174.492 72.4049 174.846 72.8151 175.562 73.1016C176.285 73.388 177.298 73.5378 178.6 73.5508C179.902 73.5378 180.914 73.388 181.637 73.1016C182.359 72.8151 182.721 72.4049 182.721 71.8711C182.721 71.3112 182.359 70.8815 181.637 70.582C180.914 70.2826 179.902 70.1328 178.6 70.1328ZM184.713 85.5234H172.467V79.5859H184.713V85.5234ZM174.615 83.7656H182.604V81.3047H174.615V83.7656ZM186.666 78.1797H170.572V76.4219H186.666V78.1797ZM195.385 69.0781C196.622 69.0781 197.742 69.2865 198.744 69.7031C199.747 70.1133 200.535 70.696 201.107 71.4512C201.68 72.2064 201.967 73.0755 201.967 74.0586C201.967 75.0547 201.68 75.9336 201.107 76.6953C200.535 77.4505 199.747 78.0365 198.744 78.4531C197.748 78.8698 196.628 79.0781 195.385 79.0781C194.148 79.0781 193.031 78.8698 192.035 78.4531C191.039 78.0365 190.255 77.4505 189.682 76.6953C189.115 75.9336 188.835 75.0547 188.842 74.0586C188.835 73.0755 189.115 72.2064 189.682 71.4512C190.255 70.696 191.039 70.1133 192.035 69.7031C193.031 69.2865 194.148 69.0781 195.385 69.0781ZM195.385 70.8359C194.538 70.8294 193.777 70.9596 193.1 71.2266C192.423 71.4935 191.892 71.8743 191.508 72.3691C191.124 72.8574 190.932 73.4206 190.932 74.0586C190.932 74.7096 191.124 75.2826 191.508 75.7773C191.892 76.2656 192.419 76.6432 193.09 76.9102C193.767 77.1706 194.532 77.3008 195.385 77.3008C196.244 77.3008 197.009 77.1706 197.68 76.9102C198.357 76.6432 198.884 76.2656 199.262 75.7773C199.646 75.2826 199.838 74.7096 199.838 74.0586C199.838 73.4206 199.646 72.8574 199.262 72.3691C198.884 71.8743 198.357 71.4935 197.68 71.2266C197.003 70.9596 196.238 70.8294 195.385 70.8359ZM203.49 83.5117H187.357V81.7344H203.49V83.5117ZM220.275 83.6875H204.143V81.8906H211.096V79.0195H206.057V73.2383H216.213V71.0508H206.018V69.293H218.361V74.957H208.225V77.2422H218.771V79.0195H213.244V81.8906H220.275V83.6875ZM239.959 85.5234H228.299V78.9609H239.959V85.5234ZM230.428 83.7656H237.83V80.6992H230.428V83.7656ZM228.338 75.543C229.588 75.5299 230.792 75.4714 231.951 75.3672C233.11 75.2565 234.275 75.0872 235.447 74.8594L235.682 76.6758C234.38 76.9427 233.084 77.1283 231.795 77.2324C230.512 77.3301 229.119 77.3789 227.615 77.3789H226.189V69.0586H228.338V75.543ZM239.959 78.1992H237.791V72.9453H233.182V71.1875H237.791V68.082H239.959V78.1992ZM246.783 69.3711C247.577 69.3711 248.294 69.5827 248.932 70.0059C249.57 70.429 250.09 71.0345 250.494 71.8223C250.898 72.6035 251.148 73.5247 251.246 74.5859H254.615V68.082H256.764V85.7578H254.615V76.3438H251.275C251.197 77.4635 250.96 78.4401 250.562 79.2734C250.165 80.1003 249.641 80.7383 248.99 81.1875C248.339 81.6302 247.604 81.8516 246.783 81.8516C245.898 81.8516 245.113 81.5977 244.43 81.0898C243.746 80.582 243.212 79.8561 242.828 78.9121C242.444 77.9681 242.252 76.8646 242.252 75.6016C242.252 74.3516 242.444 73.2578 242.828 72.3203C243.212 71.3763 243.746 70.6504 244.43 70.1426C245.12 69.6283 245.904 69.3711 246.783 69.3711ZM246.783 71.3242C246.295 71.3242 245.865 71.4967 245.494 71.8418C245.123 72.1803 244.837 72.6719 244.635 73.3164C244.433 73.9544 244.335 74.7161 244.342 75.6016C244.335 76.4935 244.433 77.2617 244.635 77.9062C244.837 78.5508 245.123 79.0456 245.494 79.3906C245.865 79.7292 246.295 79.8984 246.783 79.8984C247.271 79.8984 247.698 79.7292 248.062 79.3906C248.434 79.0456 248.72 78.5508 248.922 77.9062C249.13 77.2617 249.238 76.4935 249.244 75.6016C249.238 74.7161 249.13 73.9512 248.922 73.3066C248.72 72.6621 248.434 72.1706 248.062 71.832C247.698 71.4935 247.271 71.3242 246.783 71.3242ZM272.572 74.9766H275.189V76.793H272.572V85.6992H270.404V68.082H272.572V74.9766ZM267.904 69.918C267.904 75.7122 265.229 79.9245 259.877 82.5547L258.646 80.875C260.795 79.8073 262.452 78.515 263.617 76.998C264.789 75.4811 265.486 73.7201 265.707 71.7148H259.604V69.918H267.904ZM291.623 79.6836H284.611V85.7188H282.463V79.6836H275.529V77.9258H291.623V79.6836ZM290.139 70.7969H284.836C284.882 71.4414 285.158 72.0632 285.666 72.6621C286.174 73.2546 286.87 73.7624 287.756 74.1855C288.641 74.6087 289.65 74.8919 290.783 75.0352L290.002 76.7344C288.505 76.526 287.193 76.0964 286.066 75.4453C284.947 74.7943 284.117 73.987 283.576 73.0234C283.036 73.9805 282.206 74.7878 281.086 75.4453C279.966 76.0964 278.667 76.526 277.189 76.7344L276.369 75.0352C277.495 74.8919 278.498 74.6087 279.377 74.1855C280.262 73.7624 280.959 73.2546 281.467 72.6621C281.981 72.0632 282.264 71.4414 282.316 70.7969H277.014V69.0781H290.139V70.7969ZM297.822 72.7109C297.822 73.7005 297.939 74.6608 298.174 75.5918C298.415 76.5228 298.789 77.3757 299.297 78.1504C299.805 78.9251 300.439 79.5534 301.201 80.0352L300.01 81.6953C299.242 81.2331 298.59 80.6146 298.057 79.8398C297.523 79.0586 297.103 78.1634 296.797 77.1543C296.465 78.2546 296.012 79.2311 295.439 80.084C294.867 80.9368 294.176 81.6107 293.369 82.1055L292.021 80.4844C292.848 79.9831 293.538 79.3255 294.092 78.5117C294.645 77.6979 295.055 76.8027 295.322 75.8262C295.596 74.8496 295.732 73.8438 295.732 72.8086V69.6445H297.822V72.7109ZM307.549 85.7383H305.459V68.082H307.549V85.7383ZM303.877 84.8789H301.826V75.9531H299.307V74.1562H301.826V68.3945H303.877V84.8789ZM325.232 83.5898H309.1V81.8125H312.83V77.3496C312.114 76.9329 311.557 76.4154 311.16 75.7969C310.77 75.1784 310.577 74.4818 310.584 73.707C310.577 72.7891 310.854 71.9753 311.414 71.2656C311.974 70.556 312.752 70.0091 313.748 69.625C314.744 69.2344 315.87 69.0391 317.127 69.0391C318.39 69.0391 319.52 69.2344 320.516 69.625C321.518 70.0091 322.299 70.556 322.859 71.2656C323.426 71.9688 323.709 72.7826 323.709 73.707C323.709 74.4622 323.517 75.1491 323.133 75.7676C322.755 76.3796 322.218 76.8906 321.521 77.3008V81.8125H325.232V83.5898ZM317.127 70.7578C316.248 70.7578 315.473 70.8783 314.803 71.1191C314.139 71.3535 313.621 71.6921 313.25 72.1348C312.885 72.5775 312.706 73.1016 312.713 73.707C312.706 74.306 312.885 74.8268 313.25 75.2695C313.621 75.7122 314.142 76.054 314.812 76.2949C315.483 76.5358 316.255 76.6562 317.127 76.6562C317.999 76.6562 318.771 76.5358 319.441 76.2949C320.118 76.054 320.643 75.7122 321.014 75.2695C321.391 74.8268 321.58 74.306 321.58 73.707C321.58 73.1081 321.391 72.5872 321.014 72.1445C320.643 71.6953 320.122 71.3535 319.451 71.1191C318.781 70.8783 318.006 70.7578 317.127 70.7578ZM319.314 81.8125V78.1309C318.624 78.2806 317.895 78.3555 317.127 78.3555C316.391 78.3555 315.675 78.2839 314.979 78.1406V81.8125H319.314Z" fill="white"/>
</svg>
