<svg width="168" height="168" viewBox="0 0 168 168" fill="none" xmlns="http://www.w3.org/2000/svg">
<path d="M84 21C118.794 21 147 49.2061 147 84C147 118.794 118.794 147 84 147C49.2061 147 21 118.794 21 84C21 49.2061 49.2061 21 84 21ZM84 28C80.5387 28 77.1509 28.3149 73.8633 28.916C73.8563 28.9562 73.845 28.9968 73.8232 29.0361C73.5389 29.5501 72.7954 29.965 72.4355 30.6211C72.3539 30.7701 72.337 30.9081 72.3877 31.0176C72.4869 31.2314 72.699 31.519 72.9658 31.9248C73.5146 32.7593 74.2453 34.0656 74.5674 34.585C75.1309 35.4936 75.692 36.0674 76.2188 36.3662C76.714 36.647 77.0991 36.928 77.5234 37.1748C78.036 37.473 78.5039 37.7923 79.2578 38.332C79.9515 38.8287 80.6687 39.3917 80.6592 39.9678C80.6419 40.9734 80.6547 41.4707 80.4268 42.0811L80.4248 42.0869C80.1119 42.9244 79.8834 43.5339 79.2676 43.8467C78.2956 44.3403 77.7815 44.4513 77.3057 44.5713C76.909 44.6713 76.419 44.8044 75.8662 45.085C74.7296 45.662 74.4502 46.0187 74.2188 46.3887C73.9706 46.7854 73.7943 47.3305 73.2598 47.5439C72.8464 47.7089 71.8218 48.0231 71.2627 47.6572C70.8323 47.3754 70.3936 46.8962 70.04 46.4678C69.6449 45.9889 69.3238 45.5188 68.6367 44.667C68.1575 44.0729 67.806 43.4569 67.3154 42.9668C66.6063 42.2586 65.9081 41.825 65.5332 41.3174C65.2524 40.9371 64.954 40.5581 64.6592 39.8965C64.4606 39.4508 64.3211 38.9109 64.0146 38.5596C63.2277 37.6578 61.8359 36.2297 61.3721 35.6865C60.8917 35.1239 60.293 34.4327 60.085 33.9033C60.0287 33.76 59.975 33.5966 59.9297 33.4229C54.3169 36.0988 49.2195 39.6814 44.8271 43.9814C44.8902 44.0066 44.9542 44.0302 45.0176 44.0557C46.5991 44.6896 47.3498 45.2475 50.249 45.2891C52.4429 45.3204 56.4605 45.2654 58.5635 45.3525C60.8559 45.4475 61.8997 45.2705 62.7578 45.7344C63.5191 46.1458 64.3882 46.2605 65.1357 46.9727C65.8 47.6058 65.903 49.4286 66.2412 51.668C66.5568 53.7572 66.8495 55.4812 65.9521 55.874C65.1576 56.2217 64.1371 56.4405 63.1641 56.7285C62.3067 56.9823 61.1172 57.4502 60.5029 58.2822C59.964 59.0122 59.3833 59.8581 58.9512 60.7549C58.5083 61.674 58.4154 62.8461 57.1113 63.4463C56.2872 63.8255 54.978 63.795 53.9746 64.1426C53.0555 64.461 52.2033 64.8551 51.5352 65.5068C50.2568 66.7539 48.618 68.4327 48.1133 69.374C47.4167 70.6731 46.9404 71.6971 46.5625 72.541C46.1509 73.4601 45.7543 74.2089 45.1338 75.1748C43.9952 76.9473 43.4274 77.7814 42.6934 78.7539C41.5233 80.3042 41.0082 81.2311 40.1289 81.4111C39.3676 81.567 38.4752 81.3332 37.6572 81.0605C36.896 80.8068 36.2553 80.3098 35.5342 79.6641C34.615 78.8409 33.9639 77.8912 32.998 77.8926C31.7633 77.8945 30.7239 77.9241 29.8633 78.2109C29.3109 78.3951 28.775 78.6694 28.2207 78.9824C28.0739 80.6353 28 82.309 28 84C28 84.7634 28.0156 85.5233 28.0459 86.2793C28.2517 86.2687 28.5333 86.2579 29.002 86.251C30.0091 86.2362 31.8757 86.2362 32.9951 86.2793C34.9418 86.3542 35.4498 86.6416 36.0869 86.7578C36.5392 86.8403 37.1593 87.1337 37.8428 87.4961L37.8652 87.5078C38.2482 87.7108 38.7605 87.9833 39.0762 88.4238C39.3906 88.8631 39.1934 89.4238 39.3086 89.917C39.4596 90.563 39.7434 90.9328 40.0479 91.2812C40.3552 91.633 40.7854 92.0638 41.2793 92.4121C41.7211 92.7236 42.063 92.9636 42.4258 93.2246C42.8841 93.5545 42.992 93.9781 43.0938 94.4131C43.1935 94.8396 43.1953 95.3685 43.0078 95.8057C42.8328 96.2122 41.5229 96.1553 40.6309 96.04C39.8795 95.9429 39.3985 95.6054 39.0205 95.4453C38.6083 95.2708 38.0934 95.1409 37.2705 95.0391C34.5751 94.7057 33.8021 95.2558 33.25 95.415C32.0651 95.7568 31.2196 96.1258 30.8271 96.2998C30.4126 96.4836 29.9146 96.4162 29.4219 96.4883C29.4141 96.4894 29.4061 96.4892 29.3984 96.4902C33.0986 112.733 43.8609 126.288 58.2842 133.758C58.2321 133.632 58.1869 133.506 58.1553 133.379C57.9936 132.726 57.794 132.004 57.7383 131.38C57.6679 130.59 57.4595 129.947 57.2959 129.312C57.1098 128.591 57.0802 127.812 56.8311 127.104C56.5524 126.313 56.4803 125.342 56.041 124.387C55.6214 123.475 55.0301 121.851 54.2744 120.994C53.7615 120.413 53.1579 119.899 52.0889 118.996C51.3438 118.367 50.514 117.715 49.6689 117.065C47.6694 115.529 46.3652 114.683 45.4209 113.396C44.8425 112.607 44.5167 112.07 44.0986 111.026C43.8191 110.329 43.1875 109.206 43.3799 107.028C43.4956 105.72 43.5509 103.748 43.8691 102.587C44.4741 100.38 44.917 99.3525 45.3096 98.6895C45.6818 98.0607 46.5153 96.5262 48.4717 95.5996C49.3562 95.1807 50.4486 94.4951 51.542 94.5088C53.4908 94.5332 54.2342 94.6923 54.9531 94.7891C55.8133 94.9048 57.4447 95.1454 58.5547 95.626C59.2515 95.9276 59.9885 96.1036 60.6924 96.79C61.6207 97.6954 62.2677 98.0802 62.7598 98.7412C63.4337 99.6466 63.947 100.256 64.665 101.205C65.385 102.156 65.8364 102.723 66.8027 103.853C67.6217 104.81 68.7397 106.036 69.4512 106.453C70.1252 106.848 71.1095 107.539 72.0078 107.73C73.1027 107.964 74.2896 108.295 75.6348 108.381C77.0948 108.474 77.748 108.648 78.4893 108.846C79.1863 109.032 80.4792 109.463 81.5098 110.218C82.114 110.66 82.7842 111.004 83.2051 111.519C83.4135 111.774 83.7872 113.216 83.4814 115.197C83.1762 117.176 82.6355 118.935 82.3662 119.745C82.0645 120.652 81.8265 121.409 81.4824 122.233C80.9019 123.624 80.5893 124.162 80.0889 125.089C79.5968 126.001 78.8191 127.179 78.3926 127.923C77.9235 128.741 77.1892 129.854 75.5771 132.296C74.6753 133.662 74.2048 134.153 73.5361 135.267C73.0476 136.08 72.4308 137.021 71.8867 137.541C71.5979 137.817 71.2691 138.15 70.9229 138.464C75.1183 139.468 79.497 140 84 140C93.8305 140 103.068 137.466 111.099 133.017C110.956 132.903 110.813 132.786 110.67 132.661C109.935 132.203 109.207 131.831 108.62 131.16C107.978 130.425 107.488 129.692 106.998 128.957C106.508 128.222 106 127.547 105.744 126.722C105.469 125.834 105.224 125.101 104.979 124.365C104.733 123.63 104.329 122.795 104.275 121.76C104.183 119.958 103.974 118.987 103.908 117.812C103.815 116.16 103.119 113.614 102.622 112.062C102.347 111.201 102.051 110.169 101.458 109.49C100.815 108.755 100.196 108.158 99.3145 107.655C98.2365 107.04 96.7786 106.422 95.8252 106.033C94.997 105.695 93.8263 105.083 92.4248 104.563C91.0192 104.043 90.1137 103.64 89.2139 103.063C88.4482 102.573 87.75 102.045 86.6729 101.135C85.6896 100.304 84.5486 99.3042 84.0732 98.2871C83.6151 97.3065 83.1437 96.3462 83.1562 94.9717C83.1884 91.4932 83.183 90.6011 83.5254 89.625C83.9229 88.492 84.1426 87.626 84.5664 86.749C84.9667 85.9209 85.6741 85.0461 86.4033 84.1777C87.3609 83.0374 88.6411 81.5434 89.1885 80.6885C89.6788 79.9227 90.3162 78.9277 91.3623 78.3018C92.1281 77.8436 93.8759 77.0535 95.5312 76.2803C97.8213 75.2106 98.722 74.9725 100.118 74.415C101.19 73.9871 102.122 73.1393 104.19 73.7139C105.413 74.0536 106.325 74.4658 107.372 75.3389C108.473 76.257 109.291 77.05 110.188 77.5723C111.29 78.2148 112.091 78.8002 112.879 79.1621C113.614 79.5 114.338 79.897 115.208 80.1426C116.615 80.5401 117.609 80.5967 118.451 80.8457C119.491 81.1533 120.294 81.3783 120.96 81.7949C121.695 82.2549 122.49 82.6664 123.194 83.2969C124.082 84.092 124.911 84.8655 125.766 85.4375C126.778 86.1151 127.808 87.0432 128.673 87.7646C129.408 88.3779 130.029 89.1075 130.907 89.8154C131.858 90.5812 133.172 91.5854 133.998 92.4473C134.733 93.2149 135.398 94.0491 135.649 94.8047C135.894 95.5399 136.138 96.2728 136.384 97.1924C136.629 98.1105 136.887 98.962 136.903 101.228C136.906 101.631 136.906 102.021 136.906 102.399C138.875 96.739 139.959 90.6657 139.997 84.3438C139.833 84.4727 139.673 84.5921 139.516 84.6953C138.948 85.0672 138.368 85.2345 137.761 85.457C136.892 85.7754 136.001 86.3052 135.211 86.04C134.733 85.8796 134.209 85.6467 133.688 85.3135C133.245 85.0297 132.735 84.699 132.2 84.3564C131.757 84.0727 131.363 83.7345 130.889 83.5059C130.375 83.2583 129.995 82.9562 129.525 82.7803C129.1 82.6209 128.679 82.464 128.143 82.3379C127.539 82.196 126.974 82.054 126.549 81.9121C126.123 81.7702 125.65 81.5385 125.273 81.1318C124.848 80.6719 124.54 80.2813 124.176 79.874C123.716 79.3603 123.437 78.9297 123.006 78.5625C122.404 78.0504 121.884 77.8101 121.447 77.5371C121.022 77.2709 120.419 76.9481 119.889 76.3135C119.534 75.889 119.072 75.627 118.648 75.0205C118.364 74.6135 118.074 73.9858 117.604 73.6387C117.195 73.3378 116.629 73.6143 113.559 72.9492C112.41 72.7005 111.795 72.3596 111.332 72.2402C110.782 72.0984 110.053 71.845 109.116 71.1758C108.123 70.4664 107.399 69.9334 106.549 69.4053C106.036 69.0865 105.653 68.7339 105.097 68.6445C104.328 68.5213 103.072 68.3796 102.457 68.6631C101.996 68.8756 101.537 69.0453 101.146 69.3906C100.685 69.7985 100.116 70.148 99.6406 70.542C99.1267 70.9679 97.6884 73.1824 95.3838 73.1094C93.5961 73.0525 92.6857 72.6758 92.2188 72.5771C91.7931 72.4873 91.333 72.3652 90.8359 72.1162C90.3048 71.8501 89.6704 71.6252 89.3672 71.1592C89.1022 70.7512 88.9524 70.2545 89.0137 69.7061C89.0674 69.2267 89.2241 68.4251 89.4756 67.8633C89.7055 67.3499 89.8847 66.9055 90.2012 66.4111C90.4849 65.968 90.8716 65.3792 91.3711 65.2256C91.8328 65.0837 92.3392 65.0099 92.8418 64.8887C93.3573 64.7645 94.21 64.9403 95.2705 63.9834C95.9782 63.3447 96.6487 62.3956 97.3945 61.4502C97.855 60.8663 98.0265 60.3214 98.8652 59.6611C99.4491 59.2015 99.9909 58.6596 100.974 58.1387C101.575 57.8199 102.216 57.4724 102.887 57.2178C103.631 56.9356 104.192 56.756 104.676 56.7051C105.515 56.617 106.739 56.7393 107.829 56.4922C108.377 56.3679 108.811 56.2367 109.228 55.8887C109.761 55.4427 110.521 54.4692 110.715 53.7451C110.857 53.2131 110.902 51.3661 110.838 50.1113C110.784 49.0686 110.577 48.5827 110.519 48.0049C110.465 47.4739 110.288 47.0138 109.862 46.624C109.437 46.2346 109.073 45.7846 108.587 45.7041C108.375 45.6691 108.091 45.6363 107.985 45.8125C107.88 45.9893 107.751 46.1925 107.648 46.415C107.453 46.8404 107.108 47.2702 107.225 48.666C107.313 49.718 107.287 51.0016 107.011 51.6768C106.815 52.1549 106.631 52.792 106.124 52.8975C105.105 53.1089 103.699 53.0383 103.272 52.8965C102.847 52.7546 102.153 52.5486 101.678 52.1514C101.252 51.7954 100.746 51.2913 100.421 50.7695C100.156 50.344 99.9761 49.8404 99.8545 49.3691C99.694 48.7471 99.3756 48.1258 99.376 46.9854C99.3771 43.8593 99.4651 43.0728 99.5723 42.5674C99.6965 41.9814 99.7331 41.319 99.9092 40.8301C100.158 40.1402 100.444 39.4328 100.812 38.6699C101.078 38.1213 101.376 37.5627 101.771 36.9141C102.459 35.7831 102.812 35.2846 103.275 34.6309L103.297 34.5996C103.681 34.0584 104.112 33.4509 104.568 33.0371C104.792 32.8341 105.106 32.5372 105.447 32.2549C98.8413 29.5138 91.5975 28 84 28ZM123.135 59.5254C121.429 59.5567 120.881 59.8405 120.445 60.0381C120.236 60.1329 120.286 60.4741 120.345 60.7695C120.52 61.6479 121.352 61.9371 121.847 62.2539C122.399 62.6076 122.895 62.887 123.468 63.3213C124.054 63.7659 124.439 64.1936 124.676 64.2529C125.146 64.3707 125.507 63.8387 125.686 63.6611C126.007 63.3394 125.549 62.732 125.391 62.2568C125.312 62.0203 125.232 61.7814 125.173 61.4473C125.152 61.2282 124.499 59.5008 123.135 59.5254ZM92.3633 46.5059C92.553 46.4027 93.8659 46.2198 94.8359 46.4902C95.7668 46.7498 96.0001 47.0009 96.3867 47.5088C96.6395 47.8412 96.4565 48.0277 96.4912 48.1318L96.5947 48.4424C96.7683 48.8573 97.1337 49.1852 97.5107 49.6689C97.8751 50.1363 98.4536 50.6711 98.4424 51.3652C98.4242 52.4854 98.3331 53.1556 98.0273 53.7295C97.7325 54.2829 97.4978 54.8169 97.1104 55.0752C96.6953 55.3519 96.2989 55.7904 95.585 55.7832C93.7942 55.7651 93.2929 55.7286 92.9121 55.3145C92.3095 54.6585 91.992 54.2689 91.9473 53.8115C91.8949 53.2753 91.7453 52.794 91.7051 52.2051C91.6191 50.9456 91.5565 48.8708 91.7402 48.0586C91.8967 47.3678 91.9589 46.7258 92.3633 46.5059Z" fill="#0D575C"/>
</svg>
