<svg width="168" height="168" viewBox="0 0 168 168" fill="none" xmlns="http://www.w3.org/2000/svg">
<path d="M119 28H49V140H140L147 147H28L42 133V21H126L119 28ZM147 133H56V105H147V133ZM68.25 115.287H63.8125L66.1377 117.612L63 120.75H66.2881V125.187L68.6123 122.862L71.75 126V122.712H76.1865L73.8623 120.388L77 117.25H73.7129V112.812L71.3877 115.138L68.25 112V115.287ZM89.25 115.287H84.8125L87.1377 117.612L84 120.75H87.2881V125.187L89.6123 122.862L92.75 126V122.712H97.1865L94.8623 120.388L98 117.25H94.7129V112.812L92.3877 115.138L89.25 112V115.287ZM110.25 115.287H105.812L108.138 117.612L105 120.75H108.288V125.187L110.612 122.862L113.75 126V122.712H118.187L115.862 120.388L119 117.25H115.713V112.812L113.388 115.138L110.25 112V115.287ZM131.25 115.287H126.812L129.138 117.612L126 120.75H129.288V125.187L131.612 122.862L134.75 126V122.712H139.187L136.862 120.388L140 117.25H136.713V112.812L134.388 115.138L131.25 112V115.287ZM126 98H119V35L126 28V98ZM112 91L105 84V70L112 63V91Z" fill="url(#paint0_linear_43_1169)"/>
<defs>
<linearGradient id="paint0_linear_43_1169" x1="28" y1="21" x2="153.794" y2="139.806" gradientUnits="userSpaceOnUse">
<stop stop-color="#6E7C7D"/>
<stop offset="1" stop-color="#192D3A"/>
</linearGradient>
</defs>
</svg>
