<svg width="168" height="168" viewBox="0 0 168 168" fill="none" xmlns="http://www.w3.org/2000/svg">
<path d="M112 115.5V150.5L77 133V98L112 115.5ZM119 28H49V140H77L91 147H28L42 133V21H126L119 28ZM105 129.5C103.067 129.5 101.5 131.851 101.5 134.75C101.5 137.649 103.067 140 105 140C106.933 140 108.5 137.649 108.5 134.75C108.5 131.851 106.933 129.5 105 129.5ZM126 129.5C127.933 129.5 129.5 131.851 129.5 134.75C129.5 137.649 127.933 140 126 140C124.067 140 122.5 137.649 122.5 134.75C122.5 131.851 124.067 129.5 126 129.5ZM94.5 119C92.567 119 91 121.351 91 124.25C91 127.149 92.567 129.5 94.5 129.5C96.433 129.5 98 127.149 98 124.25C98 121.351 96.433 119 94.5 119ZM140 112C141.933 112 143.5 114.351 143.5 117.25C143.5 120.149 141.933 122.5 140 122.5C138.067 122.5 136.5 120.149 136.5 117.25C136.5 114.351 138.067 112 140 112ZM84 108.5C82.067 108.5 80.5 110.851 80.5 113.75C80.5 116.649 82.067 119 84 119C85.933 119 87.5 116.649 87.5 113.75C87.5 110.851 85.933 108.5 84 108.5ZM147 91L112 108.5L77 91L112 77L147 91ZM112 89.25C109.101 89.25 106.75 90.817 106.75 92.75C106.75 94.683 109.101 96.25 112 96.25C114.899 96.25 117.25 94.683 117.25 92.75C117.25 90.817 114.899 89.25 112 89.25ZM126 73.5L119 70V35L126 28V73.5Z" fill="url(#paint0_linear_43_1170)"/>
<defs>
<linearGradient id="paint0_linear_43_1170" x1="28" y1="21" x2="157.038" y2="139.576" gradientUnits="userSpaceOnUse">
<stop stop-color="#6E7C7D"/>
<stop offset="1" stop-color="#192D3A"/>
</linearGradient>
</defs>
</svg>
