<svg width="40" height="40" viewBox="0 0 40 40" fill="none" xmlns="http://www.w3.org/2000/svg">
<path d="M9.99967 16.666H5.83301V36.666H34.1663V16.666H29.9997V11.666C29.9997 9.01385 28.9461 6.47031 27.0707 4.59495C25.1954 2.71958 22.6518 1.66602 19.9997 1.66602C17.3475 1.66602 14.804 2.71958 12.9286 4.59495C11.0532 6.47031 9.99967 9.01385 9.99967 11.666V16.666ZM13.333 11.666C13.333 9.89791 14.0354 8.20221 15.2856 6.95197C16.5359 5.70173 18.2316 4.99935 19.9997 4.99935C21.7678 4.99935 23.4635 5.70173 24.7137 6.95197C25.964 8.20221 26.6663 9.89791 26.6663 11.666V16.666H13.333V11.666ZM14.9997 28.3327V24.9993H24.9997V28.3327H14.9997Z" fill="#E6ECEF"/>
</svg>
