<svg width="40" height="40" viewBox="0 0 40 40" fill="none" xmlns="http://www.w3.org/2000/svg">
<path d="M9.99992 16.6667H5.83325V36.6667H34.1666V16.6667H29.9999V11.6667C29.9999 9.01452 28.9464 6.47098 27.071 4.59562C25.1956 2.72026 22.6521 1.66669 19.9999 1.66669C17.3478 1.66669 14.8042 2.72026 12.9289 4.59562C11.0535 6.47098 9.99992 9.01452 9.99992 11.6667V16.6667ZM13.3333 11.6667C13.3333 9.89858 14.0356 8.20288 15.2859 6.95264C16.5361 5.7024 18.2318 5.00002 19.9999 5.00002C21.768 5.00002 23.4637 5.7024 24.714 6.95264C25.9642 8.20288 26.6666 9.89858 26.6666 11.6667V16.6667H13.3333V11.6667ZM14.9999 28.3334V25H24.9999V28.3334H14.9999Z" fill="#E6ECEF"/>
</svg>
