<svg width="24" height="24" viewBox="0 0 24 24" fill="none" xmlns="http://www.w3.org/2000/svg">
<path d="M12 0.5C10.81 0.5 9.76 1.094 9.128 2H2.5V22H21.5V2H14.872C14.5496 1.53702 14.1201 1.15882 13.62 0.897647C13.12 0.636469 12.5642 0.500045 12 0.5ZM9 9.5C9 8.70435 9.31607 7.94129 9.87868 7.37868C10.4413 6.81607 11.2044 6.5 12 6.5C12.7956 6.5 13.5587 6.81607 14.1213 7.37868C14.6839 7.94129 15 8.70435 15 9.5C15 10.2956 14.6839 11.0587 14.1213 11.6213C13.5587 12.1839 12.7956 12.5 12 12.5C11.2044 12.5 10.4413 12.1839 9.87868 11.6213C9.31607 11.0587 9 10.2956 9 9.5ZM6 18C6 16.9391 6.42143 15.9217 7.17157 15.1716C7.92172 14.4214 8.93913 14 10 14H14C15.0609 14 16.0783 14.4214 16.8284 15.1716C17.5786 15.9217 18 16.9391 18 18V19H6V18Z" fill="#0D575C"/>
</svg>
