<svg width="20" height="22" viewBox="0 0 20 22" fill="none" xmlns="http://www.w3.org/2000/svg">
<path d="M10 0.5C8.81 0.5 7.76 1.094 7.128 2H0.5V22H19.5V2H12.872C12.5496 1.53702 12.1201 1.15882 11.62 0.897647C11.12 0.636469 10.5642 0.500045 10 0.5ZM7 9.5C7 8.70435 7.31607 7.94129 7.87868 7.37868C8.44129 6.81607 9.20435 6.5 10 6.5C10.7956 6.5 11.5587 6.81607 12.1213 7.37868C12.6839 7.94129 13 8.70435 13 9.5C13 10.2956 12.6839 11.0587 12.1213 11.6213C11.5587 12.1839 10.7956 12.5 10 12.5C9.20435 12.5 8.44129 12.1839 7.87868 11.6213C7.31607 11.0587 7 10.2956 7 9.5ZM4 18C4 16.9391 4.42143 15.9217 5.17157 15.1716C5.92172 14.4214 6.93913 14 8 14H12C13.0609 14 14.0783 14.4214 14.8284 15.1716C15.5786 15.9217 16 16.9391 16 18V19H4V18Z" fill="#354750"/>
</svg>
