<svg width="552" height="150" viewBox="0 0 496 131" fill="none" xmlns="http://www.w3.org/2000/svg">
<path d="M446.85 0L442.8 8.37012L475.47 130.68L445.77 107.46L446.85 99.3604L441.45 78.8398H409.05L403.65 99.3604L404.73 107.46L375.03 130.68L407.7 8.37012L403.65 0H446.85ZM413.64 59.9404H436.86L425.25 21.5996L413.64 59.9404Z" fill="#111111"/>
<path d="M63.72 0.540039H2.97L20.79 20.79H52.92L64.26 32.13V85.05L51.84 97.47H35.37L0 128.79L60.75 114.75L83.7 93.15V24.57L63.72 0.540039Z" fill="#111111"/>
<path d="M36.45 26.73H18.09V104.49L36.45 88.29V26.73Z" fill="#111111"/>
<path d="M117.18 21.0601H92.34L95.31 27.2701V98.8201L92.34 105.03H117.18L114.21 98.8201V27.2701L117.18 21.0601Z" fill="#111111"/>
<path d="M495.99 0.27002H471.15L474.12 8.17729V99.2827L471.15 107.19H495.99L493.02 99.2827V8.17729L495.99 0.27002Z" fill="#111111"/>
<path d="M255.69 21.0601H230.85L233.82 27.2701V98.8201L230.85 105.03H255.69L252.72 98.8201V55.6201L267.84 94.5001L282.96 55.6201V98.8201L279.99 105.03H304.83L301.86 98.8201V27.2701L304.83 21.0601H279.99L267.84 52.3801L255.69 21.0601Z" fill="#111111"/>
<path d="M331.29 21.0601H306.45L309.42 27.2701V98.8201L306.45 105.03H331.29L328.32 98.8201V55.6201L343.44 94.5001L358.56 55.6201V98.8201L355.59 105.03H380.43L377.46 98.8201V27.2701L380.43 21.0601H355.59L343.44 52.3801L331.29 21.0601Z" fill="#111111"/>
<path d="M145.53 21.0601H120.69L123.66 27.2701V98.8201L120.69 105.03H168.21V79.9201L155.52 89.9101H142.56V27.2701L145.53 21.0601Z" fill="#111111"/>
<path d="M174.42 27.2701L171.45 21.0601H225.72L223.29 27.2701V48.8701L212.49 36.9901H193.32V55.0801L220.59 55.6201L208.44 68.5801H193.32V89.9101H212.49L225.18 79.9201V105.03H171.45L174.42 98.8201V27.2701Z" fill="#111111"/>
</svg>
