<!-- <svg width="552" height="150" viewBox="0 0 496 131" fill="none" xmlns="http://www.w3.org/2000/svg">
<path d="M446.85 0L442.8 8.37012L475.47 130.68L445.77 107.46L446.85 99.3604L441.45 78.8398H409.05L403.65 99.3604L404.73 107.46L375.03 130.68L407.7 8.37012L403.65 0H446.85ZM413.64 59.9404H436.86L425.25 21.5996L413.64 59.9404Z" fill="#111111"/>
<path d="M63.72 0.540039H2.97L20.79 20.79H52.92L64.26 32.13V85.05L51.84 97.47H35.37L0 128.79L60.75 114.75L83.7 93.15V24.57L63.72 0.540039Z" fill="#111111"/>
<path d="M36.45 26.73H18.09V104.49L36.45 88.29V26.73Z" fill="#111111"/>
<path d="M117.18 21.0601H92.34L95.31 27.2701V98.8201L92.34 105.03H117.18L114.21 98.8201V27.2701L117.18 21.0601Z" fill="#111111"/>
<path d="M495.99 0.27002H471.15L474.12 8.17729V99.2827L471.15 107.19H495.99L493.02 99.2827V8.17729L495.99 0.27002Z" fill="#111111"/>
<path d="M255.69 21.0601H230.85L233.82 27.2701V98.8201L230.85 105.03H255.69L252.72 98.8201V55.6201L267.84 94.5001L282.96 55.6201V98.8201L279.99 105.03H304.83L301.86 98.8201V27.2701L304.83 21.0601H279.99L267.84 52.3801L255.69 21.0601Z" fill="#111111"/>
<path d="M331.29 21.0601H306.45L309.42 27.2701V98.8201L306.45 105.03H331.29L328.32 98.8201V55.6201L343.44 94.5001L358.56 55.6201V98.8201L355.59 105.03H380.43L377.46 98.8201V27.2701L380.43 21.0601H355.59L343.44 52.3801L331.29 21.0601Z" fill="#111111"/>
<path d="M145.53 21.0601H120.69L123.66 27.2701V98.8201L120.69 105.03H168.21V79.9201L155.52 89.9101H142.56V27.2701L145.53 21.0601Z" fill="#111111"/>
<path d="M174.42 27.2701L171.45 21.0601H225.72L223.29 27.2701V48.8701L212.49 36.9901H193.32V55.0801L220.59 55.6201L208.44 68.5801H193.32V89.9101H212.49L225.18 79.9201V105.03H171.45L174.42 98.8201V27.2701Z" fill="#111111"/>
</svg> -->
<svg width="530" height="131" viewBox="0 0 530 131" fill="none" xmlns="http://www.w3.org/2000/svg">
<path d="M442.799 8.37012L475.47 130.68L445.77 107.46L446.85 99.3604L441.449 78.8398H409.049L403.649 99.3604L404.729 107.46L375.029 130.68L407.699 8.37012L403.649 0H446.85L442.799 8.37012ZM83.7002 24.5693V93.1494L60.75 114.749L0 128.789L35.3701 97.4688H51.8398L64.2598 85.0488V32.1289L52.9199 20.7891H20.79L2.96973 0.539062H63.7197L83.7002 24.5693ZM510.87 8.18066V99.2861L513.84 107.193H489L491.97 99.2861V8.18066L489 0.273438H513.84L510.87 8.18066ZM485 107H473V95H485V107ZM530 107H518V95H530V107ZM114.21 27.2725V98.8223L117.18 105.032H92.3398L95.3096 98.8223V27.2725L92.3398 21.0625H117.18L114.21 27.2725ZM142.56 27.2725V89.9121H155.52L168.209 79.9229V105.032H120.689L123.659 98.8223V27.2725L120.689 21.0625H145.529L142.56 27.2725ZM223.289 27.2725V48.8721L212.489 36.9922H193.319V55.082L220.589 55.6221L208.439 68.582H193.319V89.9121H212.489L225.18 79.9229V105.032H171.449L174.419 98.8223V27.2725L171.449 21.0625H225.719L223.289 27.2725ZM267.84 52.3828L279.989 21.0625H304.83L301.859 27.2725V98.8223L304.83 105.032H279.989L282.96 98.8223V55.6221L267.84 94.5029L252.72 55.6221V98.8223L255.689 105.032H230.85L233.819 98.8223V27.2725L230.85 21.0625H255.689L267.84 52.3828ZM343.439 52.3828L355.589 21.0625H380.43L377.459 27.2725V98.8223L380.43 105.032H355.589L358.56 98.8223V55.6221L343.439 94.5029L328.319 55.6221V98.8223L331.289 105.032H306.449L309.419 98.8223V27.2725L306.449 21.0625H331.289L343.439 52.3828ZM36.4502 88.2861L18.0898 104.486V26.7266H36.4502V88.2861ZM413.64 59.9404H436.859L425.25 21.5996L413.64 59.9404Z" fill="#111111"/>
</svg>
