<svg width="360" height="64" viewBox="0 0 360 64" fill="none" xmlns="http://www.w3.org/2000/svg">
<g clip-path="url(#clip0_1086_9614)">
<mask id="path-1-inside-1_1086_9614" fill="white">
<path d="M360 32L328 64H0V32L32 0H360V32Z"/>
</mask>
<path d="M360 32L328 64H0V32L32 0H360V32Z" fill="#FCFDFA"/>
<path d="M360 32L361.414 33.4142L362 32.8284V32H360ZM328 64V66H328.828L329.414 65.4142L328 64ZM0 64H-2V66H0V64ZM0 32L-1.41421 30.5858L-2 31.1716V32H0ZM32 0V-2H31.1716L30.5858 -1.41421L32 0ZM360 0H362V-2H360V0ZM360 32L358.586 30.5858L326.586 62.5858L328 64L329.414 65.4142L361.414 33.4142L360 32ZM328 64V62H0V64V66H328V64ZM0 64H2V32H0H-2V64H0ZM0 32L1.41421 33.4142L33.4142 1.41421L32 0L30.5858 -1.41421L-1.41421 30.5858L0 32ZM32 0V2H360V0V-2H32V0ZM360 0H358V32H360H362V0H360Z" fill="#0D575C" mask="url(#path-1-inside-1_1086_9614)"/>
<mask id="path-3-inside-2_1086_9614" fill="white">
<path d="M356 30L326 60H4V34L34 4H356V30Z"/>
</mask>
<path d="M356 30L326 60H4V34L34 4H356V30Z" fill="#0D575C"/>
<path d="M356 30L356.707 30.7071L357 30.4142V30H356ZM326 60V61H326.414L326.707 60.7071L326 60ZM4 60H3V61H4V60ZM4 34L3.29289 33.2929L3 33.5858V34H4ZM34 4V3H33.5858L33.2929 3.29289L34 4ZM356 4H357V3H356V4ZM356 30L355.293 29.2929L325.293 59.2929L326 60L326.707 60.7071L356.707 30.7071L356 30ZM326 60V59H4V60V61H326V60ZM4 60H5V34H4H3V60H4ZM4 34L4.70711 34.7071L34.7071 4.70711L34 4L33.2929 3.29289L3.29289 33.2929L4 34ZM34 4V5H356V4V3H34V4ZM356 4H355V30H356H357V4H356Z" fill="#0D575C" mask="url(#path-3-inside-2_1086_9614)"/>
</g>
<defs>
<clipPath id="clip0_1086_9614">
<rect width="360" height="64" fill="white"/>
</clipPath>
</defs>
</svg>
