<svg width="552" height="80" viewBox="0 0 552 80" fill="none" xmlns="http://www.w3.org/2000/svg">
<g clip-path="url(#clip0_982_3648)">
<mask id="path-1-inside-1_982_3648" fill="white">
<path d="M551.5 48L519.5 80H0.5V32L32.5 0H551.5V48Z"/>
</mask>
<path d="M551.5 48L519.5 80H0.5V32L32.5 0H551.5V48Z" fill="#0D575C"/>
<path d="M551.5 48L552.914 49.4142L553.5 48.8284V48H551.5ZM519.5 80V82H520.328L520.914 81.4142L519.5 80ZM0.5 80H-1.5V82H0.5V80ZM0.5 32L-0.914214 30.5858L-1.5 31.1716V32H0.5ZM32.5 0V-2H31.6716L31.0858 -1.41421L32.5 0ZM551.5 0H553.5V-2H551.5V0ZM551.5 48L550.086 46.5858L518.086 78.5858L519.5 80L520.914 81.4142L552.914 49.4142L551.5 48ZM519.5 80V78H0.5V80V82H519.5V80ZM0.5 80H2.5V32H0.5H-1.5V80H0.5ZM0.5 32L1.91421 33.4142L33.9142 1.41421L32.5 0L31.0858 -1.41421L-0.914214 30.5858L0.5 32ZM32.5 0V2H551.5V0V-2H32.5V0ZM551.5 0H549.5V48H551.5H553.5V0H551.5Z" fill="#E6ECEF" mask="url(#path-1-inside-1_982_3648)"/>
<mask id="path-3-inside-2_982_3648" fill="white">
<path d="M543.5 44L515.5 72H8.5V36L36.5 8H543.5V44Z"/>
</mask>
<path d="M543.5 44L515.5 72H8.5V36L36.5 8H543.5V44Z" fill="#0D575C"/>
<path d="M543.5 44L544.207 44.7071L544.5 44.4142V44H543.5ZM515.5 72V73H515.914L516.207 72.7071L515.5 72ZM8.5 72H7.5V73H8.5V72ZM8.5 36L7.79289 35.2929L7.5 35.5858V36H8.5ZM36.5 8V7H36.0858L35.7929 7.29289L36.5 8ZM543.5 8H544.5V7H543.5V8ZM543.5 44L542.793 43.2929L514.793 71.2929L515.5 72L516.207 72.7071L544.207 44.7071L543.5 44ZM515.5 72V71H8.5V72V73H515.5V72ZM8.5 72H9.5V36H8.5H7.5V72H8.5ZM8.5 36L9.20711 36.7071L37.2071 8.70711L36.5 8L35.7929 7.29289L7.79289 35.2929L8.5 36ZM36.5 8V9H543.5V8V7H36.5V8ZM543.5 8H542.5V44H543.5H544.5V8H543.5Z" fill="#E6ECEF" mask="url(#path-3-inside-2_982_3648)"/>
</g>
<defs>
<clipPath id="clip0_982_3648">
<rect width="551" height="80" fill="white" transform="translate(0.5)"/>
</clipPath>
</defs>
</svg>
