<svg width="264" height="72" viewBox="0 0 264 72" fill="none" xmlns="http://www.w3.org/2000/svg">
<g clip-path="url(#clip0_679_1363)">
<path d="M107.149 26.8594V28.9453H101.009C101.243 30.9375 103.833 32.8359 107.923 33.3281L106.938 35.3906C103.141 34.9336 100.341 33.2578 99.2039 30.9609C98.0672 33.2461 95.2898 34.9336 91.493 35.3906L90.532 33.3281C94.6219 32.8359 97.1766 30.9375 97.4227 28.9453H91.3289V26.8594H107.149ZM108.907 36.5625V38.6719H100.727V42.5391H98.1492V38.6719H89.5477V36.5625H108.907ZM106.774 44.5547V46.6641H91.8914V40.5938H94.493V44.5547H106.774ZM127.338 25.8984V47.1094H124.713V25.8984H127.338ZM113.44 27.6328V32.9297H118.573V27.6328H121.151V42.1172H110.838V27.6328H113.44ZM113.44 39.9844H118.573V34.9688H113.44V39.9844ZM141.349 26.8125C144.443 26.8125 146.646 28.5234 146.67 31.0781C146.646 33.1758 145.064 34.7578 142.709 35.2031V36.9141C144.466 36.8203 146.236 36.6562 147.888 36.4219L148.099 38.3203C143.693 39.1172 138.771 39.1875 135.185 39.1875L134.904 37.1016C136.427 37.1133 138.209 37.1016 140.084 37.0312V35.2031C137.658 34.8047 136.029 33.2109 136.052 31.0781C136.029 28.5234 138.232 26.8125 141.349 26.8125ZM141.349 28.8047C139.662 28.8047 138.466 29.6484 138.49 31.0781C138.466 32.4609 139.662 33.3281 141.349 33.3516C143.037 33.3281 144.185 32.4609 144.209 31.0781C144.185 29.6484 143.037 28.8047 141.349 28.8047ZM151.732 25.9219V32.7656H154.591V34.9219H151.732V42.0938H149.13V25.9219H151.732ZM152.482 44.5312V46.6406H137.81V40.6641H140.412V44.5312H152.482ZM174.452 42.4688V44.625H155.093V42.4688H160.226V38.9766H157.39V32.0625H169.577V29.4609H157.343V27.3516H172.155V34.1484H159.991V36.8672H172.648V38.9766H169.554V42.4688H174.452ZM162.757 42.4688H166.999V38.9766H162.757V42.4688Z" fill="#354750"/>
<mask id="path-2-inside-1_679_1363" fill="white">
<path d="M256 0L264 8V64L256 72H8L0 64V8L8 0H256Z"/>
</mask>
<path d="M256 0L257.414 -1.41421L256.828 -2H256V0ZM264 8H266V7.17157L265.414 6.58579L264 8ZM264 64L265.414 65.4142L266 64.8284V64H264ZM256 72V74H256.828L257.414 73.4142L256 72ZM8 72L6.58579 73.4142L7.17157 74H8V72ZM0 64H-2V64.8284L-1.41421 65.4142L0 64ZM0 8L-1.41421 6.58579L-2 7.17157V8H0ZM8 0V-2H7.17157L6.58579 -1.41421L8 0ZM256 0L254.586 1.41421L262.586 9.41421L264 8L265.414 6.58579L257.414 -1.41421L256 0ZM264 8H262V64H264H266V8H264ZM264 64L262.586 62.5858L254.586 70.5858L256 72L257.414 73.4142L265.414 65.4142L264 64ZM256 72V70H8V72V74H256V72ZM8 72L9.41421 70.5858L1.41421 62.5858L0 64L-1.41421 65.4142L6.58579 73.4142L8 72ZM0 64H2V8H0H-2V64H0ZM0 8L1.41421 9.41421L9.41421 1.41421L8 0L6.58579 -1.41421L-1.41421 6.58579L0 8ZM8 0V2H256V0V-2H8V0Z" fill="#354750" mask="url(#path-2-inside-1_679_1363)"/>
<mask id="path-4-inside-2_679_1363" fill="white">
<path d="M260 9.56934V61.5693L254.431 67.1387H9.56934L4 61.5693V9.56934L9.56934 4H254.431L260 9.56934Z"/>
</mask>
<path d="M260 9.56934H261V9.15512L260.707 8.86223L260 9.56934ZM260 61.5693L260.707 62.2764L261 61.9836V61.5693H260ZM254.431 67.1387V68.1387H254.845L255.138 67.8458L254.431 67.1387ZM9.56934 67.1387L8.86223 67.8458L9.15512 68.1387H9.56934V67.1387ZM4 61.5693H3V61.9836L3.29289 62.2764L4 61.5693ZM4 9.56934L3.29289 8.86223L3 9.15512V9.56934H4ZM9.56934 4V3H9.15512L8.86223 3.29289L9.56934 4ZM254.431 4L255.138 3.29289L254.845 3H254.431V4ZM260 9.56934H259V61.5693H260H261V9.56934H260ZM260 61.5693L259.293 60.8622L253.724 66.4316L254.431 67.1387L255.138 67.8458L260.707 62.2764L260 61.5693ZM254.431 67.1387V66.1387H9.56934V67.1387V68.1387H254.431V67.1387ZM9.56934 67.1387L10.2764 66.4316L4.70711 60.8622L4 61.5693L3.29289 62.2764L8.86223 67.8458L9.56934 67.1387ZM4 61.5693H5V9.56934H4H3V61.5693H4ZM4 9.56934L4.70711 10.2764L10.2764 4.70711L9.56934 4L8.86223 3.29289L3.29289 8.86223L4 9.56934ZM9.56934 4V5H254.431V4V3H9.56934V4ZM254.431 4L253.724 4.70711L259.293 10.2764L260 9.56934L260.707 8.86223L255.138 3.29289L254.431 4Z" fill="#354750" mask="url(#path-4-inside-2_679_1363)"/>
</g>
<defs>
<clipPath id="clip0_679_1363">
<rect width="264" height="72" fill="white"/>
</clipPath>
</defs>
</svg>
