<svg width="264" height="72" viewBox="0 0 264 72" fill="none" xmlns="http://www.w3.org/2000/svg">
<g clip-path="url(#clip0_933_10627)">
<mask id="path-1-inside-1_933_10627" fill="white">
<path d="M256 0L264 8V64L256 72H8L0 64V8L8 0H256Z"/>
</mask>
<path d="M256 0L257.414 -1.41421L256.828 -2H256V0ZM264 8H266V7.17157L265.414 6.58579L264 8ZM264 64L265.414 65.4142L266 64.8284V64H264ZM256 72V74H256.828L257.414 73.4142L256 72ZM8 72L6.58579 73.4142L7.17157 74H8V72ZM0 64H-2V64.8284L-1.41421 65.4142L0 64ZM0 8L-1.41421 6.58579L-2 7.17157V8H0ZM8 0V-2H7.17157L6.58579 -1.41421L8 0ZM256 0L254.586 1.41421L262.586 9.41421L264 8L265.414 6.58579L257.414 -1.41421L256 0ZM264 8H262V64H264H266V8H264ZM264 64L262.586 62.5858L254.586 70.5858L256 72L257.414 73.4142L265.414 65.4142L264 64ZM256 72V70H8V72V74H256V72ZM8 72L9.41421 70.5858L1.41421 62.5858L0 64L-1.41421 65.4142L6.58579 73.4142L8 72ZM0 64H2V8H0H-2V64H0ZM0 8L1.41421 9.41421L9.41421 1.41421L8 0L6.58579 -1.41421L-1.41421 6.58579L0 8ZM8 0V2H256V0V-2H8V0Z" fill="#0D575C" mask="url(#path-1-inside-1_933_10627)"/>
<mask id="path-3-inside-2_933_10627" fill="white">
<path d="M260 10V62L254.431 67.5693H9.56934L4 62V10L9.56934 4.43066H254.431L260 10Z"/>
</mask>
<path d="M260 10V62L254.431 67.5693H9.56934L4 62V10L9.56934 4.43066H254.431L260 10Z" fill="#0D575C"/>
<path d="M260 10H261V9.58579L260.707 9.29289L260 10ZM260 62L260.707 62.7071L261 62.4142V62H260ZM254.431 67.5693V68.5693H254.845L255.138 68.2764L254.431 67.5693ZM9.56934 67.5693L8.86223 68.2764L9.15512 68.5693H9.56934V67.5693ZM4 62H3V62.4142L3.29289 62.7071L4 62ZM4 10L3.29289 9.29289L3 9.58579V10H4ZM9.56934 4.43066V3.43066H9.15512L8.86223 3.72356L9.56934 4.43066ZM254.431 4.43066L255.138 3.72356L254.845 3.43066H254.431V4.43066ZM260 10H259V62H260H261V10H260ZM260 62L259.293 61.2929L253.724 66.8622L254.431 67.5693L255.138 68.2764L260.707 62.7071L260 62ZM254.431 67.5693V66.5693H9.56934V67.5693V68.5693H254.431V67.5693ZM9.56934 67.5693L10.2764 66.8622L4.70711 61.2929L4 62L3.29289 62.7071L8.86223 68.2764L9.56934 67.5693ZM4 62H5V10H4H3V62H4ZM4 10L4.70711 10.7071L10.2764 5.13777L9.56934 4.43066L8.86223 3.72356L3.29289 9.29289L4 10ZM9.56934 4.43066V5.43066H254.431V4.43066V3.43066H9.56934V4.43066ZM254.431 4.43066L253.724 5.13777L259.293 10.7071L260 10L260.707 9.29289L255.138 3.72356L254.431 4.43066Z" fill="#0D575C" mask="url(#path-3-inside-2_933_10627)"/>
<path d="M57.9516 25.8984V34.0312H61.2094V36.2109H57.9516V47.1094H55.3734V25.8984H57.9516ZM42.2016 29.8594V27.75H51.9516V35.7422H44.8266V39.9609C48.1898 39.9375 50.8031 39.7969 53.7562 39.2812L53.9906 41.3906C50.7211 41.9766 47.8383 42.1172 43.9828 42.1172H42.2484V33.6562H49.35V29.8594H42.2016ZM80.8359 36.375V38.4609H72.6562V42.3516H70.0078V38.4609H61.4766V36.375H80.8359ZM63.5391 30.7031C63.5273 28.043 66.5742 26.3672 71.1328 26.3672C75.7148 26.3672 78.7266 28.043 78.7266 30.7031C78.7266 33.375 75.7148 35.0273 71.1328 35.0156C66.5742 35.0273 63.5273 33.375 63.5391 30.7031ZM63.8437 46.6641V40.3828H66.4687V44.5312H78.7031V46.6641H63.8437ZM66.3516 30.7031C66.3281 32.1094 68.2266 32.9297 71.1328 32.9297C74.0625 32.9297 75.9492 32.1094 75.9375 30.7031C75.9492 29.25 74.0625 28.4297 71.1328 28.4297C68.2266 28.4297 66.3281 29.25 66.3516 30.7031ZM98.8453 35.8359V37.9219H83.9859V27.75H98.6812V29.8594H86.5641V35.8359H98.8453ZM81.6422 44.3906V42.2344H101.002V44.3906H81.6422ZM114.591 29.6484C114.579 32.4609 116.266 35.2031 119.559 36.3281L118.13 38.3672C115.845 37.5117 114.216 35.8594 113.313 33.7734C112.411 36.1055 110.677 37.9336 108.192 38.8594L106.809 36.7969C110.22 35.6484 111.954 32.7188 111.966 29.625V27.2109H114.591V29.6484ZM110.653 46.6641V39.9375H113.302V44.5547H125.091V46.6641H110.653ZM117.802 32.7188V30.5859H122.02V25.9219H124.622V41.6484H122.02V32.7188H117.802ZM136.139 27.375V29.4609H130.327V31.5234H135.928V33.5156H130.327V35.7422C132.905 35.7188 134.709 35.6133 136.772 35.2266L137.053 37.3359C134.557 37.8047 132.518 37.8867 129.225 37.875H127.819V27.375H136.139ZM130.631 41.8594V39.75H145.139V47.0859H142.537V41.8594H130.631ZM138.014 38.6484V26.3203H140.452V31.2188H142.655V25.9219H145.139V38.8125H142.655V33.3047H140.452V38.6484H138.014ZM156.797 27.0938C161.262 27.0938 164.707 29.4727 164.695 33.0703C164.707 36.7148 161.262 39.0938 156.797 39.0938C152.355 39.0938 148.934 36.7148 148.945 33.0703C148.934 29.4727 152.355 27.0938 156.797 27.0938ZM147.164 44.4141V42.2812H166.523V44.4141H147.164ZM151.453 33.0703C151.441 35.4727 153.715 36.9492 156.797 36.9609C159.891 36.9492 162.141 35.4727 162.141 33.0703C162.141 30.7266 159.891 29.1797 156.797 29.2031C153.715 29.1797 151.441 30.7266 151.453 33.0703ZM186.666 42.4688V44.625H167.306V42.4688H175.65V39.0234H169.603V32.0859H181.791V29.4609H169.556V27.3516H184.369V34.1484H172.205V36.8906H184.861V39.0234H178.228V42.4688H186.666Z" fill="#E6ECEF"/>
<path d="M202.422 28.8594V43H199.863V31.3398H199.785L196.484 33.4492V31.125L199.98 28.8594H202.422ZM211.141 28.1953L206.59 45.1289H204.402L208.973 28.1953H211.141ZM217.164 43.1953C214.146 43.1953 211.988 41.5547 211.93 39.1719H214.488C214.557 40.3047 215.689 41.0566 217.164 41.0469C218.717 41.0566 219.84 40.1973 219.84 38.9375C219.84 37.668 218.746 36.7598 216.91 36.75H215.641V34.7969H216.91C218.414 34.7969 219.459 33.957 219.449 32.7266C219.459 31.5352 218.561 30.7344 217.184 30.7344C215.855 30.7344 214.713 31.4766 214.664 32.668H212.223C212.281 30.2949 214.439 28.6641 217.203 28.6641C220.074 28.6641 221.93 30.4219 221.91 32.5898C221.93 34.1719 220.875 35.3145 219.332 35.6367V35.7539C221.324 36.0176 222.457 37.2969 222.438 39.0742C222.457 41.4668 220.221 43.1953 217.164 43.1953Z" fill="#98A3AA"/>
</g>
<defs>
<clipPath id="clip0_933_10627">
<rect width="264" height="72" fill="white"/>
</clipPath>
</defs>
</svg>
