<svg width="264" height="72" viewBox="0 0 264 72" fill="none" xmlns="http://www.w3.org/2000/svg">
<g clip-path="url(#clip0_767_3846)">
<mask id="path-1-inside-1_767_3846" fill="white">
<path d="M256 0L264 8V64L256 72H8L0 64V8L8 0H256Z"/>
</mask>
<path d="M256 0L257.414 -1.41421L256.828 -2H256V0ZM264 8H266V7.17157L265.414 6.58579L264 8ZM264 64L265.414 65.4142L266 64.8284V64H264ZM256 72V74H256.828L257.414 73.4142L256 72ZM8 72L6.58579 73.4142L7.17157 74H8V72ZM0 64H-2V64.8284L-1.41421 65.4142L0 64ZM0 8L-1.41421 6.58579L-2 7.17157V8H0ZM8 0V-2H7.17157L6.58579 -1.41421L8 0ZM256 0L254.586 1.41421L262.586 9.41421L264 8L265.414 6.58579L257.414 -1.41421L256 0ZM264 8H262V64H264H266V8H264ZM264 64L262.586 62.5858L254.586 70.5858L256 72L257.414 73.4142L265.414 65.4142L264 64ZM256 72V70H8V72V74H256V72ZM8 72L9.41421 70.5858L1.41421 62.5858L0 64L-1.41421 65.4142L6.58579 73.4142L8 72ZM0 64H2V8H0H-2V64H0ZM0 8L1.41421 9.41421L9.41421 1.41421L8 0L6.58579 -1.41421L-1.41421 6.58579L0 8ZM8 0V2H256V0V-2H8V0Z" fill="#0D575C" mask="url(#path-1-inside-1_767_3846)"/>
<mask id="path-3-inside-2_767_3846" fill="white">
<path d="M260 10V62L254.432 67.5684H9.56836L4 62V10L9.57031 4.42969H254.43L260 10Z"/>
</mask>
<path d="M260 10V62L254.432 67.5684H9.56836L4 62V10L9.57031 4.42969H254.43L260 10Z" fill="#0D575C"/>
<path d="M260 10H261V9.58579L260.707 9.29289L260 10ZM260 62L260.707 62.7071L261 62.4142V62H260ZM254.432 67.5684V68.5684H254.846L255.139 68.2755L254.432 67.5684ZM9.56836 67.5684L8.86125 68.2755L9.15415 68.5684H9.56836V67.5684ZM4 62H3V62.4142L3.29289 62.7071L4 62ZM4 10L3.29289 9.29289L3 9.58579V10H4ZM9.57031 4.42969V3.42969H9.1561L8.86321 3.72258L9.57031 4.42969ZM254.43 4.42969L255.137 3.72258L254.844 3.42969H254.43V4.42969ZM260 10H259V62H260H261V10H260ZM260 62L259.293 61.2929L253.725 66.8613L254.432 67.5684L255.139 68.2755L260.707 62.7071L260 62ZM254.432 67.5684V66.5684H9.56836V67.5684V68.5684H254.432V67.5684ZM9.56836 67.5684L10.2755 66.8613L4.70711 61.2929L4 62L3.29289 62.7071L8.86125 68.2755L9.56836 67.5684ZM4 62H5V10H4H3V62H4ZM4 10L4.70711 10.7071L10.2774 5.13679L9.57031 4.42969L8.86321 3.72258L3.29289 9.29289L4 10ZM9.57031 4.42969V5.42969H254.43V4.42969V3.42969H9.57031V4.42969ZM254.43 4.42969L253.723 5.13679L259.293 10.7071L260 10L260.707 9.29289L255.137 3.72258L254.43 4.42969Z" fill="#0D575C" mask="url(#path-3-inside-2_767_3846)"/>
</g>
<defs>
<clipPath id="clip0_767_3846">
<rect width="264" height="72" fill="white"/>
</clipPath>
</defs>
</svg>
