<svg width="18" height="21" viewBox="0 0 18 21" fill="none" xmlns="http://www.w3.org/2000/svg">
<path d="M9 0C10.5913 0 12.117 0.632594 13.2422 1.75781C14.3674 2.88303 15 4.4087 15 6V9H17.5V21H0.5V9H3V6C3 4.4087 3.63259 2.88303 4.75781 1.75781C5.88303 0.632594 7.4087 0 9 0ZM8.41406 15L6.91406 13.5L5.5 14.9141L8.41406 17.8281L12.8281 13.4141L11.4141 12L8.41406 15ZM9 2C7.93913 2 6.92202 2.42173 6.17188 3.17188C5.42173 3.92202 5 4.93913 5 6V9H13V6C13 4.93913 12.5783 3.92202 11.8281 3.17188C11.078 2.42173 10.0609 2 9 2Z" fill="#354750"/>
</svg>
