<svg width="80" height="80" viewBox="0 0 80 80" fill="none" xmlns="http://www.w3.org/2000/svg">
<path d="M53.3301 36.665C58.8634 36.665 63.2967 32.1984 63.2967 26.665C63.2967 21.1317 58.8634 16.665 53.3301 16.665C47.7967 16.665 43.3301 21.1317 43.3301 26.665C43.3301 32.1984 47.7967 36.665 53.3301 36.665ZM26.6634 36.665C32.1967 36.665 36.6301 32.1984 36.6301 26.665C36.6301 21.1317 32.1967 16.665 26.6634 16.665C21.1301 16.665 16.6634 21.1317 16.6634 26.665C16.6634 32.1984 21.1301 36.665 26.6634 36.665ZM26.6634 43.3317C18.8967 43.3317 3.33008 47.2317 3.33008 54.9984V63.3317H49.9967V54.9984C49.9967 47.2317 34.4301 43.3317 26.6634 43.3317ZM53.3301 43.3317C52.3634 43.3317 51.2634 43.3984 50.0967 43.4984C53.9634 46.2984 56.6634 50.065 56.6634 54.9984V63.3317H76.6634V54.9984C76.6634 47.2317 61.0967 43.3317 53.3301 43.3317Z" fill="#0D575C"/>
</svg>
