<svg width="100" height="40" viewBox="0 0 100 40" fill="none" xmlns="http://www.w3.org/2000/svg">
<path d="M31.0455 12.7969V28.459H29.6568V12.7969H31.0455ZM19.0748 24.6797V14.1328H20.4459V18.2637H25.1041V14.1328H26.4576V24.6797H19.0748ZM20.4459 23.5195H25.1041V19.3711H20.4459V23.5195ZM40.3338 22.6758C43.6824 22.6758 45.8094 23.7305 45.8182 25.541C45.8094 27.334 43.6824 28.3887 40.3338 28.3887C36.9852 28.3887 34.8582 27.334 34.867 25.541C34.8582 23.7305 36.9852 22.6758 40.3338 22.6758ZM33.285 21.2168V20.0918H39.1736V17.0684H40.5272V20.0918H47.5057V21.2168H33.285ZM34.9725 14.7305V13.6055H45.6951V14.9238C45.6863 16.1895 45.6863 17.4551 45.2557 19.0723L43.9022 18.9141C44.324 17.3057 44.324 16.1455 44.324 14.9238V14.7305H34.9725ZM36.2381 25.541C36.2293 26.6309 37.8465 27.2988 40.3338 27.2988C42.8299 27.2988 44.4295 26.6309 44.4471 25.541C44.4295 24.4248 42.8299 23.7393 40.3338 23.7305C37.8465 23.7393 36.2293 24.4248 36.2381 25.541ZM61.7158 12.7969V28.4238H60.3623V20.25H58.2002V27.6504H56.8818V13.2188H58.2002V19.1074H60.3623V12.7969H61.7158ZM48.3916 24.0996C52.0215 22.0693 53.5156 19.2129 53.7529 15.9785H48.9893V14.8359H55.1064C55.0889 18.8086 53.6914 22.5615 49.2002 25.0664L48.3916 24.0996ZM74.7553 22.623C77.9633 22.623 79.9057 23.6777 79.9057 25.5059C79.9057 27.3516 77.9633 28.4062 74.7553 28.4238C71.5385 28.4062 69.5785 27.3516 69.5697 25.5059C69.5785 23.6777 71.5385 22.623 74.7553 22.623ZM68.2162 20.9883V13.7812H69.5697V16.1719H74.1225V13.7812H75.4936V20.9883H68.2162ZM69.5697 19.8633H74.1225V17.2617H69.5697V19.8633ZM70.9584 25.5059C70.9408 26.6309 72.3998 27.2988 74.7553 27.2988C77.1195 27.2988 78.5609 26.6309 78.5697 25.5059C78.5609 24.3896 77.1195 23.7305 74.7553 23.7129C72.3998 23.7305 70.9408 24.3896 70.9584 25.5059ZM78.3939 22.2012V12.7969H79.765V16.7344H82.1205V17.9121H79.765V22.2012H78.3939Z" fill="#0D575C"/>
</svg>
