<svg width="100" height="40" viewBox="0 0 100 40" fill="none" xmlns="http://www.w3.org/2000/svg">
<path d="M32.7805 22.6758C36.1291 22.6758 38.2561 23.7305 38.2648 25.541C38.2561 27.334 36.1291 28.3887 32.7805 28.3887C29.4318 28.3887 27.3049 27.334 27.3137 25.541C27.3049 23.7305 29.4318 22.6758 32.7805 22.6758ZM25.7316 21.2168V20.0918H31.6203V17.0684H32.9738V20.0918H39.9523V21.2168H25.7316ZM27.4191 14.7305V13.6055H38.1418V14.9238C38.133 16.1895 38.133 17.4551 37.7023 19.0723L36.3488 18.9141C36.7707 17.3057 36.7707 16.1455 36.7707 14.9238V14.7305H27.4191ZM28.6848 25.541C28.676 26.6309 30.2932 27.2988 32.7805 27.2988C35.2766 27.2988 36.8762 26.6309 36.8937 25.541C36.8762 24.4248 35.2766 23.7393 32.7805 23.7305C30.2932 23.7393 28.676 24.4248 28.6848 25.541ZM54.1625 12.7969V28.4238H52.809V20.25H50.6469V27.6504H49.3285V13.2188H50.6469V19.1074H52.809V12.7969H54.1625ZM40.8383 24.0996C44.4682 22.0693 45.9623 19.2129 46.1996 15.9785H41.4359V14.8359H47.5531C47.5355 18.8086 46.1381 22.5615 41.6469 25.0664L40.8383 24.0996ZM67.202 22.623C70.41 22.623 72.3523 23.6777 72.3523 25.5059C72.3523 27.3516 70.41 28.4062 67.202 28.4238C63.9852 28.4062 62.0252 27.3516 62.0164 25.5059C62.0252 23.6777 63.9852 22.623 67.202 22.623ZM60.6629 20.9883V13.7812H62.0164V16.1719H66.5691V13.7812H67.9402V20.9883H60.6629ZM62.0164 19.8633H66.5691V17.2617H62.0164V19.8633ZM63.4051 25.5059C63.3875 26.6309 64.8465 27.2988 67.202 27.2988C69.5662 27.2988 71.0076 26.6309 71.0164 25.5059C71.0076 24.3896 69.5662 23.7305 67.202 23.7129C64.8465 23.7305 63.3875 24.3896 63.4051 25.5059ZM70.8406 22.2012V12.7969H72.2117V16.7344H74.5672V17.9121H72.2117V22.2012H70.8406Z" fill="#0D575C"/>
</svg>
