<svg width="106" height="40" viewBox="0 0 106 40" fill="none" xmlns="http://www.w3.org/2000/svg">
<path d="M20 40L4.95911e-05 40L12 -6.99383e-07L20 0L20 40Z" fill="#0D575C"/>
<rect x="106" y="40" width="90" height="40" transform="rotate(-180 106 40)" fill="#0D575C"/>
<path d="M38.7805 22.6758C42.1291 22.6758 44.2561 23.7305 44.2648 25.541C44.2561 27.334 42.1291 28.3887 38.7805 28.3887C35.4318 28.3887 33.3049 27.334 33.3137 25.541C33.3049 23.7305 35.4318 22.6758 38.7805 22.6758ZM31.7316 21.2168V20.0918H37.6203V17.0684H38.9738V20.0918H45.9523V21.2168H31.7316ZM33.4191 14.7305V13.6055H44.1418V14.9238C44.133 16.1895 44.133 17.4551 43.7023 19.0723L42.3488 18.9141C42.7707 17.3057 42.7707 16.1455 42.7707 14.9238V14.7305H33.4191ZM34.6848 25.541C34.676 26.6309 36.2932 27.2988 38.7805 27.2988C41.2766 27.2988 42.8762 26.6309 42.8937 25.541C42.8762 24.4248 41.2766 23.7393 38.7805 23.7305C36.2932 23.7393 34.676 24.4248 34.6848 25.541ZM60.1625 12.7969V28.4238H58.809V20.25H56.6469V27.6504H55.3285V13.2188H56.6469V19.1074H58.809V12.7969H60.1625ZM46.8383 24.0996C50.4682 22.0693 51.9623 19.2129 52.1996 15.9785H47.4359V14.8359H53.5531C53.5355 18.8086 52.1381 22.5615 47.6469 25.0664L46.8383 24.0996ZM73.202 22.623C76.41 22.623 78.3523 23.6777 78.3523 25.5059C78.3523 27.3516 76.41 28.4062 73.202 28.4238C69.9852 28.4062 68.0252 27.3516 68.0164 25.5059C68.0252 23.6777 69.9852 22.623 73.202 22.623ZM66.6629 20.9883V13.7812H68.0164V16.1719H72.5691V13.7812H73.9402V20.9883H66.6629ZM68.0164 19.8633H72.5691V17.2617H68.0164V19.8633ZM69.4051 25.5059C69.3875 26.6309 70.8465 27.2988 73.202 27.2988C75.5662 27.2988 77.0076 26.6309 77.0164 25.5059C77.0076 24.3896 75.5662 23.7305 73.202 23.7129C70.8465 23.7305 69.3875 24.3896 69.4051 25.5059ZM76.8406 22.2012V12.7969H78.2117V16.7344H80.5672V17.9121H78.2117V22.2012H76.8406Z" fill="#E6ECEF"/>
</svg>
