<svg width="56" height="56" viewBox="0 0 56 56" fill="none" xmlns="http://www.w3.org/2000/svg">
<rect width="56" height="56" fill="#0D575C"/>
<path d="M30.333 45.0381H24.0332V38.7373H30.333V45.0381ZM29.6328 44.3369V44.3379V44.3369ZM28.0283 10.9717C32.6443 11.1615 36.0265 13.6 37.5371 16.9326C39.0454 20.2606 38.6493 24.3965 35.9004 27.8975L35.8945 27.9043L35.8887 27.9121C35.1509 28.8009 34.1986 29.5257 33.3574 30.1631C32.4815 30.8268 31.7494 31.3819 31.2783 31.9814L31.2725 31.9883C30.3575 33.1219 30.333 34.4951 30.333 36.1709V36.8711H24.0332V36.1709C24.0332 34.8186 24.0329 33.5151 24.1758 32.3438C24.3194 31.1672 24.6138 30.061 25.2461 29.1172C25.8635 28.1836 26.7744 27.4728 27.6406 26.8828C28.5512 26.2626 29.3413 25.8143 29.9932 25.2998C31.8233 23.596 32.4132 21.6398 32.0596 20.1504C31.7172 18.7096 30.4326 17.4718 27.9736 17.2705C26.8692 17.2774 25.8117 17.7195 25.0303 18.501C24.2426 19.2886 23.7998 20.3568 23.7998 21.4707V22.1709H17.5V21.4707C17.5 18.6859 18.6061 16.015 20.5752 14.0459C22.5443 12.0768 25.2152 10.9707 28 10.9707H28.0146L28.0283 10.9717ZM24.7871 33.3574C24.7843 33.4028 24.7818 33.4484 24.7793 33.4941C24.7818 33.4484 24.7843 33.4028 24.7871 33.3574ZM24.8223 32.8809C24.8145 32.9683 24.8082 33.0566 24.8018 33.1455C24.8082 33.0566 24.8145 32.9683 24.8223 32.8809ZM24.8662 32.4658C24.8539 32.5688 24.8431 32.673 24.833 32.7783C24.8431 32.673 24.8539 32.5688 24.8662 32.4658ZM24.9199 32.0693C24.9071 32.1525 24.8959 32.2365 24.8848 32.3213C24.8959 32.2365 24.9071 32.1525 24.9199 32.0693ZM24.9902 31.6699C24.9766 31.7393 24.9644 31.8093 24.9521 31.8799C24.9644 31.8093 24.9766 31.7393 24.9902 31.6699ZM25.0732 31.2939C25.0585 31.3539 25.0457 31.4146 25.0322 31.4756C25.0457 31.4146 25.0585 31.3539 25.0732 31.2939ZM25.1768 30.916C25.1587 30.9753 25.1426 31.0354 25.126 31.0957C25.1426 31.0354 25.1587 30.9753 25.1768 30.916ZM25.2969 30.5615C25.2717 30.6294 25.2476 30.6981 25.2246 30.7676C25.2476 30.6981 25.2717 30.6294 25.2969 30.5615ZM25.4336 30.2266C25.4087 30.2823 25.3845 30.3386 25.3613 30.3955C25.3845 30.3386 25.4087 30.2823 25.4336 30.2266ZM32.7295 29.7598C32.9858 29.5654 33.2464 29.3678 33.5059 29.166C33.2464 29.3679 32.9857 29.5653 32.7295 29.7598ZM25.5908 29.9043C25.5628 29.9566 25.5369 30.01 25.5107 30.0635C25.5369 30.01 25.5628 29.9566 25.5908 29.9043ZM25.8271 29.5068L25.7285 29.6611C25.7127 29.6869 25.6989 29.7142 25.6836 29.7402C25.7299 29.6613 25.7772 29.5829 25.8281 29.5068C25.8955 29.4048 25.9665 29.305 26.042 29.208C25.9664 29.3051 25.8946 29.4047 25.8271 29.5068ZM34.0215 28.7529C34.0685 28.714 34.1155 28.6752 34.1621 28.6357C34.1156 28.6752 34.0685 28.714 34.0215 28.7529ZM34.2715 28.542C34.3312 28.4904 34.3905 28.4383 34.4492 28.3857C34.3905 28.4384 34.3312 28.4904 34.2715 28.542ZM34.5879 28.2588C34.6412 28.2094 34.694 28.1597 34.7461 28.1094C34.694 28.1597 34.6412 28.2094 34.5879 28.2588ZM34.873 27.9834C34.923 27.9332 34.9719 27.8823 35.0205 27.8311C34.9719 27.8823 34.923 27.9332 34.873 27.9834ZM35.1377 27.7051C35.1648 27.6752 35.1941 27.6474 35.2207 27.6172L35.3496 27.4648C35.2816 27.5468 35.2097 27.6258 35.1377 27.7051ZM18.3047 20.04C18.2922 20.1247 18.2837 20.2099 18.2734 20.2949C18.2837 20.2099 18.2922 20.1247 18.3047 20.04ZM18.3818 19.5947C18.3801 19.6035 18.3786 19.6123 18.377 19.6211C18.3786 19.6123 18.3801 19.6035 18.3818 19.5947ZM18.4863 19.1201C18.4708 19.183 18.4577 19.2464 18.4434 19.3096C18.4577 19.2464 18.4708 19.183 18.4863 19.1201ZM18.6152 18.6523C18.5925 18.7281 18.5717 18.8045 18.5508 18.8809C18.5717 18.8045 18.5925 18.7281 18.6152 18.6523ZM18.751 18.2314C18.7303 18.2905 18.7129 18.3507 18.6934 18.4102C18.7129 18.3507 18.7303 18.2905 18.751 18.2314ZM18.9326 17.7549C18.8986 17.8379 18.8677 17.922 18.8359 18.0059C18.8677 17.922 18.8986 17.8379 18.9326 17.7549ZM19.1133 17.3418C19.0732 17.428 19.0356 17.5152 18.998 17.6025C19.0356 17.5152 19.0732 17.428 19.1133 17.3418ZM19.3242 16.915C19.2841 16.9915 19.2461 17.069 19.208 17.1465C19.2461 17.069 19.2841 16.9915 19.3242 16.915ZM19.5488 16.5107C19.5055 16.5846 19.4642 16.6595 19.4229 16.7344C19.4642 16.6595 19.5055 16.5846 19.5488 16.5107ZM19.7998 16.1074C19.7565 16.1736 19.7145 16.2405 19.6729 16.3076C19.7145 16.2405 19.7565 16.1736 19.7998 16.1074ZM20.0752 15.708C20.0231 15.7797 19.9719 15.8519 19.9219 15.9248C19.9719 15.8519 20.0231 15.7797 20.0752 15.708ZM20.3496 15.3477C20.2978 15.4124 20.2473 15.478 20.1973 15.5439C20.2473 15.478 20.2978 15.4124 20.3496 15.3477ZM20.6592 14.9805C20.6087 15.0376 20.5588 15.0951 20.5098 15.1533C20.5588 15.0951 20.6087 15.0376 20.6592 14.9805ZM20.9004 14.7158C20.8726 14.745 20.8458 14.7752 20.8184 14.8047C20.9009 14.7157 20.9842 14.6271 21.0703 14.541L20.9004 14.7158ZM18.2109 21L18.2002 21.4707C18.2002 21.3091 18.203 21.1479 18.2109 20.9873C18.2107 20.9915 18.2111 20.9958 18.2109 21ZM18.2109 20.9873C18.2171 20.8619 18.2273 20.737 18.2383 20.6123C18.2273 20.737 18.2171 20.8619 18.2109 20.9873Z" fill="#ECF1F2"/>
</svg>
