<svg width="264" height="72" viewBox="0 0 264 72" fill="none" xmlns="http://www.w3.org/2000/svg">
<g clip-path="url(#clip0_172_1792)">
<mask id="path-1-inside-1_172_1792" fill="white">
<path d="M256 0L264 8V64L256 72H8L0 64V8L8 0H256Z"/>
</mask>
<path d="M256 0L257.414 -1.41421L256.828 -2H256V0ZM264 8H266V7.17157L265.414 6.58579L264 8ZM264 64L265.414 65.4142L266 64.8284V64H264ZM256 72V74H256.828L257.414 73.4142L256 72ZM8 72L6.58579 73.4142L7.17157 74H8V72ZM0 64H-2V64.8284L-1.41421 65.4142L0 64ZM0 8L-1.41421 6.58579L-2 7.17157V8H0ZM8 0V-2H7.17157L6.58579 -1.41421L8 0ZM256 0L254.586 1.41421L262.586 9.41421L264 8L265.414 6.58579L257.414 -1.41421L256 0ZM264 8H262V64H264H266V8H264ZM264 64L262.586 62.5858L254.586 70.5858L256 72L257.414 73.4142L265.414 65.4142L264 64ZM256 72V70H8V72V74H256V72ZM8 72L9.41421 70.5858L1.41421 62.5858L0 64L-1.41421 65.4142L6.58579 73.4142L8 72ZM0 64H2V8H0H-2V64H0ZM0 8L1.41421 9.41421L9.41421 1.41421L8 0L6.58579 -1.41421L-1.41421 6.58579L0 8ZM8 0V2H256V0V-2H8V0Z" fill="#354750" mask="url(#path-1-inside-1_172_1792)"/>
<mask id="path-3-inside-2_172_1792" fill="white">
<path d="M260 10V62L254.431 67.5693H9.56934L4 62V10L9.56934 4.43066H254.431L260 10Z"/>
</mask>
<path d="M260 10V62L254.431 67.5693H9.56934L4 62V10L9.56934 4.43066H254.431L260 10Z" fill="#354750"/>
<path d="M260 10H261V9.58579L260.707 9.29289L260 10ZM260 62L260.707 62.7071L261 62.4142V62H260ZM254.431 67.5693V68.5693H254.845L255.138 68.2764L254.431 67.5693ZM9.56934 67.5693L8.86223 68.2764L9.15512 68.5693H9.56934V67.5693ZM4 62H3V62.4142L3.29289 62.7071L4 62ZM4 10L3.29289 9.29289L3 9.58579V10H4ZM9.56934 4.43066V3.43066H9.15512L8.86223 3.72356L9.56934 4.43066ZM254.431 4.43066L255.138 3.72356L254.845 3.43066H254.431V4.43066ZM260 10H259V62H260H261V10H260ZM260 62L259.293 61.2929L253.724 66.8622L254.431 67.5693L255.138 68.2764L260.707 62.7071L260 62ZM254.431 67.5693V66.5693H9.56934V67.5693V68.5693H254.431V67.5693ZM9.56934 67.5693L10.2764 66.8622L4.70711 61.2929L4 62L3.29289 62.7071L8.86223 68.2764L9.56934 67.5693ZM4 62H5V10H4H3V62H4ZM4 10L4.70711 10.7071L10.2764 5.13777L9.56934 4.43066L8.86223 3.72356L3.29289 9.29289L4 10ZM9.56934 4.43066V5.43066H254.431V4.43066V3.43066H9.56934V4.43066ZM254.431 4.43066L253.724 5.13777L259.293 10.7071L260 10L260.707 9.29289L255.138 3.72356L254.431 4.43066Z" fill="#354750" mask="url(#path-3-inside-2_172_1792)"/>
<path d="M96.4945 33.75C96.1312 31.7109 94.5023 30.5391 92.4398 30.5391C89.6625 30.5391 87.6937 32.6719 87.7055 36.5156C87.6937 40.418 89.6742 42.4922 92.4398 42.4922C94.4555 42.4922 96.0844 41.3672 96.4945 39.375H99.5648C99.0961 42.6328 96.4125 45.2344 92.393 45.2344C87.9164 45.2344 84.6234 41.9883 84.6352 36.5156C84.6234 31.0312 87.9516 27.7969 92.393 27.7969C96.143 27.7969 99.0375 29.9766 99.5648 33.75H96.4945ZM107.004 45.2578C103.289 45.2578 100.91 42.6211 100.91 38.6953C100.91 34.7344 103.289 32.1094 107.004 32.1094C110.73 32.1094 113.109 34.7344 113.098 38.6953C113.109 42.6211 110.73 45.2578 107.004 45.2578ZM103.934 38.6719C103.934 41.0039 104.953 42.8672 107.027 42.8672C109.066 42.8672 110.086 41.0039 110.074 38.6719C110.086 36.3398 109.066 34.4648 107.027 34.4766C104.953 34.4648 103.934 36.3398 103.934 38.6719ZM117.818 37.5469V45H114.818V32.2734H117.677V34.4297H117.841C118.416 33.0117 119.716 32.1094 121.615 32.1094C124.252 32.1094 125.986 33.8438 125.974 36.8906V45H122.998V37.3594C122.998 35.6484 122.072 34.6289 120.513 34.6406C118.931 34.6289 117.818 35.6953 117.818 37.5469ZM134.585 32.2734V34.5703H132.077V41.1797C132.077 42.3984 132.687 42.6445 133.437 42.6562C133.788 42.668 134.374 42.6328 134.749 42.6094V45.0469C134.398 45.1055 133.823 45.1758 133.062 45.1641C130.812 45.1758 129.077 44.0625 129.101 41.6719V34.5703H127.273V32.2734H129.101V29.2266H132.077V32.2734H134.585ZM136.282 45V32.2734H139.282V45H136.282ZM136.071 28.8281C136.071 27.9375 136.856 27.2109 137.805 27.2109C138.755 27.2109 139.54 27.9375 139.54 28.8281C139.54 29.7305 138.755 30.457 137.805 30.4688C136.856 30.457 136.071 29.7305 136.071 28.8281ZM144.541 37.5469V45H141.541V32.2734H144.401V34.4297H144.565C145.139 33.0117 146.44 32.1094 148.338 32.1094C150.975 32.1094 152.709 33.8438 152.698 36.8906V45H149.721V37.3594C149.721 35.6484 148.795 34.6289 147.237 34.6406C145.655 34.6289 144.541 35.6953 144.541 37.5469ZM163.09 39.6562V32.2734H166.066V45H163.184V42.75H163.043C162.457 44.168 161.121 45.1641 159.223 45.1641C156.703 45.1641 154.969 43.4297 154.957 40.3828V32.2734H157.957V39.9141C157.957 41.5312 158.918 42.5625 160.371 42.5625C161.684 42.5625 163.09 41.6016 163.09 39.6562ZM173.974 45.2578C170.142 45.2578 167.787 42.7031 167.787 38.7188C167.787 34.7812 170.177 32.1094 173.81 32.1094C176.927 32.1094 179.623 34.0664 179.623 38.5312V39.4688H170.74C170.787 41.6367 172.064 42.9258 173.998 42.9141C175.31 42.9258 176.189 42.3633 176.576 41.6016H179.505C178.966 43.8047 176.927 45.2578 173.974 45.2578ZM170.752 37.4297H176.763C176.752 35.6953 175.58 34.4297 173.857 34.4297C172.064 34.4297 170.857 35.8125 170.752 37.4297Z" fill="#E6ECEF"/>
</g>
<defs>
<clipPath id="clip0_172_1792">
<rect width="264" height="72" fill="white"/>
</clipPath>
</defs>
</svg>
