<svg width="264" height="72" viewBox="0 0 264 72" fill="none" xmlns="http://www.w3.org/2000/svg">
<g clip-path="url(#clip0_172_1808)">
<path d="M107.149 26.8594V28.9453H101.009C101.243 30.9492 103.833 32.8477 107.923 33.3281L106.938 35.3906C103.141 34.9336 100.341 33.2578 99.2039 30.9727C98.0672 33.2461 95.2898 34.9336 91.493 35.3906L90.532 33.3281C94.6219 32.8477 97.1766 30.9375 97.4227 28.9453H91.3289V26.8594H107.149ZM89.5477 38.6719V36.5625H108.907V38.6719H100.727V42.5391H98.1492V38.6719H89.5477ZM91.8914 46.6641V40.5938H94.493V44.5547H106.774V46.6641H91.8914ZM127.338 25.8984V47.1094H124.713V25.8984H127.338ZM110.838 42.1172V27.6328H113.44V32.9297H118.573V27.6328H121.151V42.1172H110.838ZM113.44 39.9844H118.573V34.9688H113.44V39.9844ZM147.677 28.125V30.1641H143.295C143.341 32.0039 145.017 33.6328 148.146 34.2422L147.115 36.2578C144.689 35.7539 142.978 34.6172 142.041 33.0938C141.115 34.7578 139.357 36.0117 136.873 36.5391L135.771 34.5234C138.947 33.8906 140.634 32.1094 140.67 30.1641H136.31V28.125H140.693V25.9453H143.295V28.125H147.677ZM134.974 37.6406C138.923 37.6523 144.185 37.6172 148.709 37.0547L148.896 38.9297C147.068 39.2461 145.17 39.4453 143.318 39.5742V46.4297H140.693V39.7148C138.759 39.7852 136.92 39.7969 135.302 39.7969L134.974 37.6406ZM150.091 47.0625V25.9219H152.67V47.0625H150.091ZM174.452 42.3516V44.4609H155.093V42.3516H163.39V37.4531H165.968V42.3516H174.452ZM155.655 35.8125C160.085 35.0977 163.261 31.9219 163.273 28.7344V27.1875H166.038V28.7344C166.038 31.9336 169.238 35.0977 173.702 35.8125L172.577 37.9688C169.003 37.2891 166.062 35.2383 164.655 32.4609C163.261 35.2266 160.355 37.3008 156.78 37.9688L155.655 35.8125Z" fill="#354750"/>
<mask id="path-2-inside-1_172_1808" fill="white">
<path d="M256 0L264 8V64L256 72H8L0 64V8L8 0H256Z"/>
</mask>
<path d="M256 0L257.414 -1.41421L256.828 -2H256V0ZM264 8H266V7.17157L265.414 6.58579L264 8ZM264 64L265.414 65.4142L266 64.8284V64H264ZM256 72V74H256.828L257.414 73.4142L256 72ZM8 72L6.58579 73.4142L7.17157 74H8V72ZM0 64H-2V64.8284L-1.41421 65.4142L0 64ZM0 8L-1.41421 6.58579L-2 7.17157V8H0ZM8 0V-2H7.17157L6.58579 -1.41421L8 0ZM256 0L254.586 1.41421L262.586 9.41421L264 8L265.414 6.58579L257.414 -1.41421L256 0ZM264 8H262V64H264H266V8H264ZM264 64L262.586 62.5858L254.586 70.5858L256 72L257.414 73.4142L265.414 65.4142L264 64ZM256 72V70H8V72V74H256V72ZM8 72L9.41421 70.5858L1.41421 62.5858L0 64L-1.41421 65.4142L6.58579 73.4142L8 72ZM0 64H2V8H0H-2V64H0ZM0 8L1.41421 9.41421L9.41421 1.41421L8 0L6.58579 -1.41421L-1.41421 6.58579L0 8ZM8 0V2H256V0V-2H8V0Z" fill="#354750" mask="url(#path-2-inside-1_172_1808)"/>
<mask id="path-4-inside-2_172_1808" fill="white">
<path d="M260 9.56934V61.5693L254.431 67.1387H9.56934L4 61.5693V9.56934L9.56934 4H254.431L260 9.56934Z"/>
</mask>
<path d="M260 9.56934H261V9.15512L260.707 8.86223L260 9.56934ZM260 61.5693L260.707 62.2764L261 61.9836V61.5693H260ZM254.431 67.1387V68.1387H254.845L255.138 67.8458L254.431 67.1387ZM9.56934 67.1387L8.86223 67.8458L9.15512 68.1387H9.56934V67.1387ZM4 61.5693H3V61.9836L3.29289 62.2764L4 61.5693ZM4 9.56934L3.29289 8.86223L3 9.15512V9.56934H4ZM9.56934 4V3H9.15512L8.86223 3.29289L9.56934 4ZM254.431 4L255.138 3.29289L254.845 3H254.431V4ZM260 9.56934H259V61.5693H260H261V9.56934H260ZM260 61.5693L259.293 60.8622L253.724 66.4316L254.431 67.1387L255.138 67.8458L260.707 62.2764L260 61.5693ZM254.431 67.1387V66.1387H9.56934V67.1387V68.1387H254.431V67.1387ZM9.56934 67.1387L10.2764 66.4316L4.70711 60.8622L4 61.5693L3.29289 62.2764L8.86223 67.8458L9.56934 67.1387ZM4 61.5693H5V9.56934H4H3V61.5693H4ZM4 9.56934L4.70711 10.2764L10.2764 4.70711L9.56934 4L8.86223 3.29289L3.29289 8.86223L4 9.56934ZM9.56934 4V5H254.431V4V3H9.56934V4ZM254.431 4L253.724 4.70711L259.293 10.2764L260 9.56934L260.707 8.86223L255.138 3.29289L254.431 4Z" fill="#354750" mask="url(#path-4-inside-2_172_1808)"/>
</g>
<defs>
<clipPath id="clip0_172_1808">
<rect width="264" height="72" fill="white"/>
</clipPath>
</defs>
</svg>
