<!-- <svg width="264" height="80" viewBox="0 0 264 80" fill="none" xmlns="http://www.w3.org/2000/svg">
<g clip-path="url(#clip0_204_4145)">
<path d="M0 0H264L224 80H0V0Z" fill="#FCFDFA"/>
<path d="M115.736 33.625C115.434 31.9258 114.076 30.9492 112.357 30.9492C110.043 30.9492 108.402 32.7266 108.412 35.9297C108.402 39.1816 110.053 40.9102 112.357 40.9102C114.037 40.9102 115.395 39.9727 115.736 38.3125H118.295C117.904 41.0273 115.668 43.1953 112.318 43.1953C108.588 43.1953 105.844 40.4902 105.854 35.9297C105.844 31.3594 108.617 28.6641 112.318 28.6641C115.443 28.6641 117.855 30.4805 118.295 33.625H115.736ZM132.6 35.9297C132.609 40.5 129.816 43.1953 126.115 43.1953C122.395 43.1953 119.621 40.4902 119.631 35.9297C119.621 31.3594 122.395 28.6641 126.115 28.6641C129.816 28.6641 132.609 31.3594 132.6 35.9297ZM122.189 35.9297C122.18 39.1621 123.811 40.9102 126.115 40.9102C128.43 40.9102 130.051 39.1621 130.041 35.9297C130.051 32.6973 128.43 30.9492 126.115 30.9492C123.811 30.9492 122.18 32.6973 122.189 35.9297ZM139.17 43H134.365V28.8594H139.248C143.467 28.8594 146.016 31.5059 146.025 35.9102C146.016 40.334 143.467 43 139.17 43ZM136.904 40.793H139.033C141.992 40.8027 143.486 39.1719 143.486 35.9102C143.486 32.668 141.992 31.0566 139.111 31.0664H136.904V40.793ZM147.771 43V28.8594H156.971V30.9883H150.311V34.8555H156.482V36.9844H150.311V40.8516H157.01V43H147.771Z" fill="#0D575C"/>
</g>
<defs>
<clipPath id="clip0_204_4145">
<rect width="264" height="80" fill="white"/>
</clipPath>
</defs>
</svg> -->
<svg width="264" height="80" viewBox="0 0 264 80" fill="none" xmlns="http://www.w3.org/2000/svg">
<g clip-path="url(#clip0_204_4145)">
<path d="M0 0H264L224 80H0V0Z" fill="#FCFDFA"/>
</g>
<defs>
<clipPath id="clip0_204_4145">
<rect width="264" height="80" fill="white"/>
</clipPath>
</defs>
</svg>
