<svg width="264" height="72" viewBox="0 0 264 72" fill="none" xmlns="http://www.w3.org/2000/svg">
<g clip-path="url(#clip0_204_3689)">
<path d="M107.149 26.8594V28.9453H101.009C101.243 30.9492 103.833 32.8477 107.923 33.3281L106.938 35.3906C103.141 34.9336 100.341 33.2578 99.2039 30.9727C98.0672 33.2461 95.2898 34.9336 91.493 35.3906L90.532 33.3281C94.6219 32.8477 97.1766 30.9375 97.4227 28.9453H91.3289V26.8594H107.149ZM89.5477 38.6719V36.5625H108.907V38.6719H100.727V42.5391H98.1492V38.6719H89.5477ZM91.8914 46.6641V40.5938H94.493V44.5547H106.774V46.6641H91.8914ZM127.338 25.8984V47.1094H124.713V25.8984H127.338ZM110.838 42.1172V27.6328H113.44V32.9297H118.573V27.6328H121.151V42.1172H110.838ZM113.44 39.9844H118.573V34.9688H113.44V39.9844ZM141.349 26.8125C144.443 26.8125 146.646 28.5352 146.67 31.0781C146.646 33.1875 145.064 34.7695 142.709 35.2031V36.9141C144.478 36.8086 146.248 36.6562 147.888 36.4219L148.099 38.3203C143.693 39.1055 138.771 39.1992 135.185 39.1875L134.904 37.1016C136.427 37.1016 138.209 37.0898 140.084 37.0312V35.2148C137.658 34.8047 136.041 33.2227 136.052 31.0781C136.041 28.5352 138.244 26.8125 141.349 26.8125ZM137.81 46.6406V40.6641H140.412V44.5312H152.482V46.6406H137.81ZM138.49 31.0781C138.466 32.4727 139.662 33.3398 141.349 33.3516C143.048 33.3398 144.197 32.4727 144.209 31.0781C144.197 29.6484 143.048 28.8047 141.349 28.8047C139.662 28.8047 138.466 29.6484 138.49 31.0781ZM149.13 42.0938V25.9219H151.732V32.7656H154.591V34.9219H151.732V42.0938H149.13ZM174.452 42.4688V44.625H155.093V42.4688H160.226V38.9766H157.39V32.0625H169.577V29.4609H157.343V27.3516H172.155V34.1484H159.991V36.8672H172.648V38.9766H169.554V42.4688H174.452ZM162.757 42.4688H166.999V38.9766H162.757V42.4688Z" fill="#99BCBE"/>
<mask id="path-2-inside-1_204_3689" fill="white">
<path d="M256 0L264 8V64L256 72H8L0 64V8L8 0H256Z"/>
</mask>
<path d="M256 0L257.414 -1.41421L256.828 -2H256V0ZM264 8H266V7.17157L265.414 6.58579L264 8ZM264 64L265.414 65.4142L266 64.8284V64H264ZM256 72V74H256.828L257.414 73.4142L256 72ZM8 72L6.58579 73.4142L7.17157 74H8V72ZM0 64H-2V64.8284L-1.41421 65.4142L0 64ZM0 8L-1.41421 6.58579L-2 7.17157V8H0ZM8 0V-2H7.17157L6.58579 -1.41421L8 0ZM256 0L254.586 1.41421L262.586 9.41421L264 8L265.414 6.58579L257.414 -1.41421L256 0ZM264 8H262V64H264H266V8H264ZM264 64L262.586 62.5858L254.586 70.5858L256 72L257.414 73.4142L265.414 65.4142L264 64ZM256 72V70H8V72V74H256V72ZM8 72L9.41421 70.5858L1.41421 62.5858L0 64L-1.41421 65.4142L6.58579 73.4142L8 72ZM0 64H2V8H0H-2V64H0ZM0 8L1.41421 9.41421L9.41421 1.41421L8 0L6.58579 -1.41421L-1.41421 6.58579L0 8ZM8 0V2H256V0V-2H8V0Z" fill="#99BCBE" mask="url(#path-2-inside-1_204_3689)"/>
<mask id="path-4-inside-2_204_3689" fill="white">
<path d="M260 10V62L254.431 67.5693H9.56934L4 62V10L9.56934 4.43066H254.431L260 10Z"/>
</mask>
<path d="M260 10H261V9.58579L260.707 9.29289L260 10ZM260 62L260.707 62.7071L261 62.4142V62H260ZM254.431 67.5693V68.5693H254.845L255.138 68.2764L254.431 67.5693ZM9.56934 67.5693L8.86223 68.2764L9.15512 68.5693H9.56934V67.5693ZM4 62H3V62.4142L3.29289 62.7071L4 62ZM4 10L3.29289 9.29289L3 9.58579V10H4ZM9.56934 4.43066V3.43066H9.15512L8.86223 3.72356L9.56934 4.43066ZM254.431 4.43066L255.138 3.72356L254.845 3.43066H254.431V4.43066ZM260 10H259V62H260H261V10H260ZM260 62L259.293 61.2929L253.724 66.8622L254.431 67.5693L255.138 68.2764L260.707 62.7071L260 62ZM254.431 67.5693V66.5693H9.56934V67.5693V68.5693H254.431V67.5693ZM9.56934 67.5693L10.2764 66.8622L4.70711 61.2929L4 62L3.29289 62.7071L8.86223 68.2764L9.56934 67.5693ZM4 62H5V10H4H3V62H4ZM4 10L4.70711 10.7071L10.2764 5.13777L9.56934 4.43066L8.86223 3.72356L3.29289 9.29289L4 10ZM9.56934 4.43066V5.43066H254.431V4.43066V3.43066H9.56934V4.43066ZM254.431 4.43066L253.724 5.13777L259.293 10.7071L260 10L260.707 9.29289L255.138 3.72356L254.431 4.43066Z" fill="#99BCBE" mask="url(#path-4-inside-2_204_3689)"/>
</g>
<defs>
<clipPath id="clip0_204_3689">
<rect width="264" height="72" fill="white"/>
</clipPath>
</defs>
</svg>
