<svg width="264" height="72" viewBox="0 0 264 72" fill="none" xmlns="http://www.w3.org/2000/svg">
<g clip-path="url(#clip0_172_1774)">
<path d="M108.312 26.8594V28.9453H102.171C102.405 30.9492 104.995 32.8477 109.085 33.3281L108.101 35.3906C104.304 34.9336 101.503 33.2578 100.366 30.9727C99.2297 33.2461 96.4523 34.9336 92.6555 35.3906L91.6945 33.3281C95.7844 32.8477 98.3391 30.9375 98.5852 28.9453H92.4914V26.8594H108.312ZM90.7102 38.6719V36.5625H110.07V38.6719H101.89V42.5391H99.3117V38.6719H90.7102ZM93.0539 46.6641V40.5938H95.6555V44.5547H107.937V46.6641H93.0539ZM128.501 25.8984V47.1094H125.876V25.8984H128.501ZM112.001 42.1172V27.6328H114.602V32.9297H119.735V27.6328H122.313V42.1172H112.001ZM114.602 39.9844H119.735V34.9688H114.602V39.9844ZM155.426 35.625V37.7344H147.035V39.5156C150.82 39.7617 153.07 41.0742 153.082 43.2656C153.07 45.7031 150.305 47.0625 145.746 47.0625C141.117 47.0625 138.363 45.7031 138.363 43.2656C138.363 41.0742 140.613 39.75 144.457 39.5039V37.7344H136.113V35.625H155.426ZM137.051 32.6016C140.941 32.2383 143.484 30.6562 143.918 28.9219H137.871V26.8359H153.691V28.9219H147.586C148.008 30.668 150.527 32.2383 154.512 32.6016L153.598 34.6641C149.742 34.2656 146.895 32.7305 145.746 30.5859C144.598 32.7305 141.785 34.2656 137.941 34.6641L137.051 32.6016ZM141.012 43.2656C141 44.4375 142.664 45.082 145.746 45.0703C148.781 45.082 150.457 44.4375 150.48 43.2656C150.457 42.0938 148.781 41.4727 145.746 41.4609C142.664 41.4727 141 42.0938 141.012 43.2656ZM158.834 45.1875C157.826 45.1875 156.994 44.3672 157.005 43.3594C156.994 42.375 157.826 41.5664 158.834 41.5547C159.806 41.5664 160.638 42.375 160.638 43.3594C160.638 44.3672 159.806 45.1875 158.834 45.1875ZM164.773 45.1875C163.765 45.1875 162.933 44.3672 162.945 43.3594C162.933 42.375 163.765 41.5664 164.773 41.5547C165.745 41.5664 166.577 42.375 166.577 43.3594C166.577 44.3672 165.745 45.1875 164.773 45.1875ZM170.712 45.1875C169.704 45.1875 168.872 44.3672 168.884 43.3594C168.872 42.375 169.704 41.5664 170.712 41.5547C171.684 41.5664 172.516 42.375 172.516 43.3594C172.516 44.3672 171.684 45.1875 170.712 45.1875Z" fill="#E6ECEF"/>
<mask id="path-2-inside-1_172_1774" fill="white">
<path d="M256 0L264 8V64L256 72H8L0 64V8L8 0H256Z"/>
</mask>
<path d="M256 0L257.414 -1.41421L256.828 -2H256V0ZM264 8H266V7.17157L265.414 6.58579L264 8ZM264 64L265.414 65.4142L266 64.8284V64H264ZM256 72V74H256.828L257.414 73.4142L256 72ZM8 72L6.58579 73.4142L7.17157 74H8V72ZM0 64H-2V64.8284L-1.41421 65.4142L0 64ZM0 8L-1.41421 6.58579L-2 7.17157V8H0ZM8 0V-2H7.17157L6.58579 -1.41421L8 0ZM256 0L254.586 1.41421L262.586 9.41421L264 8L265.414 6.58579L257.414 -1.41421L256 0ZM264 8H262V64H264H266V8H264ZM264 64L262.586 62.5858L254.586 70.5858L256 72L257.414 73.4142L265.414 65.4142L264 64ZM256 72V70H8V72V74H256V72ZM8 72L9.41421 70.5858L1.41421 62.5858L0 64L-1.41421 65.4142L6.58579 73.4142L8 72ZM0 64H2V8H0H-2V64H0ZM0 8L1.41421 9.41421L9.41421 1.41421L8 0L6.58579 -1.41421L-1.41421 6.58579L0 8ZM8 0V2H256V0V-2H8V0Z" fill="#E6ECEF" mask="url(#path-2-inside-1_172_1774)"/>
<mask id="path-4-inside-2_172_1774" fill="white">
<path d="M260 10V62L254.431 67.5693H9.56934L4 62V10L9.56934 4.43066H254.431L260 10Z"/>
</mask>
<path d="M260 10H261V9.58579L260.707 9.29289L260 10ZM260 62L260.707 62.7071L261 62.4142V62H260ZM254.431 67.5693V68.5693H254.845L255.138 68.2764L254.431 67.5693ZM9.56934 67.5693L8.86223 68.2764L9.15512 68.5693H9.56934V67.5693ZM4 62H3V62.4142L3.29289 62.7071L4 62ZM4 10L3.29289 9.29289L3 9.58579V10H4ZM9.56934 4.43066V3.43066H9.15512L8.86223 3.72356L9.56934 4.43066ZM254.431 4.43066L255.138 3.72356L254.845 3.43066H254.431V4.43066ZM260 10H259V62H260H261V10H260ZM260 62L259.293 61.2929L253.724 66.8622L254.431 67.5693L255.138 68.2764L260.707 62.7071L260 62ZM254.431 67.5693V66.5693H9.56934V67.5693V68.5693H254.431V67.5693ZM9.56934 67.5693L10.2764 66.8622L4.70711 61.2929L4 62L3.29289 62.7071L8.86223 68.2764L9.56934 67.5693ZM4 62H5V10H4H3V62H4ZM4 10L4.70711 10.7071L10.2764 5.13777L9.56934 4.43066L8.86223 3.72356L3.29289 9.29289L4 10ZM9.56934 4.43066V5.43066H254.431V4.43066V3.43066H9.56934V4.43066ZM254.431 4.43066L253.724 5.13777L259.293 10.7071L260 10L260.707 9.29289L255.138 3.72356L254.431 4.43066Z" fill="#E6ECEF" mask="url(#path-4-inside-2_172_1774)"/>
</g>
<defs>
<clipPath id="clip0_172_1774">
<rect width="264" height="72" fill="white"/>
</clipPath>
</defs>
</svg>
