<!-- <svg width="264" height="72" viewBox="0 0 264 72" fill="none" xmlns="http://www.w3.org/2000/svg">
<g clip-path="url(#clip0_157_2041)">
<mask id="path-1-inside-1_157_2041" fill="white">
<path d="M256 0L264 8V64L256 72H8L0 64V8L8 0H256Z"/>
</mask>
<path d="M256 0L257.414 -1.41421L256.828 -2H256V0ZM264 8H266V7.17157L265.414 6.58579L264 8ZM264 64L265.414 65.4142L266 64.8284V64H264ZM256 72V74H256.828L257.414 73.4142L256 72ZM8 72L6.58579 73.4142L7.17157 74H8V72ZM0 64H-2V64.8284L-1.41421 65.4142L0 64ZM0 8L-1.41421 6.58579L-2 7.17157V8H0ZM8 0V-2H7.17157L6.58579 -1.41421L8 0ZM256 0L254.586 1.41421L262.586 9.41421L264 8L265.414 6.58579L257.414 -1.41421L256 0ZM264 8H262V64H264H266V8H264ZM264 64L262.586 62.5858L254.586 70.5858L256 72L257.414 73.4142L265.414 65.4142L264 64ZM256 72V70H8V72V74H256V72ZM8 72L9.41421 70.5858L1.41421 62.5858L0 64L-1.41421 65.4142L6.58579 73.4142L8 72ZM0 64H2V8H0H-2V64H0ZM0 8L1.41421 9.41421L9.41421 1.41421L8 0L6.58579 -1.41421L-1.41421 6.58579L0 8ZM8 0V2H256V0V-2H8V0Z" fill="#E6ECEF" mask="url(#path-1-inside-1_157_2041)"/>
<path d="M90.9586 45L87.3492 32.2734H90.3961L92.6461 41.2266H92.7633L95.0367 32.2734H98.0602L100.357 41.1797H100.474L102.701 32.2734H105.748L102.138 45H99.0211L96.6305 36.375H96.4664L94.0758 45H90.9586ZM106.46 41.4141C106.46 38.5547 108.839 37.7227 111.195 37.5703C112.085 37.5 113.902 37.418 114.464 37.3945L114.452 36.375C114.452 35.1094 113.644 34.3828 112.155 34.3828C110.82 34.3828 109.999 34.9922 109.765 35.9062H106.882C107.093 33.7383 109.038 32.1094 112.226 32.1094C114.64 32.1094 117.429 33.1055 117.429 36.4922V45H114.57V43.2422H114.476C113.913 44.3203 112.73 45.2578 110.726 45.2578C108.3 45.2578 106.46 43.9336 106.46 41.4141ZM109.343 41.3906C109.343 42.4922 110.245 43.0547 111.499 43.0547C113.316 43.0547 114.476 41.8594 114.476 40.4297L114.464 39.3867C113.925 39.4102 112.261 39.5156 111.663 39.5625C110.245 39.6797 109.343 40.2773 109.343 41.3906ZM125.993 32.2734V34.5703H123.485V41.1797C123.485 42.3984 124.095 42.6445 124.845 42.6562C125.196 42.668 125.782 42.6328 126.157 42.6094V45.0469C125.805 45.1055 125.231 45.1758 124.47 45.1641C122.22 45.1758 120.485 44.0625 120.509 41.6719V34.5703H118.68V32.2734H120.509V29.2266H123.485V32.2734H125.993ZM127.69 45V32.2734H130.69V45H127.69ZM127.479 28.8281C127.479 27.9375 128.264 27.2109 129.213 27.2109C130.163 27.2109 130.948 27.9375 130.948 28.8281C130.948 29.7305 130.163 30.457 129.213 30.4688C128.264 30.457 127.479 29.7305 127.479 28.8281ZM135.949 37.5469V45H132.949V32.2734H135.809V34.4297H135.973C136.547 33.0117 137.848 32.1094 139.746 32.1094C142.383 32.1094 144.117 33.8438 144.105 36.8906V45H141.129V37.3594C141.129 35.6484 140.203 34.6289 138.645 34.6406C137.062 34.6289 135.949 35.6953 135.949 37.5469ZM151.92 50.0391C148.545 50.0391 146.4 48.5391 146.201 46.1484H149.177C149.388 47.2617 150.431 47.7773 151.966 47.7891C153.759 47.7773 154.92 47.0039 154.92 45.1406V42.7031H154.779C154.31 43.6406 153.291 44.8125 151.099 44.8125C148.158 44.8125 145.849 42.6797 145.849 38.5312C145.849 34.3477 148.17 32.1094 151.123 32.1094C153.361 32.1094 154.31 33.457 154.779 34.3594H154.92V32.2734H157.873V45.2109C157.873 48.4688 155.353 50.0391 151.92 50.0391ZM148.896 38.5781C148.896 40.9219 149.951 42.4688 151.92 42.4688C153.853 42.4688 154.943 41.0156 154.943 38.5781C154.943 36.1523 153.865 34.5586 151.92 34.5469C149.927 34.5586 148.896 36.2578 148.896 38.5781ZM161.984 45.1875C160.976 45.1875 160.144 44.3672 160.155 43.3594C160.144 42.375 160.976 41.5664 161.984 41.5547C162.956 41.5664 163.788 42.375 163.788 43.3594C163.788 44.3672 162.956 45.1875 161.984 45.1875ZM167.923 45.1875C166.915 45.1875 166.083 44.3672 166.095 43.3594C166.083 42.375 166.915 41.5664 167.923 41.5547C168.895 41.5664 169.727 42.375 169.727 43.3594C169.727 44.3672 168.895 45.1875 167.923 45.1875ZM173.862 45.1875C172.854 45.1875 172.022 44.3672 172.034 43.3594C172.022 42.375 172.854 41.5664 173.862 41.5547C174.834 41.5664 175.666 42.375 175.666 43.3594C175.666 44.3672 174.834 45.1875 173.862 45.1875Z" fill="#E6ECEF"/>
<mask id="path-4-inside-2_157_2041" fill="white">
<path d="M260 10V62L254.431 67.5693H9.56934L4 62V10L9.56934 4.43066H254.431L260 10Z"/>
</mask>
<path d="M260 10H261V9.58579L260.707 9.29289L260 10ZM260 62L260.707 62.7071L261 62.4142V62H260ZM254.431 67.5693V68.5693H254.845L255.138 68.2764L254.431 67.5693ZM9.56934 67.5693L8.86223 68.2764L9.15512 68.5693H9.56934V67.5693ZM4 62H3V62.4142L3.29289 62.7071L4 62ZM4 10L3.29289 9.29289L3 9.58579V10H4ZM9.56934 4.43066V3.43066H9.15512L8.86223 3.72356L9.56934 4.43066ZM254.431 4.43066L255.138 3.72356L254.845 3.43066H254.431V4.43066ZM260 10H259V62H260H261V10H260ZM260 62L259.293 61.2929L253.724 66.8622L254.431 67.5693L255.138 68.2764L260.707 62.7071L260 62ZM254.431 67.5693V66.5693H9.56934V67.5693V68.5693H254.431V67.5693ZM9.56934 67.5693L10.2764 66.8622L4.70711 61.2929L4 62L3.29289 62.7071L8.86223 68.2764L9.56934 67.5693ZM4 62H5V10H4H3V62H4ZM4 10L4.70711 10.7071L10.2764 5.13777L9.56934 4.43066L8.86223 3.72356L3.29289 9.29289L4 10ZM9.56934 4.43066V5.43066H254.431V4.43066V3.43066H9.56934V4.43066ZM254.431 4.43066L253.724 5.13777L259.293 10.7071L260 10L260.707 9.29289L255.138 3.72356L254.431 4.43066Z" fill="#E6ECEF" mask="url(#path-4-inside-2_157_2041)"/>
</g>
<defs>
<clipPath id="clip0_157_2041">
<rect width="264" height="72" fill="white"/>
</clipPath>
</defs>
</svg> -->
<svg width="242" height="67" viewBox="0 0 242 67" fill="none" xmlns="http://www.w3.org/2000/svg">
<g clip-path="url(#clip0_1124_1909)">
<mask id="path-1-inside-1_1124_1909" fill="white">
<path d="M234.667 0.333374L242 7.66638V59.0004L234.667 66.3334H7.33301L0 59.0004V7.66638L7.33301 0.333374H234.667Z"/>
</mask>
<path d="M234.667 0.333374L235.963 -0.962988L235.426 -1.49996H234.667V0.333374ZM242 7.66638H243.833V6.90699L243.296 6.37002L242 7.66638ZM242 59.0004L243.296 60.2967L243.833 59.7598V59.0004H242ZM234.667 66.3334V68.1667H235.426L235.963 67.6297L234.667 66.3334ZM7.33301 66.3334L6.03665 67.6297L6.57362 68.1667H7.33301V66.3334ZM0 59.0004H-1.83333V59.7598L-1.29636 60.2967L0 59.0004ZM0 7.66638L-1.29636 6.37002L-1.83333 6.90699V7.66638H0ZM7.33301 0.333374V-1.49996H6.57362L6.03665 -0.962988L7.33301 0.333374ZM234.667 0.333374L233.371 1.62974L240.704 8.96274L242 7.66638L243.296 6.37002L235.963 -0.962988L234.667 0.333374ZM242 7.66638H240.167V59.0004H242H243.833V7.66638H242ZM242 59.0004L240.704 57.704L233.371 65.037L234.667 66.3334L235.963 67.6297L243.296 60.2967L242 59.0004ZM234.667 66.3334V64.5H7.33301V66.3334V68.1667H234.667V66.3334ZM7.33301 66.3334L8.62937 65.037L1.29636 57.704L0 59.0004L-1.29636 60.2967L6.03665 67.6297L7.33301 66.3334ZM0 59.0004H1.83333V7.66638H0H-1.83333V59.0004H0ZM0 7.66638L1.29636 8.96274L8.62937 1.62974L7.33301 0.333374L6.03665 -0.962988L-1.29636 6.37002L0 7.66638ZM7.33301 0.333374V2.16671H234.667V0.333374V-1.49996H7.33301V0.333374Z" fill="#99BCBE" mask="url(#path-1-inside-1_1124_1909)"/>
<path d="M83.3787 41.3334L80.0701 29.6674H82.8631L84.9256 37.8744H85.033L87.117 29.6674H89.8885L91.9939 37.8314H92.1014L94.1424 29.6674H96.9354L93.6268 41.3334H90.7693L88.5779 33.4271H88.4275L86.2361 41.3334H83.3787ZM97.5885 38.0463C97.5885 35.4252 99.7691 34.6625 101.928 34.5228C102.745 34.4584 104.41 34.3832 104.925 34.3617L104.915 33.4271C104.915 32.267 104.173 31.601 102.809 31.601C101.585 31.601 100.833 32.1595 100.618 32.9974H97.9752C98.1686 31.0101 99.9518 29.517 102.874 29.517C105.087 29.517 107.643 30.4301 107.643 33.5345V41.3334H105.022V39.722H104.936C104.421 40.7103 103.336 41.5697 101.499 41.5697C99.275 41.5697 97.5885 40.3558 97.5885 38.0463ZM100.231 38.0248C100.231 39.0345 101.058 39.5502 102.208 39.5502C103.873 39.5502 104.936 38.4545 104.936 37.1439L104.925 36.1879C104.431 36.2094 102.906 36.306 102.358 36.349C101.058 36.4564 100.231 37.0043 100.231 38.0248ZM115.494 29.6674V31.7728H113.195V37.8314C113.195 38.9486 113.753 39.1742 114.441 39.1849C114.763 39.1957 115.3 39.1635 115.644 39.142V41.3763C115.322 41.4301 114.795 41.4945 114.097 41.4838C112.035 41.4945 110.445 40.474 110.466 38.2826V31.7728H108.79V29.6674H110.466V26.8744H113.195V29.6674H115.494ZM117.049 41.3334V29.6674H119.799V41.3334H117.049ZM116.856 26.5092C116.856 25.6927 117.575 25.0267 118.446 25.0267C119.316 25.0267 120.035 25.6927 120.035 26.5092C120.035 27.3363 119.316 28.0023 118.446 28.0131C117.575 28.0023 116.856 27.3363 116.856 26.5092ZM124.62 34.5013V41.3334H121.87V29.6674H124.491V31.6439H124.642C125.168 30.3441 126.36 29.517 128.101 29.517C130.518 29.517 132.107 31.1068 132.097 33.8998V41.3334H129.368V34.3295C129.368 32.7611 128.52 31.8265 127.091 31.8373C125.641 31.8265 124.62 32.8041 124.62 34.5013ZM139.26 45.9525C136.166 45.9525 134.2 44.5775 134.017 42.3861H136.746C136.939 43.4066 137.895 43.8793 139.303 43.89C140.946 43.8793 142.01 43.1703 142.01 41.4623V39.2279H141.881C141.451 40.0873 140.516 41.1615 138.508 41.1615C135.811 41.1615 133.695 39.2064 133.695 35.4037C133.695 31.5687 135.822 29.517 138.529 29.517C140.581 29.517 141.451 30.7523 141.881 31.5795H142.01V29.6674H144.717V41.5267C144.717 44.5131 142.407 45.9525 139.26 45.9525ZM136.488 35.4467C136.488 37.5951 137.455 39.0131 139.26 39.0131C141.032 39.0131 142.031 37.681 142.031 35.4467C142.031 33.223 141.043 31.7621 139.26 31.7513C137.433 31.7621 136.488 33.3197 136.488 35.4467ZM148.485 41.5052C147.561 41.5052 146.798 40.7533 146.809 39.8295C146.798 38.9271 147.561 38.1859 148.485 38.1752C149.377 38.1859 150.139 38.9271 150.139 39.8295C150.139 40.7533 149.377 41.5052 148.485 41.5052ZM153.929 41.5052C153.005 41.5052 152.243 40.7533 152.253 39.8295C152.243 38.9271 153.005 38.1859 153.929 38.1752C154.821 38.1859 155.583 38.9271 155.583 39.8295C155.583 40.7533 154.821 41.5052 153.929 41.5052ZM159.373 41.5052C158.449 41.5052 157.687 40.7533 157.697 39.8295C157.687 38.9271 158.449 38.1859 159.373 38.1752C160.265 38.1859 161.028 38.9271 161.028 39.8295C161.028 40.7533 160.265 41.5052 159.373 41.5052Z" fill="#99BCBE"/>
<mask id="path-4-inside-2_1124_1909" fill="white">
<path d="M238.333 9.49927V57.1682L233.229 62.2717H8.77051L3.66602 57.1672V9.50024L8.77148 4.39478H233.229L238.333 9.49927Z"/>
</mask>
<path d="M238.333 9.49927H239.25V9.11957L238.981 8.85109L238.333 9.49927ZM238.333 57.1682L238.981 57.8164L239.25 57.5479V57.1682H238.333ZM233.229 62.2717V63.1884H233.609L233.878 62.9199L233.229 62.2717ZM8.77051 62.2717L8.12233 62.9199L8.39081 63.1884H8.77051V62.2717ZM3.66602 57.1672H2.74935V57.5469L3.01783 57.8154L3.66602 57.1672ZM3.66602 9.50024L3.01783 8.85206L2.74935 9.12055V9.50024H3.66602ZM8.77148 4.39478V3.47811H8.39179L8.1233 3.74659L8.77148 4.39478ZM233.229 4.39478L233.877 3.74659L233.608 3.47811H233.229V4.39478ZM238.333 9.49927H237.416V57.1682H238.333H239.25V9.49927H238.333ZM238.333 57.1682L237.685 56.52L232.581 61.6235L233.229 62.2717L233.878 62.9199L238.981 57.8164L238.333 57.1682ZM233.229 62.2717V61.3551H8.77051V62.2717V63.1884H233.229V62.2717ZM8.77051 62.2717L9.41869 61.6235L4.3142 56.5191L3.66602 57.1672L3.01783 57.8154L8.12233 62.9199L8.77051 62.2717ZM3.66602 57.1672H4.58268V9.50024H3.66602H2.74935V57.1672H3.66602ZM3.66602 9.50024L4.3142 10.1484L9.41967 5.04296L8.77148 4.39478L8.1233 3.74659L3.01783 8.85206L3.66602 9.50024ZM8.77148 4.39478V5.31144H233.229V4.39478V3.47811H8.77148V4.39478ZM233.229 4.39478L232.58 5.04296L237.685 10.1474L238.333 9.49927L238.981 8.85109L233.877 3.74659L233.229 4.39478Z" fill="#99BCBE" mask="url(#path-4-inside-2_1124_1909)"/>
</g>
<defs>
<clipPath id="clip0_1124_1909">
<rect width="242" height="66" fill="white" transform="translate(0 0.333374)"/>
</clipPath>
</defs>
</svg>
