<svg width="264" height="72" viewBox="0 0 264 72" fill="none" xmlns="http://www.w3.org/2000/svg">
<g clip-path="url(#clip0_157_2041)">
<mask id="path-1-inside-1_157_2041" fill="white">
<path d="M256 0L264 8V64L256 72H8L0 64V8L8 0H256Z"/>
</mask>
<path d="M256 0L257.414 -1.41421L256.828 -2H256V0ZM264 8H266V7.17157L265.414 6.58579L264 8ZM264 64L265.414 65.4142L266 64.8284V64H264ZM256 72V74H256.828L257.414 73.4142L256 72ZM8 72L6.58579 73.4142L7.17157 74H8V72ZM0 64H-2V64.8284L-1.41421 65.4142L0 64ZM0 8L-1.41421 6.58579L-2 7.17157V8H0ZM8 0V-2H7.17157L6.58579 -1.41421L8 0ZM256 0L254.586 1.41421L262.586 9.41421L264 8L265.414 6.58579L257.414 -1.41421L256 0ZM264 8H262V64H264H266V8H264ZM264 64L262.586 62.5858L254.586 70.5858L256 72L257.414 73.4142L265.414 65.4142L264 64ZM256 72V70H8V72V74H256V72ZM8 72L9.41421 70.5858L1.41421 62.5858L0 64L-1.41421 65.4142L6.58579 73.4142L8 72ZM0 64H2V8H0H-2V64H0ZM0 8L1.41421 9.41421L9.41421 1.41421L8 0L6.58579 -1.41421L-1.41421 6.58579L0 8ZM8 0V2H256V0V-2H8V0Z" fill="#E6ECEF" mask="url(#path-1-inside-1_157_2041)"/>
<path d="M90.9586 45L87.3492 32.2734H90.3961L92.6461 41.2266H92.7633L95.0367 32.2734H98.0602L100.357 41.1797H100.474L102.701 32.2734H105.748L102.138 45H99.0211L96.6305 36.375H96.4664L94.0758 45H90.9586ZM106.46 41.4141C106.46 38.5547 108.839 37.7227 111.195 37.5703C112.085 37.5 113.902 37.418 114.464 37.3945L114.452 36.375C114.452 35.1094 113.644 34.3828 112.155 34.3828C110.82 34.3828 109.999 34.9922 109.765 35.9062H106.882C107.093 33.7383 109.038 32.1094 112.226 32.1094C114.64 32.1094 117.429 33.1055 117.429 36.4922V45H114.57V43.2422H114.476C113.913 44.3203 112.73 45.2578 110.726 45.2578C108.3 45.2578 106.46 43.9336 106.46 41.4141ZM109.343 41.3906C109.343 42.4922 110.245 43.0547 111.499 43.0547C113.316 43.0547 114.476 41.8594 114.476 40.4297L114.464 39.3867C113.925 39.4102 112.261 39.5156 111.663 39.5625C110.245 39.6797 109.343 40.2773 109.343 41.3906ZM125.993 32.2734V34.5703H123.485V41.1797C123.485 42.3984 124.095 42.6445 124.845 42.6562C125.196 42.668 125.782 42.6328 126.157 42.6094V45.0469C125.805 45.1055 125.231 45.1758 124.47 45.1641C122.22 45.1758 120.485 44.0625 120.509 41.6719V34.5703H118.68V32.2734H120.509V29.2266H123.485V32.2734H125.993ZM127.69 45V32.2734H130.69V45H127.69ZM127.479 28.8281C127.479 27.9375 128.264 27.2109 129.213 27.2109C130.163 27.2109 130.948 27.9375 130.948 28.8281C130.948 29.7305 130.163 30.457 129.213 30.4688C128.264 30.457 127.479 29.7305 127.479 28.8281ZM135.949 37.5469V45H132.949V32.2734H135.809V34.4297H135.973C136.547 33.0117 137.848 32.1094 139.746 32.1094C142.383 32.1094 144.117 33.8438 144.105 36.8906V45H141.129V37.3594C141.129 35.6484 140.203 34.6289 138.645 34.6406C137.062 34.6289 135.949 35.6953 135.949 37.5469ZM151.92 50.0391C148.545 50.0391 146.4 48.5391 146.201 46.1484H149.177C149.388 47.2617 150.431 47.7773 151.966 47.7891C153.759 47.7773 154.92 47.0039 154.92 45.1406V42.7031H154.779C154.31 43.6406 153.291 44.8125 151.099 44.8125C148.158 44.8125 145.849 42.6797 145.849 38.5312C145.849 34.3477 148.17 32.1094 151.123 32.1094C153.361 32.1094 154.31 33.457 154.779 34.3594H154.92V32.2734H157.873V45.2109C157.873 48.4688 155.353 50.0391 151.92 50.0391ZM148.896 38.5781C148.896 40.9219 149.951 42.4688 151.92 42.4688C153.853 42.4688 154.943 41.0156 154.943 38.5781C154.943 36.1523 153.865 34.5586 151.92 34.5469C149.927 34.5586 148.896 36.2578 148.896 38.5781ZM161.984 45.1875C160.976 45.1875 160.144 44.3672 160.155 43.3594C160.144 42.375 160.976 41.5664 161.984 41.5547C162.956 41.5664 163.788 42.375 163.788 43.3594C163.788 44.3672 162.956 45.1875 161.984 45.1875ZM167.923 45.1875C166.915 45.1875 166.083 44.3672 166.095 43.3594C166.083 42.375 166.915 41.5664 167.923 41.5547C168.895 41.5664 169.727 42.375 169.727 43.3594C169.727 44.3672 168.895 45.1875 167.923 45.1875ZM173.862 45.1875C172.854 45.1875 172.022 44.3672 172.034 43.3594C172.022 42.375 172.854 41.5664 173.862 41.5547C174.834 41.5664 175.666 42.375 175.666 43.3594C175.666 44.3672 174.834 45.1875 173.862 45.1875Z" fill="#E6ECEF"/>
<mask id="path-4-inside-2_157_2041" fill="white">
<path d="M260 10V62L254.431 67.5693H9.56934L4 62V10L9.56934 4.43066H254.431L260 10Z"/>
</mask>
<path d="M260 10H261V9.58579L260.707 9.29289L260 10ZM260 62L260.707 62.7071L261 62.4142V62H260ZM254.431 67.5693V68.5693H254.845L255.138 68.2764L254.431 67.5693ZM9.56934 67.5693L8.86223 68.2764L9.15512 68.5693H9.56934V67.5693ZM4 62H3V62.4142L3.29289 62.7071L4 62ZM4 10L3.29289 9.29289L3 9.58579V10H4ZM9.56934 4.43066V3.43066H9.15512L8.86223 3.72356L9.56934 4.43066ZM254.431 4.43066L255.138 3.72356L254.845 3.43066H254.431V4.43066ZM260 10H259V62H260H261V10H260ZM260 62L259.293 61.2929L253.724 66.8622L254.431 67.5693L255.138 68.2764L260.707 62.7071L260 62ZM254.431 67.5693V66.5693H9.56934V67.5693V68.5693H254.431V67.5693ZM9.56934 67.5693L10.2764 66.8622L4.70711 61.2929L4 62L3.29289 62.7071L8.86223 68.2764L9.56934 67.5693ZM4 62H5V10H4H3V62H4ZM4 10L4.70711 10.7071L10.2764 5.13777L9.56934 4.43066L8.86223 3.72356L3.29289 9.29289L4 10ZM9.56934 4.43066V5.43066H254.431V4.43066V3.43066H9.56934V4.43066ZM254.431 4.43066L253.724 5.13777L259.293 10.7071L260 10L260.707 9.29289L255.138 3.72356L254.431 4.43066Z" fill="#E6ECEF" mask="url(#path-4-inside-2_157_2041)"/>
</g>
<defs>
<clipPath id="clip0_157_2041">
<rect width="264" height="72" fill="white"/>
</clipPath>
</defs>
</svg>
