<!-- <svg width="264" height="72" viewBox="0 0 264 72" fill="none" xmlns="http://www.w3.org/2000/svg">
<g clip-path="url(#clip0_172_1774)">
<path d="M108.312 26.8594V28.9453H102.171C102.405 30.9492 104.995 32.8477 109.085 33.3281L108.101 35.3906C104.304 34.9336 101.503 33.2578 100.366 30.9727C99.2297 33.2461 96.4523 34.9336 92.6555 35.3906L91.6945 33.3281C95.7844 32.8477 98.3391 30.9375 98.5852 28.9453H92.4914V26.8594H108.312ZM90.7102 38.6719V36.5625H110.07V38.6719H101.89V42.5391H99.3117V38.6719H90.7102ZM93.0539 46.6641V40.5938H95.6555V44.5547H107.937V46.6641H93.0539ZM128.501 25.8984V47.1094H125.876V25.8984H128.501ZM112.001 42.1172V27.6328H114.602V32.9297H119.735V27.6328H122.313V42.1172H112.001ZM114.602 39.9844H119.735V34.9688H114.602V39.9844ZM155.426 35.625V37.7344H147.035V39.5156C150.82 39.7617 153.07 41.0742 153.082 43.2656C153.07 45.7031 150.305 47.0625 145.746 47.0625C141.117 47.0625 138.363 45.7031 138.363 43.2656C138.363 41.0742 140.613 39.75 144.457 39.5039V37.7344H136.113V35.625H155.426ZM137.051 32.6016C140.941 32.2383 143.484 30.6562 143.918 28.9219H137.871V26.8359H153.691V28.9219H147.586C148.008 30.668 150.527 32.2383 154.512 32.6016L153.598 34.6641C149.742 34.2656 146.895 32.7305 145.746 30.5859C144.598 32.7305 141.785 34.2656 137.941 34.6641L137.051 32.6016ZM141.012 43.2656C141 44.4375 142.664 45.082 145.746 45.0703C148.781 45.082 150.457 44.4375 150.48 43.2656C150.457 42.0938 148.781 41.4727 145.746 41.4609C142.664 41.4727 141 42.0938 141.012 43.2656ZM158.834 45.1875C157.826 45.1875 156.994 44.3672 157.005 43.3594C156.994 42.375 157.826 41.5664 158.834 41.5547C159.806 41.5664 160.638 42.375 160.638 43.3594C160.638 44.3672 159.806 45.1875 158.834 45.1875ZM164.773 45.1875C163.765 45.1875 162.933 44.3672 162.945 43.3594C162.933 42.375 163.765 41.5664 164.773 41.5547C165.745 41.5664 166.577 42.375 166.577 43.3594C166.577 44.3672 165.745 45.1875 164.773 45.1875ZM170.712 45.1875C169.704 45.1875 168.872 44.3672 168.884 43.3594C168.872 42.375 169.704 41.5664 170.712 41.5547C171.684 41.5664 172.516 42.375 172.516 43.3594C172.516 44.3672 171.684 45.1875 170.712 45.1875Z" fill="#E6ECEF"/>
<mask id="path-2-inside-1_172_1774" fill="white">
<path d="M256 0L264 8V64L256 72H8L0 64V8L8 0H256Z"/>
</mask>
<path d="M256 0L257.414 -1.41421L256.828 -2H256V0ZM264 8H266V7.17157L265.414 6.58579L264 8ZM264 64L265.414 65.4142L266 64.8284V64H264ZM256 72V74H256.828L257.414 73.4142L256 72ZM8 72L6.58579 73.4142L7.17157 74H8V72ZM0 64H-2V64.8284L-1.41421 65.4142L0 64ZM0 8L-1.41421 6.58579L-2 7.17157V8H0ZM8 0V-2H7.17157L6.58579 -1.41421L8 0ZM256 0L254.586 1.41421L262.586 9.41421L264 8L265.414 6.58579L257.414 -1.41421L256 0ZM264 8H262V64H264H266V8H264ZM264 64L262.586 62.5858L254.586 70.5858L256 72L257.414 73.4142L265.414 65.4142L264 64ZM256 72V70H8V72V74H256V72ZM8 72L9.41421 70.5858L1.41421 62.5858L0 64L-1.41421 65.4142L6.58579 73.4142L8 72ZM0 64H2V8H0H-2V64H0ZM0 8L1.41421 9.41421L9.41421 1.41421L8 0L6.58579 -1.41421L-1.41421 6.58579L0 8ZM8 0V2H256V0V-2H8V0Z" fill="#E6ECEF" mask="url(#path-2-inside-1_172_1774)"/>
<mask id="path-4-inside-2_172_1774" fill="white">
<path d="M260 10V62L254.431 67.5693H9.56934L4 62V10L9.56934 4.43066H254.431L260 10Z"/>
</mask>
<path d="M260 10H261V9.58579L260.707 9.29289L260 10ZM260 62L260.707 62.7071L261 62.4142V62H260ZM254.431 67.5693V68.5693H254.845L255.138 68.2764L254.431 67.5693ZM9.56934 67.5693L8.86223 68.2764L9.15512 68.5693H9.56934V67.5693ZM4 62H3V62.4142L3.29289 62.7071L4 62ZM4 10L3.29289 9.29289L3 9.58579V10H4ZM9.56934 4.43066V3.43066H9.15512L8.86223 3.72356L9.56934 4.43066ZM254.431 4.43066L255.138 3.72356L254.845 3.43066H254.431V4.43066ZM260 10H259V62H260H261V10H260ZM260 62L259.293 61.2929L253.724 66.8622L254.431 67.5693L255.138 68.2764L260.707 62.7071L260 62ZM254.431 67.5693V66.5693H9.56934V67.5693V68.5693H254.431V67.5693ZM9.56934 67.5693L10.2764 66.8622L4.70711 61.2929L4 62L3.29289 62.7071L8.86223 68.2764L9.56934 67.5693ZM4 62H5V10H4H3V62H4ZM4 10L4.70711 10.7071L10.2764 5.13777L9.56934 4.43066L8.86223 3.72356L3.29289 9.29289L4 10ZM9.56934 4.43066V5.43066H254.431V4.43066V3.43066H9.56934V4.43066ZM254.431 4.43066L253.724 5.13777L259.293 10.7071L260 10L260.707 9.29289L255.138 3.72356L254.431 4.43066Z" fill="#E6ECEF" mask="url(#path-4-inside-2_172_1774)"/>
</g>
<defs>
<clipPath id="clip0_172_1774">
<rect width="264" height="72" fill="white"/>
</clipPath>
</defs>
</svg> -->
<svg width="242" height="67" viewBox="0 0 242 67" fill="none" xmlns="http://www.w3.org/2000/svg">
<g clip-path="url(#clip0_1124_1404)">
<path d="M99.2857 24.7045V26.6166H93.6568C93.8717 28.4535 96.2457 30.1937 99.9947 30.6342L99.0924 32.5248C95.6119 32.1058 93.0445 30.5697 92.0025 28.475C90.9605 30.559 88.4146 32.1058 84.9342 32.5248L84.0533 30.6342C87.8023 30.1937 90.1441 28.4427 90.3697 26.6166H84.7838V24.7045H99.2857ZM83.151 35.5326V33.599H100.897V35.5326H93.399V39.0775H91.0357V35.5326H83.151ZM85.2994 42.8588V37.2943H87.6842V40.9252H98.942V42.8588H85.2994ZM117.792 23.8236V43.267H115.386V23.8236H117.792ZM102.667 38.6908V25.4135H105.052V30.2689H109.757V25.4135H112.121V38.6908H102.667ZM105.052 36.7357H109.757V32.1381H105.052V36.7357ZM142.474 32.7396V34.6732H134.782V36.306C138.252 36.5316 140.314 37.7347 140.325 39.7435C140.314 41.9779 137.779 43.224 133.601 43.224C129.357 43.224 126.833 41.9779 126.833 39.7435C126.833 37.7347 128.896 36.5209 132.419 36.2953V34.6732H124.771V32.7396H142.474ZM125.63 29.9681C129.196 29.6351 131.527 28.1849 131.925 26.5951H126.382V24.683H140.884V26.5951H135.287C135.674 28.1957 137.983 29.6351 141.636 29.9681L140.798 31.8588C137.264 31.4935 134.653 30.0863 133.601 28.1205C132.548 30.0863 129.97 31.4935 126.446 31.8588L125.63 29.9681ZM129.261 39.7435C129.25 40.8177 130.775 41.4086 133.601 41.3978C136.383 41.4086 137.919 40.8177 137.94 39.7435C137.919 38.6693 136.383 38.1 133.601 38.0892C130.775 38.1 129.25 38.6693 129.261 39.7435ZM145.597 41.5052C144.674 41.5052 143.911 40.7533 143.922 39.8295C143.911 38.9271 144.674 38.1859 145.597 38.1752C146.489 38.1859 147.252 38.9271 147.252 39.8295C147.252 40.7533 146.489 41.5052 145.597 41.5052ZM151.042 41.5052C150.118 41.5052 149.355 40.7533 149.366 39.8295C149.355 38.9271 150.118 38.1859 151.042 38.1752C151.933 38.1859 152.696 38.9271 152.696 39.8295C152.696 40.7533 151.933 41.5052 151.042 41.5052ZM156.486 41.5052C155.562 41.5052 154.799 40.7533 154.81 39.8295C154.799 38.9271 155.562 38.1859 156.486 38.1752C157.377 38.1859 158.14 38.9271 158.14 39.8295C158.14 40.7533 157.377 41.5052 156.486 41.5052Z" fill="#99BCBE"/>
<mask id="path-2-inside-1_1124_1404" fill="white">
<path d="M234.667 0.333374L242 7.66638V59.0004L234.667 66.3334H7.33301L0 59.0004V7.66638L7.33301 0.333374H234.667Z"/>
</mask>
<path d="M234.667 0.333374L235.963 -0.962988L235.426 -1.49996H234.667V0.333374ZM242 7.66638H243.833V6.90699L243.296 6.37002L242 7.66638ZM242 59.0004L243.296 60.2967L243.833 59.7598V59.0004H242ZM234.667 66.3334V68.1667H235.426L235.963 67.6297L234.667 66.3334ZM7.33301 66.3334L6.03665 67.6297L6.57362 68.1667H7.33301V66.3334ZM0 59.0004H-1.83333V59.7598L-1.29636 60.2967L0 59.0004ZM0 7.66638L-1.29636 6.37002L-1.83333 6.90699V7.66638H0ZM7.33301 0.333374V-1.49996H6.57362L6.03665 -0.962988L7.33301 0.333374ZM234.667 0.333374L233.371 1.62974L240.704 8.96274L242 7.66638L243.296 6.37002L235.963 -0.962988L234.667 0.333374ZM242 7.66638H240.167V59.0004H242H243.833V7.66638H242ZM242 59.0004L240.704 57.704L233.371 65.037L234.667 66.3334L235.963 67.6297L243.296 60.2967L242 59.0004ZM234.667 66.3334V64.5H7.33301V66.3334V68.1667H234.667V66.3334ZM7.33301 66.3334L8.62937 65.037L1.29636 57.704L0 59.0004L-1.29636 60.2967L6.03665 67.6297L7.33301 66.3334ZM0 59.0004H1.83333V7.66638H0H-1.83333V59.0004H0ZM0 7.66638L1.29636 8.96274L8.62937 1.62974L7.33301 0.333374L6.03665 -0.962988L-1.29636 6.37002L0 7.66638ZM7.33301 0.333374V2.16671H234.667V0.333374V-1.49996H7.33301V0.333374Z" fill="#99BCBE" mask="url(#path-2-inside-1_1124_1404)"/>
<mask id="path-4-inside-2_1124_1404" fill="white">
<path d="M238.333 9.49927V57.1682L233.229 62.2717H8.77051L3.66602 57.1672V9.50024L8.77148 4.39478H233.229L238.333 9.49927Z"/>
</mask>
<path d="M238.333 9.49927H239.25V9.11957L238.981 8.85109L238.333 9.49927ZM238.333 57.1682L238.981 57.8164L239.25 57.5479V57.1682H238.333ZM233.229 62.2717V63.1884H233.609L233.878 62.9199L233.229 62.2717ZM8.77051 62.2717L8.12233 62.9199L8.39081 63.1884H8.77051V62.2717ZM3.66602 57.1672H2.74935V57.5469L3.01783 57.8154L3.66602 57.1672ZM3.66602 9.50024L3.01783 8.85206L2.74935 9.12055V9.50024H3.66602ZM8.77148 4.39478V3.47811H8.39179L8.1233 3.74659L8.77148 4.39478ZM233.229 4.39478L233.877 3.74659L233.608 3.47811H233.229V4.39478ZM238.333 9.49927H237.416V57.1682H238.333H239.25V9.49927H238.333ZM238.333 57.1682L237.685 56.52L232.581 61.6235L233.229 62.2717L233.878 62.9199L238.981 57.8164L238.333 57.1682ZM233.229 62.2717V61.3551H8.77051V62.2717V63.1884H233.229V62.2717ZM8.77051 62.2717L9.41869 61.6235L4.3142 56.5191L3.66602 57.1672L3.01783 57.8154L8.12233 62.9199L8.77051 62.2717ZM3.66602 57.1672H4.58268V9.50024H3.66602H2.74935V57.1672H3.66602ZM3.66602 9.50024L4.3142 10.1484L9.41967 5.04296L8.77148 4.39478L8.1233 3.74659L3.01783 8.85206L3.66602 9.50024ZM8.77148 4.39478V5.31144H233.229V4.39478V3.47811H8.77148V4.39478ZM233.229 4.39478L232.58 5.04296L237.685 10.1474L238.333 9.49927L238.981 8.85109L233.877 3.74659L233.229 4.39478Z" fill="#99BCBE" mask="url(#path-4-inside-2_1124_1404)"/>
</g>
<defs>
<clipPath id="clip0_1124_1404">
<rect width="242" height="66" fill="white" transform="translate(0 0.333374)"/>
</clipPath>
</defs>
</svg>
