<svg width="264" height="72" viewBox="0 0 264 72" fill="none" xmlns="http://www.w3.org/2000/svg">
<g clip-path="url(#clip0_157_2041)">
<mask id="path-1-inside-1_157_2041" fill="white">
<path d="M256 0L264 8V64L256 72H8L0 64V8L8 0H256Z"/>
</mask>
<path d="M256 0L257.414 -1.41421L256.828 -2H256V0ZM264 8H266V7.17157L265.414 6.58579L264 8ZM264 64L265.414 65.4142L266 64.8284V64H264ZM256 72V74H256.828L257.414 73.4142L256 72ZM8 72L6.58579 73.4142L7.17157 74H8V72ZM0 64H-2V64.8284L-1.41421 65.4142L0 64ZM0 8L-1.41421 6.58579L-2 7.17157V8H0ZM8 0V-2H7.17157L6.58579 -1.41421L8 0ZM256 0L254.586 1.41421L262.586 9.41421L264 8L265.414 6.58579L257.414 -1.41421L256 0ZM264 8H262V64H264H266V8H264ZM264 64L262.586 62.5858L254.586 70.5858L256 72L257.414 73.4142L265.414 65.4142L264 64ZM256 72V70H8V72V74H256V72ZM8 72L9.41421 70.5858L1.41421 62.5858L0 64L-1.41421 65.4142L6.58579 73.4142L8 72ZM0 64H2V8H0H-2V64H0ZM0 8L1.41421 9.41421L9.41421 1.41421L8 0L6.58579 -1.41421L-1.41421 6.58579L0 8ZM8 0V2H256V0V-2H8V0Z" fill="#E6ECEF" mask="url(#path-1-inside-1_157_2041)"/>
<path d="M88.3289 45L84.7195 32.2734H87.7664L90.0164 41.2266H90.1336L92.407 32.2734H95.4305L97.7273 41.1797H97.8445L100.071 32.2734H103.118L99.5086 45H96.3914L94.0008 36.375H93.8367L91.4461 45H88.3289ZM103.83 41.4141C103.83 38.5547 106.209 37.7227 108.565 37.5703C109.455 37.5 111.272 37.418 111.834 37.3945L111.823 36.375C111.823 35.1094 111.014 34.3828 109.526 34.3828C108.19 34.3828 107.37 34.9922 107.135 35.9062H104.252C104.463 33.7383 106.409 32.1094 109.596 32.1094C112.01 32.1094 114.799 33.1055 114.799 36.4922V45H111.94V43.2422H111.846C111.284 44.3203 110.1 45.2578 108.096 45.2578C105.67 45.2578 103.83 43.9336 103.83 41.4141ZM106.713 41.3906C106.713 42.4922 107.616 43.0547 108.87 43.0547C110.686 43.0547 111.846 41.8594 111.846 40.4297L111.834 39.3867C111.295 39.4102 109.631 39.5156 109.034 39.5625C107.616 39.6797 106.713 40.2773 106.713 41.3906ZM117.012 45V32.2734H120.012V45H117.012ZM116.801 28.8281C116.801 27.9375 117.586 27.2109 118.535 27.2109C119.484 27.2109 120.27 27.9375 120.27 28.8281C120.27 29.7305 119.484 30.457 118.535 30.4688C117.586 30.457 116.801 29.7305 116.801 28.8281ZM128.623 32.2734V34.5703H126.115V41.1797C126.115 42.3984 126.724 42.6445 127.474 42.6562C127.826 42.668 128.412 42.6328 128.787 42.6094V45.0469C128.435 45.1055 127.861 45.1758 127.099 45.1641C124.849 45.1758 123.115 44.0625 123.138 41.6719V34.5703H121.31V32.2734H123.138V29.2266H126.115V32.2734H128.623ZM130.32 45V32.2734H133.32V45H130.32ZM130.109 28.8281C130.109 27.9375 130.894 27.2109 131.843 27.2109C132.792 27.2109 133.577 27.9375 133.577 28.8281C133.577 29.7305 132.792 30.457 131.843 30.4688C130.894 30.457 130.109 29.7305 130.109 28.8281ZM138.579 37.5469V45H135.579V32.2734H138.438V34.4297H138.602C139.177 33.0117 140.477 32.1094 142.376 32.1094C145.013 32.1094 146.747 33.8438 146.735 36.8906V45H143.759V37.3594C143.759 35.6484 142.833 34.6289 141.274 34.6406C139.692 34.6289 138.579 35.6953 138.579 37.5469ZM154.549 50.0391C151.174 50.0391 149.03 48.5391 148.83 46.1484H151.807C152.018 47.2617 153.061 47.7773 154.596 47.7891C156.389 47.7773 157.549 47.0039 157.549 45.1406V42.7031H157.409C156.94 43.6406 155.92 44.8125 153.729 44.8125C150.788 44.8125 148.479 42.6797 148.479 38.5312C148.479 34.3477 150.799 32.1094 153.752 32.1094C155.991 32.1094 156.94 33.457 157.409 34.3594H157.549V32.2734H160.502V45.2109C160.502 48.4688 157.983 50.0391 154.549 50.0391ZM151.526 38.5781C151.526 40.9219 152.58 42.4688 154.549 42.4688C156.483 42.4688 157.573 41.0156 157.573 38.5781C157.573 36.1523 156.495 34.5586 154.549 34.5469C152.557 34.5586 151.526 36.2578 151.526 38.5781ZM164.613 45.1875C163.605 45.1875 162.773 44.3672 162.785 43.3594C162.773 42.375 163.605 41.5664 164.613 41.5547C165.586 41.5664 166.418 42.375 166.418 43.3594C166.418 44.3672 165.586 45.1875 164.613 45.1875ZM170.552 45.1875C169.545 45.1875 168.712 44.3672 168.724 43.3594C168.712 42.375 169.545 41.5664 170.552 41.5547C171.525 41.5664 172.357 42.375 172.357 43.3594C172.357 44.3672 171.525 45.1875 170.552 45.1875ZM176.491 45.1875C175.484 45.1875 174.652 44.3672 174.663 43.3594C174.652 42.375 175.484 41.5664 176.491 41.5547C177.464 41.5664 178.296 42.375 178.296 43.3594C178.296 44.3672 177.464 45.1875 176.491 45.1875Z" fill="#E6ECEF"/>
<mask id="path-4-inside-2_157_2041" fill="white">
<path d="M260 10V62L254.431 67.5693H9.56934L4 62V10L9.56934 4.43066H254.431L260 10Z"/>
</mask>
<path d="M260 10H261V9.58579L260.707 9.29289L260 10ZM260 62L260.707 62.7071L261 62.4142V62H260ZM254.431 67.5693V68.5693H254.845L255.138 68.2764L254.431 67.5693ZM9.56934 67.5693L8.86223 68.2764L9.15512 68.5693H9.56934V67.5693ZM4 62H3V62.4142L3.29289 62.7071L4 62ZM4 10L3.29289 9.29289L3 9.58579V10H4ZM9.56934 4.43066V3.43066H9.15512L8.86223 3.72356L9.56934 4.43066ZM254.431 4.43066L255.138 3.72356L254.845 3.43066H254.431V4.43066ZM260 10H259V62H260H261V10H260ZM260 62L259.293 61.2929L253.724 66.8622L254.431 67.5693L255.138 68.2764L260.707 62.7071L260 62ZM254.431 67.5693V66.5693H9.56934V67.5693V68.5693H254.431V67.5693ZM9.56934 67.5693L10.2764 66.8622L4.70711 61.2929L4 62L3.29289 62.7071L8.86223 68.2764L9.56934 67.5693ZM4 62H5V10H4H3V62H4ZM4 10L4.70711 10.7071L10.2764 5.13777L9.56934 4.43066L8.86223 3.72356L3.29289 9.29289L4 10ZM9.56934 4.43066V5.43066H254.431V4.43066V3.43066H9.56934V4.43066ZM254.431 4.43066L253.724 5.13777L259.293 10.7071L260 10L260.707 9.29289L255.138 3.72356L254.431 4.43066Z" fill="#E6ECEF" mask="url(#path-4-inside-2_157_2041)"/>
</g>
<defs>
<clipPath id="clip0_157_2041">
<rect width="264" height="72" fill="white"/>
</clipPath>
</defs>
</svg>
