<svg width="264" height="336" viewBox="0 0 264 336" fill="none" xmlns="http://www.w3.org/2000/svg">
<g clip-path="url(#clip0_2573_13447)">
<rect width="264" height="264" fill="#8A6262"/>
<path d="M43.9827 270.532C42.5277 271.987 41.5478 272.967 39.6452 274.167C39.2192 274.167 37.974 275.603 38.4 275.603C39.7104 275.603 40.9627 275.586 42.2473 275.907C50.513 277.973 58.4764 278.764 66.9756 278.764C78.5032 278.764 90.0289 278.429 101.522 277.615C112.918 276.808 124.124 276.235 135.557 276.178C142.406 276.144 149.274 275.783 156.119 275.54C164.726 275.233 173.197 273.912 181.837 274.039C190.513 274.167 198.743 275.217 207.315 276.465L207.394 276.477C214.154 277.462 220.866 278.44 227.701 278.7C231.491 278.845 235.02 278.795 238.717 277.966C240.983 277.458 243.464 277.447 245.39 276.003C247.126 274.7 248.773 271.349 247.545 269.138C245.613 265.662 240.94 264.493 237.695 262.736C235.621 261.614 233.52 260.947 231.373 260.023C229.876 259.378 228.608 258.308 227.127 257.644C222.054 255.37 218.37 249.12 212.488 248.608C210.056 248.397 208.02 246.993 205.671 246.421C202.167 245.568 198.85 244.378 195.422 243.276C193.717 242.728 191.822 242.476 190.218 241.632C188.418 240.685 188.588 237.723 187.919 236.013C187.462 234.844 187.136 233.33 186.482 232.277C185.937 231.398 185.187 230.661 184.63 229.787C184.118 228.981 183.309 228.553 182.906 227.632C182.629 226.997 182.358 226.417 181.885 225.891C179.946 223.737 179.503 220.868 177.351 218.931C176.613 218.267 175.723 218.651 174.86 218.404C174.117 218.192 173.845 216.721 173.615 216.058C173.04 214.397 172.372 213.031 171.971 211.268C171.297 208.304 171.54 205.223 171.54 202.201C171.54 196.447 172.536 190.925 172.993 185.215C173.094 183.95 173.264 182.778 173.264 181.495C173.264 180.173 173.795 178.983 173.839 177.68C173.893 176.068 173.875 174.242 174.19 172.667C174.714 170.047 176.561 167.277 177.878 164.973C179.131 162.78 180.727 160.903 181.885 158.651C183.164 156.163 184.467 153.79 185.493 151.18C186.659 148.211 187.205 145.353 188.063 142.304C189.127 138.521 189.008 134.452 189.068 130.554C189.094 128.914 189.643 127.394 189.643 125.733V121.551C189.643 115.419 189.503 109.414 189.053 103.336C188.77 99.5274 188.129 95.3647 186.626 91.8575C186.019 90.4401 184.824 89.2939 184.056 87.9623C183.207 86.4904 183.247 84.9259 182.747 83.3646C182.133 81.4527 181.546 79.3899 180.448 77.6814C177.948 73.7928 177.482 68.6177 174.126 65.2614C173.032 64.1676 171.897 62.9847 170.678 62.0367C169.708 61.2824 168.469 60.7528 167.677 59.8017C166.407 58.2783 164.148 56.7223 162.456 55.6191C160.637 54.4328 158.618 53.3941 156.885 52.1071C155.623 51.1693 155.045 51.2771 154.57 49.6167C154.498 49.3652 154.707 49.0823 154.554 48.7387C154.192 47.9232 152.694 47.6798 152.128 46.9347C151.369 45.9363 148.937 45.8294 147.817 45.4341C146.245 44.879 144.582 44.2335 142.821 44.0133C141.403 43.8361 139.635 43.7217 138.335 43.0714C137.6 42.704 136.118 41.9859 135.318 41.9859C133.409 41.9859 132.037 40.3628 130.385 39.7509C129.151 39.294 128.126 38.6237 127.112 37.8352C125.966 36.9435 123.255 37.3882 121.892 37.3882C117.841 37.3882 113.809 37.6756 109.775 37.6756C107.569 37.6756 105.69 39.2116 103.853 40.2618C101.16 41.8004 98.0798 42.9629 95.1681 43.9335C94.1961 44.2575 92.912 45.2395 92.087 45.8811C91.3913 46.4222 90.0278 47.3049 89.5807 48.0203C89.0236 48.9115 86.7427 49.5855 85.7812 49.7603C85.0343 49.8962 83.8035 50.5678 83.1791 51.0534C81.0352 52.7209 79.3121 54.6171 77.432 56.4972C76.201 57.7282 74.6492 58.2629 73.2654 59.2909C71.6731 60.4737 70.0779 61.6264 68.5241 62.8349C67.2492 63.8265 66.5974 65.2281 65.922 66.6982C65.2138 68.2395 65.675 69.6634 64.5171 71.1521C64.0103 71.8038 63.3215 72.6769 62.9846 73.435C62.4493 74.6394 62.6775 76.2541 61.7713 77.3302C59.6638 79.8329 60.7856 83.0691 59.4087 85.8231C58.3881 87.8642 58.5121 90.6266 57.9719 92.8473C57.7116 93.9174 57.4908 95.1934 57.461 96.2955C57.4321 97.367 56.9802 98.2604 56.9023 99.3127C56.6464 102.768 56.3116 106.069 56.3116 109.578V117.879C56.3116 119.738 55.8062 122.56 56.6149 124.312C57.0743 125.308 58.1549 126.088 58.7382 127.042C59.2806 127.93 59.592 128.978 60.0472 129.916C60.807 131.48 61.3721 133.251 61.4999 134.976C61.582 136.084 61.7565 137.191 62.0587 138.249C62.2725 138.997 62.9465 139.513 63.1442 140.26C63.4072 141.254 63.8444 142.128 64.0861 142.974C64.207 143.397 64.6449 143.108 64.6449 143.852C64.6449 144.302 64.6937 144.581 64.4214 144.922C64.1495 145.262 64.4867 145.719 64.134 146.071C63.8815 146.324 63.6221 146.653 63.3518 146.87C61.8574 148.065 64.8405 153.783 65.2834 154.979C66.358 157.881 67.6946 160.568 68.7316 163.472C69.7051 166.198 70.8456 168.893 72.2597 171.438C72.7661 172.35 73.0348 172.992 73.904 173.593C74.7665 174.19 75.9049 174.336 76.1549 175.461C76.4653 176.858 77.1469 179.628 79.0125 179.628C80.7339 179.628 81.5963 182.081 82.2372 183.363C83.6649 186.219 85.2618 187.975 87.0583 190.528C90.1496 194.921 89.5363 198.65 90.4427 204.741C91.0972 209.139 91.656 213.682 91.656 217.989C91.656 220.209 91.5374 223.059 90.4427 225.029C89.9414 225.932 89.1423 226.983 88.3514 227.616C87.6294 228.193 87.5245 229.508 87.0583 230.266C85.6494 232.555 84.503 235.048 83.1791 237.401L83.1768 237.406C82.2519 239.05 81.3113 240.722 80.4492 242.398C79.6513 243.95 78.2382 245.755 77.8631 247.443C77.2147 250.36 74.9964 252.578 72.9499 254.623L72.8184 254.754C71.2808 256.292 68.7594 257.04 66.6882 257.5C65.7038 257.719 64.4939 258.075 63.4954 258.075C62.6386 258.075 61.937 258.562 61.1966 258.65C60.0912 258.78 59.4981 260.49 58.4668 260.948C57.5473 261.357 56.8994 262.172 56.2478 262.896C55.1431 264.123 52.2849 264.254 50.7242 264.7C49.3241 265.1 48.0221 267.09 46.7013 267.845C45.8208 268.348 44.7618 269.752 44.0193 270.495L43.9827 270.532Z" fill="#E6ECEF"/>
</g>
<rect width="264" height="64" transform="translate(0 272)" fill="#8A6262"/>
<path d="M73.9711 296.031V313H71.2523L63.2133 301.398H63.0727V313H60.0258V296.031H62.7914L70.7836 307.633H70.9477V296.031H73.9711ZM82.0195 313.258C78.1875 313.258 75.832 310.703 75.832 306.719C75.832 302.781 78.2227 300.109 81.8555 300.109C84.9727 300.109 87.668 302.066 87.668 306.531V307.469H78.7852C78.832 309.637 80.1094 310.926 82.043 310.914C83.3555 310.926 84.2344 310.363 84.6211 309.602H87.5508C87.0117 311.805 84.9727 313.258 82.0195 313.258ZM78.7969 305.43H84.8086C84.7969 303.695 83.625 302.43 81.9023 302.43C80.1094 302.43 78.9023 303.812 78.7969 305.43ZM91.9664 313L88.357 300.273H91.4039L93.6539 309.227H93.7711L96.0445 300.273H99.068L101.365 309.18H101.482L103.709 300.273H106.755L103.146 313H100.029L97.6383 304.375H97.4742L95.0836 313H91.9664ZM122.524 300.695C122.372 299.23 121.141 298.387 119.313 298.398C117.38 298.387 116.231 299.324 116.22 300.602C116.208 302.031 117.72 302.617 119.126 302.945L120.72 303.367C123.251 303.953 125.688 305.289 125.688 308.242C125.688 311.219 123.333 313.258 119.266 313.258C115.317 313.258 112.809 311.359 112.68 308.008H115.68C115.821 309.777 117.309 310.645 119.243 310.656C121.247 310.645 122.63 309.672 122.641 308.219C122.63 306.883 121.411 306.32 119.571 305.852L117.649 305.359C114.86 304.633 113.126 303.227 113.126 300.789C113.126 297.789 115.786 295.797 119.36 295.797C122.958 295.797 125.407 297.824 125.454 300.695H122.524ZM133.034 313.258C129.319 313.258 126.94 310.621 126.94 306.695C126.94 302.734 129.319 300.109 133.034 300.109C136.76 300.109 139.139 302.734 139.127 306.695C139.139 310.621 136.76 313.258 133.034 313.258ZM129.963 306.672C129.963 309.004 130.983 310.867 133.057 310.867C135.096 310.867 136.116 309.004 136.104 306.672C136.116 304.34 135.096 302.465 133.057 302.477C130.983 302.465 129.963 304.34 129.963 306.672ZM143.848 296.031V313H140.848V296.031H143.848ZM150.841 313.234C147.853 313.223 145.591 310.832 145.591 306.648C145.591 302.406 147.912 300.109 150.865 300.109C153.103 300.109 154.041 301.457 154.498 302.359H154.615V296.031H157.591V313H154.662V310.984H154.498C154.017 311.922 153.045 313.223 150.841 313.234ZM148.638 306.625C148.638 309.027 149.693 310.773 151.662 310.773C153.595 310.773 154.685 309.109 154.685 306.625C154.685 304.152 153.607 302.559 151.662 302.547C149.67 302.559 148.638 304.258 148.638 306.625ZM160.015 313V300.273H163.015V313H160.015ZM159.804 296.828C159.804 295.938 160.589 295.211 161.538 295.211C162.487 295.211 163.273 295.938 163.273 296.828C163.273 297.73 162.487 298.457 161.538 298.469C160.589 298.457 159.804 297.73 159.804 296.828ZM170.923 313.258C167.091 313.258 164.735 310.703 164.735 306.719C164.735 302.781 167.126 300.109 170.759 300.109C173.876 300.109 176.571 302.066 176.571 306.531V307.469H167.688C167.735 309.637 169.012 310.926 170.946 310.914C172.259 310.926 173.137 310.363 173.524 309.602H176.454C175.915 311.805 173.876 313.258 170.923 313.258ZM167.7 305.43H173.712C173.7 303.695 172.528 302.43 170.805 302.43C169.012 302.43 167.805 303.812 167.7 305.43ZM178.291 313V300.273H181.198V302.383H181.338C181.795 300.918 183.014 300.086 184.479 300.086C184.807 300.086 185.276 300.121 185.557 300.156V302.922C185.287 302.828 184.666 302.746 184.174 302.734C182.51 302.746 181.291 303.895 181.291 305.5V313H178.291ZM191.974 313V296.031H198.466C202.146 296.031 203.962 297.906 203.974 300.438C203.962 302.5 202.662 303.648 200.998 304.047V304.211C202.802 304.305 204.63 305.805 204.63 308.383C204.63 311.02 202.72 313 198.841 313H191.974ZM195.021 310.445H198.373C200.599 310.445 201.525 309.496 201.537 308.148C201.525 306.625 200.341 305.465 198.443 305.453H195.021V310.445ZM195.021 303.25H198.091C199.697 303.25 200.916 302.324 200.927 300.812C200.916 299.512 199.978 298.562 198.162 298.562H195.021V303.25Z" fill="#E6ECEF"/>
<defs>
<clipPath id="clip0_2573_13447">
<rect width="264" height="264" fill="white"/>
</clipPath>
</defs>
</svg>
