<svg width="264" height="336" viewBox="0 0 264 336" fill="none" xmlns="http://www.w3.org/2000/svg">
<g clip-path="url(#clip0_2573_13349)">
<rect width="264" height="264" fill="#8A6262"/>
<path d="M43.9827 270.532C42.5277 271.987 41.5478 272.967 39.6452 274.167C39.2192 274.167 37.974 275.603 38.4 275.603C39.7104 275.603 40.9627 275.586 42.2473 275.907C50.513 277.973 58.4764 278.764 66.9756 278.764C78.5032 278.764 90.0289 278.429 101.522 277.615C112.918 276.808 124.124 276.235 135.557 276.178C142.406 276.144 149.274 275.783 156.119 275.54C164.726 275.233 173.197 273.912 181.837 274.039C190.513 274.167 198.743 275.217 207.315 276.465L207.394 276.477C214.154 277.462 220.866 278.44 227.701 278.7C231.491 278.845 235.02 278.795 238.717 277.966C240.983 277.458 243.464 277.447 245.39 276.003C247.126 274.7 248.773 271.349 247.545 269.138C245.613 265.662 240.94 264.493 237.695 262.736C235.621 261.614 233.52 260.947 231.373 260.023C229.876 259.378 228.608 258.308 227.127 257.644C222.054 255.37 218.37 249.12 212.488 248.608C210.056 248.397 208.02 246.993 205.671 246.421C202.167 245.568 198.85 244.378 195.422 243.276C193.717 242.728 191.822 242.476 190.218 241.632C188.418 240.685 188.588 237.723 187.919 236.013C187.462 234.844 187.136 233.33 186.482 232.277C185.937 231.398 185.187 230.661 184.63 229.787C184.118 228.981 183.309 228.553 182.906 227.632C182.629 226.997 182.358 226.417 181.885 225.891C179.946 223.737 179.503 220.868 177.351 218.931C176.613 218.267 175.723 218.651 174.86 218.404C174.117 218.192 173.845 216.721 173.615 216.058C173.04 214.397 172.372 213.031 171.971 211.268C171.297 208.304 171.54 205.223 171.54 202.201C171.54 196.447 172.536 190.925 172.993 185.215C173.094 183.95 173.264 182.778 173.264 181.495C173.264 180.173 173.795 178.983 173.839 177.68C173.893 176.068 173.875 174.242 174.19 172.667C174.714 170.047 176.561 167.277 177.878 164.973C179.131 162.78 180.727 160.903 181.885 158.651C183.164 156.163 184.467 153.79 185.493 151.18C186.659 148.211 187.205 145.353 188.063 142.304C189.127 138.521 189.008 134.452 189.068 130.554C189.094 128.914 189.643 127.394 189.643 125.733V121.551C189.643 115.419 189.503 109.414 189.053 103.336C188.77 99.5274 188.129 95.3647 186.626 91.8575C186.019 90.4401 184.824 89.2939 184.056 87.9623C183.207 86.4904 183.247 84.9259 182.747 83.3646C182.133 81.4527 181.546 79.3899 180.448 77.6814C177.948 73.7928 177.482 68.6177 174.126 65.2614C173.032 64.1676 171.897 62.9847 170.678 62.0367C169.708 61.2824 168.469 60.7528 167.677 59.8017C166.407 58.2783 164.148 56.7223 162.456 55.6191C160.637 54.4328 158.618 53.3941 156.885 52.1071C155.623 51.1693 155.045 51.2771 154.57 49.6167C154.498 49.3652 154.707 49.0823 154.554 48.7387C154.192 47.9232 152.694 47.6798 152.128 46.9347C151.369 45.9363 148.937 45.8294 147.817 45.4341C146.245 44.879 144.582 44.2335 142.821 44.0133C141.403 43.8361 139.635 43.7217 138.335 43.0714C137.6 42.704 136.118 41.9859 135.318 41.9859C133.409 41.9859 132.037 40.3628 130.385 39.7509C129.151 39.294 128.126 38.6237 127.112 37.8352C125.966 36.9435 123.255 37.3882 121.892 37.3882C117.841 37.3882 113.809 37.6756 109.775 37.6756C107.569 37.6756 105.69 39.2116 103.853 40.2618C101.16 41.8004 98.0798 42.9629 95.1681 43.9335C94.1961 44.2575 92.912 45.2395 92.087 45.8811C91.3913 46.4222 90.0278 47.3049 89.5807 48.0203C89.0236 48.9115 86.7427 49.5855 85.7812 49.7603C85.0343 49.8962 83.8035 50.5678 83.1791 51.0534C81.0352 52.7209 79.3121 54.6171 77.432 56.4972C76.201 57.7282 74.6492 58.2629 73.2654 59.2909C71.6731 60.4737 70.0779 61.6264 68.5241 62.8349C67.2492 63.8265 66.5974 65.2281 65.922 66.6982C65.2138 68.2395 65.675 69.6634 64.5171 71.1521C64.0103 71.8038 63.3215 72.6769 62.9846 73.435C62.4493 74.6394 62.6775 76.2541 61.7713 77.3302C59.6638 79.8329 60.7856 83.0691 59.4087 85.8231C58.3881 87.8642 58.5121 90.6266 57.9719 92.8473C57.7116 93.9174 57.4908 95.1934 57.461 96.2955C57.4321 97.367 56.9802 98.2604 56.9023 99.3127C56.6464 102.768 56.3116 106.069 56.3116 109.578V117.879C56.3116 119.738 55.8062 122.56 56.6149 124.312C57.0743 125.308 58.1549 126.088 58.7382 127.042C59.2806 127.93 59.592 128.978 60.0472 129.916C60.807 131.48 61.3721 133.251 61.4999 134.976C61.582 136.084 61.7565 137.191 62.0587 138.249C62.2725 138.997 62.9465 139.513 63.1442 140.26C63.4072 141.254 63.8444 142.128 64.0861 142.974C64.207 143.397 64.6449 143.108 64.6449 143.852C64.6449 144.302 64.6937 144.581 64.4214 144.922C64.1495 145.262 64.4867 145.719 64.134 146.071C63.8815 146.324 63.6221 146.653 63.3518 146.87C61.8574 148.065 64.8405 153.783 65.2834 154.979C66.358 157.881 67.6946 160.568 68.7316 163.472C69.7051 166.198 70.8456 168.893 72.2597 171.438C72.7661 172.35 73.0348 172.992 73.904 173.593C74.7665 174.19 75.9049 174.336 76.1549 175.461C76.4653 176.858 77.1469 179.628 79.0125 179.628C80.7339 179.628 81.5963 182.081 82.2372 183.363C83.6649 186.219 85.2618 187.975 87.0583 190.528C90.1496 194.921 89.5363 198.65 90.4427 204.741C91.0972 209.139 91.656 213.682 91.656 217.989C91.656 220.209 91.5374 223.059 90.4427 225.029C89.9414 225.932 89.1423 226.983 88.3514 227.616C87.6294 228.193 87.5245 229.508 87.0583 230.266C85.6494 232.555 84.503 235.048 83.1791 237.401L83.1768 237.406C82.2519 239.05 81.3113 240.722 80.4492 242.398C79.6513 243.95 78.2382 245.755 77.8631 247.443C77.2147 250.36 74.9964 252.578 72.9499 254.623L72.8184 254.754C71.2808 256.292 68.7594 257.04 66.6882 257.5C65.7038 257.719 64.4939 258.075 63.4954 258.075C62.6386 258.075 61.937 258.562 61.1966 258.65C60.0912 258.78 59.4981 260.49 58.4668 260.948C57.5473 261.357 56.8994 262.172 56.2478 262.896C55.1431 264.123 52.2849 264.254 50.7242 264.7C49.3241 265.1 48.0221 267.09 46.7013 267.845C45.8208 268.348 44.7618 269.752 44.0193 270.495L43.9827 270.532Z" fill="#E6ECEF"/>
</g>
<rect width="264" height="64" transform="translate(0 272)" fill="#8A6262"/>
<path d="M48.7836 300V283.031H55.1586C59.0492 283.031 61.1234 285.211 61.1352 288.445C61.1234 290.754 60.0687 292.465 58.0766 293.273L61.7445 300H58.3461L55.018 293.789H51.8305V300H48.7836ZM51.8305 291.234H54.6898C56.9867 291.246 58.018 290.262 58.018 288.445C58.018 286.641 56.9867 285.586 54.6898 285.586H51.8305V291.234ZM68.3867 300.258C64.6719 300.258 62.293 297.621 62.293 293.695C62.293 289.734 64.6719 287.109 68.3867 287.109C72.1133 287.109 74.4922 289.734 74.4805 293.695C74.4922 297.621 72.1133 300.258 68.3867 300.258ZM65.3164 293.672C65.3164 296.004 66.3359 297.867 68.4102 297.867C70.4492 297.867 71.4687 296.004 71.457 293.672C71.4687 291.34 70.4492 289.465 68.4102 289.477C66.3359 289.465 65.3164 291.34 65.3164 293.672ZM76.3414 300V283.031H79.3414V289.359H79.4586C79.9156 288.457 80.8414 287.109 83.0914 287.109C86.0328 287.109 88.3531 289.406 88.3648 293.648C88.3531 297.832 86.1031 300.223 83.1148 300.234C80.9117 300.223 79.9273 298.922 79.4586 297.984H79.2711V300H76.3414ZM79.2711 293.625C79.2711 296.109 80.3609 297.773 82.2711 297.773C84.2633 297.773 85.3062 296.027 85.318 293.625C85.3062 291.258 84.2867 289.559 82.2711 289.547C80.3375 289.559 79.2711 291.152 79.2711 293.625ZM95.6633 300.258C91.9484 300.258 89.5695 297.621 89.5695 293.695C89.5695 289.734 91.9484 287.109 95.6633 287.109C99.3898 287.109 101.769 289.734 101.757 293.695C101.769 297.621 99.3898 300.258 95.6633 300.258ZM92.593 293.672C92.593 296.004 93.6125 297.867 95.6867 297.867C97.7258 297.867 98.7453 296.004 98.7336 293.672C98.7453 291.34 97.7258 289.465 95.6867 289.477C93.6125 289.465 92.593 291.34 92.593 293.672ZM109.829 287.273V289.57H107.321V296.18C107.321 297.398 107.93 297.645 108.68 297.656C109.032 297.668 109.618 297.633 109.993 297.609V300.047C109.641 300.105 109.067 300.176 108.305 300.164C106.055 300.176 104.321 299.062 104.345 296.672V289.57H102.516V287.273H104.345V284.227H107.321V287.273H109.829ZM128.199 288.75C127.836 286.711 126.207 285.539 124.145 285.539C121.367 285.539 119.398 287.672 119.41 291.516C119.398 295.418 121.379 297.492 124.145 297.492C126.16 297.492 127.789 296.367 128.199 294.375H131.27C130.801 297.633 128.117 300.234 124.098 300.234C119.621 300.234 116.328 296.988 116.34 291.516C116.328 286.031 119.656 282.797 124.098 282.797C127.848 282.797 130.742 284.977 131.27 288.75H128.199ZM138.709 300.258C134.994 300.258 132.615 297.621 132.615 293.695C132.615 289.734 134.994 287.109 138.709 287.109C142.435 287.109 144.814 289.734 144.802 293.695C144.814 297.621 142.435 300.258 138.709 300.258ZM135.638 293.672C135.638 296.004 136.658 297.867 138.732 297.867C140.771 297.867 141.791 296.004 141.779 293.672C141.791 291.34 140.771 289.465 138.732 289.477C136.658 289.465 135.638 291.34 135.638 293.672ZM146.523 300V287.273H149.382V289.43H149.546C150.073 287.977 151.351 287.109 153.038 287.109C154.761 287.109 156.003 287.988 156.484 289.43H156.624C157.175 288.023 158.593 287.109 160.445 287.109C162.777 287.109 164.417 288.609 164.405 291.445V300H161.429V291.914C161.429 290.332 160.468 289.617 159.249 289.617C157.784 289.617 156.929 290.613 156.929 292.055V300H154.023V291.797C154.011 290.473 153.144 289.617 151.866 289.617C150.577 289.617 149.523 290.684 149.523 292.266V300H146.523ZM166.665 304.781V287.273H169.595V289.359H169.782C170.239 288.457 171.177 287.109 173.438 287.109C176.368 287.109 178.677 289.406 178.688 293.648C178.677 297.832 176.438 300.223 173.438 300.234C171.247 300.223 170.251 298.922 169.782 297.984H169.665V304.781H166.665ZM169.595 293.625C169.606 296.109 170.684 297.773 172.618 297.773C174.598 297.773 175.641 296.027 175.641 293.625C175.641 291.258 174.622 289.559 172.618 289.547C170.661 289.559 169.606 291.152 169.595 293.625ZM179.846 296.414C179.846 293.555 182.225 292.723 184.58 292.57C185.471 292.5 187.288 292.418 187.85 292.395L187.838 291.375C187.838 290.109 187.03 289.383 185.541 289.383C184.205 289.383 183.385 289.992 183.151 290.906H180.268C180.479 288.738 182.424 287.109 185.612 287.109C188.026 287.109 190.815 288.105 190.815 291.492V300H187.955V298.242H187.862C187.299 299.32 186.116 300.258 184.112 300.258C181.686 300.258 179.846 298.934 179.846 296.414ZM182.729 296.391C182.729 297.492 183.631 298.055 184.885 298.055C186.702 298.055 187.862 296.859 187.862 295.43L187.85 294.387C187.311 294.41 185.647 294.516 185.049 294.562C183.631 294.68 182.729 295.277 182.729 296.391ZM196.027 292.547V300H193.027V287.273H195.887V289.43H196.051C196.625 288.012 197.926 287.109 199.824 287.109C202.461 287.109 204.195 288.844 204.184 291.891V300H201.207V292.359C201.207 290.648 200.281 289.629 198.723 289.641C197.141 289.629 196.027 290.695 196.027 292.547ZM207.779 304.781C207.181 304.77 206.619 304.758 206.232 304.711V302.32C206.595 302.355 207.099 302.355 207.498 302.367C208.224 302.355 208.834 302.309 209.349 300.938L209.607 300.258L204.966 287.273H208.13L211.084 296.883H211.224L214.177 287.273H217.341L212.232 301.547C211.505 303.574 210.17 304.77 207.779 304.781ZM53.8297 326V309.031H60.2047C64.0953 309.031 66.1695 311.211 66.1813 314.445C66.1695 316.754 65.1148 318.465 63.1227 319.273L66.7906 326H63.3922L60.0641 319.789H56.8766V326H53.8297ZM56.8766 317.234H59.7359C62.0328 317.246 63.0641 316.262 63.0641 314.445C63.0641 312.641 62.0328 311.586 59.7359 311.586H56.8766V317.234ZM73.5266 326.258C69.6945 326.258 67.3391 323.703 67.3391 319.719C67.3391 315.781 69.7297 313.109 73.3625 313.109C76.4797 313.109 79.175 315.066 79.175 319.531V320.469H70.2922C70.3391 322.637 71.6164 323.926 73.55 323.914C74.8625 323.926 75.7414 323.363 76.1281 322.602H79.0578C78.5188 324.805 76.4797 326.258 73.5266 326.258ZM70.3039 318.43H76.3156C76.3039 316.695 75.132 315.43 73.4094 315.43C71.6164 315.43 70.4094 316.812 70.3039 318.43ZM80.8953 330.781V313.273H83.825V315.359H84.0125C84.4695 314.457 85.407 313.109 87.6688 313.109C90.5984 313.109 92.907 315.406 92.9188 319.648C92.907 323.832 90.6688 326.223 87.6688 326.234C85.4773 326.223 84.4813 324.922 84.0125 323.984H83.8953V330.781H80.8953ZM83.825 319.625C83.8367 322.109 84.9148 323.773 86.8484 323.773C88.8289 323.773 89.8719 322.027 89.8719 319.625C89.8719 317.258 88.8523 315.559 86.8484 315.547C84.8914 315.559 83.8367 317.152 83.825 319.625ZM94.6625 326V313.273H97.5688V315.383H97.7094C98.1664 313.918 99.3852 313.086 100.85 313.086C101.178 313.086 101.647 313.121 101.928 313.156V315.922C101.659 315.828 101.038 315.746 100.545 315.734C98.8813 315.746 97.6625 316.895 97.6625 318.5V326H94.6625ZM108.336 326.258C104.504 326.258 102.148 323.703 102.148 319.719C102.148 315.781 104.539 313.109 108.172 313.109C111.289 313.109 113.984 315.066 113.984 319.531V320.469H105.102C105.148 322.637 106.426 323.926 108.359 323.914C109.672 323.926 110.551 323.363 110.938 322.602H113.867C113.328 324.805 111.289 326.258 108.336 326.258ZM105.113 318.43H111.125C111.113 316.695 109.941 315.43 108.219 315.43C106.426 315.43 105.219 316.812 105.113 318.43ZM122.923 316.906C122.736 315.945 121.939 315.324 120.673 315.336C119.396 315.324 118.459 315.969 118.47 316.836C118.459 317.492 118.986 317.984 120.275 318.289L122.431 318.734C124.834 319.262 126.005 320.375 126.017 322.203C126.005 324.594 123.908 326.258 120.58 326.258C117.345 326.258 115.435 324.805 115.119 322.367H118.166C118.341 323.457 119.185 323.996 120.58 323.984C122.021 323.996 122.959 323.41 122.97 322.461C122.959 321.723 122.384 321.254 121.119 320.984L119.08 320.539C116.713 320.059 115.482 318.816 115.494 317C115.482 314.645 117.521 313.109 120.627 313.109C123.662 313.109 125.537 314.598 125.759 316.906H122.923ZM133.339 326.258C129.507 326.258 127.152 323.703 127.152 319.719C127.152 315.781 129.542 313.109 133.175 313.109C136.292 313.109 138.988 315.066 138.988 319.531V320.469H130.105C130.152 322.637 131.429 323.926 133.363 323.914C134.675 323.926 135.554 323.363 135.941 322.602H138.87C138.331 324.805 136.292 326.258 133.339 326.258ZM130.116 318.43H136.128C136.116 316.695 134.945 315.43 133.222 315.43C131.429 315.43 130.222 316.812 130.116 318.43ZM143.708 318.547V326H140.708V313.273H143.567V315.43H143.731C144.305 314.012 145.606 313.109 147.505 313.109C150.141 313.109 151.876 314.844 151.864 317.891V326H148.888V318.359C148.888 316.648 147.962 315.629 146.403 315.641C144.821 315.629 143.708 316.695 143.708 318.547ZM160.475 313.273V315.57H157.967V322.18C157.967 323.398 158.577 323.645 159.327 323.656C159.678 323.668 160.264 323.633 160.639 323.609V326.047C160.287 326.105 159.713 326.176 158.952 326.164C156.702 326.176 154.967 325.062 154.991 322.672V315.57H153.162V313.273H154.991V310.227H157.967V313.273H160.475ZM167.68 326.258C163.848 326.258 161.492 323.703 161.492 319.719C161.492 315.781 163.883 313.109 167.516 313.109C170.633 313.109 173.328 315.066 173.328 319.531V320.469H164.445C164.492 322.637 165.77 323.926 167.703 323.914C169.016 323.926 169.895 323.363 170.281 322.602H173.211C172.672 324.805 170.633 326.258 167.68 326.258ZM164.457 318.43H170.469C170.457 316.695 169.285 315.43 167.562 315.43C165.77 315.43 164.562 316.812 164.457 318.43ZM181.4 313.273V315.57H178.892V322.18C178.892 323.398 179.502 323.645 180.252 323.656C180.603 323.668 181.189 323.633 181.564 323.609V326.047C181.213 326.105 180.638 326.176 179.877 326.164C177.627 326.176 175.892 325.062 175.916 322.672V315.57H174.088V313.273H175.916V310.227H178.892V313.273H181.4ZM183.097 326V313.273H186.097V326H183.097ZM182.886 309.828C182.886 308.938 183.671 308.211 184.62 308.211C185.57 308.211 186.355 308.938 186.355 309.828C186.355 310.73 185.57 311.457 184.62 311.469C183.671 311.457 182.886 310.73 182.886 309.828ZM199.723 313.273L195.177 326H191.895L187.348 313.273H190.536L193.466 322.742H193.606L196.559 313.273H199.723ZM206.202 326.258C202.37 326.258 200.014 323.703 200.014 319.719C200.014 315.781 202.405 313.109 206.038 313.109C209.155 313.109 211.85 315.066 211.85 319.531V320.469H202.967C203.014 322.637 204.291 323.926 206.225 323.914C207.538 323.926 208.416 323.363 208.803 322.602H211.733C211.194 324.805 209.155 326.258 206.202 326.258ZM202.979 318.43H208.991C208.979 316.695 207.807 315.43 206.084 315.43C204.291 315.43 203.084 316.812 202.979 318.43Z" fill="#E6ECEF"/>
<defs>
<clipPath id="clip0_2573_13349">
<rect width="264" height="264" fill="white"/>
</clipPath>
</defs>
</svg>
