<svg width="264" height="336" viewBox="0 0 264 336" fill="none" xmlns="http://www.w3.org/2000/svg">
<g clip-path="url(#clip0_2533_13342)">
<rect width="264" height="264" fill="#8A6262"/>
<path d="M43.9827 270.532C42.5277 271.987 41.5478 272.967 39.6452 274.167C39.2192 274.167 37.974 275.603 38.4 275.603C39.7104 275.603 40.9627 275.586 42.2473 275.907C50.513 277.973 58.4764 278.764 66.9756 278.764C78.5032 278.764 90.0289 278.429 101.522 277.615C112.918 276.808 124.124 276.235 135.557 276.178C142.406 276.144 149.274 275.783 156.119 275.54C164.726 275.233 173.197 273.912 181.837 274.039C190.513 274.167 198.743 275.217 207.315 276.465L207.394 276.477C214.154 277.462 220.866 278.44 227.701 278.7C231.491 278.845 235.02 278.795 238.717 277.966C240.983 277.458 243.464 277.447 245.39 276.003C247.126 274.7 248.773 271.349 247.545 269.138C245.613 265.662 240.94 264.493 237.695 262.736C235.621 261.614 233.52 260.947 231.373 260.023C229.876 259.378 228.608 258.308 227.127 257.644C222.054 255.37 218.37 249.12 212.488 248.608C210.056 248.397 208.02 246.993 205.671 246.421C202.167 245.568 198.85 244.378 195.422 243.276C193.717 242.728 191.822 242.476 190.218 241.632C188.418 240.685 188.588 237.723 187.919 236.013C187.462 234.844 187.136 233.33 186.482 232.277C185.937 231.398 185.187 230.661 184.63 229.787C184.118 228.981 183.309 228.553 182.906 227.632C182.629 226.997 182.358 226.417 181.885 225.891C179.946 223.737 179.503 220.868 177.351 218.931C176.613 218.267 175.723 218.651 174.86 218.404C174.117 218.192 173.845 216.721 173.615 216.058C173.04 214.397 172.372 213.031 171.971 211.268C171.297 208.304 171.54 205.223 171.54 202.201C171.54 196.447 172.536 190.925 172.993 185.215C173.094 183.95 173.264 182.778 173.264 181.495C173.264 180.173 173.795 178.983 173.839 177.68C173.893 176.068 173.875 174.242 174.19 172.667C174.714 170.047 176.561 167.277 177.878 164.973C179.131 162.78 180.727 160.903 181.885 158.651C183.164 156.163 184.467 153.79 185.493 151.18C186.659 148.211 187.205 145.353 188.063 142.304C189.127 138.521 189.008 134.452 189.068 130.554C189.094 128.914 189.643 127.394 189.643 125.733V121.551C189.643 115.419 189.503 109.414 189.053 103.336C188.77 99.5274 188.129 95.3647 186.626 91.8575C186.019 90.4401 184.824 89.2939 184.056 87.9623C183.207 86.4904 183.247 84.9259 182.747 83.3646C182.133 81.4527 181.546 79.3899 180.448 77.6814C177.948 73.7928 177.482 68.6177 174.126 65.2614C173.032 64.1676 171.897 62.9847 170.678 62.0367C169.708 61.2824 168.469 60.7528 167.677 59.8017C166.407 58.2783 164.148 56.7223 162.456 55.6191C160.637 54.4328 158.618 53.3941 156.885 52.1071C155.623 51.1693 155.045 51.2771 154.57 49.6167C154.498 49.3652 154.707 49.0823 154.554 48.7387C154.192 47.9232 152.694 47.6798 152.128 46.9347C151.369 45.9363 148.937 45.8294 147.817 45.4341C146.245 44.879 144.582 44.2335 142.821 44.0133C141.403 43.8361 139.635 43.7217 138.335 43.0714C137.6 42.704 136.118 41.9859 135.318 41.9859C133.409 41.9859 132.037 40.3628 130.385 39.7509C129.151 39.294 128.126 38.6237 127.112 37.8352C125.966 36.9435 123.255 37.3882 121.892 37.3882C117.841 37.3882 113.809 37.6756 109.775 37.6756C107.569 37.6756 105.69 39.2116 103.853 40.2618C101.16 41.8004 98.0798 42.9629 95.1681 43.9335C94.1961 44.2575 92.912 45.2395 92.087 45.8811C91.3913 46.4222 90.0278 47.3049 89.5807 48.0203C89.0236 48.9115 86.7427 49.5855 85.7812 49.7603C85.0343 49.8962 83.8035 50.5678 83.1791 51.0534C81.0352 52.7209 79.3121 54.6171 77.432 56.4972C76.201 57.7282 74.6492 58.2629 73.2654 59.2909C71.6731 60.4737 70.0779 61.6264 68.5241 62.8349C67.2492 63.8265 66.5974 65.2281 65.922 66.6982C65.2138 68.2395 65.675 69.6634 64.5171 71.1521C64.0103 71.8038 63.3215 72.6769 62.9846 73.435C62.4493 74.6394 62.6775 76.2541 61.7713 77.3302C59.6638 79.8329 60.7856 83.0691 59.4087 85.8231C58.3881 87.8642 58.5121 90.6266 57.9719 92.8473C57.7116 93.9174 57.4908 95.1934 57.461 96.2955C57.4321 97.367 56.9802 98.2604 56.9023 99.3127C56.6464 102.768 56.3116 106.069 56.3116 109.578V117.879C56.3116 119.738 55.8062 122.56 56.6149 124.312C57.0743 125.308 58.1549 126.088 58.7382 127.042C59.2806 127.93 59.592 128.978 60.0472 129.916C60.807 131.48 61.3721 133.251 61.4999 134.976C61.582 136.084 61.7565 137.191 62.0587 138.249C62.2725 138.997 62.9465 139.513 63.1442 140.26C63.4072 141.254 63.8444 142.128 64.0861 142.974C64.207 143.397 64.6449 143.108 64.6449 143.852C64.6449 144.302 64.6937 144.581 64.4214 144.922C64.1495 145.262 64.4867 145.719 64.134 146.071C63.8815 146.324 63.6221 146.653 63.3518 146.87C61.8574 148.065 64.8405 153.783 65.2834 154.979C66.358 157.881 67.6946 160.568 68.7316 163.472C69.7051 166.198 70.8456 168.893 72.2597 171.438C72.7661 172.35 73.0348 172.992 73.904 173.593C74.7665 174.19 75.9049 174.336 76.1549 175.461C76.4653 176.858 77.1469 179.628 79.0125 179.628C80.7339 179.628 81.5963 182.081 82.2372 183.363C83.6649 186.219 85.2618 187.975 87.0583 190.528C90.1496 194.921 89.5363 198.65 90.4427 204.741C91.0972 209.139 91.656 213.682 91.656 217.989C91.656 220.209 91.5374 223.059 90.4427 225.029C89.9414 225.932 89.1423 226.983 88.3514 227.616C87.6294 228.193 87.5245 229.508 87.0583 230.266C85.6494 232.555 84.503 235.048 83.1791 237.401L83.1768 237.406C82.2519 239.05 81.3113 240.722 80.4492 242.398C79.6513 243.95 78.2382 245.755 77.8631 247.443C77.2147 250.36 74.9964 252.578 72.9499 254.623L72.8184 254.754C71.2808 256.292 68.7594 257.04 66.6882 257.5C65.7038 257.719 64.4939 258.075 63.4954 258.075C62.6386 258.075 61.937 258.562 61.1966 258.65C60.0912 258.78 59.4981 260.49 58.4668 260.948C57.5473 261.357 56.8994 262.172 56.2478 262.896C55.1431 264.123 52.2849 264.254 50.7242 264.7C49.3241 265.1 48.0221 267.09 46.7013 267.845C45.8208 268.348 44.7618 269.752 44.0193 270.495L43.9827 270.532Z" fill="#E6ECEF"/>
</g>
<rect width="264" height="64" transform="translate(0 272)" fill="#8A6262"/>
<path d="M56.6656 313V296.031H59.7125V310.422H67.2125V313H56.6656ZM74.4641 313.258C70.7492 313.258 68.3703 310.621 68.3703 306.695C68.3703 302.734 70.7492 300.109 74.4641 300.109C78.1906 300.109 80.5695 302.734 80.5578 306.695C80.5695 310.621 78.1906 313.258 74.4641 313.258ZM71.3938 306.672C71.3938 309.004 72.4133 310.867 74.4875 310.867C76.5266 310.867 77.5461 309.004 77.5344 306.672C77.5461 304.34 76.5266 302.465 74.4875 302.477C72.4133 302.465 71.3938 304.34 71.3938 306.672ZM87.8328 313.258C84.0359 313.258 81.7391 310.539 81.7391 306.695C81.7391 302.793 84.1063 300.109 87.8328 300.109C90.9148 300.109 93.0828 301.914 93.2938 304.656H90.4344C90.2 303.438 89.3094 302.512 87.8563 302.5C86.0047 302.512 84.7625 304.059 84.7625 306.625C84.7625 309.25 85.9813 310.809 87.8563 310.82C89.1805 310.809 90.1648 310.035 90.4344 308.664H93.2938C93.0711 311.348 91.032 313.258 87.8328 313.258ZM94.3578 309.414C94.3578 306.555 96.7367 305.723 99.0922 305.57C99.9828 305.5 101.799 305.418 102.362 305.395L102.35 304.375C102.35 303.109 101.541 302.383 100.053 302.383C98.7172 302.383 97.8969 302.992 97.6625 303.906H94.7797C94.9906 301.738 96.9359 300.109 100.123 300.109C102.538 300.109 105.327 301.105 105.327 304.492V313H102.467V311.242H102.373C101.811 312.32 100.627 313.258 98.6234 313.258C96.1977 313.258 94.3578 311.934 94.3578 309.414ZM97.2406 309.391C97.2406 310.492 98.143 311.055 99.3969 311.055C101.213 311.055 102.373 309.859 102.373 308.43L102.362 307.387C101.823 307.41 100.159 307.516 99.5609 307.562C98.143 307.68 97.2406 308.277 97.2406 309.391ZM110.539 296.031V313H107.539V296.031H110.539ZM118.034 313V296.031H124.409C128.3 296.031 130.374 298.211 130.386 301.445C130.374 303.754 129.32 305.465 127.327 306.273L130.995 313H127.597L124.269 306.789H121.081V313H118.034ZM121.081 304.234H123.941C126.238 304.246 127.269 303.262 127.269 301.445C127.269 299.641 126.238 298.586 123.941 298.586H121.081V304.234ZM137.731 313.258C133.899 313.258 131.544 310.703 131.544 306.719C131.544 302.781 133.934 300.109 137.567 300.109C140.684 300.109 143.38 302.066 143.38 306.531V307.469H134.497C134.544 309.637 135.821 310.926 137.755 310.914C139.067 310.926 139.946 310.363 140.333 309.602H143.263C142.723 311.805 140.684 313.258 137.731 313.258ZM134.509 305.43H140.52C140.509 303.695 139.337 302.43 137.614 302.43C135.821 302.43 134.614 303.812 134.509 305.43ZM152.319 303.906C152.131 302.945 151.334 302.324 150.069 302.336C148.791 302.324 147.854 302.969 147.866 303.836C147.854 304.492 148.381 304.984 149.67 305.289L151.827 305.734C154.229 306.262 155.401 307.375 155.412 309.203C155.401 311.594 153.303 313.258 149.975 313.258C146.741 313.258 144.83 311.805 144.514 309.367H147.561C147.737 310.457 148.58 310.996 149.975 310.984C151.416 310.996 152.354 310.41 152.366 309.461C152.354 308.723 151.78 308.254 150.514 307.984L148.475 307.539C146.108 307.059 144.877 305.816 144.889 304C144.877 301.645 146.916 300.109 150.022 300.109C153.057 300.109 154.932 301.598 155.155 303.906H152.319ZM157.086 313V300.273H160.086V313H157.086ZM156.875 296.828C156.875 295.938 157.66 295.211 158.609 295.211C159.559 295.211 160.344 295.938 160.344 296.828C160.344 297.73 159.559 298.457 158.609 298.469C157.66 298.457 156.875 297.73 156.875 296.828ZM167.08 313.234C164.091 313.223 161.83 310.832 161.83 306.648C161.83 302.406 164.15 300.109 167.103 300.109C169.341 300.109 170.279 301.457 170.736 302.359H170.853V296.031H173.83V313H170.9V310.984H170.736C170.255 311.922 169.283 313.223 167.08 313.234ZM164.877 306.625C164.877 309.027 165.931 310.773 167.9 310.773C169.834 310.773 170.923 309.109 170.923 306.625C170.923 304.152 169.845 302.559 167.9 302.547C165.908 302.559 164.877 304.258 164.877 306.625ZM181.902 313.258C178.07 313.258 175.714 310.703 175.714 306.719C175.714 302.781 178.105 300.109 181.738 300.109C184.855 300.109 187.55 302.066 187.55 306.531V307.469H178.667C178.714 309.637 179.991 310.926 181.925 310.914C183.238 310.926 184.116 310.363 184.503 309.602H187.433C186.894 311.805 184.855 313.258 181.902 313.258ZM178.679 305.43H184.691C184.679 303.695 183.507 302.43 181.784 302.43C179.991 302.43 178.784 303.812 178.679 305.43ZM192.27 305.547V313H189.27V300.273H192.13V302.43H192.294C192.868 301.012 194.169 300.109 196.067 300.109C198.704 300.109 200.438 301.844 200.427 304.891V313H197.45V305.359C197.45 303.648 196.524 302.629 194.966 302.641C193.384 302.629 192.27 303.695 192.27 305.547ZM209.038 300.273V302.57H206.53V309.18C206.53 310.398 207.139 310.645 207.889 310.656C208.241 310.668 208.827 310.633 209.202 310.609V313.047C208.85 313.105 208.276 313.176 207.514 313.164C205.264 313.176 203.53 312.062 203.553 309.672V302.57H201.725V300.273H203.553V297.227H206.53V300.273H209.038Z" fill="#E6ECEF"/>
<defs>
<clipPath id="clip0_2533_13342">
<rect width="264" height="264" fill="white"/>
</clipPath>
</defs>
</svg>
