<svg width="264" height="336" viewBox="0 0 264 336" fill="none" xmlns="http://www.w3.org/2000/svg">
<g clip-path="url(#clip0_2573_13426)">
<rect width="264" height="264" fill="#8A6262"/>
<path d="M43.9827 270.532C42.5277 271.987 41.5478 272.967 39.6452 274.167C39.2192 274.167 37.974 275.603 38.4 275.603C39.7104 275.603 40.9627 275.586 42.2473 275.907C50.513 277.973 58.4764 278.764 66.9756 278.764C78.5032 278.764 90.0289 278.429 101.522 277.615C112.918 276.808 124.124 276.235 135.557 276.178C142.406 276.144 149.274 275.783 156.119 275.54C164.726 275.233 173.197 273.912 181.837 274.039C190.513 274.167 198.743 275.217 207.315 276.465L207.394 276.477C214.154 277.462 220.866 278.44 227.701 278.7C231.491 278.845 235.02 278.795 238.717 277.966C240.983 277.458 243.464 277.447 245.39 276.003C247.126 274.7 248.773 271.349 247.545 269.138C245.613 265.662 240.94 264.493 237.695 262.736C235.621 261.614 233.52 260.947 231.373 260.023C229.876 259.378 228.608 258.308 227.127 257.644C222.054 255.37 218.37 249.12 212.488 248.608C210.056 248.397 208.02 246.993 205.671 246.421C202.167 245.568 198.85 244.378 195.422 243.276C193.717 242.728 191.822 242.476 190.218 241.632C188.418 240.685 188.588 237.723 187.919 236.013C187.462 234.844 187.136 233.33 186.482 232.277C185.937 231.398 185.187 230.661 184.63 229.787C184.118 228.981 183.309 228.553 182.906 227.632C182.629 226.997 182.358 226.417 181.885 225.891C179.946 223.737 179.503 220.868 177.351 218.931C176.613 218.267 175.723 218.651 174.86 218.404C174.117 218.192 173.845 216.721 173.615 216.058C173.04 214.397 172.372 213.031 171.971 211.268C171.297 208.304 171.54 205.223 171.54 202.201C171.54 196.447 172.536 190.925 172.993 185.215C173.094 183.95 173.264 182.778 173.264 181.495C173.264 180.173 173.795 178.983 173.839 177.68C173.893 176.068 173.875 174.242 174.19 172.667C174.714 170.047 176.561 167.277 177.878 164.973C179.131 162.78 180.727 160.903 181.885 158.651C183.164 156.163 184.467 153.79 185.493 151.18C186.659 148.211 187.205 145.353 188.063 142.304C189.127 138.521 189.008 134.452 189.068 130.554C189.094 128.914 189.643 127.394 189.643 125.733V121.551C189.643 115.419 189.503 109.414 189.053 103.336C188.77 99.5274 188.129 95.3647 186.626 91.8575C186.019 90.4401 184.824 89.2939 184.056 87.9623C183.207 86.4904 183.247 84.9259 182.747 83.3646C182.133 81.4527 181.546 79.3899 180.448 77.6814C177.948 73.7928 177.482 68.6177 174.126 65.2614C173.032 64.1676 171.897 62.9847 170.678 62.0367C169.708 61.2824 168.469 60.7528 167.677 59.8017C166.407 58.2783 164.148 56.7223 162.456 55.6191C160.637 54.4328 158.618 53.3941 156.885 52.1071C155.623 51.1693 155.045 51.2771 154.57 49.6167C154.498 49.3652 154.707 49.0823 154.554 48.7387C154.192 47.9232 152.694 47.6798 152.128 46.9347C151.369 45.9363 148.937 45.8294 147.817 45.4341C146.245 44.879 144.582 44.2335 142.821 44.0133C141.403 43.8361 139.635 43.7217 138.335 43.0714C137.6 42.704 136.118 41.9859 135.318 41.9859C133.409 41.9859 132.037 40.3628 130.385 39.7509C129.151 39.294 128.126 38.6237 127.112 37.8352C125.966 36.9435 123.255 37.3882 121.892 37.3882C117.841 37.3882 113.809 37.6756 109.775 37.6756C107.569 37.6756 105.69 39.2116 103.853 40.2618C101.16 41.8004 98.0798 42.9629 95.1681 43.9335C94.1961 44.2575 92.912 45.2395 92.087 45.8811C91.3913 46.4222 90.0278 47.3049 89.5807 48.0203C89.0236 48.9115 86.7427 49.5855 85.7812 49.7603C85.0343 49.8962 83.8035 50.5678 83.1791 51.0534C81.0352 52.7209 79.3121 54.6171 77.432 56.4972C76.201 57.7282 74.6492 58.2629 73.2654 59.2909C71.6731 60.4737 70.0779 61.6264 68.5241 62.8349C67.2492 63.8265 66.5974 65.2281 65.922 66.6982C65.2138 68.2395 65.675 69.6634 64.5171 71.1521C64.0103 71.8038 63.3215 72.6769 62.9846 73.435C62.4493 74.6394 62.6775 76.2541 61.7713 77.3302C59.6638 79.8329 60.7856 83.0691 59.4087 85.8231C58.3881 87.8642 58.5121 90.6266 57.9719 92.8473C57.7116 93.9174 57.4908 95.1934 57.461 96.2955C57.4321 97.367 56.9802 98.2604 56.9023 99.3127C56.6464 102.768 56.3116 106.069 56.3116 109.578V117.879C56.3116 119.738 55.8062 122.56 56.6149 124.312C57.0743 125.308 58.1549 126.088 58.7382 127.042C59.2806 127.93 59.592 128.978 60.0472 129.916C60.807 131.48 61.3721 133.251 61.4999 134.976C61.582 136.084 61.7565 137.191 62.0587 138.249C62.2725 138.997 62.9465 139.513 63.1442 140.26C63.4072 141.254 63.8444 142.128 64.0861 142.974C64.207 143.397 64.6449 143.108 64.6449 143.852C64.6449 144.302 64.6937 144.581 64.4214 144.922C64.1495 145.262 64.4867 145.719 64.134 146.071C63.8815 146.324 63.6221 146.653 63.3518 146.87C61.8574 148.065 64.8405 153.783 65.2834 154.979C66.358 157.881 67.6946 160.568 68.7316 163.472C69.7051 166.198 70.8456 168.893 72.2597 171.438C72.7661 172.35 73.0348 172.992 73.904 173.593C74.7665 174.19 75.9049 174.336 76.1549 175.461C76.4653 176.858 77.1469 179.628 79.0125 179.628C80.7339 179.628 81.5963 182.081 82.2372 183.363C83.6649 186.219 85.2618 187.975 87.0583 190.528C90.1496 194.921 89.5363 198.65 90.4427 204.741C91.0972 209.139 91.656 213.682 91.656 217.989C91.656 220.209 91.5374 223.059 90.4427 225.029C89.9414 225.932 89.1423 226.983 88.3514 227.616C87.6294 228.193 87.5245 229.508 87.0583 230.266C85.6494 232.555 84.503 235.048 83.1791 237.401L83.1768 237.406C82.2519 239.05 81.3113 240.722 80.4492 242.398C79.6513 243.95 78.2382 245.755 77.8631 247.443C77.2147 250.36 74.9964 252.578 72.9499 254.623L72.8184 254.754C71.2808 256.292 68.7594 257.04 66.6882 257.5C65.7038 257.719 64.4939 258.075 63.4954 258.075C62.6386 258.075 61.937 258.562 61.1966 258.65C60.0912 258.78 59.4981 260.49 58.4668 260.948C57.5473 261.357 56.8994 262.172 56.2478 262.896C55.1431 264.123 52.2849 264.254 50.7242 264.7C49.3241 265.1 48.0221 267.09 46.7013 267.845C45.8208 268.348 44.7618 269.752 44.0193 270.495L43.9827 270.532Z" fill="#E6ECEF"/>
</g>
<rect width="264" height="64" transform="translate(0 272)" fill="#8A6262"/>
<path d="M49.4062 288.75C49.043 286.711 47.4141 285.539 45.3516 285.539C42.5742 285.539 40.6055 287.672 40.6172 291.516C40.6055 295.418 42.5859 297.492 45.3516 297.492C47.3672 297.492 48.9961 296.367 49.4062 294.375H52.4766C52.0078 297.633 49.3242 300.234 45.3047 300.234C40.8281 300.234 37.5352 296.988 37.5469 291.516C37.5352 286.031 40.8633 282.797 45.3047 282.797C49.0547 282.797 51.9492 284.977 52.4766 288.75H49.4062ZM59.9156 300.258C56.2008 300.258 53.8219 297.621 53.8219 293.695C53.8219 289.734 56.2008 287.109 59.9156 287.109C63.6422 287.109 66.0211 289.734 66.0094 293.695C66.0211 297.621 63.6422 300.258 59.9156 300.258ZM56.8453 293.672C56.8453 296.004 57.8648 297.867 59.9391 297.867C61.9781 297.867 62.9977 296.004 62.9859 293.672C62.9977 291.34 61.9781 289.465 59.9391 289.477C57.8648 289.465 56.8453 291.34 56.8453 293.672ZM67.7297 300V287.273H70.5891V289.43H70.7531C71.2805 287.977 72.5578 287.109 74.2453 287.109C75.968 287.109 77.2102 287.988 77.6906 289.43H77.8312C78.382 288.023 79.8 287.109 81.6516 287.109C83.9836 287.109 85.6242 288.609 85.6125 291.445V300H82.6359V291.914C82.6359 290.332 81.675 289.617 80.4562 289.617C78.9914 289.617 78.1359 290.613 78.1359 292.055V300H75.2297V291.797C75.218 290.473 74.3508 289.617 73.0734 289.617C71.7844 289.617 70.7297 290.684 70.7297 292.266V300H67.7297ZM87.8719 304.781V287.273H90.8016V289.359H90.9891C91.4461 288.457 92.3836 287.109 94.6453 287.109C97.575 287.109 99.8836 289.406 99.8953 293.648C99.8836 297.832 97.6453 300.223 94.6453 300.234C92.4539 300.223 91.4578 298.922 90.9891 297.984H90.8719V304.781H87.8719ZM90.8016 293.625C90.8133 296.109 91.8914 297.773 93.825 297.773C95.8055 297.773 96.8484 296.027 96.8484 293.625C96.8484 291.258 95.8289 289.559 93.825 289.547C91.868 289.559 90.8133 291.152 90.8016 293.625ZM101.053 296.414C101.053 293.555 103.432 292.723 105.787 292.57C106.678 292.5 108.495 292.418 109.057 292.395L109.045 291.375C109.045 290.109 108.237 289.383 106.748 289.383C105.412 289.383 104.592 289.992 104.358 290.906H101.475C101.686 288.738 103.631 287.109 106.819 287.109C109.233 287.109 112.022 288.105 112.022 291.492V300H109.162V298.242H109.069C108.506 299.32 107.323 300.258 105.319 300.258C102.893 300.258 101.053 298.934 101.053 296.414ZM103.936 296.391C103.936 297.492 104.838 298.055 106.092 298.055C107.909 298.055 109.069 296.859 109.069 295.43L109.057 294.387C108.518 294.41 106.854 294.516 106.256 294.562C104.838 294.68 103.936 295.277 103.936 296.391ZM117.234 292.547V300H114.234V287.273H117.094V289.43H117.258C117.832 288.012 119.133 287.109 121.031 287.109C123.668 287.109 125.402 288.844 125.391 291.891V300H122.414V292.359C122.414 290.648 121.488 289.629 119.93 289.641C118.348 289.629 117.234 290.695 117.234 292.547ZM128.986 304.781C128.388 304.77 127.826 304.758 127.439 304.711V302.32C127.802 302.355 128.306 302.355 128.705 302.367C129.431 302.355 130.041 302.309 130.556 300.938L130.814 300.258L126.173 287.273H129.338L132.291 296.883H132.431L135.384 287.273H138.548L133.439 301.547C132.713 303.574 131.377 304.77 128.986 304.781ZM147.216 300H143.958L149.934 283.031H153.684L159.684 300H156.427L155.009 295.805H148.622L147.216 300ZM149.442 293.344H154.188L151.88 286.5H151.739L149.442 293.344ZM163.959 283.031V300H160.959V283.031H163.959ZM169.219 283.031V300H166.219V283.031H169.219ZM171.478 300V287.273H174.478V300H171.478ZM171.267 283.828C171.267 282.938 172.052 282.211 173.002 282.211C173.951 282.211 174.736 282.938 174.736 283.828C174.736 284.73 173.951 285.457 173.002 285.469C172.052 285.457 171.267 284.73 171.267 283.828ZM176.152 296.414C176.152 293.555 178.53 292.723 180.886 292.57C181.777 292.5 183.593 292.418 184.155 292.395L184.144 291.375C184.144 290.109 183.335 289.383 181.847 289.383C180.511 289.383 179.691 289.992 179.456 290.906H176.573C176.784 288.738 178.73 287.109 181.917 287.109C184.331 287.109 187.12 288.105 187.12 291.492V300H184.261V298.242H184.167C183.605 299.32 182.421 300.258 180.417 300.258C177.991 300.258 176.152 298.934 176.152 296.414ZM179.034 296.391C179.034 297.492 179.937 298.055 181.191 298.055C183.007 298.055 184.167 296.859 184.167 295.43L184.155 294.387C183.616 294.41 181.952 294.516 181.355 294.562C179.937 294.68 179.034 295.277 179.034 296.391ZM192.333 292.547V300H189.333V287.273H192.192V289.43H192.356C192.93 288.012 194.231 287.109 196.13 287.109C198.766 287.109 200.501 288.844 200.489 291.891V300H197.512V292.359C197.512 290.648 196.587 289.629 195.028 289.641C193.446 289.629 192.333 290.695 192.333 292.547ZM208.303 300.258C204.506 300.258 202.209 297.539 202.209 293.695C202.209 289.793 204.577 287.109 208.303 287.109C211.385 287.109 213.553 288.914 213.764 291.656H210.905C210.67 290.438 209.78 289.512 208.327 289.5C206.475 289.512 205.233 291.059 205.233 293.625C205.233 296.25 206.452 297.809 208.327 297.82C209.651 297.809 210.635 297.035 210.905 295.664H213.764C213.541 298.348 211.502 300.258 208.303 300.258ZM221.062 300.258C217.23 300.258 214.875 297.703 214.875 293.719C214.875 289.781 217.266 287.109 220.898 287.109C224.016 287.109 226.711 289.066 226.711 293.531V294.469H217.828C217.875 296.637 219.152 297.926 221.086 297.914C222.398 297.926 223.277 297.363 223.664 296.602H226.594C226.055 298.805 224.016 300.258 221.062 300.258ZM217.84 292.43H223.852C223.84 290.695 222.668 289.43 220.945 289.43C219.152 289.43 217.945 290.812 217.84 292.43ZM53.3297 326V309.031H59.7047C63.5953 309.031 65.6695 311.211 65.6813 314.445C65.6695 316.754 64.6148 318.465 62.6227 319.273L66.2906 326H62.8922L59.5641 319.789H56.3766V326H53.3297ZM56.3766 317.234H59.2359C61.5328 317.246 62.5641 316.262 62.5641 314.445C62.5641 312.641 61.5328 311.586 59.2359 311.586H56.3766V317.234ZM73.0266 326.258C69.1945 326.258 66.8391 323.703 66.8391 319.719C66.8391 315.781 69.2297 313.109 72.8625 313.109C75.9797 313.109 78.675 315.066 78.675 319.531V320.469H69.7922C69.8391 322.637 71.1164 323.926 73.05 323.914C74.3625 323.926 75.2414 323.363 75.6281 322.602H78.5578C78.0188 324.805 75.9797 326.258 73.0266 326.258ZM69.8039 318.43H75.8156C75.8039 316.695 74.632 315.43 72.9094 315.43C71.1164 315.43 69.9094 316.812 69.8039 318.43ZM80.3953 330.781V313.273H83.325V315.359H83.5125C83.9695 314.457 84.907 313.109 87.1688 313.109C90.0984 313.109 92.407 315.406 92.4188 319.648C92.407 323.832 90.1688 326.223 87.1688 326.234C84.9773 326.223 83.9813 324.922 83.5125 323.984H83.3953V330.781H80.3953ZM83.325 319.625C83.3367 322.109 84.4148 323.773 86.3484 323.773C88.3289 323.773 89.3719 322.027 89.3719 319.625C89.3719 317.258 88.3523 315.559 86.3484 315.547C84.3914 315.559 83.3367 317.152 83.325 319.625ZM94.1625 326V313.273H97.0688V315.383H97.2094C97.6664 313.918 98.8852 313.086 100.35 313.086C100.678 313.086 101.147 313.121 101.428 313.156V315.922C101.159 315.828 100.538 315.746 100.045 315.734C98.3813 315.746 97.1625 316.895 97.1625 318.5V326H94.1625ZM107.836 326.258C104.004 326.258 101.648 323.703 101.648 319.719C101.648 315.781 104.039 313.109 107.672 313.109C110.789 313.109 113.484 315.066 113.484 319.531V320.469H104.602C104.648 322.637 105.926 323.926 107.859 323.914C109.172 323.926 110.051 323.363 110.438 322.602H113.367C112.828 324.805 110.789 326.258 107.836 326.258ZM104.613 318.43H110.625C110.613 316.695 109.441 315.43 107.719 315.43C105.926 315.43 104.719 316.812 104.613 318.43ZM122.423 316.906C122.236 315.945 121.439 315.324 120.173 315.336C118.896 315.324 117.959 315.969 117.97 316.836C117.959 317.492 118.486 317.984 119.775 318.289L121.931 318.734C124.334 319.262 125.505 320.375 125.517 322.203C125.505 324.594 123.408 326.258 120.08 326.258C116.845 326.258 114.935 324.805 114.619 322.367H117.666C117.841 323.457 118.685 323.996 120.08 323.984C121.521 323.996 122.459 323.41 122.47 322.461C122.459 321.723 121.884 321.254 120.619 320.984L118.58 320.539C116.213 320.059 114.982 318.816 114.994 317C114.982 314.645 117.021 313.109 120.127 313.109C123.162 313.109 125.037 314.598 125.259 316.906H122.423ZM132.839 326.258C129.007 326.258 126.652 323.703 126.652 319.719C126.652 315.781 129.042 313.109 132.675 313.109C135.792 313.109 138.488 315.066 138.488 319.531V320.469H129.605C129.652 322.637 130.929 323.926 132.863 323.914C134.175 323.926 135.054 323.363 135.441 322.602H138.37C137.831 324.805 135.792 326.258 132.839 326.258ZM129.616 318.43H135.628C135.616 316.695 134.445 315.43 132.722 315.43C130.929 315.43 129.722 316.812 129.616 318.43ZM143.208 318.547V326H140.208V313.273H143.067V315.43H143.231C143.805 314.012 145.106 313.109 147.005 313.109C149.641 313.109 151.376 314.844 151.364 317.891V326H148.388V318.359C148.388 316.648 147.462 315.629 145.903 315.641C144.321 315.629 143.208 316.695 143.208 318.547ZM159.975 313.273V315.57H157.467V322.18C157.467 323.398 158.077 323.645 158.827 323.656C159.178 323.668 159.764 323.633 160.139 323.609V326.047C159.787 326.105 159.213 326.176 158.452 326.164C156.202 326.176 154.467 325.062 154.491 322.672V315.57H152.662V313.273H154.491V310.227H157.467V313.273H159.975ZM167.18 326.258C163.348 326.258 160.992 323.703 160.992 319.719C160.992 315.781 163.383 313.109 167.016 313.109C170.133 313.109 172.828 315.066 172.828 319.531V320.469H163.945C163.992 322.637 165.27 323.926 167.203 323.914C168.516 323.926 169.395 323.363 169.781 322.602H172.711C172.172 324.805 170.133 326.258 167.18 326.258ZM163.957 318.43H169.969C169.957 316.695 168.785 315.43 167.062 315.43C165.27 315.43 164.062 316.812 163.957 318.43ZM180.9 313.273V315.57H178.392V322.18C178.392 323.398 179.002 323.645 179.752 323.656C180.103 323.668 180.689 323.633 181.064 323.609V326.047C180.712 326.105 180.138 326.176 179.377 326.164C177.127 326.176 175.392 325.062 175.416 322.672V315.57H173.587V313.273H175.416V310.227H178.392V313.273H180.9ZM182.597 326V313.273H185.597V326H182.597ZM182.386 309.828C182.386 308.938 183.171 308.211 184.12 308.211C185.07 308.211 185.855 308.938 185.855 309.828C185.855 310.73 185.07 311.457 184.12 311.469C183.171 311.457 182.386 310.73 182.386 309.828ZM199.223 313.273L194.677 326H191.395L186.848 313.273H190.036L192.966 322.742H193.106L196.059 313.273H199.223ZM205.702 326.258C201.87 326.258 199.514 323.703 199.514 319.719C199.514 315.781 201.905 313.109 205.538 313.109C208.655 313.109 211.35 315.066 211.35 319.531V320.469H202.467C202.514 322.637 203.791 323.926 205.725 323.914C207.038 323.926 207.916 323.363 208.303 322.602H211.233C210.694 324.805 208.655 326.258 205.702 326.258ZM202.479 318.43H208.491C208.479 316.695 207.307 315.43 205.584 315.43C203.791 315.43 202.584 316.812 202.479 318.43Z" fill="#E6ECEF"/>
<defs>
<clipPath id="clip0_2573_13426">
<rect width="264" height="264" fill="white"/>
</clipPath>
</defs>
</svg>
