<svg width="264" height="336" viewBox="0 0 264 336" fill="none" xmlns="http://www.w3.org/2000/svg">
<g clip-path="url(#clip0_2573_13489)">
<rect width="264" height="264" fill="#8A6262"/>
<path d="M43.9827 270.532C42.5277 271.987 41.5478 272.967 39.6452 274.167C39.2192 274.167 37.974 275.603 38.4 275.603C39.7104 275.603 40.9627 275.586 42.2473 275.907C50.513 277.973 58.4764 278.764 66.9756 278.764C78.5032 278.764 90.0289 278.429 101.522 277.615C112.918 276.808 124.124 276.235 135.557 276.178C142.406 276.144 149.274 275.783 156.119 275.54C164.726 275.233 173.197 273.912 181.837 274.039C190.513 274.167 198.743 275.217 207.315 276.465L207.394 276.477C214.154 277.462 220.866 278.44 227.701 278.7C231.491 278.845 235.02 278.795 238.717 277.966C240.983 277.458 243.464 277.447 245.39 276.003C247.126 274.7 248.773 271.349 247.545 269.138C245.613 265.662 240.94 264.493 237.695 262.736C235.621 261.614 233.52 260.947 231.373 260.023C229.876 259.378 228.608 258.308 227.127 257.644C222.054 255.37 218.37 249.12 212.488 248.608C210.056 248.397 208.02 246.993 205.671 246.421C202.167 245.568 198.85 244.378 195.422 243.276C193.717 242.728 191.822 242.476 190.218 241.632C188.418 240.685 188.588 237.723 187.919 236.013C187.462 234.844 187.136 233.33 186.482 232.277C185.937 231.398 185.187 230.661 184.63 229.787C184.118 228.981 183.309 228.553 182.906 227.632C182.629 226.997 182.358 226.417 181.885 225.891C179.946 223.737 179.503 220.868 177.351 218.931C176.613 218.267 175.723 218.651 174.86 218.404C174.117 218.192 173.845 216.721 173.615 216.058C173.04 214.397 172.372 213.031 171.971 211.268C171.297 208.304 171.54 205.223 171.54 202.201C171.54 196.447 172.536 190.925 172.993 185.215C173.094 183.95 173.264 182.778 173.264 181.495C173.264 180.173 173.795 178.983 173.839 177.68C173.893 176.068 173.875 174.242 174.19 172.667C174.714 170.047 176.561 167.277 177.878 164.973C179.131 162.78 180.727 160.903 181.885 158.651C183.164 156.163 184.467 153.79 185.493 151.18C186.659 148.211 187.205 145.353 188.063 142.304C189.127 138.521 189.008 134.452 189.068 130.554C189.094 128.914 189.643 127.394 189.643 125.733V121.551C189.643 115.419 189.503 109.414 189.053 103.336C188.77 99.5274 188.129 95.3647 186.626 91.8575C186.019 90.4401 184.824 89.2939 184.056 87.9623C183.207 86.4904 183.247 84.9259 182.747 83.3646C182.133 81.4527 181.546 79.3899 180.448 77.6814C177.948 73.7928 177.482 68.6177 174.126 65.2614C173.032 64.1676 171.897 62.9847 170.678 62.0367C169.708 61.2824 168.469 60.7528 167.677 59.8017C166.407 58.2783 164.148 56.7223 162.456 55.6191C160.637 54.4328 158.618 53.3941 156.885 52.1071C155.623 51.1693 155.045 51.2771 154.57 49.6167C154.498 49.3652 154.707 49.0823 154.554 48.7387C154.192 47.9232 152.694 47.6798 152.128 46.9347C151.369 45.9363 148.937 45.8294 147.817 45.4341C146.245 44.879 144.582 44.2335 142.821 44.0133C141.403 43.8361 139.635 43.7217 138.335 43.0714C137.6 42.704 136.118 41.9859 135.318 41.9859C133.409 41.9859 132.037 40.3628 130.385 39.7509C129.151 39.294 128.126 38.6237 127.112 37.8352C125.966 36.9435 123.255 37.3882 121.892 37.3882C117.841 37.3882 113.809 37.6756 109.775 37.6756C107.569 37.6756 105.69 39.2116 103.853 40.2618C101.16 41.8004 98.0798 42.9629 95.1681 43.9335C94.1961 44.2575 92.912 45.2395 92.087 45.8811C91.3913 46.4222 90.0278 47.3049 89.5807 48.0203C89.0236 48.9115 86.7427 49.5855 85.7812 49.7603C85.0343 49.8962 83.8035 50.5678 83.1791 51.0534C81.0352 52.7209 79.3121 54.6171 77.432 56.4972C76.201 57.7282 74.6492 58.2629 73.2654 59.2909C71.6731 60.4737 70.0779 61.6264 68.5241 62.8349C67.2492 63.8265 66.5974 65.2281 65.922 66.6982C65.2138 68.2395 65.675 69.6634 64.5171 71.1521C64.0103 71.8038 63.3215 72.6769 62.9846 73.435C62.4493 74.6394 62.6775 76.2541 61.7713 77.3302C59.6638 79.8329 60.7856 83.0691 59.4087 85.8231C58.3881 87.8642 58.5121 90.6266 57.9719 92.8473C57.7116 93.9174 57.4908 95.1934 57.461 96.2955C57.4321 97.367 56.9802 98.2604 56.9023 99.3127C56.6464 102.768 56.3116 106.069 56.3116 109.578V117.879C56.3116 119.738 55.8062 122.56 56.6149 124.312C57.0743 125.308 58.1549 126.088 58.7382 127.042C59.2806 127.93 59.592 128.978 60.0472 129.916C60.807 131.48 61.3721 133.251 61.4999 134.976C61.582 136.084 61.7565 137.191 62.0587 138.249C62.2725 138.997 62.9465 139.513 63.1442 140.26C63.4072 141.254 63.8444 142.128 64.0861 142.974C64.207 143.397 64.6449 143.108 64.6449 143.852C64.6449 144.302 64.6937 144.581 64.4214 144.922C64.1495 145.262 64.4867 145.719 64.134 146.071C63.8815 146.324 63.6221 146.653 63.3518 146.87C61.8574 148.065 64.8405 153.783 65.2834 154.979C66.358 157.881 67.6946 160.568 68.7316 163.472C69.7051 166.198 70.8456 168.893 72.2597 171.438C72.7661 172.35 73.0348 172.992 73.904 173.593C74.7665 174.19 75.9049 174.336 76.1549 175.461C76.4653 176.858 77.1469 179.628 79.0125 179.628C80.7339 179.628 81.5963 182.081 82.2372 183.363C83.6649 186.219 85.2618 187.975 87.0583 190.528C90.1496 194.921 89.5363 198.65 90.4427 204.741C91.0972 209.139 91.656 213.682 91.656 217.989C91.656 220.209 91.5374 223.059 90.4427 225.029C89.9414 225.932 89.1423 226.983 88.3514 227.616C87.6294 228.193 87.5245 229.508 87.0583 230.266C85.6494 232.555 84.503 235.048 83.1791 237.401L83.1768 237.406C82.2519 239.05 81.3113 240.722 80.4492 242.398C79.6513 243.95 78.2382 245.755 77.8631 247.443C77.2147 250.36 74.9964 252.578 72.9499 254.623L72.8184 254.754C71.2808 256.292 68.7594 257.04 66.6882 257.5C65.7038 257.719 64.4939 258.075 63.4954 258.075C62.6386 258.075 61.937 258.562 61.1966 258.65C60.0912 258.78 59.4981 260.49 58.4668 260.948C57.5473 261.357 56.8994 262.172 56.2478 262.896C55.1431 264.123 52.2849 264.254 50.7242 264.7C49.3241 265.1 48.0221 267.09 46.7013 267.845C45.8208 268.348 44.7618 269.752 44.0193 270.495L43.9827 270.532Z" fill="#E6ECEF"/>
</g>
<rect width="264" height="64" transform="translate(0 272)" fill="#8A6262"/>
<path d="M20.6602 313H14.8945V296.031H20.7539C25.8164 296.031 28.875 299.207 28.8867 304.492C28.875 309.801 25.8164 313 20.6602 313ZM17.9414 310.352H20.4961C24.0469 310.363 25.8398 308.406 25.8398 304.492C25.8398 300.602 24.0469 298.668 20.5898 298.68H17.9414V310.352ZM36.4898 313.258C32.6578 313.258 30.3023 310.703 30.3023 306.719C30.3023 302.781 32.693 300.109 36.3258 300.109C39.443 300.109 42.1383 302.066 42.1383 306.531V307.469H33.2555C33.3023 309.637 34.5797 310.926 36.5133 310.914C37.8258 310.926 38.7047 310.363 39.0914 309.602H42.0211C41.482 311.805 39.443 313.258 36.4898 313.258ZM33.2672 305.43H39.2789C39.2672 303.695 38.0953 302.43 36.3727 302.43C34.5797 302.43 33.3727 303.812 33.2672 305.43ZM50.3039 300.273V302.57H47.6789V313H44.6789V302.57H42.7805V300.273H44.6789V299.055C44.6789 296.582 46.2141 295.234 48.6633 295.234C49.3547 295.234 49.9992 295.305 50.5617 295.422V297.789C50.0695 297.719 49.7062 297.707 49.4836 297.695C48.2766 297.707 47.6672 298.176 47.6789 299.336V300.273H50.3039ZM56.993 313.258C53.1609 313.258 50.8055 310.703 50.8055 306.719C50.8055 302.781 53.1961 300.109 56.8289 300.109C59.9461 300.109 62.6414 302.066 62.6414 306.531V307.469H53.7586C53.8055 309.637 55.0828 310.926 57.0164 310.914C58.3289 310.926 59.2078 310.363 59.5945 309.602H62.5242C61.9852 311.805 59.9461 313.258 56.993 313.258ZM53.7703 305.43H59.782C59.7703 303.695 58.5984 302.43 56.8758 302.43C55.0828 302.43 53.8758 303.812 53.7703 305.43ZM67.3617 305.547V313H64.3617V300.273H67.2211V302.43H67.3852C67.9594 301.012 69.2602 300.109 71.1586 300.109C73.7953 300.109 75.5297 301.844 75.518 304.891V313H72.5414V305.359C72.5414 303.648 71.6156 302.629 70.057 302.641C68.475 302.629 67.3617 303.695 67.3617 305.547ZM84.9961 303.906C84.8086 302.945 84.0117 302.324 82.7461 302.336C81.4688 302.324 80.5312 302.969 80.543 303.836C80.5312 304.492 81.0586 304.984 82.3477 305.289L84.5039 305.734C86.9062 306.262 88.0781 307.375 88.0898 309.203C88.0781 311.594 85.9805 313.258 82.6523 313.258C79.418 313.258 77.5078 311.805 77.1914 309.367H80.2383C80.4141 310.457 81.2578 310.996 82.6523 310.984C84.0938 310.996 85.0312 310.41 85.043 309.461C85.0312 308.723 84.457 308.254 83.1914 307.984L81.1523 307.539C78.7852 307.059 77.5547 305.816 77.5664 304C77.5547 301.645 79.5938 300.109 82.6992 300.109C85.7344 300.109 87.6094 301.598 87.832 303.906H84.9961ZM95.4117 313.258C91.5797 313.258 89.2242 310.703 89.2242 306.719C89.2242 302.781 91.6148 300.109 95.2477 300.109C98.3648 300.109 101.06 302.066 101.06 306.531V307.469H92.1773C92.2242 309.637 93.5016 310.926 95.4352 310.914C96.7477 310.926 97.6266 310.363 98.0133 309.602H100.943C100.404 311.805 98.3648 313.258 95.4117 313.258ZM92.1891 305.43H98.2008C98.1891 303.695 97.0172 302.43 95.2945 302.43C93.5016 302.43 92.2945 303.812 92.1891 305.43ZM107.266 298.586V296.031H120.79V298.586H115.563V313H112.516V298.586H107.266ZM126.237 313.258C122.405 313.258 120.049 310.703 120.049 306.719C120.049 302.781 122.44 300.109 126.073 300.109C129.19 300.109 131.885 302.066 131.885 306.531V307.469H123.002C123.049 309.637 124.327 310.926 126.26 310.914C127.573 310.926 128.452 310.363 128.838 309.602H131.768C131.229 311.805 129.19 313.258 126.237 313.258ZM123.014 305.43H129.026C129.014 303.695 127.842 302.43 126.12 302.43C124.327 302.43 123.12 303.812 123.014 305.43ZM139.16 313.258C135.363 313.258 133.066 310.539 133.066 306.695C133.066 302.793 135.434 300.109 139.16 300.109C142.242 300.109 144.41 301.914 144.621 304.656H141.762C141.527 303.438 140.637 302.512 139.184 302.5C137.332 302.512 136.09 304.059 136.09 306.625C136.09 309.25 137.309 310.809 139.184 310.82C140.508 310.809 141.492 310.035 141.762 308.664H144.621C144.398 311.348 142.359 313.258 139.16 313.258ZM149.271 305.547V313H146.271V296.031H149.201V302.43H149.365C149.939 300.988 151.181 300.109 153.138 300.109C155.775 300.109 157.521 301.82 157.521 304.891V313H154.545V305.359C154.533 303.625 153.607 302.629 152.037 302.641C150.42 302.629 149.271 303.695 149.271 305.547ZM161.609 313.188C160.601 313.188 159.769 312.367 159.78 311.359C159.769 310.375 160.601 309.566 161.609 309.555C162.581 309.566 163.413 310.375 163.413 311.359C163.413 312.367 162.581 313.188 161.609 313.188ZM172.549 313H169.291L175.268 296.031H179.018L185.018 313H181.76L180.342 308.805H173.955L172.549 313ZM174.776 306.344H179.522L177.213 299.5H177.073L174.776 306.344ZM190.629 313.234C187.641 313.223 185.379 310.832 185.379 306.648C185.379 302.406 187.699 300.109 190.652 300.109C192.891 300.109 193.828 301.457 194.285 302.359H194.402V296.031H197.379V313H194.449V310.984H194.285C193.805 311.922 192.832 313.223 190.629 313.234ZM188.426 306.625C188.426 309.027 189.48 310.773 191.449 310.773C193.383 310.773 194.473 309.109 194.473 306.625C194.473 304.152 193.395 302.559 191.449 302.547C189.457 302.559 188.426 304.258 188.426 306.625ZM211.17 300.273L206.623 313H203.341L198.795 300.273H201.982L204.912 309.742H205.052L208.005 300.273H211.17ZM212.445 313V300.273H215.445V313H212.445ZM212.234 296.828C212.234 295.938 213.019 295.211 213.968 295.211C214.917 295.211 215.702 295.938 215.702 296.828C215.702 297.73 214.917 298.457 213.968 298.469C213.019 298.457 212.234 297.73 212.234 296.828ZM224.923 303.906C224.735 302.945 223.938 302.324 222.673 302.336C221.395 302.324 220.458 302.969 220.47 303.836C220.458 304.492 220.985 304.984 222.274 305.289L224.43 305.734C226.833 306.262 228.005 307.375 228.016 309.203C228.005 311.594 225.907 313.258 222.579 313.258C219.345 313.258 217.434 311.805 217.118 309.367H220.165C220.341 310.457 221.184 310.996 222.579 310.984C224.02 310.996 224.958 310.41 224.97 309.461C224.958 308.723 224.384 308.254 223.118 307.984L221.079 307.539C218.712 307.059 217.481 305.816 217.493 304C217.481 301.645 219.52 300.109 222.626 300.109C225.661 300.109 227.536 301.598 227.759 303.906H224.923ZM235.245 313.258C231.53 313.258 229.151 310.621 229.151 306.695C229.151 302.734 231.53 300.109 235.245 300.109C238.971 300.109 241.35 302.734 241.338 306.695C241.35 310.621 238.971 313.258 235.245 313.258ZM232.174 306.672C232.174 309.004 233.194 310.867 235.268 310.867C237.307 310.867 238.327 309.004 238.315 306.672C238.327 304.34 237.307 302.465 235.268 302.477C233.194 302.465 232.174 304.34 232.174 306.672ZM243.059 313V300.273H245.965V302.383H246.105C246.562 300.918 247.781 300.086 249.246 300.086C249.574 300.086 250.043 300.121 250.324 300.156V302.922C250.055 302.828 249.434 302.746 248.941 302.734C247.277 302.746 246.059 303.895 246.059 305.5V313H243.059Z" fill="#E6ECEF"/>
<defs>
<clipPath id="clip0_2573_13489">
<rect width="264" height="264" fill="white"/>
</clipPath>
</defs>
</svg>
