<svg width="264" height="336" viewBox="0 0 264 336" fill="none" xmlns="http://www.w3.org/2000/svg">
<g clip-path="url(#clip0_2533_13299)">
<rect width="264" height="264" fill="#6E7463"/>
<path d="M90.2823 91.0375C90.923 92.7032 91.0529 94.7941 91.6752 96.5296C92.2153 98.0358 92.8288 99.9237 91.4618 100.755C90.8537 101.125 90.1578 101.36 89.4632 101.613C88.5971 101.928 87.9551 101.597 87.1698 102.341C86.2871 103.177 85.4434 104.215 84.8764 105.289C83.7913 107.345 82.5551 108.776 80.9448 110.386C79.4256 111.905 79.22 113.715 78.5058 115.755C76.4113 121.74 73.8731 127.815 72.2808 133.957C71.2094 138.09 70.7387 142.594 68.6587 146.425C66.5743 150.265 64.7259 153.868 62.1971 157.455C60.6275 159.682 58.8227 161.525 57.1006 163.608C56.1023 164.815 54.4693 166.325 53.7515 167.685C52.2555 170.519 51.5214 173.804 50.1475 176.713C48.7569 179.658 47.7884 182.962 46.7256 186.032C45.7274 188.916 44.3362 191.785 43.5949 194.751C43.2794 196.013 42.5101 197.108 42.1206 198.355C41.8578 199.196 41.6439 200.775 41.1195 201.449C40.224 202.6 39.991 204.234 39.2629 205.544C38.5895 206.757 37.0896 207.074 36.6419 208.238C36.2186 209.339 35.8384 212.745 34.6033 213.098C33.216 213.494 31.8002 215.743 31.8002 217.193C31.8002 219.155 30.5725 221.471 30.1439 223.4C29.7474 225.184 27.3815 226.675 26.4307 228.26C25.5698 229.695 25.6866 232.262 26.1577 233.793C26.8752 236.125 26.9912 238.664 28.1235 240.928C29.2194 243.12 31.5605 243.484 33.4202 244.878C34.5863 245.753 35.1343 247.237 36.205 248.155C36.7264 248.601 38.3095 251.004 38.3528 251.74C38.445 253.307 37.7468 255.164 37.6976 256.837C37.6538 258.323 37.5609 260.375 37.1151 261.824C36.6619 263.297 37.0548 265.071 36.4599 266.484C35.9876 267.605 36.0594 269.691 36.0594 270.907C36.0594 274.083 33.766 276.665 33.766 279.844C33.766 281.363 33.4384 282.927 33.4384 284.503C33.4384 285.944 33.1454 287.323 35.0765 286.633C37.4698 285.778 43.1265 287.997 43.9226 284.813C44.6329 281.971 45.5607 278.749 45.5607 275.821C45.5607 272.983 46.4398 270.198 46.5436 267.394C46.6265 265.154 47.1977 262.722 47.5993 260.514C47.9867 258.383 47.8541 256.199 47.8541 254.034C47.8541 251.264 50.261 248.908 52.6412 247.627C54.5483 246.6 57.1341 244.216 56.6819 241.729C56.5847 241.195 55.6611 237.504 56.2269 237.343C57.3599 237.019 58.8116 237.852 59.3212 236.323C59.7089 235.16 60.1991 233.027 61.287 232.483C63.6986 231.277 66.1068 230.721 68.0944 228.733C69.4711 227.357 70.5626 225.755 71.935 224.383C73.1945 223.124 74.1012 221.552 75.5389 220.433C76.7426 219.497 78.3026 218.512 79.2339 217.339C79.3531 217.189 81.2479 214.839 81.2724 214.864C81.4662 215.057 81.3245 216.715 81.1996 217.011C80.4169 218.87 80.6856 221.219 79.9619 223.164C79.0301 225.668 79.0383 228.71 79.3795 231.354C79.8321 234.862 79.712 238.427 79.3249 241.911C79.2237 242.822 79.3067 243.78 79.3067 244.696C79.3067 245.502 78.7376 246.336 78.6332 247.172C78.4764 248.426 77.8665 250.039 77.5047 251.285C76.9843 253.078 76.6844 255.452 77.0861 257.31C77.773 260.487 78.5935 263.52 79.2885 266.647C79.9461 269.607 80.7142 272.541 81.2542 275.512C81.6599 277.743 81.3895 278.851 83.7479 279.279C85.9912 279.687 88.5143 280.244 90.7737 280.244C96.2974 280.244 101.682 281.863 107.155 282.465C116.73 283.517 126.254 285.93 135.914 286.123C152.981 286.465 170.135 286.287 187.206 286.142C191.144 286.108 194.964 284.919 198.892 284.831C202.254 284.755 206.032 284.362 209.34 283.775C216.208 282.558 223.208 282.186 230.053 280.827C232.148 280.411 234.764 280.546 235.914 278.533C236.67 277.21 237.147 274.589 237.225 273.036C237.363 270.27 238.208 267.637 238.208 264.846C238.208 259.389 236.122 253.394 234.276 248.318C232.583 243.664 232.801 238.222 231.728 233.393C230.045 225.821 230.957 217.633 229.034 210.058C227.958 205.822 227.862 201.169 227.141 196.844C226.827 194.959 226.433 193.093 226.158 191.201C225.774 188.558 225.894 185.929 225.594 183.284C224.637 174.867 225.099 166.155 224.775 157.71C224.559 152.095 221.03 147.975 218.877 143.131C216.656 138.132 215.797 132.653 214.436 127.404C213.681 124.491 212.031 121.771 210.832 119.032C210.198 117.583 208.517 115.997 208.393 114.39C208.222 112.167 206.588 109.9 206.427 107.656C206.322 106.182 205.049 104.678 204.28 103.469C202.918 101.33 202.218 99.4417 200.366 97.5901C198.668 95.8914 196.375 94.8179 194.633 93.1671C190.824 89.5587 185.605 87.4882 180.799 85.8864C176.98 84.6132 173.611 82.3288 170.06 80.5533C165.992 78.5191 162.329 77.0221 158.848 74.2373C157.562 73.208 155.405 74.8281 156.227 72.2715C157.208 69.22 156.479 66.1512 157.119 63.0796C158.052 58.6017 157.61 54.4387 157.61 49.9016C157.61 45.6163 156.668 41.7116 155.244 37.7247C153.873 33.8849 150.83 28.6685 147.126 26.658C144.001 24.9617 141.473 22.7893 137.698 22.3988C135.877 22.2105 133.79 21.2532 132.055 20.5787C128.548 19.2149 125.108 17.4844 121.243 17.4844C117.473 17.4844 114.057 17.9354 110.432 18.8677C106.526 19.872 102.589 21.4884 98.6369 22.053C95.1884 22.5456 93.7169 25.0939 91.0286 26.9857C84.2575 31.7505 82.3575 39.7746 80.963 47.4444C80.6365 49.2403 79.8808 51.0603 79.6525 52.8867C79.2964 55.7358 79.2266 58.8325 79.3067 61.7145C79.3899 64.7116 80.2919 67.8503 82.7468 69.7597C83.9655 70.7075 85.2859 71.9165 86.3689 72.9996C86.7642 73.3949 87.2717 73.6001 87.4974 74.1645C87.7235 74.7296 87.6991 75.4448 87.9889 75.9664C88.618 77.0988 87.8251 78.9726 87.8251 80.2074C87.8251 81.4002 88.0922 82.6379 88.1527 83.6658C88.2923 86.0388 89.4192 88.7934 90.2823 91.0375Z" fill="#E6ECEF"/>
</g>
<rect width="264" height="64" transform="translate(0 272)" fill="#6E7463"/>
<path d="M86.0414 296.031H89.7914L94.8305 308.359H95.0414L100.08 296.031H103.83V313H100.901V301.328H100.737L96.0258 312.953H93.8461L89.1352 301.281H88.9945V313H86.0414V296.031ZM111.785 313.258C108.07 313.258 105.691 310.621 105.691 306.695C105.691 302.734 108.07 300.109 111.785 300.109C115.512 300.109 117.891 302.734 117.879 306.695C117.891 310.621 115.512 313.258 111.785 313.258ZM108.715 306.672C108.715 309.004 109.734 310.867 111.809 310.867C113.848 310.867 114.867 309.004 114.855 306.672C114.867 304.34 113.848 302.465 111.809 302.477C109.734 302.465 108.715 304.34 108.715 306.672ZM125.951 300.273V302.57H123.443V309.18C123.443 310.398 124.052 310.645 124.802 310.656C125.154 310.668 125.74 310.633 126.115 310.609V313.047C125.763 313.105 125.189 313.176 124.427 313.164C122.177 313.176 120.443 312.062 120.466 309.672V302.57H118.638V300.273H120.466V297.227H123.443V300.273H125.951ZM130.929 305.547V313H127.929V296.031H130.859V302.43H131.023C131.597 300.988 132.839 300.109 134.796 300.109C137.433 300.109 139.179 301.82 139.179 304.891V313H136.202V305.359C136.191 303.625 135.265 302.629 133.695 302.641C132.077 302.629 130.929 303.695 130.929 305.547ZM147.063 313.258C143.231 313.258 140.876 310.703 140.876 306.719C140.876 302.781 143.266 300.109 146.899 300.109C150.016 300.109 152.712 302.066 152.712 306.531V307.469H143.829C143.876 309.637 145.153 310.926 147.087 310.914C148.399 310.926 149.278 310.363 149.665 309.602H152.595C152.055 311.805 150.016 313.258 147.063 313.258ZM143.841 305.43H149.852C149.841 303.695 148.669 302.43 146.946 302.43C145.153 302.43 143.946 303.812 143.841 305.43ZM154.432 313V300.273H157.338V302.383H157.479C157.936 300.918 159.155 300.086 160.62 300.086C160.948 300.086 161.416 300.121 161.698 300.156V302.922C161.428 302.828 160.807 302.746 160.315 302.734C158.651 302.746 157.432 303.895 157.432 305.5V313H154.432ZM168.115 313V296.031H171.162V310.422H178.662V313H168.115Z" fill="#E6ECEF"/>
<defs>
<clipPath id="clip0_2533_13299">
<rect width="264" height="264" fill="white"/>
</clipPath>
</defs>
</svg>
