<svg width="264" height="336" viewBox="0 0 264 336" fill="none" xmlns="http://www.w3.org/2000/svg">
<g clip-path="url(#clip0_2573_13440)">
<rect width="264" height="264" fill="#766178"/>
<path d="M20.3219 256.747C20.3219 261.742 20.1151 266.579 21.2255 271.416C21.2918 271.705 21.3926 271.986 21.5585 272.232C22.2085 273.196 23.6796 274.794 24.2748 275.281C26.6529 277.226 30.9516 277.189 33.7843 277.22C36.6539 277.251 39.4162 277.891 42.3055 277.891C51.6158 277.891 60.8356 276.373 70.032 275.038C75.931 274.182 82.0063 273.016 87.9694 272.875C93.9419 272.735 99.9328 272.857 105.907 272.857C115.903 272.857 125.901 273.437 135.89 273.789C148.158 274.222 160.434 273.977 172.697 274.46C183.036 274.868 193.342 274.937 203.686 275.542C216.846 276.311 229.927 276.549 243.104 276.549C243.753 276.549 250.227 277.162 250.227 276.027C250.227 273.432 250.143 270.893 249.705 268.326C248.762 262.806 246.15 256.46 241.911 252.645C240.909 251.743 239.636 251.167 238.405 250.631C234.873 249.093 231.841 246.491 228.336 245C225.785 243.914 223.647 242.23 221.027 241.308C218.753 240.508 216.19 239.289 214.184 237.952C209.178 234.614 205.145 230.172 199.883 227.211C197.766 226.021 195.958 224.637 193.673 223.706C191.609 222.865 190.084 221.498 188.136 220.499C184.59 218.68 181.359 215.972 177.657 214.458C174.66 213.232 171.584 212.01 168.818 210.43C167.673 209.776 165.976 209.937 165.052 209.013C164.548 208.51 163.97 208.658 163.97 207.745V204.575C163.97 203.374 166.034 202.711 167.159 202.711H167.196C168.203 202.711 171.018 202.711 171.69 202.039C173.063 200.666 173.086 197.784 174.375 196.334C174.836 195.815 175.342 193.676 175.382 192.977C175.473 191.384 175.797 189.69 176.053 188.092C177.055 181.828 178.113 175.648 179.577 169.465C179.988 167.73 180.246 166.024 180.491 164.263C180.689 162.836 181.433 161.633 181.74 160.254C182.246 157.978 182.993 155.669 183.362 153.373C184.072 148.955 184.444 144.232 184.444 139.762C184.444 136.211 185.221 131.456 184.257 128.015C182.967 123.407 181.666 118.901 179.931 114.441C178.266 110.159 176.303 105.912 174.86 101.5C171.77 92.0586 168.002 80.7022 159.607 74.6688C155.662 71.8331 151.325 69.3613 146.872 67.4528C142.617 65.6291 137.544 62.2121 132.757 62.0828C128.927 61.9792 124.078 61.3112 120.32 62.2506C113.665 63.9144 107.035 65.7687 100.388 67.4528C95.429 68.709 90.725 70.0905 86.0303 72.1516L86.0081 72.1613C83.5432 73.2435 81.133 74.3016 79.3923 76.4402C76.5398 79.9446 74.58 83.9354 72.0085 87.6091C70.7892 89.351 70.3211 91.5819 68.9879 93.2961C67.5661 95.1241 66.4692 97.7527 65.4638 99.8408C63.6449 103.618 62.7978 106.644 62.2007 110.749C61.8526 113.142 61.9271 115.597 61.5295 117.983C61.22 119.84 60.4463 121.67 60.0005 123.503C58.9009 128.023 59.1275 132.993 58.5834 137.618C58.2896 140.114 57.5765 142.424 57.5765 144.964C57.5765 146.653 58.0807 148.345 58.2664 150.017C58.4452 151.626 59.4354 153.235 60.0751 154.697C60.5575 155.8 60.6505 157.129 61.2684 158.147C62.4169 160.038 62.8259 162.164 63.6924 164.113C64.467 165.856 65.0349 168.373 65.0349 170.262C65.0349 172.587 64.6968 174.284 65.0349 176.144C65.28 177.492 66.0938 178.302 66.9927 179.425C68.4451 181.241 68.088 184.468 70.1625 186.063C72.2891 187.699 72.7898 190.443 74.6189 192.272C75.8736 193.527 77.044 193.928 78.8143 194.715C79.521 195.029 80.4236 194.888 81.1637 195.2C81.8597 195.493 84.8263 195.998 85.6014 195.998C87.4715 195.998 89.4421 197.535 90.9528 198.497C92.5233 199.496 92.8174 199.806 92.8174 201.704C92.8174 203.709 91.505 204.191 90.5426 205.731C89.4679 207.451 87.539 209.294 86.0862 210.747C82.3698 214.463 77.0199 216.704 74.6189 221.506C73.0066 224.73 70.6969 226.923 67.1605 227.566C64.5435 228.042 61.899 228.904 59.2733 229.561C57.8138 229.926 56.2791 230.504 54.8915 231.071C53.1365 231.789 51.2103 231.901 49.596 232.917C48.5564 233.572 46.9933 233.694 45.8296 234.26C44.3737 234.967 42.8018 235.579 41.2799 236.124C39.1365 236.893 36.9892 238.635 34.9776 239.742C32.5054 241.101 30.2265 242.424 27.8735 243.993C25.4861 245.584 23.4274 246.2 22.1678 248.859C20.9807 251.366 20.3219 253.981 20.3219 256.747Z" fill="#E6ECEF"/>
</g>
<rect width="264" height="64" transform="translate(0 272)" fill="#766178"/>
<path d="M92.8227 288.75C92.4594 286.711 90.8305 285.539 88.768 285.539C85.9906 285.539 84.0219 287.672 84.0336 291.516C84.0219 295.418 86.0023 297.492 88.768 297.492C90.7836 297.492 92.4125 296.367 92.8227 294.375H95.893C95.4242 297.633 92.7406 300.234 88.7211 300.234C84.2445 300.234 80.9516 296.988 80.9633 291.516C80.9516 286.031 84.2797 282.797 88.7211 282.797C92.4711 282.797 95.3656 284.977 95.893 288.75H92.8227ZM105.91 294.656V287.273H108.887V300H106.004V297.75H105.863C105.277 299.168 103.941 300.164 102.043 300.164C99.5234 300.164 97.7891 298.43 97.7773 295.383V287.273H100.777V294.914C100.777 296.531 101.738 297.562 103.191 297.562C104.504 297.562 105.91 296.602 105.91 294.656ZM118.365 290.906C118.177 289.945 117.38 289.324 116.115 289.336C114.837 289.324 113.9 289.969 113.912 290.836C113.9 291.492 114.427 291.984 115.716 292.289L117.873 292.734C120.275 293.262 121.447 294.375 121.459 296.203C121.447 298.594 119.349 300.258 116.021 300.258C112.787 300.258 110.877 298.805 110.56 296.367H113.607C113.783 297.457 114.627 297.996 116.021 297.984C117.462 297.996 118.4 297.41 118.412 296.461C118.4 295.723 117.826 295.254 116.56 294.984L114.521 294.539C112.154 294.059 110.923 292.816 110.935 291C110.923 288.645 112.962 287.109 116.068 287.109C119.103 287.109 120.978 288.598 121.201 290.906H118.365ZM129.484 287.273V289.57H126.976V296.18C126.976 297.398 127.585 297.645 128.335 297.656C128.687 297.668 129.273 297.633 129.648 297.609V300.047C129.296 300.105 128.722 300.176 127.96 300.164C125.71 300.176 123.976 299.062 123.999 296.672V289.57H122.171V287.273H123.999V284.227H126.976V287.273H129.484ZM136.595 300.258C132.88 300.258 130.501 297.621 130.501 293.695C130.501 289.734 132.88 287.109 136.595 287.109C140.321 287.109 142.7 289.734 142.688 293.695C142.7 297.621 140.321 300.258 136.595 300.258ZM133.524 293.672C133.524 296.004 134.544 297.867 136.618 297.867C138.657 297.867 139.677 296.004 139.665 293.672C139.677 291.34 138.657 289.465 136.618 289.477C134.544 289.465 133.524 291.34 133.524 293.672ZM144.409 300V287.273H147.268V289.43H147.432C147.959 287.977 149.237 287.109 150.924 287.109C152.647 287.109 153.889 287.988 154.37 289.43H154.51C155.061 288.023 156.479 287.109 158.33 287.109C160.662 287.109 162.303 288.609 162.291 291.445V300H159.315V291.914C159.315 290.332 158.354 289.617 157.135 289.617C155.67 289.617 154.815 290.613 154.815 292.055V300H151.909V291.797C151.897 290.473 151.03 289.617 149.752 289.617C148.463 289.617 147.409 290.684 147.409 292.266V300H144.409ZM170.199 300.258C166.367 300.258 164.012 297.703 164.012 293.719C164.012 289.781 166.402 287.109 170.035 287.109C173.152 287.109 175.848 289.066 175.848 293.531V294.469H166.965C167.012 296.637 168.289 297.926 170.223 297.914C171.535 297.926 172.414 297.363 172.801 296.602H175.73C175.191 298.805 173.152 300.258 170.199 300.258ZM166.977 292.43H172.988C172.977 290.695 171.805 289.43 170.082 289.43C168.289 289.43 167.082 290.812 166.977 292.43ZM177.568 300V287.273H180.474V289.383H180.615C181.072 287.918 182.291 287.086 183.755 287.086C184.084 287.086 184.552 287.121 184.834 287.156V289.922C184.564 289.828 183.943 289.746 183.451 289.734C181.787 289.746 180.568 290.895 180.568 292.5V300H177.568ZM53.8297 326V309.031H60.2047C64.0953 309.031 66.1695 311.211 66.1813 314.445C66.1695 316.754 65.1148 318.465 63.1227 319.273L66.7906 326H63.3922L60.0641 319.789H56.8766V326H53.8297ZM56.8766 317.234H59.7359C62.0328 317.246 63.0641 316.262 63.0641 314.445C63.0641 312.641 62.0328 311.586 59.7359 311.586H56.8766V317.234ZM73.5266 326.258C69.6945 326.258 67.3391 323.703 67.3391 319.719C67.3391 315.781 69.7297 313.109 73.3625 313.109C76.4797 313.109 79.175 315.066 79.175 319.531V320.469H70.2922C70.3391 322.637 71.6164 323.926 73.55 323.914C74.8625 323.926 75.7414 323.363 76.1281 322.602H79.0578C78.5188 324.805 76.4797 326.258 73.5266 326.258ZM70.3039 318.43H76.3156C76.3039 316.695 75.132 315.43 73.4094 315.43C71.6164 315.43 70.4094 316.812 70.3039 318.43ZM80.8953 330.781V313.273H83.825V315.359H84.0125C84.4695 314.457 85.407 313.109 87.6688 313.109C90.5984 313.109 92.907 315.406 92.9188 319.648C92.907 323.832 90.6688 326.223 87.6688 326.234C85.4773 326.223 84.4813 324.922 84.0125 323.984H83.8953V330.781H80.8953ZM83.825 319.625C83.8367 322.109 84.9148 323.773 86.8484 323.773C88.8289 323.773 89.8719 322.027 89.8719 319.625C89.8719 317.258 88.8523 315.559 86.8484 315.547C84.8914 315.559 83.8367 317.152 83.825 319.625ZM94.6625 326V313.273H97.5688V315.383H97.7094C98.1664 313.918 99.3852 313.086 100.85 313.086C101.178 313.086 101.647 313.121 101.928 313.156V315.922C101.659 315.828 101.038 315.746 100.545 315.734C98.8813 315.746 97.6625 316.895 97.6625 318.5V326H94.6625ZM108.336 326.258C104.504 326.258 102.148 323.703 102.148 319.719C102.148 315.781 104.539 313.109 108.172 313.109C111.289 313.109 113.984 315.066 113.984 319.531V320.469H105.102C105.148 322.637 106.426 323.926 108.359 323.914C109.672 323.926 110.551 323.363 110.938 322.602H113.867C113.328 324.805 111.289 326.258 108.336 326.258ZM105.113 318.43H111.125C111.113 316.695 109.941 315.43 108.219 315.43C106.426 315.43 105.219 316.812 105.113 318.43ZM122.923 316.906C122.736 315.945 121.939 315.324 120.673 315.336C119.396 315.324 118.459 315.969 118.47 316.836C118.459 317.492 118.986 317.984 120.275 318.289L122.431 318.734C124.834 319.262 126.005 320.375 126.017 322.203C126.005 324.594 123.908 326.258 120.58 326.258C117.345 326.258 115.435 324.805 115.119 322.367H118.166C118.341 323.457 119.185 323.996 120.58 323.984C122.021 323.996 122.959 323.41 122.97 322.461C122.959 321.723 122.384 321.254 121.119 320.984L119.08 320.539C116.713 320.059 115.482 318.816 115.494 317C115.482 314.645 117.521 313.109 120.627 313.109C123.662 313.109 125.537 314.598 125.759 316.906H122.923ZM133.339 326.258C129.507 326.258 127.152 323.703 127.152 319.719C127.152 315.781 129.542 313.109 133.175 313.109C136.292 313.109 138.988 315.066 138.988 319.531V320.469H130.105C130.152 322.637 131.429 323.926 133.363 323.914C134.675 323.926 135.554 323.363 135.941 322.602H138.87C138.331 324.805 136.292 326.258 133.339 326.258ZM130.116 318.43H136.128C136.116 316.695 134.945 315.43 133.222 315.43C131.429 315.43 130.222 316.812 130.116 318.43ZM143.708 318.547V326H140.708V313.273H143.567V315.43H143.731C144.305 314.012 145.606 313.109 147.505 313.109C150.141 313.109 151.876 314.844 151.864 317.891V326H148.888V318.359C148.888 316.648 147.962 315.629 146.403 315.641C144.821 315.629 143.708 316.695 143.708 318.547ZM160.475 313.273V315.57H157.967V322.18C157.967 323.398 158.577 323.645 159.327 323.656C159.678 323.668 160.264 323.633 160.639 323.609V326.047C160.287 326.105 159.713 326.176 158.952 326.164C156.702 326.176 154.967 325.062 154.991 322.672V315.57H153.162V313.273H154.991V310.227H157.967V313.273H160.475ZM167.68 326.258C163.848 326.258 161.492 323.703 161.492 319.719C161.492 315.781 163.883 313.109 167.516 313.109C170.633 313.109 173.328 315.066 173.328 319.531V320.469H164.445C164.492 322.637 165.77 323.926 167.703 323.914C169.016 323.926 169.895 323.363 170.281 322.602H173.211C172.672 324.805 170.633 326.258 167.68 326.258ZM164.457 318.43H170.469C170.457 316.695 169.285 315.43 167.562 315.43C165.77 315.43 164.562 316.812 164.457 318.43ZM181.4 313.273V315.57H178.892V322.18C178.892 323.398 179.502 323.645 180.252 323.656C180.603 323.668 181.189 323.633 181.564 323.609V326.047C181.213 326.105 180.638 326.176 179.877 326.164C177.627 326.176 175.892 325.062 175.916 322.672V315.57H174.088V313.273H175.916V310.227H178.892V313.273H181.4ZM183.097 326V313.273H186.097V326H183.097ZM182.886 309.828C182.886 308.938 183.671 308.211 184.62 308.211C185.57 308.211 186.355 308.938 186.355 309.828C186.355 310.73 185.57 311.457 184.62 311.469C183.671 311.457 182.886 310.73 182.886 309.828ZM199.723 313.273L195.177 326H191.895L187.348 313.273H190.536L193.466 322.742H193.606L196.559 313.273H199.723ZM206.202 326.258C202.37 326.258 200.014 323.703 200.014 319.719C200.014 315.781 202.405 313.109 206.038 313.109C209.155 313.109 211.85 315.066 211.85 319.531V320.469H202.967C203.014 322.637 204.291 323.926 206.225 323.914C207.538 323.926 208.416 323.363 208.803 322.602H211.733C211.194 324.805 209.155 326.258 206.202 326.258ZM202.979 318.43H208.991C208.979 316.695 207.807 315.43 206.084 315.43C204.291 315.43 203.084 316.812 202.979 318.43Z" fill="#E6ECEF"/>
<defs>
<clipPath id="clip0_2573_13440">
<rect width="264" height="264" fill="white"/>
</clipPath>
</defs>
</svg>
