<svg width="264" height="336" viewBox="0 0 264 336" fill="none" xmlns="http://www.w3.org/2000/svg">
<g clip-path="url(#clip0_2533_13356)">
<rect width="264" height="264" fill="#766178"/>
<path d="M20.3219 256.747C20.3219 261.742 20.1151 266.579 21.2255 271.416C21.2918 271.705 21.3926 271.986 21.5585 272.232C22.2085 273.196 23.6796 274.794 24.2748 275.281C26.6529 277.226 30.9516 277.189 33.7843 277.22C36.6539 277.251 39.4162 277.891 42.3055 277.891C51.6158 277.891 60.8356 276.373 70.032 275.038C75.931 274.182 82.0063 273.016 87.9694 272.875C93.9419 272.735 99.9328 272.857 105.907 272.857C115.903 272.857 125.901 273.437 135.89 273.789C148.158 274.222 160.434 273.977 172.697 274.46C183.036 274.868 193.342 274.937 203.686 275.542C216.846 276.311 229.927 276.549 243.104 276.549C243.753 276.549 250.227 277.162 250.227 276.027C250.227 273.432 250.143 270.893 249.705 268.326C248.762 262.806 246.15 256.46 241.911 252.645C240.909 251.743 239.636 251.167 238.405 250.631C234.873 249.093 231.841 246.491 228.336 245C225.785 243.914 223.647 242.23 221.027 241.308C218.753 240.508 216.19 239.289 214.184 237.952C209.178 234.614 205.145 230.172 199.883 227.211C197.766 226.021 195.958 224.637 193.673 223.706C191.609 222.865 190.084 221.498 188.136 220.499C184.59 218.68 181.359 215.972 177.657 214.458C174.66 213.232 171.584 212.01 168.818 210.43C167.673 209.776 165.976 209.937 165.052 209.013C164.548 208.51 163.97 208.658 163.97 207.745V204.575C163.97 203.374 166.034 202.711 167.159 202.711H167.196C168.203 202.711 171.018 202.711 171.69 202.039C173.063 200.666 173.086 197.784 174.375 196.334C174.836 195.815 175.342 193.676 175.382 192.977C175.473 191.384 175.797 189.69 176.053 188.092C177.055 181.828 178.113 175.648 179.577 169.465C179.988 167.73 180.246 166.024 180.491 164.263C180.689 162.836 181.433 161.633 181.74 160.254C182.246 157.978 182.993 155.669 183.362 153.373C184.072 148.955 184.444 144.232 184.444 139.762C184.444 136.211 185.221 131.456 184.257 128.015C182.967 123.407 181.666 118.901 179.931 114.441C178.266 110.159 176.303 105.912 174.86 101.5C171.77 92.0586 168.002 80.7022 159.607 74.6688C155.662 71.8331 151.325 69.3613 146.872 67.4528C142.617 65.6291 137.544 62.2121 132.757 62.0828C128.927 61.9792 124.078 61.3112 120.32 62.2506C113.665 63.9144 107.035 65.7687 100.388 67.4528C95.429 68.709 90.725 70.0905 86.0303 72.1516L86.0081 72.1613C83.5432 73.2435 81.133 74.3016 79.3923 76.4402C76.5398 79.9446 74.58 83.9354 72.0085 87.6091C70.7892 89.351 70.3211 91.5819 68.9879 93.2961C67.5661 95.1241 66.4692 97.7527 65.4638 99.8408C63.6449 103.618 62.7978 106.644 62.2007 110.749C61.8526 113.142 61.9271 115.597 61.5295 117.983C61.22 119.84 60.4463 121.67 60.0005 123.503C58.9009 128.023 59.1275 132.993 58.5834 137.618C58.2896 140.114 57.5765 142.424 57.5765 144.964C57.5765 146.653 58.0807 148.345 58.2664 150.017C58.4452 151.626 59.4354 153.235 60.0751 154.697C60.5575 155.8 60.6505 157.129 61.2684 158.147C62.4169 160.038 62.8259 162.164 63.6924 164.113C64.467 165.856 65.0349 168.373 65.0349 170.262C65.0349 172.587 64.6968 174.284 65.0349 176.144C65.28 177.492 66.0938 178.302 66.9927 179.425C68.4451 181.241 68.088 184.468 70.1625 186.063C72.2891 187.699 72.7898 190.443 74.6189 192.272C75.8736 193.527 77.044 193.928 78.8143 194.715C79.521 195.029 80.4236 194.888 81.1637 195.2C81.8597 195.493 84.8263 195.998 85.6014 195.998C87.4715 195.998 89.4421 197.535 90.9528 198.497C92.5233 199.496 92.8174 199.806 92.8174 201.704C92.8174 203.709 91.505 204.191 90.5426 205.731C89.4679 207.451 87.539 209.294 86.0862 210.747C82.3698 214.463 77.0199 216.704 74.6189 221.506C73.0066 224.73 70.6969 226.923 67.1605 227.566C64.5435 228.042 61.899 228.904 59.2733 229.561C57.8138 229.926 56.2791 230.504 54.8915 231.071C53.1365 231.789 51.2103 231.901 49.596 232.917C48.5564 233.572 46.9933 233.694 45.8296 234.26C44.3737 234.967 42.8018 235.579 41.2799 236.124C39.1365 236.893 36.9892 238.635 34.9776 239.742C32.5054 241.101 30.2265 242.424 27.8735 243.993C25.4861 245.584 23.4274 246.2 22.1678 248.859C20.9807 251.366 20.3219 253.981 20.3219 256.747Z" fill="#E6ECEF"/>
</g>
<rect width="264" height="64" transform="translate(0 272)" fill="#766178"/>
<path d="M81.2773 283.031H85.0273L90.0664 295.359H90.2773L95.3164 283.031H99.0664V300H96.1367V288.328H95.9727L91.2617 299.953H89.082L84.3711 288.281H84.2305V300H81.2773V283.031ZM101.466 300V287.273H104.466V300H101.466ZM101.255 283.828C101.255 282.938 102.041 282.211 102.99 282.211C103.939 282.211 104.724 282.938 104.724 283.828C104.724 284.73 103.939 285.457 102.99 285.469C102.041 285.457 101.255 284.73 101.255 283.828ZM109.726 283.031V300H106.726V283.031H109.726ZM111.985 300V287.273H114.985V300H111.985ZM111.774 283.828C111.774 282.938 112.559 282.211 113.509 282.211C114.458 282.211 115.243 282.938 115.243 283.828C115.243 284.73 114.458 285.457 113.509 285.469C112.559 285.457 111.774 284.73 111.774 283.828ZM123.596 287.273V289.57H121.088V296.18C121.088 297.398 121.698 297.645 122.448 297.656C122.799 297.668 123.385 297.633 123.76 297.609V300.047C123.409 300.105 122.834 300.176 122.073 300.164C119.823 300.176 118.088 299.062 118.112 296.672V289.57H116.284V287.273H118.112V284.227H121.088V287.273H123.596ZM124.707 296.414C124.707 293.555 127.086 292.723 129.441 292.57C130.332 292.5 132.148 292.418 132.711 292.395L132.699 291.375C132.699 290.109 131.891 289.383 130.402 289.383C129.066 289.383 128.246 289.992 128.012 290.906H125.129C125.34 288.738 127.285 287.109 130.473 287.109C132.887 287.109 135.676 288.105 135.676 291.492V300H132.816V298.242H132.723C132.16 299.32 130.977 300.258 128.973 300.258C126.547 300.258 124.707 298.934 124.707 296.414ZM127.59 296.391C127.59 297.492 128.492 298.055 129.746 298.055C131.562 298.055 132.723 296.859 132.723 295.43L132.711 294.387C132.172 294.41 130.508 294.516 129.91 294.562C128.492 294.68 127.59 295.277 127.59 296.391ZM137.888 300V287.273H140.795V289.383H140.935C141.392 287.918 142.611 287.086 144.076 287.086C144.404 287.086 144.873 287.121 145.154 287.156V289.922C144.884 289.828 144.263 289.746 143.771 289.734C142.107 289.746 140.888 290.895 140.888 292.5V300H137.888ZM148.538 304.781C147.941 304.77 147.378 304.758 146.991 304.711V302.32C147.355 302.355 147.859 302.355 148.257 302.367C148.984 302.355 149.593 302.309 150.109 300.938L150.366 300.258L145.726 287.273H148.89L151.843 296.883H151.984L154.937 287.273H158.101L152.991 301.547C152.265 303.574 150.929 304.77 148.538 304.781ZM166.768 300H163.51L169.487 283.031H173.237L179.237 300H175.979L174.561 295.805H168.174L166.768 300ZM168.995 293.344H173.741L171.432 286.5H171.291L168.995 293.344ZM183.699 283.031V300H180.652V283.031H183.699ZM63.8422 326V309.031H74.8812V311.586H66.8891V316.227H74.2953V318.781H66.8891V323.422H74.9281V326H63.8422ZM83.4219 313.273V315.57H80.9141V322.18C80.9141 323.398 81.5234 323.645 82.2734 323.656C82.625 323.668 83.2109 323.633 83.5859 323.609V326.047C83.2344 326.105 82.6602 326.176 81.8984 326.164C79.6484 326.176 77.9141 325.062 77.9375 322.672V315.57H76.1094V313.273H77.9375V310.227H80.9141V313.273H83.4219ZM88.4 318.547V326H85.4V309.031H88.3297V315.43H88.4937C89.068 313.988 90.3102 313.109 92.2672 313.109C94.9039 313.109 96.65 314.82 96.65 317.891V326H93.6734V318.359C93.6617 316.625 92.7359 315.629 91.1656 315.641C89.5484 315.629 88.4 316.695 88.4 318.547ZM98.8859 326V313.273H101.886V326H98.8859ZM98.675 309.828C98.675 308.938 99.4602 308.211 100.409 308.211C101.359 308.211 102.144 308.938 102.144 309.828C102.144 310.73 101.359 311.457 100.409 311.469C99.4602 311.457 98.675 310.73 98.675 309.828ZM109.7 326.258C105.903 326.258 103.606 323.539 103.606 319.695C103.606 315.793 105.973 313.109 109.7 313.109C112.782 313.109 114.95 314.914 115.161 317.656H112.302C112.067 316.438 111.177 315.512 109.723 315.5C107.872 315.512 106.63 317.059 106.63 319.625C106.63 322.25 107.848 323.809 109.723 323.82C111.048 323.809 112.032 323.035 112.302 321.664H115.161C114.938 324.348 112.899 326.258 109.7 326.258ZM124.03 316.906C123.842 315.945 123.045 315.324 121.78 315.336C120.502 315.324 119.565 315.969 119.577 316.836C119.565 317.492 120.092 317.984 121.381 318.289L123.537 318.734C125.94 319.262 127.112 320.375 127.123 322.203C127.112 324.594 125.014 326.258 121.686 326.258C118.452 326.258 116.541 324.805 116.225 322.367H119.272C119.448 323.457 120.291 323.996 121.686 323.984C123.127 323.996 124.065 323.41 124.077 322.461C124.065 321.723 123.491 321.254 122.225 320.984L120.186 320.539C117.819 320.059 116.588 318.816 116.6 317C116.588 314.645 118.627 313.109 121.733 313.109C124.768 313.109 126.643 314.598 126.866 316.906H124.03ZM134.033 326V309.031H145.072V311.586H137.08V316.227H144.486V318.781H137.08V323.422H145.119V326H134.033ZM149.698 313.273L152.277 317.984L154.902 313.273H158.066L154.222 319.625L158.136 326H154.995L152.277 321.406L149.628 326H146.441L150.331 319.625L146.534 313.273H149.698ZM159.575 330.781V313.273H162.505V315.359H162.692C163.149 314.457 164.087 313.109 166.348 313.109C169.278 313.109 171.587 315.406 171.598 319.648C171.587 323.832 169.348 326.223 166.348 326.234C164.157 326.223 163.161 324.922 162.692 323.984H162.575V330.781H159.575ZM162.505 319.625C162.516 322.109 163.595 323.773 165.528 323.773C167.509 323.773 168.552 322.027 168.552 319.625C168.552 317.258 167.532 315.559 165.528 315.547C163.571 315.559 162.516 317.152 162.505 319.625ZM178.991 326.258C175.159 326.258 172.803 323.703 172.803 319.719C172.803 315.781 175.194 313.109 178.827 313.109C181.944 313.109 184.639 315.066 184.639 319.531V320.469H175.756C175.803 322.637 177.08 323.926 179.014 323.914C180.327 323.926 181.205 323.363 181.592 322.602H184.522C183.983 324.805 181.944 326.258 178.991 326.258ZM175.768 318.43H181.78C181.768 316.695 180.596 315.43 178.873 315.43C177.08 315.43 175.873 316.812 175.768 318.43ZM186.359 326V313.273H189.266V315.383H189.406C189.863 313.918 191.082 313.086 192.547 313.086C192.875 313.086 193.344 313.121 193.625 313.156V315.922C193.355 315.828 192.734 315.746 192.242 315.734C190.578 315.746 189.359 316.895 189.359 318.5V326H186.359ZM201.861 313.273V315.57H199.353V322.18C199.353 323.398 199.962 323.645 200.712 323.656C201.064 323.668 201.65 323.633 202.025 323.609V326.047C201.673 326.105 201.099 326.176 200.337 326.164C198.087 326.176 196.353 325.062 196.377 322.672V315.57H194.548V313.273H196.377V310.227H199.353V313.273H201.861Z" fill="#E6ECEF"/>
<defs>
<clipPath id="clip0_2533_13356">
<rect width="264" height="264" fill="white"/>
</clipPath>
</defs>
</svg>
