<svg width="264" height="336" viewBox="0 0 264 336" fill="none" xmlns="http://www.w3.org/2000/svg">
<g clip-path="url(#clip0_2573_13461)">
<rect width="264" height="264" fill="#766178"/>
<path d="M20.3219 256.747C20.3219 261.742 20.1151 266.579 21.2255 271.416C21.2918 271.705 21.3926 271.986 21.5585 272.232C22.2085 273.196 23.6796 274.794 24.2748 275.281C26.6529 277.226 30.9516 277.189 33.7843 277.22C36.6539 277.251 39.4162 277.891 42.3055 277.891C51.6158 277.891 60.8356 276.373 70.032 275.038C75.931 274.182 82.0063 273.016 87.9694 272.875C93.9419 272.735 99.9328 272.857 105.907 272.857C115.903 272.857 125.901 273.437 135.89 273.789C148.158 274.222 160.434 273.977 172.697 274.46C183.036 274.868 193.342 274.937 203.686 275.542C216.846 276.311 229.927 276.549 243.104 276.549C243.753 276.549 250.227 277.162 250.227 276.027C250.227 273.432 250.143 270.893 249.705 268.326C248.762 262.806 246.15 256.46 241.911 252.645C240.909 251.743 239.636 251.167 238.405 250.631C234.873 249.093 231.841 246.491 228.336 245C225.785 243.914 223.647 242.23 221.027 241.308C218.753 240.508 216.19 239.289 214.184 237.952C209.178 234.614 205.145 230.172 199.883 227.211C197.766 226.021 195.958 224.637 193.673 223.706C191.609 222.865 190.084 221.498 188.136 220.499C184.59 218.68 181.359 215.972 177.657 214.458C174.66 213.232 171.584 212.01 168.818 210.43C167.673 209.776 165.976 209.937 165.052 209.013C164.548 208.51 163.97 208.658 163.97 207.745V204.575C163.97 203.374 166.034 202.711 167.159 202.711H167.196C168.203 202.711 171.018 202.711 171.69 202.039C173.063 200.666 173.086 197.784 174.375 196.334C174.836 195.815 175.342 193.676 175.382 192.977C175.473 191.384 175.797 189.69 176.053 188.092C177.055 181.828 178.113 175.648 179.577 169.465C179.988 167.73 180.246 166.024 180.491 164.263C180.689 162.836 181.433 161.633 181.74 160.254C182.246 157.978 182.993 155.669 183.362 153.373C184.072 148.955 184.444 144.232 184.444 139.762C184.444 136.211 185.221 131.456 184.257 128.015C182.967 123.407 181.666 118.901 179.931 114.441C178.266 110.159 176.303 105.912 174.86 101.5C171.77 92.0586 168.002 80.7022 159.607 74.6688C155.662 71.8331 151.325 69.3613 146.872 67.4528C142.617 65.6291 137.544 62.2121 132.757 62.0828C128.927 61.9792 124.078 61.3112 120.32 62.2506C113.665 63.9144 107.035 65.7687 100.388 67.4528C95.429 68.709 90.725 70.0905 86.0303 72.1516L86.0081 72.1613C83.5432 73.2435 81.133 74.3016 79.3923 76.4402C76.5398 79.9446 74.58 83.9354 72.0085 87.6091C70.7892 89.351 70.3211 91.5819 68.9879 93.2961C67.5661 95.1241 66.4692 97.7527 65.4638 99.8408C63.6449 103.618 62.7978 106.644 62.2007 110.749C61.8526 113.142 61.9271 115.597 61.5295 117.983C61.22 119.84 60.4463 121.67 60.0005 123.503C58.9009 128.023 59.1275 132.993 58.5834 137.618C58.2896 140.114 57.5765 142.424 57.5765 144.964C57.5765 146.653 58.0807 148.345 58.2664 150.017C58.4452 151.626 59.4354 153.235 60.0751 154.697C60.5575 155.8 60.6505 157.129 61.2684 158.147C62.4169 160.038 62.8259 162.164 63.6924 164.113C64.467 165.856 65.0349 168.373 65.0349 170.262C65.0349 172.587 64.6968 174.284 65.0349 176.144C65.28 177.492 66.0938 178.302 66.9927 179.425C68.4451 181.241 68.088 184.468 70.1625 186.063C72.2891 187.699 72.7898 190.443 74.6189 192.272C75.8736 193.527 77.044 193.928 78.8143 194.715C79.521 195.029 80.4236 194.888 81.1637 195.2C81.8597 195.493 84.8263 195.998 85.6014 195.998C87.4715 195.998 89.4421 197.535 90.9528 198.497C92.5233 199.496 92.8174 199.806 92.8174 201.704C92.8174 203.709 91.505 204.191 90.5426 205.731C89.4679 207.451 87.539 209.294 86.0862 210.747C82.3698 214.463 77.0199 216.704 74.6189 221.506C73.0066 224.73 70.6969 226.923 67.1605 227.566C64.5435 228.042 61.899 228.904 59.2733 229.561C57.8138 229.926 56.2791 230.504 54.8915 231.071C53.1365 231.789 51.2103 231.901 49.596 232.917C48.5564 233.572 46.9933 233.694 45.8296 234.26C44.3737 234.967 42.8018 235.579 41.2799 236.124C39.1365 236.893 36.9892 238.635 34.9776 239.742C32.5054 241.101 30.2265 242.424 27.8735 243.993C25.4861 245.584 23.4274 246.2 22.1678 248.859C20.9807 251.366 20.3219 253.981 20.3219 256.747Z" fill="#E6ECEF"/>
</g>
<rect width="264" height="64" transform="translate(0 272)" fill="#766178"/>
<path d="M25.8187 296.031H29.5687L34.6078 308.359H34.8187L39.8578 296.031H43.6078V313H40.6781V301.328H40.5141L35.8031 312.953H33.6234L28.9125 301.281H28.7719V313H25.8187V296.031ZM46.0078 313V300.273H49.0078V313H46.0078ZM45.7969 296.828C45.7969 295.938 46.582 295.211 47.5312 295.211C48.4805 295.211 49.2656 295.938 49.2656 296.828C49.2656 297.73 48.4805 298.457 47.5312 298.469C46.582 298.457 45.7969 297.73 45.7969 296.828ZM54.2672 296.031V313H51.2672V296.031H54.2672ZM56.5266 313V300.273H59.5266V313H56.5266ZM56.3156 296.828C56.3156 295.938 57.1008 295.211 58.05 295.211C58.9992 295.211 59.7844 295.938 59.7844 296.828C59.7844 297.73 58.9992 298.457 58.05 298.469C57.1008 298.457 56.3156 297.73 56.3156 296.828ZM68.1375 300.273V302.57H65.6297V309.18C65.6297 310.398 66.2391 310.645 66.9891 310.656C67.3406 310.668 67.9266 310.633 68.3016 310.609V313.047C67.95 313.105 67.3758 313.176 66.6141 313.164C64.3641 313.176 62.6297 312.062 62.6531 309.672V302.57H60.825V300.273H62.6531V297.227H65.6297V300.273H68.1375ZM69.2484 309.414C69.2484 306.555 71.6273 305.723 73.9828 305.57C74.8734 305.5 76.6898 305.418 77.2523 305.395L77.2406 304.375C77.2406 303.109 76.432 302.383 74.9437 302.383C73.6078 302.383 72.7875 302.992 72.5531 303.906H69.6703C69.8812 301.738 71.8266 300.109 75.0141 300.109C77.4281 300.109 80.2172 301.105 80.2172 304.492V313H77.3578V311.242H77.2641C76.7016 312.32 75.518 313.258 73.5141 313.258C71.0883 313.258 69.2484 311.934 69.2484 309.414ZM72.1312 309.391C72.1312 310.492 73.0336 311.055 74.2875 311.055C76.1039 311.055 77.2641 309.859 77.2641 308.43L77.2523 307.387C76.7133 307.41 75.0492 307.516 74.4516 307.562C73.0336 307.68 72.1312 308.277 72.1312 309.391ZM82.4297 313V300.273H85.3359V302.383H85.4766C85.9336 300.918 87.1523 300.086 88.6172 300.086C88.9453 300.086 89.4141 300.121 89.6953 300.156V302.922C89.4258 302.828 88.8047 302.746 88.3125 302.734C86.6484 302.746 85.4297 303.895 85.4297 305.5V313H82.4297ZM93.0797 317.781C92.482 317.77 91.9195 317.758 91.5328 317.711V315.32C91.8961 315.355 92.4 315.355 92.7984 315.367C93.525 315.355 94.1344 315.309 94.65 313.938L94.9078 313.258L90.2672 300.273H93.4313L96.3844 309.883H96.525L99.4781 300.273H102.642L97.5328 314.547C96.8063 316.574 95.4703 317.77 93.0797 317.781ZM120.591 301.75C120.227 299.711 118.598 298.539 116.536 298.539C113.759 298.539 111.79 300.672 111.802 304.516C111.79 308.418 113.77 310.492 116.536 310.492C118.552 310.492 120.18 309.367 120.591 307.375H123.661C123.192 310.633 120.509 313.234 116.489 313.234C112.012 313.234 108.72 309.988 108.731 304.516C108.72 299.031 112.048 295.797 116.489 295.797C120.239 295.797 123.134 297.977 123.661 301.75H120.591ZM131.1 313.258C127.385 313.258 125.006 310.621 125.006 306.695C125.006 302.734 127.385 300.109 131.1 300.109C134.827 300.109 137.205 302.734 137.194 306.695C137.205 310.621 134.827 313.258 131.1 313.258ZM128.03 306.672C128.03 309.004 129.049 310.867 131.123 310.867C133.162 310.867 134.182 309.004 134.17 306.672C134.182 304.34 133.162 302.465 131.123 302.477C129.049 302.465 128.03 304.34 128.03 306.672ZM138.914 313V300.273H141.773V302.43H141.938C142.465 300.977 143.742 300.109 145.43 300.109C147.152 300.109 148.395 300.988 148.875 302.43H149.016C149.566 301.023 150.984 300.109 152.836 300.109C155.168 300.109 156.809 301.609 156.797 304.445V313H153.82V304.914C153.82 303.332 152.859 302.617 151.641 302.617C150.176 302.617 149.32 303.613 149.32 305.055V313H146.414V304.797C146.402 303.473 145.535 302.617 144.258 302.617C142.969 302.617 141.914 303.684 141.914 305.266V313H138.914ZM159.056 313V300.273H161.916V302.43H162.08C162.607 300.977 163.884 300.109 165.572 300.109C167.295 300.109 168.537 300.988 169.017 302.43H169.158C169.709 301.023 171.127 300.109 172.978 300.109C175.31 300.109 176.951 301.609 176.939 304.445V313H173.962V304.914C173.962 303.332 173.002 302.617 171.783 302.617C170.318 302.617 169.462 303.613 169.462 305.055V313H166.556V304.797C166.545 303.473 165.677 302.617 164.4 302.617C163.111 302.617 162.056 303.684 162.056 305.266V313H159.056ZM178.612 309.414C178.612 306.555 180.991 305.723 183.347 305.57C184.237 305.5 186.054 305.418 186.616 305.395L186.605 304.375C186.605 303.109 185.796 302.383 184.308 302.383C182.972 302.383 182.152 302.992 181.917 303.906H179.034C179.245 301.738 181.191 300.109 184.378 300.109C186.792 300.109 189.581 301.105 189.581 304.492V313H186.722V311.242H186.628C186.066 312.32 184.882 313.258 182.878 313.258C180.452 313.258 178.612 311.934 178.612 309.414ZM181.495 309.391C181.495 310.492 182.398 311.055 183.652 311.055C185.468 311.055 186.628 309.859 186.628 308.43L186.616 307.387C186.077 307.41 184.413 307.516 183.816 307.562C182.398 307.68 181.495 308.277 181.495 309.391ZM194.794 305.547V313H191.794V300.273H194.653V302.43H194.817C195.391 301.012 196.692 300.109 198.591 300.109C201.227 300.109 202.962 301.844 202.95 304.891V313H199.973V305.359C199.973 303.648 199.048 302.629 197.489 302.641C195.907 302.629 194.794 303.695 194.794 305.547ZM209.944 313.234C206.955 313.223 204.694 310.832 204.694 306.648C204.694 302.406 207.014 300.109 209.967 300.109C212.205 300.109 213.143 301.457 213.6 302.359H213.717V296.031H216.694V313H213.764V310.984H213.6C213.12 311.922 212.147 313.223 209.944 313.234ZM207.741 306.625C207.741 309.027 208.795 310.773 210.764 310.773C212.698 310.773 213.788 309.109 213.788 306.625C213.788 304.152 212.709 302.559 210.764 302.547C208.772 302.559 207.741 304.258 207.741 306.625ZM224.766 313.258C220.934 313.258 218.578 310.703 218.578 306.719C218.578 302.781 220.969 300.109 224.602 300.109C227.719 300.109 230.414 302.066 230.414 306.531V307.469H221.531C221.578 309.637 222.855 310.926 224.789 310.914C226.102 310.926 226.98 310.363 227.367 309.602H230.297C229.758 311.805 227.719 313.258 224.766 313.258ZM221.543 305.43H227.555C227.543 303.695 226.371 302.43 224.648 302.43C222.855 302.43 221.648 303.812 221.543 305.43ZM232.134 313V300.273H235.041V302.383H235.181C235.638 300.918 236.857 300.086 238.322 300.086C238.65 300.086 239.119 300.121 239.4 300.156V302.922C239.13 302.828 238.509 302.746 238.017 302.734C236.353 302.746 235.134 303.895 235.134 305.5V313H232.134Z" fill="#E6ECEF"/>
<defs>
<clipPath id="clip0_2573_13461">
<rect width="264" height="264" fill="white"/>
</clipPath>
</defs>
</svg>
