<svg width="264" height="336" viewBox="0 0 264 336" fill="none" xmlns="http://www.w3.org/2000/svg">
<g clip-path="url(#clip0_2533_13320)">
<rect width="264" height="264" fill="#766178"/>
<path d="M20.3219 256.747C20.3219 261.742 20.1151 266.579 21.2255 271.416C21.2918 271.705 21.3926 271.986 21.5585 272.232C22.2085 273.196 23.6796 274.794 24.2748 275.281C26.6529 277.226 30.9516 277.189 33.7843 277.22C36.6539 277.251 39.4162 277.891 42.3055 277.891C51.6158 277.891 60.8356 276.373 70.032 275.038C75.931 274.182 82.0063 273.016 87.9694 272.875C93.9419 272.735 99.9328 272.857 105.907 272.857C115.903 272.857 125.901 273.437 135.89 273.789C148.158 274.222 160.434 273.977 172.697 274.46C183.036 274.868 193.342 274.937 203.686 275.542C216.846 276.311 229.927 276.549 243.104 276.549C243.753 276.549 250.227 277.162 250.227 276.027C250.227 273.432 250.143 270.893 249.705 268.326C248.762 262.806 246.15 256.46 241.911 252.645C240.909 251.743 239.636 251.167 238.405 250.631C234.873 249.093 231.841 246.491 228.336 245C225.785 243.914 223.647 242.23 221.027 241.308C218.753 240.508 216.19 239.289 214.184 237.952C209.178 234.614 205.145 230.172 199.883 227.211C197.766 226.021 195.958 224.637 193.673 223.706C191.609 222.865 190.084 221.498 188.136 220.499C184.59 218.68 181.359 215.972 177.657 214.458C174.66 213.232 171.584 212.01 168.818 210.43C167.673 209.776 165.976 209.937 165.052 209.013C164.548 208.51 163.97 208.658 163.97 207.745V204.575C163.97 203.374 166.034 202.711 167.159 202.711H167.196C168.203 202.711 171.018 202.711 171.69 202.039C173.063 200.666 173.086 197.784 174.375 196.334C174.836 195.815 175.342 193.676 175.382 192.977C175.473 191.384 175.797 189.69 176.053 188.092C177.055 181.828 178.113 175.648 179.577 169.465C179.988 167.73 180.246 166.024 180.491 164.263C180.689 162.836 181.433 161.633 181.74 160.254C182.246 157.978 182.993 155.669 183.362 153.373C184.072 148.955 184.444 144.232 184.444 139.762C184.444 136.211 185.221 131.456 184.257 128.015C182.967 123.407 181.666 118.901 179.931 114.441C178.266 110.159 176.303 105.912 174.86 101.5C171.77 92.0586 168.002 80.7022 159.607 74.6688C155.662 71.8331 151.325 69.3613 146.872 67.4528C142.617 65.6291 137.544 62.2121 132.757 62.0828C128.927 61.9792 124.078 61.3112 120.32 62.2506C113.665 63.9144 107.035 65.7687 100.388 67.4528C95.429 68.709 90.725 70.0905 86.0303 72.1516L86.0081 72.1613C83.5432 73.2435 81.133 74.3016 79.3923 76.4402C76.5398 79.9446 74.58 83.9354 72.0085 87.6091C70.7892 89.351 70.3211 91.5819 68.9879 93.2961C67.5661 95.1241 66.4692 97.7527 65.4638 99.8408C63.6449 103.618 62.7978 106.644 62.2007 110.749C61.8526 113.142 61.9271 115.597 61.5295 117.983C61.22 119.84 60.4463 121.67 60.0005 123.503C58.9009 128.023 59.1275 132.993 58.5834 137.618C58.2896 140.114 57.5765 142.424 57.5765 144.964C57.5765 146.653 58.0807 148.345 58.2664 150.017C58.4452 151.626 59.4354 153.235 60.0751 154.697C60.5575 155.8 60.6505 157.129 61.2684 158.147C62.4169 160.038 62.8259 162.164 63.6924 164.113C64.467 165.856 65.0349 168.373 65.0349 170.262C65.0349 172.587 64.6968 174.284 65.0349 176.144C65.28 177.492 66.0938 178.302 66.9927 179.425C68.4451 181.241 68.088 184.468 70.1625 186.063C72.2891 187.699 72.7898 190.443 74.6189 192.272C75.8736 193.527 77.044 193.928 78.8143 194.715C79.521 195.029 80.4236 194.888 81.1637 195.2C81.8597 195.493 84.8263 195.998 85.6014 195.998C87.4715 195.998 89.4421 197.535 90.9528 198.497C92.5233 199.496 92.8174 199.806 92.8174 201.704C92.8174 203.709 91.505 204.191 90.5426 205.731C89.4679 207.451 87.539 209.294 86.0862 210.747C82.3698 214.463 77.0199 216.704 74.6189 221.506C73.0066 224.73 70.6969 226.923 67.1605 227.566C64.5435 228.042 61.899 228.904 59.2733 229.561C57.8138 229.926 56.2791 230.504 54.8915 231.071C53.1365 231.789 51.2103 231.901 49.596 232.917C48.5564 233.572 46.9933 233.694 45.8296 234.26C44.3737 234.967 42.8018 235.579 41.2799 236.124C39.1365 236.893 36.9892 238.635 34.9776 239.742C32.5054 241.101 30.2265 242.424 27.8735 243.993C25.4861 245.584 23.4274 246.2 22.1678 248.859C20.9807 251.366 20.3219 253.981 20.3219 256.747Z" fill="#E6ECEF"/>
</g>
<rect width="264" height="64" transform="translate(0 272)" fill="#766178"/>
<path d="M81.5164 313H75.7508V296.031H81.6102C86.6727 296.031 89.7313 299.207 89.743 304.492C89.7313 309.801 86.6727 313 81.5164 313ZM78.7977 310.352H81.3523C84.9031 310.363 86.6961 308.406 86.6961 304.492C86.6961 300.602 84.9031 298.668 81.4461 298.68H78.7977V310.352ZM91.1117 309.414C91.1117 306.555 93.4906 305.723 95.8461 305.57C96.7367 305.5 98.5531 305.418 99.1156 305.395L99.1039 304.375C99.1039 303.109 98.2953 302.383 96.807 302.383C95.4711 302.383 94.6508 302.992 94.4164 303.906H91.5336C91.7445 301.738 93.6898 300.109 96.8773 300.109C99.2914 300.109 102.08 301.105 102.08 304.492V313H99.2211V311.242H99.1273C98.5648 312.32 97.3813 313.258 95.3773 313.258C92.9516 313.258 91.1117 311.934 91.1117 309.414ZM93.9945 309.391C93.9945 310.492 94.8969 311.055 96.1508 311.055C97.9672 311.055 99.1273 309.859 99.1273 308.43L99.1156 307.387C98.5766 307.41 96.9125 307.516 96.3148 307.562C94.8969 307.68 93.9945 308.277 93.9945 309.391ZM112.426 307.656V300.273H115.402V313H112.52V310.75H112.379C111.793 312.168 110.457 313.164 108.559 313.164C106.039 313.164 104.305 311.43 104.293 308.383V300.273H107.293V307.914C107.293 309.531 108.254 310.562 109.707 310.562C111.02 310.562 112.426 309.602 112.426 307.656ZM123.216 318.039C119.841 318.039 117.697 316.539 117.498 314.148H120.474C120.685 315.262 121.728 315.777 123.263 315.789C125.056 315.777 126.216 315.004 126.216 313.141V310.703H126.076C125.607 311.641 124.588 312.812 122.396 312.812C119.455 312.812 117.146 310.68 117.146 306.531C117.146 302.348 119.466 300.109 122.42 300.109C124.658 300.109 125.607 301.457 126.076 302.359H126.216V300.273H129.17V313.211C129.17 316.469 126.65 318.039 123.216 318.039ZM120.193 306.578C120.193 308.922 121.248 310.469 123.216 310.469C125.15 310.469 126.24 309.016 126.24 306.578C126.24 304.152 125.162 302.559 123.216 302.547C121.224 302.559 120.193 304.258 120.193 306.578ZM134.429 305.547V313H131.429V296.031H134.359V302.43H134.523C135.097 300.988 136.339 300.109 138.296 300.109C140.933 300.109 142.679 301.82 142.679 304.891V313H139.702V305.359C139.691 303.625 138.765 302.629 137.195 302.641C135.577 302.629 134.429 303.695 134.429 305.547ZM151.266 300.273V302.57H148.759V309.18C148.759 310.398 149.368 310.645 150.118 310.656C150.47 310.668 151.055 310.633 151.43 310.609V313.047C151.079 313.105 150.505 313.176 149.743 313.164C147.493 313.176 145.759 312.062 145.782 309.672V302.57H143.954V300.273H145.782V297.227H148.759V300.273H151.266ZM158.471 313.258C154.639 313.258 152.284 310.703 152.284 306.719C152.284 302.781 154.674 300.109 158.307 300.109C161.424 300.109 164.12 302.066 164.12 306.531V307.469H155.237C155.284 309.637 156.561 310.926 158.495 310.914C159.807 310.926 160.686 310.363 161.073 309.602H164.002C163.463 311.805 161.424 313.258 158.471 313.258ZM155.248 305.43H161.26C161.248 303.695 160.077 302.43 158.354 302.43C156.561 302.43 155.354 303.812 155.248 305.43ZM165.84 313V300.273H168.746V302.383H168.887C169.344 300.918 170.562 300.086 172.027 300.086C172.355 300.086 172.824 300.121 173.105 300.156V302.922C172.836 302.828 172.215 302.746 171.723 302.734C170.059 302.746 168.84 303.895 168.84 305.5V313H165.84ZM186.226 296.031H189.249V307.961C189.249 311.242 187.058 313.234 183.788 313.234C180.812 313.234 178.527 311.617 178.538 308.5H181.585C181.597 309.883 182.534 310.715 183.905 310.727C185.382 310.715 186.214 309.766 186.226 307.961V296.031Z" fill="#E6ECEF"/>
<defs>
<clipPath id="clip0_2533_13320">
<rect width="264" height="264" fill="white"/>
</clipPath>
</defs>
</svg>
