<svg width="264" height="336" viewBox="0 0 264 336" fill="none" xmlns="http://www.w3.org/2000/svg">
<g clip-path="url(#clip0_2573_13482)">
<rect width="264" height="264" fill="#766178"/>
<path d="M20.3219 256.747C20.3219 261.742 20.1151 266.579 21.2255 271.416C21.2918 271.705 21.3926 271.986 21.5585 272.232C22.2085 273.196 23.6796 274.794 24.2748 275.281C26.6529 277.226 30.9516 277.189 33.7843 277.22C36.6539 277.251 39.4162 277.891 42.3055 277.891C51.6158 277.891 60.8356 276.373 70.032 275.038C75.931 274.182 82.0063 273.016 87.9694 272.875C93.9419 272.735 99.9328 272.857 105.907 272.857C115.903 272.857 125.901 273.437 135.89 273.789C148.158 274.222 160.434 273.977 172.697 274.46C183.036 274.868 193.342 274.937 203.686 275.542C216.846 276.311 229.927 276.549 243.104 276.549C243.753 276.549 250.227 277.162 250.227 276.027C250.227 273.432 250.143 270.893 249.705 268.326C248.762 262.806 246.15 256.46 241.911 252.645C240.909 251.743 239.636 251.167 238.405 250.631C234.873 249.093 231.841 246.491 228.336 245C225.785 243.914 223.647 242.23 221.027 241.308C218.753 240.508 216.19 239.289 214.184 237.952C209.178 234.614 205.145 230.172 199.883 227.211C197.766 226.021 195.958 224.637 193.673 223.706C191.609 222.865 190.084 221.498 188.136 220.499C184.59 218.68 181.359 215.972 177.657 214.458C174.66 213.232 171.584 212.01 168.818 210.43C167.673 209.776 165.976 209.937 165.052 209.013C164.548 208.51 163.97 208.658 163.97 207.745V204.575C163.97 203.374 166.034 202.711 167.159 202.711H167.196C168.203 202.711 171.018 202.711 171.69 202.039C173.063 200.666 173.086 197.784 174.375 196.334C174.836 195.815 175.342 193.676 175.382 192.977C175.473 191.384 175.797 189.69 176.053 188.092C177.055 181.828 178.113 175.648 179.577 169.465C179.988 167.73 180.246 166.024 180.491 164.263C180.689 162.836 181.433 161.633 181.74 160.254C182.246 157.978 182.993 155.669 183.362 153.373C184.072 148.955 184.444 144.232 184.444 139.762C184.444 136.211 185.221 131.456 184.257 128.015C182.967 123.407 181.666 118.901 179.931 114.441C178.266 110.159 176.303 105.912 174.86 101.5C171.77 92.0586 168.002 80.7022 159.607 74.6688C155.662 71.8331 151.325 69.3613 146.872 67.4528C142.617 65.6291 137.544 62.2121 132.757 62.0828C128.927 61.9792 124.078 61.3112 120.32 62.2506C113.665 63.9144 107.035 65.7687 100.388 67.4528C95.429 68.709 90.725 70.0905 86.0303 72.1516L86.0081 72.1613C83.5432 73.2435 81.133 74.3016 79.3923 76.4402C76.5398 79.9446 74.58 83.9354 72.0085 87.6091C70.7892 89.351 70.3211 91.5819 68.9879 93.2961C67.5661 95.1241 66.4692 97.7527 65.4638 99.8408C63.6449 103.618 62.7978 106.644 62.2007 110.749C61.8526 113.142 61.9271 115.597 61.5295 117.983C61.22 119.84 60.4463 121.67 60.0005 123.503C58.9009 128.023 59.1275 132.993 58.5834 137.618C58.2896 140.114 57.5765 142.424 57.5765 144.964C57.5765 146.653 58.0807 148.345 58.2664 150.017C58.4452 151.626 59.4354 153.235 60.0751 154.697C60.5575 155.8 60.6505 157.129 61.2684 158.147C62.4169 160.038 62.8259 162.164 63.6924 164.113C64.467 165.856 65.0349 168.373 65.0349 170.262C65.0349 172.587 64.6968 174.284 65.0349 176.144C65.28 177.492 66.0938 178.302 66.9927 179.425C68.4451 181.241 68.088 184.468 70.1625 186.063C72.2891 187.699 72.7898 190.443 74.6189 192.272C75.8736 193.527 77.044 193.928 78.8143 194.715C79.521 195.029 80.4236 194.888 81.1637 195.2C81.8597 195.493 84.8263 195.998 85.6014 195.998C87.4715 195.998 89.4421 197.535 90.9528 198.497C92.5233 199.496 92.8174 199.806 92.8174 201.704C92.8174 203.709 91.505 204.191 90.5426 205.731C89.4679 207.451 87.539 209.294 86.0862 210.747C82.3698 214.463 77.0199 216.704 74.6189 221.506C73.0066 224.73 70.6969 226.923 67.1605 227.566C64.5435 228.042 61.899 228.904 59.2733 229.561C57.8138 229.926 56.2791 230.504 54.8915 231.071C53.1365 231.789 51.2103 231.901 49.596 232.917C48.5564 233.572 46.9933 233.694 45.8296 234.26C44.3737 234.967 42.8018 235.579 41.2799 236.124C39.1365 236.893 36.9892 238.635 34.9776 239.742C32.5054 241.101 30.2265 242.424 27.8735 243.993C25.4861 245.584 23.4274 246.2 22.1678 248.859C20.9807 251.366 20.3219 253.981 20.3219 256.747Z" fill="#E6ECEF"/>
</g>
<rect width="264" height="64" transform="translate(0 272)" fill="#766178"/>
<path d="M29.5508 283.031V300H26.832L18.793 288.398H18.6523V300H15.6055V283.031H18.3711L26.3633 294.633H26.5273V283.031H29.5508ZM31.3648 296.414C31.3648 293.555 33.7437 292.723 36.0992 292.57C36.9898 292.5 38.8062 292.418 39.3687 292.395L39.357 291.375C39.357 290.109 38.5484 289.383 37.0602 289.383C35.7242 289.383 34.9039 289.992 34.6695 290.906H31.7867C31.9977 288.738 33.943 287.109 37.1305 287.109C39.5445 287.109 42.3336 288.105 42.3336 291.492V300H39.4742V298.242H39.3805C38.818 299.32 37.6344 300.258 35.6305 300.258C33.2047 300.258 31.3648 298.934 31.3648 296.414ZM34.2477 296.391C34.2477 297.492 35.15 298.055 36.4039 298.055C38.2203 298.055 39.3805 296.859 39.3805 295.43L39.3687 294.387C38.8297 294.41 37.1656 294.516 36.568 294.562C35.15 294.68 34.2477 295.277 34.2477 296.391ZM50.8977 287.273V289.57H48.3898V296.18C48.3898 297.398 48.9992 297.645 49.7492 297.656C50.1008 297.668 50.6867 297.633 51.0617 297.609V300.047C50.7102 300.105 50.1359 300.176 49.3742 300.164C47.1242 300.176 45.3898 299.062 45.4133 296.672V289.57H43.5852V287.273H45.4133V284.227H48.3898V287.273H50.8977ZM52.5945 300V287.273H55.5945V300H52.5945ZM52.3836 283.828C52.3836 282.938 53.1688 282.211 54.118 282.211C55.0672 282.211 55.8523 282.938 55.8523 283.828C55.8523 284.73 55.0672 285.457 54.118 285.469C53.1688 285.457 52.3836 284.73 52.3836 283.828ZM63.4086 300.258C59.6937 300.258 57.3148 297.621 57.3148 293.695C57.3148 289.734 59.6937 287.109 63.4086 287.109C67.1352 287.109 69.5141 289.734 69.5023 293.695C69.5141 297.621 67.1352 300.258 63.4086 300.258ZM60.3383 293.672C60.3383 296.004 61.3578 297.867 63.432 297.867C65.4711 297.867 66.4906 296.004 66.4789 293.672C66.4906 291.34 65.4711 289.465 63.432 289.477C61.3578 289.465 60.3383 291.34 60.3383 293.672ZM74.2227 292.547V300H71.2227V287.273H74.082V289.43H74.2461C74.8203 288.012 76.1211 287.109 78.0195 287.109C80.6562 287.109 82.3906 288.844 82.3789 291.891V300H79.4023V292.359C79.4023 290.648 78.4766 289.629 76.918 289.641C75.3359 289.629 74.2227 290.695 74.2227 292.547ZM84.0523 296.414C84.0523 293.555 86.4313 292.723 88.7867 292.57C89.6773 292.5 91.4938 292.418 92.0563 292.395L92.0445 291.375C92.0445 290.109 91.2359 289.383 89.7477 289.383C88.4117 289.383 87.5914 289.992 87.357 290.906H84.4742C84.6852 288.738 86.6305 287.109 89.818 287.109C92.232 287.109 95.0211 288.105 95.0211 291.492V300H92.1617V298.242H92.068C91.5055 299.32 90.3219 300.258 88.318 300.258C85.8922 300.258 84.0523 298.934 84.0523 296.414ZM86.9352 296.391C86.9352 297.492 87.8375 298.055 89.0914 298.055C90.9078 298.055 92.068 296.859 92.068 295.43L92.0563 294.387C91.5172 294.41 89.8531 294.516 89.2555 294.562C87.8375 294.68 86.9352 295.277 86.9352 296.391ZM100.234 283.031V300H97.2336V283.031H100.234ZM109.885 300H106.627L112.604 283.031H116.354L122.354 300H119.096L117.678 295.805H111.291L109.885 300ZM112.112 293.344H116.858L114.549 286.5H114.409L112.112 293.344ZM126.816 283.031V300H123.77V283.031H126.816ZM145.913 288.75C145.55 286.711 143.921 285.539 141.859 285.539C139.081 285.539 137.113 287.672 137.124 291.516C137.113 295.418 139.093 297.492 141.859 297.492C143.874 297.492 145.503 296.367 145.913 294.375H148.984C148.515 297.633 145.831 300.234 141.812 300.234C137.335 300.234 134.042 296.988 134.054 291.516C134.042 286.031 137.37 282.797 141.812 282.797C145.562 282.797 148.456 284.977 148.984 288.75H145.913ZM156.423 300.258C152.708 300.258 150.329 297.621 150.329 293.695C150.329 289.734 152.708 287.109 156.423 287.109C160.149 287.109 162.528 289.734 162.516 293.695C162.528 297.621 160.149 300.258 156.423 300.258ZM153.352 293.672C153.352 296.004 154.372 297.867 156.446 297.867C158.485 297.867 159.505 296.004 159.493 293.672C159.505 291.34 158.485 289.465 156.446 289.477C154.372 289.465 153.352 291.34 153.352 293.672ZM164.237 300V287.273H167.096V289.43H167.26C167.788 287.977 169.065 287.109 170.752 287.109C172.475 287.109 173.717 287.988 174.198 289.43H174.338C174.889 288.023 176.307 287.109 178.159 287.109C180.491 287.109 182.131 288.609 182.12 291.445V300H179.143V291.914C179.143 290.332 178.182 289.617 176.963 289.617C175.498 289.617 174.643 290.613 174.643 292.055V300H171.737V291.797C171.725 290.473 170.858 289.617 169.58 289.617C168.291 289.617 167.237 290.684 167.237 292.266V300H164.237ZM184.379 300V287.273H187.238V289.43H187.402C187.93 287.977 189.207 287.109 190.895 287.109C192.617 287.109 193.859 287.988 194.34 289.43H194.48C195.031 288.023 196.449 287.109 198.301 287.109C200.633 287.109 202.273 288.609 202.262 291.445V300H199.285V291.914C199.285 290.332 198.324 289.617 197.105 289.617C195.641 289.617 194.785 290.613 194.785 292.055V300H191.879V291.797C191.867 290.473 191 289.617 189.723 289.617C188.434 289.617 187.379 290.684 187.379 292.266V300H184.379ZM204.521 300V287.273H207.521V300H204.521ZM204.31 283.828C204.31 282.938 205.095 282.211 206.045 282.211C206.994 282.211 207.779 282.938 207.779 283.828C207.779 284.73 206.994 285.457 206.045 285.469C205.095 285.457 204.31 284.73 204.31 283.828ZM216.132 287.273V289.57H213.624V296.18C213.624 297.398 214.234 297.645 214.984 297.656C215.335 297.668 215.921 297.633 216.296 297.609V300.047C215.945 300.105 215.37 300.176 214.609 300.164C212.359 300.176 210.624 299.062 210.648 296.672V289.57H208.82V287.273H210.648V284.227H213.624V287.273H216.132ZM224.18 287.273V289.57H221.673V296.18C221.673 297.398 222.282 297.645 223.032 297.656C223.384 297.668 223.97 297.633 224.345 297.609V300.047C223.993 300.105 223.419 300.176 222.657 300.164C220.407 300.176 218.673 299.062 218.696 296.672V289.57H216.868V287.273H218.696V284.227H221.673V287.273H224.18ZM231.409 300.258C227.577 300.258 225.221 297.703 225.221 293.719C225.221 289.781 227.612 287.109 231.245 287.109C234.362 287.109 237.057 289.066 237.057 293.531V294.469H228.174C228.221 296.637 229.498 297.926 231.432 297.914C232.745 297.926 233.623 297.363 234.01 296.602H236.94C236.401 298.805 234.362 300.258 231.409 300.258ZM228.186 292.43H234.198C234.186 290.695 233.014 289.43 231.291 289.43C229.498 289.43 228.291 290.812 228.186 292.43ZM244.426 300.258C240.594 300.258 238.238 297.703 238.238 293.719C238.238 289.781 240.629 287.109 244.262 287.109C247.379 287.109 250.074 289.066 250.074 293.531V294.469H241.191C241.238 296.637 242.516 297.926 244.449 297.914C245.762 297.926 246.641 297.363 247.027 296.602H249.957C249.418 298.805 247.379 300.258 244.426 300.258ZM241.203 292.43H247.215C247.203 290.695 246.031 289.43 244.309 289.43C242.516 289.43 241.309 290.812 241.203 292.43ZM53.9469 326V309.031H60.3219C64.2125 309.031 66.2867 311.211 66.2984 314.445C66.2867 316.754 65.232 318.465 63.2398 319.273L66.9078 326H63.5094L60.1813 319.789H56.9938V326H53.9469ZM56.9938 317.234H59.8531C62.15 317.246 63.1813 316.262 63.1813 314.445C63.1813 312.641 62.15 311.586 59.8531 311.586H56.9938V317.234ZM73.6438 326.258C69.8117 326.258 67.4563 323.703 67.4563 319.719C67.4563 315.781 69.8469 313.109 73.4797 313.109C76.5969 313.109 79.2922 315.066 79.2922 319.531V320.469H70.4094C70.4563 322.637 71.7336 323.926 73.6672 323.914C74.9797 323.926 75.8586 323.363 76.2453 322.602H79.175C78.6359 324.805 76.5969 326.258 73.6438 326.258ZM70.4211 318.43H76.4328C76.4211 316.695 75.2492 315.43 73.5266 315.43C71.7336 315.43 70.5266 316.812 70.4211 318.43ZM81.0125 330.781V313.273H83.9422V315.359H84.1297C84.5867 314.457 85.5242 313.109 87.7859 313.109C90.7156 313.109 93.0242 315.406 93.0359 319.648C93.0242 323.832 90.7859 326.223 87.7859 326.234C85.5945 326.223 84.5984 324.922 84.1297 323.984H84.0125V330.781H81.0125ZM83.9422 319.625C83.9539 322.109 85.032 323.773 86.9656 323.773C88.9461 323.773 89.9891 322.027 89.9891 319.625C89.9891 317.258 88.9695 315.559 86.9656 315.547C85.0086 315.559 83.9539 317.152 83.9422 319.625ZM94.7797 326V313.273H97.6859V315.383H97.8266C98.2836 313.918 99.5023 313.086 100.967 313.086C101.295 313.086 101.764 313.121 102.045 313.156V315.922C101.776 315.828 101.155 315.746 100.663 315.734C98.9984 315.746 97.7797 316.895 97.7797 318.5V326H94.7797ZM108.477 326.258C104.645 326.258 102.289 323.703 102.289 319.719C102.289 315.781 104.68 313.109 108.312 313.109C111.43 313.109 114.125 315.066 114.125 319.531V320.469H105.242C105.289 322.637 106.566 323.926 108.5 323.914C109.812 323.926 110.691 323.363 111.078 322.602H114.008C113.469 324.805 111.43 326.258 108.477 326.258ZM105.254 318.43H111.266C111.254 316.695 110.082 315.43 108.359 315.43C106.566 315.43 105.359 316.812 105.254 318.43ZM123.064 316.906C122.877 315.945 122.08 315.324 120.814 315.336C119.537 315.324 118.599 315.969 118.611 316.836C118.599 317.492 119.127 317.984 120.416 318.289L122.572 318.734C124.974 319.262 126.146 320.375 126.158 322.203C126.146 324.594 124.048 326.258 120.72 326.258C117.486 326.258 115.576 324.805 115.259 322.367H118.306C118.482 323.457 119.326 323.996 120.72 323.984C122.162 323.996 123.099 323.41 123.111 322.461C123.099 321.723 122.525 321.254 121.259 320.984L119.22 320.539C116.853 320.059 115.623 318.816 115.634 317C115.623 314.645 117.662 313.109 120.767 313.109C123.802 313.109 125.677 314.598 125.9 316.906H123.064ZM133.48 326.258C129.648 326.258 127.292 323.703 127.292 319.719C127.292 315.781 129.683 313.109 133.316 313.109C136.433 313.109 139.128 315.066 139.128 319.531V320.469H130.245C130.292 322.637 131.57 323.926 133.503 323.914C134.816 323.926 135.695 323.363 136.081 322.602H139.011C138.472 324.805 136.433 326.258 133.48 326.258ZM130.257 318.43H136.269C136.257 316.695 135.085 315.43 133.363 315.43C131.57 315.43 130.363 316.812 130.257 318.43ZM143.848 318.547V326H140.848V313.273H143.708V315.43H143.872C144.446 314.012 145.747 313.109 147.645 313.109C150.282 313.109 152.016 314.844 152.005 317.891V326H149.028V318.359C149.028 316.648 148.102 315.629 146.544 315.641C144.962 315.629 143.848 316.695 143.848 318.547ZM160.616 313.273V315.57H158.108V322.18C158.108 323.398 158.717 323.645 159.467 323.656C159.819 323.668 160.405 323.633 160.78 323.609V326.047C160.428 326.105 159.854 326.176 159.092 326.164C156.842 326.176 155.108 325.062 155.131 322.672V315.57H153.303V313.273H155.131V310.227H158.108V313.273H160.616ZM161.727 322.414C161.727 319.555 164.105 318.723 166.461 318.57C167.352 318.5 169.168 318.418 169.73 318.395L169.719 317.375C169.719 316.109 168.91 315.383 167.422 315.383C166.086 315.383 165.266 315.992 165.031 316.906H162.148C162.359 314.738 164.305 313.109 167.492 313.109C169.906 313.109 172.695 314.105 172.695 317.492V326H169.836V324.242H169.742C169.18 325.32 167.996 326.258 165.992 326.258C163.566 326.258 161.727 324.934 161.727 322.414ZM164.609 322.391C164.609 323.492 165.512 324.055 166.766 324.055C168.582 324.055 169.742 322.859 169.742 321.43L169.73 320.387C169.191 320.41 167.527 320.516 166.93 320.562C165.512 320.68 164.609 321.277 164.609 322.391ZM181.259 313.273V315.57H178.752V322.18C178.752 323.398 179.361 323.645 180.111 323.656C180.462 323.668 181.048 323.633 181.423 323.609V326.047C181.072 326.105 180.498 326.176 179.736 326.164C177.486 326.176 175.752 325.062 175.775 322.672V315.57H173.947V313.273H175.775V310.227H178.752V313.273H181.259ZM182.956 326V313.273H185.956V326H182.956ZM182.745 309.828C182.745 308.938 183.53 308.211 184.48 308.211C185.429 308.211 186.214 308.938 186.214 309.828C186.214 310.73 185.429 311.457 184.48 311.469C183.53 311.457 182.745 310.73 182.745 309.828ZM199.583 313.273L195.036 326H191.755L187.208 313.273H190.395L193.325 322.742H193.466L196.419 313.273H199.583ZM206.084 326.258C202.252 326.258 199.897 323.703 199.897 319.719C199.897 315.781 202.288 313.109 205.92 313.109C209.038 313.109 211.733 315.066 211.733 319.531V320.469H202.85C202.897 322.637 204.174 323.926 206.108 323.914C207.42 323.926 208.299 323.363 208.686 322.602H211.616C211.077 324.805 209.038 326.258 206.084 326.258ZM202.862 318.43H208.873C208.862 316.695 207.69 315.43 205.967 315.43C204.174 315.43 202.967 316.812 202.862 318.43Z" fill="#E6ECEF"/>
<defs>
<clipPath id="clip0_2573_13482">
<rect width="264" height="264" fill="white"/>
</clipPath>
</defs>
</svg>
