<svg width="264" height="336" viewBox="0 0 264 336" fill="none" xmlns="http://www.w3.org/2000/svg">
<g clip-path="url(#clip0_2573_13503)">
<rect width="264" height="264" fill="#766178"/>
<path d="M20.3219 256.747C20.3219 261.742 20.1151 266.579 21.2255 271.416C21.2918 271.705 21.3926 271.986 21.5585 272.232C22.2085 273.196 23.6796 274.794 24.2748 275.281C26.6529 277.226 30.9516 277.189 33.7843 277.22C36.6539 277.251 39.4162 277.891 42.3055 277.891C51.6158 277.891 60.8356 276.373 70.032 275.038C75.931 274.182 82.0063 273.016 87.9694 272.875C93.9419 272.735 99.9328 272.857 105.907 272.857C115.903 272.857 125.901 273.437 135.89 273.789C148.158 274.222 160.434 273.977 172.697 274.46C183.036 274.868 193.342 274.937 203.686 275.542C216.846 276.311 229.927 276.549 243.104 276.549C243.753 276.549 250.227 277.162 250.227 276.027C250.227 273.432 250.143 270.893 249.705 268.326C248.762 262.806 246.15 256.46 241.911 252.645C240.909 251.743 239.636 251.167 238.405 250.631C234.873 249.093 231.841 246.491 228.336 245C225.785 243.914 223.647 242.23 221.027 241.308C218.753 240.508 216.19 239.289 214.184 237.952C209.178 234.614 205.145 230.172 199.883 227.211C197.766 226.021 195.958 224.637 193.673 223.706C191.609 222.865 190.084 221.498 188.136 220.499C184.59 218.68 181.359 215.972 177.657 214.458C174.66 213.232 171.584 212.01 168.818 210.43C167.673 209.776 165.976 209.937 165.052 209.013C164.548 208.51 163.97 208.658 163.97 207.745V204.575C163.97 203.374 166.034 202.711 167.159 202.711H167.196C168.203 202.711 171.018 202.711 171.69 202.039C173.063 200.666 173.086 197.784 174.375 196.334C174.836 195.815 175.342 193.676 175.382 192.977C175.473 191.384 175.797 189.69 176.053 188.092C177.055 181.828 178.113 175.648 179.577 169.465C179.988 167.73 180.246 166.024 180.491 164.263C180.689 162.836 181.433 161.633 181.74 160.254C182.246 157.978 182.993 155.669 183.362 153.373C184.072 148.955 184.444 144.232 184.444 139.762C184.444 136.211 185.221 131.456 184.257 128.015C182.967 123.407 181.666 118.901 179.931 114.441C178.266 110.159 176.303 105.912 174.86 101.5C171.77 92.0586 168.002 80.7022 159.607 74.6688C155.662 71.8331 151.325 69.3613 146.872 67.4528C142.617 65.6291 137.544 62.2121 132.757 62.0828C128.927 61.9792 124.078 61.3112 120.32 62.2506C113.665 63.9144 107.035 65.7687 100.388 67.4528C95.429 68.709 90.725 70.0905 86.0303 72.1516L86.0081 72.1613C83.5432 73.2435 81.133 74.3016 79.3923 76.4402C76.5398 79.9446 74.58 83.9354 72.0085 87.6091C70.7892 89.351 70.3211 91.5819 68.9879 93.2961C67.5661 95.1241 66.4692 97.7527 65.4638 99.8408C63.6449 103.618 62.7978 106.644 62.2007 110.749C61.8526 113.142 61.9271 115.597 61.5295 117.983C61.22 119.84 60.4463 121.67 60.0005 123.503C58.9009 128.023 59.1275 132.993 58.5834 137.618C58.2896 140.114 57.5765 142.424 57.5765 144.964C57.5765 146.653 58.0807 148.345 58.2664 150.017C58.4452 151.626 59.4354 153.235 60.0751 154.697C60.5575 155.8 60.6505 157.129 61.2684 158.147C62.4169 160.038 62.8259 162.164 63.6924 164.113C64.467 165.856 65.0349 168.373 65.0349 170.262C65.0349 172.587 64.6968 174.284 65.0349 176.144C65.28 177.492 66.0938 178.302 66.9927 179.425C68.4451 181.241 68.088 184.468 70.1625 186.063C72.2891 187.699 72.7898 190.443 74.6189 192.272C75.8736 193.527 77.044 193.928 78.8143 194.715C79.521 195.029 80.4236 194.888 81.1637 195.2C81.8597 195.493 84.8263 195.998 85.6014 195.998C87.4715 195.998 89.4421 197.535 90.9528 198.497C92.5233 199.496 92.8174 199.806 92.8174 201.704C92.8174 203.709 91.505 204.191 90.5426 205.731C89.4679 207.451 87.539 209.294 86.0862 210.747C82.3698 214.463 77.0199 216.704 74.6189 221.506C73.0066 224.73 70.6969 226.923 67.1605 227.566C64.5435 228.042 61.899 228.904 59.2733 229.561C57.8138 229.926 56.2791 230.504 54.8915 231.071C53.1365 231.789 51.2103 231.901 49.596 232.917C48.5564 233.572 46.9933 233.694 45.8296 234.26C44.3737 234.967 42.8018 235.579 41.2799 236.124C39.1365 236.893 36.9892 238.635 34.9776 239.742C32.5054 241.101 30.2265 242.424 27.8735 243.993C25.4861 245.584 23.4274 246.2 22.1678 248.859C20.9807 251.366 20.3219 253.981 20.3219 256.747Z" fill="#E6ECEF"/>
</g>
<rect width="264" height="64" transform="translate(0 272)" fill="#766178"/>
<path d="M79.6242 296.031V313H76.9055L68.8664 301.398H68.7258V313H65.6789V296.031H68.4445L76.4367 307.633H76.6008V296.031H79.6242ZM93.532 301.445C92.9813 299.641 91.5867 298.539 89.5242 298.539C86.7938 298.539 84.8016 300.672 84.8133 304.492C84.8016 308.348 86.7586 310.492 89.5945 310.492C92.1609 310.492 93.7898 308.945 93.8367 306.531H89.8992V304.117H96.7898V306.156C96.7898 310.527 93.7898 313.234 89.5945 313.234C84.907 313.234 81.7313 309.895 81.743 304.516C81.7313 299.066 85.0594 295.797 89.5008 295.797C93.2391 295.797 96.1336 298.117 96.6492 301.445H93.532ZM114.096 304.516C114.108 310 110.756 313.234 106.315 313.234C101.85 313.234 98.5219 309.988 98.5336 304.516C98.5219 299.031 101.85 295.797 106.315 295.797C110.756 295.797 114.108 299.031 114.096 304.516ZM101.604 304.516C101.592 308.395 103.549 310.492 106.315 310.492C109.092 310.492 111.038 308.395 111.026 304.516C111.038 300.637 109.092 298.539 106.315 298.539C103.549 298.539 101.592 300.637 101.604 304.516ZM123.466 313H120.209L126.185 296.031H129.935L135.935 313H132.677L131.259 308.805H124.873L123.466 313ZM125.693 306.344H130.439L128.13 299.5H127.99L125.693 306.344ZM142.366 313.258C138.57 313.258 136.273 310.539 136.273 306.695C136.273 302.793 138.64 300.109 142.366 300.109C145.448 300.109 147.616 301.914 147.827 304.656H144.968C144.734 303.438 143.843 302.512 142.39 302.5C140.538 302.512 139.296 304.059 139.296 306.625C139.296 309.25 140.515 310.809 142.39 310.82C143.714 310.809 144.698 310.035 144.968 308.664H147.827C147.605 311.348 145.566 313.258 142.366 313.258ZM155.829 300.273V302.57H153.321V309.18C153.321 310.398 153.93 310.645 154.68 310.656C155.032 310.668 155.618 310.633 155.993 310.609V313.047C155.641 313.105 155.067 313.176 154.305 313.164C152.055 313.176 150.321 312.062 150.345 309.672V302.57H148.516V300.273H150.345V297.227H153.321V300.273H155.829ZM157.526 313V300.273H160.526V313H157.526ZM157.315 296.828C157.315 295.938 158.1 295.211 159.049 295.211C159.998 295.211 160.784 295.938 160.784 296.828C160.784 297.73 159.998 298.457 159.049 298.469C158.1 298.457 157.315 297.73 157.315 296.828ZM174.152 300.273L169.605 313H166.324L161.777 300.273H164.965L167.895 309.742H168.035L170.988 300.273H174.152ZM175.427 313V300.273H178.427V313H175.427ZM175.216 296.828C175.216 295.938 176.002 295.211 176.951 295.211C177.9 295.211 178.685 295.938 178.685 296.828C178.685 297.73 177.9 298.457 176.951 298.469C176.002 298.457 175.216 297.73 175.216 296.828ZM187.905 303.906C187.718 302.945 186.921 302.324 185.655 302.336C184.378 302.324 183.441 302.969 183.452 303.836C183.441 304.492 183.968 304.984 185.257 305.289L187.413 305.734C189.816 306.262 190.988 307.375 190.999 309.203C190.988 311.594 188.89 313.258 185.562 313.258C182.327 313.258 180.417 311.805 180.101 309.367H183.148C183.323 310.457 184.167 310.996 185.562 310.984C187.003 310.996 187.941 310.41 187.952 309.461C187.941 308.723 187.366 308.254 186.101 307.984L184.062 307.539C181.695 307.059 180.464 305.816 180.476 304C180.464 301.645 182.503 300.109 185.609 300.109C188.644 300.109 190.519 301.598 190.741 303.906H187.905ZM199.024 300.273V302.57H196.516V309.18C196.516 310.398 197.126 310.645 197.876 310.656C198.227 310.668 198.813 310.633 199.188 310.609V313.047C198.837 313.105 198.263 313.176 197.501 313.164C195.251 313.176 193.516 312.062 193.54 309.672V302.57H191.712V300.273H193.54V297.227H196.516V300.273H199.024Z" fill="#E6ECEF"/>
<defs>
<clipPath id="clip0_2573_13503">
<rect width="264" height="264" fill="white"/>
</clipPath>
</defs>
</svg>
