<svg width="264" height="72" viewBox="0 0 264 72" fill="none" xmlns="http://www.w3.org/2000/svg">
<g clip-path="url(#clip0_2593_13359)">
<mask id="path-1-inside-1_2593_13359" fill="white">
<path d="M256 0L264 8V64L256 72H8L0 64V8L8 0H256Z"/>
</mask>
<path d="M256 0L257.414 -1.41421L256.828 -2H256V0ZM264 8H266V7.17157L265.414 6.58579L264 8ZM264 64L265.414 65.4142L266 64.8284V64H264ZM256 72V74H256.828L257.414 73.4142L256 72ZM8 72L6.58579 73.4142L7.17157 74H8V72ZM0 64H-2V64.8284L-1.41421 65.4142L0 64ZM0 8L-1.41421 6.58579L-2 7.17157V8H0ZM8 0V-2H7.17157L6.58579 -1.41421L8 0ZM256 0L254.586 1.41421L262.586 9.41421L264 8L265.414 6.58579L257.414 -1.41421L256 0ZM264 8H262V64H264H266V8H264ZM264 64L262.586 62.5858L254.586 70.5858L256 72L257.414 73.4142L265.414 65.4142L264 64ZM256 72V70H8V72V74H256V72ZM8 72L9.41421 70.5858L1.41421 62.5858L0 64L-1.41421 65.4142L6.58579 73.4142L8 72ZM0 64H2V8H0H-2V64H0ZM0 8L1.41421 9.41421L9.41421 1.41421L8 0L6.58579 -1.41421L-1.41421 6.58579L0 8ZM8 0V2H256V0V-2H8V0Z" fill="#0D575C" mask="url(#path-1-inside-1_2593_13359)"/>
<mask id="path-3-inside-2_2593_13359" fill="white">
<path d="M260 10V62L254.432 67.5684H9.56836L4 62V10L9.57031 4.42969H254.43L260 10Z"/>
</mask>
<path d="M260 10V62L254.432 67.5684H9.56836L4 62V10L9.57031 4.42969H254.43L260 10Z" fill="#0D575C"/>
<path d="M260 10H261V9.58579L260.707 9.29289L260 10ZM260 62L260.707 62.7071L261 62.4142V62H260ZM254.432 67.5684V68.5684H254.846L255.139 68.2755L254.432 67.5684ZM9.56836 67.5684L8.86125 68.2755L9.15415 68.5684H9.56836V67.5684ZM4 62H3V62.4142L3.29289 62.7071L4 62ZM4 10L3.29289 9.29289L3 9.58579V10H4ZM9.57031 4.42969V3.42969H9.1561L8.86321 3.72258L9.57031 4.42969ZM254.43 4.42969L255.137 3.72258L254.844 3.42969H254.43V4.42969ZM260 10H259V62H260H261V10H260ZM260 62L259.293 61.2929L253.725 66.8613L254.432 67.5684L255.139 68.2755L260.707 62.7071L260 62ZM254.432 67.5684V66.5684H9.56836V67.5684V68.5684H254.432V67.5684ZM9.56836 67.5684L10.2755 66.8613L4.70711 61.2929L4 62L3.29289 62.7071L8.86125 68.2755L9.56836 67.5684ZM4 62H5V10H4H3V62H4ZM4 10L4.70711 10.7071L10.2774 5.13679L9.57031 4.42969L8.86321 3.72258L3.29289 9.29289L4 10ZM9.57031 4.42969V5.42969H254.43V4.42969V3.42969H9.57031V4.42969ZM254.43 4.42969L253.723 5.13679L259.293 10.7071L260 10L260.707 9.29289L255.137 3.72258L254.43 4.42969Z" fill="#0D575C" mask="url(#path-3-inside-2_2593_13359)"/>
<path d="M100.095 45V28.0312H106.47C110.36 28.0312 112.434 30.2109 112.446 33.4453C112.434 35.7539 111.38 37.4648 109.388 38.2734L113.055 45H109.657L106.329 38.7891H103.141V45H100.095ZM103.141 36.2344H106.001C108.298 36.2461 109.329 35.2617 109.329 33.4453C109.329 31.6406 108.298 30.5859 106.001 30.5859H103.141V36.2344ZM119.791 45.2578C115.959 45.2578 113.604 42.7031 113.604 38.7188C113.604 34.7812 115.995 32.1094 119.627 32.1094C122.745 32.1094 125.44 34.0664 125.44 38.5312V39.4688H116.557C116.604 41.6367 117.881 42.9258 119.815 42.9141C121.127 42.9258 122.006 42.3633 122.393 41.6016H125.323C124.784 43.8047 122.745 45.2578 119.791 45.2578ZM116.569 37.4297H122.58C122.569 35.6953 121.397 34.4297 119.674 34.4297C117.881 34.4297 116.674 35.8125 116.569 37.4297ZM126.574 41.4141C126.574 38.5547 128.953 37.7227 131.309 37.5703C132.199 37.5 134.016 37.418 134.578 37.3945L134.566 36.375C134.566 35.1094 133.758 34.3828 132.27 34.3828C130.934 34.3828 130.113 34.9922 129.879 35.9062H126.996C127.207 33.7383 129.152 32.1094 132.34 32.1094C134.754 32.1094 137.543 33.1055 137.543 36.4922V45H134.684V43.2422H134.59C134.027 44.3203 132.844 45.2578 130.84 45.2578C128.414 45.2578 126.574 43.9336 126.574 41.4141ZM129.457 41.3906C129.457 42.4922 130.359 43.0547 131.613 43.0547C133.43 43.0547 134.59 41.8594 134.59 40.4297L134.578 39.3867C134.039 39.4102 132.375 39.5156 131.777 39.5625C130.359 39.6797 129.457 40.2773 129.457 41.3906ZM144.49 45.2344C141.502 45.2227 139.24 42.832 139.24 38.6484C139.24 34.4062 141.56 32.1094 144.513 32.1094C146.752 32.1094 147.689 33.457 148.146 34.3594H148.263V28.0312H151.24V45H148.31V42.9844H148.146C147.666 43.9219 146.693 45.2227 144.49 45.2344ZM142.287 38.625C142.287 41.0273 143.341 42.7734 145.31 42.7734C147.244 42.7734 148.334 41.1094 148.334 38.625C148.334 36.1523 147.255 34.5586 145.31 34.5469C143.318 34.5586 142.287 36.2578 142.287 38.625ZM155.468 49.7812C154.87 49.7695 154.308 49.7578 153.921 49.7109V47.3203C154.284 47.3555 154.788 47.3555 155.187 47.3672C155.913 47.3555 156.523 47.3086 157.038 45.9375L157.296 45.2578L152.655 32.2734H155.82L158.773 41.8828H158.913L161.866 32.2734H165.03L159.921 46.5469C159.195 48.5742 157.859 49.7695 155.468 49.7812Z" fill="#E6ECEF"/>
</g>
<defs>
<clipPath id="clip0_2593_13359">
<rect width="264" height="72" fill="white"/>
</clipPath>
</defs>
</svg>
