<svg width="498" height="130" viewBox="0 0 498 130" fill="none" xmlns="http://www.w3.org/2000/svg">
<rect width="498" height="130" fill="#444F55"/>
<path d="M120.756 28.8594H123.627L127.104 35.1094H127.24L130.717 28.8594H133.588L128.451 37.707V43H125.912V37.707L120.756 28.8594ZM137.287 43.2148C134.191 43.2148 132.209 41.0176 132.209 37.7461C132.209 34.4453 134.191 32.2578 137.287 32.2578C140.393 32.2578 142.375 34.4453 142.365 37.7461C142.375 41.0176 140.393 43.2148 137.287 43.2148ZM134.729 37.7266C134.729 39.6699 135.578 41.2227 137.307 41.2227C139.006 41.2227 139.855 39.6699 139.846 37.7266C139.855 35.7832 139.006 34.2207 137.307 34.2305C135.578 34.2207 134.729 35.7832 134.729 37.7266ZM150.576 38.5469V32.3945H153.057V43H150.654V41.125H150.537C150.049 42.3066 148.936 43.1367 147.354 43.1367C145.254 43.1367 143.809 41.6914 143.799 39.1523V32.3945H146.299V38.7617C146.299 40.1094 147.1 40.9688 148.311 40.9688C149.404 40.9688 150.576 40.168 150.576 38.5469ZM158.697 40.0117C158.697 37.6289 160.68 36.9355 162.643 36.8086C163.385 36.75 164.898 36.6816 165.367 36.6621L165.357 35.8125C165.357 34.7578 164.684 34.1523 163.443 34.1523C162.33 34.1523 161.646 34.6602 161.451 35.4219H159.049C159.225 33.6152 160.846 32.2578 163.502 32.2578C165.514 32.2578 167.838 33.0879 167.838 35.9102V43H165.455V41.5352H165.377C164.908 42.4336 163.922 43.2148 162.252 43.2148C160.23 43.2148 158.697 42.1113 158.697 40.0117ZM161.1 39.9922C161.1 40.9102 161.852 41.3789 162.896 41.3789C164.41 41.3789 165.377 40.3828 165.377 39.1914L165.367 38.3223C164.918 38.3418 163.531 38.4297 163.033 38.4688C161.852 38.5664 161.1 39.0645 161.1 39.9922ZM169.682 43V32.3945H172.104V34.1523H172.221C172.602 32.9316 173.617 32.2383 174.838 32.2383C175.111 32.2383 175.502 32.2676 175.736 32.2969V34.6016C175.512 34.5234 174.994 34.4551 174.584 34.4453C173.197 34.4551 172.182 35.4121 172.182 36.75V43H169.682ZM181.076 43.2148C177.883 43.2148 175.92 41.0859 175.92 37.7656C175.92 34.4844 177.912 32.2578 180.939 32.2578C183.537 32.2578 185.783 33.8887 185.783 37.6094V38.3906H178.381C178.42 40.1973 179.484 41.2715 181.096 41.2617C182.189 41.2715 182.922 40.8027 183.244 40.168H185.686C185.236 42.0039 183.537 43.2148 181.076 43.2148ZM178.391 36.6914H183.4C183.391 35.2461 182.414 34.1914 180.979 34.1914C179.484 34.1914 178.479 35.3438 178.391 36.6914ZM196.756 32.3945V34.3086H194.666V39.8164C194.666 40.832 195.174 41.0371 195.799 41.0469C196.092 41.0566 196.58 41.0273 196.893 41.0078V43.0391C196.6 43.0879 196.121 43.1465 195.486 43.1367C193.611 43.1465 192.166 42.2188 192.186 40.2266V34.3086H190.662V32.3945H192.186V29.8555H194.666V32.3945H196.756ZM200.904 36.7891V43H198.404V28.8594H200.846V34.1914H200.982C201.461 32.9902 202.496 32.2578 204.127 32.2578C206.324 32.2578 207.779 33.6836 207.779 36.2422V43H205.299V36.6328C205.289 35.1875 204.518 34.3574 203.209 34.3672C201.861 34.3574 200.904 35.2461 200.904 36.7891ZM214.35 43.2148C211.156 43.2148 209.193 41.0859 209.193 37.7656C209.193 34.4844 211.186 32.2578 214.213 32.2578C216.811 32.2578 219.057 33.8887 219.057 37.6094V38.3906H211.654C211.693 40.1973 212.758 41.2715 214.369 41.2617C215.463 41.2715 216.195 40.8027 216.518 40.168H218.959C218.51 42.0039 216.811 43.2148 214.35 43.2148ZM211.664 36.6914H216.674C216.664 35.2461 215.688 34.1914 214.252 34.1914C212.758 34.1914 211.752 35.3438 211.664 36.6914ZM227.236 36.7891V43H224.736V28.8594H227.178V34.1914H227.314C227.793 32.9902 228.828 32.2578 230.459 32.2578C232.656 32.2578 234.111 33.6836 234.111 36.2422V43H231.631V36.6328C231.621 35.1875 230.85 34.3574 229.541 34.3672C228.193 34.3574 227.236 35.2461 227.236 36.7891ZM240.604 43.2148C237.508 43.2148 235.525 41.0176 235.525 37.7461C235.525 34.4453 237.508 32.2578 240.604 32.2578C243.709 32.2578 245.691 34.4453 245.682 37.7461C245.691 41.0176 243.709 43.2148 240.604 43.2148ZM238.045 37.7266C238.045 39.6699 238.895 41.2227 240.623 41.2227C242.322 41.2227 243.172 39.6699 243.162 37.7266C243.172 35.7832 242.322 34.2207 240.623 34.2305C238.895 34.2207 238.045 35.7832 238.045 37.7266ZM253.131 35.4219C252.975 34.6211 252.311 34.1035 251.256 34.1133C250.191 34.1035 249.41 34.6406 249.42 35.3633C249.41 35.9102 249.85 36.3203 250.924 36.5742L252.721 36.9453C254.723 37.3848 255.699 38.3125 255.709 39.8359C255.699 41.8281 253.951 43.2148 251.178 43.2148C248.482 43.2148 246.891 42.0039 246.627 39.9727H249.166C249.312 40.8809 250.016 41.3301 251.178 41.3203C252.379 41.3301 253.16 40.8418 253.17 40.0508C253.16 39.4355 252.682 39.0449 251.627 38.8203L249.928 38.4492C247.955 38.0488 246.93 37.0137 246.939 35.5C246.93 33.5371 248.629 32.2578 251.217 32.2578C253.746 32.2578 255.309 33.498 255.494 35.4219H253.131ZM262.396 32.3945V34.3086H260.307V39.8164C260.307 40.832 260.814 41.0371 261.439 41.0469C261.732 41.0566 262.221 41.0273 262.533 41.0078V43.0391C262.24 43.0879 261.762 43.1465 261.127 43.1367C259.252 43.1465 257.807 42.2188 257.826 40.2266V34.3086H256.303V32.3945H257.826V29.8555H260.307V32.3945H262.396ZM272.686 43.2148C269.59 43.2148 267.607 41.0176 267.607 37.7461C267.607 34.4453 269.59 32.2578 272.686 32.2578C275.791 32.2578 277.773 34.4453 277.764 37.7461C277.773 41.0176 275.791 43.2148 272.686 43.2148ZM270.127 37.7266C270.127 39.6699 270.977 41.2227 272.705 41.2227C274.404 41.2227 275.254 39.6699 275.244 37.7266C275.254 35.7832 274.404 34.2207 272.705 34.2305C270.977 34.2207 270.127 35.7832 270.127 37.7266ZM284.568 32.3945V34.3086H282.381V43H279.881V34.3086H278.299V32.3945H279.881V31.3789C279.881 29.3184 281.16 28.1953 283.201 28.1953C283.777 28.1953 284.314 28.2539 284.783 28.3516V30.3242C284.373 30.2656 284.07 30.2559 283.885 30.2461C282.879 30.2559 282.371 30.6465 282.381 31.6133V32.3945H284.568ZM295.385 32.3945V34.3086H293.295V39.8164C293.295 40.832 293.803 41.0371 294.428 41.0469C294.721 41.0566 295.209 41.0273 295.521 41.0078V43.0391C295.229 43.0879 294.75 43.1465 294.115 43.1367C292.24 43.1465 290.795 42.2188 290.814 40.2266V34.3086H289.291V32.3945H290.814V29.8555H293.295V32.3945H295.385ZM299.533 36.7891V43H297.033V28.8594H299.475V34.1914H299.611C300.09 32.9902 301.125 32.2578 302.756 32.2578C304.953 32.2578 306.408 33.6836 306.408 36.2422V43H303.928V36.6328C303.918 35.1875 303.146 34.3574 301.838 34.3672C300.49 34.3574 299.533 35.2461 299.533 36.7891ZM312.979 43.2148C309.785 43.2148 307.822 41.0859 307.822 37.7656C307.822 34.4844 309.814 32.2578 312.842 32.2578C315.439 32.2578 317.686 33.8887 317.686 37.6094V38.3906H310.283C310.322 40.1973 311.387 41.2715 312.998 41.2617C314.092 41.2715 314.824 40.8027 315.146 40.168H317.588C317.139 42.0039 315.439 43.2148 312.979 43.2148ZM310.293 36.6914H315.303C315.293 35.2461 314.316 34.1914 312.881 34.1914C311.387 34.1914 310.381 35.3438 310.293 36.6914ZM327.994 47.1992C325.182 47.1992 323.395 45.9492 323.229 43.957H325.709C325.885 44.8848 326.754 45.3145 328.033 45.3242C329.527 45.3145 330.494 44.6699 330.494 43.1172V41.0859H330.377C329.986 41.8672 329.137 42.8438 327.311 42.8438C324.859 42.8438 322.936 41.0664 322.936 37.6094C322.936 34.123 324.869 32.2578 327.33 32.2578C329.195 32.2578 329.986 33.3809 330.377 34.1328H330.494V32.3945H332.955V43.1758C332.955 45.8906 330.855 47.1992 327.994 47.1992ZM325.475 37.6484C325.475 39.6016 326.354 40.8906 327.994 40.8906C329.605 40.8906 330.514 39.6797 330.514 37.6484C330.514 35.627 329.615 34.2988 327.994 34.2891C326.334 34.2988 325.475 35.7148 325.475 37.6484ZM334.35 40.0117C334.35 37.6289 336.332 36.9355 338.295 36.8086C339.037 36.75 340.551 36.6816 341.02 36.6621L341.01 35.8125C341.01 34.7578 340.336 34.1523 339.096 34.1523C337.982 34.1523 337.299 34.6602 337.104 35.4219H334.701C334.877 33.6152 336.498 32.2578 339.154 32.2578C341.166 32.2578 343.49 33.0879 343.49 35.9102V43H341.107V41.5352H341.029C340.561 42.4336 339.574 43.2148 337.904 43.2148C335.883 43.2148 334.35 42.1113 334.35 40.0117ZM336.752 39.9922C336.752 40.9102 337.504 41.3789 338.549 41.3789C340.062 41.3789 341.029 40.3828 341.029 39.1914L341.02 38.3223C340.57 38.3418 339.184 38.4297 338.686 38.4688C337.504 38.5664 336.752 39.0645 336.752 39.9922ZM345.334 43V32.3945H347.717V34.1914H347.854C348.293 32.9805 349.357 32.2578 350.764 32.2578C352.199 32.2578 353.234 32.9902 353.635 34.1914H353.752C354.211 33.0195 355.393 32.2578 356.936 32.2578C358.879 32.2578 360.246 33.5078 360.236 35.8711V43H357.756V36.2617C357.756 34.9434 356.955 34.3477 355.939 34.3477C354.719 34.3477 354.006 35.1777 354.006 36.3789V43H351.584V36.1641C351.574 35.0605 350.852 34.3477 349.787 34.3477C348.713 34.3477 347.834 35.2363 347.834 36.5547V43H345.334ZM366.826 43.2148C363.633 43.2148 361.67 41.0859 361.67 37.7656C361.67 34.4844 363.662 32.2578 366.689 32.2578C369.287 32.2578 371.533 33.8887 371.533 37.6094V38.3906H364.131C364.17 40.1973 365.234 41.2715 366.846 41.2617C367.939 41.2715 368.672 40.8027 368.994 40.168H371.436C370.986 42.0039 369.287 43.2148 366.826 43.2148ZM364.141 36.6914H369.15C369.141 35.2461 368.164 34.1914 366.729 34.1914C365.234 34.1914 364.229 35.3438 364.141 36.6914ZM375.994 28.8594L375.779 38.8398H373.572L373.338 28.8594H375.994ZM373.162 41.6328C373.152 40.8125 373.846 40.1387 374.686 40.1289C375.496 40.1387 376.189 40.8125 376.189 41.6328C376.189 42.4727 375.496 43.1562 374.686 43.1562C373.846 43.1562 373.152 42.4727 373.162 41.6328Z" fill="white"/>
<path d="M34.6541 65.6797V64.2734H44.2518V65.6797H40.2615V77H38.6619V65.6797H34.6541ZM47.2295 71.2695V77H45.7178V64.2734H47.2295V68.9492H47.3525C47.8008 67.9648 48.6533 67.332 50.165 67.332C52.1162 67.332 53.417 68.4834 53.417 70.9355V77H51.9053V71.041C51.9053 69.5381 51.0791 68.6855 49.708 68.6855C48.2842 68.6855 47.2295 69.6172 47.2295 71.2695ZM59.4006 77.1934C56.6408 77.2021 54.9357 75.2334 54.9357 72.3066C54.9357 69.3711 56.6672 67.332 59.26 67.332C61.2639 67.332 63.382 68.5625 63.3732 72.0957V72.7285H56.4475C56.5266 74.75 57.7043 75.8574 59.4006 75.8574C60.5432 75.8574 61.2639 75.3564 61.6154 74.7676H63.2326C62.7844 76.2178 61.3693 77.2021 59.4006 77.1934ZM56.4562 71.4453H61.8439C61.8352 69.8545 60.8332 68.668 59.26 68.668C57.6076 68.668 56.5617 69.9688 56.4562 71.4453ZM70.4713 71.2695V77H68.9596V64.2734H70.4713V68.9492H70.5943C71.0426 67.9648 71.8951 67.332 73.4068 67.332C75.358 67.332 76.6588 68.4834 76.6588 70.9355V77H75.1471V71.041C75.1471 69.5381 74.3209 68.6855 72.9498 68.6855C71.526 68.6855 70.4713 69.6172 70.4713 71.2695ZM82.5369 77.1934C79.9353 77.2021 78.1775 75.2334 78.1775 72.2715C78.1775 69.292 79.9353 67.332 82.5369 67.332C85.1297 67.332 86.8699 69.292 86.8611 72.2715C86.8699 75.2334 85.1297 77.2021 82.5369 77.1934ZM79.6893 72.2715C79.698 74.1787 80.5945 75.8574 82.5369 75.8574C84.4617 75.8574 85.3494 74.1787 85.3494 72.2715C85.3494 70.373 84.4617 68.668 82.5369 68.668C80.5945 68.668 79.698 70.373 79.6893 72.2715ZM93.7061 69.9336C93.4951 69.1426 92.8887 68.624 91.7725 68.6152C90.5947 68.624 89.7598 69.2568 89.751 70.0566C89.7598 70.6895 90.2695 71.1201 91.3857 71.3926L92.8096 71.7441C94.5146 72.1484 95.3496 73.001 95.3584 74.3281C95.3496 75.9805 94.0049 77.2021 91.6143 77.1934C89.4697 77.2021 88.1953 76.2441 87.9404 74.5039H89.5225C89.6982 75.4355 90.375 75.8838 91.5791 75.875C92.9414 75.8838 93.7939 75.3125 93.7939 74.416C93.7939 73.7393 93.3105 73.2998 92.2295 73.0449L90.7881 72.7109C89.1269 72.3242 88.2393 71.4189 88.2393 70.1445C88.2393 68.5098 89.6719 67.332 91.7725 67.332C93.75 67.332 94.9893 68.3867 95.1826 69.9336H93.7061ZM101.043 67.4551V68.7207H99.0393V74.2578C99.0305 75.4795 99.6457 75.6816 100.287 75.6816C100.56 75.6816 100.964 75.6553 101.184 75.6465V77.0527C100.946 77.0879 100.577 77.123 100.129 77.123C98.8547 77.123 97.5187 76.332 97.51 74.6445V68.7207H96.0686V67.4551H97.51V65.1699H99.0393V67.4551H101.043ZM111.921 69.9336C111.71 69.1426 111.103 68.624 109.987 68.6152C108.809 68.624 107.974 69.2568 107.965 70.0566C107.974 70.6895 108.484 71.1201 109.6 71.3926L111.024 71.7441C112.729 72.1484 113.564 73.001 113.573 74.3281C113.564 75.9805 112.219 77.2021 109.829 77.1934C107.684 77.2021 106.41 76.2441 106.155 74.5039H107.737C107.913 75.4355 108.589 75.8838 109.794 75.875C111.156 75.8838 112.008 75.3125 112.008 74.416C112.008 73.7393 111.525 73.2998 110.444 73.0449L109.003 72.7109C107.341 72.3242 106.454 71.4189 106.454 70.1445C106.454 68.5098 107.886 67.332 109.987 67.332C111.964 67.332 113.204 68.3867 113.397 69.9336H111.921ZM116.603 71.2695V77H115.092V64.2734H116.603V68.9492H116.726C117.175 67.9648 118.027 67.332 119.539 67.332C121.49 67.332 122.791 68.4834 122.791 70.9355V77H121.279V71.041C121.279 69.5381 120.453 68.6855 119.082 68.6855C117.658 68.6855 116.603 69.6172 116.603 71.2695ZM128.669 77.1934C126.067 77.2021 124.31 75.2334 124.31 72.2715C124.31 69.292 126.067 67.332 128.669 67.332C131.262 67.332 133.002 69.292 132.993 72.2715C133.002 75.2334 131.262 77.2021 128.669 77.1934ZM125.821 72.2715C125.83 74.1787 126.727 75.8574 128.669 75.8574C130.594 75.8574 131.481 74.1787 131.481 72.2715C131.481 70.373 130.594 68.668 128.669 68.668C126.727 68.668 125.83 70.373 125.821 72.2715ZM140.559 73.0801V67.4551H142.053V77H140.559V75.3828H140.453C140.005 76.3496 139.056 77.123 137.623 77.123C135.813 77.123 134.521 75.9453 134.529 73.5195V67.4551H136.041V73.4141C136.041 74.7852 136.894 75.6729 138.115 75.6641C139.196 75.6729 140.55 74.8643 140.559 73.0801ZM145.54 64.2734V77H144.029V64.2734H145.54ZM151.102 77.1934C148.72 77.2021 147.042 75.2861 147.042 72.2539C147.042 69.2305 148.72 67.332 151.12 67.332C152.974 67.332 153.554 68.457 153.879 68.9668H153.985V64.2734H155.514V77H154.038V75.541H153.879C153.546 76.0684 152.921 77.2021 151.102 77.1934ZM148.571 72.2188C148.571 74.249 149.503 75.8398 151.313 75.8398C153.062 75.8398 154.029 74.3633 154.038 72.2188C154.029 70.1006 153.088 68.6855 151.313 68.6855C149.476 68.6855 148.571 70.2236 148.571 72.2188ZM165.653 77.1934C162.946 77.2021 161.294 75.1367 161.294 72.2715C161.294 69.3711 163.025 67.332 165.618 67.332C167.648 67.332 169.178 68.5361 169.415 70.3379H167.903C167.684 69.4678 166.928 68.668 165.653 68.668C163.948 68.668 162.814 70.0742 162.806 72.2188C162.814 74.4248 163.922 75.8398 165.653 75.8398C166.778 75.8398 167.64 75.2334 167.903 74.1875H169.415C169.178 75.8926 167.771 77.2021 165.653 77.1934ZM174.731 77.1934C172.129 77.2021 170.371 75.2334 170.371 72.2715C170.371 69.292 172.129 67.332 174.731 67.332C177.323 67.332 179.064 69.292 179.055 72.2715C179.064 75.2334 177.323 77.2021 174.731 77.1934ZM171.883 72.2715C171.892 74.1787 172.788 75.8574 174.731 75.8574C176.655 75.8574 177.543 74.1787 177.543 72.2715C177.543 70.373 176.655 68.668 174.731 68.668C172.788 68.668 171.892 70.373 171.883 72.2715ZM182.103 64.2734V77H180.591V64.2734H182.103ZM185.573 64.2734V77H184.061V64.2734H185.573ZM191.539 77.1934C188.779 77.2021 187.074 75.2334 187.074 72.3066C187.074 69.3711 188.805 67.332 191.398 67.332C193.402 67.332 195.52 68.5625 195.512 72.0957V72.7285H188.586C188.665 74.75 189.843 75.8574 191.539 75.8574C192.681 75.8574 193.402 75.3564 193.754 74.7676H195.371C194.923 76.2178 193.508 77.2021 191.539 77.1934ZM188.595 71.4453H193.982C193.973 69.8545 192.971 68.668 191.398 68.668C189.746 68.668 188.7 69.9688 188.595 71.4453ZM200.933 77.1934C198.226 77.2021 196.573 75.1367 196.573 72.2715C196.573 69.3711 198.305 67.332 200.897 67.332C202.928 67.332 204.457 68.5361 204.694 70.3379H203.183C202.963 69.4678 202.207 68.668 200.933 68.668C199.228 68.668 198.094 70.0742 198.085 72.2188C198.094 74.4248 199.201 75.8398 200.933 75.8398C202.058 75.8398 202.919 75.2334 203.183 74.1875H204.694C204.457 75.8926 203.051 77.2021 200.933 77.1934ZM210.274 67.4551V68.7207H208.27V74.2578C208.261 75.4795 208.876 75.6816 209.518 75.6816C209.79 75.6816 210.195 75.6553 210.414 75.6465V77.0527C210.177 77.0879 209.808 77.123 209.36 77.123C208.085 77.123 206.749 76.332 206.74 74.6445V68.7207H205.299V67.4551H206.74V65.1699H208.27V67.4551H210.274ZM220.008 67.4551V68.7207H218.004V74.2578C217.996 75.4795 218.611 75.6816 219.253 75.6816C219.525 75.6816 219.929 75.6553 220.149 75.6465V77.0527C219.912 77.0879 219.543 77.123 219.094 77.123C217.82 77.123 216.484 76.332 216.475 74.6445V68.7207H215.034V67.4551H216.475V65.1699H218.004V67.4551H220.008ZM223.232 71.2695V77H221.721V64.2734H223.232V68.9492H223.355C223.804 67.9648 224.656 67.332 226.168 67.332C228.119 67.332 229.42 68.4834 229.42 70.9355V77H227.908V71.041C227.908 69.5381 227.082 68.6855 225.711 68.6855C224.287 68.6855 223.232 69.6172 223.232 71.2695ZM235.403 77.1934C232.644 77.2021 230.938 75.2334 230.938 72.3066C230.938 69.3711 232.67 67.332 235.263 67.332C237.267 67.332 239.385 68.5625 239.376 72.0957V72.7285H232.45C232.529 74.75 233.707 75.8574 235.403 75.8574C236.546 75.8574 237.267 75.3564 237.618 74.7676H239.235C238.787 76.2178 237.372 77.2021 235.403 77.1934ZM232.459 71.4453H237.847C237.838 69.8545 236.836 68.668 235.263 68.668C233.61 68.668 232.564 69.9688 232.459 71.4453ZM248.865 77.1934C246.263 77.2021 244.505 75.2334 244.505 72.2715C244.505 69.292 246.263 67.332 248.865 67.332C251.457 67.332 253.198 69.292 253.189 72.2715C253.198 75.2334 251.457 77.2021 248.865 77.1934ZM246.017 72.2715C246.026 74.1787 246.922 75.8574 248.865 75.8574C250.789 75.8574 251.677 74.1787 251.677 72.2715C251.677 70.373 250.789 68.668 248.865 68.668C246.922 68.668 246.026 70.373 246.017 72.2715ZM254.725 80.5859V67.4551H256.184V68.9668H256.36C256.685 68.457 257.265 67.332 259.12 67.332C261.519 67.332 263.18 69.2305 263.18 72.2539C263.18 75.2861 261.519 77.2021 259.137 77.1934C257.318 77.2021 256.685 76.0684 256.36 75.541H256.237V80.5859H254.725ZM256.202 72.2188C256.211 74.3633 257.169 75.8398 258.926 75.8398C260.737 75.8398 261.669 74.249 261.669 72.2188C261.669 70.2236 260.763 68.6855 258.926 68.6855C257.142 68.6855 256.211 70.1006 256.202 72.2188ZM264.699 77V67.4551H266.211V77H264.699ZM264.4 64.8711C264.391 64.3086 264.875 63.8604 265.455 63.8691C266.035 63.8604 266.518 64.3086 266.527 64.8711C266.518 65.4248 266.035 65.873 265.455 65.873C264.875 65.873 264.391 65.4248 264.4 64.8711ZM269.681 71.2695V77H268.169V67.4551H269.628V68.9492H269.751C270.199 67.9736 271.096 67.332 272.546 67.332C274.479 67.332 275.771 68.5098 275.763 70.9355V77H274.251V71.041C274.251 69.5645 273.442 68.6855 272.089 68.6855C270.7 68.6855 269.681 69.6172 269.681 71.2695ZM277.738 77V67.4551H279.25V77H277.738ZM277.44 64.8711C277.431 64.3086 277.914 63.8604 278.494 63.8691C279.074 63.8604 279.558 64.3086 279.567 64.8711C279.558 65.4248 279.074 65.873 278.494 65.873C277.914 65.873 277.431 65.4248 277.44 64.8711ZM285.111 77.1934C282.509 77.2021 280.751 75.2334 280.751 72.2715C280.751 69.292 282.509 67.332 285.111 67.332C287.704 67.332 289.444 69.292 289.435 72.2715C289.444 75.2334 287.704 77.2021 285.111 77.1934ZM282.263 72.2715C282.272 74.1787 283.168 75.8574 285.111 75.8574C287.036 75.8574 287.923 74.1787 287.923 72.2715C287.923 70.373 287.036 68.668 285.111 68.668C283.168 68.668 282.272 70.373 282.263 72.2715ZM292.483 71.2695V77H290.971V67.4551H292.43V68.9492H292.553C293.002 67.9736 293.898 67.332 295.348 67.332C297.282 67.332 298.574 68.5098 298.565 70.9355V77H297.053V71.041C297.053 69.5645 296.245 68.6855 294.891 68.6855C293.503 68.6855 292.483 69.6172 292.483 71.2695ZM305.849 69.9336C305.638 69.1426 305.032 68.624 303.916 68.6152C302.738 68.624 301.903 69.2568 301.894 70.0566C301.903 70.6895 302.413 71.1201 303.529 71.3926L304.953 71.7441C306.658 72.1484 307.493 73.001 307.502 74.3281C307.493 75.9805 306.148 77.2021 303.758 77.1934C301.613 77.2021 300.339 76.2441 300.084 74.5039H301.666C301.842 75.4355 302.518 75.8838 303.722 75.875C305.085 75.8838 305.937 75.3125 305.937 74.416C305.937 73.7393 305.454 73.2998 304.373 73.0449L302.931 72.7109C301.27 72.3242 300.383 71.4189 300.383 70.1445C300.383 68.5098 301.815 67.332 303.916 67.332C305.893 67.332 307.133 68.3867 307.326 69.9336H305.849ZM316.99 77.1934C314.389 77.2021 312.631 75.2334 312.631 72.2715C312.631 69.292 314.389 67.332 316.99 67.332C319.583 67.332 321.323 69.292 321.315 72.2715C321.323 75.2334 319.583 77.2021 316.99 77.1934ZM314.143 72.2715C314.152 74.1787 315.048 75.8574 316.99 75.8574C318.915 75.8574 319.803 74.1787 319.803 72.2715C319.803 70.373 318.915 68.668 316.99 68.668C315.048 68.668 314.152 70.373 314.143 72.2715ZM327.122 67.4551V68.7207H325.013V77H323.484V68.7207H321.954V67.4551H323.484V66.1543C323.493 64.6074 324.521 63.6758 326.208 63.6758C326.578 63.6758 327.017 63.7197 327.333 63.7812V65.1348C327.008 65.082 326.736 65.0645 326.542 65.0645C325.479 65.0645 325.004 65.5039 325.013 66.4883V67.4551H327.122ZM336.699 67.4551V68.7207H334.695V74.2578C334.686 75.4795 335.302 75.6816 335.943 75.6816C336.216 75.6816 336.62 75.6553 336.84 75.6465V77.0527C336.602 77.0879 336.233 77.123 335.785 77.123C334.511 77.123 333.175 76.332 333.166 74.6445V68.7207H331.724V67.4551H333.166V65.1699H334.695V67.4551H336.699ZM339.923 71.2695V77H338.411V64.2734H339.923V68.9492H340.046C340.494 67.9648 341.347 67.332 342.858 67.332C344.81 67.332 346.11 68.4834 346.11 70.9355V77H344.599V71.041C344.599 69.5381 343.772 68.6855 342.401 68.6855C340.978 68.6855 339.923 69.6172 339.923 71.2695ZM352.094 77.1934C349.334 77.2021 347.629 75.2334 347.629 72.3066C347.629 69.3711 349.361 67.332 351.953 67.332C353.957 67.332 356.075 68.5625 356.067 72.0957V72.7285H349.141C349.22 74.75 350.398 75.8574 352.094 75.8574C353.237 75.8574 353.957 75.3564 354.309 74.7676H355.926C355.478 76.2178 354.063 77.2021 352.094 77.1934ZM349.15 71.4453H354.537C354.529 69.8545 353.527 68.668 351.953 68.668C350.301 68.668 349.255 69.9688 349.15 71.4453ZM365.819 67.4551V68.7207H363.815V74.2578C363.806 75.4795 364.422 75.6816 365.063 75.6816C365.336 75.6816 365.74 75.6553 365.96 75.6465V77.0527C365.722 77.0879 365.353 77.123 364.905 77.123C363.63 77.123 362.295 76.332 362.286 74.6445V68.7207H360.844V67.4551H362.286V65.1699H363.815V67.4551H365.819ZM369.043 71.2695V77H367.531V64.2734H369.043V68.9492H369.166C369.614 67.9648 370.467 67.332 371.978 67.332C373.93 67.332 375.23 68.4834 375.23 70.9355V77H373.719V71.041C373.719 69.5381 372.892 68.6855 371.521 68.6855C370.097 68.6855 369.043 69.6172 369.043 71.2695ZM377.206 77V67.4551H378.665V68.9141H378.771C379.113 67.9473 380.106 67.3057 381.231 67.2969C381.46 67.3057 381.847 67.3145 382.022 67.332V68.8613C381.908 68.835 381.504 68.7559 381.108 68.7559C379.737 68.7559 378.718 69.7051 378.718 70.9883V77H377.206ZM386.74 77.1934C383.981 77.2021 382.276 75.2334 382.276 72.3066C382.276 69.3711 384.007 67.332 386.6 67.332C388.604 67.332 390.722 68.5625 390.713 72.0957V72.7285H383.787C383.866 74.75 385.044 75.8574 386.74 75.8574C387.883 75.8574 388.604 75.3564 388.955 74.7676H390.572C390.124 76.2178 388.709 77.2021 386.74 77.1934ZM383.796 71.4453H389.184C389.175 69.8545 388.173 68.668 386.6 68.668C384.947 68.668 383.902 69.9688 383.796 71.4453ZM396.24 77.1934C393.48 77.2021 391.775 75.2334 391.775 72.3066C391.775 69.3711 393.506 67.332 396.099 67.332C398.103 67.332 400.221 68.5625 400.212 72.0957V72.7285H393.286C393.366 74.75 394.543 75.8574 396.24 75.8574C397.382 75.8574 398.103 75.3564 398.454 74.7676H400.072C399.623 76.2178 398.208 77.2021 396.24 77.1934ZM393.295 71.4453H398.683C398.674 69.8545 397.672 68.668 396.099 68.668C394.447 68.668 393.401 69.9688 393.295 71.4453ZM405.799 80.5859V67.4551H407.258V68.9668H407.433C407.759 68.457 408.339 67.332 410.193 67.332C412.593 67.332 414.254 69.2305 414.254 72.2539C414.254 75.2861 412.593 77.2021 410.211 77.1934C408.391 77.2021 407.759 76.0684 407.433 75.541H407.31V80.5859H405.799ZM407.275 72.2188C407.284 74.3633 408.242 75.8398 410 75.8398C411.81 75.8398 412.742 74.249 412.742 72.2188C412.742 70.2236 411.837 68.6855 410 68.6855C408.216 68.6855 407.284 70.1006 407.275 72.2188ZM417.284 64.2734V77H415.772V64.2734H417.284ZM418.785 74.293C418.785 72.1045 420.719 71.6035 422.371 71.4805C422.987 71.4365 424.525 71.3486 424.955 71.3398V70.5664C424.955 69.3535 424.235 68.6504 422.793 68.6504C421.589 68.6504 420.86 69.2041 420.649 69.9336H419.067C419.26 68.3955 420.754 67.332 422.863 67.332C424.112 67.332 426.458 67.7012 426.449 70.707V77H424.955V75.6992H424.885C424.569 76.3408 423.698 77.2197 422.037 77.2285C420.227 77.2197 418.785 76.1562 418.785 74.293ZM420.297 74.3633C420.306 75.374 421.141 75.8838 422.301 75.875C424.006 75.8838 424.955 74.7412 424.955 73.5371V72.5791C424.507 72.6055 423.004 72.7197 422.547 72.7461C421.176 72.834 420.306 73.3174 420.297 74.3633ZM429.04 80.5859C428.715 80.5771 428.39 80.5684 428.197 80.5508V79.1973C428.355 79.2148 428.698 79.2236 428.935 79.2324C429.55 79.2236 430.069 79.1885 430.57 77.791L430.851 77.0703L427.318 67.4551H428.97L431.572 75.0312H431.677L434.279 67.4551H435.931L431.888 78.3711C431.326 79.874 430.394 80.5771 429.04 80.5859ZM440.807 77.1934C438.047 77.2021 436.342 75.2334 436.342 72.3066C436.342 69.3711 438.074 67.332 440.667 67.332C442.671 67.332 444.789 68.5625 444.78 72.0957V72.7285H437.854C437.933 74.75 439.111 75.8574 440.807 75.8574C441.95 75.8574 442.671 75.3564 443.022 74.7676H444.639C444.191 76.2178 442.776 77.2021 440.807 77.1934ZM437.863 71.4453H443.251C443.242 69.8545 442.24 68.668 440.667 68.668C439.014 68.668 437.968 69.9688 437.863 71.4453ZM446.299 77V67.4551H447.758V68.9141H447.863C448.206 67.9473 449.199 67.3057 450.324 67.2969C450.553 67.3057 450.939 67.3145 451.115 67.332V68.8613C451.001 68.835 450.596 68.7559 450.201 68.7559C448.83 68.7559 447.81 69.7051 447.81 70.9883V77H446.299ZM457.45 69.9336C457.239 69.1426 456.633 68.624 455.517 68.6152C454.339 68.624 453.504 69.2568 453.495 70.0566C453.504 70.6895 454.014 71.1201 455.13 71.3926L456.554 71.7441C458.259 72.1484 459.094 73.001 459.103 74.3281C459.094 75.9805 457.749 77.2021 455.358 77.1934C453.214 77.2021 451.939 76.2441 451.685 74.5039H453.267C453.442 75.4355 454.119 75.8838 455.323 75.875C456.686 75.8838 457.538 75.3125 457.538 74.416C457.538 73.7393 457.055 73.2998 455.974 73.0449L454.532 72.7109C452.871 72.3242 451.983 71.4189 451.983 70.1445C451.983 68.5098 453.416 67.332 455.517 67.332C457.494 67.332 458.733 68.3867 458.927 69.9336H457.45ZM462.608 75.8223L461.237 80.6035H459.936L460.903 75.8223H462.608ZM72.1465 101V91.4551H73.6055V92.9492H73.7285C74.124 91.9297 75.0469 91.332 76.2949 91.332C77.543 91.332 78.3955 91.9297 78.8438 92.9492H78.9492C79.4326 91.9648 80.4434 91.332 81.8145 91.332C83.5107 91.332 84.7324 92.3691 84.7324 94.6191V101H83.2207V94.6367C83.2119 93.2305 82.333 92.6855 81.2871 92.6855C79.96 92.6855 79.2041 93.582 79.1953 94.7949V101H77.666V94.4785C77.6748 93.4062 76.9014 92.6855 75.8027 92.6855C74.6602 92.6855 73.6582 93.6523 73.6582 95.041V101H72.1465ZM86.2512 98.293C86.2512 96.1045 88.1848 95.6035 89.8371 95.4805C90.4523 95.4365 91.9904 95.3486 92.4211 95.3398V94.5664C92.4211 93.3535 91.7004 92.6504 90.259 92.6504C89.0549 92.6504 88.3254 93.2041 88.1145 93.9336H86.5324C86.7258 92.3955 88.2199 91.332 90.3293 91.332C91.5773 91.332 93.924 91.7012 93.9152 94.707V101H92.4211V99.6992H92.3508C92.0344 100.341 91.1643 101.22 89.5031 101.229C87.6926 101.22 86.2512 100.156 86.2512 98.293ZM87.7629 98.3633C87.7717 99.374 88.6066 99.8838 89.7668 99.875C91.4719 99.8838 92.4211 98.7412 92.4211 97.5371V96.5791C91.9729 96.6055 90.4699 96.7197 90.0129 96.7461C88.6418 96.834 87.7717 97.3174 87.7629 98.3633ZM95.891 101V88.2734H97.4027V95.6738H97.5785L101.709 91.4551H103.573L99.5473 95.542L103.871 101H101.955L98.4135 96.5L97.4027 97.4404V101H95.891ZM108.343 101.193C105.584 101.202 103.879 99.2334 103.879 96.3066C103.879 93.3711 105.61 91.332 108.203 91.332C110.207 91.332 112.325 92.5625 112.316 96.0957V96.7285H105.39C105.469 98.75 106.647 99.8574 108.343 99.8574C109.486 99.8574 110.207 99.3564 110.558 98.7676H112.175C111.727 100.218 110.312 101.202 108.343 101.193ZM105.399 95.4453H110.787C110.778 93.8545 109.776 92.668 108.203 92.668C106.55 92.668 105.504 93.9688 105.399 95.4453ZM117.445 98.293C117.445 96.1045 119.379 95.6035 121.031 95.4805C121.646 95.4365 123.185 95.3486 123.615 95.3398V94.5664C123.615 93.3535 122.895 92.6504 121.453 92.6504C120.249 92.6504 119.52 93.2041 119.309 93.9336H117.727C117.92 92.3955 119.414 91.332 121.523 91.332C122.771 91.332 125.118 91.7012 125.109 94.707V101H123.615V99.6992H123.545C123.229 100.341 122.358 101.22 120.697 101.229C118.887 101.22 117.445 100.156 117.445 98.293ZM118.957 98.3633C118.966 99.374 119.801 99.8838 120.961 99.875C122.666 99.8838 123.615 98.7412 123.615 97.5371V96.5791C123.167 96.6055 121.664 96.7197 121.207 96.7461C119.836 96.834 118.966 97.3174 118.957 98.3633ZM136.461 93.9336C136.25 93.1426 135.644 92.624 134.528 92.6152C133.35 92.624 132.515 93.2568 132.506 94.0566C132.515 94.6895 133.025 95.1201 134.141 95.3926L135.565 95.7441C137.27 96.1484 138.105 97.001 138.114 98.3281C138.105 99.9805 136.76 101.202 134.37 101.193C132.225 101.202 130.951 100.244 130.696 98.5039H132.278C132.454 99.4355 133.13 99.8838 134.334 99.875C135.697 99.8838 136.549 99.3125 136.549 98.416C136.549 97.7393 136.066 97.2998 134.985 97.0449L133.543 96.7109C131.882 96.3242 130.995 95.4189 130.995 94.1445C130.995 92.5098 132.427 91.332 134.528 91.332C136.505 91.332 137.745 92.3867 137.938 93.9336H136.461ZM143.64 101.193C140.88 101.202 139.175 99.2334 139.175 96.3066C139.175 93.3711 140.907 91.332 143.5 91.332C145.504 91.332 147.622 92.5625 147.613 96.0957V96.7285H140.687C140.766 98.75 141.944 99.8574 143.64 99.8574C144.783 99.8574 145.504 99.3564 145.855 98.7676H147.472C147.024 100.218 145.609 101.202 143.64 101.193ZM140.696 95.4453H146.084C146.075 93.8545 145.073 92.668 143.5 92.668C141.847 92.668 140.801 93.9688 140.696 95.4453ZM150.643 88.2734V101H149.132V88.2734H150.643ZM156.609 101.193C153.85 101.202 152.145 99.2334 152.145 96.3066C152.145 93.3711 153.876 91.332 156.469 91.332C158.473 91.332 160.591 92.5625 160.582 96.0957V96.7285H153.656C153.735 98.75 154.913 99.8574 156.609 99.8574C157.752 99.8574 158.473 99.3564 158.824 98.7676H160.441C159.993 100.218 158.578 101.202 156.609 101.193ZM153.665 95.4453H159.053C159.044 93.8545 158.042 92.668 156.469 92.668C154.816 92.668 153.771 93.9688 153.665 95.4453ZM166.003 101.193C163.296 101.202 161.644 99.1367 161.644 96.2715C161.644 93.3711 163.375 91.332 165.968 91.332C167.998 91.332 169.528 92.5361 169.765 94.3379H168.253C168.033 93.4678 167.278 92.668 166.003 92.668C164.298 92.668 163.164 94.0742 163.155 96.2188C163.164 98.4248 164.272 99.8398 166.003 99.8398C167.128 99.8398 167.989 99.2334 168.253 98.1875H169.765C169.528 99.8926 168.121 101.202 166.003 101.193ZM175.344 91.4551V92.7207H173.34V98.2578C173.331 99.4795 173.947 99.6816 174.588 99.6816C174.861 99.6816 175.265 99.6553 175.485 99.6465V101.053C175.247 101.088 174.878 101.123 174.43 101.123C173.156 101.123 171.82 100.332 171.811 98.6445V92.7207H170.37V91.4551H171.811V89.1699H173.34V91.4551H175.344ZM176.845 101V91.4551H178.357V101H176.845ZM176.546 88.8711C176.538 88.3086 177.021 87.8604 177.601 87.8691C178.181 87.8604 178.665 88.3086 178.673 88.8711C178.665 89.4248 178.181 89.873 177.601 89.873C177.021 89.873 176.538 89.4248 176.546 88.8711ZM184.218 101.193C181.616 101.202 179.858 99.2334 179.858 96.2715C179.858 93.292 181.616 91.332 184.218 91.332C186.81 91.332 188.551 93.292 188.542 96.2715C188.551 99.2334 186.81 101.202 184.218 101.193ZM181.37 96.2715C181.379 98.1787 182.275 99.8574 184.218 99.8574C186.142 99.8574 187.03 98.1787 187.03 96.2715C187.03 94.373 186.142 92.668 184.218 92.668C182.275 92.668 181.379 94.373 181.37 96.2715ZM191.59 95.2695V101H190.078V91.4551H191.537V92.9492H191.66C192.108 91.9736 193.005 91.332 194.455 91.332C196.389 91.332 197.681 92.5098 197.672 94.9355V101H196.16V95.041C196.16 93.5645 195.352 92.6855 193.998 92.6855C192.609 92.6855 191.59 93.6172 191.59 95.2695ZM201.634 99.8223L200.263 104.604H198.962L199.929 99.8223H201.634ZM207.414 98.293C207.414 96.1045 209.347 95.6035 211 95.4805C211.615 95.4365 213.153 95.3486 213.584 95.3398V94.5664C213.584 93.3535 212.863 92.6504 211.421 92.6504C210.217 92.6504 209.488 93.2041 209.277 93.9336H207.695C207.888 92.3955 209.382 91.332 211.492 91.332C212.74 91.332 215.087 91.7012 215.078 94.707V101H213.584V99.6992H213.513C213.197 100.341 212.327 101.22 210.666 101.229C208.855 101.22 207.414 100.156 207.414 98.293ZM208.925 98.3633C208.934 99.374 209.769 99.8838 210.929 99.875C212.634 99.8838 213.584 98.7412 213.584 97.5371V96.5791C213.135 96.6055 211.632 96.7197 211.175 96.7461C209.804 96.834 208.934 97.3174 208.925 98.3633ZM218.565 95.2695V101H217.054V91.4551H218.512V92.9492H218.636C219.084 91.9736 219.98 91.332 221.43 91.332C223.364 91.332 224.656 92.5098 224.647 94.9355V101H223.136V95.041C223.136 93.5645 222.327 92.6855 220.973 92.6855C219.585 92.6855 218.565 93.6172 218.565 95.2695ZM230.227 101.193C227.845 101.202 226.166 99.2861 226.166 96.2539C226.166 93.2305 227.845 91.332 230.244 91.332C232.099 91.332 232.679 92.457 233.004 92.9668H233.109V88.2734H234.639V101H233.162V99.541H233.004C232.67 100.068 232.046 101.202 230.227 101.193ZM227.695 96.2188C227.695 98.249 228.627 99.8398 230.438 99.8398C232.187 99.8398 233.153 98.3633 233.162 96.2188C233.153 94.1006 232.213 92.6855 230.438 92.6855C228.601 92.6855 227.695 94.2236 227.695 96.2188ZM240.875 104.586V91.4551H242.334V92.9668H242.51C242.835 92.457 243.415 91.332 245.27 91.332C247.669 91.332 249.33 93.2305 249.33 96.2539C249.33 99.2861 247.669 101.202 245.288 101.193C243.468 101.202 242.835 100.068 242.51 99.541H242.387V104.586H240.875ZM242.352 96.2188C242.361 98.3633 243.319 99.8398 245.077 99.8398C246.887 99.8398 247.819 98.249 247.819 96.2188C247.819 94.2236 246.913 92.6855 245.077 92.6855C243.292 92.6855 242.361 94.1006 242.352 96.2188ZM250.849 101V91.4551H252.308V92.9141H252.414C252.756 91.9473 253.75 91.3057 254.875 91.2969C255.103 91.3057 255.49 91.3145 255.666 91.332V92.8613C255.551 92.835 255.147 92.7559 254.752 92.7559C253.38 92.7559 252.361 93.7051 252.361 94.9883V101H250.849ZM260.278 101.193C257.677 101.202 255.919 99.2334 255.919 96.2715C255.919 93.292 257.677 91.332 260.278 91.332C262.871 91.332 264.611 93.292 264.602 96.2715C264.611 99.2334 262.871 101.202 260.278 101.193ZM257.43 96.2715C257.439 98.1787 258.336 99.8574 260.278 99.8574C262.203 99.8574 263.091 98.1787 263.091 96.2715C263.091 94.373 262.203 92.668 260.278 92.668C258.336 92.668 257.439 94.373 257.43 96.2715ZM270.041 101.193C267.334 101.202 265.682 99.1367 265.682 96.2715C265.682 93.3711 267.413 91.332 270.006 91.332C272.036 91.332 273.565 92.5361 273.803 94.3379H272.291C272.071 93.4678 271.315 92.668 270.041 92.668C268.336 92.668 267.202 94.0742 267.193 96.2188C267.202 98.4248 268.31 99.8398 270.041 99.8398C271.166 99.8398 272.027 99.2334 272.291 98.1875H273.803C273.565 99.8926 272.159 101.202 270.041 101.193ZM279.224 101.193C276.464 101.202 274.759 99.2334 274.759 96.3066C274.759 93.3711 276.49 91.332 279.083 91.332C281.087 91.332 283.205 92.5625 283.196 96.0957V96.7285H276.271C276.35 98.75 277.528 99.8574 279.224 99.8574C280.366 99.8574 281.087 99.3564 281.439 98.7676H283.056C282.608 100.218 281.193 101.202 279.224 101.193ZM276.279 95.4453H281.667C281.658 93.8545 280.656 92.668 279.083 92.668C277.431 92.668 276.385 93.9688 276.279 95.4453ZM288.723 101.193C285.963 101.202 284.258 99.2334 284.258 96.3066C284.258 93.3711 285.99 91.332 288.582 91.332C290.586 91.332 292.704 92.5625 292.696 96.0957V96.7285H285.77C285.849 98.75 287.027 99.8574 288.723 99.8574C289.866 99.8574 290.586 99.3564 290.938 98.7676H292.555C292.107 100.218 290.692 101.202 288.723 101.193ZM285.779 95.4453H291.166C291.158 93.8545 290.156 92.668 288.582 92.668C286.93 92.668 285.884 93.9688 285.779 95.4453ZM297.818 101.193C295.436 101.202 293.757 99.2861 293.757 96.2539C293.757 93.2305 295.436 91.332 297.836 91.332C299.69 91.332 300.27 92.457 300.595 92.9668H300.701V88.2734H302.23V101H300.754V99.541H300.595C300.261 100.068 299.637 101.202 297.818 101.193ZM295.287 96.2188C295.287 98.249 296.218 99.8398 298.029 99.8398C299.778 99.8398 300.745 98.3633 300.754 96.2188C300.745 94.1006 299.804 92.6855 298.029 92.6855C296.192 92.6855 295.287 94.2236 295.287 96.2188ZM312.633 91.4551V92.7207H310.629V98.2578C310.62 99.4795 311.235 99.6816 311.877 99.6816C312.149 99.6816 312.554 99.6553 312.773 99.6465V101.053C312.536 101.088 312.167 101.123 311.719 101.123C310.444 101.123 309.108 100.332 309.1 98.6445V92.7207H307.658V91.4551H309.1V89.1699H310.629V91.4551H312.633ZM317.931 101.193C315.329 101.202 313.571 99.2334 313.571 96.2715C313.571 93.292 315.329 91.332 317.931 91.332C320.524 91.332 322.264 93.292 322.255 96.2715C322.264 99.2334 320.524 101.202 317.931 101.193ZM315.083 96.2715C315.092 98.1787 315.988 99.8574 317.931 99.8574C319.856 99.8574 320.743 98.1787 320.743 96.2715C320.743 94.373 319.856 92.668 317.931 92.668C315.988 92.668 315.092 94.373 315.083 96.2715ZM332.025 91.4551V92.7207H330.021V98.2578C330.012 99.4795 330.628 99.6816 331.269 99.6816C331.542 99.6816 331.946 99.6553 332.166 99.6465V101.053C331.928 101.088 331.559 101.123 331.111 101.123C329.837 101.123 328.501 100.332 328.492 98.6445V92.7207H327.05V91.4551H328.492V89.1699H330.021V91.4551H332.025ZM335.249 95.2695V101H333.737V88.2734H335.249V92.9492H335.372C335.82 91.9648 336.673 91.332 338.184 91.332C340.136 91.332 341.436 92.4834 341.436 94.9355V101H339.925V95.041C339.925 93.5381 339.098 92.6855 337.727 92.6855C336.304 92.6855 335.249 93.6172 335.249 95.2695ZM347.42 101.193C344.66 101.202 342.955 99.2334 342.955 96.3066C342.955 93.3711 344.687 91.332 347.279 91.332C349.283 91.332 351.401 92.5625 351.393 96.0957V96.7285H344.467C344.546 98.75 345.724 99.8574 347.42 99.8574C348.562 99.8574 349.283 99.3564 349.635 98.7676H351.252C350.804 100.218 349.389 101.202 347.42 101.193ZM344.476 95.4453H349.863C349.854 93.8545 348.853 92.668 347.279 92.668C345.627 92.668 344.581 93.9688 344.476 95.4453ZM358.491 95.2695V101H356.979V91.4551H358.438V92.9492H358.561C359.009 91.9736 359.906 91.332 361.356 91.332C363.289 91.332 364.581 92.5098 364.573 94.9355V101H363.061V95.041C363.061 93.5645 362.252 92.6855 360.899 92.6855C359.51 92.6855 358.491 93.6172 358.491 95.2695ZM370.556 101.193C367.796 101.202 366.091 99.2334 366.091 96.3066C366.091 93.3711 367.823 91.332 370.416 91.332C372.42 91.332 374.538 92.5625 374.529 96.0957V96.7285H367.603C367.682 98.75 368.86 99.8574 370.556 99.8574C371.699 99.8574 372.42 99.3564 372.771 98.7676H374.388C373.94 100.218 372.525 101.202 370.556 101.193ZM367.612 95.4453H373C372.991 93.8545 371.989 92.668 370.416 92.668C368.763 92.668 367.717 93.9688 367.612 95.4453ZM376.944 91.4551L379.194 95.3398L381.462 91.4551H383.202L380.126 96.2188L383.202 101H381.479L379.194 97.3086L376.944 101H375.204L378.21 96.2188L375.204 91.4551H376.944ZM388.746 91.4551V92.7207H386.742V98.2578C386.733 99.4795 387.349 99.6816 387.99 99.6816C388.263 99.6816 388.667 99.6553 388.887 99.6465V101.053C388.649 101.088 388.28 101.123 387.832 101.123C386.558 101.123 385.222 100.332 385.213 98.6445V92.7207H383.771V91.4551H385.213V89.1699H386.742V91.4551H388.746ZM399.623 93.9336C399.413 93.1426 398.806 92.624 397.69 92.6152C396.512 92.624 395.677 93.2568 395.668 94.0566C395.677 94.6895 396.187 95.1201 397.303 95.3926L398.727 95.7441C400.432 96.1484 401.267 97.001 401.276 98.3281C401.267 99.9805 399.922 101.202 397.532 101.193C395.387 101.202 394.113 100.244 393.858 98.5039H395.44C395.616 99.4355 396.292 99.8838 397.496 99.875C398.859 99.8838 399.711 99.3125 399.711 98.416C399.711 97.7393 399.228 97.2998 398.147 97.0449L396.705 96.7109C395.044 96.3242 394.157 95.4189 394.157 94.1445C394.157 92.5098 395.589 91.332 397.69 91.332C399.667 91.332 400.907 92.3867 401.1 93.9336H399.623ZM406.961 91.4551V92.7207H404.957V98.2578C404.948 99.4795 405.563 99.6816 406.205 99.6816C406.477 99.6816 406.881 99.6553 407.101 99.6465V101.053C406.864 101.088 406.495 101.123 406.046 101.123C404.772 101.123 403.436 100.332 403.427 98.6445V92.7207H401.986V91.4551H403.427V89.1699H404.957V91.4551H406.961ZM412.364 101.193C409.604 101.202 407.899 99.2334 407.899 96.3066C407.899 93.3711 409.631 91.332 412.223 91.332C414.227 91.332 416.346 92.5625 416.337 96.0957V96.7285H409.411C409.49 98.75 410.668 99.8574 412.364 99.8574C413.507 99.8574 414.227 99.3564 414.579 98.7676H416.196C415.748 100.218 414.333 101.202 412.364 101.193ZM409.42 95.4453H414.807C414.799 93.8545 413.797 92.668 412.223 92.668C410.571 92.668 409.525 93.9688 409.42 95.4453ZM417.855 104.586V91.4551H419.314V92.9668H419.49C419.815 92.457 420.396 91.332 422.25 91.332C424.649 91.332 426.311 93.2305 426.311 96.2539C426.311 99.2861 424.649 101.202 422.268 101.193C420.448 101.202 419.815 100.068 419.49 99.541H419.367V104.586H417.855ZM419.332 96.2188C419.341 98.3633 420.299 99.8398 422.057 99.8398C423.867 99.8398 424.799 98.249 424.799 96.2188C424.799 94.2236 423.894 92.6855 422.057 92.6855C420.272 92.6855 419.341 94.1006 419.332 96.2188Z" fill="white"/>
<path d="M486.667 11.333V44.6663H453.333V11.333H486.667ZM477.072 23.2863L474.717 20.928L470 25.643L465.287 20.928L462.93 23.2863L467.643 27.9997L462.93 32.713L465.287 35.0713L470.002 30.3563L474.715 35.0713L477.072 32.713L472.358 27.9997L477.072 23.2863Z" fill="white"/>
</svg>
