<svg width="598" height="130" viewBox="0 0 598 130" fill="none" xmlns="http://www.w3.org/2000/svg">
<rect width="598" height="130" fill="#444F55"/>
<path d="M86.9258 28.8594H89.7969L93.2734 35.1094H93.4102L96.8867 28.8594H99.7578L94.6211 37.707V43H92.082V37.707L86.9258 28.8594ZM103.457 43.2148C100.361 43.2148 98.3789 41.0176 98.3789 37.7461C98.3789 34.4453 100.361 32.2578 103.457 32.2578C106.562 32.2578 108.545 34.4453 108.535 37.7461C108.545 41.0176 106.562 43.2148 103.457 43.2148ZM100.898 37.7266C100.898 39.6699 101.748 41.2227 103.477 41.2227C105.176 41.2227 106.025 39.6699 106.016 37.7266C106.025 35.7832 105.176 34.2207 103.477 34.2305C101.748 34.2207 100.898 35.7832 100.898 37.7266ZM116.746 38.5469V32.3945H119.227V43H116.824V41.125H116.707C116.219 42.3066 115.105 43.1367 113.523 43.1367C111.424 43.1367 109.979 41.6914 109.969 39.1523V32.3945H112.469V38.7617C112.469 40.1094 113.27 40.9688 114.48 40.9688C115.574 40.9688 116.746 40.168 116.746 38.5469ZM127.855 36.7891V43H125.355V28.8594H127.797V34.1914H127.934C128.412 32.9902 129.447 32.2578 131.078 32.2578C133.275 32.2578 134.73 33.6836 134.73 36.2422V43H132.25V36.6328C132.24 35.1875 131.469 34.3574 130.16 34.3672C128.812 34.3574 127.855 35.2461 127.855 36.7891ZM136.105 40.0117C136.105 37.6289 138.088 36.9355 140.051 36.8086C140.793 36.75 142.307 36.6816 142.775 36.6621L142.766 35.8125C142.766 34.7578 142.092 34.1523 140.852 34.1523C139.738 34.1523 139.055 34.6602 138.859 35.4219H136.457C136.633 33.6152 138.254 32.2578 140.91 32.2578C142.922 32.2578 145.246 33.0879 145.246 35.9102V43H142.863V41.5352H142.785C142.316 42.4336 141.33 43.2148 139.66 43.2148C137.639 43.2148 136.105 42.1113 136.105 40.0117ZM138.508 39.9922C138.508 40.9102 139.26 41.3789 140.305 41.3789C141.818 41.3789 142.785 40.3828 142.785 39.1914L142.775 38.3223C142.326 38.3418 140.939 38.4297 140.441 38.4688C139.26 38.5664 138.508 39.0645 138.508 39.9922ZM156.172 32.3945L152.383 43H149.648L145.859 32.3945H148.516L150.957 40.2852H151.074L153.535 32.3945H156.172ZM161.57 43.2148C158.377 43.2148 156.414 41.0859 156.414 37.7656C156.414 34.4844 158.406 32.2578 161.434 32.2578C164.031 32.2578 166.277 33.8887 166.277 37.6094V38.3906H158.875C158.914 40.1973 159.979 41.2715 161.59 41.2617C162.684 41.2715 163.416 40.8027 163.738 40.168H166.18C165.73 42.0039 164.031 43.2148 161.57 43.2148ZM158.885 36.6914H163.895C163.885 35.2461 162.908 34.1914 161.473 34.1914C159.979 34.1914 158.973 35.3438 158.885 36.6914ZM172.074 43V28.8594H174.574V34.1328H174.672C175.053 33.3809 175.824 32.2578 177.699 32.2578C180.15 32.2578 182.084 34.1719 182.094 37.707C182.084 41.1934 180.209 43.1855 177.719 43.1953C175.883 43.1855 175.062 42.1016 174.672 41.3203H174.516V43H172.074ZM174.516 37.6875C174.516 39.7578 175.424 41.1445 177.016 41.1445C178.676 41.1445 179.545 39.6895 179.555 37.6875C179.545 35.7148 178.695 34.2988 177.016 34.2891C175.404 34.2988 174.516 35.627 174.516 37.6875ZM188.254 43.2148C185.061 43.2148 183.098 41.0859 183.098 37.7656C183.098 34.4844 185.09 32.2578 188.117 32.2578C190.715 32.2578 192.961 33.8887 192.961 37.6094V38.3906H185.559C185.598 40.1973 186.662 41.2715 188.273 41.2617C189.367 41.2715 190.1 40.8027 190.422 40.168H192.863C192.414 42.0039 190.715 43.2148 188.254 43.2148ZM185.568 36.6914H190.578C190.568 35.2461 189.592 34.1914 188.156 34.1914C186.662 34.1914 185.656 35.3438 185.568 36.6914ZM199.102 43.2148C195.908 43.2148 193.945 41.0859 193.945 37.7656C193.945 34.4844 195.938 32.2578 198.965 32.2578C201.562 32.2578 203.809 33.8887 203.809 37.6094V38.3906H196.406C196.445 40.1973 197.51 41.2715 199.121 41.2617C200.215 41.2715 200.947 40.8027 201.27 40.168H203.711C203.262 42.0039 201.562 43.2148 199.102 43.2148ZM196.416 36.6914H201.426C201.416 35.2461 200.439 34.1914 199.004 34.1914C197.51 34.1914 196.504 35.3438 196.416 36.6914ZM207.742 36.7891V43H205.242V32.3945H207.625V34.1914H207.762C208.24 33.0098 209.324 32.2578 210.906 32.2578C213.104 32.2578 214.549 33.7031 214.539 36.2422V43H212.059V36.6328C212.059 35.207 211.287 34.3574 209.988 34.3672C208.67 34.3574 207.742 35.2461 207.742 36.7891ZM226.684 35.4219C226.527 34.6211 225.863 34.1035 224.809 34.1133C223.744 34.1035 222.963 34.6406 222.973 35.3633C222.963 35.9102 223.402 36.3203 224.477 36.5742L226.273 36.9453C228.275 37.3848 229.252 38.3125 229.262 39.8359C229.252 41.8281 227.504 43.2148 224.73 43.2148C222.035 43.2148 220.443 42.0039 220.18 39.9727H222.719C222.865 40.8809 223.568 41.3301 224.73 41.3203C225.932 41.3301 226.713 40.8418 226.723 40.0508C226.713 39.4355 226.234 39.0449 225.18 38.8203L223.48 38.4492C221.508 38.0488 220.482 37.0137 220.492 35.5C220.482 33.5371 222.182 32.2578 224.77 32.2578C227.299 32.2578 228.861 33.498 229.047 35.4219H226.684ZM235.363 43.2148C232.17 43.2148 230.207 41.0859 230.207 37.7656C230.207 34.4844 232.199 32.2578 235.227 32.2578C237.824 32.2578 240.07 33.8887 240.07 37.6094V38.3906H232.668C232.707 40.1973 233.771 41.2715 235.383 41.2617C236.477 41.2715 237.209 40.8027 237.531 40.168H239.973C239.523 42.0039 237.824 43.2148 235.363 43.2148ZM232.678 36.6914H237.688C237.678 35.2461 236.701 34.1914 235.266 34.1914C233.771 34.1914 232.766 35.3438 232.678 36.6914ZM244.004 28.8594V43H241.504V28.8594H244.004ZM250.594 43.2148C247.4 43.2148 245.438 41.0859 245.438 37.7656C245.438 34.4844 247.43 32.2578 250.457 32.2578C253.055 32.2578 255.301 33.8887 255.301 37.6094V38.3906H247.898C247.938 40.1973 249.002 41.2715 250.613 41.2617C251.707 41.2715 252.439 40.8027 252.762 40.168H255.203C254.754 42.0039 253.055 43.2148 250.594 43.2148ZM247.908 36.6914H252.918C252.908 35.2461 251.932 34.1914 250.496 34.1914C249.002 34.1914 247.996 35.3438 247.908 36.6914ZM261.363 43.2148C258.199 43.2148 256.285 40.9492 256.285 37.7461C256.285 34.4941 258.258 32.2578 261.363 32.2578C263.932 32.2578 265.738 33.7617 265.914 36.0469H263.531C263.336 35.0312 262.594 34.2598 261.383 34.25C259.84 34.2598 258.805 35.5488 258.805 37.6875C258.805 39.875 259.82 41.1738 261.383 41.1836C262.486 41.1738 263.307 40.5293 263.531 39.3867H265.914C265.729 41.623 264.029 43.2148 261.363 43.2148ZM272.582 32.3945V34.3086H270.492V39.8164C270.492 40.832 271 41.0371 271.625 41.0469C271.918 41.0566 272.406 41.0273 272.719 41.0078V43.0391C272.426 43.0879 271.947 43.1465 271.312 43.1367C269.438 43.1465 267.992 42.2188 268.012 40.2266V34.3086H266.488V32.3945H268.012V29.8555H270.492V32.3945H272.582ZM278.586 43.2148C275.393 43.2148 273.43 41.0859 273.43 37.7656C273.43 34.4844 275.422 32.2578 278.449 32.2578C281.047 32.2578 283.293 33.8887 283.293 37.6094V38.3906H275.891C275.93 40.1973 276.994 41.2715 278.605 41.2617C279.699 41.2715 280.432 40.8027 280.754 40.168H283.195C282.746 42.0039 281.047 43.2148 278.586 43.2148ZM275.9 36.6914H280.91C280.9 35.2461 279.924 34.1914 278.488 34.1914C276.994 34.1914 275.988 35.3438 275.9 36.6914ZM288.672 43.1953C286.182 43.1855 284.297 41.1934 284.297 37.707C284.297 34.1719 286.23 32.2578 288.691 32.2578C290.557 32.2578 291.338 33.3809 291.719 34.1328H291.816V28.8594H294.297V43H291.855V41.3203H291.719C291.318 42.1016 290.508 43.1855 288.672 43.1953ZM286.836 37.6875C286.836 39.6895 287.715 41.1445 289.355 41.1445C290.967 41.1445 291.875 39.7578 291.875 37.6875C291.875 35.627 290.977 34.2988 289.355 34.2891C287.695 34.2988 286.836 35.7148 286.836 37.6875ZM300.074 40.0117C300.074 37.6289 302.057 36.9355 304.02 36.8086C304.762 36.75 306.275 36.6816 306.744 36.6621L306.734 35.8125C306.734 34.7578 306.061 34.1523 304.82 34.1523C303.707 34.1523 303.023 34.6602 302.828 35.4219H300.426C300.602 33.6152 302.223 32.2578 304.879 32.2578C306.891 32.2578 309.215 33.0879 309.215 35.9102V43H306.832V41.5352H306.754C306.285 42.4336 305.299 43.2148 303.629 43.2148C301.607 43.2148 300.074 42.1113 300.074 40.0117ZM302.477 39.9922C302.477 40.9102 303.229 41.3789 304.273 41.3789C305.787 41.3789 306.754 40.3828 306.754 39.1914L306.744 38.3223C306.295 38.3418 304.908 38.4297 304.41 38.4688C303.229 38.5664 302.477 39.0645 302.477 39.9922ZM317.074 35.4219C316.918 34.6211 316.254 34.1035 315.199 34.1133C314.135 34.1035 313.354 34.6406 313.363 35.3633C313.354 35.9102 313.793 36.3203 314.867 36.5742L316.664 36.9453C318.666 37.3848 319.643 38.3125 319.652 39.8359C319.643 41.8281 317.895 43.2148 315.121 43.2148C312.426 43.2148 310.834 42.0039 310.57 39.9727H313.109C313.256 40.8809 313.959 41.3301 315.121 41.3203C316.322 41.3301 317.104 40.8418 317.113 40.0508C317.104 39.4355 316.625 39.0449 315.57 38.8203L313.871 38.4492C311.898 38.0488 310.873 37.0137 310.883 35.5C310.873 33.5371 312.572 32.2578 315.16 32.2578C317.689 32.2578 319.252 33.498 319.438 35.4219H317.074ZM330.586 32.3945V34.3086H328.496V39.8164C328.496 40.832 329.004 41.0371 329.629 41.0469C329.922 41.0566 330.41 41.0273 330.723 41.0078V43.0391C330.43 43.0879 329.951 43.1465 329.316 43.1367C327.441 43.1465 325.996 42.2188 326.016 40.2266V34.3086H324.492V32.3945H326.016V29.8555H328.496V32.3945H330.586ZM334.734 36.7891V43H332.234V28.8594H334.676V34.1914H334.812C335.291 32.9902 336.326 32.2578 337.957 32.2578C340.154 32.2578 341.609 33.6836 341.609 36.2422V43H339.129V36.6328C339.119 35.1875 338.348 34.3574 337.039 34.3672C335.691 34.3574 334.734 35.2461 334.734 36.7891ZM348.18 43.2148C344.986 43.2148 343.023 41.0859 343.023 37.7656C343.023 34.4844 345.016 32.2578 348.043 32.2578C350.641 32.2578 352.887 33.8887 352.887 37.6094V38.3906H345.484C345.523 40.1973 346.588 41.2715 348.199 41.2617C349.293 41.2715 350.025 40.8027 350.348 40.168H352.789C352.34 42.0039 350.641 43.2148 348.18 43.2148ZM345.494 36.6914H350.504C350.494 35.2461 349.518 34.1914 348.082 34.1914C346.588 34.1914 345.582 35.3438 345.494 36.6914ZM361.066 36.7891V43H358.566V28.8594H361.008V34.1914H361.145C361.623 32.9902 362.658 32.2578 364.289 32.2578C366.486 32.2578 367.941 33.6836 367.941 36.2422V43H365.461V36.6328C365.451 35.1875 364.68 34.3574 363.371 34.3672C362.023 34.3574 361.066 35.2461 361.066 36.7891ZM374.434 43.2148C371.338 43.2148 369.355 41.0176 369.355 37.7461C369.355 34.4453 371.338 32.2578 374.434 32.2578C377.539 32.2578 379.521 34.4453 379.512 37.7461C379.521 41.0176 377.539 43.2148 374.434 43.2148ZM371.875 37.7266C371.875 39.6699 372.725 41.2227 374.453 41.2227C376.152 41.2227 377.002 39.6699 376.992 37.7266C377.002 35.7832 376.152 34.2207 374.453 34.2305C372.725 34.2207 371.875 35.7832 371.875 37.7266ZM386.961 35.4219C386.805 34.6211 386.141 34.1035 385.086 34.1133C384.021 34.1035 383.24 34.6406 383.25 35.3633C383.24 35.9102 383.68 36.3203 384.754 36.5742L386.551 36.9453C388.553 37.3848 389.529 38.3125 389.539 39.8359C389.529 41.8281 387.781 43.2148 385.008 43.2148C382.312 43.2148 380.721 42.0039 380.457 39.9727H382.996C383.143 40.8809 383.846 41.3301 385.008 41.3203C386.209 41.3301 386.99 40.8418 387 40.0508C386.99 39.4355 386.512 39.0449 385.457 38.8203L383.758 38.4492C381.785 38.0488 380.76 37.0137 380.77 35.5C380.76 33.5371 382.459 32.2578 385.047 32.2578C387.576 32.2578 389.139 33.498 389.324 35.4219H386.961ZM396.227 32.3945V34.3086H394.137V39.8164C394.137 40.832 394.645 41.0371 395.27 41.0469C395.562 41.0566 396.051 41.0273 396.363 41.0078V43.0391C396.07 43.0879 395.592 43.1465 394.957 43.1367C393.082 43.1465 391.637 42.2188 391.656 40.2266V34.3086H390.133V32.3945H391.656V29.8555H394.137V32.3945H396.227ZM406.516 43.2148C403.42 43.2148 401.438 41.0176 401.438 37.7461C401.438 34.4453 403.42 32.2578 406.516 32.2578C409.621 32.2578 411.604 34.4453 411.594 37.7461C411.604 41.0176 409.621 43.2148 406.516 43.2148ZM403.957 37.7266C403.957 39.6699 404.807 41.2227 406.535 41.2227C408.234 41.2227 409.084 39.6699 409.074 37.7266C409.084 35.7832 408.234 34.2207 406.535 34.2305C404.807 34.2207 403.957 35.7832 403.957 37.7266ZM418.398 32.3945V34.3086H416.211V43H413.711V34.3086H412.129V32.3945H413.711V31.3789C413.711 29.3184 414.99 28.1953 417.031 28.1953C417.607 28.1953 418.145 28.2539 418.613 28.3516V30.3242C418.203 30.2656 417.9 30.2559 417.715 30.2461C416.709 30.2559 416.201 30.6465 416.211 31.6133V32.3945H418.398ZM429.215 32.3945V34.3086H427.125V39.8164C427.125 40.832 427.633 41.0371 428.258 41.0469C428.551 41.0566 429.039 41.0273 429.352 41.0078V43.0391C429.059 43.0879 428.58 43.1465 427.945 43.1367C426.07 43.1465 424.625 42.2188 424.645 40.2266V34.3086H423.121V32.3945H424.645V29.8555H427.125V32.3945H429.215ZM433.363 36.7891V43H430.863V28.8594H433.305V34.1914H433.441C433.92 32.9902 434.955 32.2578 436.586 32.2578C438.783 32.2578 440.238 33.6836 440.238 36.2422V43H437.758V36.6328C437.748 35.1875 436.977 34.3574 435.668 34.3672C434.32 34.3574 433.363 35.2461 433.363 36.7891ZM446.809 43.2148C443.615 43.2148 441.652 41.0859 441.652 37.7656C441.652 34.4844 443.645 32.2578 446.672 32.2578C449.27 32.2578 451.516 33.8887 451.516 37.6094V38.3906H444.113C444.152 40.1973 445.217 41.2715 446.828 41.2617C447.922 41.2715 448.654 40.8027 448.977 40.168H451.418C450.969 42.0039 449.27 43.2148 446.809 43.2148ZM444.123 36.6914H449.133C449.123 35.2461 448.146 34.1914 446.711 34.1914C445.217 34.1914 444.211 35.3438 444.123 36.6914ZM461.824 47.1992C459.012 47.1992 457.225 45.9492 457.059 43.957H459.539C459.715 44.8848 460.584 45.3145 461.863 45.3242C463.357 45.3145 464.324 44.6699 464.324 43.1172V41.0859H464.207C463.816 41.8672 462.967 42.8438 461.141 42.8438C458.689 42.8438 456.766 41.0664 456.766 37.6094C456.766 34.123 458.699 32.2578 461.16 32.2578C463.025 32.2578 463.816 33.3809 464.207 34.1328H464.324V32.3945H466.785V43.1758C466.785 45.8906 464.686 47.1992 461.824 47.1992ZM459.305 37.6484C459.305 39.6016 460.184 40.8906 461.824 40.8906C463.436 40.8906 464.344 39.6797 464.344 37.6484C464.344 35.627 463.445 34.2988 461.824 34.2891C460.164 34.2988 459.305 35.7148 459.305 37.6484ZM468.18 40.0117C468.18 37.6289 470.162 36.9355 472.125 36.8086C472.867 36.75 474.381 36.6816 474.85 36.6621L474.84 35.8125C474.84 34.7578 474.166 34.1523 472.926 34.1523C471.812 34.1523 471.129 34.6602 470.934 35.4219H468.531C468.707 33.6152 470.328 32.2578 472.984 32.2578C474.996 32.2578 477.32 33.0879 477.32 35.9102V43H474.938V41.5352H474.859C474.391 42.4336 473.404 43.2148 471.734 43.2148C469.713 43.2148 468.18 42.1113 468.18 40.0117ZM470.582 39.9922C470.582 40.9102 471.334 41.3789 472.379 41.3789C473.893 41.3789 474.859 40.3828 474.859 39.1914L474.85 38.3223C474.4 38.3418 473.014 38.4297 472.516 38.4688C471.334 38.5664 470.582 39.0645 470.582 39.9922ZM479.164 43V32.3945H481.547V34.1914H481.684C482.123 32.9805 483.188 32.2578 484.594 32.2578C486.029 32.2578 487.064 32.9902 487.465 34.1914H487.582C488.041 33.0195 489.223 32.2578 490.766 32.2578C492.709 32.2578 494.076 33.5078 494.066 35.8711V43H491.586V36.2617C491.586 34.9434 490.785 34.3477 489.77 34.3477C488.549 34.3477 487.836 35.1777 487.836 36.3789V43H485.414V36.1641C485.404 35.0605 484.682 34.3477 483.617 34.3477C482.543 34.3477 481.664 35.2363 481.664 36.5547V43H479.164ZM500.656 43.2148C497.463 43.2148 495.5 41.0859 495.5 37.7656C495.5 34.4844 497.492 32.2578 500.52 32.2578C503.117 32.2578 505.363 33.8887 505.363 37.6094V38.3906H497.961C498 40.1973 499.064 41.2715 500.676 41.2617C501.77 41.2715 502.502 40.8027 502.824 40.168H505.266C504.816 42.0039 503.117 43.2148 500.656 43.2148ZM497.971 36.6914H502.98C502.971 35.2461 501.994 34.1914 500.559 34.1914C499.064 34.1914 498.059 35.3438 497.971 36.6914ZM509.824 28.8594L509.609 38.8398H507.402L507.168 28.8594H509.824ZM506.992 41.6328C506.982 40.8125 507.676 40.1387 508.516 40.1289C509.326 40.1387 510.02 40.8125 510.02 41.6328C510.02 42.4727 509.326 43.1562 508.516 43.1562C507.676 43.1562 506.982 42.4727 506.992 41.6328Z" fill="white"/>
<path d="M75.6541 77H74.0018L78.66 64.2734H80.3299L84.9881 77H83.3182L82.0437 73.4141H76.9285L75.6541 77ZM77.4119 72.0254H81.5603L79.5389 66.3301H79.4334L77.4119 72.0254ZM89.6357 67.4551V68.7207H87.6318V74.2578C87.623 75.4795 88.2383 75.6816 88.8799 75.6816C89.1523 75.6816 89.5566 75.6553 89.7764 75.6465V77.0527C89.5391 77.0879 89.1699 77.123 88.7217 77.123C87.4473 77.123 86.1113 76.332 86.1025 74.6445V68.7207H84.6611V67.4551H86.1025V65.1699H87.6318V67.4551H89.6357ZM99.3705 67.4551V68.7207H97.3666V74.2578C97.3578 75.4795 97.973 75.6816 98.6146 75.6816C98.8871 75.6816 99.2914 75.6553 99.5111 75.6465V77.0527C99.2738 77.0879 98.9047 77.123 98.4564 77.123C97.182 77.123 95.8461 76.332 95.8373 74.6445V68.7207H94.3959V67.4551H95.8373V65.1699H97.3666V67.4551H99.3705ZM102.594 71.2695V77H101.083V64.2734H102.594V68.9492H102.717C103.166 67.9648 104.018 67.332 105.53 67.332C107.481 67.332 108.782 68.4834 108.782 70.9355V77H107.27V71.041C107.27 69.5381 106.444 68.6855 105.073 68.6855C103.649 68.6855 102.594 69.6172 102.594 71.2695ZM114.765 77.1934C112.006 77.2021 110.301 75.2334 110.301 72.3066C110.301 69.3711 112.032 67.332 114.625 67.332C116.629 67.332 118.747 68.5625 118.738 72.0957V72.7285H111.812C111.891 74.75 113.069 75.8574 114.765 75.8574C115.908 75.8574 116.629 75.3564 116.98 74.7676H118.597C118.149 76.2178 116.734 77.2021 114.765 77.1934ZM111.821 71.4453H117.209C117.2 69.8545 116.198 68.668 114.625 68.668C112.972 68.668 111.927 69.9688 111.821 71.4453ZM125.836 71.2695V77H124.324V64.2734H125.836V68.9492H125.959C126.407 67.9648 127.26 67.332 128.772 67.332C130.723 67.332 132.024 68.4834 132.024 70.9355V77H130.512V71.041C130.512 69.5381 129.686 68.6855 128.315 68.6855C126.891 68.6855 125.836 69.6172 125.836 71.2695ZM137.902 77.1934C135.3 77.2021 133.542 75.2334 133.542 72.2715C133.542 69.292 135.3 67.332 137.902 67.332C140.495 67.332 142.235 69.292 142.226 72.2715C142.235 75.2334 140.495 77.2021 137.902 77.1934ZM135.054 72.2715C135.063 74.1787 135.959 75.8574 137.902 75.8574C139.827 75.8574 140.714 74.1787 140.714 72.2715C140.714 70.373 139.827 68.668 137.902 68.668C135.959 68.668 135.063 70.373 135.054 72.2715ZM149.071 69.9336C148.86 69.1426 148.254 68.624 147.137 68.6152C145.96 68.624 145.125 69.2568 145.116 70.0566C145.125 70.6895 145.634 71.1201 146.751 71.3926L148.174 71.7441C149.879 72.1484 150.714 73.001 150.723 74.3281C150.714 75.9805 149.37 77.2021 146.979 77.1934C144.835 77.2021 143.56 76.2441 143.305 74.5039H144.887C145.063 75.4355 145.74 75.8838 146.944 75.875C148.306 75.8838 149.159 75.3125 149.159 74.416C149.159 73.7393 148.675 73.2998 147.594 73.0449L146.153 72.7109C144.492 72.3242 143.604 71.4189 143.604 70.1445C143.604 68.5098 145.037 67.332 147.137 67.332C149.115 67.332 150.354 68.3867 150.547 69.9336H149.071ZM156.408 67.4551V68.7207H154.404V74.2578C154.395 75.4795 155.011 75.6816 155.652 75.6816C155.925 75.6816 156.329 75.6553 156.549 75.6465V77.0527C156.311 77.0879 155.942 77.123 155.494 77.123C154.22 77.123 152.884 76.332 152.875 74.6445V68.7207H151.433V67.4551H152.875V65.1699H154.404V67.4551H156.408ZM159.896 75.8223L158.524 80.6035H157.224L158.19 75.8223H159.896ZM167.099 80.5859C166.774 80.5771 166.449 80.5684 166.255 80.5508V79.1973C166.413 79.2148 166.756 79.2236 166.994 79.2324C167.609 79.2236 168.127 79.1885 168.628 77.791L168.91 77.0703L165.376 67.4551H167.029L169.63 75.0312H169.736L172.337 67.4551H173.99L169.947 78.3711C169.384 79.874 168.453 80.5771 167.099 80.5859ZM178.76 77.1934C176.159 77.2021 174.401 75.2334 174.401 72.2715C174.401 69.292 176.159 67.332 178.76 67.332C181.353 67.332 183.093 69.292 183.085 72.2715C183.093 75.2334 181.353 77.2021 178.76 77.1934ZM175.913 72.2715C175.921 74.1787 176.818 75.8574 178.76 75.8574C180.685 75.8574 181.573 74.1787 181.573 72.2715C181.573 70.373 180.685 68.668 178.76 68.668C176.818 68.668 175.921 70.373 175.913 72.2715ZM190.65 73.0801V67.4551H192.144V77H190.65V75.3828H190.545C190.096 76.3496 189.147 77.123 187.715 77.123C185.904 77.123 184.612 75.9453 184.621 73.5195V67.4551H186.133V73.4141C186.133 74.7852 186.985 75.6729 188.207 75.6641C189.288 75.6729 190.641 74.8643 190.65 73.0801ZM200.332 77L197.432 67.4551H199.031L201.07 74.7324H201.158L203.18 67.4551H204.797L206.783 74.6973H206.889L208.928 67.4551H210.51L207.61 77H206.115L204.041 69.7227H203.901L201.844 77H200.332ZM211.73 77V67.4551H213.242V77H211.73ZM211.431 64.8711C211.422 64.3086 211.906 63.8604 212.486 63.8691C213.066 63.8604 213.549 64.3086 213.558 64.8711C213.549 65.4248 213.066 65.873 212.486 65.873C211.906 65.873 211.422 65.4248 211.431 64.8711ZM216.712 64.2734V77H215.2V64.2734H216.712ZM220.181 64.2734V77H218.67V64.2734H220.181ZM230.11 77.1934C227.403 77.2021 225.75 75.1367 225.75 72.2715C225.75 69.3711 227.482 67.332 230.074 67.332C232.105 67.332 233.634 68.5361 233.871 70.3379H232.36C232.14 69.4678 231.384 68.668 230.11 68.668C228.404 68.668 227.271 70.0742 227.262 72.2188C227.271 74.4248 228.378 75.8398 230.11 75.8398C231.235 75.8398 232.096 75.2334 232.36 74.1875H233.871C233.634 75.8926 232.228 77.2021 230.11 77.1934ZM239.187 77.1934C236.585 77.2021 234.828 75.2334 234.828 72.2715C234.828 69.292 236.585 67.332 239.187 67.332C241.78 67.332 243.52 69.292 243.511 72.2715C243.52 75.2334 241.78 77.2021 239.187 77.1934ZM236.339 72.2715C236.348 74.1787 237.245 75.8574 239.187 75.8574C241.112 75.8574 241.999 74.1787 241.999 72.2715C241.999 70.373 241.112 68.668 239.187 68.668C237.245 68.668 236.348 70.373 236.339 72.2715ZM246.559 64.2734V77H245.047V64.2734H246.559ZM250.029 64.2734V77H248.517V64.2734H250.029ZM255.995 77.1934C253.235 77.2021 251.53 75.2334 251.53 72.3066C251.53 69.3711 253.262 67.332 255.854 67.332C257.858 67.332 259.977 68.5625 259.968 72.0957V72.7285H253.042C253.121 74.75 254.299 75.8574 255.995 75.8574C257.138 75.8574 257.858 75.3564 258.21 74.7676H259.827C259.379 76.2178 257.964 77.2021 255.995 77.1934ZM253.051 71.4453H258.438C258.43 69.8545 257.428 68.668 255.854 68.668C254.202 68.668 253.156 69.9688 253.051 71.4453ZM265.389 77.1934C262.682 77.2021 261.029 75.1367 261.029 72.2715C261.029 69.3711 262.761 67.332 265.354 67.332C267.384 67.332 268.913 68.5361 269.151 70.3379H267.639C267.419 69.4678 266.663 68.668 265.389 68.668C263.684 68.668 262.55 70.0742 262.541 72.2188C262.55 74.4248 263.657 75.8398 265.389 75.8398C266.514 75.8398 267.375 75.2334 267.639 74.1875H269.151C268.913 75.8926 267.507 77.2021 265.389 77.1934ZM274.73 67.4551V68.7207H272.726V74.2578C272.717 75.4795 273.332 75.6816 273.974 75.6816C274.246 75.6816 274.651 75.6553 274.87 75.6465V77.0527C274.633 77.0879 274.264 77.123 273.816 77.123C272.541 77.123 271.205 76.332 271.197 74.6445V68.7207H269.755V67.4551H271.197V65.1699H272.726V67.4551H274.73ZM284.465 67.4551V68.7207H282.461V74.2578C282.452 75.4795 283.067 75.6816 283.709 75.6816C283.981 75.6816 284.386 75.6553 284.605 75.6465V77.0527C284.368 77.0879 283.999 77.123 283.551 77.123C282.276 77.123 280.94 76.332 280.931 74.6445V68.7207H279.49V67.4551H280.931V65.1699H282.461V67.4551H284.465ZM287.688 71.2695V77H286.177V64.2734H287.688V68.9492H287.812C288.26 67.9648 289.112 67.332 290.624 67.332C292.575 67.332 293.876 68.4834 293.876 70.9355V77H292.364V71.041C292.364 69.5381 291.538 68.6855 290.167 68.6855C288.743 68.6855 287.688 69.6172 287.688 71.2695ZM299.86 77.1934C297.1 77.2021 295.395 75.2334 295.395 72.3066C295.395 69.3711 297.126 67.332 299.719 67.332C301.723 67.332 303.841 68.5625 303.832 72.0957V72.7285H296.906C296.986 74.75 298.163 75.8574 299.86 75.8574C301.002 75.8574 301.723 75.3564 302.074 74.7676H303.692C303.243 76.2178 301.828 77.2021 299.86 77.1934ZM296.915 71.4453H302.303C302.294 69.8545 301.292 68.668 299.719 68.668C298.067 68.668 297.021 69.9688 296.915 71.4453ZM313.321 77.1934C310.719 77.2021 308.962 75.2334 308.962 72.2715C308.962 69.292 310.719 67.332 313.321 67.332C315.914 67.332 317.654 69.292 317.645 72.2715C317.654 75.2334 315.914 77.2021 313.321 77.1934ZM310.473 72.2715C310.482 74.1787 311.379 75.8574 313.321 75.8574C315.246 75.8574 316.133 74.1787 316.133 72.2715C316.133 70.373 315.246 68.668 313.321 68.668C311.379 68.668 310.482 70.373 310.473 72.2715ZM319.181 80.5859V67.4551H320.64V68.9668H320.816C321.141 68.457 321.721 67.332 323.576 67.332C325.975 67.332 327.637 69.2305 327.637 72.2539C327.637 75.2861 325.975 77.2021 323.594 77.1934C321.774 77.2021 321.141 76.0684 320.816 75.541H320.693V80.5859H319.181ZM320.658 72.2188C320.667 74.3633 321.625 75.8398 323.383 75.8398C325.193 75.8398 326.125 74.249 326.125 72.2188C326.125 70.2236 325.22 68.6855 323.383 68.6855C321.598 68.6855 320.667 70.1006 320.658 72.2188ZM329.155 77V67.4551H330.667V77H329.155ZM328.856 64.8711C328.848 64.3086 329.331 63.8604 329.911 63.8691C330.491 63.8604 330.975 64.3086 330.983 64.8711C330.975 65.4248 330.491 65.873 329.911 65.873C329.331 65.873 328.848 65.4248 328.856 64.8711ZM334.137 71.2695V77H332.625V67.4551H334.084V68.9492H334.207C334.655 67.9736 335.552 67.332 337.002 67.332C338.936 67.332 340.228 68.5098 340.219 70.9355V77H338.707V71.041C338.707 69.5645 337.899 68.6855 336.545 68.6855C335.156 68.6855 334.137 69.6172 334.137 71.2695ZM342.195 77V67.4551H343.706V77H342.195ZM341.896 64.8711C341.887 64.3086 342.37 63.8604 342.951 63.8691C343.531 63.8604 344.014 64.3086 344.023 64.8711C344.014 65.4248 343.531 65.873 342.951 65.873C342.37 65.873 341.887 65.4248 341.896 64.8711ZM349.567 77.1934C346.965 77.2021 345.208 75.2334 345.208 72.2715C345.208 69.292 346.965 67.332 349.567 67.332C352.16 67.332 353.9 69.292 353.891 72.2715C353.9 75.2334 352.16 77.2021 349.567 77.1934ZM346.719 72.2715C346.728 74.1787 347.625 75.8574 349.567 75.8574C351.492 75.8574 352.38 74.1787 352.38 72.2715C352.38 70.373 351.492 68.668 349.567 68.668C347.625 68.668 346.728 70.373 346.719 72.2715ZM356.939 71.2695V77H355.428V67.4551H356.887V68.9492H357.01C357.458 67.9736 358.354 67.332 359.805 67.332C361.738 67.332 363.03 68.5098 363.021 70.9355V77H361.51V71.041C361.51 69.5645 360.701 68.6855 359.347 68.6855C357.959 68.6855 356.939 69.6172 356.939 71.2695ZM370.306 69.9336C370.095 69.1426 369.488 68.624 368.372 68.6152C367.194 68.624 366.359 69.2568 366.351 70.0566C366.359 70.6895 366.869 71.1201 367.985 71.3926L369.409 71.7441C371.114 72.1484 371.949 73.001 371.958 74.3281C371.949 75.9805 370.604 77.2021 368.214 77.1934C366.069 77.2021 364.795 76.2441 364.54 74.5039H366.122C366.298 75.4355 366.975 75.8838 368.179 75.875C369.541 75.8838 370.394 75.3125 370.394 74.416C370.394 73.7393 369.91 73.2998 368.829 73.0449L367.388 72.7109C365.727 72.3242 364.839 71.4189 364.839 70.1445C364.839 68.5098 366.271 67.332 368.372 67.332C370.35 67.332 371.589 68.3867 371.782 69.9336H370.306ZM381.447 77.1934C378.845 77.2021 377.087 75.2334 377.087 72.2715C377.087 69.292 378.845 67.332 381.447 67.332C384.039 67.332 385.78 69.292 385.771 72.2715C385.78 75.2334 384.039 77.2021 381.447 77.1934ZM378.599 72.2715C378.608 74.1787 379.504 75.8574 381.447 75.8574C383.371 75.8574 384.259 74.1787 384.259 72.2715C384.259 70.373 383.371 68.668 381.447 68.668C379.504 68.668 378.608 70.373 378.599 72.2715ZM391.579 67.4551V68.7207H389.469V77H387.94V68.7207H386.411V67.4551H387.94V66.1543C387.949 64.6074 388.977 63.6758 390.665 63.6758C391.034 63.6758 391.473 63.7197 391.79 63.7812V65.1348C391.464 65.082 391.192 65.0645 390.999 65.0645C389.935 65.0645 389.461 65.5039 389.469 66.4883V67.4551H391.579ZM401.155 67.4551V68.7207H399.151V74.2578C399.143 75.4795 399.758 75.6816 400.399 75.6816C400.672 75.6816 401.076 75.6553 401.296 75.6465V77.0527C401.059 77.0879 400.689 77.123 400.241 77.123C398.967 77.123 397.631 76.332 397.622 74.6445V68.7207H396.181V67.4551H397.622V65.1699H399.151V67.4551H401.155ZM404.379 71.2695V77H402.867V64.2734H404.379V68.9492H404.502C404.95 67.9648 405.803 67.332 407.315 67.332C409.266 67.332 410.567 68.4834 410.567 70.9355V77H409.055V71.041C409.055 69.5381 408.229 68.6855 406.858 68.6855C405.434 68.6855 404.379 69.6172 404.379 71.2695ZM416.55 77.1934C413.79 77.2021 412.085 75.2334 412.085 72.3066C412.085 69.3711 413.817 67.332 416.41 67.332C418.413 67.332 420.532 68.5625 420.523 72.0957V72.7285H413.597C413.676 74.75 414.854 75.8574 416.55 75.8574C417.693 75.8574 418.413 75.3564 418.765 74.7676H420.382C419.934 76.2178 418.519 77.2021 416.55 77.1934ZM413.606 71.4453H418.994C418.985 69.8545 417.983 68.668 416.41 68.668C414.757 68.668 413.711 69.9688 413.606 71.4453ZM430.275 67.4551V68.7207H428.271V74.2578C428.263 75.4795 428.878 75.6816 429.519 75.6816C429.792 75.6816 430.196 75.6553 430.416 75.6465V77.0527C430.179 77.0879 429.809 77.123 429.361 77.123C428.087 77.123 426.751 76.332 426.742 74.6445V68.7207H425.301V67.4551H426.742V65.1699H428.271V67.4551H430.275ZM433.499 71.2695V77H431.987V64.2734H433.499V68.9492H433.622C434.07 67.9648 434.923 67.332 436.435 67.332C438.386 67.332 439.687 68.4834 439.687 70.9355V77H438.175V71.041C438.175 69.5381 437.349 68.6855 435.978 68.6855C434.554 68.6855 433.499 69.6172 433.499 71.2695ZM441.662 77V67.4551H443.121V68.9141H443.227C443.57 67.9473 444.563 67.3057 445.688 67.2969C445.916 67.3057 446.303 67.3145 446.479 67.332V68.8613C446.364 68.835 445.96 68.7559 445.565 68.7559C444.194 68.7559 443.174 69.7051 443.174 70.9883V77H441.662ZM451.197 77.1934C448.437 77.2021 446.732 75.2334 446.732 72.3066C446.732 69.3711 448.463 67.332 451.056 67.332C453.06 67.332 455.178 68.5625 455.169 72.0957V72.7285H448.244C448.323 74.75 449.5 75.8574 451.197 75.8574C452.339 75.8574 453.06 75.3564 453.411 74.7676H455.029C454.58 76.2178 453.165 77.2021 451.197 77.1934ZM448.252 71.4453H453.64C453.631 69.8545 452.629 68.668 451.056 68.668C449.404 68.668 448.358 69.9688 448.252 71.4453ZM460.696 77.1934C457.936 77.2021 456.231 75.2334 456.231 72.3066C456.231 69.3711 457.963 67.332 460.555 67.332C462.559 67.332 464.677 68.5625 464.669 72.0957V72.7285H457.743C457.822 74.75 459 75.8574 460.696 75.8574C461.839 75.8574 462.559 75.3564 462.911 74.7676H464.528C464.08 76.2178 462.665 77.2021 460.696 77.1934ZM457.752 71.4453H463.139C463.13 69.8545 462.129 68.668 460.555 68.668C458.903 68.668 457.857 69.9688 457.752 71.4453ZM470.255 80.5859V67.4551H471.714V68.9668H471.89C472.215 68.457 472.795 67.332 474.649 67.332C477.049 67.332 478.71 69.2305 478.71 72.2539C478.71 75.2861 477.049 77.2021 474.667 77.1934C472.848 77.2021 472.215 76.0684 471.89 75.541H471.767V80.5859H470.255ZM471.731 72.2188C471.74 74.3633 472.698 75.8398 474.456 75.8398C476.267 75.8398 477.198 74.249 477.198 72.2188C477.198 70.2236 476.293 68.6855 474.456 68.6855C472.672 68.6855 471.74 70.1006 471.731 72.2188ZM481.74 64.2734V77H480.229V64.2734H481.74ZM483.242 74.293C483.242 72.1045 485.175 71.6035 486.828 71.4805C487.443 71.4365 488.981 71.3486 489.411 71.3398V70.5664C489.411 69.3535 488.691 68.6504 487.249 68.6504C486.045 68.6504 485.316 69.2041 485.105 69.9336H483.523C483.716 68.3955 485.21 67.332 487.32 67.332C488.568 67.332 490.914 67.7012 490.906 70.707V77H489.411V75.6992H489.341C489.025 76.3408 488.155 77.2197 486.494 77.2285C484.683 77.2197 483.242 76.1562 483.242 74.293ZM484.753 74.3633C484.762 75.374 485.597 75.8838 486.757 75.875C488.462 75.8838 489.411 74.7412 489.411 73.5371V72.5791C488.963 72.6055 487.46 72.7197 487.003 72.7461C485.632 72.834 484.762 73.3174 484.753 74.3633ZM493.497 80.5859C493.172 80.5771 492.846 80.5684 492.653 80.5508V79.1973C492.811 79.2148 493.154 79.2236 493.391 79.2324C494.006 79.2236 494.525 79.1885 495.026 77.791L495.307 77.0703L491.774 67.4551H493.426L496.028 75.0312H496.133L498.735 67.4551H500.387L496.344 78.3711C495.782 79.874 494.85 80.5771 493.497 80.5859ZM505.263 77.1934C502.504 77.2021 500.799 75.2334 500.799 72.3066C500.799 69.3711 502.53 67.332 505.123 67.332C507.127 67.332 509.245 68.5625 509.236 72.0957V72.7285H502.31C502.389 74.75 503.567 75.8574 505.263 75.8574C506.406 75.8574 507.127 75.3564 507.478 74.7676H509.096C508.647 76.2178 507.232 77.2021 505.263 77.1934ZM502.319 71.4453H507.707C507.698 69.8545 506.696 68.668 505.123 68.668C503.471 68.668 502.425 69.9688 502.319 71.4453ZM510.755 77V67.4551H512.214V68.9141H512.319C512.662 67.9473 513.655 67.3057 514.78 67.2969C515.009 67.3057 515.396 67.3145 515.571 67.332V68.8613C515.457 68.835 515.053 68.7559 514.657 68.7559C513.286 68.7559 512.267 69.7051 512.267 70.9883V77H510.755ZM521.906 69.9336C521.695 69.1426 521.089 68.624 519.973 68.6152C518.795 68.624 517.96 69.2568 517.951 70.0566C517.96 70.6895 518.47 71.1201 519.586 71.3926L521.01 71.7441C522.715 72.1484 523.55 73.001 523.559 74.3281C523.55 75.9805 522.205 77.2021 519.815 77.1934C517.67 77.2021 516.396 76.2441 516.141 74.5039H517.723C517.899 75.4355 518.575 75.8838 519.779 75.875C521.142 75.8838 521.994 75.3125 521.994 74.416C521.994 73.7393 521.511 73.2998 520.43 73.0449L518.988 72.7109C517.327 72.3242 516.44 71.4189 516.44 70.1445C516.44 68.5098 517.872 67.332 519.973 67.332C521.95 67.332 523.19 68.3867 523.383 69.9336H521.906ZM25.9695 98.293C25.9695 96.1045 27.9031 95.6035 29.5555 95.4805C30.1707 95.4365 31.7088 95.3486 32.1395 95.3398V94.5664C32.1395 93.3535 31.4188 92.6504 29.9774 92.6504C28.7733 92.6504 28.0438 93.2041 27.8328 93.9336H26.2508C26.4442 92.3955 27.9383 91.332 30.0477 91.332C31.2957 91.332 33.6424 91.7012 33.6336 94.707V101H32.1395V99.6992H32.0692C31.7527 100.341 30.8826 101.22 29.2215 101.229C27.4109 101.22 25.9695 100.156 25.9695 98.293ZM27.4813 98.3633C27.4901 99.374 28.325 99.8838 29.4852 99.875C31.1902 99.8838 32.1395 98.7412 32.1395 97.5371V96.5791C31.6912 96.6055 30.1883 96.7197 29.7313 96.7461C28.3602 96.834 27.4901 97.3174 27.4813 98.3633ZM37.1211 95.2695V101H35.6094V91.4551H37.0684V92.9492H37.1914C37.6397 91.9736 38.5361 91.332 39.9863 91.332C41.9199 91.332 43.2119 92.5098 43.2031 94.9355V101H41.6914V95.041C41.6914 93.5645 40.8828 92.6855 39.5293 92.6855C38.1406 92.6855 37.1211 93.6172 37.1211 95.2695ZM48.7824 101.193C46.4006 101.202 44.7219 99.2861 44.7219 96.2539C44.7219 93.2305 46.4006 91.332 48.8 91.332C50.6545 91.332 51.2346 92.457 51.5598 92.9668H51.6652V88.2734H53.1945V101H51.718V99.541H51.5598C51.2258 100.068 50.6018 101.202 48.7824 101.193ZM46.2512 96.2188C46.2512 98.249 47.1828 99.8398 48.9934 99.8398C50.7424 99.8398 51.7092 98.3633 51.718 96.2188C51.7092 94.1006 50.7688 92.6855 48.9934 92.6855C47.1565 92.6855 46.2512 94.2236 46.2512 96.2188ZM63.4391 101.193C60.6793 101.202 58.9742 99.2334 58.9742 96.3066C58.9742 93.3711 60.7057 91.332 63.2985 91.332C65.3024 91.332 67.4205 92.5625 67.4117 96.0957V96.7285H60.486C60.5651 98.75 61.7428 99.8574 63.4391 99.8574C64.5817 99.8574 65.3024 99.3564 65.6539 98.7676H67.2711C66.8229 100.218 65.4078 101.202 63.4391 101.193ZM60.4947 95.4453H65.8824C65.8736 93.8545 64.8717 92.668 63.2985 92.668C61.6461 92.668 60.6002 93.9688 60.4947 95.4453ZM68.9305 101V91.4551H70.4422V101H68.9305ZM68.6317 88.8711C68.6229 88.3086 69.1063 87.8604 69.6863 87.8691C70.2664 87.8604 70.7498 88.3086 70.7586 88.8711C70.7498 89.4248 70.2664 89.873 69.6863 89.873C69.1063 89.873 68.6229 89.4248 68.6317 88.8711ZM76.5664 91.4551V92.7207H74.5625V98.2578C74.5537 99.4795 75.169 99.6816 75.8106 99.6816C76.083 99.6816 76.4873 99.6553 76.707 99.6465V101.053C76.4697 101.088 76.1006 101.123 75.6524 101.123C74.3779 101.123 73.042 100.332 73.0332 98.6445V92.7207H71.5918V91.4551H73.0332V89.1699H74.5625V91.4551H76.5664ZM79.7902 95.2695V101H78.2785V88.2734H79.7902V92.9492H79.9133C80.3615 91.9648 81.2141 91.332 82.7258 91.332C84.677 91.332 85.9777 92.4834 85.9777 94.9355V101H84.466V95.041C84.466 93.5381 83.6399 92.6855 82.2688 92.6855C80.8449 92.6855 79.7902 93.6172 79.7902 95.2695ZM91.9613 101.193C89.2016 101.202 87.4965 99.2334 87.4965 96.3066C87.4965 93.3711 89.2279 91.332 91.8207 91.332C93.8246 91.332 95.9428 92.5625 95.934 96.0957V96.7285H89.0082C89.0873 98.75 90.2651 99.8574 91.9613 99.8574C93.1039 99.8574 93.8246 99.3564 94.1762 98.7676H95.7934C95.3451 100.218 93.9301 101.202 91.9613 101.193ZM89.017 95.4453H94.4047C94.3959 93.8545 93.394 92.668 91.8207 92.668C90.1684 92.668 89.1225 93.9688 89.017 95.4453ZM97.4527 101V91.4551H98.9117V92.9141H99.0172C99.36 91.9473 100.353 91.3057 101.478 91.2969C101.707 91.3057 102.093 91.3145 102.269 91.332V92.8613C102.155 92.835 101.751 92.7559 101.355 92.7559C99.984 92.7559 98.9645 93.7051 98.9645 94.9883V101H97.4527ZM111.371 101.193C108.611 101.202 106.906 99.2334 106.906 96.3066C106.906 93.3711 108.638 91.332 111.23 91.332C113.234 91.332 115.353 92.5625 115.344 96.0957V96.7285H108.418C108.497 98.75 109.675 99.8574 111.371 99.8574C112.514 99.8574 113.234 99.3564 113.586 98.7676H115.203C114.755 100.218 113.34 101.202 111.371 101.193ZM108.427 95.4453H113.814C113.806 93.8545 112.804 92.668 111.23 92.668C109.578 92.668 108.532 93.9688 108.427 95.4453ZM118.374 95.2695V101H116.863V91.4551H118.321V92.9492H118.445C118.893 91.9736 119.789 91.332 121.239 91.332C123.173 91.332 124.465 92.5098 124.456 94.9355V101H122.945V95.041C122.945 93.5645 122.136 92.6855 120.782 92.6855C119.394 92.6855 118.374 93.6172 118.374 95.2695ZM130.598 91.4551V92.7207H128.594V98.2578C128.585 99.4795 129.201 99.6816 129.842 99.6816C130.115 99.6816 130.519 99.6553 130.739 99.6465V101.053C130.501 101.088 130.132 101.123 129.684 101.123C128.41 101.123 127.074 100.332 127.065 98.6445V92.7207H125.623V91.4551H127.065V89.1699H128.594V91.4551H130.598ZM136.002 101.193C133.242 101.202 131.537 99.2334 131.537 96.3066C131.537 93.3711 133.268 91.332 135.861 91.332C137.865 91.332 139.983 92.5625 139.974 96.0957V96.7285H133.048C133.128 98.75 134.305 99.8574 136.002 99.8574C137.144 99.8574 137.865 99.3564 138.216 98.7676H139.834C139.385 100.218 137.97 101.202 136.002 101.193ZM133.057 95.4453H138.445C138.436 93.8545 137.434 92.668 135.861 92.668C134.209 92.668 133.163 93.9688 133.057 95.4453ZM141.493 101V91.4551H142.952V92.9141H143.057C143.4 91.9473 144.393 91.3057 145.518 91.2969C145.747 91.3057 146.134 91.3145 146.309 91.332V92.8613C146.195 92.835 145.791 92.7559 145.395 92.7559C144.024 92.7559 143.005 93.7051 143.005 94.9883V101H141.493ZM155.57 91.4551V92.7207H153.566V98.2578C153.557 99.4795 154.172 99.6816 154.814 99.6816C155.086 99.6816 155.49 99.6553 155.71 99.6465V101.053C155.473 101.088 155.104 101.123 154.655 101.123C153.381 101.123 152.045 100.332 152.036 98.6445V92.7207H150.595V91.4551H152.036V89.1699H153.566V91.4551H155.57ZM160.973 101.193C158.213 101.202 156.508 99.2334 156.508 96.3066C156.508 93.3711 158.24 91.332 160.832 91.332C162.836 91.332 164.954 92.5625 164.946 96.0957V96.7285H158.02C158.099 98.75 159.277 99.8574 160.973 99.8574C162.116 99.8574 162.836 99.3564 163.188 98.7676H164.805C164.357 100.218 162.942 101.202 160.973 101.193ZM158.029 95.4453H163.416C163.408 93.8545 162.406 92.668 160.832 92.668C159.18 92.668 158.134 93.9688 158.029 95.4453ZM167.361 91.4551L169.611 95.3398L171.879 91.4551H173.619L170.543 96.2188L173.619 101H171.896L169.611 97.3086L167.361 101H165.621L168.627 96.2188L165.621 91.4551H167.361ZM179.163 91.4551V92.7207H177.159V98.2578C177.15 99.4795 177.765 99.6816 178.407 99.6816C178.68 99.6816 179.084 99.6553 179.304 99.6465V101.053C179.066 101.088 178.697 101.123 178.249 101.123C176.974 101.123 175.638 100.332 175.63 98.6445V92.7207H174.188V91.4551H175.63V89.1699H177.159V91.4551H179.163ZM188.634 101.193C186.032 101.202 184.275 99.2334 184.275 96.2715C184.275 93.292 186.032 91.332 188.634 91.332C191.227 91.332 192.967 93.292 192.958 96.2715C192.967 99.2334 191.227 101.202 188.634 101.193ZM185.786 96.2715C185.795 98.1787 186.692 99.8574 188.634 99.8574C190.559 99.8574 191.447 98.1787 191.447 96.2715C191.447 94.373 190.559 92.668 188.634 92.668C186.692 92.668 185.795 94.373 185.786 96.2715ZM194.495 101V91.4551H195.954V92.9141H196.059C196.402 91.9473 197.395 91.3057 198.52 91.2969C198.748 91.3057 199.135 91.3145 199.311 91.332V92.8613C199.197 92.835 198.792 92.7559 198.397 92.7559C197.026 92.7559 196.006 93.7051 196.006 94.9883V101H194.495ZM204.405 104.586V91.4551H205.864V92.9668H206.04C206.365 92.457 206.945 91.332 208.8 91.332C211.199 91.332 212.86 93.2305 212.86 96.2539C212.86 99.2861 211.199 101.202 208.817 101.193C206.998 101.202 206.365 100.068 206.04 99.541H205.917V104.586H204.405ZM205.882 96.2188C205.89 98.3633 206.848 99.8398 208.606 99.8398C210.417 99.8398 211.348 98.249 211.348 96.2188C211.348 94.2236 210.443 92.6855 208.606 92.6855C206.822 92.6855 205.89 94.1006 205.882 96.2188ZM214.379 101V91.4551H215.838V92.9141H215.943C216.286 91.9473 217.279 91.3057 218.404 91.2969C218.633 91.3057 219.02 91.3145 219.195 91.332V92.8613C219.081 92.835 218.677 92.7559 218.281 92.7559C216.91 92.7559 215.891 93.7051 215.891 94.9883V101H214.379ZM223.913 101.193C221.154 101.202 219.448 99.2334 219.448 96.3066C219.448 93.3711 221.18 91.332 223.773 91.332C225.777 91.332 227.895 92.5625 227.886 96.0957V96.7285H220.96C221.039 98.75 222.217 99.8574 223.913 99.8574C225.056 99.8574 225.777 99.3564 226.128 98.7676H227.745C227.297 100.218 225.882 101.202 223.913 101.193ZM220.969 95.4453H226.357C226.348 93.8545 225.346 92.668 223.773 92.668C222.12 92.668 221.074 93.9688 220.969 95.4453ZM234.713 93.9336C234.502 93.1426 233.896 92.624 232.78 92.6152C231.602 92.624 230.767 93.2568 230.758 94.0566C230.767 94.6895 231.277 95.1201 232.393 95.3926L233.817 95.7441C235.522 96.1484 236.357 97.001 236.366 98.3281C236.357 99.9805 235.012 101.202 232.621 101.193C230.477 101.202 229.203 100.244 228.948 98.5039H230.53C230.705 99.4355 231.382 99.8838 232.586 99.875C233.949 99.8838 234.801 99.3125 234.801 98.416C234.801 97.7393 234.318 97.2998 233.237 97.0449L231.795 96.7109C230.134 96.3242 229.246 95.4189 229.246 94.1445C229.246 92.5098 230.679 91.332 232.78 91.332C234.757 91.332 235.996 92.3867 236.19 93.9336H234.713ZM243.193 93.9336C242.982 93.1426 242.376 92.624 241.259 92.6152C240.082 92.624 239.247 93.2568 239.238 94.0566C239.247 94.6895 239.756 95.1201 240.873 95.3926L242.296 95.7441C244.002 96.1484 244.837 97.001 244.845 98.3281C244.837 99.9805 243.492 101.202 241.101 101.193C238.957 101.202 237.682 100.244 237.427 98.5039H239.009C239.185 99.4355 239.862 99.8838 241.066 99.875C242.428 99.8838 243.281 99.3125 243.281 98.416C243.281 97.7393 242.797 97.2998 241.716 97.0449L240.275 96.7109C238.614 96.3242 237.726 95.4189 237.726 94.1445C237.726 92.5098 239.159 91.332 241.259 91.332C243.237 91.332 244.476 92.3867 244.67 93.9336H243.193ZM254.598 91.4551V92.7207H252.594V98.2578C252.585 99.4795 253.2 99.6816 253.842 99.6816C254.114 99.6816 254.519 99.6553 254.738 99.6465V101.053C254.501 101.088 254.132 101.123 253.684 101.123C252.409 101.123 251.073 100.332 251.064 98.6445V92.7207H249.623V91.4551H251.064V89.1699H252.594V91.4551H254.598ZM257.822 95.2695V101H256.31V88.2734H257.822V92.9492H257.945C258.393 91.9648 259.245 91.332 260.757 91.332C262.708 91.332 264.009 92.4834 264.009 94.9355V101H262.497V95.041C262.497 93.5381 261.671 92.6855 260.3 92.6855C258.876 92.6855 257.822 93.6172 257.822 95.2695ZM269.993 101.193C267.233 101.202 265.528 99.2334 265.528 96.3066C265.528 93.3711 267.259 91.332 269.852 91.332C271.856 91.332 273.974 92.5625 273.965 96.0957V96.7285H267.039C267.119 98.75 268.296 99.8574 269.993 99.8574C271.135 99.8574 271.856 99.3564 272.207 98.7676H273.825C273.376 100.218 271.961 101.202 269.993 101.193ZM267.048 95.4453H272.436C272.427 93.8545 271.425 92.668 269.852 92.668C268.2 92.668 267.154 93.9688 267.048 95.4453ZM278.989 93.0547L280.36 88.2734H281.661L280.694 93.0547H278.989ZM293.375 88.2734V101H291.863L284.973 91.0859H284.85V101H283.268V88.2734H284.797L291.688 98.2051H291.811V88.2734H293.375ZM299.552 101.193C296.792 101.202 295.087 99.2334 295.087 96.3066C295.087 93.3711 296.819 91.332 299.411 91.332C301.415 91.332 303.533 92.5625 303.525 96.0957V96.7285H296.599C296.678 98.75 297.856 99.8574 299.552 99.8574C300.695 99.8574 301.415 99.3564 301.767 98.7676H303.384C302.936 100.218 301.521 101.202 299.552 101.193ZM296.608 95.4453H301.995C301.987 93.8545 300.985 92.668 299.411 92.668C297.759 92.668 296.713 93.9688 296.608 95.4453ZM305.94 91.4551L308.19 95.3398L310.457 91.4551H312.198L309.121 96.2188L312.198 101H310.475L308.19 97.3086L305.94 101H304.2L307.205 96.2188L304.2 91.4551H305.94ZM317.742 91.4551V92.7207H315.738V98.2578C315.729 99.4795 316.344 99.6816 316.986 99.6816C317.258 99.6816 317.663 99.6553 317.882 99.6465V101.053C317.645 101.088 317.276 101.123 316.828 101.123C315.553 101.123 314.217 100.332 314.209 98.6445V92.7207H312.767V91.4551H314.209V89.1699H315.738V91.4551H317.742ZM321.862 88.291L320.491 93.0723H319.19L320.157 88.291H321.862ZM327.536 101V88.2734H329.048V92.9668H329.171C329.496 92.457 330.068 91.332 331.931 91.332C334.322 91.332 336 93.2305 336.009 96.2539C336 99.2861 334.322 101.202 331.948 101.193C330.12 101.202 329.496 100.068 329.171 99.541H328.995V101H327.536ZM329.013 96.2188C329.013 98.3633 329.98 99.8398 331.72 99.8398C333.539 99.8398 334.471 98.249 334.48 96.2188C334.471 94.2236 333.566 92.6855 331.72 92.6855C329.962 92.6855 329.013 94.1006 329.013 96.2188ZM343.557 97.0801V91.4551H345.051V101H343.557V99.3828H343.452C343.003 100.35 342.054 101.123 340.621 101.123C338.811 101.123 337.519 99.9453 337.528 97.5195V91.4551H339.039V97.4141C339.039 98.7852 339.892 99.6729 341.114 99.6641C342.195 99.6729 343.548 98.8643 343.557 97.0801ZM351.193 91.4551V92.7207H349.189V98.2578C349.18 99.4795 349.796 99.6816 350.437 99.6816C350.71 99.6816 351.114 99.6553 351.334 99.6465V101.053C351.096 101.088 350.727 101.123 350.279 101.123C349.005 101.123 347.669 100.332 347.66 98.6445V92.7207H346.218V91.4551H347.66V89.1699H349.189V91.4551H351.193ZM356.86 91.4551V92.7207H354.856V98.2578C354.847 99.4795 355.463 99.6816 356.104 99.6816C356.377 99.6816 356.781 99.6553 357.001 99.6465V101.053C356.763 101.088 356.394 101.123 355.946 101.123C354.672 101.123 353.336 100.332 353.327 98.6445V92.7207H351.886V91.4551H353.327V89.1699H354.856V91.4551H356.86ZM362.158 101.193C359.557 101.202 357.799 99.2334 357.799 96.2715C357.799 93.292 359.557 91.332 362.158 91.332C364.751 91.332 366.491 93.292 366.482 96.2715C366.491 99.2334 364.751 101.202 362.158 101.193ZM359.311 96.2715C359.319 98.1787 360.216 99.8574 362.158 99.8574C364.083 99.8574 364.971 98.1787 364.971 96.2715C364.971 94.373 364.083 92.668 362.158 92.668C360.216 92.668 359.319 94.373 359.311 96.2715ZM369.53 95.2695V101H368.019V91.4551H369.478V92.9492H369.601C370.049 91.9736 370.946 91.332 372.396 91.332C374.329 91.332 375.621 92.5098 375.613 94.9355V101H374.101V95.041C374.101 93.5645 373.292 92.6855 371.939 92.6855C370.55 92.6855 369.53 93.6172 369.53 95.2695ZM383.8 101L380.9 91.4551H382.5L384.539 98.7324H384.627L386.648 91.4551H388.265L390.252 98.6973H390.357L392.396 91.4551H393.978L391.078 101H389.584L387.509 93.7227H387.369L385.312 101H383.8ZM396.71 95.2695V101H395.198V88.2734H396.71V92.9492H396.833C397.281 91.9648 398.134 91.332 399.645 91.332C401.596 91.332 402.897 92.4834 402.897 94.9355V101H401.386V95.041C401.386 93.5381 400.559 92.6855 399.188 92.6855C397.764 92.6855 396.71 93.6172 396.71 95.2695ZM408.881 101.193C406.121 101.202 404.416 99.2334 404.416 96.3066C404.416 93.3711 406.147 91.332 408.74 91.332C410.744 91.332 412.862 92.5625 412.854 96.0957V96.7285H405.928C406.007 98.75 407.185 99.8574 408.881 99.8574C410.023 99.8574 410.744 99.3564 411.096 98.7676H412.713C412.265 100.218 410.85 101.202 408.881 101.193ZM405.937 95.4453H411.324C411.315 93.8545 410.313 92.668 408.74 92.668C407.088 92.668 406.042 93.9688 405.937 95.4453ZM415.884 95.2695V101H414.372V91.4551H415.831V92.9492H415.954C416.403 91.9736 417.299 91.332 418.749 91.332C420.683 91.332 421.975 92.5098 421.966 94.9355V101H420.454V95.041C420.454 93.5645 419.646 92.6855 418.292 92.6855C416.904 92.6855 415.884 93.6172 415.884 95.2695ZM428.009 101V91.4551H429.468V92.9492H429.591C429.987 91.9297 430.91 91.332 432.158 91.332C433.406 91.332 434.258 91.9297 434.707 92.9492H434.812C435.296 91.9648 436.306 91.332 437.677 91.332C439.374 91.332 440.595 92.3691 440.595 94.6191V101H439.084V94.6367C439.075 93.2305 438.196 92.6855 437.15 92.6855C435.823 92.6855 435.067 93.582 435.058 94.7949V101H433.529V94.4785C433.538 93.4062 432.764 92.6855 431.666 92.6855C430.523 92.6855 429.521 93.6523 429.521 95.041V101H428.009ZM442.114 98.293C442.114 96.1045 444.048 95.6035 445.7 95.4805C446.315 95.4365 447.853 95.3486 448.284 95.3398V94.5664C448.284 93.3535 447.563 92.6504 446.122 92.6504C444.918 92.6504 444.188 93.2041 443.977 93.9336H442.395C442.589 92.3955 444.083 91.332 446.192 91.332C447.44 91.332 449.787 91.7012 449.778 94.707V101H448.284V99.6992H448.214C447.897 100.341 447.027 101.22 445.366 101.229C443.555 101.22 442.114 100.156 442.114 98.293ZM443.626 98.3633C443.635 99.374 444.47 99.8838 445.63 99.875C447.335 99.8838 448.284 98.7412 448.284 97.5371V96.5791C447.836 96.6055 446.333 96.7197 445.876 96.7461C444.505 96.834 443.635 97.3174 443.626 98.3633ZM451.754 101V88.2734H453.266V95.6738H453.441L457.572 91.4551H459.436L455.41 95.542L459.734 101H457.818L454.276 96.5L453.266 97.4404V101H451.754ZM460.603 101V91.4551H462.114V101H460.603ZM460.304 88.8711C460.295 88.3086 460.779 87.8604 461.359 87.8691C461.939 87.8604 462.422 88.3086 462.431 88.8711C462.422 89.4248 461.939 89.873 461.359 89.873C460.779 89.873 460.295 89.4248 460.304 88.8711ZM465.584 95.2695V101H464.073V91.4551H465.532V92.9492H465.655C466.103 91.9736 466.999 91.332 468.45 91.332C470.383 91.332 471.675 92.5098 471.666 94.9355V101H470.155V95.041C470.155 93.5645 469.346 92.6855 467.993 92.6855C466.604 92.6855 465.584 93.6172 465.584 95.2695ZM477.509 104.779C475.198 104.779 473.633 103.769 473.466 102.002H475.048C475.251 102.978 476.156 103.461 477.509 103.461C479.144 103.461 480.146 102.749 480.146 101.176V99.2422H480.023C479.698 99.7695 479.091 100.851 477.246 100.859C474.925 100.851 473.185 99.1016 473.185 96.0957C473.185 93.1602 474.864 91.332 477.263 91.332C479.118 91.332 479.715 92.457 480.058 92.9668H480.181V91.4551H481.658V101.264C481.649 103.725 479.839 104.779 477.509 104.779ZM474.714 96.1484C474.714 98.126 475.646 99.5059 477.457 99.5059C479.206 99.5059 480.172 98.249 480.181 96.1484C480.172 94.1006 479.232 92.6855 477.457 92.6855C475.62 92.6855 474.714 94.2236 474.714 96.1484ZM487.227 98.293C487.227 96.1045 489.16 95.6035 490.812 95.4805C491.428 95.4365 492.966 95.3486 493.396 95.3398V94.5664C493.396 93.3535 492.676 92.6504 491.234 92.6504C490.03 92.6504 489.301 93.2041 489.09 93.9336H487.508C487.701 92.3955 489.195 91.332 491.305 91.332C492.553 91.332 494.899 91.7012 494.891 94.707V101H493.396V99.6992H493.326C493.01 100.341 492.14 101.22 490.479 101.229C488.668 101.22 487.227 100.156 487.227 98.293ZM488.738 98.3633C488.747 99.374 489.582 99.8838 490.742 99.875C492.447 99.8838 493.396 98.7412 493.396 97.5371V96.5791C492.948 96.6055 491.445 96.7197 490.988 96.7461C489.617 96.834 488.747 97.3174 488.738 98.3633ZM506.243 93.9336C506.032 93.1426 505.425 92.624 504.309 92.6152C503.131 92.624 502.296 93.2568 502.288 94.0566C502.296 94.6895 502.806 95.1201 503.922 95.3926L505.346 95.7441C507.051 96.1484 507.886 97.001 507.895 98.3281C507.886 99.9805 506.541 101.202 504.151 101.193C502.006 101.202 500.732 100.244 500.477 98.5039H502.059C502.235 99.4355 502.912 99.8838 504.116 99.875C505.478 99.8838 506.33 99.3125 506.33 98.416C506.33 97.7393 505.847 97.2998 504.766 97.0449L503.325 96.7109C501.663 96.3242 500.776 95.4189 500.776 94.1445C500.776 92.5098 502.208 91.332 504.309 91.332C506.287 91.332 507.526 92.3867 507.719 93.9336H506.243ZM513.422 101.193C510.662 101.202 508.957 99.2334 508.957 96.3066C508.957 93.3711 510.688 91.332 513.281 91.332C515.285 91.332 517.403 92.5625 517.394 96.0957V96.7285H510.468C510.547 98.75 511.725 99.8574 513.422 99.8574C514.564 99.8574 515.285 99.3564 515.636 98.7676H517.254C516.805 100.218 515.39 101.202 513.422 101.193ZM510.477 95.4453H515.865C515.856 93.8545 514.854 92.668 513.281 92.668C511.629 92.668 510.583 93.9688 510.477 95.4453ZM520.425 88.2734V101H518.913V88.2734H520.425ZM526.391 101.193C523.631 101.202 521.926 99.2334 521.926 96.3066C521.926 93.3711 523.657 91.332 526.25 91.332C528.254 91.332 530.372 92.5625 530.363 96.0957V96.7285H523.438C523.517 98.75 524.694 99.8574 526.391 99.8574C527.533 99.8574 528.254 99.3564 528.605 98.7676H530.223C529.774 100.218 528.359 101.202 526.391 101.193ZM523.446 95.4453H528.834C528.825 93.8545 527.823 92.668 526.25 92.668C524.598 92.668 523.552 93.9688 523.446 95.4453ZM535.784 101.193C533.077 101.202 531.425 99.1367 531.425 96.2715C531.425 93.3711 533.156 91.332 535.749 91.332C537.78 91.332 539.309 92.5361 539.546 94.3379H538.034C537.815 93.4678 537.059 92.668 535.784 92.668C534.079 92.668 532.946 94.0742 532.937 96.2188C532.946 98.4248 534.053 99.8398 535.784 99.8398C536.909 99.8398 537.771 99.2334 538.034 98.1875H539.546C539.309 99.8926 537.903 101.202 535.784 101.193ZM545.125 91.4551V92.7207H543.122V98.2578C543.113 99.4795 543.728 99.6816 544.37 99.6816C544.642 99.6816 545.046 99.6553 545.266 99.6465V101.053C545.029 101.088 544.66 101.123 544.211 101.123C542.937 101.123 541.601 100.332 541.592 98.6445V92.7207H540.151V91.4551H541.592V89.1699H543.122V91.4551H545.125ZM546.627 101V91.4551H548.138V101H546.627ZM546.328 88.8711C546.319 88.3086 546.802 87.8604 547.382 87.8691C547.963 87.8604 548.446 88.3086 548.455 88.8711C548.446 89.4248 547.963 89.873 547.382 89.873C546.802 89.873 546.319 89.4248 546.328 88.8711ZM553.999 101.193C551.397 101.202 549.639 99.2334 549.639 96.2715C549.639 93.292 551.397 91.332 553.999 91.332C556.592 91.332 558.332 93.292 558.323 96.2715C558.332 99.2334 556.592 101.202 553.999 101.193ZM551.151 96.2715C551.16 98.1787 552.056 99.8574 553.999 99.8574C555.924 99.8574 556.811 98.1787 556.811 96.2715C556.811 94.373 555.924 92.668 553.999 92.668C552.056 92.668 551.16 94.373 551.151 96.2715ZM561.371 95.2695V101H559.859V91.4551H561.318V92.9492H561.441C561.89 91.9736 562.786 91.332 564.236 91.332C566.17 91.332 567.462 92.5098 567.453 94.9355V101H565.941V95.041C565.941 93.5645 565.133 92.6855 563.779 92.6855C562.391 92.6855 561.371 93.6172 561.371 95.2695ZM570.501 101.105C569.886 101.097 569.359 100.587 569.376 99.9629C569.359 99.3477 569.886 98.8379 570.501 98.8379C571.125 98.8379 571.635 99.3477 571.626 99.9629C571.635 100.587 571.125 101.097 570.501 101.105Z" fill="white"/>
<path d="M586.667 11.333V44.6663H553.333V11.333H586.667ZM577.072 23.2863L574.717 20.928L570 25.643L565.287 20.928L562.93 23.2863L567.643 27.9997L562.93 32.713L565.287 35.0713L570.002 30.3563L574.715 35.0713L577.072 32.713L572.358 27.9997L577.072 23.2863Z" fill="white"/>
</svg>
