<svg width="264" height="72" viewBox="0 0 264 72" fill="none" xmlns="http://www.w3.org/2000/svg">
<g clip-path="url(#clip0_2593_13357)">
<path d="M58.275 45V28.0312H64.65C68.5406 28.0312 70.6148 30.2109 70.6266 33.4453C70.6148 35.7539 69.5602 37.4648 67.568 38.2734L71.2359 45H67.8375L64.5094 38.7891H61.3219V45H58.275ZM61.3219 36.2344H64.1813C66.4781 36.2461 67.5094 35.2617 67.5094 33.4453C67.5094 31.6406 66.4781 30.5859 64.1813 30.5859H61.3219V36.2344ZM77.9719 45.2578C74.1398 45.2578 71.7844 42.7031 71.7844 38.7188C71.7844 34.7812 74.175 32.1094 77.8078 32.1094C80.925 32.1094 83.6203 34.0664 83.6203 38.5312V39.4688H74.7375C74.7844 41.6367 76.0617 42.9258 77.9953 42.9141C79.3078 42.9258 80.1867 42.3633 80.5734 41.6016H83.5031C82.9641 43.8047 80.925 45.2578 77.9719 45.2578ZM74.7492 37.4297H80.7609C80.7492 35.6953 79.5773 34.4297 77.8547 34.4297C76.0617 34.4297 74.8547 35.8125 74.7492 37.4297ZM84.7547 41.4141C84.7547 38.5547 87.1336 37.7227 89.4891 37.5703C90.3797 37.5 92.1961 37.418 92.7586 37.3945L92.7469 36.375C92.7469 35.1094 91.9383 34.3828 90.45 34.3828C89.1141 34.3828 88.2938 34.9922 88.0594 35.9062H85.1766C85.3875 33.7383 87.3328 32.1094 90.5203 32.1094C92.9344 32.1094 95.7234 33.1055 95.7234 36.4922V45H92.8641V43.2422H92.7703C92.2078 44.3203 91.0242 45.2578 89.0203 45.2578C86.5945 45.2578 84.7547 43.9336 84.7547 41.4141ZM87.6375 41.3906C87.6375 42.4922 88.5398 43.0547 89.7938 43.0547C91.6102 43.0547 92.7703 41.8594 92.7703 40.4297L92.7586 39.3867C92.2195 39.4102 90.5555 39.5156 89.9578 39.5625C88.5398 39.6797 87.6375 40.2773 87.6375 41.3906ZM102.67 45.2344C99.682 45.2227 97.4203 42.832 97.4203 38.6484C97.4203 34.4062 99.7406 32.1094 102.694 32.1094C104.932 32.1094 105.87 33.457 106.327 34.3594H106.444V28.0312H109.42V45H106.491V42.9844H106.327C105.846 43.9219 104.873 45.2227 102.67 45.2344ZM100.467 38.625C100.467 41.0273 101.522 42.7734 103.491 42.7734C105.424 42.7734 106.514 41.1094 106.514 38.625C106.514 36.1523 105.436 34.5586 103.491 34.5469C101.498 34.5586 100.467 36.2578 100.467 38.625ZM113.648 49.7812C113.051 49.7695 112.488 49.7578 112.102 49.7109V47.3203C112.465 47.3555 112.969 47.3555 113.367 47.3672C114.094 47.3555 114.703 47.3086 115.219 45.9375L115.477 45.2578L110.836 32.2734H114L116.953 41.8828H117.094L120.047 32.2734H123.211L118.102 46.5469C117.375 48.5742 116.039 49.7695 113.648 49.7812ZM135.933 32.2734V34.5703H133.425V41.1797C133.425 42.3984 134.034 42.6445 134.784 42.6562C135.136 42.668 135.722 42.6328 136.097 42.6094V45.0469C135.745 45.1055 135.171 45.1758 134.409 45.1641C132.159 45.1758 130.425 44.0625 130.448 41.6719V34.5703H128.62V32.2734H130.448V29.2266H133.425V32.2734H135.933ZM143.044 45.2578C139.329 45.2578 136.95 42.6211 136.95 38.6953C136.95 34.7344 139.329 32.1094 143.044 32.1094C146.77 32.1094 149.149 34.7344 149.138 38.6953C149.149 42.6211 146.77 45.2578 143.044 45.2578ZM139.973 38.6719C139.973 41.0039 140.993 42.8672 143.067 42.8672C145.106 42.8672 146.126 41.0039 146.114 38.6719C146.126 36.3398 145.106 34.4648 143.067 34.4766C140.993 34.4648 139.973 36.3398 139.973 38.6719ZM165.328 32.6953C165.176 31.2305 163.945 30.3867 162.117 30.3984C160.184 30.3867 159.035 31.3242 159.023 32.6016C159.012 34.0312 160.523 34.6172 161.93 34.9453L163.523 35.3672C166.055 35.9531 168.492 37.2891 168.492 40.2422C168.492 43.2188 166.137 45.2578 162.07 45.2578C158.121 45.2578 155.613 43.3594 155.484 40.0078H158.484C158.625 41.7773 160.113 42.6445 162.047 42.6562C164.051 42.6445 165.434 41.6719 165.445 40.2188C165.434 38.8828 164.215 38.3203 162.375 37.8516L160.453 37.3594C157.664 36.6328 155.93 35.2266 155.93 32.7891C155.93 29.7891 158.59 27.7969 162.164 27.7969C165.762 27.7969 168.211 29.8242 168.258 32.6953H165.328ZM176.634 32.2734V34.5703H174.127V41.1797C174.127 42.3984 174.736 42.6445 175.486 42.6562C175.838 42.668 176.423 42.6328 176.798 42.6094V45.0469C176.447 45.1055 175.873 45.1758 175.111 45.1641C172.861 45.1758 171.127 44.0625 171.15 41.6719V34.5703H169.322V32.2734H171.15V29.2266H174.127V32.2734H176.634ZM177.745 41.4141C177.745 38.5547 180.124 37.7227 182.48 37.5703C183.37 37.5 185.187 37.418 185.749 37.3945L185.738 36.375C185.738 35.1094 184.929 34.3828 183.441 34.3828C182.105 34.3828 181.284 34.9922 181.05 35.9062H178.167C178.378 33.7383 180.323 32.1094 183.511 32.1094C185.925 32.1094 188.714 33.1055 188.714 36.4922V45H185.855V43.2422H185.761C185.198 44.3203 184.015 45.2578 182.011 45.2578C179.585 45.2578 177.745 43.9336 177.745 41.4141ZM180.628 41.3906C180.628 42.4922 181.53 43.0547 182.784 43.0547C184.601 43.0547 185.761 41.8594 185.761 40.4297L185.749 39.3867C185.21 39.4102 183.546 39.5156 182.948 39.5625C181.53 39.6797 180.628 40.2773 180.628 41.3906ZM190.927 45V32.2734H193.833V34.3828H193.973C194.43 32.918 195.649 32.0859 197.114 32.0859C197.442 32.0859 197.911 32.1211 198.192 32.1562V34.9219C197.923 34.8281 197.302 34.7461 196.809 34.7344C195.145 34.7461 193.927 35.8945 193.927 37.5V45H190.927ZM206.428 32.2734V34.5703H203.92V41.1797C203.92 42.3984 204.53 42.6445 205.28 42.6562C205.631 42.668 206.217 42.6328 206.592 42.6094V45.0469C206.241 45.1055 205.666 45.1758 204.905 45.1641C202.655 45.1758 200.92 44.0625 200.944 41.6719V34.5703H199.116V32.2734H200.944V29.2266H203.92V32.2734H206.428Z" fill="#E6ECEF"/>
<mask id="path-2-inside-1_2593_13357" fill="white">
<path d="M256 0L264 8V64L256 72H8L0 64V8L8 0H256Z"/>
</mask>
<path d="M256 0L257.414 -1.41421L256.828 -2H256V0ZM264 8H266V7.17157L265.414 6.58579L264 8ZM264 64L265.414 65.4142L266 64.8284V64H264ZM256 72V74H256.828L257.414 73.4142L256 72ZM8 72L6.58579 73.4142L7.17157 74H8V72ZM0 64H-2V64.8284L-1.41421 65.4142L0 64ZM0 8L-1.41421 6.58579L-2 7.17157V8H0ZM8 0V-2H7.17157L6.58579 -1.41421L8 0ZM256 0L254.586 1.41421L262.586 9.41421L264 8L265.414 6.58579L257.414 -1.41421L256 0ZM264 8H262V64H264H266V8H264ZM264 64L262.586 62.5858L254.586 70.5858L256 72L257.414 73.4142L265.414 65.4142L264 64ZM256 72V70H8V72V74H256V72ZM8 72L9.41421 70.5858L1.41421 62.5858L0 64L-1.41421 65.4142L6.58579 73.4142L8 72ZM0 64H2V8H0H-2V64H0ZM0 8L1.41421 9.41421L9.41421 1.41421L8 0L6.58579 -1.41421L-1.41421 6.58579L0 8ZM8 0V2H256V0V-2H8V0Z" fill="#E6ECEF" mask="url(#path-2-inside-1_2593_13357)"/>
<mask id="path-4-inside-2_2593_13357" fill="white">
<path d="M260 10V62L254.432 67.5684H9.56836L4 62V10L9.57031 4.42969H254.43L260 10Z"/>
</mask>
<path d="M260 10H261V9.58579L260.707 9.29289L260 10ZM260 62L260.707 62.7071L261 62.4142V62H260ZM254.432 67.5684V68.5684H254.846L255.139 68.2755L254.432 67.5684ZM9.56836 67.5684L8.86125 68.2755L9.15415 68.5684H9.56836V67.5684ZM4 62H3V62.4142L3.29289 62.7071L4 62ZM4 10L3.29289 9.29289L3 9.58579V10H4ZM9.57031 4.42969V3.42969H9.1561L8.86321 3.72258L9.57031 4.42969ZM254.43 4.42969L255.137 3.72258L254.844 3.42969H254.43V4.42969ZM260 10H259V62H260H261V10H260ZM260 62L259.293 61.2929L253.725 66.8613L254.432 67.5684L255.139 68.2755L260.707 62.7071L260 62ZM254.432 67.5684V66.5684H9.56836V67.5684V68.5684H254.432V67.5684ZM9.56836 67.5684L10.2755 66.8613L4.70711 61.2929L4 62L3.29289 62.7071L8.86125 68.2755L9.56836 67.5684ZM4 62H5V10H4H3V62H4ZM4 10L4.70711 10.7071L10.2774 5.13679L9.57031 4.42969L8.86321 3.72258L3.29289 9.29289L4 10ZM9.57031 4.42969V5.42969H254.43V4.42969V3.42969H9.57031V4.42969ZM254.43 4.42969L253.723 5.13679L259.293 10.7071L260 10L260.707 9.29289L255.137 3.72258L254.43 4.42969Z" fill="#E6ECEF" mask="url(#path-4-inside-2_2593_13357)"/>
</g>
<defs>
<clipPath id="clip0_2593_13357">
<rect width="264" height="72" fill="white"/>
</clipPath>
</defs>
</svg>
